<?xml version="1.0" encoding="UTF-8"?>
<svg height="921.0" width="1427.0" xmlns="http://www.w3.org/2000/svg">
 <g>
  <g class="horizontallines">
   <line x1="8.0" y1="2.0" x2="1415.0" y2="2.0" style="stroke:red;stroke-width:1.0;"/>
   <line x1="44.0" y1="39.0" x2="1384.0" y2="39.0" style="stroke:red;stroke-width:1.0;"/>
   <line x1="44.0" y1="282.0" x2="1383.0" y2="282.0" style="stroke:red;stroke-width:1.0;"/>
   <line x1="44.0" y1="855.0" x2="1384.0" y2="855.0" style="stroke:red;stroke-width:2.0;"/>
   <line x1="49.0" y1="859.0" x2="295.0" y2="859.0" style="stroke:red;stroke-width:1.0;"/>
   <line x1="312.0" y1="859.0" x2="630.0" y2="859.0" style="stroke:red;stroke-width:1.0;"/>
   <line x1="648.0" y1="859.0" x2="967.0" y2="859.0" style="stroke:red;stroke-width:1.0;"/>
   <line x1="985.0" y1="859.0" x2="1383.0" y2="859.0" style="stroke:red;stroke-width:1.0;"/>
  </g>
  <g class="verticallines">
   <line x1="2.0" y1="8.0" x2="2.0" y2="910.0" style="stroke:blue;stroke-width:1.0;"/>
   <line x1="42.0" y1="46.0" x2="42.0" y2="278.0" style="stroke:blue;stroke-width:1.0;"/>
   <line x1="42.0" y1="287.0" x2="42.0" y2="847.0" style="stroke:blue;stroke-width:1.0;"/>
   <line x1="640.0" y1="282.0" x2="640.0" y2="869.0" style="stroke:blue;stroke-width:2.0;"/>
   <line x1="1386.0" y1="40.0" x2="1386.0" y2="279.0" style="stroke:blue;stroke-width:1.0;"/>
   <line x1="1386.0" y1="287.0" x2="1386.0" y2="847.0" style="stroke:blue;stroke-width:1.0;"/>
   <line x1="1417.0" y1="1.0" x2="1417.0" y2="911.0" style="stroke:blue;stroke-width:1.0;"/>
  </g>
 </g>
</svg>
