<?xml version="1.0" encoding="UTF-8"?>
<svg height="53.0" width="1534.0" xmlns="http://www.w3.org/2000/svg">
 <g class="page">
  <g class="block">
   <g class="line">
    <rect x="6.0" y="0.0" width="538.0" height="1.0" class="space" style="fill:none;stroke:blue;stroke-width:0.5;"/>
    <g>
     <rect x="6.0" y="0.0" width="538.0" height="1.0" class="text" style="fill:none;stroke:red;stroke-width:0.5;"/>
     <text x="6.0" y="1.0" achars="" style="fill:black;font-family:helvetica;font-size:10.0px;">?</text>
    </g>
   </g>
   <g class="line">
    <rect x="546.0" y="0.0" width="3.0" height="15.0" class="space" style="fill:none;stroke:blue;stroke-width:0.5;"/>
    <g>
     <rect x="546.0" y="0.0" width="3.0" height="15.0" class="text" style="fill:none;stroke:red;stroke-width:0.5;"/>
     <text x="546.0" y="15.0" achars="l,1" style="fill:black;font-family:helvetica;font-size:10.0px;">l</text>
    </g>
    <g>
     <rect x="551.0" y="0.0" width="146.0" height="1.0" class="text" style="fill:none;stroke:red;stroke-width:0.5;"/>
     <text x="551.0" y="1.0" achars="-" style="fill:black;font-family:helvetica;font-size:10.0px;">-</text>
    </g>
    <g>
     <rect x="699.0" y="0.0" width="3.0" height="15.0" class="text" style="fill:none;stroke:red;stroke-width:0.5;"/>
     <text x="699.0" y="15.0" achars="I,r,1" style="fill:black;font-family:helvetica;font-size:10.0px;">I</text>
    </g>
    <g>
     <rect x="703.0" y="0.0" width="375.0" height="1.0" class="text" style="fill:none;stroke:red;stroke-width:0.5;"/>
     <text x="703.0" y="1.0" achars="-" style="fill:black;font-family:helvetica;font-size:10.0px;">-</text>
    </g>
    <g>
     <rect x="1080.0" y="0.0" width="3.0" height="15.0" class="text" style="fill:none;stroke:red;stroke-width:0.5;"/>
     <text x="1080.0" y="15.0" achars="I,r,1" style="fill:black;font-family:helvetica;font-size:10.0px;">I</text>
    </g>
    <g>
     <rect x="1084.0" y="0.0" width="440.0" height="1.0" class="text" style="fill:none;stroke:red;stroke-width:0.5;"/>
     <text x="1084.0" y="1.0" achars="-" style="fill:black;font-family:helvetica;font-size:10.0px;">-</text>
    </g>
   </g>
   <g class="line">
    <rect x="539.0" y="41.0" width="2.0" height="2.0" class="space" style="fill:none;stroke:blue;stroke-width:0.5;"/>
    <g>
     <rect x="539.0" y="41.0" width="2.0" height="2.0" class="text" style="fill:none;stroke:red;stroke-width:0.5;"/>
     <text x="539.0" y="43.0" achars=".,ยง" style="fill:black;font-family:helvetica;font-size:10.0px;">.</text>
    </g>
    <g>
     <rect x="544.0" y="26.0" width="10.0" height="17.0" class="text" style="fill:none;stroke:red;stroke-width:0.5;"/>
     <text x="544.0" y="43.0" achars="5" style="fill:black;font-family:helvetica;font-size:10.0px;">5</text>
    </g>
    <rect x="555.0" y="27.0" width="9.0" height="16.0" class="space" style="fill:none;stroke:blue;stroke-width:0.5;"/>
    <rect x="577.0" y="27.0" width="8.0" height="16.0" class="space" style="fill:none;stroke:blue;stroke-width:0.5;"/>
    <rect x="606.0" y="27.0" width="6.0" height="16.0" class="space" style="fill:none;stroke:blue;stroke-width:0.5;"/>
    <rect x="636.0" y="27.0" width="4.0" height="16.0" class="space" style="fill:none;stroke:blue;stroke-width:0.5;"/>
    <rect x="662.0" y="27.0" width="1.0" height="16.0" class="space" style="fill:none;stroke:blue;stroke-width:0.5;"/>
    <rect x="679.0" y="27.0" width="0.0" height="16.0" class="space" style="fill:none;stroke:blue;stroke-width:0.5;"/>
    <rect x="690.0" y="27.0" width="-2.0" height="16.0" class="space" style="fill:none;stroke:blue;stroke-width:0.5;"/>
    <rect x="695.0" y="27.0" width="-3.0" height="16.0" class="space" style="fill:none;stroke:blue;stroke-width:0.5;"/>
    <rect x="697.0" y="27.0" width="-4.0" height="16.0" class="space" style="fill:none;stroke:blue;stroke-width:0.5;"/>
    <rect x="698.0" y="27.0" width="-4.0" height="16.0" class="space" style="fill:none;stroke:blue;stroke-width:0.5;"/>
    <rect x="698.0" y="27.0" width="-3.0" height="16.0" class="space" style="fill:none;stroke:blue;stroke-width:0.5;"/>
    <g>
     <rect x="696.0" y="27.0" width="7.0" height="16.0" class="text" style="fill:none;stroke:red;stroke-width:0.5;"/>
     <text x="696.0" y="43.0" achars="1" style="fill:black;font-family:helvetica;font-size:10.0px;">1</text>
    </g>
    <rect x="704.0" y="26.0" width="8.0" height="17.0" class="space" style="fill:none;stroke:blue;stroke-width:0.5;"/>
    <rect x="724.0" y="26.0" width="8.0" height="17.0" class="space" style="fill:none;stroke:blue;stroke-width:0.5;"/>
    <rect x="755.0" y="26.0" width="7.0" height="17.0" class="space" style="fill:none;stroke:blue;stroke-width:0.5;"/>
    <rect x="793.0" y="26.0" width="6.0" height="17.0" class="space" style="fill:none;stroke:blue;stroke-width:0.5;"/>
    <rect x="836.0" y="26.0" width="5.0" height="17.0" class="space" style="fill:none;stroke:blue;stroke-width:0.5;"/>
    <rect x="880.0" y="26.0" width="3.0" height="17.0" class="space" style="fill:none;stroke:blue;stroke-width:0.5;"/>
    <rect x="921.0" y="26.0" width="2.0" height="17.0" class="space" style="fill:none;stroke:blue;stroke-width:0.5;"/>
    <rect x="958.0" y="26.0" width="0.0" height="17.0" class="space" style="fill:none;stroke:blue;stroke-width:0.5;"/>
    <rect x="988.0" y="26.0" width="0.0" height="17.0" class="space" style="fill:none;stroke:blue;stroke-width:0.5;"/>
    <rect x="1013.0" y="26.0" width="-1.0" height="17.0" class="space" style="fill:none;stroke:blue;stroke-width:0.5;"/>
    <rect x="1032.0" y="26.0" width="-3.0" height="17.0" class="space" style="fill:none;stroke:blue;stroke-width:0.5;"/>
    <rect x="1044.0" y="26.0" width="-2.0" height="17.0" class="space" style="fill:none;stroke:blue;stroke-width:0.5;"/>
    <rect x="1053.0" y="26.0" width="-3.0" height="17.0" class="space" style="fill:none;stroke:blue;stroke-width:0.5;"/>
    <rect x="1059.0" y="26.0" width="-4.0" height="17.0" class="space" style="fill:none;stroke:blue;stroke-width:0.5;"/>
    <rect x="1062.0" y="26.0" width="-3.0" height="17.0" class="space" style="fill:none;stroke:blue;stroke-width:0.5;"/>
    <rect x="1065.0" y="26.0" width="-4.0" height="17.0" class="space" style="fill:none;stroke:blue;stroke-width:0.5;"/>
    <rect x="1066.0" y="26.0" width="-4.0" height="17.0" class="space" style="fill:none;stroke:blue;stroke-width:0.5;"/>
    <rect x="1066.0" y="26.0" width="-3.0" height="17.0" class="space" style="fill:none;stroke:blue;stroke-width:0.5;"/>
    <rect x="1067.0" y="26.0" width="-4.0" height="17.0" class="space" style="fill:none;stroke:blue;stroke-width:0.5;"/>
    <rect x="1067.0" y="26.0" width="-3.0" height="17.0" class="space" style="fill:none;stroke:blue;stroke-width:0.5;"/>
    <rect x="1068.0" y="26.0" width="-4.0" height="17.0" class="space" style="fill:none;stroke:blue;stroke-width:0.5;"/>
    <rect x="1068.0" y="26.0" width="-4.0" height="17.0" class="space" style="fill:none;stroke:blue;stroke-width:0.5;"/>
    <rect x="1068.0" y="26.0" width="-4.0" height="17.0" class="space" style="fill:none;stroke:blue;stroke-width:0.5;"/>
    <rect x="1068.0" y="26.0" width="-3.0" height="17.0" class="space" style="fill:none;stroke:blue;stroke-width:0.5;"/>
    <rect x="1069.0" y="26.0" width="-4.0" height="17.0" class="space" style="fill:none;stroke:blue;stroke-width:0.5;"/>
    <rect x="1069.0" y="26.0" width="-4.0" height="17.0" class="space" style="fill:none;stroke:blue;stroke-width:0.5;"/>
    <rect x="1069.0" y="26.0" width="-4.0" height="17.0" class="space" style="fill:none;stroke:blue;stroke-width:0.5;"/>
    <rect x="1069.0" y="26.0" width="-4.0" height="17.0" class="space" style="fill:none;stroke:blue;stroke-width:0.5;"/>
    <rect x="1069.0" y="26.0" width="-4.0" height="17.0" class="space" style="fill:none;stroke:blue;stroke-width:0.5;"/>
    <rect x="1069.0" y="26.0" width="-3.0" height="17.0" class="space" style="fill:none;stroke:blue;stroke-width:0.5;"/>
    <g>
     <rect x="1067.0" y="26.0" width="11.0" height="17.0" class="text" style="fill:none;stroke:red;stroke-width:0.5;"/>
     <text x="1067.0" y="43.0" achars="5" style="fill:black;font-family:helvetica;font-size:10.0px;">5</text>
    </g>
    <g>
     <rect x="1080.0" y="41.0" width="3.0" height="2.0" class="text" style="fill:none;stroke:red;stroke-width:0.5;"/>
     <text x="1080.0" y="43.0" achars=".,_" style="fill:black;font-family:helvetica;font-size:10.0px;">.</text>
    </g>
    <g>
     <rect x="1085.0" y="26.0" width="10.0" height="17.0" class="text" style="fill:none;stroke:red;stroke-width:0.5;"/>
     <text x="1085.0" y="43.0" achars="6" style="fill:black;font-family:helvetica;font-size:10.0px;">6</text>
    </g>
   </g>
  </g>
 </g>
</svg>
