<?xml version="1.0" encoding="UTF-8"?>
<svg height="1568.0" width="1278.0" xmlns="http://www.w3.org/2000/svg">
 <g>
  <g class="horizontallines">
   <line x1="0.0" y1="1539.0" x2="1268.0" y2="1539.0" style="stroke:red;stroke-width:3.0;"/>
  </g>
  <g class="verticallines">
   <line x1="594.0" y1="88.0" x2="594.0" y2="297.0" style="stroke:blue;stroke-width:2.0;"/>
   <line x1="594.0" y1="338.0" x2="594.0" y2="618.0" style="stroke:blue;stroke-width:2.0;"/>
   <line x1="594.0" y1="656.0" x2="594.0" y2="677.0" style="stroke:blue;stroke-width:2.0;"/>
   <line x1="594.0" y1="704.0" x2="594.0" y2="781.0" style="stroke:blue;stroke-width:2.0;"/>
   <line x1="594.0" y1="811.0" x2="594.0" y2="915.0" style="stroke:blue;stroke-width:2.0;"/>
   <line x1="594.0" y1="941.0" x2="594.0" y2="1011.0" style="stroke:blue;stroke-width:2.0;"/>
   <line x1="594.0" y1="1057.0" x2="594.0" y2="1099.0" style="stroke:blue;stroke-width:2.0;"/>
   <line x1="594.0" y1="1106.0" x2="594.0" y2="1121.0" style="stroke:blue;stroke-width:2.0;"/>
   <line x1="594.0" y1="1128.0" x2="594.0" y2="1151.0" style="stroke:blue;stroke-width:2.0;"/>
   <line x1="594.0" y1="1215.0" x2="594.0" y2="1226.0" style="stroke:blue;stroke-width:2.0;"/>
   <line x1="594.0" y1="1234.0" x2="594.0" y2="1257.0" style="stroke:blue;stroke-width:2.0;"/>
   <line x1="594.0" y1="1288.0" x2="594.0" y2="1339.0" style="stroke:blue;stroke-width:2.0;"/>
   <line x1="594.0" y1="1365.0" x2="594.0" y2="1391.0" style="stroke:blue;stroke-width:2.0;"/>
   <line x1="594.0" y1="1418.0" x2="594.0" y2="1558.0" style="stroke:blue;stroke-width:2.0;"/>
   <line x1="995.0" y1="126.0" x2="995.0" y2="145.0" style="stroke:blue;stroke-width:1.0;"/>
   <line x1="995.0" y1="152.0" x2="995.0" y2="172.0" style="stroke:blue;stroke-width:1.0;"/>
   <line x1="995.0" y1="180.0" x2="995.0" y2="198.0" style="stroke:blue;stroke-width:1.0;"/>
   <line x1="995.0" y1="206.0" x2="995.0" y2="225.0" style="stroke:blue;stroke-width:1.0;"/>
   <line x1="995.0" y1="232.0" x2="995.0" y2="251.0" style="stroke:blue;stroke-width:1.0;"/>
   <line x1="995.0" y1="259.0" x2="995.0" y2="278.0" style="stroke:blue;stroke-width:1.0;"/>
   <line x1="995.0" y1="285.0" x2="995.0" y2="303.0" style="stroke:blue;stroke-width:1.0;"/>
   <line x1="995.0" y1="312.0" x2="995.0" y2="331.0" style="stroke:blue;stroke-width:1.0;"/>
   <line x1="995.0" y1="338.0" x2="995.0" y2="357.0" style="stroke:blue;stroke-width:1.0;"/>
   <line x1="995.0" y1="365.0" x2="995.0" y2="383.0" style="stroke:blue;stroke-width:1.0;"/>
   <line x1="995.0" y1="392.0" x2="995.0" y2="410.0" style="stroke:blue;stroke-width:1.0;"/>
   <line x1="995.0" y1="418.0" x2="995.0" y2="437.0" style="stroke:blue;stroke-width:1.0;"/>
   <line x1="995.0" y1="446.0" x2="995.0" y2="465.0" style="stroke:blue;stroke-width:1.0;"/>
   <line x1="995.0" y1="472.0" x2="995.0" y2="491.0" style="stroke:blue;stroke-width:1.0;"/>
   <line x1="995.0" y1="499.0" x2="995.0" y2="518.0" style="stroke:blue;stroke-width:1.0;"/>
   <line x1="995.0" y1="526.0" x2="995.0" y2="544.0" style="stroke:blue;stroke-width:1.0;"/>
   <line x1="995.0" y1="605.0" x2="995.0" y2="623.0" style="stroke:blue;stroke-width:1.0;"/>
   <line x1="995.0" y1="632.0" x2="995.0" y2="650.0" style="stroke:blue;stroke-width:1.0;"/>
   <line x1="995.0" y1="658.0" x2="995.0" y2="676.0" style="stroke:blue;stroke-width:1.0;"/>
   <line x1="995.0" y1="684.0" x2="995.0" y2="703.0" style="stroke:blue;stroke-width:1.0;"/>
   <line x1="995.0" y1="711.0" x2="995.0" y2="729.0" style="stroke:blue;stroke-width:1.0;"/>
   <line x1="995.0" y1="737.0" x2="995.0" y2="756.0" style="stroke:blue;stroke-width:1.0;"/>
   <line x1="995.0" y1="764.0" x2="995.0" y2="783.0" style="stroke:blue;stroke-width:1.0;"/>
   <line x1="995.0" y1="790.0" x2="995.0" y2="809.0" style="stroke:blue;stroke-width:1.0;"/>
   <line x1="995.0" y1="816.0" x2="995.0" y2="835.0" style="stroke:blue;stroke-width:1.0;"/>
   <line x1="995.0" y1="843.0" x2="995.0" y2="862.0" style="stroke:blue;stroke-width:1.0;"/>
   <line x1="995.0" y1="870.0" x2="995.0" y2="889.0" style="stroke:blue;stroke-width:1.0;"/>
   <line x1="995.0" y1="896.0" x2="995.0" y2="915.0" style="stroke:blue;stroke-width:1.0;"/>
   <line x1="995.0" y1="923.0" x2="995.0" y2="941.0" style="stroke:blue;stroke-width:1.0;"/>
   <line x1="995.0" y1="949.0" x2="995.0" y2="967.0" style="stroke:blue;stroke-width:1.0;"/>
   <line x1="995.0" y1="976.0" x2="995.0" y2="994.0" style="stroke:blue;stroke-width:1.0;"/>
   <line x1="995.0" y1="1002.0" x2="995.0" y2="1020.0" style="stroke:blue;stroke-width:1.0;"/>
   <line x1="995.0" y1="1028.0" x2="995.0" y2="1047.0" style="stroke:blue;stroke-width:1.0;"/>
   <line x1="995.0" y1="1055.0" x2="995.0" y2="1073.0" style="stroke:blue;stroke-width:1.0;"/>
   <line x1="995.0" y1="1081.0" x2="995.0" y2="1100.0" style="stroke:blue;stroke-width:1.0;"/>
   <line x1="995.0" y1="1108.0" x2="995.0" y2="1127.0" style="stroke:blue;stroke-width:1.0;"/>
   <line x1="995.0" y1="1134.0" x2="995.0" y2="1153.0" style="stroke:blue;stroke-width:1.0;"/>
   <line x1="995.0" y1="1161.0" x2="995.0" y2="1180.0" style="stroke:blue;stroke-width:1.0;"/>
   <line x1="995.0" y1="1187.0" x2="995.0" y2="1206.0" style="stroke:blue;stroke-width:1.0;"/>
   <line x1="995.0" y1="1214.0" x2="995.0" y2="1233.0" style="stroke:blue;stroke-width:1.0;"/>
   <line x1="995.0" y1="1240.0" x2="995.0" y2="1259.0" style="stroke:blue;stroke-width:1.0;"/>
   <line x1="995.0" y1="1267.0" x2="995.0" y2="1285.0" style="stroke:blue;stroke-width:1.0;"/>
   <line x1="995.0" y1="1293.0" x2="995.0" y2="1311.0" style="stroke:blue;stroke-width:1.0;"/>
   <line x1="995.0" y1="1320.0" x2="995.0" y2="1338.0" style="stroke:blue;stroke-width:1.0;"/>
   <line x1="995.0" y1="1346.0" x2="995.0" y2="1365.0" style="stroke:blue;stroke-width:1.0;"/>
   <line x1="995.0" y1="1373.0" x2="995.0" y2="1391.0" style="stroke:blue;stroke-width:1.0;"/>
   <line x1="995.0" y1="1400.0" x2="995.0" y2="1418.0" style="stroke:blue;stroke-width:1.0;"/>
   <line x1="995.0" y1="1425.0" x2="995.0" y2="1444.0" style="stroke:blue;stroke-width:1.0;"/>
   <line x1="995.0" y1="1478.0" x2="995.0" y2="1497.0" style="stroke:blue;stroke-width:1.0;"/>
  </g>
 </g>
</svg>
