<?xml version="1.0" encoding="UTF-8"?>
<svg height="215.0" width="1946.0" xmlns="http://www.w3.org/2000/svg">
 <g class="page">
  <g class="block">
   <g class="line">
    <rect x="89.0" y="204.0" width="798.0" height="1.0" class="space" style="fill:none;stroke:blue;stroke-width:0.5;"/>
    <g>
     <rect x="89.0" y="204.0" width="798.0" height="1.0" class="text" style="fill:none;stroke:red;stroke-width:0.5;"/>
     <text x="89.0" y="205.0" achars="" style="fill:black;font-family:helvetica;font-size:10.0px;">?</text>
    </g>
    <rect x="888.0" y="204.0" width="14.0" height="1.0" class="space" style="fill:none;stroke:blue;stroke-width:0.5;"/>
    <rect x="920.0" y="204.0" width="13.0" height="1.0" class="space" style="fill:none;stroke:blue;stroke-width:0.5;"/>
    <rect x="962.0" y="204.0" width="10.0" height="1.0" class="space" style="fill:none;stroke:blue;stroke-width:0.5;"/>
    <rect x="1003.0" y="204.0" width="6.0" height="1.0" class="space" style="fill:none;stroke:blue;stroke-width:0.5;"/>
    <rect x="1036.0" y="204.0" width="2.0" height="1.0" class="space" style="fill:none;stroke:blue;stroke-width:0.5;"/>
    <rect x="1057.0" y="204.0" width="-1.0" height="1.0" class="space" style="fill:none;stroke:blue;stroke-width:0.5;"/>
    <rect x="1067.0" y="204.0" width="-2.0" height="1.0" class="space" style="fill:none;stroke:blue;stroke-width:0.5;"/>
    <rect x="1072.0" y="204.0" width="-3.0" height="1.0" class="space" style="fill:none;stroke:blue;stroke-width:0.5;"/>
    <rect x="1074.0" y="204.0" width="-4.0" height="1.0" class="space" style="fill:none;stroke:blue;stroke-width:0.5;"/>
    <rect x="1074.0" y="204.0" width="-3.0" height="1.0" class="space" style="fill:none;stroke:blue;stroke-width:0.5;"/>
    <g>
     <rect x="1072.0" y="204.0" width="864.0" height="1.0" class="text" style="fill:none;stroke:red;stroke-width:0.5;"/>
     <text x="1072.0" y="205.0" achars="" style="fill:black;font-family:helvetica;font-size:10.0px;">?</text>
    </g>
   </g>
   <g class="line">
    <rect x="111.0" y="108.0" width="17.0" height="22.0" class="space" style="fill:none;stroke:blue;stroke-width:0.5;"/>
    <g>
     <rect x="111.0" y="108.0" width="17.0" height="22.0" class="text" style="fill:none;stroke:red;stroke-width:0.5;"/>
     <text x="111.0" y="130.0" achars="S,5" style="fill:black;font-family:helvetica;font-size:10.0px;">S</text>
    </g>
    <g>
     <rect x="130.0" y="109.0" width="7.0" height="20.0" class="text" style="fill:none;stroke:red;stroke-width:0.5;"/>
     <text x="130.0" y="129.0" achars="t" style="fill:black;font-family:helvetica;font-size:10.0px;">t</text>
    </g>
    <g>
     <rect x="139.0" y="113.0" width="12.0" height="16.0" class="text" style="fill:none;stroke:red;stroke-width:0.5;"/>
     <text x="139.0" y="129.0" achars="u" style="fill:black;font-family:helvetica;font-size:10.0px;">u</text>
    </g>
    <g>
     <rect x="154.0" y="108.0" width="13.0" height="21.0" class="text" style="fill:none;stroke:red;stroke-width:0.5;"/>
     <text x="154.0" y="129.0" achars="d" style="fill:black;font-family:helvetica;font-size:10.0px;">d</text>
    </g>
    <g>
     <rect x="170.0" y="113.0" width="14.0" height="22.0" class="text" style="fill:none;stroke:red;stroke-width:0.5;"/>
     <text x="170.0" y="135.0" achars="y" style="fill:black;font-family:helvetica;font-size:10.0px;">y</text>
    </g>
    <rect x="185.0" y="108.0" width="11.0" height="12.0" class="space" style="fill:none;stroke:blue;stroke-width:0.5;"/>
    <rect x="211.0" y="108.0" width="11.0" height="12.0" class="space" style="fill:none;stroke:blue;stroke-width:0.5;"/>
    <rect x="252.0" y="108.0" width="11.0" height="12.0" class="space" style="fill:none;stroke:blue;stroke-width:0.5;"/>
    <rect x="307.0" y="108.0" width="10.0" height="12.0" class="space" style="fill:none;stroke:blue;stroke-width:0.5;"/>
    <rect x="373.0" y="108.0" width="10.0" height="12.0" class="space" style="fill:none;stroke:blue;stroke-width:0.5;"/>
    <rect x="450.0" y="108.0" width="9.0" height="12.0" class="space" style="fill:none;stroke:blue;stroke-width:0.5;"/>
    <rect x="535.0" y="108.0" width="8.0" height="12.0" class="space" style="fill:none;stroke:blue;stroke-width:0.5;"/>
    <rect x="626.0" y="108.0" width="8.0" height="12.0" class="space" style="fill:none;stroke:blue;stroke-width:0.5;"/>
    <rect x="722.0" y="108.0" width="7.0" height="12.0" class="space" style="fill:none;stroke:blue;stroke-width:0.5;"/>
    <rect x="820.0" y="108.0" width="6.0" height="12.0" class="space" style="fill:none;stroke:blue;stroke-width:0.5;"/>
    <rect x="919.0" y="108.0" width="5.0" height="12.0" class="space" style="fill:none;stroke:blue;stroke-width:0.5;"/>
    <rect x="1016.0" y="108.0" width="4.0" height="12.0" class="space" style="fill:none;stroke:blue;stroke-width:0.5;"/>
    <rect x="1110.0" y="108.0" width="3.0" height="12.0" class="space" style="fill:none;stroke:blue;stroke-width:0.5;"/>
    <rect x="1199.0" y="108.0" width="2.0" height="12.0" class="space" style="fill:none;stroke:blue;stroke-width:0.5;"/>
    <rect x="1282.0" y="108.0" width="2.0" height="12.0" class="space" style="fill:none;stroke:blue;stroke-width:0.5;"/>
    <rect x="1360.0" y="108.0" width="1.0" height="12.0" class="space" style="fill:none;stroke:blue;stroke-width:0.5;"/>
    <rect x="1430.0" y="108.0" width="0.0" height="12.0" class="space" style="fill:none;stroke:blue;stroke-width:0.5;"/>
    <rect x="1493.0" y="108.0" width="-1.0" height="12.0" class="space" style="fill:none;stroke:blue;stroke-width:0.5;"/>
    <rect x="1548.0" y="108.0" width="-1.0" height="12.0" class="space" style="fill:none;stroke:blue;stroke-width:0.5;"/>
    <rect x="1597.0" y="108.0" width="-2.0" height="12.0" class="space" style="fill:none;stroke:blue;stroke-width:0.5;"/>
    <rect x="1638.0" y="108.0" width="-1.0" height="12.0" class="space" style="fill:none;stroke:blue;stroke-width:0.5;"/>
    <rect x="1674.0" y="108.0" width="-2.0" height="12.0" class="space" style="fill:none;stroke:blue;stroke-width:0.5;"/>
    <rect x="1704.0" y="108.0" width="-2.0" height="12.0" class="space" style="fill:none;stroke:blue;stroke-width:0.5;"/>
    <rect x="1729.0" y="108.0" width="-3.0" height="12.0" class="space" style="fill:none;stroke:blue;stroke-width:0.5;"/>
    <rect x="1749.0" y="108.0" width="-3.0" height="12.0" class="space" style="fill:none;stroke:blue;stroke-width:0.5;"/>
    <rect x="1766.0" y="108.0" width="-4.0" height="12.0" class="space" style="fill:none;stroke:blue;stroke-width:0.5;"/>
    <rect x="1778.0" y="108.0" width="-3.0" height="12.0" class="space" style="fill:none;stroke:blue;stroke-width:0.5;"/>
    <rect x="1789.0" y="108.0" width="-4.0" height="12.0" class="space" style="fill:none;stroke:blue;stroke-width:0.5;"/>
    <rect x="1797.0" y="108.0" width="-4.0" height="12.0" class="space" style="fill:none;stroke:blue;stroke-width:0.5;"/>
    <rect x="1803.0" y="108.0" width="-4.0" height="12.0" class="space" style="fill:none;stroke:blue;stroke-width:0.5;"/>
    <rect x="1808.0" y="108.0" width="-4.0" height="12.0" class="space" style="fill:none;stroke:blue;stroke-width:0.5;"/>
    <rect x="1812.0" y="108.0" width="-4.0" height="12.0" class="space" style="fill:none;stroke:blue;stroke-width:0.5;"/>
    <rect x="1815.0" y="108.0" width="-4.0" height="12.0" class="space" style="fill:none;stroke:blue;stroke-width:0.5;"/>
    <rect x="1817.0" y="108.0" width="-4.0" height="12.0" class="space" style="fill:none;stroke:blue;stroke-width:0.5;"/>
    <rect x="1818.0" y="108.0" width="-3.0" height="12.0" class="space" style="fill:none;stroke:blue;stroke-width:0.5;"/>
    <rect x="1820.0" y="108.0" width="-4.0" height="12.0" class="space" style="fill:none;stroke:blue;stroke-width:0.5;"/>
    <rect x="1821.0" y="108.0" width="-4.0" height="12.0" class="space" style="fill:none;stroke:blue;stroke-width:0.5;"/>
    <rect x="1822.0" y="108.0" width="-4.0" height="12.0" class="space" style="fill:none;stroke:blue;stroke-width:0.5;"/>
    <rect x="1822.0" y="108.0" width="-4.0" height="12.0" class="space" style="fill:none;stroke:blue;stroke-width:0.5;"/>
    <rect x="1822.0" y="108.0" width="-3.0" height="12.0" class="space" style="fill:none;stroke:blue;stroke-width:0.5;"/>
    <rect x="1823.0" y="108.0" width="-4.0" height="12.0" class="space" style="fill:none;stroke:blue;stroke-width:0.5;"/>
    <rect x="1823.0" y="108.0" width="-4.0" height="12.0" class="space" style="fill:none;stroke:blue;stroke-width:0.5;"/>
    <rect x="1823.0" y="108.0" width="-4.0" height="12.0" class="space" style="fill:none;stroke:blue;stroke-width:0.5;"/>
    <rect x="1823.0" y="108.0" width="-3.0" height="12.0" class="space" style="fill:none;stroke:blue;stroke-width:0.5;"/>
    <rect x="1824.0" y="108.0" width="-4.0" height="12.0" class="space" style="fill:none;stroke:blue;stroke-width:0.5;"/>
    <rect x="1824.0" y="108.0" width="-4.0" height="12.0" class="space" style="fill:none;stroke:blue;stroke-width:0.5;"/>
    <rect x="1824.0" y="108.0" width="-4.0" height="12.0" class="space" style="fill:none;stroke:blue;stroke-width:0.5;"/>
    <rect x="1824.0" y="108.0" width="-4.0" height="12.0" class="space" style="fill:none;stroke:blue;stroke-width:0.5;"/>
    <rect x="1824.0" y="108.0" width="-3.0" height="12.0" class="space" style="fill:none;stroke:blue;stroke-width:0.5;"/>
    <rect x="1825.0" y="108.0" width="-4.0" height="12.0" class="space" style="fill:none;stroke:blue;stroke-width:0.5;"/>
    <rect x="1825.0" y="108.0" width="-4.0" height="12.0" class="space" style="fill:none;stroke:blue;stroke-width:0.5;"/>
    <rect x="1825.0" y="108.0" width="-4.0" height="12.0" class="space" style="fill:none;stroke:blue;stroke-width:0.5;"/>
    <rect x="1825.0" y="108.0" width="-4.0" height="12.0" class="space" style="fill:none;stroke:blue;stroke-width:0.5;"/>
    <rect x="1825.0" y="108.0" width="-4.0" height="12.0" class="space" style="fill:none;stroke:blue;stroke-width:0.5;"/>
    <rect x="1825.0" y="108.0" width="-3.0" height="12.0" class="space" style="fill:none;stroke:blue;stroke-width:0.5;"/>
    <rect x="1826.0" y="108.0" width="-4.0" height="12.0" class="space" style="fill:none;stroke:blue;stroke-width:0.5;"/>
    <rect x="1826.0" y="108.0" width="-4.0" height="12.0" class="space" style="fill:none;stroke:blue;stroke-width:0.5;"/>
    <rect x="1826.0" y="108.0" width="-4.0" height="12.0" class="space" style="fill:none;stroke:blue;stroke-width:0.5;"/>
    <rect x="1826.0" y="108.0" width="-4.0" height="12.0" class="space" style="fill:none;stroke:blue;stroke-width:0.5;"/>
    <rect x="1826.0" y="108.0" width="-4.0" height="12.0" class="space" style="fill:none;stroke:blue;stroke-width:0.5;"/>
    <rect x="1826.0" y="108.0" width="-4.0" height="12.0" class="space" style="fill:none;stroke:blue;stroke-width:0.5;"/>
    <rect x="1826.0" y="108.0" width="-4.0" height="12.0" class="space" style="fill:none;stroke:blue;stroke-width:0.5;"/>
    <rect x="1826.0" y="108.0" width="-3.0" height="12.0" class="space" style="fill:none;stroke:blue;stroke-width:0.5;"/>
    <rect x="1827.0" y="108.0" width="-4.0" height="12.0" class="space" style="fill:none;stroke:blue;stroke-width:0.5;"/>
    <rect x="1827.0" y="108.0" width="-4.0" height="12.0" class="space" style="fill:none;stroke:blue;stroke-width:0.5;"/>
    <rect x="1827.0" y="108.0" width="-4.0" height="12.0" class="space" style="fill:none;stroke:blue;stroke-width:0.5;"/>
    <rect x="1827.0" y="108.0" width="-4.0" height="12.0" class="space" style="fill:none;stroke:blue;stroke-width:0.5;"/>
    <rect x="1827.0" y="108.0" width="-4.0" height="12.0" class="space" style="fill:none;stroke:blue;stroke-width:0.5;"/>
    <rect x="1827.0" y="108.0" width="-4.0" height="12.0" class="space" style="fill:none;stroke:blue;stroke-width:0.5;"/>
    <rect x="1827.0" y="108.0" width="-4.0" height="12.0" class="space" style="fill:none;stroke:blue;stroke-width:0.5;"/>
    <rect x="1827.0" y="108.0" width="-4.0" height="12.0" class="space" style="fill:none;stroke:blue;stroke-width:0.5;"/>
    <rect x="1827.0" y="108.0" width="-4.0" height="12.0" class="space" style="fill:none;stroke:blue;stroke-width:0.5;"/>
    <rect x="1827.0" y="108.0" width="-3.0" height="12.0" class="space" style="fill:none;stroke:blue;stroke-width:0.5;"/>
    <rect x="1828.0" y="108.0" width="-4.0" height="12.0" class="space" style="fill:none;stroke:blue;stroke-width:0.5;"/>
    <rect x="1828.0" y="108.0" width="-4.0" height="12.0" class="space" style="fill:none;stroke:blue;stroke-width:0.5;"/>
    <rect x="1828.0" y="108.0" width="-4.0" height="12.0" class="space" style="fill:none;stroke:blue;stroke-width:0.5;"/>
    <rect x="1828.0" y="108.0" width="-4.0" height="12.0" class="space" style="fill:none;stroke:blue;stroke-width:0.5;"/>
    <rect x="1828.0" y="108.0" width="-4.0" height="12.0" class="space" style="fill:none;stroke:blue;stroke-width:0.5;"/>
    <rect x="1828.0" y="108.0" width="-4.0" height="12.0" class="space" style="fill:none;stroke:blue;stroke-width:0.5;"/>
    <rect x="1828.0" y="108.0" width="-4.0" height="12.0" class="space" style="fill:none;stroke:blue;stroke-width:0.5;"/>
    <rect x="1828.0" y="108.0" width="-4.0" height="12.0" class="space" style="fill:none;stroke:blue;stroke-width:0.5;"/>
    <rect x="1828.0" y="108.0" width="-4.0" height="12.0" class="space" style="fill:none;stroke:blue;stroke-width:0.5;"/>
    <rect x="1828.0" y="108.0" width="-4.0" height="12.0" class="space" style="fill:none;stroke:blue;stroke-width:0.5;"/>
    <rect x="1828.0" y="108.0" width="-4.0" height="12.0" class="space" style="fill:none;stroke:blue;stroke-width:0.5;"/>
    <rect x="1828.0" y="108.0" width="-4.0" height="12.0" class="space" style="fill:none;stroke:blue;stroke-width:0.5;"/>
    <rect x="1828.0" y="108.0" width="-4.0" height="12.0" class="space" style="fill:none;stroke:blue;stroke-width:0.5;"/>
    <rect x="1828.0" y="108.0" width="-4.0" height="12.0" class="space" style="fill:none;stroke:blue;stroke-width:0.5;"/>
    <rect x="1828.0" y="108.0" width="-3.0" height="12.0" class="space" style="fill:none;stroke:blue;stroke-width:0.5;"/>
    <rect x="1829.0" y="108.0" width="-4.0" height="12.0" class="space" style="fill:none;stroke:blue;stroke-width:0.5;"/>
    <rect x="1829.0" y="108.0" width="-4.0" height="12.0" class="space" style="fill:none;stroke:blue;stroke-width:0.5;"/>
    <rect x="1829.0" y="108.0" width="-4.0" height="12.0" class="space" style="fill:none;stroke:blue;stroke-width:0.5;"/>
    <rect x="1829.0" y="108.0" width="-4.0" height="12.0" class="space" style="fill:none;stroke:blue;stroke-width:0.5;"/>
    <rect x="1829.0" y="108.0" width="-4.0" height="12.0" class="space" style="fill:none;stroke:blue;stroke-width:0.5;"/>
    <rect x="1829.0" y="108.0" width="-4.0" height="12.0" class="space" style="fill:none;stroke:blue;stroke-width:0.5;"/>
    <rect x="1829.0" y="108.0" width="-4.0" height="12.0" class="space" style="fill:none;stroke:blue;stroke-width:0.5;"/>
    <rect x="1829.0" y="108.0" width="-4.0" height="12.0" class="space" style="fill:none;stroke:blue;stroke-width:0.5;"/>
    <rect x="1829.0" y="108.0" width="-4.0" height="12.0" class="space" style="fill:none;stroke:blue;stroke-width:0.5;"/>
    <rect x="1829.0" y="108.0" width="-4.0" height="12.0" class="space" style="fill:none;stroke:blue;stroke-width:0.5;"/>
    <rect x="1829.0" y="108.0" width="-4.0" height="12.0" class="space" style="fill:none;stroke:blue;stroke-width:0.5;"/>
    <rect x="1829.0" y="108.0" width="-4.0" height="12.0" class="space" style="fill:none;stroke:blue;stroke-width:0.5;"/>
    <rect x="1829.0" y="108.0" width="-4.0" height="12.0" class="space" style="fill:none;stroke:blue;stroke-width:0.5;"/>
    <rect x="1829.0" y="108.0" width="-4.0" height="12.0" class="space" style="fill:none;stroke:blue;stroke-width:0.5;"/>
    <rect x="1829.0" y="108.0" width="-4.0" height="12.0" class="space" style="fill:none;stroke:blue;stroke-width:0.5;"/>
    <rect x="1829.0" y="108.0" width="-4.0" height="12.0" class="space" style="fill:none;stroke:blue;stroke-width:0.5;"/>
    <rect x="1829.0" y="108.0" width="-4.0" height="12.0" class="space" style="fill:none;stroke:blue;stroke-width:0.5;"/>
    <rect x="1829.0" y="108.0" width="-4.0" height="12.0" class="space" style="fill:none;stroke:blue;stroke-width:0.5;"/>
    <rect x="1829.0" y="108.0" width="-4.0" height="12.0" class="space" style="fill:none;stroke:blue;stroke-width:0.5;"/>
    <rect x="1829.0" y="108.0" width="-4.0" height="12.0" class="space" style="fill:none;stroke:blue;stroke-width:0.5;"/>
    <rect x="1829.0" y="108.0" width="-3.0" height="12.0" class="space" style="fill:none;stroke:blue;stroke-width:0.5;"/>
    <g>
     <rect x="1827.0" y="108.0" width="9.0" height="12.0" class="text" style="fill:none;stroke:red;stroke-width:0.5;"/>
     <text x="1827.0" y="120.0" achars="O,0,&quot;" style="fill:black;font-family:helvetica;font-size:10.0px;">O</text>
    </g>
    <g>
     <rect x="1831.0" y="108.0" width="14.0" height="21.0" class="text" style="fill:none;stroke:red;stroke-width:0.5;"/>
     <text x="1831.0" y="129.0" achars="/,J" style="fill:black;font-family:helvetica;font-size:10.0px;">/</text>
    </g>
    <g>
     <rect x="1840.0" y="118.0" width="10.0" height="11.0" class="text" style="fill:none;stroke:red;stroke-width:0.5;"/>
     <text x="1840.0" y="129.0" achars="o,0" style="fill:black;font-family:helvetica;font-size:10.0px;">o</text>
    </g>
   </g>
   <g class="line">
    <rect x="112.0" y="146.0" width="3.0" height="22.0" class="space" style="fill:none;stroke:blue;stroke-width:0.5;"/>
    <g>
     <rect x="112.0" y="146.0" width="3.0" height="22.0" class="text" style="fill:none;stroke:red;stroke-width:0.5;"/>
     <text x="112.0" y="168.0" achars="l,I,|,1" style="fill:black;font-family:helvetica;font-size:10.0px;">l</text>
    </g>
    <g>
     <rect x="120.0" y="146.0" width="17.0" height="22.0" class="text" style="fill:none;stroke:red;stroke-width:0.5;"/>
     <text x="120.0" y="168.0" achars="D" style="fill:black;font-family:helvetica;font-size:10.0px;">D</text>
    </g>
    <rect x="138.0" y="146.0" width="14.0" height="22.0" class="space" style="fill:none;stroke:blue;stroke-width:0.5;"/>
    <rect x="171.0" y="146.0" width="14.0" height="22.0" class="space" style="fill:none;stroke:blue;stroke-width:0.5;"/>
    <rect x="221.0" y="146.0" width="13.0" height="22.0" class="space" style="fill:none;stroke:blue;stroke-width:0.5;"/>
    <rect x="285.0" y="146.0" width="13.0" height="22.0" class="space" style="fill:none;stroke:blue;stroke-width:0.5;"/>
    <rect x="363.0" y="146.0" width="12.0" height="22.0" class="space" style="fill:none;stroke:blue;stroke-width:0.5;"/>
    <rect x="451.0" y="146.0" width="11.0" height="22.0" class="space" style="fill:none;stroke:blue;stroke-width:0.5;"/>
    <rect x="547.0" y="146.0" width="10.0" height="22.0" class="space" style="fill:none;stroke:blue;stroke-width:0.5;"/>
    <rect x="647.0" y="146.0" width="9.0" height="22.0" class="space" style="fill:none;stroke:blue;stroke-width:0.5;"/>
    <rect x="749.0" y="146.0" width="7.0" height="22.0" class="space" style="fill:none;stroke:blue;stroke-width:0.5;"/>
    <rect x="849.0" y="146.0" width="6.0" height="22.0" class="space" style="fill:none;stroke:blue;stroke-width:0.5;"/>
    <rect x="945.0" y="146.0" width="5.0" height="22.0" class="space" style="fill:none;stroke:blue;stroke-width:0.5;"/>
    <rect x="1036.0" y="146.0" width="4.0" height="22.0" class="space" style="fill:none;stroke:blue;stroke-width:0.5;"/>
    <rect x="1120.0" y="146.0" width="3.0" height="22.0" class="space" style="fill:none;stroke:blue;stroke-width:0.5;"/>
    <rect x="1196.0" y="146.0" width="1.0" height="22.0" class="space" style="fill:none;stroke:blue;stroke-width:0.5;"/>
    <rect x="1262.0" y="146.0" width="1.0" height="22.0" class="space" style="fill:none;stroke:blue;stroke-width:0.5;"/>
    <rect x="1320.0" y="146.0" width="0.0" height="22.0" class="space" style="fill:none;stroke:blue;stroke-width:0.5;"/>
    <rect x="1369.0" y="146.0" width="-1.0" height="22.0" class="space" style="fill:none;stroke:blue;stroke-width:0.5;"/>
    <rect x="1409.0" y="146.0" width="-1.0" height="22.0" class="space" style="fill:none;stroke:blue;stroke-width:0.5;"/>
    <rect x="1443.0" y="146.0" width="-2.0" height="22.0" class="space" style="fill:none;stroke:blue;stroke-width:0.5;"/>
    <rect x="1470.0" y="146.0" width="-3.0" height="22.0" class="space" style="fill:none;stroke:blue;stroke-width:0.5;"/>
    <rect x="1490.0" y="146.0" width="-3.0" height="22.0" class="space" style="fill:none;stroke:blue;stroke-width:0.5;"/>
    <rect x="1506.0" y="146.0" width="-3.0" height="22.0" class="space" style="fill:none;stroke:blue;stroke-width:0.5;"/>
    <rect x="1518.0" y="146.0" width="-3.0" height="22.0" class="space" style="fill:none;stroke:blue;stroke-width:0.5;"/>
    <rect x="1528.0" y="146.0" width="-4.0" height="22.0" class="space" style="fill:none;stroke:blue;stroke-width:0.5;"/>
    <rect x="1534.0" y="146.0" width="-3.0" height="22.0" class="space" style="fill:none;stroke:blue;stroke-width:0.5;"/>
    <rect x="1540.0" y="146.0" width="-4.0" height="22.0" class="space" style="fill:none;stroke:blue;stroke-width:0.5;"/>
    <rect x="1543.0" y="146.0" width="-4.0" height="22.0" class="space" style="fill:none;stroke:blue;stroke-width:0.5;"/>
    <rect x="1545.0" y="146.0" width="-3.0" height="22.0" class="space" style="fill:none;stroke:blue;stroke-width:0.5;"/>
    <rect x="1548.0" y="146.0" width="-4.0" height="22.0" class="space" style="fill:none;stroke:blue;stroke-width:0.5;"/>
    <rect x="1549.0" y="146.0" width="-4.0" height="22.0" class="space" style="fill:none;stroke:blue;stroke-width:0.5;"/>
    <rect x="1550.0" y="146.0" width="-4.0" height="22.0" class="space" style="fill:none;stroke:blue;stroke-width:0.5;"/>
    <rect x="1550.0" y="146.0" width="-3.0" height="22.0" class="space" style="fill:none;stroke:blue;stroke-width:0.5;"/>
    <rect x="1551.0" y="146.0" width="-4.0" height="22.0" class="space" style="fill:none;stroke:blue;stroke-width:0.5;"/>
    <rect x="1551.0" y="146.0" width="-4.0" height="22.0" class="space" style="fill:none;stroke:blue;stroke-width:0.5;"/>
    <rect x="1551.0" y="146.0" width="-3.0" height="22.0" class="space" style="fill:none;stroke:blue;stroke-width:0.5;"/>
    <rect x="1552.0" y="146.0" width="-4.0" height="22.0" class="space" style="fill:none;stroke:blue;stroke-width:0.5;"/>
    <rect x="1552.0" y="146.0" width="-4.0" height="22.0" class="space" style="fill:none;stroke:blue;stroke-width:0.5;"/>
    <rect x="1552.0" y="146.0" width="-4.0" height="22.0" class="space" style="fill:none;stroke:blue;stroke-width:0.5;"/>
    <rect x="1552.0" y="146.0" width="-3.0" height="22.0" class="space" style="fill:none;stroke:blue;stroke-width:0.5;"/>
    <rect x="1553.0" y="146.0" width="-4.0" height="22.0" class="space" style="fill:none;stroke:blue;stroke-width:0.5;"/>
    <rect x="1553.0" y="146.0" width="-4.0" height="22.0" class="space" style="fill:none;stroke:blue;stroke-width:0.5;"/>
    <rect x="1553.0" y="146.0" width="-4.0" height="22.0" class="space" style="fill:none;stroke:blue;stroke-width:0.5;"/>
    <rect x="1553.0" y="146.0" width="-4.0" height="22.0" class="space" style="fill:none;stroke:blue;stroke-width:0.5;"/>
    <rect x="1553.0" y="146.0" width="-4.0" height="22.0" class="space" style="fill:none;stroke:blue;stroke-width:0.5;"/>
    <rect x="1553.0" y="146.0" width="-3.0" height="22.0" class="space" style="fill:none;stroke:blue;stroke-width:0.5;"/>
    <rect x="1554.0" y="146.0" width="-4.0" height="22.0" class="space" style="fill:none;stroke:blue;stroke-width:0.5;"/>
    <rect x="1554.0" y="146.0" width="-4.0" height="22.0" class="space" style="fill:none;stroke:blue;stroke-width:0.5;"/>
    <rect x="1554.0" y="146.0" width="-4.0" height="22.0" class="space" style="fill:none;stroke:blue;stroke-width:0.5;"/>
    <rect x="1554.0" y="146.0" width="-4.0" height="22.0" class="space" style="fill:none;stroke:blue;stroke-width:0.5;"/>
    <rect x="1554.0" y="146.0" width="-4.0" height="22.0" class="space" style="fill:none;stroke:blue;stroke-width:0.5;"/>
    <rect x="1554.0" y="146.0" width="-4.0" height="22.0" class="space" style="fill:none;stroke:blue;stroke-width:0.5;"/>
    <rect x="1554.0" y="146.0" width="-3.0" height="22.0" class="space" style="fill:none;stroke:blue;stroke-width:0.5;"/>
    <rect x="1555.0" y="146.0" width="-4.0" height="22.0" class="space" style="fill:none;stroke:blue;stroke-width:0.5;"/>
    <rect x="1555.0" y="146.0" width="-4.0" height="22.0" class="space" style="fill:none;stroke:blue;stroke-width:0.5;"/>
    <rect x="1555.0" y="146.0" width="-4.0" height="22.0" class="space" style="fill:none;stroke:blue;stroke-width:0.5;"/>
    <rect x="1555.0" y="146.0" width="-4.0" height="22.0" class="space" style="fill:none;stroke:blue;stroke-width:0.5;"/>
    <rect x="1555.0" y="146.0" width="-4.0" height="22.0" class="space" style="fill:none;stroke:blue;stroke-width:0.5;"/>
    <rect x="1555.0" y="146.0" width="-4.0" height="22.0" class="space" style="fill:none;stroke:blue;stroke-width:0.5;"/>
    <rect x="1555.0" y="146.0" width="-4.0" height="22.0" class="space" style="fill:none;stroke:blue;stroke-width:0.5;"/>
    <rect x="1555.0" y="146.0" width="-4.0" height="22.0" class="space" style="fill:none;stroke:blue;stroke-width:0.5;"/>
    <rect x="1555.0" y="146.0" width="-4.0" height="22.0" class="space" style="fill:none;stroke:blue;stroke-width:0.5;"/>
    <rect x="1555.0" y="146.0" width="-4.0" height="22.0" class="space" style="fill:none;stroke:blue;stroke-width:0.5;"/>
    <rect x="1555.0" y="146.0" width="-3.0" height="22.0" class="space" style="fill:none;stroke:blue;stroke-width:0.5;"/>
    <rect x="1556.0" y="146.0" width="-4.0" height="22.0" class="space" style="fill:none;stroke:blue;stroke-width:0.5;"/>
    <rect x="1556.0" y="146.0" width="-4.0" height="22.0" class="space" style="fill:none;stroke:blue;stroke-width:0.5;"/>
    <rect x="1556.0" y="146.0" width="-4.0" height="22.0" class="space" style="fill:none;stroke:blue;stroke-width:0.5;"/>
    <rect x="1556.0" y="146.0" width="-4.0" height="22.0" class="space" style="fill:none;stroke:blue;stroke-width:0.5;"/>
    <rect x="1556.0" y="146.0" width="-4.0" height="22.0" class="space" style="fill:none;stroke:blue;stroke-width:0.5;"/>
    <rect x="1556.0" y="146.0" width="-4.0" height="22.0" class="space" style="fill:none;stroke:blue;stroke-width:0.5;"/>
    <rect x="1556.0" y="146.0" width="-4.0" height="22.0" class="space" style="fill:none;stroke:blue;stroke-width:0.5;"/>
    <rect x="1556.0" y="146.0" width="-4.0" height="22.0" class="space" style="fill:none;stroke:blue;stroke-width:0.5;"/>
    <rect x="1556.0" y="146.0" width="-4.0" height="22.0" class="space" style="fill:none;stroke:blue;stroke-width:0.5;"/>
    <rect x="1556.0" y="146.0" width="-4.0" height="22.0" class="space" style="fill:none;stroke:blue;stroke-width:0.5;"/>
    <rect x="1556.0" y="146.0" width="-4.0" height="22.0" class="space" style="fill:none;stroke:blue;stroke-width:0.5;"/>
    <rect x="1556.0" y="146.0" width="-4.0" height="22.0" class="space" style="fill:none;stroke:blue;stroke-width:0.5;"/>
    <rect x="1556.0" y="146.0" width="-4.0" height="22.0" class="space" style="fill:none;stroke:blue;stroke-width:0.5;"/>
    <rect x="1556.0" y="146.0" width="-4.0" height="22.0" class="space" style="fill:none;stroke:blue;stroke-width:0.5;"/>
    <rect x="1556.0" y="146.0" width="-3.0" height="22.0" class="space" style="fill:none;stroke:blue;stroke-width:0.5;"/>
    <g>
     <rect x="1554.0" y="146.0" width="28.0" height="22.0" class="text" style="fill:none;stroke:red;stroke-width:0.5;"/>
     <text x="1554.0" y="168.0" achars="W" style="fill:black;font-family:helvetica;font-size:10.0px;">W</text>
    </g>
    <g>
     <rect x="1583.0" y="146.0" width="21.0" height="22.0" class="text" style="fill:none;stroke:red;stroke-width:0.5;"/>
     <text x="1583.0" y="168.0" achars="M,m" style="fill:black;font-family:helvetica;font-size:10.0px;">M</text>
    </g>
    <g>
     <rect x="1607.0" y="146.0" width="18.0" height="22.0" class="text" style="fill:none;stroke:red;stroke-width:0.5;"/>
     <text x="1607.0" y="168.0" achars="D" style="fill:black;font-family:helvetica;font-size:10.0px;">D</text>
    </g>
    <rect x="1626.0" y="146.0" width="10.0" height="28.0" class="space" style="fill:none;stroke:blue;stroke-width:0.5;"/>
    <g>
     <rect x="1637.0" y="146.0" width="7.0" height="28.0" class="text" style="fill:none;stroke:red;stroke-width:0.5;"/>
     <text x="1637.0" y="174.0" achars="(,C" style="fill:black;font-family:helvetica;font-size:10.0px;">(</text>
    </g>
    <g>
     <rect x="1646.0" y="146.0" width="14.0" height="22.0" class="text" style="fill:none;stroke:red;stroke-width:0.5;"/>
     <text x="1646.0" y="168.0" achars="9,g" style="fill:black;font-family:helvetica;font-size:10.0px;">9</text>
    </g>
    <g>
     <rect x="1662.0" y="146.0" width="14.0" height="22.0" class="text" style="fill:none;stroke:red;stroke-width:0.5;"/>
     <text x="1662.0" y="168.0" achars="5" style="fill:black;font-family:helvetica;font-size:10.0px;">5</text>
    </g>
    <g>
     <rect x="1679.0" y="146.0" width="9.0" height="12.0" class="text" style="fill:none;stroke:red;stroke-width:0.5;"/>
     <text x="1679.0" y="158.0" achars="O,0,&quot;" style="fill:black;font-family:helvetica;font-size:10.0px;">O</text>
    </g>
    <g>
     <rect x="1684.0" y="146.0" width="13.0" height="22.0" class="text" style="fill:none;stroke:red;stroke-width:0.5;"/>
     <text x="1684.0" y="168.0" achars="/" style="fill:black;font-family:helvetica;font-size:10.0px;">/</text>
    </g>
    <g>
     <rect x="1692.0" y="156.0" width="10.0" height="12.0" class="text" style="fill:none;stroke:red;stroke-width:0.5;"/>
     <text x="1692.0" y="168.0" achars="o,0" style="fill:black;font-family:helvetica;font-size:10.0px;">o</text>
    </g>
    <rect x="1703.0" y="146.0" width="8.0" height="22.0" class="space" style="fill:none;stroke:blue;stroke-width:0.5;"/>
    <g>
     <rect x="1712.0" y="146.0" width="19.0" height="22.0" class="text" style="fill:none;stroke:red;stroke-width:0.5;"/>
     <text x="1712.0" y="168.0" achars="C" style="fill:black;font-family:helvetica;font-size:10.0px;">C</text>
    </g>
    <g>
     <rect x="1734.0" y="146.0" width="4.0" height="22.0" class="text" style="fill:none;stroke:red;stroke-width:0.5;"/>
     <text x="1734.0" y="168.0" achars="l,I,r,1" style="fill:black;font-family:helvetica;font-size:10.0px;">l</text>
    </g>
    <g>
     <rect x="1742.0" y="146.0" width="7.0" height="28.0" class="text" style="fill:none;stroke:red;stroke-width:0.5;"/>
     <text x="1742.0" y="174.0" achars=")" style="fill:black;font-family:helvetica;font-size:10.0px;">)</text>
    </g>
    <rect x="1750.0" y="146.0" width="15.0" height="22.0" class="space" style="fill:none;stroke:blue;stroke-width:0.5;"/>
    <rect x="1781.0" y="146.0" width="12.0" height="22.0" class="space" style="fill:none;stroke:blue;stroke-width:0.5;"/>
    <rect x="1811.0" y="146.0" width="4.0" height="22.0" class="space" style="fill:none;stroke:blue;stroke-width:0.5;"/>
    <rect x="1825.0" y="146.0" width="-1.0" height="22.0" class="space" style="fill:none;stroke:blue;stroke-width:0.5;"/>
    <g>
     <rect x="1825.0" y="146.0" width="27.0" height="22.0" class="text" style="fill:none;stroke:red;stroke-width:0.5;"/>
     <text x="1825.0" y="168.0" achars="W" style="fill:black;font-family:helvetica;font-size:10.0px;">W</text>
    </g>
    <g>
     <rect x="1854.0" y="151.0" width="14.0" height="17.0" class="text" style="fill:none;stroke:red;stroke-width:0.5;"/>
     <text x="1854.0" y="168.0" achars="e,g" style="fill:black;font-family:helvetica;font-size:10.0px;">e</text>
    </g>
    <g>
     <rect x="1870.0" y="146.0" width="4.0" height="22.0" class="text" style="fill:none;stroke:red;stroke-width:0.5;"/>
     <text x="1870.0" y="168.0" achars="i,j,r" style="fill:black;font-family:helvetica;font-size:10.0px;">i</text>
    </g>
    <g>
     <rect x="1876.0" y="151.0" width="14.0" height="23.0" class="text" style="fill:none;stroke:red;stroke-width:0.5;"/>
     <text x="1876.0" y="174.0" achars="g,9" style="fill:black;font-family:helvetica;font-size:10.0px;">g</text>
    </g>
    <g>
     <rect x="1893.0" y="146.0" width="13.0" height="22.0" class="text" style="fill:none;stroke:red;stroke-width:0.5;"/>
     <text x="1893.0" y="168.0" achars="h" style="fill:black;font-family:helvetica;font-size:10.0px;">h</text>
    </g>
    <g>
     <rect x="1908.0" y="146.0" width="7.0" height="22.0" class="text" style="fill:none;stroke:red;stroke-width:0.5;"/>
     <text x="1908.0" y="168.0" achars="t" style="fill:black;font-family:helvetica;font-size:10.0px;">t</text>
    </g>
   </g>
  </g>
 </g>
</svg>
