<?xml version="1.0" encoding="UTF-8"?>
<svg height="88.0" width="1252.0" xmlns="http://www.w3.org/2000/svg">
 <g class="page">
  <g class="block">
   <g class="line">
    <rect x="24.0" y="22.0" width="16.0" height="21.0" class="space" style="fill:none;stroke:blue;stroke-width:0.5;"/>
    <g>
     <rect x="24.0" y="22.0" width="16.0" height="21.0" class="text" style="fill:none;stroke:red;stroke-width:0.5;"/>
     <text x="24.0" y="43.0" achars="S" style="fill:black;font-family:helvetica;font-size:10.0px;">S</text>
    </g>
    <g>
     <rect x="41.0" y="22.0" width="8.0" height="21.0" class="text" style="fill:none;stroke:red;stroke-width:0.5;"/>
     <text x="41.0" y="43.0" achars="t" style="fill:black;font-family:helvetica;font-size:10.0px;">t</text>
    </g>
    <g>
     <rect x="51.0" y="27.0" width="13.0" height="16.0" class="text" style="fill:none;stroke:red;stroke-width:0.5;"/>
     <text x="51.0" y="43.0" achars="u" style="fill:black;font-family:helvetica;font-size:10.0px;">u</text>
    </g>
    <g>
     <rect x="66.0" y="22.0" width="14.0" height="21.0" class="text" style="fill:none;stroke:red;stroke-width:0.5;"/>
     <text x="66.0" y="43.0" achars="d" style="fill:black;font-family:helvetica;font-size:10.0px;">d</text>
    </g>
    <g>
     <rect x="82.0" y="27.0" width="13.0" height="23.0" class="text" style="fill:none;stroke:red;stroke-width:0.5;"/>
     <text x="82.0" y="50.0" achars="y" style="fill:black;font-family:helvetica;font-size:10.0px;">y</text>
    </g>
    <rect x="96.0" y="22.0" width="12.0" height="12.0" class="space" style="fill:none;stroke:blue;stroke-width:0.5;"/>
    <rect x="125.0" y="22.0" width="12.0" height="12.0" class="space" style="fill:none;stroke:blue;stroke-width:0.5;"/>
    <rect x="169.0" y="22.0" width="12.0" height="12.0" class="space" style="fill:none;stroke:blue;stroke-width:0.5;"/>
    <rect x="227.0" y="22.0" width="11.0" height="12.0" class="space" style="fill:none;stroke:blue;stroke-width:0.5;"/>
    <rect x="296.0" y="22.0" width="10.0" height="12.0" class="space" style="fill:none;stroke:blue;stroke-width:0.5;"/>
    <rect x="373.0" y="22.0" width="9.0" height="12.0" class="space" style="fill:none;stroke:blue;stroke-width:0.5;"/>
    <rect x="455.0" y="22.0" width="8.0" height="12.0" class="space" style="fill:none;stroke:blue;stroke-width:0.5;"/>
    <rect x="539.0" y="22.0" width="7.0" height="12.0" class="space" style="fill:none;stroke:blue;stroke-width:0.5;"/>
    <rect x="623.0" y="22.0" width="5.0" height="12.0" class="space" style="fill:none;stroke:blue;stroke-width:0.5;"/>
    <rect x="703.0" y="22.0" width="4.0" height="12.0" class="space" style="fill:none;stroke:blue;stroke-width:0.5;"/>
    <rect x="778.0" y="22.0" width="3.0" height="12.0" class="space" style="fill:none;stroke:blue;stroke-width:0.5;"/>
    <rect x="846.0" y="22.0" width="2.0" height="12.0" class="space" style="fill:none;stroke:blue;stroke-width:0.5;"/>
    <rect x="906.0" y="22.0" width="1.0" height="12.0" class="space" style="fill:none;stroke:blue;stroke-width:0.5;"/>
    <rect x="958.0" y="22.0" width="0.0" height="12.0" class="space" style="fill:none;stroke:blue;stroke-width:0.5;"/>
    <rect x="1002.0" y="22.0" width="-1.0" height="12.0" class="space" style="fill:none;stroke:blue;stroke-width:0.5;"/>
    <rect x="1038.0" y="22.0" width="-2.0" height="12.0" class="space" style="fill:none;stroke:blue;stroke-width:0.5;"/>
    <rect x="1067.0" y="22.0" width="-3.0" height="12.0" class="space" style="fill:none;stroke:blue;stroke-width:0.5;"/>
    <rect x="1089.0" y="22.0" width="-3.0" height="12.0" class="space" style="fill:none;stroke:blue;stroke-width:0.5;"/>
    <rect x="1106.0" y="22.0" width="-3.0" height="12.0" class="space" style="fill:none;stroke:blue;stroke-width:0.5;"/>
    <rect x="1119.0" y="22.0" width="-3.0" height="12.0" class="space" style="fill:none;stroke:blue;stroke-width:0.5;"/>
    <rect x="1129.0" y="22.0" width="-3.0" height="12.0" class="space" style="fill:none;stroke:blue;stroke-width:0.5;"/>
    <rect x="1136.0" y="22.0" width="-3.0" height="12.0" class="space" style="fill:none;stroke:blue;stroke-width:0.5;"/>
    <rect x="1141.0" y="22.0" width="-3.0" height="12.0" class="space" style="fill:none;stroke:blue;stroke-width:0.5;"/>
    <rect x="1145.0" y="22.0" width="-4.0" height="12.0" class="space" style="fill:none;stroke:blue;stroke-width:0.5;"/>
    <rect x="1147.0" y="22.0" width="-4.0" height="12.0" class="space" style="fill:none;stroke:blue;stroke-width:0.5;"/>
    <rect x="1149.0" y="22.0" width="-4.0" height="12.0" class="space" style="fill:none;stroke:blue;stroke-width:0.5;"/>
    <rect x="1150.0" y="22.0" width="-4.0" height="12.0" class="space" style="fill:none;stroke:blue;stroke-width:0.5;"/>
    <rect x="1151.0" y="22.0" width="-4.0" height="12.0" class="space" style="fill:none;stroke:blue;stroke-width:0.5;"/>
    <rect x="1151.0" y="22.0" width="-3.0" height="12.0" class="space" style="fill:none;stroke:blue;stroke-width:0.5;"/>
    <rect x="1152.0" y="22.0" width="-4.0" height="12.0" class="space" style="fill:none;stroke:blue;stroke-width:0.5;"/>
    <rect x="1152.0" y="22.0" width="-4.0" height="12.0" class="space" style="fill:none;stroke:blue;stroke-width:0.5;"/>
    <rect x="1152.0" y="22.0" width="-3.0" height="12.0" class="space" style="fill:none;stroke:blue;stroke-width:0.5;"/>
    <rect x="1153.0" y="22.0" width="-4.0" height="12.0" class="space" style="fill:none;stroke:blue;stroke-width:0.5;"/>
    <rect x="1153.0" y="22.0" width="-4.0" height="12.0" class="space" style="fill:none;stroke:blue;stroke-width:0.5;"/>
    <rect x="1153.0" y="22.0" width="-4.0" height="12.0" class="space" style="fill:none;stroke:blue;stroke-width:0.5;"/>
    <rect x="1153.0" y="22.0" width="-4.0" height="12.0" class="space" style="fill:none;stroke:blue;stroke-width:0.5;"/>
    <rect x="1153.0" y="22.0" width="-3.0" height="12.0" class="space" style="fill:none;stroke:blue;stroke-width:0.5;"/>
    <rect x="1154.0" y="22.0" width="-4.0" height="12.0" class="space" style="fill:none;stroke:blue;stroke-width:0.5;"/>
    <rect x="1154.0" y="22.0" width="-4.0" height="12.0" class="space" style="fill:none;stroke:blue;stroke-width:0.5;"/>
    <rect x="1154.0" y="22.0" width="-4.0" height="12.0" class="space" style="fill:none;stroke:blue;stroke-width:0.5;"/>
    <rect x="1154.0" y="22.0" width="-4.0" height="12.0" class="space" style="fill:none;stroke:blue;stroke-width:0.5;"/>
    <rect x="1154.0" y="22.0" width="-4.0" height="12.0" class="space" style="fill:none;stroke:blue;stroke-width:0.5;"/>
    <rect x="1154.0" y="22.0" width="-3.0" height="12.0" class="space" style="fill:none;stroke:blue;stroke-width:0.5;"/>
    <rect x="1155.0" y="22.0" width="-4.0" height="12.0" class="space" style="fill:none;stroke:blue;stroke-width:0.5;"/>
    <rect x="1155.0" y="22.0" width="-4.0" height="12.0" class="space" style="fill:none;stroke:blue;stroke-width:0.5;"/>
    <rect x="1155.0" y="22.0" width="-4.0" height="12.0" class="space" style="fill:none;stroke:blue;stroke-width:0.5;"/>
    <rect x="1155.0" y="22.0" width="-4.0" height="12.0" class="space" style="fill:none;stroke:blue;stroke-width:0.5;"/>
    <rect x="1155.0" y="22.0" width="-4.0" height="12.0" class="space" style="fill:none;stroke:blue;stroke-width:0.5;"/>
    <rect x="1155.0" y="22.0" width="-4.0" height="12.0" class="space" style="fill:none;stroke:blue;stroke-width:0.5;"/>
    <rect x="1155.0" y="22.0" width="-4.0" height="12.0" class="space" style="fill:none;stroke:blue;stroke-width:0.5;"/>
    <rect x="1155.0" y="22.0" width="-4.0" height="12.0" class="space" style="fill:none;stroke:blue;stroke-width:0.5;"/>
    <rect x="1155.0" y="22.0" width="-3.0" height="12.0" class="space" style="fill:none;stroke:blue;stroke-width:0.5;"/>
    <rect x="1156.0" y="22.0" width="-4.0" height="12.0" class="space" style="fill:none;stroke:blue;stroke-width:0.5;"/>
    <rect x="1156.0" y="22.0" width="-4.0" height="12.0" class="space" style="fill:none;stroke:blue;stroke-width:0.5;"/>
    <rect x="1156.0" y="22.0" width="-4.0" height="12.0" class="space" style="fill:none;stroke:blue;stroke-width:0.5;"/>
    <rect x="1156.0" y="22.0" width="-4.0" height="12.0" class="space" style="fill:none;stroke:blue;stroke-width:0.5;"/>
    <rect x="1156.0" y="22.0" width="-4.0" height="12.0" class="space" style="fill:none;stroke:blue;stroke-width:0.5;"/>
    <rect x="1156.0" y="22.0" width="-4.0" height="12.0" class="space" style="fill:none;stroke:blue;stroke-width:0.5;"/>
    <rect x="1156.0" y="22.0" width="-4.0" height="12.0" class="space" style="fill:none;stroke:blue;stroke-width:0.5;"/>
    <rect x="1156.0" y="22.0" width="-4.0" height="12.0" class="space" style="fill:none;stroke:blue;stroke-width:0.5;"/>
    <rect x="1156.0" y="22.0" width="-4.0" height="12.0" class="space" style="fill:none;stroke:blue;stroke-width:0.5;"/>
    <rect x="1156.0" y="22.0" width="-4.0" height="12.0" class="space" style="fill:none;stroke:blue;stroke-width:0.5;"/>
    <rect x="1156.0" y="22.0" width="-4.0" height="12.0" class="space" style="fill:none;stroke:blue;stroke-width:0.5;"/>
    <rect x="1156.0" y="22.0" width="-3.0" height="12.0" class="space" style="fill:none;stroke:blue;stroke-width:0.5;"/>
    <g>
     <rect x="1154.0" y="22.0" width="10.0" height="12.0" class="text" style="fill:none;stroke:red;stroke-width:0.5;"/>
     <text x="1154.0" y="34.0" achars="O,0,&quot;" style="fill:black;font-family:helvetica;font-size:10.0px;">O</text>
    </g>
    <g>
     <rect x="1159.0" y="22.0" width="13.0" height="21.0" class="text" style="fill:none;stroke:red;stroke-width:0.5;"/>
     <text x="1159.0" y="43.0" achars="/" style="fill:black;font-family:helvetica;font-size:10.0px;">/</text>
    </g>
    <g>
     <rect x="1167.0" y="32.0" width="10.0" height="11.0" class="text" style="fill:none;stroke:red;stroke-width:0.5;"/>
     <text x="1167.0" y="43.0" achars="o,0" style="fill:black;font-family:helvetica;font-size:10.0px;">o</text>
    </g>
   </g>
   <g class="line">
    <rect x="24.0" y="51.0" width="3.0" height="21.0" class="space" style="fill:none;stroke:blue;stroke-width:0.5;"/>
    <g>
     <rect x="24.0" y="51.0" width="3.0" height="21.0" class="text" style="fill:none;stroke:red;stroke-width:0.5;"/>
     <text x="24.0" y="72.0" achars="l,I,|,1" style="fill:black;font-family:helvetica;font-size:10.0px;">l</text>
    </g>
    <g>
     <rect x="31.0" y="51.0" width="17.0" height="21.0" class="text" style="fill:none;stroke:red;stroke-width:0.5;"/>
     <text x="31.0" y="72.0" achars="D" style="fill:black;font-family:helvetica;font-size:10.0px;">D</text>
    </g>
    <rect x="49.0" y="51.0" width="12.0" height="21.0" class="space" style="fill:none;stroke:blue;stroke-width:0.5;"/>
    <rect x="78.0" y="51.0" width="12.0" height="21.0" class="space" style="fill:none;stroke:blue;stroke-width:0.5;"/>
    <rect x="122.0" y="51.0" width="12.0" height="21.0" class="space" style="fill:none;stroke:blue;stroke-width:0.5;"/>
    <rect x="180.0" y="51.0" width="11.0" height="21.0" class="space" style="fill:none;stroke:blue;stroke-width:0.5;"/>
    <rect x="248.0" y="51.0" width="10.0" height="21.0" class="space" style="fill:none;stroke:blue;stroke-width:0.5;"/>
    <rect x="322.0" y="51.0" width="9.0" height="21.0" class="space" style="fill:none;stroke:blue;stroke-width:0.5;"/>
    <rect x="400.0" y="51.0" width="7.0" height="21.0" class="space" style="fill:none;stroke:blue;stroke-width:0.5;"/>
    <rect x="477.0" y="51.0" width="6.0" height="21.0" class="space" style="fill:none;stroke:blue;stroke-width:0.5;"/>
    <rect x="552.0" y="51.0" width="4.0" height="21.0" class="space" style="fill:none;stroke:blue;stroke-width:0.5;"/>
    <rect x="621.0" y="51.0" width="3.0" height="21.0" class="space" style="fill:none;stroke:blue;stroke-width:0.5;"/>
    <rect x="683.0" y="51.0" width="2.0" height="21.0" class="space" style="fill:none;stroke:blue;stroke-width:0.5;"/>
    <rect x="737.0" y="51.0" width="1.0" height="21.0" class="space" style="fill:none;stroke:blue;stroke-width:0.5;"/>
    <rect x="783.0" y="51.0" width="0.0" height="21.0" class="space" style="fill:none;stroke:blue;stroke-width:0.5;"/>
    <rect x="821.0" y="51.0" width="-2.0" height="21.0" class="space" style="fill:none;stroke:blue;stroke-width:0.5;"/>
    <rect x="850.0" y="51.0" width="-2.0" height="21.0" class="space" style="fill:none;stroke:blue;stroke-width:0.5;"/>
    <rect x="873.0" y="51.0" width="-3.0" height="21.0" class="space" style="fill:none;stroke:blue;stroke-width:0.5;"/>
    <rect x="890.0" y="51.0" width="-3.0" height="21.0" class="space" style="fill:none;stroke:blue;stroke-width:0.5;"/>
    <rect x="903.0" y="51.0" width="-4.0" height="21.0" class="space" style="fill:none;stroke:blue;stroke-width:0.5;"/>
    <rect x="911.0" y="51.0" width="-3.0" height="21.0" class="space" style="fill:none;stroke:blue;stroke-width:0.5;"/>
    <rect x="918.0" y="51.0" width="-4.0" height="21.0" class="space" style="fill:none;stroke:blue;stroke-width:0.5;"/>
    <rect x="922.0" y="51.0" width="-4.0" height="21.0" class="space" style="fill:none;stroke:blue;stroke-width:0.5;"/>
    <rect x="925.0" y="51.0" width="-4.0" height="21.0" class="space" style="fill:none;stroke:blue;stroke-width:0.5;"/>
    <rect x="927.0" y="51.0" width="-4.0" height="21.0" class="space" style="fill:none;stroke:blue;stroke-width:0.5;"/>
    <rect x="928.0" y="51.0" width="-4.0" height="21.0" class="space" style="fill:none;stroke:blue;stroke-width:0.5;"/>
    <rect x="929.0" y="51.0" width="-4.0" height="21.0" class="space" style="fill:none;stroke:blue;stroke-width:0.5;"/>
    <rect x="930.0" y="51.0" width="-4.0" height="21.0" class="space" style="fill:none;stroke:blue;stroke-width:0.5;"/>
    <rect x="930.0" y="51.0" width="-3.0" height="21.0" class="space" style="fill:none;stroke:blue;stroke-width:0.5;"/>
    <rect x="931.0" y="51.0" width="-4.0" height="21.0" class="space" style="fill:none;stroke:blue;stroke-width:0.5;"/>
    <rect x="931.0" y="51.0" width="-4.0" height="21.0" class="space" style="fill:none;stroke:blue;stroke-width:0.5;"/>
    <rect x="931.0" y="51.0" width="-4.0" height="21.0" class="space" style="fill:none;stroke:blue;stroke-width:0.5;"/>
    <rect x="931.0" y="51.0" width="-3.0" height="21.0" class="space" style="fill:none;stroke:blue;stroke-width:0.5;"/>
    <rect x="932.0" y="51.0" width="-4.0" height="21.0" class="space" style="fill:none;stroke:blue;stroke-width:0.5;"/>
    <rect x="932.0" y="51.0" width="-4.0" height="21.0" class="space" style="fill:none;stroke:blue;stroke-width:0.5;"/>
    <rect x="932.0" y="51.0" width="-4.0" height="21.0" class="space" style="fill:none;stroke:blue;stroke-width:0.5;"/>
    <rect x="932.0" y="51.0" width="-4.0" height="21.0" class="space" style="fill:none;stroke:blue;stroke-width:0.5;"/>
    <rect x="932.0" y="51.0" width="-3.0" height="21.0" class="space" style="fill:none;stroke:blue;stroke-width:0.5;"/>
    <rect x="933.0" y="51.0" width="-4.0" height="21.0" class="space" style="fill:none;stroke:blue;stroke-width:0.5;"/>
    <rect x="933.0" y="51.0" width="-4.0" height="21.0" class="space" style="fill:none;stroke:blue;stroke-width:0.5;"/>
    <rect x="933.0" y="51.0" width="-4.0" height="21.0" class="space" style="fill:none;stroke:blue;stroke-width:0.5;"/>
    <rect x="933.0" y="51.0" width="-4.0" height="21.0" class="space" style="fill:none;stroke:blue;stroke-width:0.5;"/>
    <rect x="933.0" y="51.0" width="-4.0" height="21.0" class="space" style="fill:none;stroke:blue;stroke-width:0.5;"/>
    <rect x="933.0" y="51.0" width="-4.0" height="21.0" class="space" style="fill:none;stroke:blue;stroke-width:0.5;"/>
    <rect x="933.0" y="51.0" width="-3.0" height="21.0" class="space" style="fill:none;stroke:blue;stroke-width:0.5;"/>
    <rect x="934.0" y="51.0" width="-4.0" height="21.0" class="space" style="fill:none;stroke:blue;stroke-width:0.5;"/>
    <rect x="934.0" y="51.0" width="-4.0" height="21.0" class="space" style="fill:none;stroke:blue;stroke-width:0.5;"/>
    <rect x="934.0" y="51.0" width="-4.0" height="21.0" class="space" style="fill:none;stroke:blue;stroke-width:0.5;"/>
    <rect x="934.0" y="51.0" width="-4.0" height="21.0" class="space" style="fill:none;stroke:blue;stroke-width:0.5;"/>
    <rect x="934.0" y="51.0" width="-4.0" height="21.0" class="space" style="fill:none;stroke:blue;stroke-width:0.5;"/>
    <rect x="934.0" y="51.0" width="-4.0" height="21.0" class="space" style="fill:none;stroke:blue;stroke-width:0.5;"/>
    <rect x="934.0" y="51.0" width="-4.0" height="21.0" class="space" style="fill:none;stroke:blue;stroke-width:0.5;"/>
    <rect x="934.0" y="51.0" width="-4.0" height="21.0" class="space" style="fill:none;stroke:blue;stroke-width:0.5;"/>
    <rect x="934.0" y="51.0" width="-4.0" height="21.0" class="space" style="fill:none;stroke:blue;stroke-width:0.5;"/>
    <rect x="934.0" y="51.0" width="-3.0" height="21.0" class="space" style="fill:none;stroke:blue;stroke-width:0.5;"/>
    <g>
     <rect x="932.0" y="51.0" width="18.0" height="21.0" class="text" style="fill:none;stroke:red;stroke-width:0.5;"/>
     <text x="932.0" y="72.0" achars="R" style="fill:black;font-family:helvetica;font-size:10.0px;">R</text>
    </g>
    <g>
     <rect x="953.0" y="51.0" width="18.0" height="21.0" class="text" style="fill:none;stroke:red;stroke-width:0.5;"/>
     <text x="953.0" y="72.0" achars="R" style="fill:black;font-family:helvetica;font-size:10.0px;">R</text>
    </g>
    <rect x="972.0" y="51.0" width="8.0" height="27.0" class="space" style="fill:none;stroke:blue;stroke-width:0.5;"/>
    <g>
     <rect x="981.0" y="51.0" width="7.0" height="27.0" class="text" style="fill:none;stroke:red;stroke-width:0.5;"/>
     <text x="981.0" y="78.0" achars="(,C" style="fill:black;font-family:helvetica;font-size:10.0px;">(</text>
    </g>
    <g>
     <rect x="990.0" y="51.0" width="14.0" height="21.0" class="text" style="fill:none;stroke:red;stroke-width:0.5;"/>
     <text x="990.0" y="72.0" achars="9,g" style="fill:black;font-family:helvetica;font-size:10.0px;">9</text>
    </g>
    <g>
     <rect x="1006.0" y="51.0" width="14.0" height="21.0" class="text" style="fill:none;stroke:red;stroke-width:0.5;"/>
     <text x="1006.0" y="72.0" achars="5" style="fill:black;font-family:helvetica;font-size:10.0px;">5</text>
    </g>
    <g>
     <rect x="1022.0" y="51.0" width="10.0" height="11.0" class="text" style="fill:none;stroke:red;stroke-width:0.5;"/>
     <text x="1022.0" y="62.0" achars="O,0,&quot;" style="fill:black;font-family:helvetica;font-size:10.0px;">O</text>
    </g>
    <g>
     <rect x="1027.0" y="51.0" width="13.0" height="21.0" class="text" style="fill:none;stroke:red;stroke-width:0.5;"/>
     <text x="1027.0" y="72.0" achars="/" style="fill:black;font-family:helvetica;font-size:10.0px;">/</text>
    </g>
    <g>
     <rect x="1036.0" y="60.0" width="9.0" height="12.0" class="text" style="fill:none;stroke:red;stroke-width:0.5;"/>
     <text x="1036.0" y="72.0" achars="o,0" style="fill:black;font-family:helvetica;font-size:10.0px;">o</text>
    </g>
    <rect x="1046.0" y="51.0" width="9.0" height="21.0" class="space" style="fill:none;stroke:blue;stroke-width:0.5;"/>
    <g>
     <rect x="1056.0" y="51.0" width="18.0" height="21.0" class="text" style="fill:none;stroke:red;stroke-width:0.5;"/>
     <text x="1056.0" y="72.0" achars="C" style="fill:black;font-family:helvetica;font-size:10.0px;">C</text>
    </g>
    <g>
     <rect x="1076.0" y="51.0" width="4.0" height="21.0" class="text" style="fill:none;stroke:red;stroke-width:0.5;"/>
     <text x="1076.0" y="72.0" achars="l,I,1" style="fill:black;font-family:helvetica;font-size:10.0px;">l</text>
    </g>
    <g>
     <rect x="1083.0" y="51.0" width="7.0" height="27.0" class="text" style="fill:none;stroke:red;stroke-width:0.5;"/>
     <text x="1083.0" y="78.0" achars="),}" style="fill:black;font-family:helvetica;font-size:10.0px;">)</text>
    </g>
    <rect x="1091.0" y="51.0" width="17.0" height="21.0" class="space" style="fill:none;stroke:blue;stroke-width:0.5;"/>
    <rect x="1124.0" y="51.0" width="12.0" height="21.0" class="space" style="fill:none;stroke:blue;stroke-width:0.5;"/>
    <rect x="1149.0" y="51.0" width="3.0" height="21.0" class="space" style="fill:none;stroke:blue;stroke-width:0.5;"/>
    <g>
     <rect x="1153.0" y="51.0" width="26.0" height="21.0" class="text" style="fill:none;stroke:red;stroke-width:0.5;"/>
     <text x="1153.0" y="72.0" achars="W" style="fill:black;font-family:helvetica;font-size:10.0px;">W</text>
    </g>
    <g>
     <rect x="1181.0" y="56.0" width="13.0" height="16.0" class="text" style="fill:none;stroke:red;stroke-width:0.5;"/>
     <text x="1181.0" y="72.0" achars="e,g" style="fill:black;font-family:helvetica;font-size:10.0px;">e</text>
    </g>
    <g>
     <rect x="1197.0" y="51.0" width="3.0" height="21.0" class="text" style="fill:none;stroke:red;stroke-width:0.5;"/>
     <text x="1197.0" y="72.0" achars="i,j" style="fill:black;font-family:helvetica;font-size:10.0px;">i</text>
    </g>
    <g>
     <rect x="1203.0" y="56.0" width="13.0" height="22.0" class="text" style="fill:none;stroke:red;stroke-width:0.5;"/>
     <text x="1203.0" y="78.0" achars="g,9" style="fill:black;font-family:helvetica;font-size:10.0px;">g</text>
    </g>
    <g>
     <rect x="1219.0" y="51.0" width="13.0" height="21.0" class="text" style="fill:none;stroke:red;stroke-width:0.5;"/>
     <text x="1219.0" y="72.0" achars="h" style="fill:black;font-family:helvetica;font-size:10.0px;">h</text>
    </g>
    <g>
     <rect x="1234.0" y="51.0" width="8.0" height="21.0" class="text" style="fill:none;stroke:red;stroke-width:0.5;"/>
     <text x="1234.0" y="72.0" achars="t" style="fill:black;font-family:helvetica;font-size:10.0px;">t</text>
    </g>
   </g>
  </g>
 </g>
</svg>
