<?xml version="1.0" encoding="UTF-8"?>
<svg height="100.0" width="1242.0" xmlns="http://www.w3.org/2000/svg">
 <g class="page">
  <g class="block">
   <g class="line">
    <rect x="24.0" y="30.0" width="16.0" height="20.0" class="space" style="fill:none;stroke:blue;stroke-width:0.5;"/>
    <g>
     <rect x="24.0" y="30.0" width="16.0" height="20.0" class="text" style="fill:none;stroke:red;stroke-width:0.5;"/>
     <text x="24.0" y="50.0" achars="S" style="fill:black;font-family:helvetica;font-size:10.0px;">S</text>
    </g>
    <g>
     <rect x="41.0" y="31.0" width="7.0" height="19.0" class="text" style="fill:none;stroke:red;stroke-width:0.5;"/>
     <text x="41.0" y="50.0" achars="t" style="fill:black;font-family:helvetica;font-size:10.0px;">t</text>
    </g>
    <g>
     <rect x="50.0" y="35.0" width="12.0" height="15.0" class="text" style="fill:none;stroke:red;stroke-width:0.5;"/>
     <text x="50.0" y="50.0" achars="u" style="fill:black;font-family:helvetica;font-size:10.0px;">u</text>
    </g>
    <g>
     <rect x="64.0" y="30.0" width="13.0" height="20.0" class="text" style="fill:none;stroke:red;stroke-width:0.5;"/>
     <text x="64.0" y="50.0" achars="d" style="fill:black;font-family:helvetica;font-size:10.0px;">d</text>
    </g>
    <g>
     <rect x="78.0" y="35.0" width="14.0" height="21.0" class="text" style="fill:none;stroke:red;stroke-width:0.5;"/>
     <text x="78.0" y="56.0" achars="y" style="fill:black;font-family:helvetica;font-size:10.0px;">y</text>
    </g>
    <rect x="93.0" y="30.0" width="10.0" height="11.0" class="space" style="fill:none;stroke:blue;stroke-width:0.5;"/>
    <rect x="117.0" y="30.0" width="10.0" height="11.0" class="space" style="fill:none;stroke:blue;stroke-width:0.5;"/>
    <rect x="155.0" y="30.0" width="9.0" height="11.0" class="space" style="fill:none;stroke:blue;stroke-width:0.5;"/>
    <rect x="204.0" y="30.0" width="9.0" height="11.0" class="space" style="fill:none;stroke:blue;stroke-width:0.5;"/>
    <rect x="263.0" y="30.0" width="9.0" height="11.0" class="space" style="fill:none;stroke:blue;stroke-width:0.5;"/>
    <rect x="331.0" y="30.0" width="8.0" height="11.0" class="space" style="fill:none;stroke:blue;stroke-width:0.5;"/>
    <rect x="404.0" y="30.0" width="7.0" height="11.0" class="space" style="fill:none;stroke:blue;stroke-width:0.5;"/>
    <rect x="480.0" y="30.0" width="6.0" height="11.0" class="space" style="fill:none;stroke:blue;stroke-width:0.5;"/>
    <rect x="557.0" y="30.0" width="5.0" height="11.0" class="space" style="fill:none;stroke:blue;stroke-width:0.5;"/>
    <rect x="633.0" y="30.0" width="4.0" height="11.0" class="space" style="fill:none;stroke:blue;stroke-width:0.5;"/>
    <rect x="706.0" y="30.0" width="2.0" height="11.0" class="space" style="fill:none;stroke:blue;stroke-width:0.5;"/>
    <rect x="773.0" y="30.0" width="2.0" height="11.0" class="space" style="fill:none;stroke:blue;stroke-width:0.5;"/>
    <rect x="835.0" y="30.0" width="1.0" height="11.0" class="space" style="fill:none;stroke:blue;stroke-width:0.5;"/>
    <rect x="890.0" y="30.0" width="1.0" height="11.0" class="space" style="fill:none;stroke:blue;stroke-width:0.5;"/>
    <rect x="939.0" y="30.0" width="0.0" height="11.0" class="space" style="fill:none;stroke:blue;stroke-width:0.5;"/>
    <rect x="981.0" y="30.0" width="-1.0" height="11.0" class="space" style="fill:none;stroke:blue;stroke-width:0.5;"/>
    <rect x="1016.0" y="30.0" width="-2.0" height="11.0" class="space" style="fill:none;stroke:blue;stroke-width:0.5;"/>
    <rect x="1045.0" y="30.0" width="-3.0" height="11.0" class="space" style="fill:none;stroke:blue;stroke-width:0.5;"/>
    <rect x="1068.0" y="30.0" width="-3.0" height="11.0" class="space" style="fill:none;stroke:blue;stroke-width:0.5;"/>
    <rect x="1086.0" y="30.0" width="-3.0" height="11.0" class="space" style="fill:none;stroke:blue;stroke-width:0.5;"/>
    <rect x="1101.0" y="30.0" width="-4.0" height="11.0" class="space" style="fill:none;stroke:blue;stroke-width:0.5;"/>
    <rect x="1112.0" y="30.0" width="-4.0" height="11.0" class="space" style="fill:none;stroke:blue;stroke-width:0.5;"/>
    <rect x="1120.0" y="30.0" width="-4.0" height="11.0" class="space" style="fill:none;stroke:blue;stroke-width:0.5;"/>
    <rect x="1126.0" y="30.0" width="-4.0" height="11.0" class="space" style="fill:none;stroke:blue;stroke-width:0.5;"/>
    <rect x="1131.0" y="30.0" width="-4.0" height="11.0" class="space" style="fill:none;stroke:blue;stroke-width:0.5;"/>
    <rect x="1134.0" y="30.0" width="-4.0" height="11.0" class="space" style="fill:none;stroke:blue;stroke-width:0.5;"/>
    <rect x="1136.0" y="30.0" width="-3.0" height="11.0" class="space" style="fill:none;stroke:blue;stroke-width:0.5;"/>
    <rect x="1139.0" y="30.0" width="-4.0" height="11.0" class="space" style="fill:none;stroke:blue;stroke-width:0.5;"/>
    <rect x="1140.0" y="30.0" width="-4.0" height="11.0" class="space" style="fill:none;stroke:blue;stroke-width:0.5;"/>
    <rect x="1141.0" y="30.0" width="-4.0" height="11.0" class="space" style="fill:none;stroke:blue;stroke-width:0.5;"/>
    <rect x="1142.0" y="30.0" width="-4.0" height="11.0" class="space" style="fill:none;stroke:blue;stroke-width:0.5;"/>
    <rect x="1142.0" y="30.0" width="-4.0" height="11.0" class="space" style="fill:none;stroke:blue;stroke-width:0.5;"/>
    <rect x="1142.0" y="30.0" width="-4.0" height="11.0" class="space" style="fill:none;stroke:blue;stroke-width:0.5;"/>
    <rect x="1142.0" y="30.0" width="-3.0" height="11.0" class="space" style="fill:none;stroke:blue;stroke-width:0.5;"/>
    <rect x="1143.0" y="30.0" width="-4.0" height="11.0" class="space" style="fill:none;stroke:blue;stroke-width:0.5;"/>
    <rect x="1143.0" y="30.0" width="-4.0" height="11.0" class="space" style="fill:none;stroke:blue;stroke-width:0.5;"/>
    <rect x="1143.0" y="30.0" width="-4.0" height="11.0" class="space" style="fill:none;stroke:blue;stroke-width:0.5;"/>
    <rect x="1143.0" y="30.0" width="-3.0" height="11.0" class="space" style="fill:none;stroke:blue;stroke-width:0.5;"/>
    <rect x="1144.0" y="30.0" width="-4.0" height="11.0" class="space" style="fill:none;stroke:blue;stroke-width:0.5;"/>
    <rect x="1144.0" y="30.0" width="-4.0" height="11.0" class="space" style="fill:none;stroke:blue;stroke-width:0.5;"/>
    <rect x="1144.0" y="30.0" width="-4.0" height="11.0" class="space" style="fill:none;stroke:blue;stroke-width:0.5;"/>
    <rect x="1144.0" y="30.0" width="-4.0" height="11.0" class="space" style="fill:none;stroke:blue;stroke-width:0.5;"/>
    <rect x="1144.0" y="30.0" width="-3.0" height="11.0" class="space" style="fill:none;stroke:blue;stroke-width:0.5;"/>
    <rect x="1145.0" y="30.0" width="-4.0" height="11.0" class="space" style="fill:none;stroke:blue;stroke-width:0.5;"/>
    <rect x="1145.0" y="30.0" width="-4.0" height="11.0" class="space" style="fill:none;stroke:blue;stroke-width:0.5;"/>
    <rect x="1145.0" y="30.0" width="-4.0" height="11.0" class="space" style="fill:none;stroke:blue;stroke-width:0.5;"/>
    <rect x="1145.0" y="30.0" width="-4.0" height="11.0" class="space" style="fill:none;stroke:blue;stroke-width:0.5;"/>
    <rect x="1145.0" y="30.0" width="-4.0" height="11.0" class="space" style="fill:none;stroke:blue;stroke-width:0.5;"/>
    <rect x="1145.0" y="30.0" width="-4.0" height="11.0" class="space" style="fill:none;stroke:blue;stroke-width:0.5;"/>
    <rect x="1145.0" y="30.0" width="-3.0" height="11.0" class="space" style="fill:none;stroke:blue;stroke-width:0.5;"/>
    <rect x="1146.0" y="30.0" width="-4.0" height="11.0" class="space" style="fill:none;stroke:blue;stroke-width:0.5;"/>
    <rect x="1146.0" y="30.0" width="-4.0" height="11.0" class="space" style="fill:none;stroke:blue;stroke-width:0.5;"/>
    <rect x="1146.0" y="30.0" width="-4.0" height="11.0" class="space" style="fill:none;stroke:blue;stroke-width:0.5;"/>
    <rect x="1146.0" y="30.0" width="-4.0" height="11.0" class="space" style="fill:none;stroke:blue;stroke-width:0.5;"/>
    <rect x="1146.0" y="30.0" width="-4.0" height="11.0" class="space" style="fill:none;stroke:blue;stroke-width:0.5;"/>
    <rect x="1146.0" y="30.0" width="-4.0" height="11.0" class="space" style="fill:none;stroke:blue;stroke-width:0.5;"/>
    <rect x="1146.0" y="30.0" width="-4.0" height="11.0" class="space" style="fill:none;stroke:blue;stroke-width:0.5;"/>
    <rect x="1146.0" y="30.0" width="-4.0" height="11.0" class="space" style="fill:none;stroke:blue;stroke-width:0.5;"/>
    <rect x="1146.0" y="30.0" width="-4.0" height="11.0" class="space" style="fill:none;stroke:blue;stroke-width:0.5;"/>
    <rect x="1146.0" y="30.0" width="-3.0" height="11.0" class="space" style="fill:none;stroke:blue;stroke-width:0.5;"/>
    <rect x="1147.0" y="30.0" width="-4.0" height="11.0" class="space" style="fill:none;stroke:blue;stroke-width:0.5;"/>
    <rect x="1147.0" y="30.0" width="-4.0" height="11.0" class="space" style="fill:none;stroke:blue;stroke-width:0.5;"/>
    <rect x="1147.0" y="30.0" width="-4.0" height="11.0" class="space" style="fill:none;stroke:blue;stroke-width:0.5;"/>
    <rect x="1147.0" y="30.0" width="-4.0" height="11.0" class="space" style="fill:none;stroke:blue;stroke-width:0.5;"/>
    <rect x="1147.0" y="30.0" width="-4.0" height="11.0" class="space" style="fill:none;stroke:blue;stroke-width:0.5;"/>
    <rect x="1147.0" y="30.0" width="-4.0" height="11.0" class="space" style="fill:none;stroke:blue;stroke-width:0.5;"/>
    <rect x="1147.0" y="30.0" width="-4.0" height="11.0" class="space" style="fill:none;stroke:blue;stroke-width:0.5;"/>
    <rect x="1147.0" y="30.0" width="-4.0" height="11.0" class="space" style="fill:none;stroke:blue;stroke-width:0.5;"/>
    <rect x="1147.0" y="30.0" width="-4.0" height="11.0" class="space" style="fill:none;stroke:blue;stroke-width:0.5;"/>
    <rect x="1147.0" y="30.0" width="-4.0" height="11.0" class="space" style="fill:none;stroke:blue;stroke-width:0.5;"/>
    <rect x="1147.0" y="30.0" width="-4.0" height="11.0" class="space" style="fill:none;stroke:blue;stroke-width:0.5;"/>
    <rect x="1147.0" y="30.0" width="-4.0" height="11.0" class="space" style="fill:none;stroke:blue;stroke-width:0.5;"/>
    <rect x="1147.0" y="30.0" width="-4.0" height="11.0" class="space" style="fill:none;stroke:blue;stroke-width:0.5;"/>
    <rect x="1147.0" y="30.0" width="-4.0" height="11.0" class="space" style="fill:none;stroke:blue;stroke-width:0.5;"/>
    <rect x="1147.0" y="30.0" width="-3.0" height="11.0" class="space" style="fill:none;stroke:blue;stroke-width:0.5;"/>
    <g>
     <rect x="1145.0" y="30.0" width="10.0" height="11.0" class="text" style="fill:none;stroke:red;stroke-width:0.5;"/>
     <text x="1145.0" y="41.0" achars="O,0,&quot;" style="fill:black;font-family:helvetica;font-size:10.0px;">O</text>
    </g>
    <g>
     <rect x="1150.0" y="30.0" width="13.0" height="20.0" class="text" style="fill:none;stroke:red;stroke-width:0.5;"/>
     <text x="1150.0" y="50.0" achars="/" style="fill:black;font-family:helvetica;font-size:10.0px;">/</text>
    </g>
    <g>
     <rect x="1158.0" y="39.0" width="10.0" height="11.0" class="text" style="fill:none;stroke:red;stroke-width:0.5;"/>
     <text x="1158.0" y="50.0" achars="o,0" style="fill:black;font-family:helvetica;font-size:10.0px;">o</text>
    </g>
   </g>
   <g class="line">
    <rect x="24.0" y="64.0" width="4.0" height="21.0" class="space" style="fill:none;stroke:blue;stroke-width:0.5;"/>
    <g>
     <rect x="24.0" y="64.0" width="4.0" height="21.0" class="text" style="fill:none;stroke:red;stroke-width:0.5;"/>
     <text x="24.0" y="85.0" achars="t" style="fill:black;font-family:helvetica;font-size:10.0px;">t</text>
    </g>
    <g>
     <rect x="32.0" y="64.0" width="17.0" height="21.0" class="text" style="fill:none;stroke:red;stroke-width:0.5;"/>
     <text x="32.0" y="85.0" achars="D" style="fill:black;font-family:helvetica;font-size:10.0px;">D</text>
    </g>
    <rect x="50.0" y="64.0" width="12.0" height="21.0" class="space" style="fill:none;stroke:blue;stroke-width:0.5;"/>
    <rect x="79.0" y="64.0" width="12.0" height="21.0" class="space" style="fill:none;stroke:blue;stroke-width:0.5;"/>
    <rect x="123.0" y="64.0" width="12.0" height="21.0" class="space" style="fill:none;stroke:blue;stroke-width:0.5;"/>
    <rect x="181.0" y="64.0" width="11.0" height="21.0" class="space" style="fill:none;stroke:blue;stroke-width:0.5;"/>
    <rect x="248.0" y="64.0" width="10.0" height="21.0" class="space" style="fill:none;stroke:blue;stroke-width:0.5;"/>
    <rect x="322.0" y="64.0" width="9.0" height="21.0" class="space" style="fill:none;stroke:blue;stroke-width:0.5;"/>
    <rect x="399.0" y="64.0" width="8.0" height="21.0" class="space" style="fill:none;stroke:blue;stroke-width:0.5;"/>
    <rect x="476.0" y="64.0" width="6.0" height="21.0" class="space" style="fill:none;stroke:blue;stroke-width:0.5;"/>
    <rect x="550.0" y="64.0" width="4.0" height="21.0" class="space" style="fill:none;stroke:blue;stroke-width:0.5;"/>
    <rect x="618.0" y="64.0" width="3.0" height="21.0" class="space" style="fill:none;stroke:blue;stroke-width:0.5;"/>
    <rect x="679.0" y="64.0" width="1.0" height="21.0" class="space" style="fill:none;stroke:blue;stroke-width:0.5;"/>
    <rect x="731.0" y="64.0" width="0.0" height="21.0" class="space" style="fill:none;stroke:blue;stroke-width:0.5;"/>
    <rect x="775.0" y="64.0" width="-1.0" height="21.0" class="space" style="fill:none;stroke:blue;stroke-width:0.5;"/>
    <rect x="811.0" y="64.0" width="-2.0" height="21.0" class="space" style="fill:none;stroke:blue;stroke-width:0.5;"/>
    <rect x="839.0" y="64.0" width="-2.0" height="21.0" class="space" style="fill:none;stroke:blue;stroke-width:0.5;"/>
    <rect x="861.0" y="64.0" width="-3.0" height="21.0" class="space" style="fill:none;stroke:blue;stroke-width:0.5;"/>
    <rect x="877.0" y="64.0" width="-3.0" height="21.0" class="space" style="fill:none;stroke:blue;stroke-width:0.5;"/>
    <rect x="889.0" y="64.0" width="-3.0" height="21.0" class="space" style="fill:none;stroke:blue;stroke-width:0.5;"/>
    <rect x="898.0" y="64.0" width="-4.0" height="21.0" class="space" style="fill:none;stroke:blue;stroke-width:0.5;"/>
    <rect x="903.0" y="64.0" width="-3.0" height="21.0" class="space" style="fill:none;stroke:blue;stroke-width:0.5;"/>
    <rect x="907.0" y="64.0" width="-3.0" height="21.0" class="space" style="fill:none;stroke:blue;stroke-width:0.5;"/>
    <rect x="910.0" y="64.0" width="-4.0" height="21.0" class="space" style="fill:none;stroke:blue;stroke-width:0.5;"/>
    <rect x="912.0" y="64.0" width="-4.0" height="21.0" class="space" style="fill:none;stroke:blue;stroke-width:0.5;"/>
    <rect x="913.0" y="64.0" width="-4.0" height="21.0" class="space" style="fill:none;stroke:blue;stroke-width:0.5;"/>
    <rect x="914.0" y="64.0" width="-4.0" height="21.0" class="space" style="fill:none;stroke:blue;stroke-width:0.5;"/>
    <rect x="914.0" y="64.0" width="-3.0" height="21.0" class="space" style="fill:none;stroke:blue;stroke-width:0.5;"/>
    <rect x="915.0" y="64.0" width="-4.0" height="21.0" class="space" style="fill:none;stroke:blue;stroke-width:0.5;"/>
    <rect x="915.0" y="64.0" width="-4.0" height="21.0" class="space" style="fill:none;stroke:blue;stroke-width:0.5;"/>
    <rect x="915.0" y="64.0" width="-4.0" height="21.0" class="space" style="fill:none;stroke:blue;stroke-width:0.5;"/>
    <rect x="915.0" y="64.0" width="-3.0" height="21.0" class="space" style="fill:none;stroke:blue;stroke-width:0.5;"/>
    <rect x="916.0" y="64.0" width="-4.0" height="21.0" class="space" style="fill:none;stroke:blue;stroke-width:0.5;"/>
    <rect x="916.0" y="64.0" width="-4.0" height="21.0" class="space" style="fill:none;stroke:blue;stroke-width:0.5;"/>
    <rect x="916.0" y="64.0" width="-4.0" height="21.0" class="space" style="fill:none;stroke:blue;stroke-width:0.5;"/>
    <rect x="916.0" y="64.0" width="-4.0" height="21.0" class="space" style="fill:none;stroke:blue;stroke-width:0.5;"/>
    <rect x="916.0" y="64.0" width="-3.0" height="21.0" class="space" style="fill:none;stroke:blue;stroke-width:0.5;"/>
    <rect x="917.0" y="64.0" width="-4.0" height="21.0" class="space" style="fill:none;stroke:blue;stroke-width:0.5;"/>
    <rect x="917.0" y="64.0" width="-4.0" height="21.0" class="space" style="fill:none;stroke:blue;stroke-width:0.5;"/>
    <rect x="917.0" y="64.0" width="-4.0" height="21.0" class="space" style="fill:none;stroke:blue;stroke-width:0.5;"/>
    <rect x="917.0" y="64.0" width="-4.0" height="21.0" class="space" style="fill:none;stroke:blue;stroke-width:0.5;"/>
    <rect x="917.0" y="64.0" width="-4.0" height="21.0" class="space" style="fill:none;stroke:blue;stroke-width:0.5;"/>
    <rect x="917.0" y="64.0" width="-4.0" height="21.0" class="space" style="fill:none;stroke:blue;stroke-width:0.5;"/>
    <rect x="917.0" y="64.0" width="-3.0" height="21.0" class="space" style="fill:none;stroke:blue;stroke-width:0.5;"/>
    <rect x="918.0" y="64.0" width="-4.0" height="21.0" class="space" style="fill:none;stroke:blue;stroke-width:0.5;"/>
    <rect x="918.0" y="64.0" width="-4.0" height="21.0" class="space" style="fill:none;stroke:blue;stroke-width:0.5;"/>
    <rect x="918.0" y="64.0" width="-4.0" height="21.0" class="space" style="fill:none;stroke:blue;stroke-width:0.5;"/>
    <rect x="918.0" y="64.0" width="-4.0" height="21.0" class="space" style="fill:none;stroke:blue;stroke-width:0.5;"/>
    <rect x="918.0" y="64.0" width="-4.0" height="21.0" class="space" style="fill:none;stroke:blue;stroke-width:0.5;"/>
    <rect x="918.0" y="64.0" width="-4.0" height="21.0" class="space" style="fill:none;stroke:blue;stroke-width:0.5;"/>
    <rect x="918.0" y="64.0" width="-4.0" height="21.0" class="space" style="fill:none;stroke:blue;stroke-width:0.5;"/>
    <rect x="918.0" y="64.0" width="-4.0" height="21.0" class="space" style="fill:none;stroke:blue;stroke-width:0.5;"/>
    <rect x="918.0" y="64.0" width="-4.0" height="21.0" class="space" style="fill:none;stroke:blue;stroke-width:0.5;"/>
    <rect x="918.0" y="64.0" width="-3.0" height="21.0" class="space" style="fill:none;stroke:blue;stroke-width:0.5;"/>
    <g>
     <rect x="916.0" y="64.0" width="18.0" height="21.0" class="text" style="fill:none;stroke:red;stroke-width:0.5;"/>
     <text x="916.0" y="85.0" achars="R" style="fill:black;font-family:helvetica;font-size:10.0px;">R</text>
    </g>
    <g>
     <rect x="936.0" y="64.0" width="18.0" height="21.0" class="text" style="fill:none;stroke:red;stroke-width:0.5;"/>
     <text x="936.0" y="85.0" achars="R" style="fill:black;font-family:helvetica;font-size:10.0px;">R</text>
    </g>
    <rect x="955.0" y="64.0" width="8.0" height="26.0" class="space" style="fill:none;stroke:blue;stroke-width:0.5;"/>
    <g>
     <rect x="964.0" y="64.0" width="6.0" height="26.0" class="text" style="fill:none;stroke:red;stroke-width:0.5;"/>
     <text x="964.0" y="90.0" achars="(,C" style="fill:black;font-family:helvetica;font-size:10.0px;">(</text>
    </g>
    <g>
     <rect x="972.0" y="64.0" width="14.0" height="21.0" class="text" style="fill:none;stroke:red;stroke-width:0.5;"/>
     <text x="972.0" y="85.0" achars="9,g" style="fill:black;font-family:helvetica;font-size:10.0px;">9</text>
    </g>
    <g>
     <rect x="988.0" y="64.0" width="14.0" height="21.0" class="text" style="fill:none;stroke:red;stroke-width:0.5;"/>
     <text x="988.0" y="85.0" achars="5" style="fill:black;font-family:helvetica;font-size:10.0px;">5</text>
    </g>
    <g>
     <rect x="1004.0" y="64.0" width="10.0" height="12.0" class="text" style="fill:none;stroke:red;stroke-width:0.5;"/>
     <text x="1004.0" y="76.0" achars="O,0,&quot;,a" style="fill:black;font-family:helvetica;font-size:10.0px;">O</text>
    </g>
    <g>
     <rect x="1009.0" y="64.0" width="14.0" height="21.0" class="text" style="fill:none;stroke:red;stroke-width:0.5;"/>
     <text x="1009.0" y="85.0" achars="/" style="fill:black;font-family:helvetica;font-size:10.0px;">/</text>
    </g>
    <g>
     <rect x="1018.0" y="74.0" width="9.0" height="11.0" class="text" style="fill:none;stroke:red;stroke-width:0.5;"/>
     <text x="1018.0" y="85.0" achars="o,0" style="fill:black;font-family:helvetica;font-size:10.0px;">o</text>
    </g>
    <rect x="1028.0" y="64.0" width="9.0" height="21.0" class="space" style="fill:none;stroke:blue;stroke-width:0.5;"/>
    <g>
     <rect x="1038.0" y="64.0" width="17.0" height="21.0" class="text" style="fill:none;stroke:red;stroke-width:0.5;"/>
     <text x="1038.0" y="85.0" achars="C" style="fill:black;font-family:helvetica;font-size:10.0px;">C</text>
    </g>
    <g>
     <rect x="1059.0" y="64.0" width="3.0" height="21.0" class="text" style="fill:none;stroke:red;stroke-width:0.5;"/>
     <text x="1059.0" y="85.0" achars="l,I,|,1" style="fill:black;font-family:helvetica;font-size:10.0px;">l</text>
    </g>
    <g>
     <rect x="1066.0" y="64.0" width="7.0" height="26.0" class="text" style="fill:none;stroke:red;stroke-width:0.5;"/>
     <text x="1066.0" y="90.0" achars="),&gt;" style="fill:black;font-family:helvetica;font-size:10.0px;">)</text>
    </g>
    <rect x="1074.0" y="64.0" width="14.0" height="21.0" class="space" style="fill:none;stroke:blue;stroke-width:0.5;"/>
    <rect x="1103.0" y="64.0" width="11.0" height="21.0" class="space" style="fill:none;stroke:blue;stroke-width:0.5;"/>
    <rect x="1131.0" y="64.0" width="4.0" height="21.0" class="space" style="fill:none;stroke:blue;stroke-width:0.5;"/>
    <rect x="1144.0" y="64.0" width="-1.0" height="21.0" class="space" style="fill:none;stroke:blue;stroke-width:0.5;"/>
    <g>
     <rect x="1144.0" y="64.0" width="28.0" height="21.0" class="text" style="fill:none;stroke:red;stroke-width:0.5;"/>
     <text x="1144.0" y="85.0" achars="W" style="fill:black;font-family:helvetica;font-size:10.0px;">W</text>
    </g>
    <g>
     <rect x="1173.0" y="70.0" width="14.0" height="15.0" class="text" style="fill:none;stroke:red;stroke-width:0.5;"/>
     <text x="1173.0" y="85.0" achars="e,g" style="fill:black;font-family:helvetica;font-size:10.0px;">e</text>
    </g>
    <g>
     <rect x="1190.0" y="64.0" width="3.0" height="21.0" class="text" style="fill:none;stroke:red;stroke-width:0.5;"/>
     <text x="1190.0" y="85.0" achars="i,j" style="fill:black;font-family:helvetica;font-size:10.0px;">i</text>
    </g>
    <g>
     <rect x="1195.0" y="70.0" width="13.0" height="20.0" class="text" style="fill:none;stroke:red;stroke-width:0.5;"/>
     <text x="1195.0" y="90.0" achars="9,g,0" style="fill:black;font-family:helvetica;font-size:10.0px;">9</text>
    </g>
    <g>
     <rect x="1210.0" y="64.0" width="12.0" height="21.0" class="text" style="fill:none;stroke:red;stroke-width:0.5;"/>
     <text x="1210.0" y="85.0" achars="h" style="fill:black;font-family:helvetica;font-size:10.0px;">h</text>
    </g>
    <g>
     <rect x="1224.0" y="65.0" width="8.0" height="20.0" class="text" style="fill:none;stroke:red;stroke-width:0.5;"/>
     <text x="1224.0" y="85.0" achars="t" style="fill:black;font-family:helvetica;font-size:10.0px;">t</text>
    </g>
   </g>
  </g>
 </g>
</svg>
