<?xml version="1.0" encoding="UTF-8"?>
<svg height="985.0" width="1428.0" xmlns="http://www.w3.org/2000/svg">
 <g>
  <g class="horizontallines">
   <line x1="5.0" y1="1.0" x2="1416.0" y2="1.0" style="stroke:red;stroke-width:1.0;"/>
   <line x1="48.0" y1="48.0" x2="1383.0" y2="48.0" style="stroke:red;stroke-width:1.0;"/>
   <line x1="45.0" y1="292.0" x2="1383.0" y2="292.0" style="stroke:red;stroke-width:2.0;"/>
   <line x1="45.0" y1="872.0" x2="1384.0" y2="872.0" style="stroke:red;stroke-width:2.0;"/>
   <line x1="48.0" y1="877.0" x2="472.0" y2="877.0" style="stroke:red;stroke-width:1.0;"/>
   <line x1="489.0" y1="877.0" x2="672.0" y2="877.0" style="stroke:red;stroke-width:1.0;"/>
   <line x1="704.0" y1="877.0" x2="871.0" y2="877.0" style="stroke:red;stroke-width:1.0;"/>
   <line x1="888.0" y1="877.0" x2="1383.0" y2="877.0" style="stroke:red;stroke-width:1.0;"/>
   <line x1="7.0" y1="975.0" x2="1418.0" y2="975.0" style="stroke:red;stroke-width:1.0;"/>
  </g>
  <g class="verticallines">
   <line x1="2.0" y1="7.0" x2="2.0" y2="967.0" style="stroke:blue;stroke-width:1.0;"/>
   <line x1="42.0" y1="56.0" x2="42.0" y2="290.0" style="stroke:blue;stroke-width:2.0;"/>
   <line x1="42.0" y1="292.0" x2="42.0" y2="867.0" style="stroke:blue;stroke-width:2.0;"/>
   <line x1="680.0" y1="292.0" x2="680.0" y2="887.0" style="stroke:blue;stroke-width:3.0;"/>
   <line x1="1386.0" y1="53.0" x2="1386.0" y2="287.0" style="stroke:blue;stroke-width:1.0;"/>
   <line x1="1386.0" y1="296.0" x2="1386.0" y2="871.0" style="stroke:blue;stroke-width:1.0;"/>
   <line x1="1418.0" y1="7.0" x2="1418.0" y2="975.0" style="stroke:blue;stroke-width:1.0;"/>
  </g>
 </g>
</svg>
