<?xml version="1.0" encoding="UTF-8"?>
<svg height="38.0" width="944.0" xmlns="http://www.w3.org/2000/svg">
 <g class="page">
  <g class="block">
   <g class="line">
    <rect x="934.0" y="0.0" width="-271.0" height="1.0" class="space" style="fill:none;stroke:blue;stroke-width:0.5;"/>
    <rect x="664.0" y="0.0" width="-4.0" height="1.0" class="space" style="fill:none;stroke:blue;stroke-width:0.5;"/>
    <rect x="661.0" y="0.0" width="-4.0" height="1.0" class="space" style="fill:none;stroke:blue;stroke-width:0.5;"/>
    <rect x="658.0" y="0.0" width="-4.0" height="1.0" class="space" style="fill:none;stroke:blue;stroke-width:0.5;"/>
    <rect x="655.0" y="0.0" width="-4.0" height="1.0" class="space" style="fill:none;stroke:blue;stroke-width:0.5;"/>
    <rect x="653.0" y="0.0" width="-4.0" height="1.0" class="space" style="fill:none;stroke:blue;stroke-width:0.5;"/>
    <rect x="651.0" y="0.0" width="-4.0" height="1.0" class="space" style="fill:none;stroke:blue;stroke-width:0.5;"/>
    <rect x="649.0" y="0.0" width="-3.0" height="1.0" class="space" style="fill:none;stroke:blue;stroke-width:0.5;"/>
    <rect x="649.0" y="0.0" width="-4.0" height="1.0" class="space" style="fill:none;stroke:blue;stroke-width:0.5;"/>
    <rect x="648.0" y="0.0" width="-4.0" height="1.0" class="space" style="fill:none;stroke:blue;stroke-width:0.5;"/>
    <rect x="648.0" y="0.0" width="-4.0" height="1.0" class="space" style="fill:none;stroke:blue;stroke-width:0.5;"/>
    <rect x="648.0" y="0.0" width="-4.0" height="1.0" class="space" style="fill:none;stroke:blue;stroke-width:0.5;"/>
    <rect x="648.0" y="0.0" width="-4.0" height="1.0" class="space" style="fill:none;stroke:blue;stroke-width:0.5;"/>
    <rect x="648.0" y="0.0" width="-3.0" height="1.0" class="space" style="fill:none;stroke:blue;stroke-width:0.5;"/>
    <rect x="650.0" y="0.0" width="-4.0" height="1.0" class="space" style="fill:none;stroke:blue;stroke-width:0.5;"/>
    <rect x="651.0" y="0.0" width="-4.0" height="1.0" class="space" style="fill:none;stroke:blue;stroke-width:0.5;"/>
    <rect x="652.0" y="0.0" width="-4.0" height="1.0" class="space" style="fill:none;stroke:blue;stroke-width:0.5;"/>
    <rect x="653.0" y="0.0" width="-4.0" height="1.0" class="space" style="fill:none;stroke:blue;stroke-width:0.5;"/>
    <rect x="654.0" y="0.0" width="-4.0" height="1.0" class="space" style="fill:none;stroke:blue;stroke-width:0.5;"/>
    <rect x="655.0" y="0.0" width="-4.0" height="1.0" class="space" style="fill:none;stroke:blue;stroke-width:0.5;"/>
    <rect x="656.0" y="0.0" width="-4.0" height="1.0" class="space" style="fill:none;stroke:blue;stroke-width:0.5;"/>
    <rect x="657.0" y="0.0" width="-4.0" height="1.0" class="space" style="fill:none;stroke:blue;stroke-width:0.5;"/>
    <rect x="657.0" y="0.0" width="-3.0" height="1.0" class="space" style="fill:none;stroke:blue;stroke-width:0.5;"/>
    <rect x="658.0" y="0.0" width="-4.0" height="1.0" class="space" style="fill:none;stroke:blue;stroke-width:0.5;"/>
    <rect x="658.0" y="0.0" width="-3.0" height="1.0" class="space" style="fill:none;stroke:blue;stroke-width:0.5;"/>
    <rect x="659.0" y="0.0" width="-4.0" height="1.0" class="space" style="fill:none;stroke:blue;stroke-width:0.5;"/>
    <rect x="659.0" y="0.0" width="-3.0" height="1.0" class="space" style="fill:none;stroke:blue;stroke-width:0.5;"/>
    <rect x="660.0" y="0.0" width="-4.0" height="1.0" class="space" style="fill:none;stroke:blue;stroke-width:0.5;"/>
    <rect x="660.0" y="0.0" width="-4.0" height="1.0" class="space" style="fill:none;stroke:blue;stroke-width:0.5;"/>
    <rect x="660.0" y="0.0" width="-3.0" height="1.0" class="space" style="fill:none;stroke:blue;stroke-width:0.5;"/>
    <rect x="661.0" y="0.0" width="-4.0" height="1.0" class="space" style="fill:none;stroke:blue;stroke-width:0.5;"/>
    <rect x="661.0" y="0.0" width="-4.0" height="1.0" class="space" style="fill:none;stroke:blue;stroke-width:0.5;"/>
    <rect x="661.0" y="0.0" width="-3.0" height="1.0" class="space" style="fill:none;stroke:blue;stroke-width:0.5;"/>
    <rect x="662.0" y="0.0" width="-4.0" height="1.0" class="space" style="fill:none;stroke:blue;stroke-width:0.5;"/>
    <rect x="662.0" y="0.0" width="-4.0" height="1.0" class="space" style="fill:none;stroke:blue;stroke-width:0.5;"/>
    <rect x="662.0" y="0.0" width="-4.0" height="1.0" class="space" style="fill:none;stroke:blue;stroke-width:0.5;"/>
    <rect x="662.0" y="0.0" width="-3.0" height="1.0" class="space" style="fill:none;stroke:blue;stroke-width:0.5;"/>
    <rect x="663.0" y="0.0" width="-4.0" height="1.0" class="space" style="fill:none;stroke:blue;stroke-width:0.5;"/>
    <rect x="663.0" y="0.0" width="-4.0" height="1.0" class="space" style="fill:none;stroke:blue;stroke-width:0.5;"/>
    <rect x="663.0" y="0.0" width="-4.0" height="1.0" class="space" style="fill:none;stroke:blue;stroke-width:0.5;"/>
    <rect x="663.0" y="0.0" width="-4.0" height="1.0" class="space" style="fill:none;stroke:blue;stroke-width:0.5;"/>
    <rect x="663.0" y="0.0" width="-3.0" height="1.0" class="space" style="fill:none;stroke:blue;stroke-width:0.5;"/>
    <rect x="664.0" y="0.0" width="-4.0" height="1.0" class="space" style="fill:none;stroke:blue;stroke-width:0.5;"/>
    <rect x="664.0" y="0.0" width="-4.0" height="1.0" class="space" style="fill:none;stroke:blue;stroke-width:0.5;"/>
    <rect x="664.0" y="0.0" width="-4.0" height="1.0" class="space" style="fill:none;stroke:blue;stroke-width:0.5;"/>
    <rect x="664.0" y="0.0" width="-4.0" height="1.0" class="space" style="fill:none;stroke:blue;stroke-width:0.5;"/>
    <rect x="664.0" y="0.0" width="-4.0" height="1.0" class="space" style="fill:none;stroke:blue;stroke-width:0.5;"/>
    <rect x="664.0" y="0.0" width="-4.0" height="1.0" class="space" style="fill:none;stroke:blue;stroke-width:0.5;"/>
    <rect x="664.0" y="0.0" width="-3.0" height="1.0" class="space" style="fill:none;stroke:blue;stroke-width:0.5;"/>
    <rect x="665.0" y="0.0" width="-4.0" height="1.0" class="space" style="fill:none;stroke:blue;stroke-width:0.5;"/>
    <rect x="665.0" y="0.0" width="-4.0" height="1.0" class="space" style="fill:none;stroke:blue;stroke-width:0.5;"/>
    <rect x="665.0" y="0.0" width="-4.0" height="1.0" class="space" style="fill:none;stroke:blue;stroke-width:0.5;"/>
    <rect x="665.0" y="0.0" width="-4.0" height="1.0" class="space" style="fill:none;stroke:blue;stroke-width:0.5;"/>
    <rect x="665.0" y="0.0" width="-4.0" height="1.0" class="space" style="fill:none;stroke:blue;stroke-width:0.5;"/>
    <rect x="665.0" y="0.0" width="-4.0" height="1.0" class="space" style="fill:none;stroke:blue;stroke-width:0.5;"/>
    <rect x="665.0" y="0.0" width="-4.0" height="1.0" class="space" style="fill:none;stroke:blue;stroke-width:0.5;"/>
    <rect x="665.0" y="0.0" width="-4.0" height="1.0" class="space" style="fill:none;stroke:blue;stroke-width:0.5;"/>
    <rect x="665.0" y="0.0" width="-4.0" height="1.0" class="space" style="fill:none;stroke:blue;stroke-width:0.5;"/>
    <rect x="665.0" y="0.0" width="-3.0" height="1.0" class="space" style="fill:none;stroke:blue;stroke-width:0.5;"/>
    <rect x="666.0" y="0.0" width="-4.0" height="1.0" class="space" style="fill:none;stroke:blue;stroke-width:0.5;"/>
    <rect x="666.0" y="0.0" width="-4.0" height="1.0" class="space" style="fill:none;stroke:blue;stroke-width:0.5;"/>
    <rect x="666.0" y="0.0" width="-4.0" height="1.0" class="space" style="fill:none;stroke:blue;stroke-width:0.5;"/>
    <rect x="666.0" y="0.0" width="-4.0" height="1.0" class="space" style="fill:none;stroke:blue;stroke-width:0.5;"/>
    <rect x="666.0" y="0.0" width="-4.0" height="1.0" class="space" style="fill:none;stroke:blue;stroke-width:0.5;"/>
    <rect x="666.0" y="0.0" width="-4.0" height="1.0" class="space" style="fill:none;stroke:blue;stroke-width:0.5;"/>
    <rect x="666.0" y="0.0" width="-4.0" height="1.0" class="space" style="fill:none;stroke:blue;stroke-width:0.5;"/>
    <rect x="666.0" y="0.0" width="-4.0" height="1.0" class="space" style="fill:none;stroke:blue;stroke-width:0.5;"/>
    <rect x="666.0" y="0.0" width="-4.0" height="1.0" class="space" style="fill:none;stroke:blue;stroke-width:0.5;"/>
    <rect x="666.0" y="0.0" width="-4.0" height="1.0" class="space" style="fill:none;stroke:blue;stroke-width:0.5;"/>
    <rect x="666.0" y="0.0" width="-4.0" height="1.0" class="space" style="fill:none;stroke:blue;stroke-width:0.5;"/>
    <rect x="666.0" y="0.0" width="-4.0" height="1.0" class="space" style="fill:none;stroke:blue;stroke-width:0.5;"/>
    <rect x="666.0" y="0.0" width="-4.0" height="1.0" class="space" style="fill:none;stroke:blue;stroke-width:0.5;"/>
    <rect x="666.0" y="0.0" width="-3.0" height="1.0" class="space" style="fill:none;stroke:blue;stroke-width:0.5;"/>
    <rect x="664.0" y="0.0" width="270.0" height="1.0" class="space" style="fill:none;stroke:blue;stroke-width:0.5;"/>
    <g>
     <rect x="664.0" y="0.0" width="270.0" height="1.0" class="text" style="fill:none;stroke:red;stroke-width:0.5;"/>
     <text x="664.0" y="1.0" achars="" style="fill:black;font-family:helvetica;font-size:10.0px;">?</text>
    </g>
   </g>
   <g class="line">
    <rect x="0.0" y="0.0" width="165.0" height="9.0" class="space" style="fill:none;stroke:blue;stroke-width:0.5;"/>
    <g>
     <rect x="0.0" y="0.0" width="165.0" height="9.0" class="text" style="fill:none;stroke:red;stroke-width:0.5;"/>
     <text x="0.0" y="9.0" achars="i" style="fill:black;font-family:helvetica;font-size:10.0px;">i</text>
    </g>
    <g>
     <rect x="166.0" y="0.0" width="248.0" height="9.0" class="text" style="fill:none;stroke:red;stroke-width:0.5;"/>
     <text x="166.0" y="9.0" achars="" style="fill:black;font-family:helvetica;font-size:10.0px;">?</text>
    </g>
    <g>
     <rect x="415.0" y="0.0" width="122.0" height="1.0" class="text" style="fill:none;stroke:red;stroke-width:0.5;"/>
     <text x="415.0" y="1.0" achars="-" style="fill:black;font-family:helvetica;font-size:10.0px;">-</text>
    </g>
    <g>
     <rect x="538.0" y="0.0" width="120.0" height="1.0" class="text" style="fill:none;stroke:red;stroke-width:0.5;"/>
     <text x="538.0" y="1.0" achars="-" style="fill:black;font-family:helvetica;font-size:10.0px;">-</text>
    </g>
    <g>
     <rect x="660.0" y="0.0" width="3.0" height="9.0" class="text" style="fill:none;stroke:red;stroke-width:0.5;"/>
     <text x="660.0" y="9.0" achars="i,t,l,I,1,f" style="fill:black;font-family:helvetica;font-size:10.0px;">i</text>
    </g>
   </g>
   <g class="line">
    <rect x="146.0" y="16.0" width="-4.0" height="12.0" class="space" style="fill:none;stroke:blue;stroke-width:0.5;"/>
    <rect x="143.0" y="16.0" width="-3.0" height="12.0" class="space" style="fill:none;stroke:blue;stroke-width:0.5;"/>
    <rect x="142.0" y="16.0" width="-4.0" height="12.0" class="space" style="fill:none;stroke:blue;stroke-width:0.5;"/>
    <rect x="141.0" y="16.0" width="-4.0" height="12.0" class="space" style="fill:none;stroke:blue;stroke-width:0.5;"/>
    <rect x="141.0" y="16.0" width="-4.0" height="12.0" class="space" style="fill:none;stroke:blue;stroke-width:0.5;"/>
    <rect x="141.0" y="16.0" width="-3.0" height="12.0" class="space" style="fill:none;stroke:blue;stroke-width:0.5;"/>
    <rect x="142.0" y="16.0" width="-3.0" height="12.0" class="space" style="fill:none;stroke:blue;stroke-width:0.5;"/>
    <rect x="144.0" y="16.0" width="-4.0" height="12.0" class="space" style="fill:none;stroke:blue;stroke-width:0.5;"/>
    <rect x="145.0" y="16.0" width="-4.0" height="12.0" class="space" style="fill:none;stroke:blue;stroke-width:0.5;"/>
    <rect x="145.0" y="16.0" width="-3.0" height="12.0" class="space" style="fill:none;stroke:blue;stroke-width:0.5;"/>
    <rect x="146.0" y="16.0" width="-3.0" height="12.0" class="space" style="fill:none;stroke:blue;stroke-width:0.5;"/>
    <rect x="147.0" y="16.0" width="-4.0" height="12.0" class="space" style="fill:none;stroke:blue;stroke-width:0.5;"/>
    <rect x="147.0" y="16.0" width="-4.0" height="12.0" class="space" style="fill:none;stroke:blue;stroke-width:0.5;"/>
    <rect x="147.0" y="16.0" width="-3.0" height="12.0" class="space" style="fill:none;stroke:blue;stroke-width:0.5;"/>
    <rect x="148.0" y="16.0" width="-4.0" height="12.0" class="space" style="fill:none;stroke:blue;stroke-width:0.5;"/>
    <rect x="148.0" y="16.0" width="-4.0" height="12.0" class="space" style="fill:none;stroke:blue;stroke-width:0.5;"/>
    <rect x="148.0" y="16.0" width="-3.0" height="12.0" class="space" style="fill:none;stroke:blue;stroke-width:0.5;"/>
    <rect x="149.0" y="16.0" width="-4.0" height="12.0" class="space" style="fill:none;stroke:blue;stroke-width:0.5;"/>
    <rect x="146.0" y="16.0" width="8.0" height="12.0" class="space" style="fill:none;stroke:blue;stroke-width:0.5;"/>
    <g>
     <rect x="146.0" y="16.0" width="8.0" height="12.0" class="text" style="fill:none;stroke:red;stroke-width:0.5;"/>
     <text x="146.0" y="28.0" achars="o,O,0" style="fill:black;font-family:helvetica;font-size:10.0px;">o</text>
    </g>
    <g>
     <rect x="155.0" y="16.0" width="7.0" height="11.0" class="text" style="fill:none;stroke:red;stroke-width:0.5;"/>
     <text x="155.0" y="27.0" achars="0" style="fill:black;font-family:helvetica;font-size:10.0px;">0</text>
    </g>
    <g>
     <rect x="163.0" y="16.0" width="7.0" height="11.0" class="text" style="fill:none;stroke:red;stroke-width:0.5;"/>
     <text x="163.0" y="27.0" achars="2" style="fill:black;font-family:helvetica;font-size:10.0px;">2</text>
    </g>
    <g>
     <rect x="170.0" y="16.0" width="8.0" height="12.0" class="text" style="fill:none;stroke:red;stroke-width:0.5;"/>
     <text x="170.0" y="28.0" achars="6,e" style="fill:black;font-family:helvetica;font-size:10.0px;">6</text>
    </g>
    <g>
     <rect x="179.0" y="16.0" width="7.0" height="11.0" class="text" style="fill:none;stroke:red;stroke-width:0.5;"/>
     <text x="179.0" y="27.0" achars="3" style="fill:black;font-family:helvetica;font-size:10.0px;">3</text>
    </g>
    <rect x="187.0" y="17.0" width="4.0" height="10.0" class="space" style="fill:none;stroke:blue;stroke-width:0.5;"/>
    <rect x="199.0" y="17.0" width="4.0" height="10.0" class="space" style="fill:none;stroke:blue;stroke-width:0.5;"/>
    <rect x="218.0" y="17.0" width="4.0" height="10.0" class="space" style="fill:none;stroke:blue;stroke-width:0.5;"/>
    <rect x="243.0" y="17.0" width="3.0" height="10.0" class="space" style="fill:none;stroke:blue;stroke-width:0.5;"/>
    <rect x="270.0" y="17.0" width="2.0" height="10.0" class="space" style="fill:none;stroke:blue;stroke-width:0.5;"/>
    <rect x="298.0" y="17.0" width="1.0" height="10.0" class="space" style="fill:none;stroke:blue;stroke-width:0.5;"/>
    <rect x="324.0" y="17.0" width="0.0" height="10.0" class="space" style="fill:none;stroke:blue;stroke-width:0.5;"/>
    <rect x="347.0" y="17.0" width="-1.0" height="10.0" class="space" style="fill:none;stroke:blue;stroke-width:0.5;"/>
    <rect x="365.0" y="17.0" width="-1.0" height="10.0" class="space" style="fill:none;stroke:blue;stroke-width:0.5;"/>
    <rect x="380.0" y="17.0" width="-2.0" height="10.0" class="space" style="fill:none;stroke:blue;stroke-width:0.5;"/>
    <rect x="391.0" y="17.0" width="-3.0" height="10.0" class="space" style="fill:none;stroke:blue;stroke-width:0.5;"/>
    <rect x="398.0" y="17.0" width="-3.0" height="10.0" class="space" style="fill:none;stroke:blue;stroke-width:0.5;"/>
    <rect x="403.0" y="17.0" width="-4.0" height="10.0" class="space" style="fill:none;stroke:blue;stroke-width:0.5;"/>
    <rect x="406.0" y="17.0" width="-4.0" height="10.0" class="space" style="fill:none;stroke:blue;stroke-width:0.5;"/>
    <rect x="408.0" y="17.0" width="-4.0" height="10.0" class="space" style="fill:none;stroke:blue;stroke-width:0.5;"/>
    <rect x="409.0" y="17.0" width="-4.0" height="10.0" class="space" style="fill:none;stroke:blue;stroke-width:0.5;"/>
    <rect x="410.0" y="17.0" width="-4.0" height="10.0" class="space" style="fill:none;stroke:blue;stroke-width:0.5;"/>
    <rect x="410.0" y="17.0" width="-4.0" height="10.0" class="space" style="fill:none;stroke:blue;stroke-width:0.5;"/>
    <rect x="410.0" y="17.0" width="-3.0" height="10.0" class="space" style="fill:none;stroke:blue;stroke-width:0.5;"/>
    <rect x="411.0" y="17.0" width="-4.0" height="10.0" class="space" style="fill:none;stroke:blue;stroke-width:0.5;"/>
    <rect x="411.0" y="17.0" width="-4.0" height="10.0" class="space" style="fill:none;stroke:blue;stroke-width:0.5;"/>
    <rect x="411.0" y="17.0" width="-4.0" height="10.0" class="space" style="fill:none;stroke:blue;stroke-width:0.5;"/>
    <rect x="411.0" y="17.0" width="-3.0" height="10.0" class="space" style="fill:none;stroke:blue;stroke-width:0.5;"/>
    <rect x="412.0" y="17.0" width="-4.0" height="10.0" class="space" style="fill:none;stroke:blue;stroke-width:0.5;"/>
    <rect x="412.0" y="17.0" width="-4.0" height="10.0" class="space" style="fill:none;stroke:blue;stroke-width:0.5;"/>
    <rect x="412.0" y="17.0" width="-4.0" height="10.0" class="space" style="fill:none;stroke:blue;stroke-width:0.5;"/>
    <rect x="412.0" y="17.0" width="-4.0" height="10.0" class="space" style="fill:none;stroke:blue;stroke-width:0.5;"/>
    <rect x="412.0" y="17.0" width="-3.0" height="10.0" class="space" style="fill:none;stroke:blue;stroke-width:0.5;"/>
    <g>
     <rect x="410.0" y="17.0" width="4.0" height="10.0" class="text" style="fill:none;stroke:red;stroke-width:0.5;"/>
     <text x="410.0" y="27.0" achars="1" style="fill:black;font-family:helvetica;font-size:10.0px;">1</text>
    </g>
    <rect x="415.0" y="16.0" width="4.0" height="12.0" class="space" style="fill:none;stroke:blue;stroke-width:0.5;"/>
    <rect x="428.0" y="16.0" width="4.0" height="12.0" class="space" style="fill:none;stroke:blue;stroke-width:0.5;"/>
    <rect x="448.0" y="16.0" width="3.0" height="12.0" class="space" style="fill:none;stroke:blue;stroke-width:0.5;"/>
    <rect x="472.0" y="16.0" width="3.0" height="12.0" class="space" style="fill:none;stroke:blue;stroke-width:0.5;"/>
    <rect x="500.0" y="16.0" width="2.0" height="12.0" class="space" style="fill:none;stroke:blue;stroke-width:0.5;"/>
    <rect x="529.0" y="16.0" width="1.0" height="12.0" class="space" style="fill:none;stroke:blue;stroke-width:0.5;"/>
    <rect x="556.0" y="16.0" width="0.0" height="12.0" class="space" style="fill:none;stroke:blue;stroke-width:0.5;"/>
    <rect x="580.0" y="16.0" width="-1.0" height="12.0" class="space" style="fill:none;stroke:blue;stroke-width:0.5;"/>
    <rect x="600.0" y="16.0" width="-2.0" height="12.0" class="space" style="fill:none;stroke:blue;stroke-width:0.5;"/>
    <rect x="616.0" y="16.0" width="-3.0" height="12.0" class="space" style="fill:none;stroke:blue;stroke-width:0.5;"/>
    <rect x="627.0" y="16.0" width="-2.0" height="12.0" class="space" style="fill:none;stroke:blue;stroke-width:0.5;"/>
    <rect x="636.0" y="16.0" width="-3.0" height="12.0" class="space" style="fill:none;stroke:blue;stroke-width:0.5;"/>
    <rect x="642.0" y="16.0" width="-4.0" height="12.0" class="space" style="fill:none;stroke:blue;stroke-width:0.5;"/>
    <rect x="645.0" y="16.0" width="-3.0" height="12.0" class="space" style="fill:none;stroke:blue;stroke-width:0.5;"/>
    <rect x="648.0" y="16.0" width="-4.0" height="12.0" class="space" style="fill:none;stroke:blue;stroke-width:0.5;"/>
    <rect x="649.0" y="16.0" width="-4.0" height="12.0" class="space" style="fill:none;stroke:blue;stroke-width:0.5;"/>
    <rect x="650.0" y="16.0" width="-4.0" height="12.0" class="space" style="fill:none;stroke:blue;stroke-width:0.5;"/>
    <rect x="651.0" y="16.0" width="-4.0" height="12.0" class="space" style="fill:none;stroke:blue;stroke-width:0.5;"/>
    <rect x="651.0" y="16.0" width="-4.0" height="12.0" class="space" style="fill:none;stroke:blue;stroke-width:0.5;"/>
    <rect x="651.0" y="16.0" width="-3.0" height="12.0" class="space" style="fill:none;stroke:blue;stroke-width:0.5;"/>
    <rect x="652.0" y="16.0" width="-4.0" height="12.0" class="space" style="fill:none;stroke:blue;stroke-width:0.5;"/>
    <rect x="652.0" y="16.0" width="-4.0" height="12.0" class="space" style="fill:none;stroke:blue;stroke-width:0.5;"/>
    <rect x="652.0" y="16.0" width="-4.0" height="12.0" class="space" style="fill:none;stroke:blue;stroke-width:0.5;"/>
    <rect x="652.0" y="16.0" width="-3.0" height="12.0" class="space" style="fill:none;stroke:blue;stroke-width:0.5;"/>
    <rect x="653.0" y="16.0" width="-4.0" height="12.0" class="space" style="fill:none;stroke:blue;stroke-width:0.5;"/>
    <rect x="653.0" y="16.0" width="-4.0" height="12.0" class="space" style="fill:none;stroke:blue;stroke-width:0.5;"/>
    <rect x="653.0" y="16.0" width="-4.0" height="12.0" class="space" style="fill:none;stroke:blue;stroke-width:0.5;"/>
    <rect x="653.0" y="16.0" width="-4.0" height="12.0" class="space" style="fill:none;stroke:blue;stroke-width:0.5;"/>
    <rect x="653.0" y="16.0" width="-3.0" height="12.0" class="space" style="fill:none;stroke:blue;stroke-width:0.5;"/>
    <g>
     <rect x="651.0" y="16.0" width="7.0" height="12.0" class="text" style="fill:none;stroke:red;stroke-width:0.5;"/>
     <text x="651.0" y="28.0" achars="3,9" style="fill:black;font-family:helvetica;font-size:10.0px;">3</text>
    </g>
    <g>
     <rect x="659.0" y="16.0" width="7.0" height="11.0" class="text" style="fill:none;stroke:red;stroke-width:0.5;"/>
     <text x="659.0" y="27.0" achars="B,8" style="fill:black;font-family:helvetica;font-size:10.0px;">B</text>
    </g>
    <g>
     <rect x="667.0" y="16.0" width="7.0" height="11.0" class="text" style="fill:none;stroke:red;stroke-width:0.5;"/>
     <text x="667.0" y="27.0" achars="0" style="fill:black;font-family:helvetica;font-size:10.0px;">0</text>
    </g>
   </g>
  </g>
 </g>
</svg>
