<?xml version="1.0" encoding="UTF-8"?>
<svg height="46.0" width="1247.0" xmlns="http://www.w3.org/2000/svg">
 <g class="page">
  <g class="block">
   <g class="line">
    <rect x="38.0" y="0.0" width="157.0" height="1.0" class="space" style="fill:none;stroke:blue;stroke-width:0.5;"/>
    <g>
     <rect x="38.0" y="0.0" width="157.0" height="1.0" class="text" style="fill:none;stroke:red;stroke-width:0.5;"/>
     <text x="38.0" y="1.0" achars="-" style="fill:black;font-family:helvetica;font-size:10.0px;">-</text>
    </g>
    <g>
     <rect x="196.0" y="0.0" width="3.0" height="11.0" class="text" style="fill:none;stroke:red;stroke-width:0.5;"/>
     <text x="196.0" y="11.0" achars="i,I,r" style="fill:black;font-family:helvetica;font-size:10.0px;">i</text>
    </g>
    <g>
     <rect x="200.0" y="0.0" width="320.0" height="1.0" class="text" style="fill:none;stroke:red;stroke-width:0.5;"/>
     <text x="200.0" y="1.0" achars="-" style="fill:black;font-family:helvetica;font-size:10.0px;">-</text>
    </g>
    <g>
     <rect x="522.0" y="0.0" width="2.0" height="11.0" class="text" style="fill:none;stroke:red;stroke-width:0.5;"/>
     <text x="522.0" y="11.0" achars="l,I,|,1" style="fill:black;font-family:helvetica;font-size:10.0px;">l</text>
    </g>
    <g>
     <rect x="525.0" y="0.0" width="270.0" height="1.0" class="text" style="fill:none;stroke:red;stroke-width:0.5;"/>
     <text x="525.0" y="1.0" achars="-" style="fill:black;font-family:helvetica;font-size:10.0px;">-</text>
    </g>
    <g>
     <rect x="796.0" y="0.0" width="2.0" height="11.0" class="text" style="fill:none;stroke:red;stroke-width:0.5;"/>
     <text x="796.0" y="11.0" achars="l,I,|,1" style="fill:black;font-family:helvetica;font-size:10.0px;">l</text>
    </g>
    <g>
     <rect x="799.0" y="0.0" width="438.0" height="1.0" class="text" style="fill:none;stroke:red;stroke-width:0.5;"/>
     <text x="799.0" y="1.0" achars="-" style="fill:black;font-family:helvetica;font-size:10.0px;">-</text>
    </g>
   </g>
   <g class="line">
    <rect x="190.0" y="34.0" width="-4.0" height="2.0" class="space" style="fill:none;stroke:blue;stroke-width:0.5;"/>
    <rect x="187.0" y="34.0" width="-3.0" height="2.0" class="space" style="fill:none;stroke:blue;stroke-width:0.5;"/>
    <rect x="186.0" y="34.0" width="-3.0" height="2.0" class="space" style="fill:none;stroke:blue;stroke-width:0.5;"/>
    <rect x="186.0" y="34.0" width="-4.0" height="2.0" class="space" style="fill:none;stroke:blue;stroke-width:0.5;"/>
    <rect x="186.0" y="34.0" width="-4.0" height="2.0" class="space" style="fill:none;stroke:blue;stroke-width:0.5;"/>
    <rect x="186.0" y="34.0" width="-3.0" height="2.0" class="space" style="fill:none;stroke:blue;stroke-width:0.5;"/>
    <rect x="187.0" y="34.0" width="-3.0" height="2.0" class="space" style="fill:none;stroke:blue;stroke-width:0.5;"/>
    <rect x="189.0" y="34.0" width="-4.0" height="2.0" class="space" style="fill:none;stroke:blue;stroke-width:0.5;"/>
    <rect x="189.0" y="34.0" width="-3.0" height="2.0" class="space" style="fill:none;stroke:blue;stroke-width:0.5;"/>
    <rect x="190.0" y="34.0" width="-3.0" height="2.0" class="space" style="fill:none;stroke:blue;stroke-width:0.5;"/>
    <rect x="191.0" y="34.0" width="-4.0" height="2.0" class="space" style="fill:none;stroke:blue;stroke-width:0.5;"/>
    <rect x="191.0" y="34.0" width="-3.0" height="2.0" class="space" style="fill:none;stroke:blue;stroke-width:0.5;"/>
    <rect x="192.0" y="34.0" width="-4.0" height="2.0" class="space" style="fill:none;stroke:blue;stroke-width:0.5;"/>
    <rect x="192.0" y="34.0" width="-4.0" height="2.0" class="space" style="fill:none;stroke:blue;stroke-width:0.5;"/>
    <rect x="192.0" y="34.0" width="-3.0" height="2.0" class="space" style="fill:none;stroke:blue;stroke-width:0.5;"/>
    <rect x="193.0" y="34.0" width="-4.0" height="2.0" class="space" style="fill:none;stroke:blue;stroke-width:0.5;"/>
    <rect x="190.0" y="34.0" width="3.0" height="2.0" class="space" style="fill:none;stroke:blue;stroke-width:0.5;"/>
    <g>
     <rect x="190.0" y="34.0" width="3.0" height="2.0" class="text" style="fill:none;stroke:red;stroke-width:0.5;"/>
     <text x="190.0" y="36.0" achars=".,_" style="fill:black;font-family:helvetica;font-size:10.0px;">.</text>
    </g>
    <g>
     <rect x="196.0" y="21.0" width="5.0" height="15.0" class="text" style="fill:none;stroke:red;stroke-width:0.5;"/>
     <text x="196.0" y="36.0" achars="1" style="fill:black;font-family:helvetica;font-size:10.0px;">1</text>
    </g>
    <rect x="202.0" y="21.0" width="5.0" height="15.0" class="space" style="fill:none;stroke:blue;stroke-width:0.5;"/>
    <rect x="216.0" y="21.0" width="5.0" height="15.0" class="space" style="fill:none;stroke:blue;stroke-width:0.5;"/>
    <rect x="239.0" y="21.0" width="4.0" height="15.0" class="space" style="fill:none;stroke:blue;stroke-width:0.5;"/>
    <rect x="267.0" y="21.0" width="4.0" height="15.0" class="space" style="fill:none;stroke:blue;stroke-width:0.5;"/>
    <rect x="300.0" y="21.0" width="3.0" height="15.0" class="space" style="fill:none;stroke:blue;stroke-width:0.5;"/>
    <rect x="335.0" y="21.0" width="2.0" height="15.0" class="space" style="fill:none;stroke:blue;stroke-width:0.5;"/>
    <rect x="369.0" y="21.0" width="1.0" height="15.0" class="space" style="fill:none;stroke:blue;stroke-width:0.5;"/>
    <rect x="401.0" y="21.0" width="0.0" height="15.0" class="space" style="fill:none;stroke:blue;stroke-width:0.5;"/>
    <rect x="429.0" y="21.0" width="-1.0" height="15.0" class="space" style="fill:none;stroke:blue;stroke-width:0.5;"/>
    <rect x="452.0" y="21.0" width="-1.0" height="15.0" class="space" style="fill:none;stroke:blue;stroke-width:0.5;"/>
    <rect x="472.0" y="21.0" width="-2.0" height="15.0" class="space" style="fill:none;stroke:blue;stroke-width:0.5;"/>
    <rect x="487.0" y="21.0" width="-3.0" height="15.0" class="space" style="fill:none;stroke:blue;stroke-width:0.5;"/>
    <rect x="497.0" y="21.0" width="-3.0" height="15.0" class="space" style="fill:none;stroke:blue;stroke-width:0.5;"/>
    <rect x="505.0" y="21.0" width="-4.0" height="15.0" class="space" style="fill:none;stroke:blue;stroke-width:0.5;"/>
    <rect x="510.0" y="21.0" width="-4.0" height="15.0" class="space" style="fill:none;stroke:blue;stroke-width:0.5;"/>
    <rect x="513.0" y="21.0" width="-4.0" height="15.0" class="space" style="fill:none;stroke:blue;stroke-width:0.5;"/>
    <rect x="515.0" y="21.0" width="-4.0" height="15.0" class="space" style="fill:none;stroke:blue;stroke-width:0.5;"/>
    <rect x="516.0" y="21.0" width="-3.0" height="15.0" class="space" style="fill:none;stroke:blue;stroke-width:0.5;"/>
    <rect x="518.0" y="21.0" width="-4.0" height="15.0" class="space" style="fill:none;stroke:blue;stroke-width:0.5;"/>
    <rect x="518.0" y="21.0" width="-3.0" height="15.0" class="space" style="fill:none;stroke:blue;stroke-width:0.5;"/>
    <rect x="519.0" y="21.0" width="-4.0" height="15.0" class="space" style="fill:none;stroke:blue;stroke-width:0.5;"/>
    <rect x="519.0" y="21.0" width="-4.0" height="15.0" class="space" style="fill:none;stroke:blue;stroke-width:0.5;"/>
    <rect x="519.0" y="21.0" width="-4.0" height="15.0" class="space" style="fill:none;stroke:blue;stroke-width:0.5;"/>
    <rect x="519.0" y="21.0" width="-3.0" height="15.0" class="space" style="fill:none;stroke:blue;stroke-width:0.5;"/>
    <rect x="520.0" y="21.0" width="-4.0" height="15.0" class="space" style="fill:none;stroke:blue;stroke-width:0.5;"/>
    <rect x="520.0" y="21.0" width="-4.0" height="15.0" class="space" style="fill:none;stroke:blue;stroke-width:0.5;"/>
    <rect x="520.0" y="21.0" width="-4.0" height="15.0" class="space" style="fill:none;stroke:blue;stroke-width:0.5;"/>
    <rect x="520.0" y="21.0" width="-3.0" height="15.0" class="space" style="fill:none;stroke:blue;stroke-width:0.5;"/>
    <rect x="521.0" y="21.0" width="-4.0" height="15.0" class="space" style="fill:none;stroke:blue;stroke-width:0.5;"/>
    <rect x="521.0" y="21.0" width="-4.0" height="15.0" class="space" style="fill:none;stroke:blue;stroke-width:0.5;"/>
    <rect x="521.0" y="21.0" width="-4.0" height="15.0" class="space" style="fill:none;stroke:blue;stroke-width:0.5;"/>
    <rect x="521.0" y="21.0" width="-4.0" height="15.0" class="space" style="fill:none;stroke:blue;stroke-width:0.5;"/>
    <rect x="521.0" y="21.0" width="-4.0" height="15.0" class="space" style="fill:none;stroke:blue;stroke-width:0.5;"/>
    <rect x="521.0" y="21.0" width="-4.0" height="15.0" class="space" style="fill:none;stroke:blue;stroke-width:0.5;"/>
    <rect x="521.0" y="21.0" width="-3.0" height="15.0" class="space" style="fill:none;stroke:blue;stroke-width:0.5;"/>
    <g>
     <rect x="519.0" y="21.0" width="5.0" height="15.0" class="text" style="fill:none;stroke:red;stroke-width:0.5;"/>
     <text x="519.0" y="36.0" achars="1" style="fill:black;font-family:helvetica;font-size:10.0px;">1</text>
    </g>
    <rect x="525.0" y="21.0" width="5.0" height="15.0" class="space" style="fill:none;stroke:blue;stroke-width:0.5;"/>
    <rect x="540.0" y="21.0" width="5.0" height="15.0" class="space" style="fill:none;stroke:blue;stroke-width:0.5;"/>
    <rect x="563.0" y="21.0" width="4.0" height="15.0" class="space" style="fill:none;stroke:blue;stroke-width:0.5;"/>
    <rect x="591.0" y="21.0" width="4.0" height="15.0" class="space" style="fill:none;stroke:blue;stroke-width:0.5;"/>
    <rect x="623.0" y="21.0" width="3.0" height="15.0" class="space" style="fill:none;stroke:blue;stroke-width:0.5;"/>
    <rect x="655.0" y="21.0" width="2.0" height="15.0" class="space" style="fill:none;stroke:blue;stroke-width:0.5;"/>
    <rect x="686.0" y="21.0" width="1.0" height="15.0" class="space" style="fill:none;stroke:blue;stroke-width:0.5;"/>
    <rect x="713.0" y="21.0" width="0.0" height="15.0" class="space" style="fill:none;stroke:blue;stroke-width:0.5;"/>
    <rect x="736.0" y="21.0" width="-1.0" height="15.0" class="space" style="fill:none;stroke:blue;stroke-width:0.5;"/>
    <rect x="754.0" y="21.0" width="-2.0" height="15.0" class="space" style="fill:none;stroke:blue;stroke-width:0.5;"/>
    <rect x="767.0" y="21.0" width="-3.0" height="15.0" class="space" style="fill:none;stroke:blue;stroke-width:0.5;"/>
    <rect x="776.0" y="21.0" width="-3.0" height="15.0" class="space" style="fill:none;stroke:blue;stroke-width:0.5;"/>
    <rect x="782.0" y="21.0" width="-3.0" height="15.0" class="space" style="fill:none;stroke:blue;stroke-width:0.5;"/>
    <rect x="786.0" y="21.0" width="-3.0" height="15.0" class="space" style="fill:none;stroke:blue;stroke-width:0.5;"/>
    <rect x="789.0" y="21.0" width="-4.0" height="15.0" class="space" style="fill:none;stroke:blue;stroke-width:0.5;"/>
    <rect x="790.0" y="21.0" width="-4.0" height="15.0" class="space" style="fill:none;stroke:blue;stroke-width:0.5;"/>
    <rect x="791.0" y="21.0" width="-4.0" height="15.0" class="space" style="fill:none;stroke:blue;stroke-width:0.5;"/>
    <rect x="792.0" y="21.0" width="-4.0" height="15.0" class="space" style="fill:none;stroke:blue;stroke-width:0.5;"/>
    <rect x="792.0" y="21.0" width="-4.0" height="15.0" class="space" style="fill:none;stroke:blue;stroke-width:0.5;"/>
    <rect x="792.0" y="21.0" width="-3.0" height="15.0" class="space" style="fill:none;stroke:blue;stroke-width:0.5;"/>
    <rect x="793.0" y="21.0" width="-4.0" height="15.0" class="space" style="fill:none;stroke:blue;stroke-width:0.5;"/>
    <rect x="793.0" y="21.0" width="-4.0" height="15.0" class="space" style="fill:none;stroke:blue;stroke-width:0.5;"/>
    <rect x="793.0" y="21.0" width="-4.0" height="15.0" class="space" style="fill:none;stroke:blue;stroke-width:0.5;"/>
    <rect x="793.0" y="21.0" width="-3.0" height="15.0" class="space" style="fill:none;stroke:blue;stroke-width:0.5;"/>
    <rect x="794.0" y="21.0" width="-4.0" height="15.0" class="space" style="fill:none;stroke:blue;stroke-width:0.5;"/>
    <rect x="794.0" y="21.0" width="-4.0" height="15.0" class="space" style="fill:none;stroke:blue;stroke-width:0.5;"/>
    <rect x="794.0" y="21.0" width="-4.0" height="15.0" class="space" style="fill:none;stroke:blue;stroke-width:0.5;"/>
    <rect x="794.0" y="21.0" width="-4.0" height="15.0" class="space" style="fill:none;stroke:blue;stroke-width:0.5;"/>
    <rect x="794.0" y="21.0" width="-3.0" height="15.0" class="space" style="fill:none;stroke:blue;stroke-width:0.5;"/>
    <g>
     <rect x="792.0" y="21.0" width="9.0" height="15.0" class="text" style="fill:none;stroke:red;stroke-width:0.5;"/>
     <text x="792.0" y="36.0" achars="7,1" style="fill:black;font-family:helvetica;font-size:10.0px;">7</text>
    </g>
   </g>
  </g>
 </g>
</svg>
