<?xml version="1.0" encoding="UTF-8"?>
<svg height="118.0" width="1146.0" xmlns="http://www.w3.org/2000/svg">
 <g class="page">
  <g class="block">
   <g class="line">
    <rect x="8.0" y="44.0" width="3.0" height="3.0" class="space" style="fill:none;stroke:blue;stroke-width:0.5;"/>
    <g>
     <rect x="8.0" y="44.0" width="3.0" height="3.0" class="text" style="fill:none;stroke:red;stroke-width:0.5;"/>
     <text x="8.0" y="47.0" achars="'" style="fill:black;font-family:helvetica;font-size:10.0px;">'</text>
    </g>
    <rect x="12.0" y="45.0" width="13.0" height="17.0" class="space" style="fill:none;stroke:blue;stroke-width:0.5;"/>
    <g>
     <rect x="26.0" y="45.0" width="13.0" height="17.0" class="text" style="fill:none;stroke:red;stroke-width:0.5;"/>
     <text x="26.0" y="62.0" achars="5,S" style="fill:black;font-family:helvetica;font-size:10.0px;">5</text>
    </g>
    <g>
     <rect x="40.0" y="46.0" width="6.0" height="16.0" class="text" style="fill:none;stroke:red;stroke-width:0.5;"/>
     <text x="40.0" y="62.0" achars="t" style="fill:black;font-family:helvetica;font-size:10.0px;">t</text>
    </g>
    <g>
     <rect x="48.0" y="49.0" width="10.0" height="13.0" class="text" style="fill:none;stroke:red;stroke-width:0.5;"/>
     <text x="48.0" y="62.0" achars="u" style="fill:black;font-family:helvetica;font-size:10.0px;">u</text>
    </g>
    <g>
     <rect x="59.0" y="45.0" width="11.0" height="17.0" class="text" style="fill:none;stroke:red;stroke-width:0.5;"/>
     <text x="59.0" y="62.0" achars="d" style="fill:black;font-family:helvetica;font-size:10.0px;">d</text>
    </g>
    <g>
     <rect x="72.0" y="49.0" width="10.0" height="17.0" class="text" style="fill:none;stroke:red;stroke-width:0.5;"/>
     <text x="72.0" y="66.0" achars="y" style="fill:black;font-family:helvetica;font-size:10.0px;">y</text>
    </g>
    <rect x="83.0" y="45.0" width="7.0" height="9.0" class="space" style="fill:none;stroke:blue;stroke-width:0.5;"/>
    <rect x="102.0" y="45.0" width="7.0" height="9.0" class="space" style="fill:none;stroke:blue;stroke-width:0.5;"/>
    <rect x="131.0" y="45.0" width="7.0" height="9.0" class="space" style="fill:none;stroke:blue;stroke-width:0.5;"/>
    <rect x="170.0" y="45.0" width="6.0" height="9.0" class="space" style="fill:none;stroke:blue;stroke-width:0.5;"/>
    <rect x="217.0" y="45.0" width="6.0" height="9.0" class="space" style="fill:none;stroke:blue;stroke-width:0.5;"/>
    <rect x="271.0" y="45.0" width="6.0" height="9.0" class="space" style="fill:none;stroke:blue;stroke-width:0.5;"/>
    <rect x="331.0" y="45.0" width="5.0" height="9.0" class="space" style="fill:none;stroke:blue;stroke-width:0.5;"/>
    <rect x="394.0" y="45.0" width="4.0" height="9.0" class="space" style="fill:none;stroke:blue;stroke-width:0.5;"/>
    <rect x="459.0" y="45.0" width="3.0" height="9.0" class="space" style="fill:none;stroke:blue;stroke-width:0.5;"/>
    <rect x="524.0" y="45.0" width="3.0" height="9.0" class="space" style="fill:none;stroke:blue;stroke-width:0.5;"/>
    <rect x="588.0" y="45.0" width="2.0" height="9.0" class="space" style="fill:none;stroke:blue;stroke-width:0.5;"/>
    <rect x="650.0" y="45.0" width="1.0" height="9.0" class="space" style="fill:none;stroke:blue;stroke-width:0.5;"/>
    <rect x="708.0" y="45.0" width="1.0" height="9.0" class="space" style="fill:none;stroke:blue;stroke-width:0.5;"/>
    <rect x="762.0" y="45.0" width="0.0" height="9.0" class="space" style="fill:none;stroke:blue;stroke-width:0.5;"/>
    <rect x="811.0" y="45.0" width="-1.0" height="9.0" class="space" style="fill:none;stroke:blue;stroke-width:0.5;"/>
    <rect x="854.0" y="45.0" width="-1.0" height="9.0" class="space" style="fill:none;stroke:blue;stroke-width:0.5;"/>
    <rect x="892.0" y="45.0" width="-1.0" height="9.0" class="space" style="fill:none;stroke:blue;stroke-width:0.5;"/>
    <rect x="926.0" y="45.0" width="-2.0" height="9.0" class="space" style="fill:none;stroke:blue;stroke-width:0.5;"/>
    <rect x="954.0" y="45.0" width="-3.0" height="9.0" class="space" style="fill:none;stroke:blue;stroke-width:0.5;"/>
    <rect x="977.0" y="45.0" width="-3.0" height="9.0" class="space" style="fill:none;stroke:blue;stroke-width:0.5;"/>
    <rect x="996.0" y="45.0" width="-3.0" height="9.0" class="space" style="fill:none;stroke:blue;stroke-width:0.5;"/>
    <rect x="1011.0" y="45.0" width="-3.0" height="9.0" class="space" style="fill:none;stroke:blue;stroke-width:0.5;"/>
    <rect x="1024.0" y="45.0" width="-4.0" height="9.0" class="space" style="fill:none;stroke:blue;stroke-width:0.5;"/>
    <rect x="1033.0" y="45.0" width="-3.0" height="9.0" class="space" style="fill:none;stroke:blue;stroke-width:0.5;"/>
    <rect x="1041.0" y="45.0" width="-4.0" height="9.0" class="space" style="fill:none;stroke:blue;stroke-width:0.5;"/>
    <rect x="1046.0" y="45.0" width="-3.0" height="9.0" class="space" style="fill:none;stroke:blue;stroke-width:0.5;"/>
    <rect x="1051.0" y="45.0" width="-4.0" height="9.0" class="space" style="fill:none;stroke:blue;stroke-width:0.5;"/>
    <rect x="1054.0" y="45.0" width="-4.0" height="9.0" class="space" style="fill:none;stroke:blue;stroke-width:0.5;"/>
    <rect x="1056.0" y="45.0" width="-3.0" height="9.0" class="space" style="fill:none;stroke:blue;stroke-width:0.5;"/>
    <rect x="1059.0" y="45.0" width="-4.0" height="9.0" class="space" style="fill:none;stroke:blue;stroke-width:0.5;"/>
    <rect x="1060.0" y="45.0" width="-4.0" height="9.0" class="space" style="fill:none;stroke:blue;stroke-width:0.5;"/>
    <rect x="1061.0" y="45.0" width="-4.0" height="9.0" class="space" style="fill:none;stroke:blue;stroke-width:0.5;"/>
    <rect x="1062.0" y="45.0" width="-4.0" height="9.0" class="space" style="fill:none;stroke:blue;stroke-width:0.5;"/>
    <rect x="1063.0" y="45.0" width="-4.0" height="9.0" class="space" style="fill:none;stroke:blue;stroke-width:0.5;"/>
    <rect x="1063.0" y="45.0" width="-4.0" height="9.0" class="space" style="fill:none;stroke:blue;stroke-width:0.5;"/>
    <rect x="1063.0" y="45.0" width="-3.0" height="9.0" class="space" style="fill:none;stroke:blue;stroke-width:0.5;"/>
    <rect x="1064.0" y="45.0" width="-4.0" height="9.0" class="space" style="fill:none;stroke:blue;stroke-width:0.5;"/>
    <rect x="1064.0" y="45.0" width="-4.0" height="9.0" class="space" style="fill:none;stroke:blue;stroke-width:0.5;"/>
    <rect x="1064.0" y="45.0" width="-4.0" height="9.0" class="space" style="fill:none;stroke:blue;stroke-width:0.5;"/>
    <rect x="1064.0" y="45.0" width="-3.0" height="9.0" class="space" style="fill:none;stroke:blue;stroke-width:0.5;"/>
    <rect x="1065.0" y="45.0" width="-4.0" height="9.0" class="space" style="fill:none;stroke:blue;stroke-width:0.5;"/>
    <rect x="1065.0" y="45.0" width="-4.0" height="9.0" class="space" style="fill:none;stroke:blue;stroke-width:0.5;"/>
    <rect x="1065.0" y="45.0" width="-4.0" height="9.0" class="space" style="fill:none;stroke:blue;stroke-width:0.5;"/>
    <rect x="1065.0" y="45.0" width="-4.0" height="9.0" class="space" style="fill:none;stroke:blue;stroke-width:0.5;"/>
    <rect x="1065.0" y="45.0" width="-3.0" height="9.0" class="space" style="fill:none;stroke:blue;stroke-width:0.5;"/>
    <rect x="1066.0" y="45.0" width="-4.0" height="9.0" class="space" style="fill:none;stroke:blue;stroke-width:0.5;"/>
    <rect x="1066.0" y="45.0" width="-4.0" height="9.0" class="space" style="fill:none;stroke:blue;stroke-width:0.5;"/>
    <rect x="1066.0" y="45.0" width="-4.0" height="9.0" class="space" style="fill:none;stroke:blue;stroke-width:0.5;"/>
    <rect x="1066.0" y="45.0" width="-4.0" height="9.0" class="space" style="fill:none;stroke:blue;stroke-width:0.5;"/>
    <rect x="1066.0" y="45.0" width="-4.0" height="9.0" class="space" style="fill:none;stroke:blue;stroke-width:0.5;"/>
    <rect x="1066.0" y="45.0" width="-3.0" height="9.0" class="space" style="fill:none;stroke:blue;stroke-width:0.5;"/>
    <rect x="1067.0" y="45.0" width="-4.0" height="9.0" class="space" style="fill:none;stroke:blue;stroke-width:0.5;"/>
    <rect x="1067.0" y="45.0" width="-4.0" height="9.0" class="space" style="fill:none;stroke:blue;stroke-width:0.5;"/>
    <rect x="1067.0" y="45.0" width="-4.0" height="9.0" class="space" style="fill:none;stroke:blue;stroke-width:0.5;"/>
    <rect x="1067.0" y="45.0" width="-4.0" height="9.0" class="space" style="fill:none;stroke:blue;stroke-width:0.5;"/>
    <rect x="1067.0" y="45.0" width="-4.0" height="9.0" class="space" style="fill:none;stroke:blue;stroke-width:0.5;"/>
    <rect x="1067.0" y="45.0" width="-4.0" height="9.0" class="space" style="fill:none;stroke:blue;stroke-width:0.5;"/>
    <rect x="1067.0" y="45.0" width="-4.0" height="9.0" class="space" style="fill:none;stroke:blue;stroke-width:0.5;"/>
    <rect x="1067.0" y="45.0" width="-4.0" height="9.0" class="space" style="fill:none;stroke:blue;stroke-width:0.5;"/>
    <rect x="1067.0" y="45.0" width="-3.0" height="9.0" class="space" style="fill:none;stroke:blue;stroke-width:0.5;"/>
    <rect x="1068.0" y="45.0" width="-4.0" height="9.0" class="space" style="fill:none;stroke:blue;stroke-width:0.5;"/>
    <rect x="1068.0" y="45.0" width="-4.0" height="9.0" class="space" style="fill:none;stroke:blue;stroke-width:0.5;"/>
    <rect x="1068.0" y="45.0" width="-4.0" height="9.0" class="space" style="fill:none;stroke:blue;stroke-width:0.5;"/>
    <rect x="1068.0" y="45.0" width="-4.0" height="9.0" class="space" style="fill:none;stroke:blue;stroke-width:0.5;"/>
    <rect x="1068.0" y="45.0" width="-4.0" height="9.0" class="space" style="fill:none;stroke:blue;stroke-width:0.5;"/>
    <rect x="1068.0" y="45.0" width="-4.0" height="9.0" class="space" style="fill:none;stroke:blue;stroke-width:0.5;"/>
    <rect x="1068.0" y="45.0" width="-4.0" height="9.0" class="space" style="fill:none;stroke:blue;stroke-width:0.5;"/>
    <rect x="1068.0" y="45.0" width="-4.0" height="9.0" class="space" style="fill:none;stroke:blue;stroke-width:0.5;"/>
    <rect x="1068.0" y="45.0" width="-4.0" height="9.0" class="space" style="fill:none;stroke:blue;stroke-width:0.5;"/>
    <rect x="1068.0" y="45.0" width="-4.0" height="9.0" class="space" style="fill:none;stroke:blue;stroke-width:0.5;"/>
    <rect x="1068.0" y="45.0" width="-4.0" height="9.0" class="space" style="fill:none;stroke:blue;stroke-width:0.5;"/>
    <rect x="1068.0" y="45.0" width="-3.0" height="9.0" class="space" style="fill:none;stroke:blue;stroke-width:0.5;"/>
    <rect x="1069.0" y="45.0" width="-4.0" height="9.0" class="space" style="fill:none;stroke:blue;stroke-width:0.5;"/>
    <rect x="1069.0" y="45.0" width="-4.0" height="9.0" class="space" style="fill:none;stroke:blue;stroke-width:0.5;"/>
    <rect x="1069.0" y="45.0" width="-4.0" height="9.0" class="space" style="fill:none;stroke:blue;stroke-width:0.5;"/>
    <rect x="1069.0" y="45.0" width="-4.0" height="9.0" class="space" style="fill:none;stroke:blue;stroke-width:0.5;"/>
    <rect x="1069.0" y="45.0" width="-4.0" height="9.0" class="space" style="fill:none;stroke:blue;stroke-width:0.5;"/>
    <rect x="1069.0" y="45.0" width="-4.0" height="9.0" class="space" style="fill:none;stroke:blue;stroke-width:0.5;"/>
    <rect x="1069.0" y="45.0" width="-4.0" height="9.0" class="space" style="fill:none;stroke:blue;stroke-width:0.5;"/>
    <rect x="1069.0" y="45.0" width="-4.0" height="9.0" class="space" style="fill:none;stroke:blue;stroke-width:0.5;"/>
    <rect x="1069.0" y="45.0" width="-4.0" height="9.0" class="space" style="fill:none;stroke:blue;stroke-width:0.5;"/>
    <rect x="1069.0" y="45.0" width="-4.0" height="9.0" class="space" style="fill:none;stroke:blue;stroke-width:0.5;"/>
    <rect x="1069.0" y="45.0" width="-4.0" height="9.0" class="space" style="fill:none;stroke:blue;stroke-width:0.5;"/>
    <rect x="1069.0" y="45.0" width="-4.0" height="9.0" class="space" style="fill:none;stroke:blue;stroke-width:0.5;"/>
    <rect x="1069.0" y="45.0" width="-4.0" height="9.0" class="space" style="fill:none;stroke:blue;stroke-width:0.5;"/>
    <rect x="1069.0" y="45.0" width="-4.0" height="9.0" class="space" style="fill:none;stroke:blue;stroke-width:0.5;"/>
    <rect x="1069.0" y="45.0" width="-4.0" height="9.0" class="space" style="fill:none;stroke:blue;stroke-width:0.5;"/>
    <rect x="1069.0" y="45.0" width="-4.0" height="9.0" class="space" style="fill:none;stroke:blue;stroke-width:0.5;"/>
    <rect x="1069.0" y="45.0" width="-3.0" height="9.0" class="space" style="fill:none;stroke:blue;stroke-width:0.5;"/>
    <g>
     <rect x="1067.0" y="45.0" width="8.0" height="9.0" class="text" style="fill:none;stroke:red;stroke-width:0.5;"/>
     <text x="1067.0" y="54.0" achars="O,0,&quot;,a" style="fill:black;font-family:helvetica;font-size:10.0px;">O</text>
    </g>
    <g>
     <rect x="1071.0" y="44.0" width="10.0" height="18.0" class="text" style="fill:none;stroke:red;stroke-width:0.5;"/>
     <text x="1071.0" y="62.0" achars="/,J" style="fill:black;font-family:helvetica;font-size:10.0px;">/</text>
    </g>
    <g>
     <rect x="1078.0" y="53.0" width="7.0" height="9.0" class="text" style="fill:none;stroke:red;stroke-width:0.5;"/>
     <text x="1078.0" y="62.0" achars="o,0" style="fill:black;font-family:helvetica;font-size:10.0px;">o</text>
    </g>
   </g>
   <g class="line">
    <rect x="30.0" y="86.0" width="-1.0" height="17.0" class="space" style="fill:none;stroke:blue;stroke-width:0.5;"/>
    <rect x="27.0" y="86.0" width="3.0" height="17.0" class="space" style="fill:none;stroke:blue;stroke-width:0.5;"/>
    <g>
     <rect x="27.0" y="86.0" width="3.0" height="17.0" class="text" style="fill:none;stroke:red;stroke-width:0.5;"/>
     <text x="27.0" y="103.0" achars="l,I,|,1" style="fill:black;font-family:helvetica;font-size:10.0px;">l</text>
    </g>
    <g>
     <rect x="33.0" y="87.0" width="14.0" height="16.0" class="text" style="fill:none;stroke:red;stroke-width:0.5;"/>
     <text x="33.0" y="103.0" achars="D" style="fill:black;font-family:helvetica;font-size:10.0px;">D</text>
    </g>
    <rect x="48.0" y="86.0" width="9.0" height="17.0" class="space" style="fill:none;stroke:blue;stroke-width:0.5;"/>
    <rect x="71.0" y="86.0" width="10.0" height="17.0" class="space" style="fill:none;stroke:blue;stroke-width:0.5;"/>
    <rect x="108.0" y="86.0" width="9.0" height="17.0" class="space" style="fill:none;stroke:blue;stroke-width:0.5;"/>
    <rect x="155.0" y="86.0" width="8.0" height="17.0" class="space" style="fill:none;stroke:blue;stroke-width:0.5;"/>
    <rect x="210.0" y="86.0" width="8.0" height="17.0" class="space" style="fill:none;stroke:blue;stroke-width:0.5;"/>
    <rect x="272.0" y="86.0" width="7.0" height="17.0" class="space" style="fill:none;stroke:blue;stroke-width:0.5;"/>
    <rect x="338.0" y="86.0" width="6.0" height="17.0" class="space" style="fill:none;stroke:blue;stroke-width:0.5;"/>
    <rect x="405.0" y="86.0" width="5.0" height="17.0" class="space" style="fill:none;stroke:blue;stroke-width:0.5;"/>
    <rect x="471.0" y="86.0" width="3.0" height="17.0" class="space" style="fill:none;stroke:blue;stroke-width:0.5;"/>
    <rect x="532.0" y="86.0" width="3.0" height="17.0" class="space" style="fill:none;stroke:blue;stroke-width:0.5;"/>
    <rect x="590.0" y="86.0" width="1.0" height="17.0" class="space" style="fill:none;stroke:blue;stroke-width:0.5;"/>
    <rect x="641.0" y="86.0" width="0.0" height="17.0" class="space" style="fill:none;stroke:blue;stroke-width:0.5;"/>
    <rect x="685.0" y="86.0" width="-1.0" height="17.0" class="space" style="fill:none;stroke:blue;stroke-width:0.5;"/>
    <rect x="722.0" y="86.0" width="-1.0" height="17.0" class="space" style="fill:none;stroke:blue;stroke-width:0.5;"/>
    <rect x="753.0" y="86.0" width="-2.0" height="17.0" class="space" style="fill:none;stroke:blue;stroke-width:0.5;"/>
    <rect x="778.0" y="86.0" width="-3.0" height="17.0" class="space" style="fill:none;stroke:blue;stroke-width:0.5;"/>
    <rect x="797.0" y="86.0" width="-3.0" height="17.0" class="space" style="fill:none;stroke:blue;stroke-width:0.5;"/>
    <rect x="812.0" y="86.0" width="-3.0" height="17.0" class="space" style="fill:none;stroke:blue;stroke-width:0.5;"/>
    <rect x="823.0" y="86.0" width="-3.0" height="17.0" class="space" style="fill:none;stroke:blue;stroke-width:0.5;"/>
    <rect x="831.0" y="86.0" width="-3.0" height="17.0" class="space" style="fill:none;stroke:blue;stroke-width:0.5;"/>
    <rect x="837.0" y="86.0" width="-3.0" height="17.0" class="space" style="fill:none;stroke:blue;stroke-width:0.5;"/>
    <rect x="842.0" y="86.0" width="-4.0" height="17.0" class="space" style="fill:none;stroke:blue;stroke-width:0.5;"/>
    <rect x="844.0" y="86.0" width="-3.0" height="17.0" class="space" style="fill:none;stroke:blue;stroke-width:0.5;"/>
    <rect x="847.0" y="86.0" width="-4.0" height="17.0" class="space" style="fill:none;stroke:blue;stroke-width:0.5;"/>
    <rect x="848.0" y="86.0" width="-4.0" height="17.0" class="space" style="fill:none;stroke:blue;stroke-width:0.5;"/>
    <rect x="849.0" y="86.0" width="-4.0" height="17.0" class="space" style="fill:none;stroke:blue;stroke-width:0.5;"/>
    <rect x="849.0" y="86.0" width="-3.0" height="17.0" class="space" style="fill:none;stroke:blue;stroke-width:0.5;"/>
    <rect x="850.0" y="86.0" width="-4.0" height="17.0" class="space" style="fill:none;stroke:blue;stroke-width:0.5;"/>
    <rect x="850.0" y="86.0" width="-4.0" height="17.0" class="space" style="fill:none;stroke:blue;stroke-width:0.5;"/>
    <rect x="850.0" y="86.0" width="-3.0" height="17.0" class="space" style="fill:none;stroke:blue;stroke-width:0.5;"/>
    <rect x="851.0" y="86.0" width="-4.0" height="17.0" class="space" style="fill:none;stroke:blue;stroke-width:0.5;"/>
    <rect x="851.0" y="86.0" width="-4.0" height="17.0" class="space" style="fill:none;stroke:blue;stroke-width:0.5;"/>
    <rect x="851.0" y="86.0" width="-4.0" height="17.0" class="space" style="fill:none;stroke:blue;stroke-width:0.5;"/>
    <rect x="851.0" y="86.0" width="-3.0" height="17.0" class="space" style="fill:none;stroke:blue;stroke-width:0.5;"/>
    <rect x="852.0" y="86.0" width="-4.0" height="17.0" class="space" style="fill:none;stroke:blue;stroke-width:0.5;"/>
    <rect x="852.0" y="86.0" width="-4.0" height="17.0" class="space" style="fill:none;stroke:blue;stroke-width:0.5;"/>
    <rect x="852.0" y="86.0" width="-4.0" height="17.0" class="space" style="fill:none;stroke:blue;stroke-width:0.5;"/>
    <rect x="852.0" y="86.0" width="-4.0" height="17.0" class="space" style="fill:none;stroke:blue;stroke-width:0.5;"/>
    <rect x="852.0" y="86.0" width="-4.0" height="17.0" class="space" style="fill:none;stroke:blue;stroke-width:0.5;"/>
    <rect x="852.0" y="86.0" width="-3.0" height="17.0" class="space" style="fill:none;stroke:blue;stroke-width:0.5;"/>
    <rect x="853.0" y="86.0" width="-4.0" height="17.0" class="space" style="fill:none;stroke:blue;stroke-width:0.5;"/>
    <rect x="853.0" y="86.0" width="-4.0" height="17.0" class="space" style="fill:none;stroke:blue;stroke-width:0.5;"/>
    <rect x="853.0" y="86.0" width="-4.0" height="17.0" class="space" style="fill:none;stroke:blue;stroke-width:0.5;"/>
    <rect x="853.0" y="86.0" width="-4.0" height="17.0" class="space" style="fill:none;stroke:blue;stroke-width:0.5;"/>
    <rect x="853.0" y="86.0" width="-4.0" height="17.0" class="space" style="fill:none;stroke:blue;stroke-width:0.5;"/>
    <rect x="853.0" y="86.0" width="-4.0" height="17.0" class="space" style="fill:none;stroke:blue;stroke-width:0.5;"/>
    <rect x="853.0" y="86.0" width="-4.0" height="17.0" class="space" style="fill:none;stroke:blue;stroke-width:0.5;"/>
    <rect x="853.0" y="86.0" width="-3.0" height="17.0" class="space" style="fill:none;stroke:blue;stroke-width:0.5;"/>
    <rect x="854.0" y="86.0" width="-4.0" height="17.0" class="space" style="fill:none;stroke:blue;stroke-width:0.5;"/>
    <rect x="854.0" y="86.0" width="-4.0" height="17.0" class="space" style="fill:none;stroke:blue;stroke-width:0.5;"/>
    <rect x="854.0" y="86.0" width="-4.0" height="17.0" class="space" style="fill:none;stroke:blue;stroke-width:0.5;"/>
    <rect x="854.0" y="86.0" width="-4.0" height="17.0" class="space" style="fill:none;stroke:blue;stroke-width:0.5;"/>
    <rect x="854.0" y="86.0" width="-4.0" height="17.0" class="space" style="fill:none;stroke:blue;stroke-width:0.5;"/>
    <rect x="854.0" y="86.0" width="-4.0" height="17.0" class="space" style="fill:none;stroke:blue;stroke-width:0.5;"/>
    <rect x="854.0" y="86.0" width="-4.0" height="17.0" class="space" style="fill:none;stroke:blue;stroke-width:0.5;"/>
    <rect x="854.0" y="86.0" width="-4.0" height="17.0" class="space" style="fill:none;stroke:blue;stroke-width:0.5;"/>
    <rect x="854.0" y="86.0" width="-4.0" height="17.0" class="space" style="fill:none;stroke:blue;stroke-width:0.5;"/>
    <rect x="854.0" y="86.0" width="-4.0" height="17.0" class="space" style="fill:none;stroke:blue;stroke-width:0.5;"/>
    <rect x="854.0" y="86.0" width="-3.0" height="17.0" class="space" style="fill:none;stroke:blue;stroke-width:0.5;"/>
    <g>
     <rect x="852.0" y="86.0" width="13.0" height="17.0" class="text" style="fill:none;stroke:red;stroke-width:0.5;"/>
     <text x="852.0" y="103.0" achars="H" style="fill:black;font-family:helvetica;font-size:10.0px;">H</text>
    </g>
    <g>
     <rect x="868.0" y="87.0" width="14.0" height="16.0" class="text" style="fill:none;stroke:red;stroke-width:0.5;"/>
     <text x="868.0" y="103.0" achars="R" style="fill:black;font-family:helvetica;font-size:10.0px;">R</text>
    </g>
    <rect x="883.0" y="86.0" width="6.0" height="22.0" class="space" style="fill:none;stroke:blue;stroke-width:0.5;"/>
    <g>
     <rect x="890.0" y="86.0" width="5.0" height="22.0" class="text" style="fill:none;stroke:red;stroke-width:0.5;"/>
     <text x="890.0" y="108.0" achars="(,C" style="fill:black;font-family:helvetica;font-size:10.0px;">(</text>
    </g>
    <g>
     <rect x="897.0" y="87.0" width="11.0" height="16.0" class="text" style="fill:none;stroke:red;stroke-width:0.5;"/>
     <text x="897.0" y="103.0" achars="9,g" style="fill:black;font-family:helvetica;font-size:10.0px;">9</text>
    </g>
    <g>
     <rect x="909.0" y="87.0" width="11.0" height="16.0" class="text" style="fill:none;stroke:red;stroke-width:0.5;"/>
     <text x="909.0" y="103.0" achars="5" style="fill:black;font-family:helvetica;font-size:10.0px;">5</text>
    </g>
    <g>
     <rect x="922.0" y="86.0" width="7.0" height="9.0" class="text" style="fill:none;stroke:red;stroke-width:0.5;"/>
     <text x="922.0" y="95.0" achars="0,O,&quot;" style="fill:black;font-family:helvetica;font-size:10.0px;">0</text>
    </g>
    <g>
     <rect x="926.0" y="86.0" width="10.0" height="18.0" class="text" style="fill:none;stroke:red;stroke-width:0.5;"/>
     <text x="926.0" y="104.0" achars="/" style="fill:black;font-family:helvetica;font-size:10.0px;">/</text>
    </g>
    <g>
     <rect x="932.0" y="95.0" width="8.0" height="9.0" class="text" style="fill:none;stroke:red;stroke-width:0.5;"/>
     <text x="932.0" y="104.0" achars="o,0" style="fill:black;font-family:helvetica;font-size:10.0px;">o</text>
    </g>
    <rect x="941.0" y="86.0" width="5.0" height="17.0" class="space" style="fill:none;stroke:blue;stroke-width:0.5;"/>
    <g>
     <rect x="947.0" y="86.0" width="15.0" height="17.0" class="text" style="fill:none;stroke:red;stroke-width:0.5;"/>
     <text x="947.0" y="103.0" achars="C" style="fill:black;font-family:helvetica;font-size:10.0px;">C</text>
    </g>
    <g>
     <rect x="964.0" y="87.0" width="3.0" height="16.0" class="text" style="fill:none;stroke:red;stroke-width:0.5;"/>
     <text x="964.0" y="103.0" achars="l,I,1" style="fill:black;font-family:helvetica;font-size:10.0px;">l</text>
    </g>
    <g>
     <rect x="970.0" y="86.0" width="6.0" height="22.0" class="text" style="fill:none;stroke:red;stroke-width:0.5;"/>
     <text x="970.0" y="108.0" achars="),&gt;" style="fill:black;font-family:helvetica;font-size:10.0px;">)</text>
    </g>
    <rect x="977.0" y="87.0" width="11.0" height="16.0" class="space" style="fill:none;stroke:blue;stroke-width:0.5;"/>
    <rect x="1002.0" y="87.0" width="9.0" height="16.0" class="space" style="fill:none;stroke:blue;stroke-width:0.5;"/>
    <rect x="1031.0" y="87.0" width="5.0" height="16.0" class="space" style="fill:none;stroke:blue;stroke-width:0.5;"/>
    <rect x="1053.0" y="87.0" width="1.0" height="16.0" class="space" style="fill:none;stroke:blue;stroke-width:0.5;"/>
    <rect x="1064.0" y="87.0" width="-2.0" height="16.0" class="space" style="fill:none;stroke:blue;stroke-width:0.5;"/>
    <rect x="1068.0" y="87.0" width="-3.0" height="16.0" class="space" style="fill:none;stroke:blue;stroke-width:0.5;"/>
    <g>
     <rect x="1066.0" y="87.0" width="21.0" height="16.0" class="text" style="fill:none;stroke:red;stroke-width:0.5;"/>
     <text x="1066.0" y="103.0" achars="W" style="fill:black;font-family:helvetica;font-size:10.0px;">W</text>
    </g>
    <g>
     <rect x="1088.0" y="91.0" width="12.0" height="12.0" class="text" style="fill:none;stroke:red;stroke-width:0.5;"/>
     <text x="1088.0" y="103.0" achars="e,g" style="fill:black;font-family:helvetica;font-size:10.0px;">e</text>
    </g>
    <g>
     <rect x="1102.0" y="87.0" width="2.0" height="16.0" class="text" style="fill:none;stroke:red;stroke-width:0.5;"/>
     <text x="1102.0" y="103.0" achars="i,j" style="fill:black;font-family:helvetica;font-size:10.0px;">i</text>
    </g>
    <g>
     <rect x="1106.0" y="91.0" width="11.0" height="17.0" class="text" style="fill:none;stroke:red;stroke-width:0.5;"/>
     <text x="1106.0" y="108.0" achars="g" style="fill:black;font-family:helvetica;font-size:10.0px;">g</text>
    </g>
    <g>
     <rect x="1119.0" y="86.0" width="10.0" height="17.0" class="text" style="fill:none;stroke:red;stroke-width:0.5;"/>
     <text x="1119.0" y="103.0" achars="h" style="fill:black;font-family:helvetica;font-size:10.0px;">h</text>
    </g>
    <g>
     <rect x="1131.0" y="88.0" width="5.0" height="15.0" class="text" style="fill:none;stroke:red;stroke-width:0.5;"/>
     <text x="1131.0" y="103.0" achars="t,f" style="fill:black;font-family:helvetica;font-size:10.0px;">t</text>
    </g>
   </g>
  </g>
 </g>
</svg>
