<?xml version="1.0" encoding="UTF-8"?>
<svg height="889.0" width="1427.0" xmlns="http://www.w3.org/2000/svg">
 <g>
  <g class="horizontallines">
   <line x1="8.0" y1="2.0" x2="1415.0" y2="2.0" style="stroke:red;stroke-width:1.0;"/>
   <line x1="47.0" y1="26.0" x2="1383.0" y2="26.0" style="stroke:red;stroke-width:1.0;"/>
   <line x1="43.0" y1="287.0" x2="1386.0" y2="287.0" style="stroke:red;stroke-width:2.0;"/>
   <line x1="44.0" y1="825.0" x2="1384.0" y2="825.0" style="stroke:red;stroke-width:2.0;"/>
   <line x1="48.0" y1="829.0" x2="303.0" y2="829.0" style="stroke:red;stroke-width:1.0;"/>
   <line x1="320.0" y1="829.0" x2="639.0" y2="829.0" style="stroke:red;stroke-width:1.0;"/>
   <line x1="655.0" y1="829.0" x2="687.0" y2="829.0" style="stroke:red;stroke-width:1.0;"/>
   <line x1="705.0" y1="829.0" x2="976.0" y2="829.0" style="stroke:red;stroke-width:1.0;"/>
   <line x1="984.0" y1="829.0" x2="1382.0" y2="829.0" style="stroke:red;stroke-width:1.0;"/>
  </g>
  <g class="verticallines">
   <line x1="2.0" y1="8.0" x2="2.0" y2="878.0" style="stroke:blue;stroke-width:1.0;"/>
   <line x1="41.0" y1="32.0" x2="41.0" y2="278.0" style="stroke:blue;stroke-width:1.0;"/>
   <line x1="41.0" y1="295.0" x2="41.0" y2="823.0" style="stroke:blue;stroke-width:1.0;"/>
   <line x1="645.0" y1="287.0" x2="645.0" y2="839.0" style="stroke:blue;stroke-width:2.0;"/>
   <line x1="1387.0" y1="32.0" x2="1387.0" y2="281.0" style="stroke:blue;stroke-width:1.0;"/>
   <line x1="1387.0" y1="290.0" x2="1387.0" y2="823.0" style="stroke:blue;stroke-width:1.0;"/>
   <line x1="1390.0" y1="32.0" x2="1390.0" y2="283.0" style="stroke:blue;stroke-width:1.0;"/>
   <line x1="1390.0" y1="296.0" x2="1390.0" y2="823.0" style="stroke:blue;stroke-width:1.0;"/>
   <line x1="1417.0" y1="1.0" x2="1417.0" y2="879.0" style="stroke:blue;stroke-width:1.0;"/>
  </g>
 </g>
</svg>
