<?xml version="1.0" encoding="UTF-8"?>
<svg height="480.0" width="551.0" xmlns="http://www.w3.org/2000/svg">
 <g class="page">
  <g class="block">
   <g class="line">
    <rect x="19.0" y="466.0" width="519.0" height="4.0" class="space" style="fill:none;stroke:blue;stroke-width:0.5;"/>
    <g>
     <rect x="19.0" y="466.0" width="519.0" height="4.0" class="text" style="fill:none;stroke:red;stroke-width:0.5;"/>
     <text x="19.0" y="470.0" achars="" style="fill:black;font-family:helvetica;font-size:10.0px;">?</text>
    </g>
   </g>
   <g class="line">
    <rect x="34.0" y="67.0" width="8.0" height="13.0" class="space" style="fill:none;stroke:blue;stroke-width:0.5;"/>
    <g>
     <rect x="34.0" y="67.0" width="8.0" height="13.0" class="text" style="fill:none;stroke:red;stroke-width:0.5;"/>
     <text x="34.0" y="80.0" achars="B" style="fill:black;font-family:helvetica;font-size:10.0px;">B</text>
    </g>
    <g>
     <rect x="43.0" y="70.0" width="8.0" height="10.0" class="text" style="fill:none;stroke:red;stroke-width:0.5;"/>
     <text x="43.0" y="80.0" achars="e,g,i" style="fill:black;font-family:helvetica;font-size:10.0px;">e</text>
    </g>
    <g>
     <rect x="52.0" y="70.0" width="5.0" height="9.0" class="text" style="fill:none;stroke:red;stroke-width:0.5;"/>
     <text x="52.0" y="79.0" achars="r" style="fill:black;font-family:helvetica;font-size:10.0px;">r</text>
    </g>
    <g>
     <rect x="57.0" y="70.0" width="9.0" height="13.0" class="text" style="fill:none;stroke:red;stroke-width:0.5;"/>
     <text x="57.0" y="83.0" achars="g,9,0" style="fill:black;font-family:helvetica;font-size:10.0px;">g</text>
    </g>
    <g>
     <rect x="67.0" y="70.0" width="8.0" height="10.0" class="text" style="fill:none;stroke:red;stroke-width:0.5;"/>
     <text x="67.0" y="80.0" achars="e,g" style="fill:black;font-family:helvetica;font-size:10.0px;">e</text>
    </g>
    <g>
     <rect x="76.0" y="70.0" width="6.0" height="10.0" class="text" style="fill:none;stroke:red;stroke-width:0.5;"/>
     <text x="76.0" y="80.0" achars="s,t" style="fill:black;font-family:helvetica;font-size:10.0px;">s</text>
    </g>
    <g>
     <rect x="83.0" y="70.0" width="9.0" height="10.0" class="text" style="fill:none;stroke:red;stroke-width:0.5;"/>
     <text x="83.0" y="80.0" achars="o,O,0" style="fill:black;font-family:helvetica;font-size:10.0px;">o</text>
    </g>
    <g>
     <rect x="93.0" y="70.0" width="8.0" height="10.0" class="text" style="fill:none;stroke:red;stroke-width:0.5;"/>
     <text x="93.0" y="80.0" achars="n" style="fill:black;font-family:helvetica;font-size:10.0px;">n</text>
    </g>
    <rect x="102.0" y="67.0" width="4.0" height="12.0" class="space" style="fill:none;stroke:blue;stroke-width:0.5;"/>
    <g>
     <rect x="107.0" y="67.0" width="8.0" height="12.0" class="text" style="fill:none;stroke:red;stroke-width:0.5;"/>
     <text x="107.0" y="79.0" achars="2,e,Z" style="fill:black;font-family:helvetica;font-size:10.0px;">2</text>
    </g>
    <g>
     <rect x="116.0" y="67.0" width="8.0" height="13.0" class="text" style="fill:none;stroke:red;stroke-width:0.5;"/>
     <text x="116.0" y="80.0" achars="O,0" style="fill:black;font-family:helvetica;font-size:10.0px;">O</text>
    </g>
    <g>
     <rect x="126.0" y="68.0" width="4.0" height="11.0" class="text" style="fill:none;stroke:red;stroke-width:0.5;"/>
     <text x="126.0" y="79.0" achars="1,J" style="fill:black;font-family:helvetica;font-size:10.0px;">1</text>
    </g>
    <rect x="131.0" y="67.0" width="2.0" height="13.0" class="space" style="fill:none;stroke:blue;stroke-width:0.5;"/>
    <g>
     <rect x="134.0" y="67.0" width="8.0" height="13.0" class="text" style="fill:none;stroke:red;stroke-width:0.5;"/>
     <text x="134.0" y="80.0" achars="2,e" style="fill:black;font-family:helvetica;font-size:10.0px;">2</text>
    </g>
   </g>
   <g class="line">
    <rect x="33.0" y="165.0" width="14.0" height="13.0" class="space" style="fill:none;stroke:blue;stroke-width:0.5;"/>
    <g>
     <rect x="33.0" y="165.0" width="14.0" height="13.0" class="text" style="fill:none;stroke:red;stroke-width:0.5;"/>
     <text x="33.0" y="178.0" achars="W" style="fill:black;font-family:helvetica;font-size:10.0px;">W</text>
    </g>
    <g>
     <rect x="48.0" y="169.0" width="8.0" height="9.0" class="text" style="fill:none;stroke:red;stroke-width:0.5;"/>
     <text x="48.0" y="178.0" achars="e,g" style="fill:black;font-family:helvetica;font-size:10.0px;">e</text>
    </g>
    <g>
     <rect x="57.0" y="165.0" width="9.0" height="13.0" class="text" style="fill:none;stroke:red;stroke-width:0.5;"/>
     <text x="57.0" y="178.0" achars="b" style="fill:black;font-family:helvetica;font-size:10.0px;">b</text>
    </g>
    <g>
     <rect x="67.0" y="169.0" width="8.0" height="9.0" class="text" style="fill:none;stroke:red;stroke-width:0.5;"/>
     <text x="67.0" y="178.0" achars="e,g" style="fill:black;font-family:helvetica;font-size:10.0px;">e</text>
    </g>
    <g>
     <rect x="77.0" y="169.0" width="4.0" height="9.0" class="text" style="fill:none;stroke:red;stroke-width:0.5;"/>
     <text x="77.0" y="178.0" achars="r" style="fill:black;font-family:helvetica;font-size:10.0px;">r</text>
    </g>
    <rect x="82.0" y="166.0" width="3.0" height="12.0" class="space" style="fill:none;stroke:blue;stroke-width:0.5;"/>
    <g>
     <rect x="86.0" y="166.0" width="7.0" height="12.0" class="text" style="fill:none;stroke:red;stroke-width:0.5;"/>
     <text x="86.0" y="178.0" achars="2,l,Z" style="fill:black;font-family:helvetica;font-size:10.0px;">2</text>
    </g>
    <g>
     <rect x="95.0" y="166.0" width="8.0" height="12.0" class="text" style="fill:none;stroke:red;stroke-width:0.5;"/>
     <text x="95.0" y="178.0" achars="O,0" style="fill:black;font-family:helvetica;font-size:10.0px;">O</text>
    </g>
    <g>
     <rect x="105.0" y="166.0" width="4.0" height="12.0" class="text" style="fill:none;stroke:red;stroke-width:0.5;"/>
     <text x="105.0" y="178.0" achars="1,l" style="fill:black;font-family:helvetica;font-size:10.0px;">1</text>
    </g>
    <rect x="110.0" y="166.0" width="2.0" height="12.0" class="space" style="fill:none;stroke:blue;stroke-width:0.5;"/>
    <g>
     <rect x="113.0" y="166.0" width="8.0" height="12.0" class="text" style="fill:none;stroke:red;stroke-width:0.5;"/>
     <text x="113.0" y="178.0" achars="3" style="fill:black;font-family:helvetica;font-size:10.0px;">3</text>
    </g>
    <rect x="122.0" y="170.0" width="6.0" height="3.0" class="space" style="fill:none;stroke:blue;stroke-width:0.5;"/>
    <rect x="139.0" y="170.0" width="7.0" height="3.0" class="space" style="fill:none;stroke:blue;stroke-width:0.5;"/>
    <rect x="167.0" y="170.0" width="6.0" height="3.0" class="space" style="fill:none;stroke:blue;stroke-width:0.5;"/>
    <rect x="202.0" y="170.0" width="5.0" height="3.0" class="space" style="fill:none;stroke:blue;stroke-width:0.5;"/>
    <rect x="241.0" y="170.0" width="5.0" height="3.0" class="space" style="fill:none;stroke:blue;stroke-width:0.5;"/>
    <rect x="284.0" y="170.0" width="3.0" height="3.0" class="space" style="fill:none;stroke:blue;stroke-width:0.5;"/>
    <rect x="326.0" y="170.0" width="3.0" height="3.0" class="space" style="fill:none;stroke:blue;stroke-width:0.5;"/>
    <rect x="367.0" y="170.0" width="1.0" height="3.0" class="space" style="fill:none;stroke:blue;stroke-width:0.5;"/>
    <rect x="403.0" y="170.0" width="1.0" height="3.0" class="space" style="fill:none;stroke:blue;stroke-width:0.5;"/>
    <rect x="435.0" y="170.0" width="0.0" height="3.0" class="space" style="fill:none;stroke:blue;stroke-width:0.5;"/>
    <rect x="462.0" y="170.0" width="-1.0" height="3.0" class="space" style="fill:none;stroke:blue;stroke-width:0.5;"/>
    <rect x="483.0" y="170.0" width="-2.0" height="3.0" class="space" style="fill:none;stroke:blue;stroke-width:0.5;"/>
    <rect x="499.0" y="170.0" width="-2.0" height="3.0" class="space" style="fill:none;stroke:blue;stroke-width:0.5;"/>
    <rect x="511.0" y="170.0" width="-3.0" height="3.0" class="space" style="fill:none;stroke:blue;stroke-width:0.5;"/>
    <rect x="519.0" y="170.0" width="-3.0" height="3.0" class="space" style="fill:none;stroke:blue;stroke-width:0.5;"/>
    <rect x="525.0" y="170.0" width="-3.0" height="3.0" class="space" style="fill:none;stroke:blue;stroke-width:0.5;"/>
    <rect x="529.0" y="170.0" width="-4.0" height="3.0" class="space" style="fill:none;stroke:blue;stroke-width:0.5;"/>
    <rect x="531.0" y="170.0" width="-3.0" height="3.0" class="space" style="fill:none;stroke:blue;stroke-width:0.5;"/>
    <rect x="533.0" y="170.0" width="-4.0" height="3.0" class="space" style="fill:none;stroke:blue;stroke-width:0.5;"/>
    <rect x="534.0" y="170.0" width="-4.0" height="3.0" class="space" style="fill:none;stroke:blue;stroke-width:0.5;"/>
    <rect x="535.0" y="170.0" width="-4.0" height="3.0" class="space" style="fill:none;stroke:blue;stroke-width:0.5;"/>
    <rect x="535.0" y="170.0" width="-4.0" height="3.0" class="space" style="fill:none;stroke:blue;stroke-width:0.5;"/>
    <rect x="535.0" y="170.0" width="-3.0" height="3.0" class="space" style="fill:none;stroke:blue;stroke-width:0.5;"/>
    <rect x="536.0" y="170.0" width="-4.0" height="3.0" class="space" style="fill:none;stroke:blue;stroke-width:0.5;"/>
    <rect x="536.0" y="170.0" width="-4.0" height="3.0" class="space" style="fill:none;stroke:blue;stroke-width:0.5;"/>
    <rect x="536.0" y="170.0" width="-3.0" height="3.0" class="space" style="fill:none;stroke:blue;stroke-width:0.5;"/>
    <rect x="537.0" y="170.0" width="-4.0" height="3.0" class="space" style="fill:none;stroke:blue;stroke-width:0.5;"/>
    <rect x="537.0" y="170.0" width="-4.0" height="3.0" class="space" style="fill:none;stroke:blue;stroke-width:0.5;"/>
    <rect x="537.0" y="170.0" width="-4.0" height="3.0" class="space" style="fill:none;stroke:blue;stroke-width:0.5;"/>
    <rect x="537.0" y="170.0" width="-4.0" height="3.0" class="space" style="fill:none;stroke:blue;stroke-width:0.5;"/>
    <rect x="537.0" y="170.0" width="-4.0" height="3.0" class="space" style="fill:none;stroke:blue;stroke-width:0.5;"/>
    <rect x="537.0" y="170.0" width="-3.0" height="3.0" class="space" style="fill:none;stroke:blue;stroke-width:0.5;"/>
    <rect x="538.0" y="170.0" width="-4.0" height="3.0" class="space" style="fill:none;stroke:blue;stroke-width:0.5;"/>
    <rect x="538.0" y="170.0" width="-4.0" height="3.0" class="space" style="fill:none;stroke:blue;stroke-width:0.5;"/>
    <rect x="538.0" y="170.0" width="-4.0" height="3.0" class="space" style="fill:none;stroke:blue;stroke-width:0.5;"/>
    <rect x="538.0" y="170.0" width="-4.0" height="3.0" class="space" style="fill:none;stroke:blue;stroke-width:0.5;"/>
    <rect x="538.0" y="170.0" width="-4.0" height="3.0" class="space" style="fill:none;stroke:blue;stroke-width:0.5;"/>
    <rect x="538.0" y="170.0" width="-4.0" height="3.0" class="space" style="fill:none;stroke:blue;stroke-width:0.5;"/>
    <rect x="538.0" y="170.0" width="-3.0" height="3.0" class="space" style="fill:none;stroke:blue;stroke-width:0.5;"/>
    <g>
     <rect x="536.0" y="170.0" width="2.0" height="3.0" class="text" style="fill:none;stroke:red;stroke-width:0.5;"/>
     <text x="536.0" y="173.0" achars="'" style="fill:black;font-family:helvetica;font-size:10.0px;">'</text>
    </g>
   </g>
   <g class="line">
    <rect x="33.0" y="264.0" width="11.0" height="13.0" class="space" style="fill:none;stroke:blue;stroke-width:0.5;"/>
    <g>
     <rect x="33.0" y="264.0" width="11.0" height="13.0" class="text" style="fill:none;stroke:red;stroke-width:0.5;"/>
     <text x="33.0" y="277.0" achars="O,0" style="fill:black;font-family:helvetica;font-size:10.0px;">O</text>
    </g>
    <g>
     <rect x="45.0" y="268.0" width="8.0" height="9.0" class="text" style="fill:none;stroke:red;stroke-width:0.5;"/>
     <text x="45.0" y="277.0" achars="v" style="fill:black;font-family:helvetica;font-size:10.0px;">v</text>
    </g>
    <g>
     <rect x="54.0" y="267.0" width="8.0" height="10.0" class="text" style="fill:none;stroke:red;stroke-width:0.5;"/>
     <text x="54.0" y="277.0" achars="e,g,i" style="fill:black;font-family:helvetica;font-size:10.0px;">e</text>
    </g>
    <g>
     <rect x="63.0" y="267.0" width="5.0" height="10.0" class="text" style="fill:none;stroke:red;stroke-width:0.5;"/>
     <text x="63.0" y="277.0" achars="r" style="fill:black;font-family:helvetica;font-size:10.0px;">r</text>
    </g>
    <g>
     <rect x="68.0" y="267.0" width="8.0" height="10.0" class="text" style="fill:none;stroke:red;stroke-width:0.5;"/>
     <text x="68.0" y="277.0" achars="a" style="fill:black;font-family:helvetica;font-size:10.0px;">a</text>
    </g>
    <g>
     <rect x="78.0" y="264.0" width="2.0" height="13.0" class="text" style="fill:none;stroke:red;stroke-width:0.5;"/>
     <text x="78.0" y="277.0" achars="l,I,1" style="fill:black;font-family:helvetica;font-size:10.0px;">l</text>
    </g>
    <g>
     <rect x="82.0" y="264.0" width="2.0" height="13.0" class="text" style="fill:none;stroke:red;stroke-width:0.5;"/>
     <text x="82.0" y="277.0" achars="l,I,|,1" style="fill:black;font-family:helvetica;font-size:10.0px;">l</text>
    </g>
    <rect x="85.0" y="264.0" width="8.0" height="15.0" class="space" style="fill:none;stroke:blue;stroke-width:0.5;"/>
    <g>
     <rect x="94.0" y="264.0" width="3.0" height="15.0" class="text" style="fill:none;stroke:red;stroke-width:0.5;"/>
     <text x="94.0" y="279.0" achars="(" style="fill:black;font-family:helvetica;font-size:10.0px;">(</text>
    </g>
    <g>
     <rect x="99.0" y="264.0" width="2.0" height="13.0" class="text" style="fill:none;stroke:red;stroke-width:0.5;"/>
     <text x="99.0" y="277.0" achars="l,I,|,1" style="fill:black;font-family:helvetica;font-size:10.0px;">l</text>
    </g>
    <g>
     <rect x="102.0" y="271.0" width="10.0" height="2.0" class="text" style="fill:none;stroke:red;stroke-width:0.5;"/>
     <text x="102.0" y="273.0" achars="'" style="fill:black;font-family:helvetica;font-size:10.0px;">'</text>
    </g>
    <g>
     <rect x="113.0" y="268.0" width="6.0" height="9.0" class="text" style="fill:none;stroke:red;stroke-width:0.5;"/>
     <text x="113.0" y="277.0" achars="s,5" style="fill:black;font-family:helvetica;font-size:10.0px;">s</text>
    </g>
    <g>
     <rect x="120.0" y="267.0" width="8.0" height="13.0" class="text" style="fill:none;stroke:red;stroke-width:0.5;"/>
     <text x="120.0" y="280.0" achars="q,a" style="fill:black;font-family:helvetica;font-size:10.0px;">q</text>
    </g>
    <g>
     <rect x="130.0" y="268.0" width="8.0" height="9.0" class="text" style="fill:none;stroke:red;stroke-width:0.5;"/>
     <text x="130.0" y="277.0" achars="u" style="fill:black;font-family:helvetica;font-size:10.0px;">u</text>
    </g>
    <g>
     <rect x="140.0" y="267.0" width="7.0" height="10.0" class="text" style="fill:none;stroke:red;stroke-width:0.5;"/>
     <text x="140.0" y="277.0" achars="a" style="fill:black;font-family:helvetica;font-size:10.0px;">a</text>
    </g>
    <g>
     <rect x="149.0" y="267.0" width="5.0" height="10.0" class="text" style="fill:none;stroke:red;stroke-width:0.5;"/>
     <text x="149.0" y="277.0" achars="r" style="fill:black;font-family:helvetica;font-size:10.0px;">r</text>
    </g>
    <g>
     <rect x="154.0" y="267.0" width="8.0" height="10.0" class="text" style="fill:none;stroke:red;stroke-width:0.5;"/>
     <text x="154.0" y="277.0" achars="e,g" style="fill:black;font-family:helvetica;font-size:10.0px;">e</text>
    </g>
    <g>
     <rect x="163.0" y="263.0" width="9.0" height="14.0" class="text" style="fill:none;stroke:red;stroke-width:0.5;"/>
     <text x="163.0" y="277.0" achars="d" style="fill:black;font-family:helvetica;font-size:10.0px;">d</text>
    </g>
    <g>
     <rect x="177.0" y="269.0" width="9.0" height="5.0" class="text" style="fill:none;stroke:red;stroke-width:0.5;"/>
     <text x="177.0" y="274.0" achars="=" style="fill:black;font-family:helvetica;font-size:10.0px;">=</text>
    </g>
    <g>
     <rect x="192.0" y="265.0" width="5.0" height="12.0" class="text" style="fill:none;stroke:red;stroke-width:0.5;"/>
     <text x="192.0" y="277.0" achars="1" style="fill:black;font-family:helvetica;font-size:10.0px;">1</text>
    </g>
    <g>
     <rect x="200.0" y="265.0" width="8.0" height="12.0" class="text" style="fill:none;stroke:red;stroke-width:0.5;"/>
     <text x="200.0" y="277.0" achars="2,l" style="fill:black;font-family:helvetica;font-size:10.0px;">2</text>
    </g>
    <g>
     <rect x="210.0" y="274.0" width="2.0" height="3.0" class="text" style="fill:none;stroke:red;stroke-width:0.5;"/>
     <text x="210.0" y="277.0" achars=".,ยง" style="fill:black;font-family:helvetica;font-size:10.0px;">.</text>
    </g>
    <g>
     <rect x="213.0" y="265.0" width="8.0" height="12.0" class="text" style="fill:none;stroke:red;stroke-width:0.5;"/>
     <text x="213.0" y="277.0" achars="2,l" style="fill:black;font-family:helvetica;font-size:10.0px;">2</text>
    </g>
    <g>
     <rect x="222.0" y="265.0" width="11.0" height="12.0" class="text" style="fill:none;stroke:red;stroke-width:0.5;"/>
     <text x="222.0" y="277.0" achars="Y" style="fill:black;font-family:helvetica;font-size:10.0px;">Y</text>
    </g>
    <g>
     <rect x="230.0" y="269.0" width="5.0" height="8.0" class="text" style="fill:none;stroke:red;stroke-width:0.5;"/>
     <text x="230.0" y="277.0" achars="o,a,0" style="fill:black;font-family:helvetica;font-size:10.0px;">o</text>
    </g>
    <g>
     <rect x="236.0" y="274.0" width="3.0" height="5.0" class="text" style="fill:none;stroke:red;stroke-width:0.5;"/>
     <text x="236.0" y="279.0" achars=",ยง1" style="fill:black;font-family:helvetica;font-size:10.0px;">,</text>
    </g>
    <g>
     <rect x="244.0" y="267.0" width="9.0" height="13.0" class="text" style="fill:none;stroke:red;stroke-width:0.5;"/>
     <text x="244.0" y="280.0" achars="p" style="fill:black;font-family:helvetica;font-size:10.0px;">p</text>
    </g>
    <g>
     <rect x="257.0" y="269.0" width="10.0" height="5.0" class="text" style="fill:none;stroke:red;stroke-width:0.5;"/>
     <text x="257.0" y="274.0" achars="=" style="fill:black;font-family:helvetica;font-size:10.0px;">=</text>
    </g>
    <g>
     <rect x="272.0" y="265.0" width="8.0" height="12.0" class="text" style="fill:none;stroke:red;stroke-width:0.5;"/>
     <text x="272.0" y="277.0" achars="O,0" style="fill:black;font-family:helvetica;font-size:10.0px;">O</text>
    </g>
    <g>
     <rect x="281.0" y="274.0" width="3.0" height="3.0" class="text" style="fill:none;stroke:red;stroke-width:0.5;"/>
     <text x="281.0" y="277.0" achars=".,ยง" style="fill:black;font-family:helvetica;font-size:10.0px;">.</text>
    </g>
    <g>
     <rect x="285.0" y="265.0" width="8.0" height="12.0" class="text" style="fill:none;stroke:red;stroke-width:0.5;"/>
     <text x="285.0" y="277.0" achars="2,l,Z" style="fill:black;font-family:helvetica;font-size:10.0px;">2</text>
    </g>
    <g>
     <rect x="294.0" y="265.0" width="8.0" height="12.0" class="text" style="fill:none;stroke:red;stroke-width:0.5;"/>
     <text x="294.0" y="277.0" achars="8" style="fill:black;font-family:helvetica;font-size:10.0px;">8</text>
    </g>
    <g>
     <rect x="303.0" y="265.0" width="8.0" height="12.0" class="text" style="fill:none;stroke:red;stroke-width:0.5;"/>
     <text x="303.0" y="277.0" achars="6" style="fill:black;font-family:helvetica;font-size:10.0px;">6</text>
    </g>
    <g>
     <rect x="312.0" y="264.0" width="4.0" height="15.0" class="text" style="fill:none;stroke:red;stroke-width:0.5;"/>
     <text x="312.0" y="279.0" achars="),&gt;" style="fill:black;font-family:helvetica;font-size:10.0px;">)</text>
    </g>
   </g>
   <g class="line">
    <rect x="49.0" y="327.0" width="-1.0" height="22.0" class="space" style="fill:none;stroke:blue;stroke-width:0.5;"/>
    <rect x="46.0" y="327.0" width="13.0" height="22.0" class="space" style="fill:none;stroke:blue;stroke-width:0.5;"/>
    <g>
     <rect x="46.0" y="327.0" width="13.0" height="22.0" class="text" style="fill:none;stroke:red;stroke-width:0.5;"/>
     <text x="46.0" y="349.0" achars="P" style="fill:black;font-family:helvetica;font-size:10.0px;">P</text>
    </g>
    <g>
     <rect x="62.0" y="336.0" width="17.0" height="9.0" class="text" style="fill:none;stroke:red;stroke-width:0.5;"/>
     <text x="62.0" y="345.0" achars="" style="fill:black;font-family:helvetica;font-size:10.0px;">?</text>
    </g>
    <g>
     <rect x="81.0" y="327.0" width="15.0" height="22.0" class="text" style="fill:none;stroke:red;stroke-width:0.5;"/>
     <text x="81.0" y="349.0" achars="O,0" style="fill:black;font-family:helvetica;font-size:10.0px;">O</text>
    </g>
    <g>
     <rect x="98.0" y="345.0" width="4.0" height="4.0" class="text" style="fill:none;stroke:red;stroke-width:0.5;"/>
     <text x="98.0" y="349.0" achars=".,ยง" style="fill:black;font-family:helvetica;font-size:10.0px;">.</text>
    </g>
    <g>
     <rect x="105.0" y="327.0" width="14.0" height="22.0" class="text" style="fill:none;stroke:red;stroke-width:0.5;"/>
     <text x="105.0" y="349.0" achars="2" style="fill:black;font-family:helvetica;font-size:10.0px;">2</text>
    </g>
    <g>
     <rect x="121.0" y="327.0" width="14.0" height="22.0" class="text" style="fill:none;stroke:red;stroke-width:0.5;"/>
     <text x="121.0" y="349.0" achars="3" style="fill:black;font-family:helvetica;font-size:10.0px;">3</text>
    </g>
    <g>
     <rect x="138.0" y="327.0" width="15.0" height="23.0" class="text" style="fill:none;stroke:red;stroke-width:0.5;"/>
     <text x="138.0" y="350.0" achars="O,0" style="fill:black;font-family:helvetica;font-size:10.0px;">O</text>
    </g>
   </g>
   <g class="line">
    <rect x="34.0" y="412.0" width="9.0" height="13.0" class="space" style="fill:none;stroke:blue;stroke-width:0.5;"/>
    <g>
     <rect x="34.0" y="412.0" width="9.0" height="13.0" class="text" style="fill:none;stroke:red;stroke-width:0.5;"/>
     <text x="34.0" y="425.0" achars="N,W" style="fill:black;font-family:helvetica;font-size:10.0px;">N</text>
    </g>
    <g>
     <rect x="45.0" y="412.0" width="11.0" height="13.0" class="text" style="fill:none;stroke:red;stroke-width:0.5;"/>
     <text x="45.0" y="425.0" achars="O,0" style="fill:black;font-family:helvetica;font-size:10.0px;">O</text>
    </g>
    <g>
     <rect x="56.0" y="412.0" width="10.0" height="13.0" class="text" style="fill:none;stroke:red;stroke-width:0.5;"/>
     <text x="56.0" y="425.0" achars="T" style="fill:black;font-family:helvetica;font-size:10.0px;">T</text>
    </g>
    <g>
     <rect x="67.0" y="412.0" width="7.0" height="13.0" class="text" style="fill:none;stroke:red;stroke-width:0.5;"/>
     <text x="67.0" y="425.0" achars="E" style="fill:black;font-family:helvetica;font-size:10.0px;">E</text>
    </g>
    <g>
     <rect x="75.0" y="416.0" width="2.0" height="9.0" class="text" style="fill:none;stroke:red;stroke-width:0.5;"/>
     <text x="75.0" y="425.0" achars=":" style="fill:black;font-family:helvetica;font-size:10.0px;">:</text>
    </g>
    <rect x="78.0" y="412.0" width="3.0" height="13.0" class="space" style="fill:none;stroke:blue;stroke-width:0.5;"/>
    <g>
     <rect x="82.0" y="412.0" width="14.0" height="13.0" class="text" style="fill:none;stroke:red;stroke-width:0.5;"/>
     <text x="82.0" y="425.0" achars="W" style="fill:black;font-family:helvetica;font-size:10.0px;">W</text>
    </g>
    <g>
     <rect x="97.0" y="416.0" width="8.0" height="9.0" class="text" style="fill:none;stroke:red;stroke-width:0.5;"/>
     <text x="97.0" y="425.0" achars="e,g" style="fill:black;font-family:helvetica;font-size:10.0px;">e</text>
    </g>
    <g>
     <rect x="106.0" y="412.0" width="3.0" height="13.0" class="text" style="fill:none;stroke:red;stroke-width:0.5;"/>
     <text x="106.0" y="425.0" achars="i,j" style="fill:black;font-family:helvetica;font-size:10.0px;">i</text>
    </g>
    <g>
     <rect x="110.0" y="416.0" width="8.0" height="13.0" class="text" style="fill:none;stroke:red;stroke-width:0.5;"/>
     <text x="110.0" y="429.0" achars="g,9" style="fill:black;font-family:helvetica;font-size:10.0px;">g</text>
    </g>
    <g>
     <rect x="121.0" y="411.0" width="7.0" height="14.0" class="text" style="fill:none;stroke:red;stroke-width:0.5;"/>
     <text x="121.0" y="425.0" achars="h" style="fill:black;font-family:helvetica;font-size:10.0px;">h</text>
    </g>
    <g>
     <rect x="129.0" y="414.0" width="6.0" height="11.0" class="text" style="fill:none;stroke:red;stroke-width:0.5;"/>
     <text x="129.0" y="425.0" achars="t" style="fill:black;font-family:helvetica;font-size:10.0px;">t</text>
    </g>
    <g>
     <rect x="136.0" y="416.0" width="6.0" height="9.0" class="text" style="fill:none;stroke:red;stroke-width:0.5;"/>
     <text x="136.0" y="425.0" achars="s" style="fill:black;font-family:helvetica;font-size:10.0px;">s</text>
    </g>
    <rect x="143.0" y="416.0" width="2.0" height="9.0" class="space" style="fill:none;stroke:blue;stroke-width:0.5;"/>
    <g>
     <rect x="146.0" y="416.0" width="8.0" height="9.0" class="text" style="fill:none;stroke:red;stroke-width:0.5;"/>
     <text x="146.0" y="425.0" achars="a,e" style="fill:black;font-family:helvetica;font-size:10.0px;">a</text>
    </g>
    <g>
     <rect x="156.0" y="416.0" width="4.0" height="9.0" class="text" style="fill:none;stroke:red;stroke-width:0.5;"/>
     <text x="156.0" y="425.0" achars="r,1" style="fill:black;font-family:helvetica;font-size:10.0px;">r</text>
    </g>
    <g>
     <rect x="161.0" y="416.0" width="8.0" height="9.0" class="text" style="fill:none;stroke:red;stroke-width:0.5;"/>
     <text x="161.0" y="425.0" achars="e,g" style="fill:black;font-family:helvetica;font-size:10.0px;">e</text>
    </g>
    <rect x="170.0" y="411.0" width="2.0" height="14.0" class="space" style="fill:none;stroke:blue;stroke-width:0.5;"/>
    <g>
     <rect x="173.0" y="411.0" width="6.0" height="14.0" class="text" style="fill:none;stroke:red;stroke-width:0.5;"/>
     <text x="173.0" y="425.0" achars="f" style="fill:black;font-family:helvetica;font-size:10.0px;">f</text>
    </g>
    <g>
     <rect x="179.0" y="416.0" width="5.0" height="9.0" class="text" style="fill:none;stroke:red;stroke-width:0.5;"/>
     <text x="179.0" y="425.0" achars="r" style="fill:black;font-family:helvetica;font-size:10.0px;">r</text>
    </g>
    <g>
     <rect x="185.0" y="416.0" width="8.0" height="9.0" class="text" style="fill:none;stroke:red;stroke-width:0.5;"/>
     <text x="185.0" y="425.0" achars="o,O,0" style="fill:black;font-family:helvetica;font-size:10.0px;">o</text>
    </g>
    <g>
     <rect x="195.0" y="416.0" width="13.0" height="9.0" class="text" style="fill:none;stroke:red;stroke-width:0.5;"/>
     <text x="195.0" y="425.0" achars="m" style="fill:black;font-family:helvetica;font-size:10.0px;">m</text>
    </g>
    <rect x="209.0" y="416.0" width="3.0" height="9.0" class="space" style="fill:none;stroke:blue;stroke-width:0.5;"/>
    <g>
     <rect x="213.0" y="416.0" width="5.0" height="9.0" class="text" style="fill:none;stroke:red;stroke-width:0.5;"/>
     <text x="213.0" y="425.0" achars="r" style="fill:black;font-family:helvetica;font-size:10.0px;">r</text>
    </g>
    <g>
     <rect x="219.0" y="416.0" width="7.0" height="9.0" class="text" style="fill:none;stroke:red;stroke-width:0.5;"/>
     <text x="219.0" y="425.0" achars="a" style="fill:black;font-family:helvetica;font-size:10.0px;">a</text>
    </g>
    <g>
     <rect x="228.0" y="416.0" width="8.0" height="9.0" class="text" style="fill:none;stroke:red;stroke-width:0.5;"/>
     <text x="228.0" y="425.0" achars="n" style="fill:black;font-family:helvetica;font-size:10.0px;">n</text>
    </g>
    <g>
     <rect x="237.0" y="411.0" width="9.0" height="14.0" class="text" style="fill:none;stroke:red;stroke-width:0.5;"/>
     <text x="237.0" y="425.0" achars="d" style="fill:black;font-family:helvetica;font-size:10.0px;">d</text>
    </g>
    <g>
     <rect x="247.0" y="416.0" width="9.0" height="9.0" class="text" style="fill:none;stroke:red;stroke-width:0.5;"/>
     <text x="247.0" y="425.0" achars="a,o,O,0" style="fill:black;font-family:helvetica;font-size:10.0px;">a</text>
    </g>
    <g>
     <rect x="258.0" y="416.0" width="12.0" height="9.0" class="text" style="fill:none;stroke:red;stroke-width:0.5;"/>
     <text x="258.0" y="425.0" achars="m" style="fill:black;font-family:helvetica;font-size:10.0px;">m</text>
    </g>
    <rect x="271.0" y="416.0" width="3.0" height="9.0" class="space" style="fill:none;stroke:blue;stroke-width:0.5;"/>
    <g>
     <rect x="275.0" y="416.0" width="8.0" height="9.0" class="text" style="fill:none;stroke:red;stroke-width:0.5;"/>
     <text x="275.0" y="425.0" achars="e,g" style="fill:black;font-family:helvetica;font-size:10.0px;">e</text>
    </g>
    <g>
     <rect x="284.0" y="411.0" width="11.0" height="14.0" class="text" style="fill:none;stroke:red;stroke-width:0.5;"/>
     <text x="284.0" y="425.0" achars="ff,lHi" style="fill:black;font-family:helvetica;font-size:10.0px;">f</text>
    </g>
    <g>
     <rect x="295.0" y="416.0" width="8.0" height="9.0" class="text" style="fill:none;stroke:red;stroke-width:0.5;"/>
     <text x="295.0" y="425.0" achars="e,g" style="fill:black;font-family:helvetica;font-size:10.0px;">e</text>
    </g>
    <g>
     <rect x="304.0" y="414.0" width="13.0" height="11.0" class="text" style="fill:none;stroke:red;stroke-width:0.5;"/>
     <text x="304.0" y="425.0" achars="ct" style="fill:black;font-family:helvetica;font-size:10.0px;">c</text>
    </g>
    <g>
     <rect x="318.0" y="416.0" width="6.0" height="9.0" class="text" style="fill:none;stroke:red;stroke-width:0.5;"/>
     <text x="318.0" y="425.0" achars="s" style="fill:black;font-family:helvetica;font-size:10.0px;">s</text>
    </g>
    <rect x="325.0" y="416.0" width="2.0" height="9.0" class="space" style="fill:none;stroke:blue;stroke-width:0.5;"/>
    <g>
     <rect x="328.0" y="416.0" width="7.0" height="9.0" class="text" style="fill:none;stroke:red;stroke-width:0.5;"/>
     <text x="328.0" y="425.0" achars="a,e" style="fill:black;font-family:helvetica;font-size:10.0px;">a</text>
    </g>
    <g>
     <rect x="337.0" y="416.0" width="8.0" height="9.0" class="text" style="fill:none;stroke:red;stroke-width:0.5;"/>
     <text x="337.0" y="425.0" achars="n" style="fill:black;font-family:helvetica;font-size:10.0px;">n</text>
    </g>
    <g>
     <rect x="347.0" y="416.0" width="7.0" height="9.0" class="text" style="fill:none;stroke:red;stroke-width:0.5;"/>
     <text x="347.0" y="425.0" achars="a" style="fill:black;font-family:helvetica;font-size:10.0px;">a</text>
    </g>
    <g>
     <rect x="356.0" y="411.0" width="2.0" height="14.0" class="text" style="fill:none;stroke:red;stroke-width:0.5;"/>
     <text x="356.0" y="425.0" achars="l,I,|,1" style="fill:black;font-family:helvetica;font-size:10.0px;">l</text>
    </g>
    <g>
     <rect x="359.0" y="416.0" width="8.0" height="13.0" class="text" style="fill:none;stroke:red;stroke-width:0.5;"/>
     <text x="359.0" y="429.0" achars="y" style="fill:black;font-family:helvetica;font-size:10.0px;">y</text>
    </g>
    <g>
     <rect x="368.0" y="416.0" width="6.0" height="9.0" class="text" style="fill:none;stroke:red;stroke-width:0.5;"/>
     <text x="368.0" y="425.0" achars="s,5" style="fill:black;font-family:helvetica;font-size:10.0px;">s</text>
    </g>
    <g>
     <rect x="375.0" y="412.0" width="3.0" height="13.0" class="text" style="fill:none;stroke:red;stroke-width:0.5;"/>
     <text x="375.0" y="425.0" achars="i,j" style="fill:black;font-family:helvetica;font-size:10.0px;">i</text>
    </g>
    <g>
     <rect x="379.0" y="416.0" width="6.0" height="9.0" class="text" style="fill:none;stroke:red;stroke-width:0.5;"/>
     <text x="379.0" y="425.0" achars="s,5" style="fill:black;font-family:helvetica;font-size:10.0px;">s</text>
    </g>
   </g>
  </g>
 </g>
</svg>
