<?xml version="1.0" encoding="UTF-8"?>
<svg height="1362.0" width="1278.0" xmlns="http://www.w3.org/2000/svg">
 <g>
  <g class="horizontallines">
   <line x1="1.0" y1="90.0" x2="1268.0" y2="90.0" style="stroke:red;stroke-width:4.0;"/>
   <line x1="0.0" y1="1304.0" x2="1268.0" y2="1304.0" style="stroke:red;stroke-width:4.0;"/>
  </g>
  <g class="verticallines">
   <line x1="572.0" y1="90.0" x2="572.0" y2="143.0" style="stroke:blue;stroke-width:4.0;"/>
   <line x1="572.0" y1="145.0" x2="572.0" y2="199.0" style="stroke:blue;stroke-width:4.0;"/>
   <line x1="572.0" y1="201.0" x2="572.0" y2="283.0" style="stroke:blue;stroke-width:4.0;"/>
   <line x1="572.0" y1="285.0" x2="572.0" y2="303.0" style="stroke:blue;stroke-width:4.0;"/>
   <line x1="572.0" y1="313.0" x2="572.0" y2="671.0" style="stroke:blue;stroke-width:4.0;"/>
   <line x1="572.0" y1="673.0" x2="572.0" y2="1327.0" style="stroke:blue;stroke-width:4.0;"/>
   <line x1="572.0" y1="1337.0" x2="572.0" y2="1352.0" style="stroke:blue;stroke-width:4.0;"/>
   <line x1="590.0" y1="98.0" x2="590.0" y2="111.0" style="stroke:blue;stroke-width:4.0;"/>
   <line x1="590.0" y1="118.0" x2="590.0" y2="143.0" style="stroke:blue;stroke-width:4.0;"/>
   <line x1="590.0" y1="145.0" x2="590.0" y2="199.0" style="stroke:blue;stroke-width:4.0;"/>
   <line x1="590.0" y1="201.0" x2="590.0" y2="283.0" style="stroke:blue;stroke-width:4.0;"/>
   <line x1="590.0" y1="285.0" x2="590.0" y2="300.0" style="stroke:blue;stroke-width:4.0;"/>
   <line x1="590.0" y1="313.0" x2="590.0" y2="399.0" style="stroke:blue;stroke-width:4.0;"/>
   <line x1="590.0" y1="406.0" x2="590.0" y2="421.0" style="stroke:blue;stroke-width:4.0;"/>
   <line x1="590.0" y1="426.0" x2="590.0" y2="441.0" style="stroke:blue;stroke-width:4.0;"/>
   <line x1="590.0" y1="444.0" x2="590.0" y2="462.0" style="stroke:blue;stroke-width:4.0;"/>
   <line x1="590.0" y1="467.0" x2="590.0" y2="482.0" style="stroke:blue;stroke-width:4.0;"/>
   <line x1="590.0" y1="489.0" x2="590.0" y2="505.0" style="stroke:blue;stroke-width:4.0;"/>
   <line x1="590.0" y1="511.0" x2="590.0" y2="523.0" style="stroke:blue;stroke-width:4.0;"/>
   <line x1="590.0" y1="530.0" x2="590.0" y2="544.0" style="stroke:blue;stroke-width:4.0;"/>
   <line x1="590.0" y1="552.0" x2="590.0" y2="564.0" style="stroke:blue;stroke-width:4.0;"/>
   <line x1="590.0" y1="566.0" x2="590.0" y2="605.0" style="stroke:blue;stroke-width:4.0;"/>
   <line x1="590.0" y1="610.0" x2="590.0" y2="626.0" style="stroke:blue;stroke-width:4.0;"/>
   <line x1="590.0" y1="633.0" x2="590.0" y2="647.0" style="stroke:blue;stroke-width:4.0;"/>
   <line x1="590.0" y1="654.0" x2="590.0" y2="670.0" style="stroke:blue;stroke-width:4.0;"/>
   <line x1="590.0" y1="675.0" x2="590.0" y2="690.0" style="stroke:blue;stroke-width:4.0;"/>
   <line x1="590.0" y1="693.0" x2="590.0" y2="710.0" style="stroke:blue;stroke-width:4.0;"/>
   <line x1="590.0" y1="716.0" x2="590.0" y2="730.0" style="stroke:blue;stroke-width:4.0;"/>
   <line x1="590.0" y1="734.0" x2="590.0" y2="771.0" style="stroke:blue;stroke-width:4.0;"/>
   <line x1="590.0" y1="776.0" x2="590.0" y2="791.0" style="stroke:blue;stroke-width:4.0;"/>
   <line x1="590.0" y1="798.0" x2="590.0" y2="813.0" style="stroke:blue;stroke-width:4.0;"/>
   <line x1="590.0" y1="819.0" x2="590.0" y2="836.0" style="stroke:blue;stroke-width:4.0;"/>
   <line x1="590.0" y1="840.0" x2="590.0" y2="854.0" style="stroke:blue;stroke-width:4.0;"/>
   <line x1="590.0" y1="860.0" x2="590.0" y2="875.0" style="stroke:blue;stroke-width:4.0;"/>
   <line x1="590.0" y1="880.0" x2="590.0" y2="975.0" style="stroke:blue;stroke-width:4.0;"/>
   <line x1="590.0" y1="984.0" x2="590.0" y2="1018.0" style="stroke:blue;stroke-width:4.0;"/>
   <line x1="590.0" y1="1026.0" x2="590.0" y2="1079.0" style="stroke:blue;stroke-width:4.0;"/>
   <line x1="590.0" y1="1088.0" x2="590.0" y2="1100.0" style="stroke:blue;stroke-width:4.0;"/>
   <line x1="590.0" y1="1108.0" x2="590.0" y2="1163.0" style="stroke:blue;stroke-width:4.0;"/>
   <line x1="590.0" y1="1168.0" x2="590.0" y2="1183.0" style="stroke:blue;stroke-width:4.0;"/>
   <line x1="590.0" y1="1190.0" x2="590.0" y2="1204.0" style="stroke:blue;stroke-width:4.0;"/>
   <line x1="590.0" y1="1211.0" x2="590.0" y2="1225.0" style="stroke:blue;stroke-width:4.0;"/>
   <line x1="590.0" y1="1232.0" x2="590.0" y2="1246.0" style="stroke:blue;stroke-width:4.0;"/>
   <line x1="590.0" y1="1252.0" x2="590.0" y2="1266.0" style="stroke:blue;stroke-width:4.0;"/>
   <line x1="590.0" y1="1273.0" x2="590.0" y2="1286.0" style="stroke:blue;stroke-width:4.0;"/>
   <line x1="590.0" y1="1293.0" x2="590.0" y2="1307.0" style="stroke:blue;stroke-width:4.0;"/>
  </g>
 </g>
</svg>
