<?xml version="1.0" encoding="UTF-8"?>
<svg height="119.0" width="1137.0" xmlns="http://www.w3.org/2000/svg">
 <g class="page">
  <g class="block">
   <g class="line">
    <rect x="25.0" y="46.0" width="11.0" height="15.0" class="space" style="fill:none;stroke:blue;stroke-width:0.5;"/>
    <g>
     <rect x="25.0" y="46.0" width="11.0" height="15.0" class="text" style="fill:none;stroke:red;stroke-width:0.5;"/>
     <text x="25.0" y="61.0" achars="S,5" style="fill:black;font-family:helvetica;font-size:10.0px;">S</text>
    </g>
    <g>
     <rect x="37.0" y="47.0" width="6.0" height="14.0" class="text" style="fill:none;stroke:red;stroke-width:0.5;"/>
     <text x="37.0" y="61.0" achars="t" style="fill:black;font-family:helvetica;font-size:10.0px;">t</text>
    </g>
    <g>
     <rect x="44.0" y="50.0" width="8.0" height="11.0" class="text" style="fill:none;stroke:red;stroke-width:0.5;"/>
     <text x="44.0" y="61.0" achars="u" style="fill:black;font-family:helvetica;font-size:10.0px;">u</text>
    </g>
    <g>
     <rect x="54.0" y="46.0" width="9.0" height="15.0" class="text" style="fill:none;stroke:red;stroke-width:0.5;"/>
     <text x="54.0" y="61.0" achars="d" style="fill:black;font-family:helvetica;font-size:10.0px;">d</text>
    </g>
    <g>
     <rect x="65.0" y="50.0" width="9.0" height="14.0" class="text" style="fill:none;stroke:red;stroke-width:0.5;"/>
     <text x="65.0" y="64.0" achars="y" style="fill:black;font-family:helvetica;font-size:10.0px;">y</text>
    </g>
    <rect x="75.0" y="46.0" width="8.0" height="8.0" class="space" style="fill:none;stroke:blue;stroke-width:0.5;"/>
    <rect x="96.0" y="46.0" width="8.0" height="8.0" class="space" style="fill:none;stroke:blue;stroke-width:0.5;"/>
    <rect x="128.0" y="46.0" width="8.0" height="8.0" class="space" style="fill:none;stroke:blue;stroke-width:0.5;"/>
    <rect x="171.0" y="46.0" width="7.0" height="8.0" class="space" style="fill:none;stroke:blue;stroke-width:0.5;"/>
    <rect x="222.0" y="46.0" width="7.0" height="8.0" class="space" style="fill:none;stroke:blue;stroke-width:0.5;"/>
    <rect x="281.0" y="46.0" width="6.0" height="8.0" class="space" style="fill:none;stroke:blue;stroke-width:0.5;"/>
    <rect x="345.0" y="46.0" width="5.0" height="8.0" class="space" style="fill:none;stroke:blue;stroke-width:0.5;"/>
    <rect x="412.0" y="46.0" width="5.0" height="8.0" class="space" style="fill:none;stroke:blue;stroke-width:0.5;"/>
    <rect x="481.0" y="46.0" width="4.0" height="8.0" class="space" style="fill:none;stroke:blue;stroke-width:0.5;"/>
    <rect x="550.0" y="46.0" width="3.0" height="8.0" class="space" style="fill:none;stroke:blue;stroke-width:0.5;"/>
    <rect x="617.0" y="46.0" width="2.0" height="8.0" class="space" style="fill:none;stroke:blue;stroke-width:0.5;"/>
    <rect x="680.0" y="46.0" width="2.0" height="8.0" class="space" style="fill:none;stroke:blue;stroke-width:0.5;"/>
    <rect x="739.0" y="46.0" width="1.0" height="8.0" class="space" style="fill:none;stroke:blue;stroke-width:0.5;"/>
    <rect x="793.0" y="46.0" width="0.0" height="8.0" class="space" style="fill:none;stroke:blue;stroke-width:0.5;"/>
    <rect x="841.0" y="46.0" width="-1.0" height="8.0" class="space" style="fill:none;stroke:blue;stroke-width:0.5;"/>
    <rect x="883.0" y="46.0" width="-2.0" height="8.0" class="space" style="fill:none;stroke:blue;stroke-width:0.5;"/>
    <rect x="918.0" y="46.0" width="-1.0" height="8.0" class="space" style="fill:none;stroke:blue;stroke-width:0.5;"/>
    <rect x="949.0" y="46.0" width="-2.0" height="8.0" class="space" style="fill:none;stroke:blue;stroke-width:0.5;"/>
    <rect x="975.0" y="46.0" width="-3.0" height="8.0" class="space" style="fill:none;stroke:blue;stroke-width:0.5;"/>
    <rect x="995.0" y="46.0" width="-3.0" height="8.0" class="space" style="fill:none;stroke:blue;stroke-width:0.5;"/>
    <rect x="1012.0" y="46.0" width="-4.0" height="8.0" class="space" style="fill:none;stroke:blue;stroke-width:0.5;"/>
    <rect x="1024.0" y="46.0" width="-3.0" height="8.0" class="space" style="fill:none;stroke:blue;stroke-width:0.5;"/>
    <rect x="1035.0" y="46.0" width="-4.0" height="8.0" class="space" style="fill:none;stroke:blue;stroke-width:0.5;"/>
    <rect x="1042.0" y="46.0" width="-3.0" height="8.0" class="space" style="fill:none;stroke:blue;stroke-width:0.5;"/>
    <rect x="1049.0" y="46.0" width="-4.0" height="8.0" class="space" style="fill:none;stroke:blue;stroke-width:0.5;"/>
    <rect x="1053.0" y="46.0" width="-4.0" height="8.0" class="space" style="fill:none;stroke:blue;stroke-width:0.5;"/>
    <rect x="1056.0" y="46.0" width="-4.0" height="8.0" class="space" style="fill:none;stroke:blue;stroke-width:0.5;"/>
    <rect x="1058.0" y="46.0" width="-3.0" height="8.0" class="space" style="fill:none;stroke:blue;stroke-width:0.5;"/>
    <rect x="1061.0" y="46.0" width="-4.0" height="8.0" class="space" style="fill:none;stroke:blue;stroke-width:0.5;"/>
    <rect x="1062.0" y="46.0" width="-4.0" height="8.0" class="space" style="fill:none;stroke:blue;stroke-width:0.5;"/>
    <rect x="1063.0" y="46.0" width="-4.0" height="8.0" class="space" style="fill:none;stroke:blue;stroke-width:0.5;"/>
    <rect x="1064.0" y="46.0" width="-4.0" height="8.0" class="space" style="fill:none;stroke:blue;stroke-width:0.5;"/>
    <rect x="1064.0" y="46.0" width="-3.0" height="8.0" class="space" style="fill:none;stroke:blue;stroke-width:0.5;"/>
    <rect x="1065.0" y="46.0" width="-4.0" height="8.0" class="space" style="fill:none;stroke:blue;stroke-width:0.5;"/>
    <rect x="1065.0" y="46.0" width="-4.0" height="8.0" class="space" style="fill:none;stroke:blue;stroke-width:0.5;"/>
    <rect x="1065.0" y="46.0" width="-4.0" height="8.0" class="space" style="fill:none;stroke:blue;stroke-width:0.5;"/>
    <rect x="1065.0" y="46.0" width="-3.0" height="8.0" class="space" style="fill:none;stroke:blue;stroke-width:0.5;"/>
    <rect x="1066.0" y="46.0" width="-4.0" height="8.0" class="space" style="fill:none;stroke:blue;stroke-width:0.5;"/>
    <rect x="1066.0" y="46.0" width="-4.0" height="8.0" class="space" style="fill:none;stroke:blue;stroke-width:0.5;"/>
    <rect x="1066.0" y="46.0" width="-4.0" height="8.0" class="space" style="fill:none;stroke:blue;stroke-width:0.5;"/>
    <rect x="1066.0" y="46.0" width="-3.0" height="8.0" class="space" style="fill:none;stroke:blue;stroke-width:0.5;"/>
    <rect x="1067.0" y="46.0" width="-4.0" height="8.0" class="space" style="fill:none;stroke:blue;stroke-width:0.5;"/>
    <rect x="1067.0" y="46.0" width="-4.0" height="8.0" class="space" style="fill:none;stroke:blue;stroke-width:0.5;"/>
    <rect x="1067.0" y="46.0" width="-4.0" height="8.0" class="space" style="fill:none;stroke:blue;stroke-width:0.5;"/>
    <rect x="1067.0" y="46.0" width="-4.0" height="8.0" class="space" style="fill:none;stroke:blue;stroke-width:0.5;"/>
    <rect x="1067.0" y="46.0" width="-4.0" height="8.0" class="space" style="fill:none;stroke:blue;stroke-width:0.5;"/>
    <rect x="1067.0" y="46.0" width="-3.0" height="8.0" class="space" style="fill:none;stroke:blue;stroke-width:0.5;"/>
    <rect x="1068.0" y="46.0" width="-4.0" height="8.0" class="space" style="fill:none;stroke:blue;stroke-width:0.5;"/>
    <rect x="1068.0" y="46.0" width="-4.0" height="8.0" class="space" style="fill:none;stroke:blue;stroke-width:0.5;"/>
    <rect x="1068.0" y="46.0" width="-4.0" height="8.0" class="space" style="fill:none;stroke:blue;stroke-width:0.5;"/>
    <rect x="1068.0" y="46.0" width="-4.0" height="8.0" class="space" style="fill:none;stroke:blue;stroke-width:0.5;"/>
    <rect x="1068.0" y="46.0" width="-4.0" height="8.0" class="space" style="fill:none;stroke:blue;stroke-width:0.5;"/>
    <rect x="1068.0" y="46.0" width="-4.0" height="8.0" class="space" style="fill:none;stroke:blue;stroke-width:0.5;"/>
    <rect x="1068.0" y="46.0" width="-4.0" height="8.0" class="space" style="fill:none;stroke:blue;stroke-width:0.5;"/>
    <rect x="1068.0" y="46.0" width="-3.0" height="8.0" class="space" style="fill:none;stroke:blue;stroke-width:0.5;"/>
    <rect x="1069.0" y="46.0" width="-4.0" height="8.0" class="space" style="fill:none;stroke:blue;stroke-width:0.5;"/>
    <rect x="1069.0" y="46.0" width="-4.0" height="8.0" class="space" style="fill:none;stroke:blue;stroke-width:0.5;"/>
    <rect x="1069.0" y="46.0" width="-4.0" height="8.0" class="space" style="fill:none;stroke:blue;stroke-width:0.5;"/>
    <rect x="1069.0" y="46.0" width="-4.0" height="8.0" class="space" style="fill:none;stroke:blue;stroke-width:0.5;"/>
    <rect x="1069.0" y="46.0" width="-4.0" height="8.0" class="space" style="fill:none;stroke:blue;stroke-width:0.5;"/>
    <rect x="1069.0" y="46.0" width="-4.0" height="8.0" class="space" style="fill:none;stroke:blue;stroke-width:0.5;"/>
    <rect x="1069.0" y="46.0" width="-4.0" height="8.0" class="space" style="fill:none;stroke:blue;stroke-width:0.5;"/>
    <rect x="1069.0" y="46.0" width="-4.0" height="8.0" class="space" style="fill:none;stroke:blue;stroke-width:0.5;"/>
    <rect x="1069.0" y="46.0" width="-4.0" height="8.0" class="space" style="fill:none;stroke:blue;stroke-width:0.5;"/>
    <rect x="1069.0" y="46.0" width="-4.0" height="8.0" class="space" style="fill:none;stroke:blue;stroke-width:0.5;"/>
    <rect x="1069.0" y="46.0" width="-3.0" height="8.0" class="space" style="fill:none;stroke:blue;stroke-width:0.5;"/>
    <rect x="1070.0" y="46.0" width="-4.0" height="8.0" class="space" style="fill:none;stroke:blue;stroke-width:0.5;"/>
    <rect x="1070.0" y="46.0" width="-4.0" height="8.0" class="space" style="fill:none;stroke:blue;stroke-width:0.5;"/>
    <rect x="1070.0" y="46.0" width="-4.0" height="8.0" class="space" style="fill:none;stroke:blue;stroke-width:0.5;"/>
    <rect x="1070.0" y="46.0" width="-4.0" height="8.0" class="space" style="fill:none;stroke:blue;stroke-width:0.5;"/>
    <rect x="1070.0" y="46.0" width="-4.0" height="8.0" class="space" style="fill:none;stroke:blue;stroke-width:0.5;"/>
    <rect x="1070.0" y="46.0" width="-4.0" height="8.0" class="space" style="fill:none;stroke:blue;stroke-width:0.5;"/>
    <rect x="1070.0" y="46.0" width="-4.0" height="8.0" class="space" style="fill:none;stroke:blue;stroke-width:0.5;"/>
    <rect x="1070.0" y="46.0" width="-4.0" height="8.0" class="space" style="fill:none;stroke:blue;stroke-width:0.5;"/>
    <rect x="1070.0" y="46.0" width="-4.0" height="8.0" class="space" style="fill:none;stroke:blue;stroke-width:0.5;"/>
    <rect x="1070.0" y="46.0" width="-4.0" height="8.0" class="space" style="fill:none;stroke:blue;stroke-width:0.5;"/>
    <rect x="1070.0" y="46.0" width="-4.0" height="8.0" class="space" style="fill:none;stroke:blue;stroke-width:0.5;"/>
    <rect x="1070.0" y="46.0" width="-4.0" height="8.0" class="space" style="fill:none;stroke:blue;stroke-width:0.5;"/>
    <rect x="1070.0" y="46.0" width="-4.0" height="8.0" class="space" style="fill:none;stroke:blue;stroke-width:0.5;"/>
    <rect x="1070.0" y="46.0" width="-4.0" height="8.0" class="space" style="fill:none;stroke:blue;stroke-width:0.5;"/>
    <rect x="1070.0" y="46.0" width="-4.0" height="8.0" class="space" style="fill:none;stroke:blue;stroke-width:0.5;"/>
    <rect x="1070.0" y="46.0" width="-3.0" height="8.0" class="space" style="fill:none;stroke:blue;stroke-width:0.5;"/>
    <g>
     <rect x="1068.0" y="46.0" width="6.0" height="8.0" class="text" style="fill:none;stroke:red;stroke-width:0.5;"/>
     <text x="1068.0" y="54.0" achars="0,D,&quot;" style="fill:black;font-family:helvetica;font-size:10.0px;">0</text>
    </g>
    <g>
     <rect x="1071.0" y="46.0" width="9.0" height="15.0" class="text" style="fill:none;stroke:red;stroke-width:0.5;"/>
     <text x="1071.0" y="61.0" achars="/,J" style="fill:black;font-family:helvetica;font-size:10.0px;">/</text>
    </g>
    <g>
     <rect x="1076.0" y="53.0" width="7.0" height="8.0" class="text" style="fill:none;stroke:red;stroke-width:0.5;"/>
     <text x="1076.0" y="61.0" achars="o,a,0" style="fill:black;font-family:helvetica;font-size:10.0px;">o</text>
    </g>
   </g>
   <g class="line">
    <rect x="26.0" y="90.0" width="2.0" height="15.0" class="space" style="fill:none;stroke:blue;stroke-width:0.5;"/>
    <g>
     <rect x="26.0" y="90.0" width="2.0" height="15.0" class="text" style="fill:none;stroke:red;stroke-width:0.5;"/>
     <text x="26.0" y="105.0" achars="l,I,|,1" style="fill:black;font-family:helvetica;font-size:10.0px;">l</text>
    </g>
    <g>
     <rect x="31.0" y="90.0" width="12.0" height="15.0" class="text" style="fill:none;stroke:red;stroke-width:0.5;"/>
     <text x="31.0" y="105.0" achars="0" style="fill:black;font-family:helvetica;font-size:10.0px;">0</text>
    </g>
    <rect x="44.0" y="90.0" width="8.0" height="15.0" class="space" style="fill:none;stroke:blue;stroke-width:0.5;"/>
    <rect x="65.0" y="90.0" width="8.0" height="15.0" class="space" style="fill:none;stroke:blue;stroke-width:0.5;"/>
    <rect x="97.0" y="90.0" width="8.0" height="15.0" class="space" style="fill:none;stroke:blue;stroke-width:0.5;"/>
    <rect x="139.0" y="90.0" width="7.0" height="15.0" class="space" style="fill:none;stroke:blue;stroke-width:0.5;"/>
    <rect x="189.0" y="90.0" width="7.0" height="15.0" class="space" style="fill:none;stroke:blue;stroke-width:0.5;"/>
    <rect x="246.0" y="90.0" width="6.0" height="15.0" class="space" style="fill:none;stroke:blue;stroke-width:0.5;"/>
    <rect x="307.0" y="90.0" width="5.0" height="15.0" class="space" style="fill:none;stroke:blue;stroke-width:0.5;"/>
    <rect x="369.0" y="90.0" width="4.0" height="15.0" class="space" style="fill:none;stroke:blue;stroke-width:0.5;"/>
    <rect x="431.0" y="90.0" width="3.0" height="15.0" class="space" style="fill:none;stroke:blue;stroke-width:0.5;"/>
    <rect x="491.0" y="90.0" width="2.0" height="15.0" class="space" style="fill:none;stroke:blue;stroke-width:0.5;"/>
    <rect x="547.0" y="90.0" width="2.0" height="15.0" class="space" style="fill:none;stroke:blue;stroke-width:0.5;"/>
    <rect x="599.0" y="90.0" width="1.0" height="15.0" class="space" style="fill:none;stroke:blue;stroke-width:0.5;"/>
    <rect x="645.0" y="90.0" width="0.0" height="15.0" class="space" style="fill:none;stroke:blue;stroke-width:0.5;"/>
    <rect x="685.0" y="90.0" width="-1.0" height="15.0" class="space" style="fill:none;stroke:blue;stroke-width:0.5;"/>
    <rect x="719.0" y="90.0" width="-1.0" height="15.0" class="space" style="fill:none;stroke:blue;stroke-width:0.5;"/>
    <rect x="748.0" y="90.0" width="-2.0" height="15.0" class="space" style="fill:none;stroke:blue;stroke-width:0.5;"/>
    <rect x="771.0" y="90.0" width="-2.0" height="15.0" class="space" style="fill:none;stroke:blue;stroke-width:0.5;"/>
    <rect x="790.0" y="90.0" width="-3.0" height="15.0" class="space" style="fill:none;stroke:blue;stroke-width:0.5;"/>
    <rect x="804.0" y="90.0" width="-3.0" height="15.0" class="space" style="fill:none;stroke:blue;stroke-width:0.5;"/>
    <rect x="815.0" y="90.0" width="-4.0" height="15.0" class="space" style="fill:none;stroke:blue;stroke-width:0.5;"/>
    <rect x="822.0" y="90.0" width="-3.0" height="15.0" class="space" style="fill:none;stroke:blue;stroke-width:0.5;"/>
    <rect x="828.0" y="90.0" width="-3.0" height="15.0" class="space" style="fill:none;stroke:blue;stroke-width:0.5;"/>
    <rect x="833.0" y="90.0" width="-4.0" height="15.0" class="space" style="fill:none;stroke:blue;stroke-width:0.5;"/>
    <rect x="836.0" y="90.0" width="-4.0" height="15.0" class="space" style="fill:none;stroke:blue;stroke-width:0.5;"/>
    <rect x="838.0" y="90.0" width="-4.0" height="15.0" class="space" style="fill:none;stroke:blue;stroke-width:0.5;"/>
    <rect x="839.0" y="90.0" width="-3.0" height="15.0" class="space" style="fill:none;stroke:blue;stroke-width:0.5;"/>
    <rect x="841.0" y="90.0" width="-4.0" height="15.0" class="space" style="fill:none;stroke:blue;stroke-width:0.5;"/>
    <rect x="842.0" y="90.0" width="-4.0" height="15.0" class="space" style="fill:none;stroke:blue;stroke-width:0.5;"/>
    <rect x="842.0" y="90.0" width="-4.0" height="15.0" class="space" style="fill:none;stroke:blue;stroke-width:0.5;"/>
    <rect x="842.0" y="90.0" width="-3.0" height="15.0" class="space" style="fill:none;stroke:blue;stroke-width:0.5;"/>
    <rect x="843.0" y="90.0" width="-4.0" height="15.0" class="space" style="fill:none;stroke:blue;stroke-width:0.5;"/>
    <rect x="843.0" y="90.0" width="-4.0" height="15.0" class="space" style="fill:none;stroke:blue;stroke-width:0.5;"/>
    <rect x="843.0" y="90.0" width="-3.0" height="15.0" class="space" style="fill:none;stroke:blue;stroke-width:0.5;"/>
    <rect x="844.0" y="90.0" width="-4.0" height="15.0" class="space" style="fill:none;stroke:blue;stroke-width:0.5;"/>
    <rect x="844.0" y="90.0" width="-4.0" height="15.0" class="space" style="fill:none;stroke:blue;stroke-width:0.5;"/>
    <rect x="844.0" y="90.0" width="-4.0" height="15.0" class="space" style="fill:none;stroke:blue;stroke-width:0.5;"/>
    <rect x="844.0" y="90.0" width="-4.0" height="15.0" class="space" style="fill:none;stroke:blue;stroke-width:0.5;"/>
    <rect x="844.0" y="90.0" width="-3.0" height="15.0" class="space" style="fill:none;stroke:blue;stroke-width:0.5;"/>
    <rect x="845.0" y="90.0" width="-4.0" height="15.0" class="space" style="fill:none;stroke:blue;stroke-width:0.5;"/>
    <rect x="845.0" y="90.0" width="-4.0" height="15.0" class="space" style="fill:none;stroke:blue;stroke-width:0.5;"/>
    <rect x="845.0" y="90.0" width="-4.0" height="15.0" class="space" style="fill:none;stroke:blue;stroke-width:0.5;"/>
    <rect x="845.0" y="90.0" width="-4.0" height="15.0" class="space" style="fill:none;stroke:blue;stroke-width:0.5;"/>
    <rect x="845.0" y="90.0" width="-4.0" height="15.0" class="space" style="fill:none;stroke:blue;stroke-width:0.5;"/>
    <rect x="845.0" y="90.0" width="-3.0" height="15.0" class="space" style="fill:none;stroke:blue;stroke-width:0.5;"/>
    <rect x="846.0" y="90.0" width="-4.0" height="15.0" class="space" style="fill:none;stroke:blue;stroke-width:0.5;"/>
    <rect x="846.0" y="90.0" width="-4.0" height="15.0" class="space" style="fill:none;stroke:blue;stroke-width:0.5;"/>
    <rect x="846.0" y="90.0" width="-4.0" height="15.0" class="space" style="fill:none;stroke:blue;stroke-width:0.5;"/>
    <rect x="846.0" y="90.0" width="-4.0" height="15.0" class="space" style="fill:none;stroke:blue;stroke-width:0.5;"/>
    <rect x="846.0" y="90.0" width="-4.0" height="15.0" class="space" style="fill:none;stroke:blue;stroke-width:0.5;"/>
    <rect x="846.0" y="90.0" width="-4.0" height="15.0" class="space" style="fill:none;stroke:blue;stroke-width:0.5;"/>
    <rect x="846.0" y="90.0" width="-4.0" height="15.0" class="space" style="fill:none;stroke:blue;stroke-width:0.5;"/>
    <rect x="846.0" y="90.0" width="-4.0" height="15.0" class="space" style="fill:none;stroke:blue;stroke-width:0.5;"/>
    <rect x="846.0" y="90.0" width="-3.0" height="15.0" class="space" style="fill:none;stroke:blue;stroke-width:0.5;"/>
    <rect x="847.0" y="90.0" width="-4.0" height="15.0" class="space" style="fill:none;stroke:blue;stroke-width:0.5;"/>
    <rect x="847.0" y="90.0" width="-4.0" height="15.0" class="space" style="fill:none;stroke:blue;stroke-width:0.5;"/>
    <rect x="847.0" y="90.0" width="-4.0" height="15.0" class="space" style="fill:none;stroke:blue;stroke-width:0.5;"/>
    <rect x="847.0" y="90.0" width="-4.0" height="15.0" class="space" style="fill:none;stroke:blue;stroke-width:0.5;"/>
    <rect x="847.0" y="90.0" width="-4.0" height="15.0" class="space" style="fill:none;stroke:blue;stroke-width:0.5;"/>
    <rect x="847.0" y="90.0" width="-4.0" height="15.0" class="space" style="fill:none;stroke:blue;stroke-width:0.5;"/>
    <rect x="847.0" y="90.0" width="-4.0" height="15.0" class="space" style="fill:none;stroke:blue;stroke-width:0.5;"/>
    <rect x="847.0" y="90.0" width="-4.0" height="15.0" class="space" style="fill:none;stroke:blue;stroke-width:0.5;"/>
    <rect x="847.0" y="90.0" width="-4.0" height="15.0" class="space" style="fill:none;stroke:blue;stroke-width:0.5;"/>
    <rect x="847.0" y="90.0" width="-4.0" height="15.0" class="space" style="fill:none;stroke:blue;stroke-width:0.5;"/>
    <rect x="847.0" y="90.0" width="-4.0" height="15.0" class="space" style="fill:none;stroke:blue;stroke-width:0.5;"/>
    <rect x="847.0" y="90.0" width="-4.0" height="15.0" class="space" style="fill:none;stroke:blue;stroke-width:0.5;"/>
    <rect x="847.0" y="90.0" width="-3.0" height="15.0" class="space" style="fill:none;stroke:blue;stroke-width:0.5;"/>
    <g>
     <rect x="845.0" y="90.0" width="14.0" height="15.0" class="text" style="fill:none;stroke:red;stroke-width:0.5;"/>
     <text x="845.0" y="105.0" achars="O,0" style="fill:black;font-family:helvetica;font-size:10.0px;">O</text>
    </g>
    <g>
     <rect x="860.0" y="90.0" width="12.0" height="15.0" class="text" style="fill:none;stroke:red;stroke-width:0.5;"/>
     <text x="860.0" y="105.0" achars="R" style="fill:black;font-family:helvetica;font-size:10.0px;">R</text>
    </g>
    <rect x="873.0" y="90.0" width="5.0" height="19.0" class="space" style="fill:none;stroke:blue;stroke-width:0.5;"/>
    <g>
     <rect x="879.0" y="90.0" width="5.0" height="19.0" class="text" style="fill:none;stroke:red;stroke-width:0.5;"/>
     <text x="879.0" y="109.0" achars="(,{" style="fill:black;font-family:helvetica;font-size:10.0px;">(</text>
    </g>
    <g>
     <rect x="885.0" y="90.0" width="10.0" height="15.0" class="text" style="fill:none;stroke:red;stroke-width:0.5;"/>
     <text x="885.0" y="105.0" achars="9,g" style="fill:black;font-family:helvetica;font-size:10.0px;">9</text>
    </g>
    <g>
     <rect x="896.0" y="91.0" width="10.0" height="14.0" class="text" style="fill:none;stroke:red;stroke-width:0.5;"/>
     <text x="896.0" y="105.0" achars="5" style="fill:black;font-family:helvetica;font-size:10.0px;">5</text>
    </g>
    <g>
     <rect x="907.0" y="90.0" width="7.0" height="8.0" class="text" style="fill:none;stroke:red;stroke-width:0.5;"/>
     <text x="907.0" y="98.0" achars="0,O,&quot;" style="fill:black;font-family:helvetica;font-size:10.0px;">0</text>
    </g>
    <g>
     <rect x="910.0" y="90.0" width="9.0" height="15.0" class="text" style="fill:none;stroke:red;stroke-width:0.5;"/>
     <text x="910.0" y="105.0" achars="/,J,l" style="fill:black;font-family:helvetica;font-size:10.0px;">/</text>
    </g>
    <g>
     <rect x="916.0" y="97.0" width="6.0" height="8.0" class="text" style="fill:none;stroke:red;stroke-width:0.5;"/>
     <text x="916.0" y="105.0" achars="o,0" style="fill:black;font-family:helvetica;font-size:10.0px;">o</text>
    </g>
    <rect x="923.0" y="90.0" width="5.0" height="15.0" class="space" style="fill:none;stroke:blue;stroke-width:0.5;"/>
    <g>
     <rect x="929.0" y="90.0" width="13.0" height="15.0" class="text" style="fill:none;stroke:red;stroke-width:0.5;"/>
     <text x="929.0" y="105.0" achars="C" style="fill:black;font-family:helvetica;font-size:10.0px;">C</text>
    </g>
    <g>
     <rect x="944.0" y="90.0" width="2.0" height="15.0" class="text" style="fill:none;stroke:red;stroke-width:0.5;"/>
     <text x="944.0" y="105.0" achars="l,I,|,1" style="fill:black;font-family:helvetica;font-size:10.0px;">l</text>
    </g>
    <g>
     <rect x="949.0" y="90.0" width="5.0" height="19.0" class="text" style="fill:none;stroke:red;stroke-width:0.5;"/>
     <text x="949.0" y="109.0" achars="),},&gt;" style="fill:black;font-family:helvetica;font-size:10.0px;">)</text>
    </g>
    <rect x="955.0" y="90.0" width="8.0" height="15.0" class="space" style="fill:none;stroke:blue;stroke-width:0.5;"/>
    <rect x="975.0" y="90.0" width="8.0" height="15.0" class="space" style="fill:none;stroke:blue;stroke-width:0.5;"/>
    <rect x="1003.0" y="90.0" width="5.0" height="15.0" class="space" style="fill:none;stroke:blue;stroke-width:0.5;"/>
    <rect x="1029.0" y="90.0" width="3.0" height="15.0" class="space" style="fill:none;stroke:blue;stroke-width:0.5;"/>
    <rect x="1049.0" y="90.0" width="0.0" height="15.0" class="space" style="fill:none;stroke:blue;stroke-width:0.5;"/>
    <rect x="1061.0" y="90.0" width="-2.0" height="15.0" class="space" style="fill:none;stroke:blue;stroke-width:0.5;"/>
    <rect x="1066.0" y="90.0" width="-3.0" height="15.0" class="space" style="fill:none;stroke:blue;stroke-width:0.5;"/>
    <rect x="1068.0" y="90.0" width="-3.0" height="15.0" class="space" style="fill:none;stroke:blue;stroke-width:0.5;"/>
    <rect x="1069.0" y="90.0" width="-3.0" height="15.0" class="space" style="fill:none;stroke:blue;stroke-width:0.5;"/>
    <g>
     <rect x="1067.0" y="90.0" width="18.0" height="15.0" class="text" style="fill:none;stroke:red;stroke-width:0.5;"/>
     <text x="1067.0" y="105.0" achars="W" style="fill:black;font-family:helvetica;font-size:10.0px;">W</text>
    </g>
    <g>
     <rect x="1086.0" y="94.0" width="10.0" height="11.0" class="text" style="fill:none;stroke:red;stroke-width:0.5;"/>
     <text x="1086.0" y="105.0" achars="e,g" style="fill:black;font-family:helvetica;font-size:10.0px;">e</text>
    </g>
    <g>
     <rect x="1098.0" y="90.0" width="2.0" height="15.0" class="text" style="fill:none;stroke:red;stroke-width:0.5;"/>
     <text x="1098.0" y="105.0" achars="i,j" style="fill:black;font-family:helvetica;font-size:10.0px;">i</text>
    </g>
    <g>
     <rect x="1101.0" y="94.0" width="10.0" height="15.0" class="text" style="fill:none;stroke:red;stroke-width:0.5;"/>
     <text x="1101.0" y="109.0" achars="g,9" style="fill:black;font-family:helvetica;font-size:10.0px;">g</text>
    </g>
    <g>
     <rect x="1112.0" y="90.0" width="9.0" height="15.0" class="text" style="fill:none;stroke:red;stroke-width:0.5;"/>
     <text x="1112.0" y="105.0" achars="h" style="fill:black;font-family:helvetica;font-size:10.0px;">h</text>
    </g>
    <g>
     <rect x="1122.0" y="91.0" width="5.0" height="14.0" class="text" style="fill:none;stroke:red;stroke-width:0.5;"/>
     <text x="1122.0" y="105.0" achars="t" style="fill:black;font-family:helvetica;font-size:10.0px;">t</text>
    </g>
   </g>
  </g>
 </g>
</svg>
