<?xml version="1.0" encoding="UTF-8"?>
<svg height="43.0" width="956.0" xmlns="http://www.w3.org/2000/svg">
 <g class="page">
  <g class="block">
   <g class="line">
    <rect x="946.0" y="0.0" width="-771.0" height="11.0" class="space" style="fill:none;stroke:blue;stroke-width:0.5;"/>
    <rect x="177.0" y="0.0" width="-2.0" height="11.0" class="space" style="fill:none;stroke:blue;stroke-width:0.5;"/>
    <rect x="176.0" y="0.0" width="2.0" height="11.0" class="space" style="fill:none;stroke:blue;stroke-width:0.5;"/>
    <g>
     <rect x="176.0" y="0.0" width="2.0" height="11.0" class="text" style="fill:none;stroke:red;stroke-width:0.5;"/>
     <text x="176.0" y="11.0" achars="|,l,1,I" style="fill:black;font-family:helvetica;font-size:10.0px;">|</text>
    </g>
    <rect x="179.0" y="0.0" width="5.0" height="11.0" class="space" style="fill:none;stroke:blue;stroke-width:0.5;"/>
    <rect x="193.0" y="0.0" width="5.0" height="11.0" class="space" style="fill:none;stroke:blue;stroke-width:0.5;"/>
    <rect x="215.0" y="0.0" width="5.0" height="11.0" class="space" style="fill:none;stroke:blue;stroke-width:0.5;"/>
    <rect x="243.0" y="0.0" width="4.0" height="11.0" class="space" style="fill:none;stroke:blue;stroke-width:0.5;"/>
    <rect x="274.0" y="0.0" width="2.0" height="11.0" class="space" style="fill:none;stroke:blue;stroke-width:0.5;"/>
    <rect x="304.0" y="0.0" width="2.0" height="11.0" class="space" style="fill:none;stroke:blue;stroke-width:0.5;"/>
    <rect x="333.0" y="0.0" width="0.0" height="11.0" class="space" style="fill:none;stroke:blue;stroke-width:0.5;"/>
    <rect x="357.0" y="0.0" width="0.0" height="11.0" class="space" style="fill:none;stroke:blue;stroke-width:0.5;"/>
    <rect x="378.0" y="0.0" width="-2.0" height="11.0" class="space" style="fill:none;stroke:blue;stroke-width:0.5;"/>
    <rect x="393.0" y="0.0" width="-2.0" height="11.0" class="space" style="fill:none;stroke:blue;stroke-width:0.5;"/>
    <rect x="404.0" y="0.0" width="-3.0" height="11.0" class="space" style="fill:none;stroke:blue;stroke-width:0.5;"/>
    <rect x="411.0" y="0.0" width="-3.0" height="11.0" class="space" style="fill:none;stroke:blue;stroke-width:0.5;"/>
    <rect x="416.0" y="0.0" width="-3.0" height="11.0" class="space" style="fill:none;stroke:blue;stroke-width:0.5;"/>
    <rect x="419.0" y="0.0" width="-3.0" height="11.0" class="space" style="fill:none;stroke:blue;stroke-width:0.5;"/>
    <rect x="421.0" y="0.0" width="-3.0" height="11.0" class="space" style="fill:none;stroke:blue;stroke-width:0.5;"/>
    <rect x="422.0" y="0.0" width="-3.0" height="11.0" class="space" style="fill:none;stroke:blue;stroke-width:0.5;"/>
    <rect x="423.0" y="0.0" width="-4.0" height="11.0" class="space" style="fill:none;stroke:blue;stroke-width:0.5;"/>
    <rect x="423.0" y="0.0" width="-3.0" height="11.0" class="space" style="fill:none;stroke:blue;stroke-width:0.5;"/>
    <rect x="424.0" y="0.0" width="-4.0" height="11.0" class="space" style="fill:none;stroke:blue;stroke-width:0.5;"/>
    <rect x="424.0" y="0.0" width="-4.0" height="11.0" class="space" style="fill:none;stroke:blue;stroke-width:0.5;"/>
    <rect x="424.0" y="0.0" width="-4.0" height="11.0" class="space" style="fill:none;stroke:blue;stroke-width:0.5;"/>
    <rect x="424.0" y="0.0" width="-3.0" height="11.0" class="space" style="fill:none;stroke:blue;stroke-width:0.5;"/>
    <rect x="425.0" y="0.0" width="-4.0" height="11.0" class="space" style="fill:none;stroke:blue;stroke-width:0.5;"/>
    <rect x="425.0" y="0.0" width="-4.0" height="11.0" class="space" style="fill:none;stroke:blue;stroke-width:0.5;"/>
    <rect x="425.0" y="0.0" width="-4.0" height="11.0" class="space" style="fill:none;stroke:blue;stroke-width:0.5;"/>
    <rect x="425.0" y="0.0" width="-4.0" height="11.0" class="space" style="fill:none;stroke:blue;stroke-width:0.5;"/>
    <rect x="425.0" y="0.0" width="-3.0" height="11.0" class="space" style="fill:none;stroke:blue;stroke-width:0.5;"/>
    <g>
     <rect x="423.0" y="0.0" width="2.0" height="11.0" class="text" style="fill:none;stroke:red;stroke-width:0.5;"/>
     <text x="423.0" y="11.0" achars="|,l,1,I" style="fill:black;font-family:helvetica;font-size:10.0px;">|</text>
    </g>
    <rect x="426.0" y="0.0" width="5.0" height="11.0" class="space" style="fill:none;stroke:blue;stroke-width:0.5;"/>
    <rect x="440.0" y="0.0" width="5.0" height="11.0" class="space" style="fill:none;stroke:blue;stroke-width:0.5;"/>
    <rect x="462.0" y="0.0" width="5.0" height="11.0" class="space" style="fill:none;stroke:blue;stroke-width:0.5;"/>
    <rect x="490.0" y="0.0" width="4.0" height="11.0" class="space" style="fill:none;stroke:blue;stroke-width:0.5;"/>
    <rect x="521.0" y="0.0" width="2.0" height="11.0" class="space" style="fill:none;stroke:blue;stroke-width:0.5;"/>
    <rect x="551.0" y="0.0" width="2.0" height="11.0" class="space" style="fill:none;stroke:blue;stroke-width:0.5;"/>
    <rect x="580.0" y="0.0" width="0.0" height="11.0" class="space" style="fill:none;stroke:blue;stroke-width:0.5;"/>
    <rect x="604.0" y="0.0" width="0.0" height="11.0" class="space" style="fill:none;stroke:blue;stroke-width:0.5;"/>
    <rect x="625.0" y="0.0" width="-2.0" height="11.0" class="space" style="fill:none;stroke:blue;stroke-width:0.5;"/>
    <rect x="640.0" y="0.0" width="-2.0" height="11.0" class="space" style="fill:none;stroke:blue;stroke-width:0.5;"/>
    <rect x="651.0" y="0.0" width="-3.0" height="11.0" class="space" style="fill:none;stroke:blue;stroke-width:0.5;"/>
    <rect x="658.0" y="0.0" width="-3.0" height="11.0" class="space" style="fill:none;stroke:blue;stroke-width:0.5;"/>
    <rect x="663.0" y="0.0" width="-3.0" height="11.0" class="space" style="fill:none;stroke:blue;stroke-width:0.5;"/>
    <rect x="666.0" y="0.0" width="-3.0" height="11.0" class="space" style="fill:none;stroke:blue;stroke-width:0.5;"/>
    <rect x="668.0" y="0.0" width="-3.0" height="11.0" class="space" style="fill:none;stroke:blue;stroke-width:0.5;"/>
    <rect x="669.0" y="0.0" width="-3.0" height="11.0" class="space" style="fill:none;stroke:blue;stroke-width:0.5;"/>
    <rect x="670.0" y="0.0" width="-4.0" height="11.0" class="space" style="fill:none;stroke:blue;stroke-width:0.5;"/>
    <rect x="670.0" y="0.0" width="-3.0" height="11.0" class="space" style="fill:none;stroke:blue;stroke-width:0.5;"/>
    <rect x="671.0" y="0.0" width="-4.0" height="11.0" class="space" style="fill:none;stroke:blue;stroke-width:0.5;"/>
    <rect x="671.0" y="0.0" width="-4.0" height="11.0" class="space" style="fill:none;stroke:blue;stroke-width:0.5;"/>
    <rect x="671.0" y="0.0" width="-4.0" height="11.0" class="space" style="fill:none;stroke:blue;stroke-width:0.5;"/>
    <rect x="671.0" y="0.0" width="-3.0" height="11.0" class="space" style="fill:none;stroke:blue;stroke-width:0.5;"/>
    <rect x="672.0" y="0.0" width="-4.0" height="11.0" class="space" style="fill:none;stroke:blue;stroke-width:0.5;"/>
    <rect x="672.0" y="0.0" width="-4.0" height="11.0" class="space" style="fill:none;stroke:blue;stroke-width:0.5;"/>
    <rect x="672.0" y="0.0" width="-4.0" height="11.0" class="space" style="fill:none;stroke:blue;stroke-width:0.5;"/>
    <rect x="672.0" y="0.0" width="-4.0" height="11.0" class="space" style="fill:none;stroke:blue;stroke-width:0.5;"/>
    <rect x="672.0" y="0.0" width="-3.0" height="11.0" class="space" style="fill:none;stroke:blue;stroke-width:0.5;"/>
    <g>
     <rect x="670.0" y="0.0" width="2.0" height="11.0" class="text" style="fill:none;stroke:red;stroke-width:0.5;"/>
     <text x="670.0" y="11.0" achars="|,l,1,I" style="fill:black;font-family:helvetica;font-size:10.0px;">|</text>
    </g>
   </g>
   <g class="line">
    <rect x="152.0" y="30.0" width="3.0" height="3.0" class="space" style="fill:none;stroke:blue;stroke-width:0.5;"/>
    <g>
     <rect x="152.0" y="30.0" width="3.0" height="3.0" class="text" style="fill:none;stroke:red;stroke-width:0.5;"/>
     <text x="152.0" y="33.0" achars=".,ยง" style="fill:black;font-family:helvetica;font-size:10.0px;">.</text>
    </g>
    <g>
     <rect x="156.0" y="19.0" width="9.0" height="13.0" class="text" style="fill:none;stroke:red;stroke-width:0.5;"/>
     <text x="156.0" y="32.0" achars="O,0" style="fill:black;font-family:helvetica;font-size:10.0px;">O</text>
    </g>
    <g>
     <rect x="166.0" y="19.0" width="8.0" height="13.0" class="text" style="fill:none;stroke:red;stroke-width:0.5;"/>
     <text x="166.0" y="32.0" achars="O,0,a" style="fill:black;font-family:helvetica;font-size:10.0px;">O</text>
    </g>
    <g>
     <rect x="176.0" y="20.0" width="6.0" height="12.0" class="text" style="fill:none;stroke:red;stroke-width:0.5;"/>
     <text x="176.0" y="32.0" achars="t" style="fill:black;font-family:helvetica;font-size:10.0px;">t</text>
    </g>
    <g>
     <rect x="185.0" y="19.0" width="9.0" height="13.0" class="text" style="fill:none;stroke:red;stroke-width:0.5;"/>
     <text x="185.0" y="32.0" achars="O,0,a" style="fill:black;font-family:helvetica;font-size:10.0px;">O</text>
    </g>
    <g>
     <rect x="195.0" y="19.0" width="8.0" height="13.0" class="text" style="fill:none;stroke:red;stroke-width:0.5;"/>
     <text x="195.0" y="32.0" achars="9,g,0" style="fill:black;font-family:helvetica;font-size:10.0px;">9</text>
    </g>
    <rect x="204.0" y="19.0" width="6.0" height="13.0" class="space" style="fill:none;stroke:blue;stroke-width:0.5;"/>
    <rect x="221.0" y="19.0" width="6.0" height="13.0" class="space" style="fill:none;stroke:blue;stroke-width:0.5;"/>
    <rect x="246.0" y="19.0" width="6.0" height="13.0" class="space" style="fill:none;stroke:blue;stroke-width:0.5;"/>
    <rect x="277.0" y="19.0" width="4.0" height="13.0" class="space" style="fill:none;stroke:blue;stroke-width:0.5;"/>
    <rect x="309.0" y="19.0" width="2.0" height="13.0" class="space" style="fill:none;stroke:blue;stroke-width:0.5;"/>
    <rect x="338.0" y="19.0" width="2.0" height="13.0" class="space" style="fill:none;stroke:blue;stroke-width:0.5;"/>
    <rect x="364.0" y="19.0" width="0.0" height="13.0" class="space" style="fill:none;stroke:blue;stroke-width:0.5;"/>
    <rect x="384.0" y="19.0" width="-1.0" height="13.0" class="space" style="fill:none;stroke:blue;stroke-width:0.5;"/>
    <rect x="399.0" y="19.0" width="-2.0" height="13.0" class="space" style="fill:none;stroke:blue;stroke-width:0.5;"/>
    <rect x="409.0" y="19.0" width="-3.0" height="13.0" class="space" style="fill:none;stroke:blue;stroke-width:0.5;"/>
    <rect x="415.0" y="19.0" width="-4.0" height="13.0" class="space" style="fill:none;stroke:blue;stroke-width:0.5;"/>
    <rect x="418.0" y="19.0" width="-4.0" height="13.0" class="space" style="fill:none;stroke:blue;stroke-width:0.5;"/>
    <rect x="420.0" y="19.0" width="-4.0" height="13.0" class="space" style="fill:none;stroke:blue;stroke-width:0.5;"/>
    <rect x="421.0" y="19.0" width="-4.0" height="13.0" class="space" style="fill:none;stroke:blue;stroke-width:0.5;"/>
    <rect x="422.0" y="19.0" width="-4.0" height="13.0" class="space" style="fill:none;stroke:blue;stroke-width:0.5;"/>
    <rect x="422.0" y="19.0" width="-4.0" height="13.0" class="space" style="fill:none;stroke:blue;stroke-width:0.5;"/>
    <rect x="422.0" y="19.0" width="-3.0" height="13.0" class="space" style="fill:none;stroke:blue;stroke-width:0.5;"/>
    <rect x="423.0" y="19.0" width="-4.0" height="13.0" class="space" style="fill:none;stroke:blue;stroke-width:0.5;"/>
    <rect x="423.0" y="19.0" width="-4.0" height="13.0" class="space" style="fill:none;stroke:blue;stroke-width:0.5;"/>
    <rect x="423.0" y="19.0" width="-4.0" height="13.0" class="space" style="fill:none;stroke:blue;stroke-width:0.5;"/>
    <rect x="423.0" y="19.0" width="-3.0" height="13.0" class="space" style="fill:none;stroke:blue;stroke-width:0.5;"/>
    <g>
     <rect x="421.0" y="19.0" width="5.0" height="13.0" class="text" style="fill:none;stroke:red;stroke-width:0.5;"/>
     <text x="421.0" y="32.0" achars="1" style="fill:black;font-family:helvetica;font-size:10.0px;">1</text>
    </g>
    <rect x="427.0" y="19.0" width="6.0" height="13.0" class="space" style="fill:none;stroke:blue;stroke-width:0.5;"/>
    <rect x="443.0" y="19.0" width="6.0" height="13.0" class="space" style="fill:none;stroke:blue;stroke-width:0.5;"/>
    <rect x="468.0" y="19.0" width="5.0" height="13.0" class="space" style="fill:none;stroke:blue;stroke-width:0.5;"/>
    <rect x="498.0" y="19.0" width="4.0" height="13.0" class="space" style="fill:none;stroke:blue;stroke-width:0.5;"/>
    <rect x="530.0" y="19.0" width="3.0" height="13.0" class="space" style="fill:none;stroke:blue;stroke-width:0.5;"/>
    <rect x="561.0" y="19.0" width="1.0" height="13.0" class="space" style="fill:none;stroke:blue;stroke-width:0.5;"/>
    <rect x="588.0" y="19.0" width="0.0" height="13.0" class="space" style="fill:none;stroke:blue;stroke-width:0.5;"/>
    <rect x="610.0" y="19.0" width="-1.0" height="13.0" class="space" style="fill:none;stroke:blue;stroke-width:0.5;"/>
    <rect x="627.0" y="19.0" width="-2.0" height="13.0" class="space" style="fill:none;stroke:blue;stroke-width:0.5;"/>
    <rect x="639.0" y="19.0" width="-3.0" height="13.0" class="space" style="fill:none;stroke:blue;stroke-width:0.5;"/>
    <rect x="647.0" y="19.0" width="-3.0" height="13.0" class="space" style="fill:none;stroke:blue;stroke-width:0.5;"/>
    <rect x="652.0" y="19.0" width="-4.0" height="13.0" class="space" style="fill:none;stroke:blue;stroke-width:0.5;"/>
    <rect x="654.0" y="19.0" width="-3.0" height="13.0" class="space" style="fill:none;stroke:blue;stroke-width:0.5;"/>
    <rect x="656.0" y="19.0" width="-4.0" height="13.0" class="space" style="fill:none;stroke:blue;stroke-width:0.5;"/>
    <rect x="657.0" y="19.0" width="-4.0" height="13.0" class="space" style="fill:none;stroke:blue;stroke-width:0.5;"/>
    <rect x="657.0" y="19.0" width="-3.0" height="13.0" class="space" style="fill:none;stroke:blue;stroke-width:0.5;"/>
    <rect x="658.0" y="19.0" width="-4.0" height="13.0" class="space" style="fill:none;stroke:blue;stroke-width:0.5;"/>
    <rect x="658.0" y="19.0" width="-4.0" height="13.0" class="space" style="fill:none;stroke:blue;stroke-width:0.5;"/>
    <rect x="658.0" y="19.0" width="-3.0" height="13.0" class="space" style="fill:none;stroke:blue;stroke-width:0.5;"/>
    <rect x="659.0" y="19.0" width="-4.0" height="13.0" class="space" style="fill:none;stroke:blue;stroke-width:0.5;"/>
    <rect x="659.0" y="19.0" width="-4.0" height="13.0" class="space" style="fill:none;stroke:blue;stroke-width:0.5;"/>
    <rect x="659.0" y="19.0" width="-4.0" height="13.0" class="space" style="fill:none;stroke:blue;stroke-width:0.5;"/>
    <rect x="659.0" y="19.0" width="-3.0" height="13.0" class="space" style="fill:none;stroke:blue;stroke-width:0.5;"/>
    <g>
     <rect x="657.0" y="19.0" width="9.0" height="13.0" class="text" style="fill:none;stroke:red;stroke-width:0.5;"/>
     <text x="657.0" y="32.0" achars="9,g,0" style="fill:black;font-family:helvetica;font-size:10.0px;">9</text>
    </g>
    <g>
     <rect x="668.0" y="20.0" width="5.0" height="12.0" class="text" style="fill:none;stroke:red;stroke-width:0.5;"/>
     <text x="668.0" y="32.0" achars="" style="fill:black;font-family:helvetica;font-size:10.0px;">?</text>
    </g>
    <g>
     <rect x="676.0" y="20.0" width="9.0" height="12.0" class="text" style="fill:none;stroke:red;stroke-width:0.5;"/>
     <text x="676.0" y="32.0" achars="4,0,q" style="fill:black;font-family:helvetica;font-size:10.0px;">4</text>
    </g>
   </g>
  </g>
 </g>
</svg>
