<?xml version="1.0" encoding="UTF-8"?>
<svg height="141.0" width="1242.0" xmlns="http://www.w3.org/2000/svg">
 <g class="page">
  <g class="block">
   <g class="line">
    <rect x="70.0" y="74.0" width="10.0" height="15.0" class="space" style="fill:none;stroke:blue;stroke-width:0.5;"/>
    <g>
     <rect x="70.0" y="74.0" width="10.0" height="15.0" class="text" style="fill:none;stroke:red;stroke-width:0.5;"/>
     <text x="70.0" y="89.0" achars="5,S" style="fill:black;font-family:helvetica;font-size:10.0px;">5</text>
    </g>
    <g>
     <rect x="80.0" y="75.0" width="7.0" height="14.0" class="text" style="fill:none;stroke:red;stroke-width:0.5;"/>
     <text x="80.0" y="89.0" achars="t" style="fill:black;font-family:helvetica;font-size:10.0px;">t</text>
    </g>
    <g>
     <rect x="89.0" y="78.0" width="10.0" height="11.0" class="text" style="fill:none;stroke:red;stroke-width:0.5;"/>
     <text x="89.0" y="89.0" achars="u" style="fill:black;font-family:helvetica;font-size:10.0px;">u</text>
    </g>
    <g>
     <rect x="100.0" y="73.0" width="11.0" height="16.0" class="text" style="fill:none;stroke:red;stroke-width:0.5;"/>
     <text x="100.0" y="89.0" achars="d" style="fill:black;font-family:helvetica;font-size:10.0px;">d</text>
    </g>
    <g>
     <rect x="112.0" y="78.0" width="10.0" height="16.0" class="text" style="fill:none;stroke:red;stroke-width:0.5;"/>
     <text x="112.0" y="94.0" achars="y" style="fill:black;font-family:helvetica;font-size:10.0px;">y</text>
    </g>
    <rect x="123.0" y="74.0" width="7.0" height="9.0" class="space" style="fill:none;stroke:blue;stroke-width:0.5;"/>
    <rect x="142.0" y="74.0" width="7.0" height="9.0" class="space" style="fill:none;stroke:blue;stroke-width:0.5;"/>
    <rect x="171.0" y="74.0" width="7.0" height="9.0" class="space" style="fill:none;stroke:blue;stroke-width:0.5;"/>
    <rect x="210.0" y="74.0" width="7.0" height="9.0" class="space" style="fill:none;stroke:blue;stroke-width:0.5;"/>
    <rect x="258.0" y="74.0" width="6.0" height="9.0" class="space" style="fill:none;stroke:blue;stroke-width:0.5;"/>
    <rect x="313.0" y="74.0" width="5.0" height="9.0" class="space" style="fill:none;stroke:blue;stroke-width:0.5;"/>
    <rect x="373.0" y="74.0" width="5.0" height="9.0" class="space" style="fill:none;stroke:blue;stroke-width:0.5;"/>
    <rect x="437.0" y="74.0" width="5.0" height="9.0" class="space" style="fill:none;stroke:blue;stroke-width:0.5;"/>
    <rect x="504.0" y="74.0" width="4.0" height="9.0" class="space" style="fill:none;stroke:blue;stroke-width:0.5;"/>
    <rect x="572.0" y="74.0" width="3.0" height="9.0" class="space" style="fill:none;stroke:blue;stroke-width:0.5;"/>
    <rect x="639.0" y="74.0" width="2.0" height="9.0" class="space" style="fill:none;stroke:blue;stroke-width:0.5;"/>
    <rect x="703.0" y="74.0" width="2.0" height="9.0" class="space" style="fill:none;stroke:blue;stroke-width:0.5;"/>
    <rect x="765.0" y="74.0" width="1.0" height="9.0" class="space" style="fill:none;stroke:blue;stroke-width:0.5;"/>
    <rect x="822.0" y="74.0" width="0.0" height="9.0" class="space" style="fill:none;stroke:blue;stroke-width:0.5;"/>
    <rect x="874.0" y="74.0" width="0.0" height="9.0" class="space" style="fill:none;stroke:blue;stroke-width:0.5;"/>
    <rect x="921.0" y="74.0" width="0.0" height="9.0" class="space" style="fill:none;stroke:blue;stroke-width:0.5;"/>
    <rect x="964.0" y="74.0" width="-2.0" height="9.0" class="space" style="fill:none;stroke:blue;stroke-width:0.5;"/>
    <rect x="1000.0" y="74.0" width="-2.0" height="9.0" class="space" style="fill:none;stroke:blue;stroke-width:0.5;"/>
    <rect x="1031.0" y="74.0" width="-2.0" height="9.0" class="space" style="fill:none;stroke:blue;stroke-width:0.5;"/>
    <rect x="1058.0" y="74.0" width="-3.0" height="9.0" class="space" style="fill:none;stroke:blue;stroke-width:0.5;"/>
    <rect x="1080.0" y="74.0" width="-3.0" height="9.0" class="space" style="fill:none;stroke:blue;stroke-width:0.5;"/>
    <rect x="1098.0" y="74.0" width="-3.0" height="9.0" class="space" style="fill:none;stroke:blue;stroke-width:0.5;"/>
    <rect x="1113.0" y="74.0" width="-4.0" height="9.0" class="space" style="fill:none;stroke:blue;stroke-width:0.5;"/>
    <rect x="1124.0" y="74.0" width="-3.0" height="9.0" class="space" style="fill:none;stroke:blue;stroke-width:0.5;"/>
    <rect x="1134.0" y="74.0" width="-4.0" height="9.0" class="space" style="fill:none;stroke:blue;stroke-width:0.5;"/>
    <rect x="1141.0" y="74.0" width="-4.0" height="9.0" class="space" style="fill:none;stroke:blue;stroke-width:0.5;"/>
    <rect x="1146.0" y="74.0" width="-4.0" height="9.0" class="space" style="fill:none;stroke:blue;stroke-width:0.5;"/>
    <rect x="1150.0" y="74.0" width="-4.0" height="9.0" class="space" style="fill:none;stroke:blue;stroke-width:0.5;"/>
    <rect x="1153.0" y="74.0" width="-4.0" height="9.0" class="space" style="fill:none;stroke:blue;stroke-width:0.5;"/>
    <rect x="1155.0" y="74.0" width="-3.0" height="9.0" class="space" style="fill:none;stroke:blue;stroke-width:0.5;"/>
    <rect x="1158.0" y="74.0" width="-4.0" height="9.0" class="space" style="fill:none;stroke:blue;stroke-width:0.5;"/>
    <rect x="1159.0" y="74.0" width="-4.0" height="9.0" class="space" style="fill:none;stroke:blue;stroke-width:0.5;"/>
    <rect x="1160.0" y="74.0" width="-4.0" height="9.0" class="space" style="fill:none;stroke:blue;stroke-width:0.5;"/>
    <rect x="1161.0" y="74.0" width="-4.0" height="9.0" class="space" style="fill:none;stroke:blue;stroke-width:0.5;"/>
    <rect x="1161.0" y="74.0" width="-3.0" height="9.0" class="space" style="fill:none;stroke:blue;stroke-width:0.5;"/>
    <rect x="1162.0" y="74.0" width="-4.0" height="9.0" class="space" style="fill:none;stroke:blue;stroke-width:0.5;"/>
    <rect x="1162.0" y="74.0" width="-4.0" height="9.0" class="space" style="fill:none;stroke:blue;stroke-width:0.5;"/>
    <rect x="1162.0" y="74.0" width="-3.0" height="9.0" class="space" style="fill:none;stroke:blue;stroke-width:0.5;"/>
    <rect x="1163.0" y="74.0" width="-4.0" height="9.0" class="space" style="fill:none;stroke:blue;stroke-width:0.5;"/>
    <rect x="1163.0" y="74.0" width="-4.0" height="9.0" class="space" style="fill:none;stroke:blue;stroke-width:0.5;"/>
    <rect x="1163.0" y="74.0" width="-4.0" height="9.0" class="space" style="fill:none;stroke:blue;stroke-width:0.5;"/>
    <rect x="1163.0" y="74.0" width="-3.0" height="9.0" class="space" style="fill:none;stroke:blue;stroke-width:0.5;"/>
    <rect x="1164.0" y="74.0" width="-4.0" height="9.0" class="space" style="fill:none;stroke:blue;stroke-width:0.5;"/>
    <rect x="1164.0" y="74.0" width="-4.0" height="9.0" class="space" style="fill:none;stroke:blue;stroke-width:0.5;"/>
    <rect x="1164.0" y="74.0" width="-4.0" height="9.0" class="space" style="fill:none;stroke:blue;stroke-width:0.5;"/>
    <rect x="1164.0" y="74.0" width="-4.0" height="9.0" class="space" style="fill:none;stroke:blue;stroke-width:0.5;"/>
    <rect x="1164.0" y="74.0" width="-3.0" height="9.0" class="space" style="fill:none;stroke:blue;stroke-width:0.5;"/>
    <rect x="1165.0" y="74.0" width="-4.0" height="9.0" class="space" style="fill:none;stroke:blue;stroke-width:0.5;"/>
    <rect x="1165.0" y="74.0" width="-4.0" height="9.0" class="space" style="fill:none;stroke:blue;stroke-width:0.5;"/>
    <rect x="1165.0" y="74.0" width="-4.0" height="9.0" class="space" style="fill:none;stroke:blue;stroke-width:0.5;"/>
    <rect x="1165.0" y="74.0" width="-4.0" height="9.0" class="space" style="fill:none;stroke:blue;stroke-width:0.5;"/>
    <rect x="1165.0" y="74.0" width="-4.0" height="9.0" class="space" style="fill:none;stroke:blue;stroke-width:0.5;"/>
    <rect x="1165.0" y="74.0" width="-4.0" height="9.0" class="space" style="fill:none;stroke:blue;stroke-width:0.5;"/>
    <rect x="1165.0" y="74.0" width="-3.0" height="9.0" class="space" style="fill:none;stroke:blue;stroke-width:0.5;"/>
    <rect x="1166.0" y="74.0" width="-4.0" height="9.0" class="space" style="fill:none;stroke:blue;stroke-width:0.5;"/>
    <rect x="1166.0" y="74.0" width="-4.0" height="9.0" class="space" style="fill:none;stroke:blue;stroke-width:0.5;"/>
    <rect x="1166.0" y="74.0" width="-4.0" height="9.0" class="space" style="fill:none;stroke:blue;stroke-width:0.5;"/>
    <rect x="1166.0" y="74.0" width="-4.0" height="9.0" class="space" style="fill:none;stroke:blue;stroke-width:0.5;"/>
    <rect x="1166.0" y="74.0" width="-4.0" height="9.0" class="space" style="fill:none;stroke:blue;stroke-width:0.5;"/>
    <rect x="1166.0" y="74.0" width="-4.0" height="9.0" class="space" style="fill:none;stroke:blue;stroke-width:0.5;"/>
    <rect x="1166.0" y="74.0" width="-4.0" height="9.0" class="space" style="fill:none;stroke:blue;stroke-width:0.5;"/>
    <rect x="1166.0" y="74.0" width="-4.0" height="9.0" class="space" style="fill:none;stroke:blue;stroke-width:0.5;"/>
    <rect x="1166.0" y="74.0" width="-3.0" height="9.0" class="space" style="fill:none;stroke:blue;stroke-width:0.5;"/>
    <rect x="1167.0" y="74.0" width="-4.0" height="9.0" class="space" style="fill:none;stroke:blue;stroke-width:0.5;"/>
    <rect x="1167.0" y="74.0" width="-4.0" height="9.0" class="space" style="fill:none;stroke:blue;stroke-width:0.5;"/>
    <rect x="1167.0" y="74.0" width="-4.0" height="9.0" class="space" style="fill:none;stroke:blue;stroke-width:0.5;"/>
    <rect x="1167.0" y="74.0" width="-4.0" height="9.0" class="space" style="fill:none;stroke:blue;stroke-width:0.5;"/>
    <rect x="1167.0" y="74.0" width="-4.0" height="9.0" class="space" style="fill:none;stroke:blue;stroke-width:0.5;"/>
    <rect x="1167.0" y="74.0" width="-4.0" height="9.0" class="space" style="fill:none;stroke:blue;stroke-width:0.5;"/>
    <rect x="1167.0" y="74.0" width="-4.0" height="9.0" class="space" style="fill:none;stroke:blue;stroke-width:0.5;"/>
    <rect x="1167.0" y="74.0" width="-4.0" height="9.0" class="space" style="fill:none;stroke:blue;stroke-width:0.5;"/>
    <rect x="1167.0" y="74.0" width="-4.0" height="9.0" class="space" style="fill:none;stroke:blue;stroke-width:0.5;"/>
    <rect x="1167.0" y="74.0" width="-4.0" height="9.0" class="space" style="fill:none;stroke:blue;stroke-width:0.5;"/>
    <rect x="1167.0" y="74.0" width="-4.0" height="9.0" class="space" style="fill:none;stroke:blue;stroke-width:0.5;"/>
    <rect x="1167.0" y="74.0" width="-4.0" height="9.0" class="space" style="fill:none;stroke:blue;stroke-width:0.5;"/>
    <rect x="1167.0" y="74.0" width="-3.0" height="9.0" class="space" style="fill:none;stroke:blue;stroke-width:0.5;"/>
    <rect x="1168.0" y="74.0" width="-4.0" height="9.0" class="space" style="fill:none;stroke:blue;stroke-width:0.5;"/>
    <rect x="1168.0" y="74.0" width="-4.0" height="9.0" class="space" style="fill:none;stroke:blue;stroke-width:0.5;"/>
    <rect x="1168.0" y="74.0" width="-4.0" height="9.0" class="space" style="fill:none;stroke:blue;stroke-width:0.5;"/>
    <rect x="1168.0" y="74.0" width="-4.0" height="9.0" class="space" style="fill:none;stroke:blue;stroke-width:0.5;"/>
    <rect x="1168.0" y="74.0" width="-4.0" height="9.0" class="space" style="fill:none;stroke:blue;stroke-width:0.5;"/>
    <rect x="1168.0" y="74.0" width="-4.0" height="9.0" class="space" style="fill:none;stroke:blue;stroke-width:0.5;"/>
    <rect x="1168.0" y="74.0" width="-4.0" height="9.0" class="space" style="fill:none;stroke:blue;stroke-width:0.5;"/>
    <rect x="1168.0" y="74.0" width="-4.0" height="9.0" class="space" style="fill:none;stroke:blue;stroke-width:0.5;"/>
    <rect x="1168.0" y="74.0" width="-4.0" height="9.0" class="space" style="fill:none;stroke:blue;stroke-width:0.5;"/>
    <rect x="1168.0" y="74.0" width="-4.0" height="9.0" class="space" style="fill:none;stroke:blue;stroke-width:0.5;"/>
    <rect x="1168.0" y="74.0" width="-4.0" height="9.0" class="space" style="fill:none;stroke:blue;stroke-width:0.5;"/>
    <rect x="1168.0" y="74.0" width="-4.0" height="9.0" class="space" style="fill:none;stroke:blue;stroke-width:0.5;"/>
    <rect x="1168.0" y="74.0" width="-4.0" height="9.0" class="space" style="fill:none;stroke:blue;stroke-width:0.5;"/>
    <rect x="1168.0" y="74.0" width="-4.0" height="9.0" class="space" style="fill:none;stroke:blue;stroke-width:0.5;"/>
    <rect x="1168.0" y="74.0" width="-4.0" height="9.0" class="space" style="fill:none;stroke:blue;stroke-width:0.5;"/>
    <rect x="1168.0" y="74.0" width="-4.0" height="9.0" class="space" style="fill:none;stroke:blue;stroke-width:0.5;"/>
    <rect x="1168.0" y="74.0" width="-4.0" height="9.0" class="space" style="fill:none;stroke:blue;stroke-width:0.5;"/>
    <rect x="1168.0" y="74.0" width="-3.0" height="9.0" class="space" style="fill:none;stroke:blue;stroke-width:0.5;"/>
    <g>
     <rect x="1166.0" y="74.0" width="7.0" height="9.0" class="text" style="fill:none;stroke:red;stroke-width:0.5;"/>
     <text x="1166.0" y="83.0" achars="O,0,a,&quot;" style="fill:black;font-family:helvetica;font-size:10.0px;">O</text>
    </g>
    <g>
     <rect x="1169.0" y="74.0" width="13.0" height="15.0" class="text" style="fill:none;stroke:red;stroke-width:0.5;"/>
     <text x="1169.0" y="89.0" achars="" style="fill:black;font-family:helvetica;font-size:10.0px;">?</text>
    </g>
   </g>
   <g class="line">
    <rect x="71.0" y="104.0" width="3.0" height="16.0" class="space" style="fill:none;stroke:blue;stroke-width:0.5;"/>
    <g>
     <rect x="71.0" y="104.0" width="3.0" height="16.0" class="text" style="fill:none;stroke:red;stroke-width:0.5;"/>
     <text x="71.0" y="120.0" achars="l,f" style="fill:black;font-family:helvetica;font-size:10.0px;">l</text>
    </g>
    <g>
     <rect x="76.0" y="104.0" width="13.0" height="16.0" class="text" style="fill:none;stroke:red;stroke-width:0.5;"/>
     <text x="76.0" y="120.0" achars="D" style="fill:black;font-family:helvetica;font-size:10.0px;">D</text>
    </g>
    <rect x="90.0" y="103.0" width="12.0" height="28.0" class="space" style="fill:none;stroke:blue;stroke-width:0.5;"/>
    <rect x="119.0" y="103.0" width="12.0" height="28.0" class="space" style="fill:none;stroke:blue;stroke-width:0.5;"/>
    <rect x="161.0" y="103.0" width="11.0" height="28.0" class="space" style="fill:none;stroke:blue;stroke-width:0.5;"/>
    <rect x="211.0" y="103.0" width="9.0" height="28.0" class="space" style="fill:none;stroke:blue;stroke-width:0.5;"/>
    <rect x="262.0" y="103.0" width="6.0" height="28.0" class="space" style="fill:none;stroke:blue;stroke-width:0.5;"/>
    <rect x="308.0" y="103.0" width="4.0" height="28.0" class="space" style="fill:none;stroke:blue;stroke-width:0.5;"/>
    <rect x="347.0" y="103.0" width="2.0" height="28.0" class="space" style="fill:none;stroke:blue;stroke-width:0.5;"/>
    <rect x="377.0" y="103.0" width="0.0" height="28.0" class="space" style="fill:none;stroke:blue;stroke-width:0.5;"/>
    <rect x="398.0" y="103.0" width="-2.0" height="28.0" class="space" style="fill:none;stroke:blue;stroke-width:0.5;"/>
    <rect x="410.0" y="103.0" width="-2.0" height="28.0" class="space" style="fill:none;stroke:blue;stroke-width:0.5;"/>
    <rect x="418.0" y="103.0" width="-3.0" height="28.0" class="space" style="fill:none;stroke:blue;stroke-width:0.5;"/>
    <rect x="422.0" y="103.0" width="-3.0" height="28.0" class="space" style="fill:none;stroke:blue;stroke-width:0.5;"/>
    <rect x="424.0" y="103.0" width="-3.0" height="28.0" class="space" style="fill:none;stroke:blue;stroke-width:0.5;"/>
    <rect x="425.0" y="103.0" width="-3.0" height="28.0" class="space" style="fill:none;stroke:blue;stroke-width:0.5;"/>
    <rect x="426.0" y="103.0" width="-4.0" height="28.0" class="space" style="fill:none;stroke:blue;stroke-width:0.5;"/>
    <rect x="426.0" y="103.0" width="-3.0" height="28.0" class="space" style="fill:none;stroke:blue;stroke-width:0.5;"/>
    <rect x="427.0" y="103.0" width="-4.0" height="28.0" class="space" style="fill:none;stroke:blue;stroke-width:0.5;"/>
    <rect x="427.0" y="103.0" width="-4.0" height="28.0" class="space" style="fill:none;stroke:blue;stroke-width:0.5;"/>
    <rect x="427.0" y="103.0" width="-4.0" height="28.0" class="space" style="fill:none;stroke:blue;stroke-width:0.5;"/>
    <rect x="427.0" y="103.0" width="-3.0" height="28.0" class="space" style="fill:none;stroke:blue;stroke-width:0.5;"/>
    <g>
     <rect x="425.0" y="103.0" width="23.0" height="28.0" class="text" style="fill:none;stroke:red;stroke-width:0.5;"/>
     <text x="425.0" y="131.0" achars="A" style="fill:black;font-family:helvetica;font-size:10.0px;">A</text>
    </g>
    <g>
     <rect x="450.0" y="102.0" width="21.0" height="29.0" class="text" style="fill:none;stroke:red;stroke-width:0.5;"/>
     <text x="450.0" y="131.0" achars="C" style="fill:black;font-family:helvetica;font-size:10.0px;">C</text>
    </g>
    <g>
     <rect x="475.0" y="102.0" width="18.0" height="29.0" class="text" style="fill:none;stroke:red;stroke-width:0.5;"/>
     <text x="475.0" y="131.0" achars="B,8" style="fill:black;font-family:helvetica;font-size:10.0px;">B</text>
    </g>
    <g>
     <rect x="496.0" y="108.0" width="21.0" height="23.0" class="text" style="fill:none;stroke:red;stroke-width:0.5;"/>
     <text x="496.0" y="131.0" achars="+,t" style="fill:black;font-family:helvetica;font-size:10.0px;">+</text>
    </g>
    <g>
     <rect x="521.0" y="103.0" width="16.0" height="28.0" class="text" style="fill:none;stroke:red;stroke-width:0.5;"/>
     <text x="521.0" y="131.0" achars="L" style="fill:black;font-family:helvetica;font-size:10.0px;">L</text>
    </g>
    <g>
     <rect x="540.0" y="103.0" width="4.0" height="28.0" class="text" style="fill:none;stroke:red;stroke-width:0.5;"/>
     <text x="540.0" y="131.0" achars="l,I,|,1" style="fill:black;font-family:helvetica;font-size:10.0px;">l</text>
    </g>
    <g>
     <rect x="548.0" y="102.0" width="23.0" height="29.0" class="text" style="fill:none;stroke:red;stroke-width:0.5;"/>
     <text x="548.0" y="131.0" achars="A" style="fill:black;font-family:helvetica;font-size:10.0px;">A</text>
    </g>
    <rect x="572.0" y="103.0" width="13.0" height="28.0" class="space" style="fill:none;stroke:blue;stroke-width:0.5;"/>
    <rect x="601.0" y="103.0" width="11.0" height="28.0" class="space" style="fill:none;stroke:blue;stroke-width:0.5;"/>
    <rect x="636.0" y="103.0" width="7.0" height="28.0" class="space" style="fill:none;stroke:blue;stroke-width:0.5;"/>
    <rect x="665.0" y="103.0" width="3.0" height="28.0" class="space" style="fill:none;stroke:blue;stroke-width:0.5;"/>
    <rect x="683.0" y="103.0" width="-1.0" height="28.0" class="space" style="fill:none;stroke:blue;stroke-width:0.5;"/>
    <rect x="690.0" y="103.0" width="-2.0" height="28.0" class="space" style="fill:none;stroke:blue;stroke-width:0.5;"/>
    <rect x="693.0" y="103.0" width="-3.0" height="28.0" class="space" style="fill:none;stroke:blue;stroke-width:0.5;"/>
    <g>
     <rect x="691.0" y="103.0" width="16.0" height="28.0" class="text" style="fill:none;stroke:red;stroke-width:0.5;"/>
     <text x="691.0" y="131.0" achars="L" style="fill:black;font-family:helvetica;font-size:10.0px;">L</text>
    </g>
    <g>
     <rect x="710.0" y="102.0" width="5.0" height="29.0" class="text" style="fill:none;stroke:red;stroke-width:0.5;"/>
     <text x="710.0" y="131.0" achars="I,l,1" style="fill:black;font-family:helvetica;font-size:10.0px;">I</text>
    </g>
    <g>
     <rect x="718.0" y="102.0" width="23.0" height="29.0" class="text" style="fill:none;stroke:red;stroke-width:0.5;"/>
     <text x="718.0" y="131.0" achars="A" style="fill:black;font-family:helvetica;font-size:10.0px;">A</text>
    </g>
    <rect x="742.0" y="104.0" width="13.0" height="16.0" class="space" style="fill:none;stroke:blue;stroke-width:0.5;"/>
    <rect x="771.0" y="104.0" width="12.0" height="16.0" class="space" style="fill:none;stroke:blue;stroke-width:0.5;"/>
    <rect x="811.0" y="104.0" width="9.0" height="16.0" class="space" style="fill:none;stroke:blue;stroke-width:0.5;"/>
    <rect x="852.0" y="104.0" width="6.0" height="16.0" class="space" style="fill:none;stroke:blue;stroke-width:0.5;"/>
    <rect x="888.0" y="104.0" width="3.0" height="16.0" class="space" style="fill:none;stroke:blue;stroke-width:0.5;"/>
    <rect x="914.0" y="104.0" width="1.0" height="16.0" class="space" style="fill:none;stroke:blue;stroke-width:0.5;"/>
    <rect x="931.0" y="104.0" width="-2.0" height="16.0" class="space" style="fill:none;stroke:blue;stroke-width:0.5;"/>
    <rect x="939.0" y="104.0" width="-3.0" height="16.0" class="space" style="fill:none;stroke:blue;stroke-width:0.5;"/>
    <rect x="943.0" y="104.0" width="-4.0" height="16.0" class="space" style="fill:none;stroke:blue;stroke-width:0.5;"/>
    <rect x="944.0" y="104.0" width="-3.0" height="16.0" class="space" style="fill:none;stroke:blue;stroke-width:0.5;"/>
    <rect x="945.0" y="104.0" width="-4.0" height="16.0" class="space" style="fill:none;stroke:blue;stroke-width:0.5;"/>
    <rect x="945.0" y="104.0" width="-3.0" height="16.0" class="space" style="fill:none;stroke:blue;stroke-width:0.5;"/>
    <g>
     <rect x="943.0" y="104.0" width="18.0" height="16.0" class="text" style="fill:none;stroke:red;stroke-width:0.5;"/>
     <text x="943.0" y="120.0" achars="W" style="fill:black;font-family:helvetica;font-size:10.0px;">W</text>
    </g>
    <g>
     <rect x="962.0" y="104.0" width="16.0" height="16.0" class="text" style="fill:none;stroke:red;stroke-width:0.5;"/>
     <text x="962.0" y="120.0" achars="M,m" style="fill:black;font-family:helvetica;font-size:10.0px;">M</text>
    </g>
    <g>
     <rect x="980.0" y="104.0" width="13.0" height="16.0" class="text" style="fill:none;stroke:red;stroke-width:0.5;"/>
     <text x="980.0" y="120.0" achars="D" style="fill:black;font-family:helvetica;font-size:10.0px;">D</text>
    </g>
    <rect x="994.0" y="104.0" width="4.0" height="18.0" class="space" style="fill:none;stroke:blue;stroke-width:0.5;"/>
    <g>
     <rect x="999.0" y="104.0" width="4.0" height="18.0" class="text" style="fill:none;stroke:red;stroke-width:0.5;"/>
     <text x="999.0" y="122.0" achars="(" style="fill:black;font-family:helvetica;font-size:10.0px;">(</text>
    </g>
    <g>
     <rect x="1005.0" y="104.0" width="10.0" height="16.0" class="text" style="fill:none;stroke:red;stroke-width:0.5;"/>
     <text x="1005.0" y="120.0" achars="9,g" style="fill:black;font-family:helvetica;font-size:10.0px;">9</text>
    </g>
    <g>
     <rect x="1016.0" y="105.0" width="9.0" height="15.0" class="text" style="fill:none;stroke:red;stroke-width:0.5;"/>
     <text x="1016.0" y="120.0" achars="5,S" style="fill:black;font-family:helvetica;font-size:10.0px;">5</text>
    </g>
    <g>
     <rect x="1027.0" y="104.0" width="7.0" height="10.0" class="text" style="fill:none;stroke:red;stroke-width:0.5;"/>
     <text x="1027.0" y="114.0" achars="4,O,0,a,&quot;" style="fill:black;font-family:helvetica;font-size:10.0px;">4</text>
    </g>
    <g>
     <rect x="1030.0" y="104.0" width="10.0" height="16.0" class="text" style="fill:none;stroke:red;stroke-width:0.5;"/>
     <text x="1030.0" y="120.0" achars="/" style="fill:black;font-family:helvetica;font-size:10.0px;">/</text>
    </g>
    <g>
     <rect x="1036.0" y="110.0" width="8.0" height="10.0" class="text" style="fill:none;stroke:red;stroke-width:0.5;"/>
     <text x="1036.0" y="120.0" achars="o,0" style="fill:black;font-family:helvetica;font-size:10.0px;">o</text>
    </g>
    <g>
     <rect x="1049.0" y="104.0" width="12.0" height="16.0" class="text" style="fill:none;stroke:red;stroke-width:0.5;"/>
     <text x="1049.0" y="120.0" achars="C" style="fill:black;font-family:helvetica;font-size:10.0px;">C</text>
    </g>
    <g>
     <rect x="1063.0" y="104.0" width="2.0" height="16.0" class="text" style="fill:none;stroke:red;stroke-width:0.5;"/>
     <text x="1063.0" y="120.0" achars="l,I,|,1" style="fill:black;font-family:helvetica;font-size:10.0px;">l</text>
    </g>
    <g>
     <rect x="1067.0" y="104.0" width="5.0" height="18.0" class="text" style="fill:none;stroke:red;stroke-width:0.5;"/>
     <text x="1067.0" y="122.0" achars="),},&gt;" style="fill:black;font-family:helvetica;font-size:10.0px;">)</text>
    </g>
    <rect x="1073.0" y="104.0" width="15.0" height="16.0" class="space" style="fill:none;stroke:blue;stroke-width:0.5;"/>
    <rect x="1105.0" y="104.0" width="12.0" height="16.0" class="space" style="fill:none;stroke:blue;stroke-width:0.5;"/>
    <rect x="1138.0" y="104.0" width="6.0" height="16.0" class="space" style="fill:none;stroke:blue;stroke-width:0.5;"/>
    <rect x="1159.0" y="104.0" width="1.0" height="16.0" class="space" style="fill:none;stroke:blue;stroke-width:0.5;"/>
    <rect x="1167.0" y="104.0" width="-2.0" height="16.0" class="space" style="fill:none;stroke:blue;stroke-width:0.5;"/>
    <g>
     <rect x="1166.0" y="104.0" width="18.0" height="16.0" class="text" style="fill:none;stroke:red;stroke-width:0.5;"/>
     <text x="1166.0" y="120.0" achars="W" style="fill:black;font-family:helvetica;font-size:10.0px;">W</text>
    </g>
    <g>
     <rect x="1185.0" y="108.0" width="10.0" height="12.0" class="text" style="fill:none;stroke:red;stroke-width:0.5;"/>
     <text x="1185.0" y="120.0" achars="e,g" style="fill:black;font-family:helvetica;font-size:10.0px;">e</text>
    </g>
    <g>
     <rect x="1196.0" y="104.0" width="3.0" height="16.0" class="text" style="fill:none;stroke:red;stroke-width:0.5;"/>
     <text x="1196.0" y="120.0" achars="i,j" style="fill:black;font-family:helvetica;font-size:10.0px;">i</text>
    </g>
    <g>
     <rect x="1201.0" y="108.0" width="10.0" height="16.0" class="text" style="fill:none;stroke:red;stroke-width:0.5;"/>
     <text x="1201.0" y="124.0" achars="9,g,0" style="fill:black;font-family:helvetica;font-size:10.0px;">9</text>
    </g>
    <g>
     <rect x="1214.0" y="103.0" width="9.0" height="17.0" class="text" style="fill:none;stroke:red;stroke-width:0.5;"/>
     <text x="1214.0" y="120.0" achars="h" style="fill:black;font-family:helvetica;font-size:10.0px;">h</text>
    </g>
    <g>
     <rect x="1225.0" y="105.0" width="7.0" height="15.0" class="text" style="fill:none;stroke:red;stroke-width:0.5;"/>
     <text x="1225.0" y="120.0" achars="t" style="fill:black;font-family:helvetica;font-size:10.0px;">t</text>
    </g>
   </g>
  </g>
 </g>
</svg>
