<?xml version="1.0" encoding="UTF-8"?>
<svg height="49.0" width="1213.0" xmlns="http://www.w3.org/2000/svg">
 <g class="page">
  <g class="block">
   <g class="line">
    <rect x="1203.0" y="0.0" width="-672.0" height="13.0" class="space" style="fill:none;stroke:blue;stroke-width:0.5;"/>
    <rect x="532.0" y="0.0" width="-4.0" height="13.0" class="space" style="fill:none;stroke:blue;stroke-width:0.5;"/>
    <rect x="530.0" y="0.0" width="-3.0" height="13.0" class="space" style="fill:none;stroke:blue;stroke-width:0.5;"/>
    <rect x="530.0" y="0.0" width="-3.0" height="13.0" class="space" style="fill:none;stroke:blue;stroke-width:0.5;"/>
    <rect x="531.0" y="0.0" width="-4.0" height="13.0" class="space" style="fill:none;stroke:blue;stroke-width:0.5;"/>
    <rect x="531.0" y="0.0" width="-3.0" height="13.0" class="space" style="fill:none;stroke:blue;stroke-width:0.5;"/>
    <rect x="533.0" y="0.0" width="-4.0" height="13.0" class="space" style="fill:none;stroke:blue;stroke-width:0.5;"/>
    <rect x="533.0" y="0.0" width="-3.0" height="13.0" class="space" style="fill:none;stroke:blue;stroke-width:0.5;"/>
    <rect x="534.0" y="0.0" width="-3.0" height="13.0" class="space" style="fill:none;stroke:blue;stroke-width:0.5;"/>
    <rect x="532.0" y="0.0" width="656.0" height="13.0" class="space" style="fill:none;stroke:blue;stroke-width:0.5;"/>
    <g>
     <rect x="532.0" y="0.0" width="656.0" height="13.0" class="text" style="fill:none;stroke:red;stroke-width:0.5;"/>
     <text x="532.0" y="13.0" achars="" style="fill:black;font-family:helvetica;font-size:10.0px;">?</text>
    </g>
   </g>
   <g class="line">
    <rect x="12.0" y="0.0" width="221.0" height="1.0" class="space" style="fill:none;stroke:blue;stroke-width:0.5;"/>
    <g>
     <rect x="12.0" y="0.0" width="221.0" height="1.0" class="text" style="fill:none;stroke:red;stroke-width:0.5;"/>
     <text x="12.0" y="1.0" achars="-" style="fill:black;font-family:helvetica;font-size:10.0px;">-</text>
    </g>
    <g>
     <rect x="234.0" y="0.0" width="297.0" height="13.0" class="text" style="fill:none;stroke:red;stroke-width:0.5;"/>
     <text x="234.0" y="13.0" achars="n" style="fill:black;font-family:helvetica;font-size:10.0px;">n</text>
    </g>
   </g>
   <g class="line">
    <rect x="214.0" y="36.0" width="-4.0" height="3.0" class="space" style="fill:none;stroke:blue;stroke-width:0.5;"/>
    <rect x="211.0" y="36.0" width="-3.0" height="3.0" class="space" style="fill:none;stroke:blue;stroke-width:0.5;"/>
    <rect x="210.0" y="36.0" width="-3.0" height="3.0" class="space" style="fill:none;stroke:blue;stroke-width:0.5;"/>
    <rect x="210.0" y="36.0" width="-3.0" height="3.0" class="space" style="fill:none;stroke:blue;stroke-width:0.5;"/>
    <rect x="211.0" y="36.0" width="-4.0" height="3.0" class="space" style="fill:none;stroke:blue;stroke-width:0.5;"/>
    <rect x="211.0" y="36.0" width="-3.0" height="3.0" class="space" style="fill:none;stroke:blue;stroke-width:0.5;"/>
    <rect x="212.0" y="36.0" width="-3.0" height="3.0" class="space" style="fill:none;stroke:blue;stroke-width:0.5;"/>
    <rect x="213.0" y="36.0" width="-3.0" height="3.0" class="space" style="fill:none;stroke:blue;stroke-width:0.5;"/>
    <rect x="214.0" y="36.0" width="-3.0" height="3.0" class="space" style="fill:none;stroke:blue;stroke-width:0.5;"/>
    <rect x="215.0" y="36.0" width="-4.0" height="3.0" class="space" style="fill:none;stroke:blue;stroke-width:0.5;"/>
    <rect x="215.0" y="36.0" width="-3.0" height="3.0" class="space" style="fill:none;stroke:blue;stroke-width:0.5;"/>
    <rect x="216.0" y="36.0" width="-4.0" height="3.0" class="space" style="fill:none;stroke:blue;stroke-width:0.5;"/>
    <rect x="216.0" y="36.0" width="-4.0" height="3.0" class="space" style="fill:none;stroke:blue;stroke-width:0.5;"/>
    <rect x="216.0" y="36.0" width="-3.0" height="3.0" class="space" style="fill:none;stroke:blue;stroke-width:0.5;"/>
    <rect x="217.0" y="36.0" width="-4.0" height="3.0" class="space" style="fill:none;stroke:blue;stroke-width:0.5;"/>
    <rect x="214.0" y="36.0" width="3.0" height="3.0" class="space" style="fill:none;stroke:blue;stroke-width:0.5;"/>
    <g>
     <rect x="214.0" y="36.0" width="3.0" height="3.0" class="text" style="fill:none;stroke:red;stroke-width:0.5;"/>
     <text x="214.0" y="39.0" achars=".,ยง" style="fill:black;font-family:helvetica;font-size:10.0px;">.</text>
    </g>
    <g>
     <rect x="220.0" y="23.0" width="12.0" height="16.0" class="text" style="fill:none;stroke:red;stroke-width:0.5;"/>
     <text x="220.0" y="39.0" achars="O,0" style="fill:black;font-family:helvetica;font-size:10.0px;">O</text>
    </g>
    <g>
     <rect x="233.0" y="23.0" width="12.0" height="16.0" class="text" style="fill:none;stroke:red;stroke-width:0.5;"/>
     <text x="233.0" y="39.0" achars="9,g" style="fill:black;font-family:helvetica;font-size:10.0px;">9</text>
    </g>
    <g>
     <rect x="247.0" y="23.0" width="11.0" height="16.0" class="text" style="fill:none;stroke:red;stroke-width:0.5;"/>
     <text x="247.0" y="39.0" achars="3" style="fill:black;font-family:helvetica;font-size:10.0px;">3</text>
    </g>
    <rect x="259.0" y="23.0" width="9.0" height="16.0" class="space" style="fill:none;stroke:blue;stroke-width:0.5;"/>
    <rect x="281.0" y="23.0" width="9.0" height="16.0" class="space" style="fill:none;stroke:blue;stroke-width:0.5;"/>
    <rect x="314.0" y="23.0" width="8.0" height="16.0" class="space" style="fill:none;stroke:blue;stroke-width:0.5;"/>
    <rect x="353.0" y="23.0" width="7.0" height="16.0" class="space" style="fill:none;stroke:blue;stroke-width:0.5;"/>
    <rect x="394.0" y="23.0" width="4.0" height="16.0" class="space" style="fill:none;stroke:blue;stroke-width:0.5;"/>
    <rect x="431.0" y="23.0" width="2.0" height="16.0" class="space" style="fill:none;stroke:blue;stroke-width:0.5;"/>
    <rect x="462.0" y="23.0" width="0.0" height="16.0" class="space" style="fill:none;stroke:blue;stroke-width:0.5;"/>
    <rect x="485.0" y="23.0" width="0.0" height="16.0" class="space" style="fill:none;stroke:blue;stroke-width:0.5;"/>
    <rect x="502.0" y="23.0" width="-2.0" height="16.0" class="space" style="fill:none;stroke:blue;stroke-width:0.5;"/>
    <rect x="513.0" y="23.0" width="-3.0" height="16.0" class="space" style="fill:none;stroke:blue;stroke-width:0.5;"/>
    <rect x="519.0" y="23.0" width="-3.0" height="16.0" class="space" style="fill:none;stroke:blue;stroke-width:0.5;"/>
    <rect x="523.0" y="23.0" width="-4.0" height="16.0" class="space" style="fill:none;stroke:blue;stroke-width:0.5;"/>
    <rect x="524.0" y="23.0" width="-3.0" height="16.0" class="space" style="fill:none;stroke:blue;stroke-width:0.5;"/>
    <rect x="525.0" y="23.0" width="-3.0" height="16.0" class="space" style="fill:none;stroke:blue;stroke-width:0.5;"/>
    <rect x="526.0" y="23.0" width="-4.0" height="16.0" class="space" style="fill:none;stroke:blue;stroke-width:0.5;"/>
    <rect x="526.0" y="23.0" width="-3.0" height="16.0" class="space" style="fill:none;stroke:blue;stroke-width:0.5;"/>
    <rect x="527.0" y="23.0" width="-4.0" height="16.0" class="space" style="fill:none;stroke:blue;stroke-width:0.5;"/>
    <rect x="527.0" y="23.0" width="-4.0" height="16.0" class="space" style="fill:none;stroke:blue;stroke-width:0.5;"/>
    <rect x="527.0" y="23.0" width="-4.0" height="16.0" class="space" style="fill:none;stroke:blue;stroke-width:0.5;"/>
    <rect x="527.0" y="23.0" width="-3.0" height="16.0" class="space" style="fill:none;stroke:blue;stroke-width:0.5;"/>
    <g>
     <rect x="525.0" y="23.0" width="7.0" height="16.0" class="text" style="fill:none;stroke:red;stroke-width:0.5;"/>
     <text x="525.0" y="39.0" achars="1" style="fill:black;font-family:helvetica;font-size:10.0px;">1</text>
    </g>
    <rect x="533.0" y="23.0" width="9.0" height="16.0" class="space" style="fill:none;stroke:blue;stroke-width:0.5;"/>
    <rect x="556.0" y="23.0" width="9.0" height="16.0" class="space" style="fill:none;stroke:blue;stroke-width:0.5;"/>
    <rect x="589.0" y="23.0" width="8.0" height="16.0" class="space" style="fill:none;stroke:blue;stroke-width:0.5;"/>
    <rect x="629.0" y="23.0" width="6.0" height="16.0" class="space" style="fill:none;stroke:blue;stroke-width:0.5;"/>
    <rect x="669.0" y="23.0" width="5.0" height="16.0" class="space" style="fill:none;stroke:blue;stroke-width:0.5;"/>
    <rect x="707.0" y="23.0" width="3.0" height="16.0" class="space" style="fill:none;stroke:blue;stroke-width:0.5;"/>
    <rect x="739.0" y="23.0" width="0.0" height="16.0" class="space" style="fill:none;stroke:blue;stroke-width:0.5;"/>
    <rect x="762.0" y="23.0" width="0.0" height="16.0" class="space" style="fill:none;stroke:blue;stroke-width:0.5;"/>
    <rect x="779.0" y="23.0" width="-2.0" height="16.0" class="space" style="fill:none;stroke:blue;stroke-width:0.5;"/>
    <rect x="790.0" y="23.0" width="-3.0" height="16.0" class="space" style="fill:none;stroke:blue;stroke-width:0.5;"/>
    <rect x="796.0" y="23.0" width="-3.0" height="16.0" class="space" style="fill:none;stroke:blue;stroke-width:0.5;"/>
    <rect x="800.0" y="23.0" width="-4.0" height="16.0" class="space" style="fill:none;stroke:blue;stroke-width:0.5;"/>
    <rect x="801.0" y="23.0" width="-3.0" height="16.0" class="space" style="fill:none;stroke:blue;stroke-width:0.5;"/>
    <rect x="802.0" y="23.0" width="-3.0" height="16.0" class="space" style="fill:none;stroke:blue;stroke-width:0.5;"/>
    <rect x="803.0" y="23.0" width="-4.0" height="16.0" class="space" style="fill:none;stroke:blue;stroke-width:0.5;"/>
    <rect x="803.0" y="23.0" width="-3.0" height="16.0" class="space" style="fill:none;stroke:blue;stroke-width:0.5;"/>
    <rect x="804.0" y="23.0" width="-4.0" height="16.0" class="space" style="fill:none;stroke:blue;stroke-width:0.5;"/>
    <rect x="804.0" y="23.0" width="-4.0" height="16.0" class="space" style="fill:none;stroke:blue;stroke-width:0.5;"/>
    <rect x="804.0" y="23.0" width="-4.0" height="16.0" class="space" style="fill:none;stroke:blue;stroke-width:0.5;"/>
    <rect x="804.0" y="23.0" width="-3.0" height="16.0" class="space" style="fill:none;stroke:blue;stroke-width:0.5;"/>
    <g>
     <rect x="802.0" y="23.0" width="8.0" height="16.0" class="text" style="fill:none;stroke:red;stroke-width:0.5;"/>
     <text x="802.0" y="39.0" achars="1" style="fill:black;font-family:helvetica;font-size:10.0px;">1</text>
    </g>
    <g>
     <rect x="814.0" y="23.0" width="12.0" height="16.0" class="text" style="fill:none;stroke:red;stroke-width:0.5;"/>
     <text x="814.0" y="39.0" achars="O,0" style="fill:black;font-family:helvetica;font-size:10.0px;">O</text>
    </g>
    <g>
     <rect x="829.0" y="36.0" width="3.0" height="3.0" class="text" style="fill:none;stroke:red;stroke-width:0.5;"/>
     <text x="829.0" y="39.0" achars=".,ยง" style="fill:black;font-family:helvetica;font-size:10.0px;">.</text>
    </g>
    <g>
     <rect x="834.0" y="23.0" width="12.0" height="16.0" class="text" style="fill:none;stroke:red;stroke-width:0.5;"/>
     <text x="834.0" y="39.0" achars="7,1" style="fill:black;font-family:helvetica;font-size:10.0px;">7</text>
    </g>
   </g>
  </g>
 </g>
</svg>
