<?xml version="1.0" encoding="UTF-8"?>
<svg height="54.0" width="1194.0" xmlns="http://www.w3.org/2000/svg">
 <g class="page">
  <g class="block">
   <g class="line">
    <rect x="25.0" y="0.0" width="207.0" height="1.0" class="space" style="fill:none;stroke:blue;stroke-width:0.5;"/>
    <g>
     <rect x="25.0" y="0.0" width="207.0" height="1.0" class="text" style="fill:none;stroke:red;stroke-width:0.5;"/>
     <text x="25.0" y="1.0" achars="-" style="fill:black;font-family:helvetica;font-size:10.0px;">-</text>
    </g>
    <g>
     <rect x="235.0" y="0.0" width="4.0" height="15.0" class="text" style="fill:none;stroke:red;stroke-width:0.5;"/>
     <text x="235.0" y="15.0" achars="I,r" style="fill:black;font-family:helvetica;font-size:10.0px;">I</text>
    </g>
    <g>
     <rect x="240.0" y="0.0" width="272.0" height="1.0" class="text" style="fill:none;stroke:red;stroke-width:0.5;"/>
     <text x="240.0" y="1.0" achars="-" style="fill:black;font-family:helvetica;font-size:10.0px;">-</text>
    </g>
    <g>
     <rect x="513.0" y="0.0" width="8.0" height="1.0" class="text" style="fill:none;stroke:red;stroke-width:0.5;"/>
     <text x="513.0" y="1.0" achars="-" style="fill:black;font-family:helvetica;font-size:10.0px;">-</text>
    </g>
    <g>
     <rect x="527.0" y="0.0" width="3.0" height="15.0" class="text" style="fill:none;stroke:red;stroke-width:0.5;"/>
     <text x="527.0" y="15.0" achars="l,I,1" style="fill:black;font-family:helvetica;font-size:10.0px;">l</text>
    </g>
    <g>
     <rect x="532.0" y="0.0" width="285.0" height="1.0" class="text" style="fill:none;stroke:red;stroke-width:0.5;"/>
     <text x="532.0" y="1.0" achars="-" style="fill:black;font-family:helvetica;font-size:10.0px;">-</text>
    </g>
    <g>
     <rect x="819.0" y="0.0" width="3.0" height="15.0" class="text" style="fill:none;stroke:red;stroke-width:0.5;"/>
     <text x="819.0" y="15.0" achars="l,I,|,1" style="fill:black;font-family:helvetica;font-size:10.0px;">l</text>
    </g>
    <g>
     <rect x="824.0" y="0.0" width="360.0" height="1.0" class="text" style="fill:none;stroke:red;stroke-width:0.5;"/>
     <text x="824.0" y="1.0" achars="-" style="fill:black;font-family:helvetica;font-size:10.0px;">-</text>
    </g>
   </g>
   <g class="line">
    <rect x="202.0" y="41.0" width="-4.0" height="3.0" class="space" style="fill:none;stroke:blue;stroke-width:0.5;"/>
    <rect x="199.0" y="41.0" width="-3.0" height="3.0" class="space" style="fill:none;stroke:blue;stroke-width:0.5;"/>
    <rect x="198.0" y="41.0" width="-3.0" height="3.0" class="space" style="fill:none;stroke:blue;stroke-width:0.5;"/>
    <rect x="198.0" y="41.0" width="-3.0" height="3.0" class="space" style="fill:none;stroke:blue;stroke-width:0.5;"/>
    <rect x="199.0" y="41.0" width="-3.0" height="3.0" class="space" style="fill:none;stroke:blue;stroke-width:0.5;"/>
    <rect x="200.0" y="41.0" width="-3.0" height="3.0" class="space" style="fill:none;stroke:blue;stroke-width:0.5;"/>
    <rect x="201.0" y="41.0" width="-3.0" height="3.0" class="space" style="fill:none;stroke:blue;stroke-width:0.5;"/>
    <rect x="202.0" y="41.0" width="-3.0" height="3.0" class="space" style="fill:none;stroke:blue;stroke-width:0.5;"/>
    <rect x="203.0" y="41.0" width="-4.0" height="3.0" class="space" style="fill:none;stroke:blue;stroke-width:0.5;"/>
    <rect x="203.0" y="41.0" width="-3.0" height="3.0" class="space" style="fill:none;stroke:blue;stroke-width:0.5;"/>
    <rect x="204.0" y="41.0" width="-4.0" height="3.0" class="space" style="fill:none;stroke:blue;stroke-width:0.5;"/>
    <rect x="204.0" y="41.0" width="-3.0" height="3.0" class="space" style="fill:none;stroke:blue;stroke-width:0.5;"/>
    <rect x="205.0" y="41.0" width="-4.0" height="3.0" class="space" style="fill:none;stroke:blue;stroke-width:0.5;"/>
    <rect x="202.0" y="41.0" width="3.0" height="3.0" class="space" style="fill:none;stroke:blue;stroke-width:0.5;"/>
    <g>
     <rect x="202.0" y="41.0" width="3.0" height="3.0" class="text" style="fill:none;stroke:red;stroke-width:0.5;"/>
     <text x="202.0" y="44.0" achars=".,ยง" style="fill:black;font-family:helvetica;font-size:10.0px;">.</text>
    </g>
    <g>
     <rect x="208.0" y="26.0" width="12.0" height="18.0" class="text" style="fill:none;stroke:red;stroke-width:0.5;"/>
     <text x="208.0" y="44.0" achars="O,0" style="fill:black;font-family:helvetica;font-size:10.0px;">O</text>
    </g>
    <g>
     <rect x="222.0" y="26.0" width="11.0" height="18.0" class="text" style="fill:none;stroke:red;stroke-width:0.5;"/>
     <text x="222.0" y="44.0" achars="O,0" style="fill:black;font-family:helvetica;font-size:10.0px;">O</text>
    </g>
    <g>
     <rect x="235.0" y="26.0" width="11.0" height="18.0" class="text" style="fill:none;stroke:red;stroke-width:0.5;"/>
     <text x="235.0" y="44.0" achars="3" style="fill:black;font-family:helvetica;font-size:10.0px;">3</text>
    </g>
    <g>
     <rect x="248.0" y="26.0" width="11.0" height="18.0" class="text" style="fill:none;stroke:red;stroke-width:0.5;"/>
     <text x="248.0" y="44.0" achars="7,1" style="fill:black;font-family:helvetica;font-size:10.0px;">7</text>
    </g>
    <g>
     <rect x="262.0" y="26.0" width="7.0" height="18.0" class="text" style="fill:none;stroke:red;stroke-width:0.5;"/>
     <text x="262.0" y="44.0" achars="1" style="fill:black;font-family:helvetica;font-size:10.0px;">1</text>
    </g>
    <rect x="270.0" y="26.0" width="9.0" height="18.0" class="space" style="fill:none;stroke:blue;stroke-width:0.5;"/>
    <rect x="293.0" y="26.0" width="9.0" height="18.0" class="space" style="fill:none;stroke:blue;stroke-width:0.5;"/>
    <rect x="326.0" y="26.0" width="8.0" height="18.0" class="space" style="fill:none;stroke:blue;stroke-width:0.5;"/>
    <rect x="365.0" y="26.0" width="6.0" height="18.0" class="space" style="fill:none;stroke:blue;stroke-width:0.5;"/>
    <rect x="404.0" y="26.0" width="4.0" height="18.0" class="space" style="fill:none;stroke:blue;stroke-width:0.5;"/>
    <rect x="440.0" y="26.0" width="2.0" height="18.0" class="space" style="fill:none;stroke:blue;stroke-width:0.5;"/>
    <rect x="469.0" y="26.0" width="0.0" height="18.0" class="space" style="fill:none;stroke:blue;stroke-width:0.5;"/>
    <rect x="491.0" y="26.0" width="-1.0" height="18.0" class="space" style="fill:none;stroke:blue;stroke-width:0.5;"/>
    <rect x="506.0" y="26.0" width="-2.0" height="18.0" class="space" style="fill:none;stroke:blue;stroke-width:0.5;"/>
    <rect x="515.0" y="26.0" width="-3.0" height="18.0" class="space" style="fill:none;stroke:blue;stroke-width:0.5;"/>
    <rect x="520.0" y="26.0" width="-3.0" height="18.0" class="space" style="fill:none;stroke:blue;stroke-width:0.5;"/>
    <rect x="523.0" y="26.0" width="-4.0" height="18.0" class="space" style="fill:none;stroke:blue;stroke-width:0.5;"/>
    <rect x="524.0" y="26.0" width="-4.0" height="18.0" class="space" style="fill:none;stroke:blue;stroke-width:0.5;"/>
    <rect x="525.0" y="26.0" width="-4.0" height="18.0" class="space" style="fill:none;stroke:blue;stroke-width:0.5;"/>
    <rect x="525.0" y="26.0" width="-4.0" height="18.0" class="space" style="fill:none;stroke:blue;stroke-width:0.5;"/>
    <rect x="525.0" y="26.0" width="-3.0" height="18.0" class="space" style="fill:none;stroke:blue;stroke-width:0.5;"/>
    <rect x="526.0" y="26.0" width="-4.0" height="18.0" class="space" style="fill:none;stroke:blue;stroke-width:0.5;"/>
    <rect x="526.0" y="26.0" width="-4.0" height="18.0" class="space" style="fill:none;stroke:blue;stroke-width:0.5;"/>
    <rect x="526.0" y="26.0" width="-3.0" height="18.0" class="space" style="fill:none;stroke:blue;stroke-width:0.5;"/>
    <g>
     <rect x="524.0" y="26.0" width="8.0" height="18.0" class="text" style="fill:none;stroke:red;stroke-width:0.5;"/>
     <text x="524.0" y="44.0" achars="1" style="fill:black;font-family:helvetica;font-size:10.0px;">1</text>
    </g>
    <rect x="533.0" y="26.0" width="9.0" height="18.0" class="space" style="fill:none;stroke:blue;stroke-width:0.5;"/>
    <rect x="556.0" y="26.0" width="9.0" height="18.0" class="space" style="fill:none;stroke:blue;stroke-width:0.5;"/>
    <rect x="589.0" y="26.0" width="8.0" height="18.0" class="space" style="fill:none;stroke:blue;stroke-width:0.5;"/>
    <rect x="628.0" y="26.0" width="7.0" height="18.0" class="space" style="fill:none;stroke:blue;stroke-width:0.5;"/>
    <rect x="669.0" y="26.0" width="5.0" height="18.0" class="space" style="fill:none;stroke:blue;stroke-width:0.5;"/>
    <rect x="707.0" y="26.0" width="2.0" height="18.0" class="space" style="fill:none;stroke:blue;stroke-width:0.5;"/>
    <rect x="738.0" y="26.0" width="0.0" height="18.0" class="space" style="fill:none;stroke:blue;stroke-width:0.5;"/>
    <rect x="761.0" y="26.0" width="0.0" height="18.0" class="space" style="fill:none;stroke:blue;stroke-width:0.5;"/>
    <rect x="778.0" y="26.0" width="-2.0" height="18.0" class="space" style="fill:none;stroke:blue;stroke-width:0.5;"/>
    <rect x="789.0" y="26.0" width="-3.0" height="18.0" class="space" style="fill:none;stroke:blue;stroke-width:0.5;"/>
    <rect x="795.0" y="26.0" width="-3.0" height="18.0" class="space" style="fill:none;stroke:blue;stroke-width:0.5;"/>
    <rect x="799.0" y="26.0" width="-4.0" height="18.0" class="space" style="fill:none;stroke:blue;stroke-width:0.5;"/>
    <rect x="800.0" y="26.0" width="-3.0" height="18.0" class="space" style="fill:none;stroke:blue;stroke-width:0.5;"/>
    <rect x="801.0" y="26.0" width="-3.0" height="18.0" class="space" style="fill:none;stroke:blue;stroke-width:0.5;"/>
    <rect x="802.0" y="26.0" width="-4.0" height="18.0" class="space" style="fill:none;stroke:blue;stroke-width:0.5;"/>
    <rect x="802.0" y="26.0" width="-3.0" height="18.0" class="space" style="fill:none;stroke:blue;stroke-width:0.5;"/>
    <rect x="803.0" y="26.0" width="-4.0" height="18.0" class="space" style="fill:none;stroke:blue;stroke-width:0.5;"/>
    <rect x="803.0" y="26.0" width="-4.0" height="18.0" class="space" style="fill:none;stroke:blue;stroke-width:0.5;"/>
    <rect x="803.0" y="26.0" width="-4.0" height="18.0" class="space" style="fill:none;stroke:blue;stroke-width:0.5;"/>
    <rect x="803.0" y="26.0" width="-3.0" height="18.0" class="space" style="fill:none;stroke:blue;stroke-width:0.5;"/>
    <g>
     <rect x="801.0" y="26.0" width="12.0" height="18.0" class="text" style="fill:none;stroke:red;stroke-width:0.5;"/>
     <text x="801.0" y="44.0" achars="2" style="fill:black;font-family:helvetica;font-size:10.0px;">2</text>
    </g>
    <g>
     <rect x="815.0" y="26.0" width="11.0" height="18.0" class="text" style="fill:none;stroke:red;stroke-width:0.5;"/>
     <text x="815.0" y="44.0" achars="6" style="fill:black;font-family:helvetica;font-size:10.0px;">6</text>
    </g>
    <g>
     <rect x="828.0" y="26.0" width="12.0" height="18.0" class="text" style="fill:none;stroke:red;stroke-width:0.5;"/>
     <text x="828.0" y="44.0" achars="9,g" style="fill:black;font-family:helvetica;font-size:10.0px;">9</text>
    </g>
   </g>
  </g>
 </g>
</svg>
