<?xml version="1.0" encoding="UTF-8"?>
<svg height="1006.0" width="1428.0" xmlns="http://www.w3.org/2000/svg">
 <g>
  <g class="horizontallines">
   <line x1="5.0" y1="1.0" x2="1415.0" y2="1.0" style="stroke:red;stroke-width:1.0;"/>
   <line x1="48.0" y1="46.0" x2="1383.0" y2="46.0" style="stroke:red;stroke-width:1.0;"/>
   <line x1="45.0" y1="296.0" x2="1383.0" y2="296.0" style="stroke:red;stroke-width:2.0;"/>
   <line x1="46.0" y1="890.0" x2="1383.0" y2="890.0" style="stroke:red;stroke-width:2.0;"/>
   <line x1="49.0" y1="894.0" x2="462.0" y2="894.0" style="stroke:red;stroke-width:1.0;"/>
   <line x1="472.0" y1="894.0" x2="663.0" y2="894.0" style="stroke:red;stroke-width:1.0;"/>
   <line x1="672.0" y1="894.0" x2="760.0" y2="894.0" style="stroke:red;stroke-width:1.0;"/>
   <line x1="776.0" y1="894.0" x2="862.0" y2="894.0" style="stroke:red;stroke-width:1.0;"/>
   <line x1="873.0" y1="894.0" x2="1375.0" y2="894.0" style="stroke:red;stroke-width:1.0;"/>
   <line x1="8.0" y1="994.0" x2="1416.0" y2="994.0" style="stroke:red;stroke-width:1.0;"/>
   <line x1="5.0" y1="996.0" x2="1416.0" y2="996.0" style="stroke:red;stroke-width:2.0;"/>
  </g>
  <g class="verticallines">
   <line x1="2.0" y1="7.0" x2="2.0" y2="990.0" style="stroke:blue;stroke-width:1.0;"/>
   <line x1="666.0" y1="296.0" x2="666.0" y2="905.0" style="stroke:blue;stroke-width:2.0;"/>
   <line x1="1385.0" y1="48.0" x2="1385.0" y2="887.0" style="stroke:blue;stroke-width:1.0;"/>
   <line x1="1418.0" y1="5.0" x2="1418.0" y2="992.0" style="stroke:blue;stroke-width:1.0;"/>
  </g>
 </g>
</svg>
