<?xml version="1.0" encoding="UTF-8"?>
<svg height="606.0" width="526.0" xmlns="http://www.w3.org/2000/svg">
 <g class="page">
  <g class="block">
   <g class="line">
    <rect x="0.0" y="592.0" width="516.0" height="4.0" class="space" style="fill:none;stroke:blue;stroke-width:0.5;"/>
    <g>
     <rect x="0.0" y="592.0" width="516.0" height="4.0" class="text" style="fill:none;stroke:red;stroke-width:0.5;"/>
     <text x="0.0" y="596.0" achars="" style="fill:black;font-family:helvetica;font-size:10.0px;">?</text>
    </g>
   </g>
   <g class="line">
    <rect x="14.0" y="48.0" width="14.0" height="19.0" class="space" style="fill:none;stroke:blue;stroke-width:0.5;"/>
    <g>
     <rect x="14.0" y="48.0" width="14.0" height="19.0" class="text" style="fill:none;stroke:red;stroke-width:0.5;"/>
     <text x="14.0" y="67.0" achars="4,9" style="fill:black;font-family:helvetica;font-size:10.0px;">4</text>
    </g>
    <g>
     <rect x="30.0" y="63.0" width="3.0" height="4.0" class="text" style="fill:none;stroke:red;stroke-width:0.5;"/>
     <text x="30.0" y="67.0" achars=".,§" style="fill:black;font-family:helvetica;font-size:10.0px;">.</text>
    </g>
    <g>
     <rect x="35.0" y="48.0" width="13.0" height="19.0" class="text" style="fill:none;stroke:red;stroke-width:0.5;"/>
     <text x="35.0" y="67.0" achars="8" style="fill:black;font-family:helvetica;font-size:10.0px;">8</text>
    </g>
    <g>
     <rect x="49.0" y="48.0" width="13.0" height="19.0" class="text" style="fill:none;stroke:red;stroke-width:0.5;"/>
     <text x="49.0" y="67.0" achars="o,O,0" style="fill:black;font-family:helvetica;font-size:10.0px;">o</text>
    </g>
    <rect x="63.0" y="47.0" width="7.0" height="24.0" class="space" style="fill:none;stroke:blue;stroke-width:0.5;"/>
    <g>
     <rect x="71.0" y="47.0" width="5.0" height="24.0" class="text" style="fill:none;stroke:red;stroke-width:0.5;"/>
     <text x="71.0" y="71.0" achars="(,c" style="fill:black;font-family:helvetica;font-size:10.0px;">(</text>
    </g>
    <g>
     <rect x="78.0" y="48.0" width="12.0" height="19.0" class="text" style="fill:none;stroke:red;stroke-width:0.5;"/>
     <text x="78.0" y="67.0" achars="o,O,0" style="fill:black;font-family:helvetica;font-size:10.0px;">o</text>
    </g>
    <g>
     <rect x="92.0" y="63.0" width="4.0" height="4.0" class="text" style="fill:none;stroke:red;stroke-width:0.5;"/>
     <text x="92.0" y="67.0" achars=".,§" style="fill:black;font-family:helvetica;font-size:10.0px;">.</text>
    </g>
    <g>
     <rect x="98.0" y="48.0" width="12.0" height="19.0" class="text" style="fill:none;stroke:red;stroke-width:0.5;"/>
     <text x="98.0" y="67.0" achars="3" style="fill:black;font-family:helvetica;font-size:10.0px;">3</text>
    </g>
    <g>
     <rect x="112.0" y="48.0" width="13.0" height="19.0" class="text" style="fill:none;stroke:red;stroke-width:0.5;"/>
     <text x="112.0" y="67.0" achars="8" style="fill:black;font-family:helvetica;font-size:10.0px;">8</text>
    </g>
    <g>
     <rect x="126.0" y="63.0" width="5.0" height="8.0" class="text" style="fill:none;stroke:red;stroke-width:0.5;"/>
     <text x="126.0" y="71.0" achars=",§t,/,l" style="fill:black;font-family:helvetica;font-size:10.0px;">,</text>
    </g>
    <rect x="132.0" y="48.0" width="5.0" height="19.0" class="space" style="fill:none;stroke:blue;stroke-width:0.5;"/>
    <g>
     <rect x="138.0" y="48.0" width="13.0" height="19.0" class="text" style="fill:none;stroke:red;stroke-width:0.5;"/>
     <text x="138.0" y="67.0" achars="9,g" style="fill:black;font-family:helvetica;font-size:10.0px;">9</text>
    </g>
    <g>
     <rect x="153.0" y="63.0" width="4.0" height="4.0" class="text" style="fill:none;stroke:red;stroke-width:0.5;"/>
     <text x="153.0" y="67.0" achars="+,.,§,t" style="fill:black;font-family:helvetica;font-size:10.0px;">+</text>
    </g>
    <g>
     <rect x="159.0" y="48.0" width="12.0" height="19.0" class="text" style="fill:none;stroke:red;stroke-width:0.5;"/>
     <text x="159.0" y="67.0" achars="2" style="fill:black;font-family:helvetica;font-size:10.0px;">2</text>
    </g>
    <g>
     <rect x="173.0" y="48.0" width="12.0" height="19.0" class="text" style="fill:none;stroke:red;stroke-width:0.5;"/>
     <text x="173.0" y="67.0" achars="2" style="fill:black;font-family:helvetica;font-size:10.0px;">2</text>
    </g>
    <g>
     <rect x="187.0" y="47.0" width="6.0" height="24.0" class="text" style="fill:none;stroke:red;stroke-width:0.5;"/>
     <text x="187.0" y="71.0" achars="),&gt;,}" style="fill:black;font-family:helvetica;font-size:10.0px;">)</text>
    </g>
    <rect x="194.0" y="48.0" width="10.0" height="19.0" class="space" style="fill:none;stroke:blue;stroke-width:0.5;"/>
    <rect x="218.0" y="48.0" width="9.0" height="19.0" class="space" style="fill:none;stroke:blue;stroke-width:0.5;"/>
    <rect x="250.0" y="48.0" width="7.0" height="19.0" class="space" style="fill:none;stroke:blue;stroke-width:0.5;"/>
    <rect x="283.0" y="48.0" width="4.0" height="19.0" class="space" style="fill:none;stroke:blue;stroke-width:0.5;"/>
    <rect x="310.0" y="48.0" width="2.0" height="19.0" class="space" style="fill:none;stroke:blue;stroke-width:0.5;"/>
    <rect x="329.0" y="48.0" width="0.0" height="19.0" class="space" style="fill:none;stroke:blue;stroke-width:0.5;"/>
    <rect x="340.0" y="48.0" width="-2.0" height="19.0" class="space" style="fill:none;stroke:blue;stroke-width:0.5;"/>
    <rect x="346.0" y="48.0" width="-3.0" height="19.0" class="space" style="fill:none;stroke:blue;stroke-width:0.5;"/>
    <rect x="348.0" y="48.0" width="-4.0" height="19.0" class="space" style="fill:none;stroke:blue;stroke-width:0.5;"/>
    <rect x="349.0" y="48.0" width="-4.0" height="19.0" class="space" style="fill:none;stroke:blue;stroke-width:0.5;"/>
    <rect x="349.0" y="48.0" width="-3.0" height="19.0" class="space" style="fill:none;stroke:blue;stroke-width:0.5;"/>
    <g>
     <rect x="347.0" y="48.0" width="6.0" height="19.0" class="text" style="fill:none;stroke:red;stroke-width:0.5;"/>
     <text x="347.0" y="67.0" achars="J,1" style="fill:black;font-family:helvetica;font-size:10.0px;">J</text>
    </g>
    <rect x="354.0" y="48.0" width="4.0" height="19.0" class="space" style="fill:none;stroke:blue;stroke-width:0.5;"/>
    <g>
     <rect x="359.0" y="48.0" width="13.0" height="19.0" class="text" style="fill:none;stroke:red;stroke-width:0.5;"/>
     <text x="359.0" y="67.0" achars="8" style="fill:black;font-family:helvetica;font-size:10.0px;">8</text>
    </g>
    <g>
     <rect x="374.0" y="63.0" width="4.0" height="4.0" class="text" style="fill:none;stroke:red;stroke-width:0.5;"/>
     <text x="374.0" y="67.0" achars=".,§,t" style="fill:black;font-family:helvetica;font-size:10.0px;">.</text>
    </g>
    <g>
     <rect x="380.0" y="48.0" width="11.0" height="19.0" class="text" style="fill:none;stroke:red;stroke-width:0.5;"/>
     <text x="380.0" y="67.0" achars="3" style="fill:black;font-family:helvetica;font-size:10.0px;">3</text>
    </g>
    <rect x="392.0" y="48.0" width="3.0" height="19.0" class="space" style="fill:none;stroke:blue;stroke-width:0.5;"/>
    <g>
     <rect x="396.0" y="48.0" width="6.0" height="19.0" class="text" style="fill:none;stroke:red;stroke-width:0.5;"/>
     <text x="396.0" y="67.0" achars="J,1" style="fill:black;font-family:helvetica;font-size:10.0px;">J</text>
    </g>
   </g>
   <g class="line">
    <rect x="15.0" y="125.0" width="12.0" height="19.0" class="space" style="fill:none;stroke:blue;stroke-width:0.5;"/>
    <g>
     <rect x="15.0" y="125.0" width="12.0" height="19.0" class="text" style="fill:none;stroke:red;stroke-width:0.5;"/>
     <text x="15.0" y="144.0" achars="5" style="fill:black;font-family:helvetica;font-size:10.0px;">5</text>
    </g>
    <g>
     <rect x="30.0" y="140.0" width="3.0" height="4.0" class="text" style="fill:none;stroke:red;stroke-width:0.5;"/>
     <text x="30.0" y="144.0" achars="" style="fill:black;font-family:helvetica;font-size:10.0px;">?</text>
    </g>
    <g>
     <rect x="35.0" y="125.0" width="13.0" height="19.0" class="text" style="fill:none;stroke:red;stroke-width:0.5;"/>
     <text x="35.0" y="144.0" achars="O,0" style="fill:black;font-family:helvetica;font-size:10.0px;">O</text>
    </g>
    <g>
     <rect x="49.0" y="125.0" width="13.0" height="19.0" class="text" style="fill:none;stroke:red;stroke-width:0.5;"/>
     <text x="49.0" y="144.0" achars="O,0" style="fill:black;font-family:helvetica;font-size:10.0px;">O</text>
    </g>
    <rect x="63.0" y="124.0" width="6.0" height="23.0" class="space" style="fill:none;stroke:blue;stroke-width:0.5;"/>
    <g>
     <rect x="70.0" y="124.0" width="6.0" height="23.0" class="text" style="fill:none;stroke:red;stroke-width:0.5;"/>
     <text x="70.0" y="147.0" achars="(,C" style="fill:black;font-family:helvetica;font-size:10.0px;">(</text>
    </g>
    <g>
     <rect x="78.0" y="125.0" width="12.0" height="19.0" class="text" style="fill:none;stroke:red;stroke-width:0.5;"/>
     <text x="78.0" y="144.0" achars="O,0" style="fill:black;font-family:helvetica;font-size:10.0px;">O</text>
    </g>
    <g>
     <rect x="92.0" y="140.0" width="4.0" height="4.0" class="text" style="fill:none;stroke:red;stroke-width:0.5;"/>
     <text x="92.0" y="144.0" achars="" style="fill:black;font-family:helvetica;font-size:10.0px;">?</text>
    </g>
    <g>
     <rect x="98.0" y="125.0" width="13.0" height="19.0" class="text" style="fill:none;stroke:red;stroke-width:0.5;"/>
     <text x="98.0" y="144.0" achars="9,g" style="fill:black;font-family:helvetica;font-size:10.0px;">9</text>
    </g>
    <g>
     <rect x="112.0" y="125.0" width="13.0" height="19.0" class="text" style="fill:none;stroke:red;stroke-width:0.5;"/>
     <text x="112.0" y="144.0" achars="4,9" style="fill:black;font-family:helvetica;font-size:10.0px;">4</text>
    </g>
    <g>
     <rect x="126.0" y="140.0" width="5.0" height="7.0" class="text" style="fill:none;stroke:red;stroke-width:0.5;"/>
     <text x="126.0" y="147.0" achars="J,I,l,1" style="fill:black;font-family:helvetica;font-size:10.0px;">J</text>
    </g>
    <rect x="132.0" y="125.0" width="6.0" height="19.0" class="space" style="fill:none;stroke:blue;stroke-width:0.5;"/>
    <g>
     <rect x="139.0" y="125.0" width="12.0" height="19.0" class="text" style="fill:none;stroke:red;stroke-width:0.5;"/>
     <text x="139.0" y="144.0" achars="" style="fill:black;font-family:helvetica;font-size:10.0px;">?</text>
    </g>
    <g>
     <rect x="153.0" y="140.0" width="4.0" height="4.0" class="text" style="fill:none;stroke:red;stroke-width:0.5;"/>
     <text x="153.0" y="144.0" achars="t" style="fill:black;font-family:helvetica;font-size:10.0px;">t</text>
    </g>
    <g>
     <rect x="159.0" y="125.0" width="12.0" height="19.0" class="text" style="fill:none;stroke:red;stroke-width:0.5;"/>
     <text x="159.0" y="144.0" achars="O,0" style="fill:black;font-family:helvetica;font-size:10.0px;">O</text>
    </g>
    <g>
     <rect x="173.0" y="125.0" width="13.0" height="19.0" class="text" style="fill:none;stroke:red;stroke-width:0.5;"/>
     <text x="173.0" y="144.0" achars="6" style="fill:black;font-family:helvetica;font-size:10.0px;">6</text>
    </g>
    <g>
     <rect x="187.0" y="124.0" width="6.0" height="23.0" class="text" style="fill:none;stroke:red;stroke-width:0.5;"/>
     <text x="187.0" y="147.0" achars="},)" style="fill:black;font-family:helvetica;font-size:10.0px;">}</text>
    </g>
    <rect x="194.0" y="125.0" width="10.0" height="19.0" class="space" style="fill:none;stroke:blue;stroke-width:0.5;"/>
    <rect x="218.0" y="125.0" width="9.0" height="19.0" class="space" style="fill:none;stroke:blue;stroke-width:0.5;"/>
    <rect x="249.0" y="125.0" width="7.0" height="19.0" class="space" style="fill:none;stroke:blue;stroke-width:0.5;"/>
    <rect x="281.0" y="125.0" width="5.0" height="19.0" class="space" style="fill:none;stroke:blue;stroke-width:0.5;"/>
    <rect x="309.0" y="125.0" width="1.0" height="19.0" class="space" style="fill:none;stroke:blue;stroke-width:0.5;"/>
    <rect x="327.0" y="125.0" width="0.0" height="19.0" class="space" style="fill:none;stroke:blue;stroke-width:0.5;"/>
    <rect x="338.0" y="125.0" width="-2.0" height="19.0" class="space" style="fill:none;stroke:blue;stroke-width:0.5;"/>
    <rect x="344.0" y="125.0" width="-3.0" height="19.0" class="space" style="fill:none;stroke:blue;stroke-width:0.5;"/>
    <rect x="346.0" y="125.0" width="-4.0" height="19.0" class="space" style="fill:none;stroke:blue;stroke-width:0.5;"/>
    <rect x="347.0" y="125.0" width="-4.0" height="19.0" class="space" style="fill:none;stroke:blue;stroke-width:0.5;"/>
    <rect x="347.0" y="125.0" width="-3.0" height="19.0" class="space" style="fill:none;stroke:blue;stroke-width:0.5;"/>
    <g>
     <rect x="345.0" y="125.0" width="12.0" height="19.0" class="text" style="fill:none;stroke:red;stroke-width:0.5;"/>
     <text x="345.0" y="144.0" achars="2" style="fill:black;font-family:helvetica;font-size:10.0px;">2</text>
    </g>
    <g>
     <rect x="359.0" y="125.0" width="13.0" height="19.0" class="text" style="fill:none;stroke:red;stroke-width:0.5;"/>
     <text x="359.0" y="144.0" achars="O,0" style="fill:black;font-family:helvetica;font-size:10.0px;">O</text>
    </g>
    <g>
     <rect x="374.0" y="140.0" width="4.0" height="4.0" class="text" style="fill:none;stroke:red;stroke-width:0.5;"/>
     <text x="374.0" y="144.0" achars="t" style="fill:black;font-family:helvetica;font-size:10.0px;">t</text>
    </g>
    <g>
     <rect x="381.0" y="125.0" width="7.0" height="19.0" class="text" style="fill:none;stroke:red;stroke-width:0.5;"/>
     <text x="381.0" y="144.0" achars="1" style="fill:black;font-family:helvetica;font-size:10.0px;">1</text>
    </g>
    <rect x="389.0" y="125.0" width="6.0" height="19.0" class="space" style="fill:none;stroke:blue;stroke-width:0.5;"/>
    <g>
     <rect x="396.0" y="125.0" width="6.0" height="19.0" class="text" style="fill:none;stroke:red;stroke-width:0.5;"/>
     <text x="396.0" y="144.0" achars="1" style="fill:black;font-family:helvetica;font-size:10.0px;">1</text>
    </g>
   </g>
   <g class="line">
    <rect x="15.0" y="201.0" width="12.0" height="20.0" class="space" style="fill:none;stroke:blue;stroke-width:0.5;"/>
    <g>
     <rect x="15.0" y="201.0" width="12.0" height="20.0" class="text" style="fill:none;stroke:red;stroke-width:0.5;"/>
     <text x="15.0" y="221.0" achars="5" style="fill:black;font-family:helvetica;font-size:10.0px;">5</text>
    </g>
    <g>
     <rect x="30.0" y="217.0" width="3.0" height="4.0" class="text" style="fill:none;stroke:red;stroke-width:0.5;"/>
     <text x="30.0" y="221.0" achars="" style="fill:black;font-family:helvetica;font-size:10.0px;">?</text>
    </g>
    <g>
     <rect x="35.0" y="201.0" width="12.0" height="20.0" class="text" style="fill:none;stroke:red;stroke-width:0.5;"/>
     <text x="35.0" y="221.0" achars="5" style="fill:black;font-family:helvetica;font-size:10.0px;">5</text>
    </g>
    <g>
     <rect x="49.0" y="201.0" width="13.0" height="20.0" class="text" style="fill:none;stroke:red;stroke-width:0.5;"/>
     <text x="49.0" y="221.0" achars="O,0,a" style="fill:black;font-family:helvetica;font-size:10.0px;">O</text>
    </g>
    <rect x="63.0" y="200.0" width="7.0" height="24.0" class="space" style="fill:none;stroke:blue;stroke-width:0.5;"/>
    <g>
     <rect x="71.0" y="200.0" width="5.0" height="24.0" class="text" style="fill:none;stroke:red;stroke-width:0.5;"/>
     <text x="71.0" y="224.0" achars="(,C" style="fill:black;font-family:helvetica;font-size:10.0px;">(</text>
    </g>
    <g>
     <rect x="78.0" y="212.0" width="15.0" height="2.0" class="text" style="fill:none;stroke:red;stroke-width:0.5;"/>
     <text x="78.0" y="214.0" achars="'" style="fill:black;font-family:helvetica;font-size:10.0px;">'</text>
    </g>
    <g>
     <rect x="94.0" y="201.0" width="13.0" height="20.0" class="text" style="fill:none;stroke:red;stroke-width:0.5;"/>
     <text x="94.0" y="221.0" achars="O,0,a" style="fill:black;font-family:helvetica;font-size:10.0px;">O</text>
    </g>
    <g>
     <rect x="109.0" y="217.0" width="4.0" height="4.0" class="text" style="fill:none;stroke:red;stroke-width:0.5;"/>
     <text x="109.0" y="221.0" achars="t" style="fill:black;font-family:helvetica;font-size:10.0px;">t</text>
    </g>
    <g>
     <rect x="114.0" y="201.0" width="14.0" height="20.0" class="text" style="fill:none;stroke:red;stroke-width:0.5;"/>
     <text x="114.0" y="221.0" achars="4,9" style="fill:black;font-family:helvetica;font-size:10.0px;">4</text>
    </g>
    <g>
     <rect x="129.0" y="201.0" width="13.0" height="20.0" class="text" style="fill:none;stroke:red;stroke-width:0.5;"/>
     <text x="129.0" y="221.0" achars="9,g" style="fill:black;font-family:helvetica;font-size:10.0px;">9</text>
    </g>
    <g>
     <rect x="143.0" y="217.0" width="4.0" height="7.0" class="text" style="fill:none;stroke:red;stroke-width:0.5;"/>
     <text x="143.0" y="224.0" achars="J,I,l,1" style="fill:black;font-family:helvetica;font-size:10.0px;">J</text>
    </g>
    <rect x="148.0" y="201.0" width="8.0" height="20.0" class="space" style="fill:none;stroke:blue;stroke-width:0.5;"/>
    <g>
     <rect x="157.0" y="201.0" width="7.0" height="20.0" class="text" style="fill:none;stroke:red;stroke-width:0.5;"/>
     <text x="157.0" y="221.0" achars="1" style="fill:black;font-family:helvetica;font-size:10.0px;">1</text>
    </g>
    <rect x="165.0" y="201.0" width="5.0" height="19.0" class="space" style="fill:none;stroke:blue;stroke-width:0.5;"/>
    <g>
     <rect x="171.0" y="201.0" width="7.0" height="19.0" class="text" style="fill:none;stroke:red;stroke-width:0.5;"/>
     <text x="171.0" y="220.0" achars="1" style="fill:black;font-family:helvetica;font-size:10.0px;">1</text>
    </g>
    <rect x="179.0" y="217.0" width="4.0" height="4.0" class="space" style="fill:none;stroke:blue;stroke-width:0.5;"/>
    <g>
     <rect x="184.0" y="217.0" width="4.0" height="4.0" class="text" style="fill:none;stroke:red;stroke-width:0.5;"/>
     <text x="184.0" y="221.0" achars="t" style="fill:black;font-family:helvetica;font-size:10.0px;">t</text>
    </g>
    <g>
     <rect x="189.0" y="201.0" width="14.0" height="20.0" class="text" style="fill:none;stroke:red;stroke-width:0.5;"/>
     <text x="189.0" y="221.0" achars="4,9" style="fill:black;font-family:helvetica;font-size:10.0px;">4</text>
    </g>
    <g>
     <rect x="204.0" y="201.0" width="13.0" height="20.0" class="text" style="fill:none;stroke:red;stroke-width:0.5;"/>
     <text x="204.0" y="221.0" achars="9,g" style="fill:black;font-family:helvetica;font-size:10.0px;">9</text>
    </g>
    <g>
     <rect x="218.0" y="200.0" width="6.0" height="24.0" class="text" style="fill:none;stroke:red;stroke-width:0.5;"/>
     <text x="218.0" y="224.0" achars="),&gt;" style="fill:black;font-family:helvetica;font-size:10.0px;">)</text>
    </g>
    <rect x="225.0" y="201.0" width="9.0" height="20.0" class="space" style="fill:none;stroke:blue;stroke-width:0.5;"/>
    <rect x="247.0" y="201.0" width="9.0" height="20.0" class="space" style="fill:none;stroke:blue;stroke-width:0.5;"/>
    <rect x="277.0" y="201.0" width="7.0" height="20.0" class="space" style="fill:none;stroke:blue;stroke-width:0.5;"/>
    <rect x="306.0" y="201.0" width="3.0" height="20.0" class="space" style="fill:none;stroke:blue;stroke-width:0.5;"/>
    <rect x="327.0" y="201.0" width="1.0" height="20.0" class="space" style="fill:none;stroke:blue;stroke-width:0.5;"/>
    <rect x="340.0" y="201.0" width="-1.0" height="20.0" class="space" style="fill:none;stroke:blue;stroke-width:0.5;"/>
    <rect x="346.0" y="201.0" width="-3.0" height="20.0" class="space" style="fill:none;stroke:blue;stroke-width:0.5;"/>
    <rect x="348.0" y="201.0" width="-3.0" height="20.0" class="space" style="fill:none;stroke:blue;stroke-width:0.5;"/>
    <rect x="349.0" y="201.0" width="-3.0" height="20.0" class="space" style="fill:none;stroke:blue;stroke-width:0.5;"/>
    <g>
     <rect x="347.0" y="201.0" width="6.0" height="20.0" class="text" style="fill:none;stroke:red;stroke-width:0.5;"/>
     <text x="347.0" y="221.0" achars="1" style="fill:black;font-family:helvetica;font-size:10.0px;">1</text>
    </g>
    <rect x="354.0" y="201.0" width="4.0" height="19.0" class="space" style="fill:none;stroke:blue;stroke-width:0.5;"/>
    <g>
     <rect x="359.0" y="201.0" width="13.0" height="19.0" class="text" style="fill:none;stroke:red;stroke-width:0.5;"/>
     <text x="359.0" y="220.0" achars="2" style="fill:black;font-family:helvetica;font-size:10.0px;">2</text>
    </g>
    <g>
     <rect x="374.0" y="217.0" width="4.0" height="4.0" class="text" style="fill:none;stroke:red;stroke-width:0.5;"/>
     <text x="374.0" y="221.0" achars="t" style="fill:black;font-family:helvetica;font-size:10.0px;">t</text>
    </g>
    <g>
     <rect x="379.0" y="201.0" width="14.0" height="20.0" class="text" style="fill:none;stroke:red;stroke-width:0.5;"/>
     <text x="379.0" y="221.0" achars="4" style="fill:black;font-family:helvetica;font-size:10.0px;">4</text>
    </g>
    <g>
     <rect x="394.0" y="201.0" width="13.0" height="20.0" class="text" style="fill:none;stroke:red;stroke-width:0.5;"/>
     <text x="394.0" y="221.0" achars="O,0" style="fill:black;font-family:helvetica;font-size:10.0px;">O</text>
    </g>
   </g>
   <g class="line">
    <rect x="17.0" y="278.0" width="6.0" height="19.0" class="space" style="fill:none;stroke:blue;stroke-width:0.5;"/>
    <g>
     <rect x="17.0" y="278.0" width="6.0" height="19.0" class="text" style="fill:none;stroke:red;stroke-width:0.5;"/>
     <text x="17.0" y="297.0" achars="1,J" style="fill:black;font-family:helvetica;font-size:10.0px;">1</text>
    </g>
    <rect x="24.0" y="278.0" width="6.0" height="19.0" class="space" style="fill:none;stroke:blue;stroke-width:0.5;"/>
    <g>
     <rect x="31.0" y="278.0" width="7.0" height="19.0" class="text" style="fill:none;stroke:red;stroke-width:0.5;"/>
     <text x="31.0" y="297.0" achars="J" style="fill:black;font-family:helvetica;font-size:10.0px;">J</text>
    </g>
    <rect x="39.0" y="293.0" width="4.0" height="4.0" class="space" style="fill:none;stroke:blue;stroke-width:0.5;"/>
    <g>
     <rect x="44.0" y="293.0" width="4.0" height="4.0" class="text" style="fill:none;stroke:red;stroke-width:0.5;"/>
     <text x="44.0" y="297.0" achars="t" style="fill:black;font-family:helvetica;font-size:10.0px;">t</text>
    </g>
    <g>
     <rect x="49.0" y="278.0" width="13.0" height="19.0" class="text" style="fill:none;stroke:red;stroke-width:0.5;"/>
     <text x="49.0" y="297.0" achars="O,0" style="fill:black;font-family:helvetica;font-size:10.0px;">O</text>
    </g>
    <g>
     <rect x="64.0" y="278.0" width="12.0" height="19.0" class="text" style="fill:none;stroke:red;stroke-width:0.5;"/>
     <text x="64.0" y="297.0" achars="O,0" style="fill:black;font-family:helvetica;font-size:10.0px;">O</text>
    </g>
    <rect x="77.0" y="277.0" width="7.0" height="23.0" class="space" style="fill:none;stroke:blue;stroke-width:0.5;"/>
    <g>
     <rect x="85.0" y="277.0" width="6.0" height="23.0" class="text" style="fill:none;stroke:red;stroke-width:0.5;"/>
     <text x="85.0" y="300.0" achars="(,C" style="fill:black;font-family:helvetica;font-size:10.0px;">(</text>
    </g>
    <g>
     <rect x="92.0" y="278.0" width="13.0" height="19.0" class="text" style="fill:none;stroke:red;stroke-width:0.5;"/>
     <text x="92.0" y="297.0" achars="7,1" style="fill:black;font-family:helvetica;font-size:10.0px;">7</text>
    </g>
    <g>
     <rect x="107.0" y="293.0" width="3.0" height="4.0" class="text" style="fill:none;stroke:red;stroke-width:0.5;"/>
     <text x="107.0" y="297.0" achars="" style="fill:black;font-family:helvetica;font-size:10.0px;">?</text>
    </g>
    <g>
     <rect x="112.0" y="278.0" width="13.0" height="19.0" class="text" style="fill:none;stroke:red;stroke-width:0.5;"/>
     <text x="112.0" y="297.0" achars="4,9" style="fill:black;font-family:helvetica;font-size:10.0px;">4</text>
    </g>
    <g>
     <rect x="127.0" y="278.0" width="12.0" height="19.0" class="text" style="fill:none;stroke:red;stroke-width:0.5;"/>
     <text x="127.0" y="297.0" achars="O,0" style="fill:black;font-family:helvetica;font-size:10.0px;">O</text>
    </g>
    <g>
     <rect x="140.0" y="293.0" width="5.0" height="8.0" class="text" style="fill:none;stroke:red;stroke-width:0.5;"/>
     <text x="140.0" y="301.0" achars="J,t,I,l,1" style="fill:black;font-family:helvetica;font-size:10.0px;">J</text>
    </g>
    <rect x="146.0" y="278.0" width="8.0" height="19.0" class="space" style="fill:none;stroke:blue;stroke-width:0.5;"/>
    <g>
     <rect x="155.0" y="278.0" width="6.0" height="19.0" class="text" style="fill:none;stroke:red;stroke-width:0.5;"/>
     <text x="155.0" y="297.0" achars="1,9" style="fill:black;font-family:helvetica;font-size:10.0px;">1</text>
    </g>
    <rect x="162.0" y="278.0" width="3.0" height="19.0" class="space" style="fill:none;stroke:blue;stroke-width:0.5;"/>
    <g>
     <rect x="166.0" y="278.0" width="14.0" height="19.0" class="text" style="fill:none;stroke:red;stroke-width:0.5;"/>
     <text x="166.0" y="297.0" achars="4" style="fill:black;font-family:helvetica;font-size:10.0px;">4</text>
    </g>
    <g>
     <rect x="182.0" y="293.0" width="4.0" height="4.0" class="text" style="fill:none;stroke:red;stroke-width:0.5;"/>
     <text x="182.0" y="297.0" achars="" style="fill:black;font-family:helvetica;font-size:10.0px;">?</text>
    </g>
    <g>
     <rect x="187.0" y="278.0" width="13.0" height="19.0" class="text" style="fill:none;stroke:red;stroke-width:0.5;"/>
     <text x="187.0" y="297.0" achars="6" style="fill:black;font-family:helvetica;font-size:10.0px;">6</text>
    </g>
    <g>
     <rect x="202.0" y="278.0" width="12.0" height="19.0" class="text" style="fill:none;stroke:red;stroke-width:0.5;"/>
     <text x="202.0" y="297.0" achars="O,0" style="fill:black;font-family:helvetica;font-size:10.0px;">O</text>
    </g>
    <g>
     <rect x="216.0" y="277.0" width="6.0" height="23.0" class="text" style="fill:none;stroke:red;stroke-width:0.5;"/>
     <text x="216.0" y="300.0" achars="),&gt;" style="fill:black;font-family:helvetica;font-size:10.0px;">)</text>
    </g>
    <rect x="223.0" y="278.0" width="9.0" height="19.0" class="space" style="fill:none;stroke:blue;stroke-width:0.5;"/>
    <rect x="245.0" y="278.0" width="9.0" height="19.0" class="space" style="fill:none;stroke:blue;stroke-width:0.5;"/>
    <rect x="275.0" y="278.0" width="7.0" height="19.0" class="space" style="fill:none;stroke:blue;stroke-width:0.5;"/>
    <rect x="304.0" y="278.0" width="3.0" height="19.0" class="space" style="fill:none;stroke:blue;stroke-width:0.5;"/>
    <rect x="325.0" y="278.0" width="1.0" height="19.0" class="space" style="fill:none;stroke:blue;stroke-width:0.5;"/>
    <rect x="338.0" y="278.0" width="-1.0" height="19.0" class="space" style="fill:none;stroke:blue;stroke-width:0.5;"/>
    <rect x="344.0" y="278.0" width="-3.0" height="19.0" class="space" style="fill:none;stroke:blue;stroke-width:0.5;"/>
    <rect x="346.0" y="278.0" width="-3.0" height="19.0" class="space" style="fill:none;stroke:blue;stroke-width:0.5;"/>
    <rect x="347.0" y="278.0" width="-3.0" height="19.0" class="space" style="fill:none;stroke:blue;stroke-width:0.5;"/>
    <g>
     <rect x="345.0" y="278.0" width="12.0" height="19.0" class="text" style="fill:none;stroke:red;stroke-width:0.5;"/>
     <text x="345.0" y="297.0" achars="2" style="fill:black;font-family:helvetica;font-size:10.0px;">2</text>
    </g>
    <g>
     <rect x="360.0" y="278.0" width="12.0" height="19.0" class="text" style="fill:none;stroke:red;stroke-width:0.5;"/>
     <text x="360.0" y="297.0" achars="2,e" style="fill:black;font-family:helvetica;font-size:10.0px;">2</text>
    </g>
    <g>
     <rect x="374.0" y="293.0" width="4.0" height="4.0" class="text" style="fill:none;stroke:red;stroke-width:0.5;"/>
     <text x="374.0" y="297.0" achars="t" style="fill:black;font-family:helvetica;font-size:10.0px;">t</text>
    </g>
    <g>
     <rect x="379.0" y="278.0" width="13.0" height="19.0" class="text" style="fill:none;stroke:red;stroke-width:0.5;"/>
     <text x="379.0" y="297.0" achars="6" style="fill:black;font-family:helvetica;font-size:10.0px;">6</text>
    </g>
    <g>
     <rect x="394.0" y="278.0" width="13.0" height="19.0" class="text" style="fill:none;stroke:red;stroke-width:0.5;"/>
     <text x="394.0" y="297.0" achars="9,q,g" style="fill:black;font-family:helvetica;font-size:10.0px;">9</text>
    </g>
   </g>
   <g class="line">
    <rect x="15.0" y="355.0" width="13.0" height="19.0" class="space" style="fill:none;stroke:blue;stroke-width:0.5;"/>
    <g>
     <rect x="15.0" y="355.0" width="13.0" height="19.0" class="text" style="fill:none;stroke:red;stroke-width:0.5;"/>
     <text x="15.0" y="374.0" achars="8" style="fill:black;font-family:helvetica;font-size:10.0px;">8</text>
    </g>
    <g>
     <rect x="30.0" y="370.0" width="3.0" height="4.0" class="text" style="fill:none;stroke:red;stroke-width:0.5;"/>
     <text x="30.0" y="374.0" achars=".,§" style="fill:black;font-family:helvetica;font-size:10.0px;">.</text>
    </g>
    <g>
     <rect x="35.0" y="354.0" width="13.0" height="20.0" class="text" style="fill:none;stroke:red;stroke-width:0.5;"/>
     <text x="35.0" y="374.0" achars="8" style="fill:black;font-family:helvetica;font-size:10.0px;">8</text>
    </g>
    <g>
     <rect x="50.0" y="355.0" width="12.0" height="18.0" class="text" style="fill:none;stroke:red;stroke-width:0.5;"/>
     <text x="50.0" y="373.0" achars="7" style="fill:black;font-family:helvetica;font-size:10.0px;">7</text>
    </g>
    <rect x="63.0" y="353.0" width="6.0" height="24.0" class="space" style="fill:none;stroke:blue;stroke-width:0.5;"/>
    <g>
     <rect x="70.0" y="353.0" width="6.0" height="24.0" class="text" style="fill:none;stroke:red;stroke-width:0.5;"/>
     <text x="70.0" y="377.0" achars="(,C" style="fill:black;font-family:helvetica;font-size:10.0px;">(</text>
    </g>
    <g>
     <rect x="78.0" y="355.0" width="12.0" height="19.0" class="text" style="fill:none;stroke:red;stroke-width:0.5;"/>
     <text x="78.0" y="374.0" achars="5,}" style="fill:black;font-family:helvetica;font-size:10.0px;">5</text>
    </g>
    <g>
     <rect x="92.0" y="370.0" width="4.0" height="4.0" class="text" style="fill:none;stroke:red;stroke-width:0.5;"/>
     <text x="92.0" y="374.0" achars=".,§" style="fill:black;font-family:helvetica;font-size:10.0px;">.</text>
    </g>
    <g>
     <rect x="98.0" y="354.0" width="12.0" height="20.0" class="text" style="fill:none;stroke:red;stroke-width:0.5;"/>
     <text x="98.0" y="374.0" achars="8" style="fill:black;font-family:helvetica;font-size:10.0px;">8</text>
    </g>
    <g>
     <rect x="113.0" y="355.0" width="12.0" height="18.0" class="text" style="fill:none;stroke:red;stroke-width:0.5;"/>
     <text x="113.0" y="373.0" achars="7" style="fill:black;font-family:helvetica;font-size:10.0px;">7</text>
    </g>
    <g>
     <rect x="126.0" y="369.0" width="5.0" height="8.0" class="text" style="fill:none;stroke:red;stroke-width:0.5;"/>
     <text x="126.0" y="377.0" achars=",§t,l" style="fill:black;font-family:helvetica;font-size:10.0px;">,</text>
    </g>
    <rect x="132.0" y="355.0" width="7.0" height="18.0" class="space" style="fill:none;stroke:blue;stroke-width:0.5;"/>
    <g>
     <rect x="140.0" y="355.0" width="7.0" height="18.0" class="text" style="fill:none;stroke:red;stroke-width:0.5;"/>
     <text x="140.0" y="373.0" achars="1" style="fill:black;font-family:helvetica;font-size:10.0px;">1</text>
    </g>
    <rect x="148.0" y="355.0" width="6.0" height="18.0" class="space" style="fill:none;stroke:blue;stroke-width:0.5;"/>
    <g>
     <rect x="155.0" y="355.0" width="6.0" height="18.0" class="text" style="fill:none;stroke:red;stroke-width:0.5;"/>
     <text x="155.0" y="373.0" achars="1" style="fill:black;font-family:helvetica;font-size:10.0px;">1</text>
    </g>
    <rect x="162.0" y="370.0" width="5.0" height="4.0" class="space" style="fill:none;stroke:blue;stroke-width:0.5;"/>
    <g>
     <rect x="168.0" y="370.0" width="3.0" height="4.0" class="text" style="fill:none;stroke:red;stroke-width:0.5;"/>
     <text x="168.0" y="374.0" achars=".,§" style="fill:black;font-family:helvetica;font-size:10.0px;">.</text>
    </g>
    <g>
     <rect x="173.0" y="354.0" width="13.0" height="20.0" class="text" style="fill:none;stroke:red;stroke-width:0.5;"/>
     <text x="173.0" y="374.0" achars="8" style="fill:black;font-family:helvetica;font-size:10.0px;">8</text>
    </g>
    <g>
     <rect x="188.0" y="355.0" width="12.0" height="19.0" class="text" style="fill:none;stroke:red;stroke-width:0.5;"/>
     <text x="188.0" y="374.0" achars="7" style="fill:black;font-family:helvetica;font-size:10.0px;">7</text>
    </g>
    <g>
     <rect x="202.0" y="353.0" width="5.0" height="24.0" class="text" style="fill:none;stroke:red;stroke-width:0.5;"/>
     <text x="202.0" y="377.0" achars=")" style="fill:black;font-family:helvetica;font-size:10.0px;">)</text>
    </g>
    <rect x="208.0" y="354.0" width="10.0" height="19.0" class="space" style="fill:none;stroke:blue;stroke-width:0.5;"/>
    <rect x="231.0" y="354.0" width="9.0" height="19.0" class="space" style="fill:none;stroke:blue;stroke-width:0.5;"/>
    <rect x="262.0" y="354.0" width="7.0" height="19.0" class="space" style="fill:none;stroke:blue;stroke-width:0.5;"/>
    <rect x="293.0" y="354.0" width="4.0" height="19.0" class="space" style="fill:none;stroke:blue;stroke-width:0.5;"/>
    <rect x="318.0" y="354.0" width="1.0" height="19.0" class="space" style="fill:none;stroke:blue;stroke-width:0.5;"/>
    <rect x="334.0" y="354.0" width="-2.0" height="19.0" class="space" style="fill:none;stroke:blue;stroke-width:0.5;"/>
    <rect x="342.0" y="354.0" width="-3.0" height="19.0" class="space" style="fill:none;stroke:blue;stroke-width:0.5;"/>
    <rect x="345.0" y="354.0" width="-3.0" height="19.0" class="space" style="fill:none;stroke:blue;stroke-width:0.5;"/>
    <rect x="347.0" y="354.0" width="-4.0" height="19.0" class="space" style="fill:none;stroke:blue;stroke-width:0.5;"/>
    <rect x="347.0" y="354.0" width="-3.0" height="19.0" class="space" style="fill:none;stroke:blue;stroke-width:0.5;"/>
    <g>
     <rect x="345.0" y="354.0" width="12.0" height="19.0" class="text" style="fill:none;stroke:red;stroke-width:0.5;"/>
     <text x="345.0" y="373.0" achars="2" style="fill:black;font-family:helvetica;font-size:10.0px;">2</text>
    </g>
    <g>
     <rect x="359.0" y="355.0" width="13.0" height="19.0" class="text" style="fill:none;stroke:red;stroke-width:0.5;"/>
     <text x="359.0" y="374.0" achars="6" style="fill:black;font-family:helvetica;font-size:10.0px;">6</text>
    </g>
    <g>
     <rect x="374.0" y="370.0" width="4.0" height="4.0" class="text" style="fill:none;stroke:red;stroke-width:0.5;"/>
     <text x="374.0" y="374.0" achars=".,§,t" style="fill:black;font-family:helvetica;font-size:10.0px;">.</text>
    </g>
    <g>
     <rect x="379.0" y="355.0" width="14.0" height="18.0" class="text" style="fill:none;stroke:red;stroke-width:0.5;"/>
     <text x="379.0" y="373.0" achars="4,9" style="fill:black;font-family:helvetica;font-size:10.0px;">4</text>
    </g>
    <g>
     <rect x="394.0" y="354.0" width="13.0" height="20.0" class="text" style="fill:none;stroke:red;stroke-width:0.5;"/>
     <text x="394.0" y="374.0" achars="8" style="fill:black;font-family:helvetica;font-size:10.0px;">8</text>
    </g>
   </g>
   <g class="line">
    <rect x="15.0" y="432.0" width="12.0" height="18.0" class="space" style="fill:none;stroke:blue;stroke-width:0.5;"/>
    <g>
     <rect x="15.0" y="432.0" width="12.0" height="18.0" class="text" style="fill:none;stroke:red;stroke-width:0.5;"/>
     <text x="15.0" y="450.0" achars="7,J" style="fill:black;font-family:helvetica;font-size:10.0px;">7</text>
    </g>
    <g>
     <rect x="30.0" y="447.0" width="3.0" height="4.0" class="text" style="fill:none;stroke:red;stroke-width:0.5;"/>
     <text x="30.0" y="451.0" achars=".,§" style="fill:black;font-family:helvetica;font-size:10.0px;">.</text>
    </g>
    <g>
     <rect x="34.0" y="432.0" width="14.0" height="18.0" class="text" style="fill:none;stroke:red;stroke-width:0.5;"/>
     <text x="34.0" y="450.0" achars="4" style="fill:black;font-family:helvetica;font-size:10.0px;">4</text>
    </g>
    <g>
     <rect x="51.0" y="432.0" width="7.0" height="18.0" class="text" style="fill:none;stroke:red;stroke-width:0.5;"/>
     <text x="51.0" y="450.0" achars="1" style="fill:black;font-family:helvetica;font-size:10.0px;">1</text>
    </g>
    <rect x="59.0" y="430.0" width="10.0" height="24.0" class="space" style="fill:none;stroke:blue;stroke-width:0.5;"/>
    <g>
     <rect x="70.0" y="430.0" width="6.0" height="24.0" class="text" style="fill:none;stroke:red;stroke-width:0.5;"/>
     <text x="70.0" y="454.0" achars="(,C" style="fill:black;font-family:helvetica;font-size:10.0px;">(</text>
    </g>
    <g>
     <rect x="77.0" y="432.0" width="14.0" height="18.0" class="text" style="fill:none;stroke:red;stroke-width:0.5;"/>
     <text x="77.0" y="450.0" achars="4,9" style="fill:black;font-family:helvetica;font-size:10.0px;">4</text>
    </g>
    <g>
     <rect x="92.0" y="447.0" width="4.0" height="4.0" class="text" style="fill:none;stroke:red;stroke-width:0.5;"/>
     <text x="92.0" y="451.0" achars=".,§" style="fill:black;font-family:helvetica;font-size:10.0px;">.</text>
    </g>
    <g>
     <rect x="98.0" y="431.0" width="13.0" height="20.0" class="text" style="fill:none;stroke:red;stroke-width:0.5;"/>
     <text x="98.0" y="451.0" achars="9,g" style="fill:black;font-family:helvetica;font-size:10.0px;">9</text>
    </g>
    <g>
     <rect x="114.0" y="432.0" width="7.0" height="18.0" class="text" style="fill:none;stroke:red;stroke-width:0.5;"/>
     <text x="114.0" y="450.0" achars="1" style="fill:black;font-family:helvetica;font-size:10.0px;">1</text>
    </g>
    <rect x="122.0" y="446.0" width="3.0" height="8.0" class="space" style="fill:none;stroke:blue;stroke-width:0.5;"/>
    <g>
     <rect x="126.0" y="446.0" width="5.0" height="8.0" class="text" style="fill:none;stroke:red;stroke-width:0.5;"/>
     <text x="126.0" y="454.0" achars=",§t,l" style="fill:black;font-family:helvetica;font-size:10.0px;">,</text>
    </g>
    <rect x="132.0" y="431.0" width="6.0" height="20.0" class="space" style="fill:none;stroke:blue;stroke-width:0.5;"/>
    <g>
     <rect x="139.0" y="431.0" width="12.0" height="20.0" class="text" style="fill:none;stroke:red;stroke-width:0.5;"/>
     <text x="139.0" y="451.0" achars="9,g" style="fill:black;font-family:helvetica;font-size:10.0px;">9</text>
    </g>
    <g>
     <rect x="153.0" y="447.0" width="4.0" height="4.0" class="text" style="fill:none;stroke:red;stroke-width:0.5;"/>
     <text x="153.0" y="451.0" achars=".,§,t" style="fill:black;font-family:helvetica;font-size:10.0px;">.</text>
    </g>
    <g>
     <rect x="159.0" y="431.0" width="12.0" height="19.0" class="text" style="fill:none;stroke:red;stroke-width:0.5;"/>
     <text x="159.0" y="450.0" achars="" style="fill:black;font-family:helvetica;font-size:10.0px;">?</text>
    </g>
    <g>
     <rect x="173.0" y="431.0" width="12.0" height="19.0" class="text" style="fill:none;stroke:red;stroke-width:0.5;"/>
     <text x="173.0" y="450.0" achars="2,e" style="fill:black;font-family:helvetica;font-size:10.0px;">2</text>
    </g>
    <g>
     <rect x="187.0" y="430.0" width="6.0" height="24.0" class="text" style="fill:none;stroke:red;stroke-width:0.5;"/>
     <text x="187.0" y="454.0" achars="},),&gt;" style="fill:black;font-family:helvetica;font-size:10.0px;">}</text>
    </g>
    <rect x="194.0" y="432.0" width="10.0" height="18.0" class="space" style="fill:none;stroke:blue;stroke-width:0.5;"/>
    <rect x="218.0" y="432.0" width="9.0" height="18.0" class="space" style="fill:none;stroke:blue;stroke-width:0.5;"/>
    <rect x="250.0" y="432.0" width="7.0" height="18.0" class="space" style="fill:none;stroke:blue;stroke-width:0.5;"/>
    <rect x="283.0" y="432.0" width="4.0" height="18.0" class="space" style="fill:none;stroke:blue;stroke-width:0.5;"/>
    <rect x="310.0" y="432.0" width="2.0" height="18.0" class="space" style="fill:none;stroke:blue;stroke-width:0.5;"/>
    <rect x="329.0" y="432.0" width="0.0" height="18.0" class="space" style="fill:none;stroke:blue;stroke-width:0.5;"/>
    <rect x="340.0" y="432.0" width="-2.0" height="18.0" class="space" style="fill:none;stroke:blue;stroke-width:0.5;"/>
    <rect x="346.0" y="432.0" width="-3.0" height="18.0" class="space" style="fill:none;stroke:blue;stroke-width:0.5;"/>
    <rect x="348.0" y="432.0" width="-4.0" height="18.0" class="space" style="fill:none;stroke:blue;stroke-width:0.5;"/>
    <rect x="349.0" y="432.0" width="-4.0" height="18.0" class="space" style="fill:none;stroke:blue;stroke-width:0.5;"/>
    <rect x="349.0" y="432.0" width="-3.0" height="18.0" class="space" style="fill:none;stroke:blue;stroke-width:0.5;"/>
    <g>
     <rect x="347.0" y="432.0" width="6.0" height="18.0" class="text" style="fill:none;stroke:red;stroke-width:0.5;"/>
     <text x="347.0" y="450.0" achars="1,J" style="fill:black;font-family:helvetica;font-size:10.0px;">1</text>
    </g>
    <rect x="354.0" y="431.0" width="4.0" height="20.0" class="space" style="fill:none;stroke:blue;stroke-width:0.5;"/>
    <g>
     <rect x="359.0" y="431.0" width="13.0" height="20.0" class="text" style="fill:none;stroke:red;stroke-width:0.5;"/>
     <text x="359.0" y="451.0" achars="o,0,a" style="fill:black;font-family:helvetica;font-size:10.0px;">o</text>
    </g>
    <g>
     <rect x="374.0" y="431.0" width="12.0" height="20.0" class="text" style="fill:none;stroke:red;stroke-width:0.5;"/>
     <text x="374.0" y="451.0" achars="o,0,a" style="fill:black;font-family:helvetica;font-size:10.0px;">o</text>
    </g>
    <g>
     <rect x="388.0" y="447.0" width="4.0" height="4.0" class="text" style="fill:none;stroke:red;stroke-width:0.5;"/>
     <text x="388.0" y="451.0" achars=".,§" style="fill:black;font-family:helvetica;font-size:10.0px;">.</text>
    </g>
    <g>
     <rect x="394.0" y="431.0" width="13.0" height="20.0" class="text" style="fill:none;stroke:red;stroke-width:0.5;"/>
     <text x="394.0" y="451.0" achars="o,0" style="fill:black;font-family:helvetica;font-size:10.0px;">o</text>
    </g>
    <g>
     <rect x="408.0" y="431.0" width="13.0" height="20.0" class="text" style="fill:none;stroke:red;stroke-width:0.5;"/>
     <text x="408.0" y="451.0" achars="o,0,a" style="fill:black;font-family:helvetica;font-size:10.0px;">o</text>
    </g>
   </g>
  </g>
 </g>
</svg>
