<?xml version="1.0" encoding="UTF-8"?>
<svg height="1114.0" width="1428.0" xmlns="http://www.w3.org/2000/svg">
 <g>
  <g class="horizontallines">
   <line x1="5.0" y1="1.0" x2="1415.0" y2="1.0" style="stroke:red;stroke-width:1.0;"/>
   <line x1="56.0" y1="51.0" x2="1375.0" y2="51.0" style="stroke:red;stroke-width:1.0;"/>
   <line x1="51.0" y1="176.0" x2="752.0" y2="176.0" style="stroke:red;stroke-width:2.0;"/>
   <line x1="754.0" y1="176.0" x2="1379.0" y2="176.0" style="stroke:red;stroke-width:2.0;"/>
   <line x1="51.0" y1="994.0" x2="1379.0" y2="994.0" style="stroke:red;stroke-width:3.0;"/>
   <line x1="53.0" y1="998.0" x2="415.0" y2="998.0" style="stroke:red;stroke-width:1.0;"/>
   <line x1="423.0" y1="998.0" x2="591.0" y2="998.0" style="stroke:red;stroke-width:1.0;"/>
   <line x1="594.0" y1="998.0" x2="744.0" y2="998.0" style="stroke:red;stroke-width:1.0;"/>
   <line x1="760.0" y1="998.0" x2="1080.0" y2="998.0" style="stroke:red;stroke-width:1.0;"/>
   <line x1="1087.0" y1="998.0" x2="1377.0" y2="998.0" style="stroke:red;stroke-width:1.0;"/>
   <line x1="0.0" y1="1104.0" x2="1417.0" y2="1104.0" style="stroke:red;stroke-width:1.0;"/>
  </g>
  <g class="verticallines">
   <line x1="2.0" y1="7.0" x2="2.0" y2="1104.0" style="stroke:blue;stroke-width:1.0;"/>
   <line x1="48.0" y1="57.0" x2="48.0" y2="167.0" style="stroke:blue;stroke-width:1.0;"/>
   <line x1="48.0" y1="185.0" x2="48.0" y2="990.0" style="stroke:blue;stroke-width:1.0;"/>
   <line x1="750.0" y1="176.0" x2="750.0" y2="1011.0" style="stroke:blue;stroke-width:3.0;"/>
   <line x1="1418.0" y1="5.0" x2="1418.0" y2="1103.0" style="stroke:blue;stroke-width:1.0;"/>
  </g>
 </g>
</svg>
