<?xml version="1.0" encoding="UTF-8"?>
<svg height="81.0" width="1247.0" xmlns="http://www.w3.org/2000/svg">
 <g class="page">
  <g class="block">
   <g class="line">
    <rect x="22.0" y="17.0" width="17.0" height="22.0" class="space" style="fill:none;stroke:blue;stroke-width:0.5;"/>
    <g>
     <rect x="22.0" y="17.0" width="17.0" height="22.0" class="text" style="fill:none;stroke:red;stroke-width:0.5;"/>
     <text x="22.0" y="39.0" achars="S,5" style="fill:black;font-family:helvetica;font-size:10.0px;">S</text>
    </g>
    <g>
     <rect x="40.0" y="19.0" width="7.0" height="19.0" class="text" style="fill:none;stroke:red;stroke-width:0.5;"/>
     <text x="40.0" y="38.0" achars="t" style="fill:black;font-family:helvetica;font-size:10.0px;">t</text>
    </g>
    <g>
     <rect x="49.0" y="23.0" width="12.0" height="15.0" class="text" style="fill:none;stroke:red;stroke-width:0.5;"/>
     <text x="49.0" y="38.0" achars="U" style="fill:black;font-family:helvetica;font-size:10.0px;">U</text>
    </g>
    <g>
     <rect x="64.0" y="17.0" width="12.0" height="21.0" class="text" style="fill:none;stroke:red;stroke-width:0.5;"/>
     <text x="64.0" y="38.0" achars="d" style="fill:black;font-family:helvetica;font-size:10.0px;">d</text>
    </g>
    <g>
     <rect x="78.0" y="23.0" width="13.0" height="21.0" class="text" style="fill:none;stroke:red;stroke-width:0.5;"/>
     <text x="78.0" y="44.0" achars="y,Y" style="fill:black;font-family:helvetica;font-size:10.0px;">y</text>
    </g>
    <rect x="92.0" y="17.0" width="10.0" height="12.0" class="space" style="fill:none;stroke:blue;stroke-width:0.5;"/>
    <rect x="117.0" y="17.0" width="10.0" height="12.0" class="space" style="fill:none;stroke:blue;stroke-width:0.5;"/>
    <rect x="155.0" y="17.0" width="10.0" height="12.0" class="space" style="fill:none;stroke:blue;stroke-width:0.5;"/>
    <rect x="205.0" y="17.0" width="9.0" height="12.0" class="space" style="fill:none;stroke:blue;stroke-width:0.5;"/>
    <rect x="265.0" y="17.0" width="8.0" height="12.0" class="space" style="fill:none;stroke:blue;stroke-width:0.5;"/>
    <rect x="332.0" y="17.0" width="8.0" height="12.0" class="space" style="fill:none;stroke:blue;stroke-width:0.5;"/>
    <rect x="406.0" y="17.0" width="6.0" height="12.0" class="space" style="fill:none;stroke:blue;stroke-width:0.5;"/>
    <rect x="482.0" y="17.0" width="6.0" height="12.0" class="space" style="fill:none;stroke:blue;stroke-width:0.5;"/>
    <rect x="559.0" y="17.0" width="5.0" height="12.0" class="space" style="fill:none;stroke:blue;stroke-width:0.5;"/>
    <rect x="635.0" y="17.0" width="4.0" height="12.0" class="space" style="fill:none;stroke:blue;stroke-width:0.5;"/>
    <rect x="708.0" y="17.0" width="3.0" height="12.0" class="space" style="fill:none;stroke:blue;stroke-width:0.5;"/>
    <rect x="776.0" y="17.0" width="2.0" height="12.0" class="space" style="fill:none;stroke:blue;stroke-width:0.5;"/>
    <rect x="839.0" y="17.0" width="1.0" height="12.0" class="space" style="fill:none;stroke:blue;stroke-width:0.5;"/>
    <rect x="895.0" y="17.0" width="0.0" height="12.0" class="space" style="fill:none;stroke:blue;stroke-width:0.5;"/>
    <rect x="944.0" y="17.0" width="-1.0" height="12.0" class="space" style="fill:none;stroke:blue;stroke-width:0.5;"/>
    <rect x="986.0" y="17.0" width="-2.0" height="12.0" class="space" style="fill:none;stroke:blue;stroke-width:0.5;"/>
    <rect x="1021.0" y="17.0" width="-2.0" height="12.0" class="space" style="fill:none;stroke:blue;stroke-width:0.5;"/>
    <rect x="1050.0" y="17.0" width="-2.0" height="12.0" class="space" style="fill:none;stroke:blue;stroke-width:0.5;"/>
    <rect x="1074.0" y="17.0" width="-3.0" height="12.0" class="space" style="fill:none;stroke:blue;stroke-width:0.5;"/>
    <rect x="1092.0" y="17.0" width="-3.0" height="12.0" class="space" style="fill:none;stroke:blue;stroke-width:0.5;"/>
    <rect x="1107.0" y="17.0" width="-4.0" height="12.0" class="space" style="fill:none;stroke:blue;stroke-width:0.5;"/>
    <rect x="1118.0" y="17.0" width="-4.0" height="12.0" class="space" style="fill:none;stroke:blue;stroke-width:0.5;"/>
    <rect x="1126.0" y="17.0" width="-4.0" height="12.0" class="space" style="fill:none;stroke:blue;stroke-width:0.5;"/>
    <rect x="1132.0" y="17.0" width="-4.0" height="12.0" class="space" style="fill:none;stroke:blue;stroke-width:0.5;"/>
    <rect x="1137.0" y="17.0" width="-4.0" height="12.0" class="space" style="fill:none;stroke:blue;stroke-width:0.5;"/>
    <rect x="1140.0" y="17.0" width="-4.0" height="12.0" class="space" style="fill:none;stroke:blue;stroke-width:0.5;"/>
    <rect x="1142.0" y="17.0" width="-3.0" height="12.0" class="space" style="fill:none;stroke:blue;stroke-width:0.5;"/>
    <rect x="1145.0" y="17.0" width="-4.0" height="12.0" class="space" style="fill:none;stroke:blue;stroke-width:0.5;"/>
    <rect x="1146.0" y="17.0" width="-4.0" height="12.0" class="space" style="fill:none;stroke:blue;stroke-width:0.5;"/>
    <rect x="1147.0" y="17.0" width="-4.0" height="12.0" class="space" style="fill:none;stroke:blue;stroke-width:0.5;"/>
    <rect x="1148.0" y="17.0" width="-4.0" height="12.0" class="space" style="fill:none;stroke:blue;stroke-width:0.5;"/>
    <rect x="1148.0" y="17.0" width="-4.0" height="12.0" class="space" style="fill:none;stroke:blue;stroke-width:0.5;"/>
    <rect x="1148.0" y="17.0" width="-4.0" height="12.0" class="space" style="fill:none;stroke:blue;stroke-width:0.5;"/>
    <rect x="1148.0" y="17.0" width="-3.0" height="12.0" class="space" style="fill:none;stroke:blue;stroke-width:0.5;"/>
    <rect x="1149.0" y="17.0" width="-4.0" height="12.0" class="space" style="fill:none;stroke:blue;stroke-width:0.5;"/>
    <rect x="1149.0" y="17.0" width="-4.0" height="12.0" class="space" style="fill:none;stroke:blue;stroke-width:0.5;"/>
    <rect x="1149.0" y="17.0" width="-4.0" height="12.0" class="space" style="fill:none;stroke:blue;stroke-width:0.5;"/>
    <rect x="1149.0" y="17.0" width="-3.0" height="12.0" class="space" style="fill:none;stroke:blue;stroke-width:0.5;"/>
    <rect x="1150.0" y="17.0" width="-4.0" height="12.0" class="space" style="fill:none;stroke:blue;stroke-width:0.5;"/>
    <rect x="1150.0" y="17.0" width="-4.0" height="12.0" class="space" style="fill:none;stroke:blue;stroke-width:0.5;"/>
    <rect x="1150.0" y="17.0" width="-4.0" height="12.0" class="space" style="fill:none;stroke:blue;stroke-width:0.5;"/>
    <rect x="1150.0" y="17.0" width="-4.0" height="12.0" class="space" style="fill:none;stroke:blue;stroke-width:0.5;"/>
    <rect x="1150.0" y="17.0" width="-3.0" height="12.0" class="space" style="fill:none;stroke:blue;stroke-width:0.5;"/>
    <rect x="1151.0" y="17.0" width="-4.0" height="12.0" class="space" style="fill:none;stroke:blue;stroke-width:0.5;"/>
    <rect x="1151.0" y="17.0" width="-4.0" height="12.0" class="space" style="fill:none;stroke:blue;stroke-width:0.5;"/>
    <rect x="1151.0" y="17.0" width="-4.0" height="12.0" class="space" style="fill:none;stroke:blue;stroke-width:0.5;"/>
    <rect x="1151.0" y="17.0" width="-4.0" height="12.0" class="space" style="fill:none;stroke:blue;stroke-width:0.5;"/>
    <rect x="1151.0" y="17.0" width="-4.0" height="12.0" class="space" style="fill:none;stroke:blue;stroke-width:0.5;"/>
    <rect x="1151.0" y="17.0" width="-4.0" height="12.0" class="space" style="fill:none;stroke:blue;stroke-width:0.5;"/>
    <rect x="1151.0" y="17.0" width="-3.0" height="12.0" class="space" style="fill:none;stroke:blue;stroke-width:0.5;"/>
    <rect x="1152.0" y="17.0" width="-4.0" height="12.0" class="space" style="fill:none;stroke:blue;stroke-width:0.5;"/>
    <rect x="1152.0" y="17.0" width="-4.0" height="12.0" class="space" style="fill:none;stroke:blue;stroke-width:0.5;"/>
    <rect x="1152.0" y="17.0" width="-4.0" height="12.0" class="space" style="fill:none;stroke:blue;stroke-width:0.5;"/>
    <rect x="1152.0" y="17.0" width="-4.0" height="12.0" class="space" style="fill:none;stroke:blue;stroke-width:0.5;"/>
    <rect x="1152.0" y="17.0" width="-4.0" height="12.0" class="space" style="fill:none;stroke:blue;stroke-width:0.5;"/>
    <rect x="1152.0" y="17.0" width="-4.0" height="12.0" class="space" style="fill:none;stroke:blue;stroke-width:0.5;"/>
    <rect x="1152.0" y="17.0" width="-4.0" height="12.0" class="space" style="fill:none;stroke:blue;stroke-width:0.5;"/>
    <rect x="1152.0" y="17.0" width="-4.0" height="12.0" class="space" style="fill:none;stroke:blue;stroke-width:0.5;"/>
    <rect x="1152.0" y="17.0" width="-4.0" height="12.0" class="space" style="fill:none;stroke:blue;stroke-width:0.5;"/>
    <rect x="1152.0" y="17.0" width="-3.0" height="12.0" class="space" style="fill:none;stroke:blue;stroke-width:0.5;"/>
    <rect x="1153.0" y="17.0" width="-4.0" height="12.0" class="space" style="fill:none;stroke:blue;stroke-width:0.5;"/>
    <rect x="1153.0" y="17.0" width="-4.0" height="12.0" class="space" style="fill:none;stroke:blue;stroke-width:0.5;"/>
    <rect x="1153.0" y="17.0" width="-4.0" height="12.0" class="space" style="fill:none;stroke:blue;stroke-width:0.5;"/>
    <rect x="1153.0" y="17.0" width="-4.0" height="12.0" class="space" style="fill:none;stroke:blue;stroke-width:0.5;"/>
    <rect x="1153.0" y="17.0" width="-4.0" height="12.0" class="space" style="fill:none;stroke:blue;stroke-width:0.5;"/>
    <rect x="1153.0" y="17.0" width="-4.0" height="12.0" class="space" style="fill:none;stroke:blue;stroke-width:0.5;"/>
    <rect x="1153.0" y="17.0" width="-4.0" height="12.0" class="space" style="fill:none;stroke:blue;stroke-width:0.5;"/>
    <rect x="1153.0" y="17.0" width="-4.0" height="12.0" class="space" style="fill:none;stroke:blue;stroke-width:0.5;"/>
    <rect x="1153.0" y="17.0" width="-4.0" height="12.0" class="space" style="fill:none;stroke:blue;stroke-width:0.5;"/>
    <rect x="1153.0" y="17.0" width="-4.0" height="12.0" class="space" style="fill:none;stroke:blue;stroke-width:0.5;"/>
    <rect x="1153.0" y="17.0" width="-4.0" height="12.0" class="space" style="fill:none;stroke:blue;stroke-width:0.5;"/>
    <rect x="1153.0" y="17.0" width="-4.0" height="12.0" class="space" style="fill:none;stroke:blue;stroke-width:0.5;"/>
    <rect x="1153.0" y="17.0" width="-4.0" height="12.0" class="space" style="fill:none;stroke:blue;stroke-width:0.5;"/>
    <rect x="1153.0" y="17.0" width="-4.0" height="12.0" class="space" style="fill:none;stroke:blue;stroke-width:0.5;"/>
    <rect x="1153.0" y="17.0" width="-3.0" height="12.0" class="space" style="fill:none;stroke:blue;stroke-width:0.5;"/>
    <g>
     <rect x="1151.0" y="17.0" width="9.0" height="12.0" class="text" style="fill:none;stroke:red;stroke-width:0.5;"/>
     <text x="1151.0" y="29.0" achars="O,0" style="fill:black;font-family:helvetica;font-size:10.0px;">O</text>
    </g>
    <g>
     <rect x="1156.0" y="17.0" width="13.0" height="21.0" class="text" style="fill:none;stroke:red;stroke-width:0.5;"/>
     <text x="1156.0" y="38.0" achars="/" style="fill:black;font-family:helvetica;font-size:10.0px;">/</text>
    </g>
    <g>
     <rect x="1164.0" y="26.0" width="9.0" height="12.0" class="text" style="fill:none;stroke:red;stroke-width:0.5;"/>
     <text x="1164.0" y="38.0" achars="o,O,0,a" style="fill:black;font-family:helvetica;font-size:10.0px;">o</text>
    </g>
   </g>
   <g class="line">
    <rect x="22.0" y="44.0" width="3.0" height="20.0" class="space" style="fill:none;stroke:blue;stroke-width:0.5;"/>
    <g>
     <rect x="22.0" y="44.0" width="3.0" height="20.0" class="text" style="fill:none;stroke:red;stroke-width:0.5;"/>
     <text x="22.0" y="64.0" achars="l,I,|,1" style="fill:black;font-family:helvetica;font-size:10.0px;">l</text>
    </g>
    <g>
     <rect x="28.0" y="44.0" width="18.0" height="21.0" class="text" style="fill:none;stroke:red;stroke-width:0.5;"/>
     <text x="28.0" y="65.0" achars="D" style="fill:black;font-family:helvetica;font-size:10.0px;">D</text>
    </g>
    <rect x="47.0" y="44.0" width="12.0" height="20.0" class="space" style="fill:none;stroke:blue;stroke-width:0.5;"/>
    <rect x="76.0" y="44.0" width="13.0" height="20.0" class="space" style="fill:none;stroke:blue;stroke-width:0.5;"/>
    <rect x="121.0" y="44.0" width="12.0" height="20.0" class="space" style="fill:none;stroke:blue;stroke-width:0.5;"/>
    <rect x="179.0" y="44.0" width="11.0" height="20.0" class="space" style="fill:none;stroke:blue;stroke-width:0.5;"/>
    <rect x="247.0" y="44.0" width="10.0" height="20.0" class="space" style="fill:none;stroke:blue;stroke-width:0.5;"/>
    <rect x="321.0" y="44.0" width="9.0" height="20.0" class="space" style="fill:none;stroke:blue;stroke-width:0.5;"/>
    <rect x="399.0" y="44.0" width="7.0" height="20.0" class="space" style="fill:none;stroke:blue;stroke-width:0.5;"/>
    <rect x="476.0" y="44.0" width="6.0" height="20.0" class="space" style="fill:none;stroke:blue;stroke-width:0.5;"/>
    <rect x="551.0" y="44.0" width="4.0" height="20.0" class="space" style="fill:none;stroke:blue;stroke-width:0.5;"/>
    <rect x="620.0" y="44.0" width="3.0" height="20.0" class="space" style="fill:none;stroke:blue;stroke-width:0.5;"/>
    <rect x="682.0" y="44.0" width="2.0" height="20.0" class="space" style="fill:none;stroke:blue;stroke-width:0.5;"/>
    <rect x="736.0" y="44.0" width="1.0" height="20.0" class="space" style="fill:none;stroke:blue;stroke-width:0.5;"/>
    <rect x="782.0" y="44.0" width="0.0" height="20.0" class="space" style="fill:none;stroke:blue;stroke-width:0.5;"/>
    <rect x="820.0" y="44.0" width="-1.0" height="20.0" class="space" style="fill:none;stroke:blue;stroke-width:0.5;"/>
    <rect x="850.0" y="44.0" width="-2.0" height="20.0" class="space" style="fill:none;stroke:blue;stroke-width:0.5;"/>
    <rect x="873.0" y="44.0" width="-3.0" height="20.0" class="space" style="fill:none;stroke:blue;stroke-width:0.5;"/>
    <rect x="890.0" y="44.0" width="-3.0" height="20.0" class="space" style="fill:none;stroke:blue;stroke-width:0.5;"/>
    <rect x="903.0" y="44.0" width="-4.0" height="20.0" class="space" style="fill:none;stroke:blue;stroke-width:0.5;"/>
    <rect x="911.0" y="44.0" width="-3.0" height="20.0" class="space" style="fill:none;stroke:blue;stroke-width:0.5;"/>
    <rect x="918.0" y="44.0" width="-4.0" height="20.0" class="space" style="fill:none;stroke:blue;stroke-width:0.5;"/>
    <rect x="922.0" y="44.0" width="-4.0" height="20.0" class="space" style="fill:none;stroke:blue;stroke-width:0.5;"/>
    <rect x="925.0" y="44.0" width="-4.0" height="20.0" class="space" style="fill:none;stroke:blue;stroke-width:0.5;"/>
    <rect x="927.0" y="44.0" width="-4.0" height="20.0" class="space" style="fill:none;stroke:blue;stroke-width:0.5;"/>
    <rect x="928.0" y="44.0" width="-4.0" height="20.0" class="space" style="fill:none;stroke:blue;stroke-width:0.5;"/>
    <rect x="929.0" y="44.0" width="-4.0" height="20.0" class="space" style="fill:none;stroke:blue;stroke-width:0.5;"/>
    <rect x="930.0" y="44.0" width="-4.0" height="20.0" class="space" style="fill:none;stroke:blue;stroke-width:0.5;"/>
    <rect x="930.0" y="44.0" width="-3.0" height="20.0" class="space" style="fill:none;stroke:blue;stroke-width:0.5;"/>
    <rect x="931.0" y="44.0" width="-4.0" height="20.0" class="space" style="fill:none;stroke:blue;stroke-width:0.5;"/>
    <rect x="931.0" y="44.0" width="-4.0" height="20.0" class="space" style="fill:none;stroke:blue;stroke-width:0.5;"/>
    <rect x="931.0" y="44.0" width="-4.0" height="20.0" class="space" style="fill:none;stroke:blue;stroke-width:0.5;"/>
    <rect x="931.0" y="44.0" width="-3.0" height="20.0" class="space" style="fill:none;stroke:blue;stroke-width:0.5;"/>
    <rect x="932.0" y="44.0" width="-4.0" height="20.0" class="space" style="fill:none;stroke:blue;stroke-width:0.5;"/>
    <rect x="932.0" y="44.0" width="-4.0" height="20.0" class="space" style="fill:none;stroke:blue;stroke-width:0.5;"/>
    <rect x="932.0" y="44.0" width="-4.0" height="20.0" class="space" style="fill:none;stroke:blue;stroke-width:0.5;"/>
    <rect x="932.0" y="44.0" width="-4.0" height="20.0" class="space" style="fill:none;stroke:blue;stroke-width:0.5;"/>
    <rect x="932.0" y="44.0" width="-3.0" height="20.0" class="space" style="fill:none;stroke:blue;stroke-width:0.5;"/>
    <rect x="933.0" y="44.0" width="-4.0" height="20.0" class="space" style="fill:none;stroke:blue;stroke-width:0.5;"/>
    <rect x="933.0" y="44.0" width="-4.0" height="20.0" class="space" style="fill:none;stroke:blue;stroke-width:0.5;"/>
    <rect x="933.0" y="44.0" width="-4.0" height="20.0" class="space" style="fill:none;stroke:blue;stroke-width:0.5;"/>
    <rect x="933.0" y="44.0" width="-4.0" height="20.0" class="space" style="fill:none;stroke:blue;stroke-width:0.5;"/>
    <rect x="933.0" y="44.0" width="-4.0" height="20.0" class="space" style="fill:none;stroke:blue;stroke-width:0.5;"/>
    <rect x="933.0" y="44.0" width="-4.0" height="20.0" class="space" style="fill:none;stroke:blue;stroke-width:0.5;"/>
    <rect x="933.0" y="44.0" width="-3.0" height="20.0" class="space" style="fill:none;stroke:blue;stroke-width:0.5;"/>
    <rect x="934.0" y="44.0" width="-4.0" height="20.0" class="space" style="fill:none;stroke:blue;stroke-width:0.5;"/>
    <rect x="934.0" y="44.0" width="-4.0" height="20.0" class="space" style="fill:none;stroke:blue;stroke-width:0.5;"/>
    <rect x="934.0" y="44.0" width="-4.0" height="20.0" class="space" style="fill:none;stroke:blue;stroke-width:0.5;"/>
    <rect x="934.0" y="44.0" width="-4.0" height="20.0" class="space" style="fill:none;stroke:blue;stroke-width:0.5;"/>
    <rect x="934.0" y="44.0" width="-4.0" height="20.0" class="space" style="fill:none;stroke:blue;stroke-width:0.5;"/>
    <rect x="934.0" y="44.0" width="-4.0" height="20.0" class="space" style="fill:none;stroke:blue;stroke-width:0.5;"/>
    <rect x="934.0" y="44.0" width="-4.0" height="20.0" class="space" style="fill:none;stroke:blue;stroke-width:0.5;"/>
    <rect x="934.0" y="44.0" width="-4.0" height="20.0" class="space" style="fill:none;stroke:blue;stroke-width:0.5;"/>
    <rect x="934.0" y="44.0" width="-4.0" height="20.0" class="space" style="fill:none;stroke:blue;stroke-width:0.5;"/>
    <rect x="934.0" y="44.0" width="-3.0" height="20.0" class="space" style="fill:none;stroke:blue;stroke-width:0.5;"/>
    <g>
     <rect x="932.0" y="44.0" width="19.0" height="20.0" class="text" style="fill:none;stroke:red;stroke-width:0.5;"/>
     <text x="932.0" y="64.0" achars="R" style="fill:black;font-family:helvetica;font-size:10.0px;">R</text>
    </g>
    <g>
     <rect x="953.0" y="43.0" width="18.0" height="21.0" class="text" style="fill:none;stroke:red;stroke-width:0.5;"/>
     <text x="953.0" y="64.0" achars="R" style="fill:black;font-family:helvetica;font-size:10.0px;">R</text>
    </g>
    <rect x="972.0" y="44.0" width="8.0" height="26.0" class="space" style="fill:none;stroke:blue;stroke-width:0.5;"/>
    <g>
     <rect x="981.0" y="44.0" width="7.0" height="26.0" class="text" style="fill:none;stroke:red;stroke-width:0.5;"/>
     <text x="981.0" y="70.0" achars="(,C" style="fill:black;font-family:helvetica;font-size:10.0px;">(</text>
    </g>
    <g>
     <rect x="990.0" y="44.0" width="13.0" height="21.0" class="text" style="fill:none;stroke:red;stroke-width:0.5;"/>
     <text x="990.0" y="65.0" achars="9,g" style="fill:black;font-family:helvetica;font-size:10.0px;">9</text>
    </g>
    <g>
     <rect x="1006.0" y="44.0" width="13.0" height="21.0" class="text" style="fill:none;stroke:red;stroke-width:0.5;"/>
     <text x="1006.0" y="65.0" achars="5" style="fill:black;font-family:helvetica;font-size:10.0px;">5</text>
    </g>
    <g>
     <rect x="1020.0" y="43.0" width="10.0" height="12.0" class="text" style="fill:none;stroke:red;stroke-width:0.5;"/>
     <text x="1020.0" y="55.0" achars="O,0,&quot;" style="fill:black;font-family:helvetica;font-size:10.0px;">O</text>
    </g>
    <g>
     <rect x="1025.0" y="44.0" width="13.0" height="20.0" class="text" style="fill:none;stroke:red;stroke-width:0.5;"/>
     <text x="1025.0" y="64.0" achars="/" style="fill:black;font-family:helvetica;font-size:10.0px;">/</text>
    </g>
    <g>
     <rect x="1034.0" y="53.0" width="9.0" height="12.0" class="text" style="fill:none;stroke:red;stroke-width:0.5;"/>
     <text x="1034.0" y="65.0" achars="0" style="fill:black;font-family:helvetica;font-size:10.0px;">0</text>
    </g>
    <rect x="1044.0" y="43.0" width="8.0" height="22.0" class="space" style="fill:none;stroke:blue;stroke-width:0.5;"/>
    <g>
     <rect x="1053.0" y="43.0" width="18.0" height="22.0" class="text" style="fill:none;stroke:red;stroke-width:0.5;"/>
     <text x="1053.0" y="65.0" achars="C" style="fill:black;font-family:helvetica;font-size:10.0px;">C</text>
    </g>
    <g>
     <rect x="1074.0" y="44.0" width="3.0" height="20.0" class="text" style="fill:none;stroke:red;stroke-width:0.5;"/>
     <text x="1074.0" y="64.0" achars="l,I,|,1" style="fill:black;font-family:helvetica;font-size:10.0px;">l</text>
    </g>
    <g>
     <rect x="1080.0" y="44.0" width="7.0" height="27.0" class="text" style="fill:none;stroke:red;stroke-width:0.5;"/>
     <text x="1080.0" y="71.0" achars=")" style="fill:black;font-family:helvetica;font-size:10.0px;">)</text>
    </g>
    <rect x="1088.0" y="43.0" width="17.0" height="21.0" class="space" style="fill:none;stroke:blue;stroke-width:0.5;"/>
    <rect x="1121.0" y="43.0" width="12.0" height="21.0" class="space" style="fill:none;stroke:blue;stroke-width:0.5;"/>
    <rect x="1146.0" y="43.0" width="3.0" height="21.0" class="space" style="fill:none;stroke:blue;stroke-width:0.5;"/>
    <g>
     <rect x="1150.0" y="43.0" width="28.0" height="21.0" class="text" style="fill:none;stroke:red;stroke-width:0.5;"/>
     <text x="1150.0" y="64.0" achars="W" style="fill:black;font-family:helvetica;font-size:10.0px;">W</text>
    </g>
    <g>
     <rect x="1179.0" y="49.0" width="14.0" height="16.0" class="text" style="fill:none;stroke:red;stroke-width:0.5;"/>
     <text x="1179.0" y="65.0" achars="e,g" style="fill:black;font-family:helvetica;font-size:10.0px;">e</text>
    </g>
    <g>
     <rect x="1195.0" y="44.0" width="3.0" height="20.0" class="text" style="fill:none;stroke:red;stroke-width:0.5;"/>
     <text x="1195.0" y="64.0" achars="i,j" style="fill:black;font-family:helvetica;font-size:10.0px;">i</text>
    </g>
    <g>
     <rect x="1200.0" y="49.0" width="13.0" height="22.0" class="text" style="fill:none;stroke:red;stroke-width:0.5;"/>
     <text x="1200.0" y="71.0" achars="g,9,Q" style="fill:black;font-family:helvetica;font-size:10.0px;">g</text>
    </g>
    <g>
     <rect x="1216.0" y="44.0" width="12.0" height="20.0" class="text" style="fill:none;stroke:red;stroke-width:0.5;"/>
     <text x="1216.0" y="64.0" achars="h" style="fill:black;font-family:helvetica;font-size:10.0px;">h</text>
    </g>
    <g>
     <rect x="1229.0" y="45.0" width="8.0" height="20.0" class="text" style="fill:none;stroke:red;stroke-width:0.5;"/>
     <text x="1229.0" y="65.0" achars="t" style="fill:black;font-family:helvetica;font-size:10.0px;">t</text>
    </g>
   </g>
  </g>
 </g>
</svg>
