<?xml version="1.0" encoding="UTF-8"?>
<svg height="40.0" width="847.0" xmlns="http://www.w3.org/2000/svg">
 <g class="page">
  <g class="block">
   <g class="line">
    <rect x="224.0" y="28.0" width="2.0" height="2.0" class="space" style="fill:none;stroke:blue;stroke-width:0.5;"/>
    <g>
     <rect x="224.0" y="28.0" width="2.0" height="2.0" class="text" style="fill:none;stroke:red;stroke-width:0.5;"/>
     <text x="224.0" y="30.0" achars=".,ยง" style="fill:black;font-family:helvetica;font-size:10.0px;">.</text>
    </g>
    <g>
     <rect x="228.0" y="19.0" width="6.0" height="11.0" class="text" style="fill:none;stroke:red;stroke-width:0.5;"/>
     <text x="228.0" y="30.0" achars="O,0" style="fill:black;font-family:helvetica;font-size:10.0px;">O</text>
    </g>
    <g>
     <rect x="236.0" y="20.0" width="5.0" height="10.0" class="text" style="fill:none;stroke:red;stroke-width:0.5;"/>
     <text x="236.0" y="30.0" achars="1" style="fill:black;font-family:helvetica;font-size:10.0px;">1</text>
    </g>
    <rect x="242.0" y="20.0" width="4.0" height="10.0" class="space" style="fill:none;stroke:blue;stroke-width:0.5;"/>
    <rect x="254.0" y="20.0" width="4.0" height="10.0" class="space" style="fill:none;stroke:blue;stroke-width:0.5;"/>
    <rect x="274.0" y="20.0" width="4.0" height="10.0" class="space" style="fill:none;stroke:blue;stroke-width:0.5;"/>
    <rect x="300.0" y="20.0" width="4.0" height="10.0" class="space" style="fill:none;stroke:blue;stroke-width:0.5;"/>
    <rect x="332.0" y="20.0" width="2.0" height="10.0" class="space" style="fill:none;stroke:blue;stroke-width:0.5;"/>
    <rect x="365.0" y="20.0" width="2.0" height="10.0" class="space" style="fill:none;stroke:blue;stroke-width:0.5;"/>
    <rect x="400.0" y="20.0" width="2.0" height="10.0" class="space" style="fill:none;stroke:blue;stroke-width:0.5;"/>
    <rect x="436.0" y="20.0" width="0.0" height="10.0" class="space" style="fill:none;stroke:blue;stroke-width:0.5;"/>
    <rect x="469.0" y="20.0" width="0.0" height="10.0" class="space" style="fill:none;stroke:blue;stroke-width:0.5;"/>
    <rect x="500.0" y="20.0" width="-1.0" height="10.0" class="space" style="fill:none;stroke:blue;stroke-width:0.5;"/>
    <rect x="527.0" y="20.0" width="-2.0" height="10.0" class="space" style="fill:none;stroke:blue;stroke-width:0.5;"/>
    <rect x="549.0" y="20.0" width="-1.0" height="10.0" class="space" style="fill:none;stroke:blue;stroke-width:0.5;"/>
    <rect x="569.0" y="20.0" width="-3.0" height="10.0" class="space" style="fill:none;stroke:blue;stroke-width:0.5;"/>
    <rect x="584.0" y="20.0" width="-3.0" height="10.0" class="space" style="fill:none;stroke:blue;stroke-width:0.5;"/>
    <rect x="596.0" y="20.0" width="-3.0" height="10.0" class="space" style="fill:none;stroke:blue;stroke-width:0.5;"/>
    <rect x="605.0" y="20.0" width="-3.0" height="10.0" class="space" style="fill:none;stroke:blue;stroke-width:0.5;"/>
    <rect x="612.0" y="20.0" width="-4.0" height="10.0" class="space" style="fill:none;stroke:blue;stroke-width:0.5;"/>
    <rect x="616.0" y="20.0" width="-4.0" height="10.0" class="space" style="fill:none;stroke:blue;stroke-width:0.5;"/>
    <rect x="619.0" y="20.0" width="-4.0" height="10.0" class="space" style="fill:none;stroke:blue;stroke-width:0.5;"/>
    <rect x="621.0" y="20.0" width="-4.0" height="10.0" class="space" style="fill:none;stroke:blue;stroke-width:0.5;"/>
    <rect x="623.0" y="20.0" width="-4.0" height="10.0" class="space" style="fill:none;stroke:blue;stroke-width:0.5;"/>
    <rect x="624.0" y="20.0" width="-4.0" height="10.0" class="space" style="fill:none;stroke:blue;stroke-width:0.5;"/>
    <rect x="625.0" y="20.0" width="-4.0" height="10.0" class="space" style="fill:none;stroke:blue;stroke-width:0.5;"/>
    <rect x="625.0" y="20.0" width="-3.0" height="10.0" class="space" style="fill:none;stroke:blue;stroke-width:0.5;"/>
    <rect x="626.0" y="20.0" width="-4.0" height="10.0" class="space" style="fill:none;stroke:blue;stroke-width:0.5;"/>
    <rect x="626.0" y="20.0" width="-4.0" height="10.0" class="space" style="fill:none;stroke:blue;stroke-width:0.5;"/>
    <rect x="626.0" y="20.0" width="-4.0" height="10.0" class="space" style="fill:none;stroke:blue;stroke-width:0.5;"/>
    <rect x="626.0" y="20.0" width="-3.0" height="10.0" class="space" style="fill:none;stroke:blue;stroke-width:0.5;"/>
    <rect x="627.0" y="20.0" width="-4.0" height="10.0" class="space" style="fill:none;stroke:blue;stroke-width:0.5;"/>
    <rect x="627.0" y="20.0" width="-4.0" height="10.0" class="space" style="fill:none;stroke:blue;stroke-width:0.5;"/>
    <rect x="627.0" y="20.0" width="-4.0" height="10.0" class="space" style="fill:none;stroke:blue;stroke-width:0.5;"/>
    <rect x="627.0" y="20.0" width="-3.0" height="10.0" class="space" style="fill:none;stroke:blue;stroke-width:0.5;"/>
    <rect x="628.0" y="20.0" width="-4.0" height="10.0" class="space" style="fill:none;stroke:blue;stroke-width:0.5;"/>
    <rect x="628.0" y="20.0" width="-4.0" height="10.0" class="space" style="fill:none;stroke:blue;stroke-width:0.5;"/>
    <rect x="628.0" y="20.0" width="-4.0" height="10.0" class="space" style="fill:none;stroke:blue;stroke-width:0.5;"/>
    <rect x="628.0" y="20.0" width="-4.0" height="10.0" class="space" style="fill:none;stroke:blue;stroke-width:0.5;"/>
    <rect x="628.0" y="20.0" width="-4.0" height="10.0" class="space" style="fill:none;stroke:blue;stroke-width:0.5;"/>
    <rect x="628.0" y="20.0" width="-4.0" height="10.0" class="space" style="fill:none;stroke:blue;stroke-width:0.5;"/>
    <rect x="628.0" y="20.0" width="-3.0" height="10.0" class="space" style="fill:none;stroke:blue;stroke-width:0.5;"/>
    <rect x="629.0" y="20.0" width="-4.0" height="10.0" class="space" style="fill:none;stroke:blue;stroke-width:0.5;"/>
    <rect x="629.0" y="20.0" width="-4.0" height="10.0" class="space" style="fill:none;stroke:blue;stroke-width:0.5;"/>
    <rect x="629.0" y="20.0" width="-4.0" height="10.0" class="space" style="fill:none;stroke:blue;stroke-width:0.5;"/>
    <rect x="629.0" y="20.0" width="-4.0" height="10.0" class="space" style="fill:none;stroke:blue;stroke-width:0.5;"/>
    <rect x="629.0" y="20.0" width="-4.0" height="10.0" class="space" style="fill:none;stroke:blue;stroke-width:0.5;"/>
    <rect x="629.0" y="20.0" width="-4.0" height="10.0" class="space" style="fill:none;stroke:blue;stroke-width:0.5;"/>
    <rect x="629.0" y="20.0" width="-4.0" height="10.0" class="space" style="fill:none;stroke:blue;stroke-width:0.5;"/>
    <rect x="629.0" y="20.0" width="-4.0" height="10.0" class="space" style="fill:none;stroke:blue;stroke-width:0.5;"/>
    <rect x="629.0" y="20.0" width="-3.0" height="10.0" class="space" style="fill:none;stroke:blue;stroke-width:0.5;"/>
    <g>
     <rect x="627.0" y="20.0" width="6.0" height="10.0" class="text" style="fill:none;stroke:red;stroke-width:0.5;"/>
     <text x="627.0" y="30.0" achars="1,q" style="fill:black;font-family:helvetica;font-size:10.0px;">1</text>
    </g>
    <rect x="634.0" y="20.0" width="4.0" height="10.0" class="space" style="fill:none;stroke:blue;stroke-width:0.5;"/>
    <rect x="647.0" y="20.0" width="4.0" height="10.0" class="space" style="fill:none;stroke:blue;stroke-width:0.5;"/>
    <rect x="667.0" y="20.0" width="3.0" height="10.0" class="space" style="fill:none;stroke:blue;stroke-width:0.5;"/>
    <rect x="691.0" y="20.0" width="2.0" height="10.0" class="space" style="fill:none;stroke:blue;stroke-width:0.5;"/>
    <rect x="716.0" y="20.0" width="2.0" height="10.0" class="space" style="fill:none;stroke:blue;stroke-width:0.5;"/>
    <rect x="742.0" y="20.0" width="0.0" height="10.0" class="space" style="fill:none;stroke:blue;stroke-width:0.5;"/>
    <rect x="764.0" y="20.0" width="0.0" height="10.0" class="space" style="fill:none;stroke:blue;stroke-width:0.5;"/>
    <rect x="783.0" y="20.0" width="-1.0" height="10.0" class="space" style="fill:none;stroke:blue;stroke-width:0.5;"/>
    <rect x="797.0" y="20.0" width="-2.0" height="10.0" class="space" style="fill:none;stroke:blue;stroke-width:0.5;"/>
    <rect x="807.0" y="20.0" width="-2.0" height="10.0" class="space" style="fill:none;stroke:blue;stroke-width:0.5;"/>
    <rect x="814.0" y="20.0" width="-3.0" height="10.0" class="space" style="fill:none;stroke:blue;stroke-width:0.5;"/>
    <rect x="818.0" y="20.0" width="-3.0" height="10.0" class="space" style="fill:none;stroke:blue;stroke-width:0.5;"/>
    <rect x="821.0" y="20.0" width="-4.0" height="10.0" class="space" style="fill:none;stroke:blue;stroke-width:0.5;"/>
    <rect x="822.0" y="20.0" width="-4.0" height="10.0" class="space" style="fill:none;stroke:blue;stroke-width:0.5;"/>
    <rect x="823.0" y="20.0" width="-4.0" height="10.0" class="space" style="fill:none;stroke:blue;stroke-width:0.5;"/>
    <rect x="823.0" y="20.0" width="-3.0" height="10.0" class="space" style="fill:none;stroke:blue;stroke-width:0.5;"/>
    <rect x="824.0" y="20.0" width="-4.0" height="10.0" class="space" style="fill:none;stroke:blue;stroke-width:0.5;"/>
    <rect x="824.0" y="20.0" width="-4.0" height="10.0" class="space" style="fill:none;stroke:blue;stroke-width:0.5;"/>
    <rect x="824.0" y="20.0" width="-3.0" height="10.0" class="space" style="fill:none;stroke:blue;stroke-width:0.5;"/>
    <rect x="825.0" y="20.0" width="-4.0" height="10.0" class="space" style="fill:none;stroke:blue;stroke-width:0.5;"/>
    <rect x="825.0" y="20.0" width="-4.0" height="10.0" class="space" style="fill:none;stroke:blue;stroke-width:0.5;"/>
    <rect x="825.0" y="20.0" width="-4.0" height="10.0" class="space" style="fill:none;stroke:blue;stroke-width:0.5;"/>
    <rect x="825.0" y="20.0" width="-3.0" height="10.0" class="space" style="fill:none;stroke:blue;stroke-width:0.5;"/>
    <g>
     <rect x="823.0" y="20.0" width="5.0" height="10.0" class="text" style="fill:none;stroke:red;stroke-width:0.5;"/>
     <text x="823.0" y="30.0" achars="1" style="fill:black;font-family:helvetica;font-size:10.0px;">1</text>
    </g>
    <g>
     <rect x="830.0" y="19.0" width="7.0" height="11.0" class="text" style="fill:none;stroke:red;stroke-width:0.5;"/>
     <text x="830.0" y="30.0" achars="O,0,a" style="fill:black;font-family:helvetica;font-size:10.0px;">O</text>
    </g>
   </g>
  </g>
 </g>
</svg>
