<?xml version="1.0" encoding="UTF-8"?>
<svg height="145.0" width="1204.0" xmlns="http://www.w3.org/2000/svg">
 <g class="page">
  <g class="block">
   <g class="line">
    <rect x="66.0" y="75.0" width="8.0" height="14.0" class="space" style="fill:none;stroke:blue;stroke-width:0.5;"/>
    <g>
     <rect x="66.0" y="75.0" width="8.0" height="14.0" class="text" style="fill:none;stroke:red;stroke-width:0.5;"/>
     <text x="66.0" y="89.0" achars="5,S" style="fill:black;font-family:helvetica;font-size:10.0px;">5</text>
    </g>
    <g>
     <rect x="75.0" y="76.0" width="6.0" height="13.0" class="text" style="fill:none;stroke:red;stroke-width:0.5;"/>
     <text x="75.0" y="89.0" achars="t" style="fill:black;font-family:helvetica;font-size:10.0px;">t</text>
    </g>
    <g>
     <rect x="83.0" y="79.0" width="9.0" height="10.0" class="text" style="fill:none;stroke:red;stroke-width:0.5;"/>
     <text x="83.0" y="89.0" achars="u" style="fill:black;font-family:helvetica;font-size:10.0px;">u</text>
    </g>
    <g>
     <rect x="93.0" y="74.0" width="10.0" height="15.0" class="text" style="fill:none;stroke:red;stroke-width:0.5;"/>
     <text x="93.0" y="89.0" achars="d" style="fill:black;font-family:helvetica;font-size:10.0px;">d</text>
    </g>
    <g>
     <rect x="104.0" y="79.0" width="9.0" height="14.0" class="text" style="fill:none;stroke:red;stroke-width:0.5;"/>
     <text x="104.0" y="93.0" achars="y" style="fill:black;font-family:helvetica;font-size:10.0px;">y</text>
    </g>
    <rect x="114.0" y="75.0" width="11.0" height="14.0" class="space" style="fill:none;stroke:blue;stroke-width:0.5;"/>
    <rect x="140.0" y="75.0" width="11.0" height="14.0" class="space" style="fill:none;stroke:blue;stroke-width:0.5;"/>
    <rect x="180.0" y="75.0" width="11.0" height="14.0" class="space" style="fill:none;stroke:blue;stroke-width:0.5;"/>
    <rect x="233.0" y="75.0" width="10.0" height="14.0" class="space" style="fill:none;stroke:blue;stroke-width:0.5;"/>
    <rect x="296.0" y="75.0" width="9.0" height="14.0" class="space" style="fill:none;stroke:blue;stroke-width:0.5;"/>
    <rect x="367.0" y="75.0" width="8.0" height="14.0" class="space" style="fill:none;stroke:blue;stroke-width:0.5;"/>
    <rect x="443.0" y="75.0" width="7.0" height="14.0" class="space" style="fill:none;stroke:blue;stroke-width:0.5;"/>
    <rect x="521.0" y="75.0" width="6.0" height="14.0" class="space" style="fill:none;stroke:blue;stroke-width:0.5;"/>
    <rect x="599.0" y="75.0" width="5.0" height="14.0" class="space" style="fill:none;stroke:blue;stroke-width:0.5;"/>
    <rect x="675.0" y="75.0" width="4.0" height="14.0" class="space" style="fill:none;stroke:blue;stroke-width:0.5;"/>
    <rect x="747.0" y="75.0" width="2.0" height="14.0" class="space" style="fill:none;stroke:blue;stroke-width:0.5;"/>
    <rect x="812.0" y="75.0" width="2.0" height="14.0" class="space" style="fill:none;stroke:blue;stroke-width:0.5;"/>
    <rect x="871.0" y="75.0" width="1.0" height="14.0" class="space" style="fill:none;stroke:blue;stroke-width:0.5;"/>
    <rect x="923.0" y="75.0" width="0.0" height="14.0" class="space" style="fill:none;stroke:blue;stroke-width:0.5;"/>
    <rect x="967.0" y="75.0" width="-1.0" height="14.0" class="space" style="fill:none;stroke:blue;stroke-width:0.5;"/>
    <rect x="1004.0" y="75.0" width="-1.0" height="14.0" class="space" style="fill:none;stroke:blue;stroke-width:0.5;"/>
    <rect x="1035.0" y="75.0" width="-2.0" height="14.0" class="space" style="fill:none;stroke:blue;stroke-width:0.5;"/>
    <rect x="1059.0" y="75.0" width="-2.0" height="14.0" class="space" style="fill:none;stroke:blue;stroke-width:0.5;"/>
    <rect x="1078.0" y="75.0" width="-2.0" height="14.0" class="space" style="fill:none;stroke:blue;stroke-width:0.5;"/>
    <rect x="1093.0" y="75.0" width="-3.0" height="14.0" class="space" style="fill:none;stroke:blue;stroke-width:0.5;"/>
    <rect x="1104.0" y="75.0" width="-3.0" height="14.0" class="space" style="fill:none;stroke:blue;stroke-width:0.5;"/>
    <rect x="1112.0" y="75.0" width="-3.0" height="14.0" class="space" style="fill:none;stroke:blue;stroke-width:0.5;"/>
    <rect x="1118.0" y="75.0" width="-3.0" height="14.0" class="space" style="fill:none;stroke:blue;stroke-width:0.5;"/>
    <rect x="1123.0" y="75.0" width="-4.0" height="14.0" class="space" style="fill:none;stroke:blue;stroke-width:0.5;"/>
    <rect x="1126.0" y="75.0" width="-4.0" height="14.0" class="space" style="fill:none;stroke:blue;stroke-width:0.5;"/>
    <rect x="1128.0" y="75.0" width="-4.0" height="14.0" class="space" style="fill:none;stroke:blue;stroke-width:0.5;"/>
    <rect x="1129.0" y="75.0" width="-4.0" height="14.0" class="space" style="fill:none;stroke:blue;stroke-width:0.5;"/>
    <rect x="1130.0" y="75.0" width="-4.0" height="14.0" class="space" style="fill:none;stroke:blue;stroke-width:0.5;"/>
    <rect x="1131.0" y="75.0" width="-4.0" height="14.0" class="space" style="fill:none;stroke:blue;stroke-width:0.5;"/>
    <rect x="1131.0" y="75.0" width="-4.0" height="14.0" class="space" style="fill:none;stroke:blue;stroke-width:0.5;"/>
    <rect x="1131.0" y="75.0" width="-3.0" height="14.0" class="space" style="fill:none;stroke:blue;stroke-width:0.5;"/>
    <rect x="1132.0" y="75.0" width="-4.0" height="14.0" class="space" style="fill:none;stroke:blue;stroke-width:0.5;"/>
    <rect x="1132.0" y="75.0" width="-4.0" height="14.0" class="space" style="fill:none;stroke:blue;stroke-width:0.5;"/>
    <rect x="1132.0" y="75.0" width="-3.0" height="14.0" class="space" style="fill:none;stroke:blue;stroke-width:0.5;"/>
    <rect x="1133.0" y="75.0" width="-4.0" height="14.0" class="space" style="fill:none;stroke:blue;stroke-width:0.5;"/>
    <rect x="1133.0" y="75.0" width="-4.0" height="14.0" class="space" style="fill:none;stroke:blue;stroke-width:0.5;"/>
    <rect x="1133.0" y="75.0" width="-4.0" height="14.0" class="space" style="fill:none;stroke:blue;stroke-width:0.5;"/>
    <rect x="1133.0" y="75.0" width="-4.0" height="14.0" class="space" style="fill:none;stroke:blue;stroke-width:0.5;"/>
    <rect x="1133.0" y="75.0" width="-3.0" height="14.0" class="space" style="fill:none;stroke:blue;stroke-width:0.5;"/>
    <rect x="1134.0" y="75.0" width="-4.0" height="14.0" class="space" style="fill:none;stroke:blue;stroke-width:0.5;"/>
    <rect x="1134.0" y="75.0" width="-4.0" height="14.0" class="space" style="fill:none;stroke:blue;stroke-width:0.5;"/>
    <rect x="1134.0" y="75.0" width="-4.0" height="14.0" class="space" style="fill:none;stroke:blue;stroke-width:0.5;"/>
    <rect x="1134.0" y="75.0" width="-4.0" height="14.0" class="space" style="fill:none;stroke:blue;stroke-width:0.5;"/>
    <rect x="1134.0" y="75.0" width="-4.0" height="14.0" class="space" style="fill:none;stroke:blue;stroke-width:0.5;"/>
    <rect x="1134.0" y="75.0" width="-4.0" height="14.0" class="space" style="fill:none;stroke:blue;stroke-width:0.5;"/>
    <rect x="1134.0" y="75.0" width="-3.0" height="14.0" class="space" style="fill:none;stroke:blue;stroke-width:0.5;"/>
    <rect x="1135.0" y="75.0" width="-4.0" height="14.0" class="space" style="fill:none;stroke:blue;stroke-width:0.5;"/>
    <rect x="1135.0" y="75.0" width="-4.0" height="14.0" class="space" style="fill:none;stroke:blue;stroke-width:0.5;"/>
    <rect x="1135.0" y="75.0" width="-4.0" height="14.0" class="space" style="fill:none;stroke:blue;stroke-width:0.5;"/>
    <rect x="1135.0" y="75.0" width="-4.0" height="14.0" class="space" style="fill:none;stroke:blue;stroke-width:0.5;"/>
    <rect x="1135.0" y="75.0" width="-4.0" height="14.0" class="space" style="fill:none;stroke:blue;stroke-width:0.5;"/>
    <rect x="1135.0" y="75.0" width="-4.0" height="14.0" class="space" style="fill:none;stroke:blue;stroke-width:0.5;"/>
    <rect x="1135.0" y="75.0" width="-4.0" height="14.0" class="space" style="fill:none;stroke:blue;stroke-width:0.5;"/>
    <rect x="1135.0" y="75.0" width="-4.0" height="14.0" class="space" style="fill:none;stroke:blue;stroke-width:0.5;"/>
    <rect x="1135.0" y="75.0" width="-3.0" height="14.0" class="space" style="fill:none;stroke:blue;stroke-width:0.5;"/>
    <rect x="1136.0" y="75.0" width="-4.0" height="14.0" class="space" style="fill:none;stroke:blue;stroke-width:0.5;"/>
    <rect x="1136.0" y="75.0" width="-4.0" height="14.0" class="space" style="fill:none;stroke:blue;stroke-width:0.5;"/>
    <rect x="1136.0" y="75.0" width="-4.0" height="14.0" class="space" style="fill:none;stroke:blue;stroke-width:0.5;"/>
    <rect x="1136.0" y="75.0" width="-4.0" height="14.0" class="space" style="fill:none;stroke:blue;stroke-width:0.5;"/>
    <rect x="1136.0" y="75.0" width="-4.0" height="14.0" class="space" style="fill:none;stroke:blue;stroke-width:0.5;"/>
    <rect x="1136.0" y="75.0" width="-4.0" height="14.0" class="space" style="fill:none;stroke:blue;stroke-width:0.5;"/>
    <rect x="1136.0" y="75.0" width="-4.0" height="14.0" class="space" style="fill:none;stroke:blue;stroke-width:0.5;"/>
    <rect x="1136.0" y="75.0" width="-4.0" height="14.0" class="space" style="fill:none;stroke:blue;stroke-width:0.5;"/>
    <rect x="1136.0" y="75.0" width="-4.0" height="14.0" class="space" style="fill:none;stroke:blue;stroke-width:0.5;"/>
    <rect x="1136.0" y="75.0" width="-4.0" height="14.0" class="space" style="fill:none;stroke:blue;stroke-width:0.5;"/>
    <rect x="1136.0" y="75.0" width="-4.0" height="14.0" class="space" style="fill:none;stroke:blue;stroke-width:0.5;"/>
    <rect x="1136.0" y="75.0" width="-4.0" height="14.0" class="space" style="fill:none;stroke:blue;stroke-width:0.5;"/>
    <rect x="1136.0" y="75.0" width="-3.0" height="14.0" class="space" style="fill:none;stroke:blue;stroke-width:0.5;"/>
    <g>
     <rect x="1134.0" y="75.0" width="16.0" height="14.0" class="text" style="fill:none;stroke:red;stroke-width:0.5;"/>
     <text x="1134.0" y="89.0" achars="" style="fill:black;font-family:helvetica;font-size:10.0px;">?</text>
    </g>
   </g>
   <g class="line">
    <rect x="66.0" y="107.0" width="3.0" height="14.0" class="space" style="fill:none;stroke:blue;stroke-width:0.5;"/>
    <g>
     <rect x="66.0" y="107.0" width="3.0" height="14.0" class="text" style="fill:none;stroke:red;stroke-width:0.5;"/>
     <text x="66.0" y="121.0" achars="l,I,r" style="fill:black;font-family:helvetica;font-size:10.0px;">l</text>
    </g>
    <g>
     <rect x="71.0" y="107.0" width="12.0" height="14.0" class="text" style="fill:none;stroke:red;stroke-width:0.5;"/>
     <text x="71.0" y="121.0" achars="D" style="fill:black;font-family:helvetica;font-size:10.0px;">D</text>
    </g>
    <rect x="84.0" y="109.0" width="11.0" height="26.0" class="space" style="fill:none;stroke:blue;stroke-width:0.5;"/>
    <rect x="110.0" y="109.0" width="11.0" height="26.0" class="space" style="fill:none;stroke:blue;stroke-width:0.5;"/>
    <rect x="149.0" y="109.0" width="10.0" height="26.0" class="space" style="fill:none;stroke:blue;stroke-width:0.5;"/>
    <rect x="196.0" y="109.0" width="8.0" height="26.0" class="space" style="fill:none;stroke:blue;stroke-width:0.5;"/>
    <rect x="245.0" y="109.0" width="6.0" height="26.0" class="space" style="fill:none;stroke:blue;stroke-width:0.5;"/>
    <rect x="291.0" y="109.0" width="4.0" height="26.0" class="space" style="fill:none;stroke:blue;stroke-width:0.5;"/>
    <rect x="331.0" y="109.0" width="2.0" height="26.0" class="space" style="fill:none;stroke:blue;stroke-width:0.5;"/>
    <rect x="362.0" y="109.0" width="1.0" height="26.0" class="space" style="fill:none;stroke:blue;stroke-width:0.5;"/>
    <rect x="386.0" y="109.0" width="-2.0" height="26.0" class="space" style="fill:none;stroke:blue;stroke-width:0.5;"/>
    <rect x="401.0" y="109.0" width="-2.0" height="26.0" class="space" style="fill:none;stroke:blue;stroke-width:0.5;"/>
    <rect x="411.0" y="109.0" width="-3.0" height="26.0" class="space" style="fill:none;stroke:blue;stroke-width:0.5;"/>
    <rect x="417.0" y="109.0" width="-4.0" height="26.0" class="space" style="fill:none;stroke:blue;stroke-width:0.5;"/>
    <rect x="420.0" y="109.0" width="-4.0" height="26.0" class="space" style="fill:none;stroke:blue;stroke-width:0.5;"/>
    <rect x="421.0" y="109.0" width="-3.0" height="26.0" class="space" style="fill:none;stroke:blue;stroke-width:0.5;"/>
    <rect x="422.0" y="109.0" width="-3.0" height="26.0" class="space" style="fill:none;stroke:blue;stroke-width:0.5;"/>
    <rect x="423.0" y="109.0" width="-4.0" height="26.0" class="space" style="fill:none;stroke:blue;stroke-width:0.5;"/>
    <rect x="423.0" y="109.0" width="-4.0" height="26.0" class="space" style="fill:none;stroke:blue;stroke-width:0.5;"/>
    <rect x="423.0" y="109.0" width="-3.0" height="26.0" class="space" style="fill:none;stroke:blue;stroke-width:0.5;"/>
    <rect x="424.0" y="109.0" width="-4.0" height="26.0" class="space" style="fill:none;stroke:blue;stroke-width:0.5;"/>
    <rect x="424.0" y="109.0" width="-4.0" height="26.0" class="space" style="fill:none;stroke:blue;stroke-width:0.5;"/>
    <rect x="424.0" y="109.0" width="-4.0" height="26.0" class="space" style="fill:none;stroke:blue;stroke-width:0.5;"/>
    <rect x="424.0" y="109.0" width="-3.0" height="26.0" class="space" style="fill:none;stroke:blue;stroke-width:0.5;"/>
    <g>
     <rect x="422.0" y="109.0" width="21.0" height="26.0" class="text" style="fill:none;stroke:red;stroke-width:0.5;"/>
     <text x="422.0" y="135.0" achars="A" style="fill:black;font-family:helvetica;font-size:10.0px;">A</text>
    </g>
    <g>
     <rect x="445.0" y="109.0" width="19.0" height="26.0" class="text" style="fill:none;stroke:red;stroke-width:0.5;"/>
     <text x="445.0" y="135.0" achars="c" style="fill:black;font-family:helvetica;font-size:10.0px;">c</text>
    </g>
    <g>
     <rect x="468.0" y="109.0" width="17.0" height="26.0" class="text" style="fill:none;stroke:red;stroke-width:0.5;"/>
     <text x="468.0" y="135.0" achars="B,8" style="fill:black;font-family:helvetica;font-size:10.0px;">B</text>
    </g>
    <g>
     <rect x="487.0" y="114.0" width="20.0" height="21.0" class="text" style="fill:none;stroke:red;stroke-width:0.5;"/>
     <text x="487.0" y="135.0" achars="+,t" style="fill:black;font-family:helvetica;font-size:10.0px;">+</text>
    </g>
    <g>
     <rect x="511.0" y="109.0" width="15.0" height="26.0" class="text" style="fill:none;stroke:red;stroke-width:0.5;"/>
     <text x="511.0" y="135.0" achars="L,l" style="fill:black;font-family:helvetica;font-size:10.0px;">L</text>
    </g>
    <g>
     <rect x="529.0" y="109.0" width="4.0" height="26.0" class="text" style="fill:none;stroke:red;stroke-width:0.5;"/>
     <text x="529.0" y="135.0" achars="l,|,1,I" style="fill:black;font-family:helvetica;font-size:10.0px;">l</text>
    </g>
    <g>
     <rect x="536.0" y="109.0" width="22.0" height="26.0" class="text" style="fill:none;stroke:red;stroke-width:0.5;"/>
     <text x="536.0" y="135.0" achars="A" style="fill:black;font-family:helvetica;font-size:10.0px;">A</text>
    </g>
    <rect x="559.0" y="109.0" width="11.0" height="26.0" class="space" style="fill:none;stroke:blue;stroke-width:0.5;"/>
    <rect x="584.0" y="109.0" width="10.0" height="26.0" class="space" style="fill:none;stroke:blue;stroke-width:0.5;"/>
    <rect x="614.0" y="109.0" width="6.0" height="26.0" class="space" style="fill:none;stroke:blue;stroke-width:0.5;"/>
    <rect x="637.0" y="109.0" width="1.0" height="26.0" class="space" style="fill:none;stroke:blue;stroke-width:0.5;"/>
    <rect x="648.0" y="109.0" width="-2.0" height="26.0" class="space" style="fill:none;stroke:blue;stroke-width:0.5;"/>
    <rect x="652.0" y="109.0" width="-3.0" height="26.0" class="space" style="fill:none;stroke:blue;stroke-width:0.5;"/>
    <g>
     <rect x="650.0" y="109.0" width="15.0" height="26.0" class="text" style="fill:none;stroke:red;stroke-width:0.5;"/>
     <text x="650.0" y="135.0" achars="L,l" style="fill:black;font-family:helvetica;font-size:10.0px;">L</text>
    </g>
    <g>
     <rect x="668.0" y="109.0" width="4.0" height="26.0" class="text" style="fill:none;stroke:red;stroke-width:0.5;"/>
     <text x="668.0" y="135.0" achars="l,|,1,I" style="fill:black;font-family:helvetica;font-size:10.0px;">l</text>
    </g>
    <g>
     <rect x="676.0" y="109.0" width="21.0" height="26.0" class="text" style="fill:none;stroke:red;stroke-width:0.5;"/>
     <text x="676.0" y="135.0" achars="A" style="fill:black;font-family:helvetica;font-size:10.0px;">A</text>
    </g>
    <rect x="698.0" y="107.0" width="11.0" height="14.0" class="space" style="fill:none;stroke:blue;stroke-width:0.5;"/>
    <rect x="724.0" y="107.0" width="10.0" height="14.0" class="space" style="fill:none;stroke:blue;stroke-width:0.5;"/>
    <rect x="760.0" y="107.0" width="8.0" height="14.0" class="space" style="fill:none;stroke:blue;stroke-width:0.5;"/>
    <rect x="799.0" y="107.0" width="6.0" height="14.0" class="space" style="fill:none;stroke:blue;stroke-width:0.5;"/>
    <rect x="836.0" y="107.0" width="3.0" height="14.0" class="space" style="fill:none;stroke:blue;stroke-width:0.5;"/>
    <rect x="865.0" y="107.0" width="1.0" height="14.0" class="space" style="fill:none;stroke:blue;stroke-width:0.5;"/>
    <rect x="885.0" y="107.0" width="0.0" height="14.0" class="space" style="fill:none;stroke:blue;stroke-width:0.5;"/>
    <rect x="898.0" y="107.0" width="-2.0" height="14.0" class="space" style="fill:none;stroke:blue;stroke-width:0.5;"/>
    <rect x="905.0" y="107.0" width="-3.0" height="14.0" class="space" style="fill:none;stroke:blue;stroke-width:0.5;"/>
    <rect x="908.0" y="107.0" width="-4.0" height="14.0" class="space" style="fill:none;stroke:blue;stroke-width:0.5;"/>
    <rect x="909.0" y="107.0" width="-4.0" height="14.0" class="space" style="fill:none;stroke:blue;stroke-width:0.5;"/>
    <rect x="909.0" y="107.0" width="-3.0" height="14.0" class="space" style="fill:none;stroke:blue;stroke-width:0.5;"/>
    <rect x="910.0" y="107.0" width="-4.0" height="14.0" class="space" style="fill:none;stroke:blue;stroke-width:0.5;"/>
    <rect x="910.0" y="107.0" width="-3.0" height="14.0" class="space" style="fill:none;stroke:blue;stroke-width:0.5;"/>
    <g>
     <rect x="908.0" y="107.0" width="17.0" height="14.0" class="text" style="fill:none;stroke:red;stroke-width:0.5;"/>
     <text x="908.0" y="121.0" achars="W" style="fill:black;font-family:helvetica;font-size:10.0px;">W</text>
    </g>
    <g>
     <rect x="926.0" y="107.0" width="14.0" height="14.0" class="text" style="fill:none;stroke:red;stroke-width:0.5;"/>
     <text x="926.0" y="121.0" achars="M,m" style="fill:black;font-family:helvetica;font-size:10.0px;">M</text>
    </g>
    <g>
     <rect x="942.0" y="107.0" width="12.0" height="14.0" class="text" style="fill:none;stroke:red;stroke-width:0.5;"/>
     <text x="942.0" y="121.0" achars="D" style="fill:black;font-family:helvetica;font-size:10.0px;">D</text>
    </g>
    <rect x="955.0" y="107.0" width="4.0" height="16.0" class="space" style="fill:none;stroke:blue;stroke-width:0.5;"/>
    <g>
     <rect x="960.0" y="107.0" width="4.0" height="16.0" class="text" style="fill:none;stroke:red;stroke-width:0.5;"/>
     <text x="960.0" y="123.0" achars="l,C,r" style="fill:black;font-family:helvetica;font-size:10.0px;">l</text>
    </g>
    <g>
     <rect x="965.0" y="107.0" width="9.0" height="14.0" class="text" style="fill:none;stroke:red;stroke-width:0.5;"/>
     <text x="965.0" y="121.0" achars="9,4,g" style="fill:black;font-family:helvetica;font-size:10.0px;">9</text>
    </g>
    <g>
     <rect x="975.0" y="108.0" width="9.0" height="13.0" class="text" style="fill:none;stroke:red;stroke-width:0.5;"/>
     <text x="975.0" y="121.0" achars="5,S" style="fill:black;font-family:helvetica;font-size:10.0px;">5</text>
    </g>
    <g>
     <rect x="985.0" y="107.0" width="15.0" height="14.0" class="text" style="fill:none;stroke:red;stroke-width:0.5;"/>
     <text x="985.0" y="121.0" achars="Xi,iXi,&gt;" style="fill:black;font-family:helvetica;font-size:10.0px;">X</text>
    </g>
    <g>
     <rect x="1005.0" y="107.0" width="11.0" height="14.0" class="text" style="fill:none;stroke:red;stroke-width:0.5;"/>
     <text x="1005.0" y="121.0" achars="C" style="fill:black;font-family:helvetica;font-size:10.0px;">C</text>
    </g>
    <g>
     <rect x="1018.0" y="107.0" width="2.0" height="14.0" class="text" style="fill:none;stroke:red;stroke-width:0.5;"/>
     <text x="1018.0" y="121.0" achars="l,I,|,1" style="fill:black;font-family:helvetica;font-size:10.0px;">l</text>
    </g>
    <g>
     <rect x="1022.0" y="106.0" width="4.0" height="18.0" class="text" style="fill:none;stroke:red;stroke-width:0.5;"/>
     <text x="1022.0" y="124.0" achars="),&gt;" style="fill:black;font-family:helvetica;font-size:10.0px;">)</text>
    </g>
    <rect x="1027.0" y="107.0" width="11.0" height="14.0" class="space" style="fill:none;stroke:blue;stroke-width:0.5;"/>
    <rect x="1053.0" y="107.0" width="10.0" height="14.0" class="space" style="fill:none;stroke:blue;stroke-width:0.5;"/>
    <rect x="1084.0" y="107.0" width="7.0" height="14.0" class="space" style="fill:none;stroke:blue;stroke-width:0.5;"/>
    <rect x="1111.0" y="107.0" width="2.0" height="14.0" class="space" style="fill:none;stroke:blue;stroke-width:0.5;"/>
    <rect x="1127.0" y="107.0" width="-1.0" height="14.0" class="space" style="fill:none;stroke:blue;stroke-width:0.5;"/>
    <rect x="1134.0" y="107.0" width="-3.0" height="14.0" class="space" style="fill:none;stroke:blue;stroke-width:0.5;"/>
    <rect x="1136.0" y="107.0" width="-3.0" height="14.0" class="space" style="fill:none;stroke:blue;stroke-width:0.5;"/>
    <g>
     <rect x="1134.0" y="107.0" width="17.0" height="14.0" class="text" style="fill:none;stroke:red;stroke-width:0.5;"/>
     <text x="1134.0" y="121.0" achars="W" style="fill:black;font-family:helvetica;font-size:10.0px;">W</text>
    </g>
    <g>
     <rect x="1152.0" y="111.0" width="8.0" height="10.0" class="text" style="fill:none;stroke:red;stroke-width:0.5;"/>
     <text x="1152.0" y="121.0" achars="e,g" style="fill:black;font-family:helvetica;font-size:10.0px;">e</text>
    </g>
    <g>
     <rect x="1162.0" y="107.0" width="3.0" height="14.0" class="text" style="fill:none;stroke:red;stroke-width:0.5;"/>
     <text x="1162.0" y="121.0" achars="i,r,j" style="fill:black;font-family:helvetica;font-size:10.0px;">i</text>
    </g>
    <g>
     <rect x="1166.0" y="111.0" width="10.0" height="14.0" class="text" style="fill:none;stroke:red;stroke-width:0.5;"/>
     <text x="1166.0" y="125.0" achars="g" style="fill:black;font-family:helvetica;font-size:10.0px;">g</text>
    </g>
    <g>
     <rect x="1178.0" y="106.0" width="9.0" height="15.0" class="text" style="fill:none;stroke:red;stroke-width:0.5;"/>
     <text x="1178.0" y="121.0" achars="h" style="fill:black;font-family:helvetica;font-size:10.0px;">h</text>
    </g>
    <g>
     <rect x="1188.0" y="108.0" width="6.0" height="13.0" class="text" style="fill:none;stroke:red;stroke-width:0.5;"/>
     <text x="1188.0" y="121.0" achars="t" style="fill:black;font-family:helvetica;font-size:10.0px;">t</text>
    </g>
   </g>
  </g>
 </g>
</svg>
