<?xml version="1.0" encoding="UTF-8"?>
<svg height="958.0" width="1428.0" xmlns="http://www.w3.org/2000/svg">
 <g>
  <g class="horizontallines">
   <line x1="5.0" y1="1.0" x2="1415.0" y2="1.0" style="stroke:red;stroke-width:1.0;"/>
   <line x1="43.0" y1="47.0" x2="1385.0" y2="47.0" style="stroke:red;stroke-width:1.0;"/>
   <line x1="44.0" y1="337.0" x2="700.0" y2="337.0" style="stroke:red;stroke-width:2.0;"/>
   <line x1="702.0" y1="337.0" x2="1385.0" y2="337.0" style="stroke:red;stroke-width:2.0;"/>
   <line x1="43.0" y1="847.0" x2="1385.0" y2="847.0" style="stroke:red;stroke-width:2.0;"/>
   <line x1="48.0" y1="851.0" x2="495.0" y2="851.0" style="stroke:red;stroke-width:1.0;"/>
   <line x1="503.0" y1="851.0" x2="695.0" y2="851.0" style="stroke:red;stroke-width:1.0;"/>
   <line x1="704.0" y1="851.0" x2="894.0" y2="851.0" style="stroke:red;stroke-width:1.0;"/>
   <line x1="904.0" y1="851.0" x2="1382.0" y2="851.0" style="stroke:red;stroke-width:1.0;"/>
   <line x1="49.0" y1="854.0" x2="495.0" y2="854.0" style="stroke:red;stroke-width:1.0;"/>
   <line x1="505.0" y1="854.0" x2="696.0" y2="854.0" style="stroke:red;stroke-width:1.0;"/>
   <line x1="704.0" y1="854.0" x2="894.0" y2="854.0" style="stroke:red;stroke-width:1.0;"/>
   <line x1="904.0" y1="854.0" x2="1383.0" y2="854.0" style="stroke:red;stroke-width:1.0;"/>
   <line x1="1.0" y1="948.0" x2="1415.0" y2="948.0" style="stroke:red;stroke-width:1.0;"/>
  </g>
  <g class="verticallines">
   <line x1="2.0" y1="7.0" x2="2.0" y2="945.0" style="stroke:blue;stroke-width:1.0;"/>
   <line x1="1387.0" y1="48.0" x2="1387.0" y2="337.0" style="stroke:blue;stroke-width:1.0;"/>
   <line x1="1387.0" y1="343.0" x2="1387.0" y2="840.0" style="stroke:blue;stroke-width:1.0;"/>
   <line x1="1390.0" y1="48.0" x2="1390.0" y2="335.0" style="stroke:blue;stroke-width:1.0;"/>
   <line x1="1390.0" y1="342.0" x2="1390.0" y2="839.0" style="stroke:blue;stroke-width:1.0;"/>
   <line x1="1418.0" y1="5.0" x2="1418.0" y2="943.0" style="stroke:blue;stroke-width:1.0;"/>
  </g>
 </g>
</svg>
