<?xml version="1.0" encoding="UTF-8"?>
<svg height="137.0" width="1152.0" xmlns="http://www.w3.org/2000/svg">
 <g class="page">
  <g class="block">
   <g class="line">
    <rect x="10.0" y="52.0" width="10.0" height="17.0" class="space" style="fill:none;stroke:blue;stroke-width:0.5;"/>
    <rect x="21.0" y="52.0" width="13.0" height="17.0" class="space" style="fill:none;stroke:blue;stroke-width:0.5;"/>
    <g>
     <rect x="21.0" y="52.0" width="13.0" height="17.0" class="text" style="fill:none;stroke:red;stroke-width:0.5;"/>
     <text x="21.0" y="69.0" achars="S" style="fill:black;font-family:helvetica;font-size:10.0px;">S</text>
    </g>
    <g>
     <rect x="35.0" y="53.0" width="6.0" height="16.0" class="text" style="fill:none;stroke:red;stroke-width:0.5;"/>
     <text x="35.0" y="69.0" achars="t" style="fill:black;font-family:helvetica;font-size:10.0px;">t</text>
    </g>
    <g>
     <rect x="42.0" y="57.0" width="9.0" height="12.0" class="text" style="fill:none;stroke:red;stroke-width:0.5;"/>
     <text x="42.0" y="69.0" achars="u" style="fill:black;font-family:helvetica;font-size:10.0px;">u</text>
    </g>
    <g>
     <rect x="53.0" y="53.0" width="10.0" height="16.0" class="text" style="fill:none;stroke:red;stroke-width:0.5;"/>
     <text x="53.0" y="69.0" achars="d" style="fill:black;font-family:helvetica;font-size:10.0px;">d</text>
    </g>
    <g>
     <rect x="65.0" y="57.0" width="10.0" height="16.0" class="text" style="fill:none;stroke:red;stroke-width:0.5;"/>
     <text x="65.0" y="73.0" achars="y" style="fill:black;font-family:helvetica;font-size:10.0px;">y</text>
    </g>
    <rect x="76.0" y="52.0" width="7.0" height="9.0" class="space" style="fill:none;stroke:blue;stroke-width:0.5;"/>
    <rect x="94.0" y="52.0" width="7.0" height="9.0" class="space" style="fill:none;stroke:blue;stroke-width:0.5;"/>
    <rect x="123.0" y="52.0" width="7.0" height="9.0" class="space" style="fill:none;stroke:blue;stroke-width:0.5;"/>
    <rect x="162.0" y="52.0" width="6.0" height="9.0" class="space" style="fill:none;stroke:blue;stroke-width:0.5;"/>
    <rect x="209.0" y="52.0" width="6.0" height="9.0" class="space" style="fill:none;stroke:blue;stroke-width:0.5;"/>
    <rect x="263.0" y="52.0" width="5.0" height="9.0" class="space" style="fill:none;stroke:blue;stroke-width:0.5;"/>
    <rect x="322.0" y="52.0" width="5.0" height="9.0" class="space" style="fill:none;stroke:blue;stroke-width:0.5;"/>
    <rect x="385.0" y="52.0" width="5.0" height="9.0" class="space" style="fill:none;stroke:blue;stroke-width:0.5;"/>
    <rect x="451.0" y="52.0" width="4.0" height="9.0" class="space" style="fill:none;stroke:blue;stroke-width:0.5;"/>
    <rect x="517.0" y="52.0" width="3.0" height="9.0" class="space" style="fill:none;stroke:blue;stroke-width:0.5;"/>
    <rect x="582.0" y="52.0" width="2.0" height="9.0" class="space" style="fill:none;stroke:blue;stroke-width:0.5;"/>
    <rect x="644.0" y="52.0" width="2.0" height="9.0" class="space" style="fill:none;stroke:blue;stroke-width:0.5;"/>
    <rect x="703.0" y="52.0" width="1.0" height="9.0" class="space" style="fill:none;stroke:blue;stroke-width:0.5;"/>
    <rect x="758.0" y="52.0" width="0.0" height="9.0" class="space" style="fill:none;stroke:blue;stroke-width:0.5;"/>
    <rect x="808.0" y="52.0" width="-1.0" height="9.0" class="space" style="fill:none;stroke:blue;stroke-width:0.5;"/>
    <rect x="852.0" y="52.0" width="-1.0" height="9.0" class="space" style="fill:none;stroke:blue;stroke-width:0.5;"/>
    <rect x="891.0" y="52.0" width="-1.0" height="9.0" class="space" style="fill:none;stroke:blue;stroke-width:0.5;"/>
    <rect x="926.0" y="52.0" width="-2.0" height="9.0" class="space" style="fill:none;stroke:blue;stroke-width:0.5;"/>
    <rect x="955.0" y="52.0" width="-2.0" height="9.0" class="space" style="fill:none;stroke:blue;stroke-width:0.5;"/>
    <rect x="980.0" y="52.0" width="-3.0" height="9.0" class="space" style="fill:none;stroke:blue;stroke-width:0.5;"/>
    <rect x="1000.0" y="52.0" width="-3.0" height="9.0" class="space" style="fill:none;stroke:blue;stroke-width:0.5;"/>
    <rect x="1016.0" y="52.0" width="-3.0" height="9.0" class="space" style="fill:none;stroke:blue;stroke-width:0.5;"/>
    <rect x="1029.0" y="52.0" width="-3.0" height="9.0" class="space" style="fill:none;stroke:blue;stroke-width:0.5;"/>
    <rect x="1040.0" y="52.0" width="-4.0" height="9.0" class="space" style="fill:none;stroke:blue;stroke-width:0.5;"/>
    <rect x="1048.0" y="52.0" width="-4.0" height="9.0" class="space" style="fill:none;stroke:blue;stroke-width:0.5;"/>
    <rect x="1054.0" y="52.0" width="-4.0" height="9.0" class="space" style="fill:none;stroke:blue;stroke-width:0.5;"/>
    <rect x="1059.0" y="52.0" width="-4.0" height="9.0" class="space" style="fill:none;stroke:blue;stroke-width:0.5;"/>
    <rect x="1062.0" y="52.0" width="-3.0" height="9.0" class="space" style="fill:none;stroke:blue;stroke-width:0.5;"/>
    <rect x="1065.0" y="52.0" width="-3.0" height="9.0" class="space" style="fill:none;stroke:blue;stroke-width:0.5;"/>
    <rect x="1068.0" y="52.0" width="-4.0" height="9.0" class="space" style="fill:none;stroke:blue;stroke-width:0.5;"/>
    <rect x="1069.0" y="52.0" width="-4.0" height="9.0" class="space" style="fill:none;stroke:blue;stroke-width:0.5;"/>
    <rect x="1070.0" y="52.0" width="-4.0" height="9.0" class="space" style="fill:none;stroke:blue;stroke-width:0.5;"/>
    <rect x="1071.0" y="52.0" width="-4.0" height="9.0" class="space" style="fill:none;stroke:blue;stroke-width:0.5;"/>
    <rect x="1071.0" y="52.0" width="-3.0" height="9.0" class="space" style="fill:none;stroke:blue;stroke-width:0.5;"/>
    <rect x="1072.0" y="52.0" width="-4.0" height="9.0" class="space" style="fill:none;stroke:blue;stroke-width:0.5;"/>
    <rect x="1072.0" y="52.0" width="-4.0" height="9.0" class="space" style="fill:none;stroke:blue;stroke-width:0.5;"/>
    <rect x="1072.0" y="52.0" width="-3.0" height="9.0" class="space" style="fill:none;stroke:blue;stroke-width:0.5;"/>
    <rect x="1073.0" y="52.0" width="-4.0" height="9.0" class="space" style="fill:none;stroke:blue;stroke-width:0.5;"/>
    <rect x="1073.0" y="52.0" width="-4.0" height="9.0" class="space" style="fill:none;stroke:blue;stroke-width:0.5;"/>
    <rect x="1073.0" y="52.0" width="-4.0" height="9.0" class="space" style="fill:none;stroke:blue;stroke-width:0.5;"/>
    <rect x="1073.0" y="52.0" width="-3.0" height="9.0" class="space" style="fill:none;stroke:blue;stroke-width:0.5;"/>
    <rect x="1074.0" y="52.0" width="-4.0" height="9.0" class="space" style="fill:none;stroke:blue;stroke-width:0.5;"/>
    <rect x="1074.0" y="52.0" width="-4.0" height="9.0" class="space" style="fill:none;stroke:blue;stroke-width:0.5;"/>
    <rect x="1074.0" y="52.0" width="-4.0" height="9.0" class="space" style="fill:none;stroke:blue;stroke-width:0.5;"/>
    <rect x="1074.0" y="52.0" width="-4.0" height="9.0" class="space" style="fill:none;stroke:blue;stroke-width:0.5;"/>
    <rect x="1074.0" y="52.0" width="-3.0" height="9.0" class="space" style="fill:none;stroke:blue;stroke-width:0.5;"/>
    <rect x="1075.0" y="52.0" width="-4.0" height="9.0" class="space" style="fill:none;stroke:blue;stroke-width:0.5;"/>
    <rect x="1075.0" y="52.0" width="-4.0" height="9.0" class="space" style="fill:none;stroke:blue;stroke-width:0.5;"/>
    <rect x="1075.0" y="52.0" width="-4.0" height="9.0" class="space" style="fill:none;stroke:blue;stroke-width:0.5;"/>
    <rect x="1075.0" y="52.0" width="-4.0" height="9.0" class="space" style="fill:none;stroke:blue;stroke-width:0.5;"/>
    <rect x="1075.0" y="52.0" width="-4.0" height="9.0" class="space" style="fill:none;stroke:blue;stroke-width:0.5;"/>
    <rect x="1075.0" y="52.0" width="-3.0" height="9.0" class="space" style="fill:none;stroke:blue;stroke-width:0.5;"/>
    <rect x="1076.0" y="52.0" width="-4.0" height="9.0" class="space" style="fill:none;stroke:blue;stroke-width:0.5;"/>
    <rect x="1076.0" y="52.0" width="-4.0" height="9.0" class="space" style="fill:none;stroke:blue;stroke-width:0.5;"/>
    <rect x="1076.0" y="52.0" width="-4.0" height="9.0" class="space" style="fill:none;stroke:blue;stroke-width:0.5;"/>
    <rect x="1076.0" y="52.0" width="-4.0" height="9.0" class="space" style="fill:none;stroke:blue;stroke-width:0.5;"/>
    <rect x="1076.0" y="52.0" width="-4.0" height="9.0" class="space" style="fill:none;stroke:blue;stroke-width:0.5;"/>
    <rect x="1076.0" y="52.0" width="-4.0" height="9.0" class="space" style="fill:none;stroke:blue;stroke-width:0.5;"/>
    <rect x="1076.0" y="52.0" width="-4.0" height="9.0" class="space" style="fill:none;stroke:blue;stroke-width:0.5;"/>
    <rect x="1076.0" y="52.0" width="-4.0" height="9.0" class="space" style="fill:none;stroke:blue;stroke-width:0.5;"/>
    <rect x="1076.0" y="52.0" width="-3.0" height="9.0" class="space" style="fill:none;stroke:blue;stroke-width:0.5;"/>
    <rect x="1077.0" y="52.0" width="-4.0" height="9.0" class="space" style="fill:none;stroke:blue;stroke-width:0.5;"/>
    <rect x="1077.0" y="52.0" width="-4.0" height="9.0" class="space" style="fill:none;stroke:blue;stroke-width:0.5;"/>
    <rect x="1077.0" y="52.0" width="-4.0" height="9.0" class="space" style="fill:none;stroke:blue;stroke-width:0.5;"/>
    <rect x="1077.0" y="52.0" width="-4.0" height="9.0" class="space" style="fill:none;stroke:blue;stroke-width:0.5;"/>
    <rect x="1077.0" y="52.0" width="-4.0" height="9.0" class="space" style="fill:none;stroke:blue;stroke-width:0.5;"/>
    <rect x="1077.0" y="52.0" width="-4.0" height="9.0" class="space" style="fill:none;stroke:blue;stroke-width:0.5;"/>
    <rect x="1077.0" y="52.0" width="-4.0" height="9.0" class="space" style="fill:none;stroke:blue;stroke-width:0.5;"/>
    <rect x="1077.0" y="52.0" width="-4.0" height="9.0" class="space" style="fill:none;stroke:blue;stroke-width:0.5;"/>
    <rect x="1077.0" y="52.0" width="-4.0" height="9.0" class="space" style="fill:none;stroke:blue;stroke-width:0.5;"/>
    <rect x="1077.0" y="52.0" width="-4.0" height="9.0" class="space" style="fill:none;stroke:blue;stroke-width:0.5;"/>
    <rect x="1077.0" y="52.0" width="-4.0" height="9.0" class="space" style="fill:none;stroke:blue;stroke-width:0.5;"/>
    <rect x="1077.0" y="52.0" width="-3.0" height="9.0" class="space" style="fill:none;stroke:blue;stroke-width:0.5;"/>
    <rect x="1078.0" y="52.0" width="-4.0" height="9.0" class="space" style="fill:none;stroke:blue;stroke-width:0.5;"/>
    <rect x="1078.0" y="52.0" width="-4.0" height="9.0" class="space" style="fill:none;stroke:blue;stroke-width:0.5;"/>
    <rect x="1078.0" y="52.0" width="-4.0" height="9.0" class="space" style="fill:none;stroke:blue;stroke-width:0.5;"/>
    <rect x="1078.0" y="52.0" width="-4.0" height="9.0" class="space" style="fill:none;stroke:blue;stroke-width:0.5;"/>
    <rect x="1078.0" y="52.0" width="-4.0" height="9.0" class="space" style="fill:none;stroke:blue;stroke-width:0.5;"/>
    <rect x="1078.0" y="52.0" width="-4.0" height="9.0" class="space" style="fill:none;stroke:blue;stroke-width:0.5;"/>
    <rect x="1078.0" y="52.0" width="-4.0" height="9.0" class="space" style="fill:none;stroke:blue;stroke-width:0.5;"/>
    <rect x="1078.0" y="52.0" width="-4.0" height="9.0" class="space" style="fill:none;stroke:blue;stroke-width:0.5;"/>
    <rect x="1078.0" y="52.0" width="-4.0" height="9.0" class="space" style="fill:none;stroke:blue;stroke-width:0.5;"/>
    <rect x="1078.0" y="52.0" width="-4.0" height="9.0" class="space" style="fill:none;stroke:blue;stroke-width:0.5;"/>
    <rect x="1078.0" y="52.0" width="-4.0" height="9.0" class="space" style="fill:none;stroke:blue;stroke-width:0.5;"/>
    <rect x="1078.0" y="52.0" width="-4.0" height="9.0" class="space" style="fill:none;stroke:blue;stroke-width:0.5;"/>
    <rect x="1078.0" y="52.0" width="-4.0" height="9.0" class="space" style="fill:none;stroke:blue;stroke-width:0.5;"/>
    <rect x="1078.0" y="52.0" width="-4.0" height="9.0" class="space" style="fill:none;stroke:blue;stroke-width:0.5;"/>
    <rect x="1078.0" y="52.0" width="-4.0" height="9.0" class="space" style="fill:none;stroke:blue;stroke-width:0.5;"/>
    <rect x="1078.0" y="52.0" width="-4.0" height="9.0" class="space" style="fill:none;stroke:blue;stroke-width:0.5;"/>
    <rect x="1078.0" y="52.0" width="-4.0" height="9.0" class="space" style="fill:none;stroke:blue;stroke-width:0.5;"/>
    <rect x="1078.0" y="52.0" width="-3.0" height="9.0" class="space" style="fill:none;stroke:blue;stroke-width:0.5;"/>
    <g>
     <rect x="1076.0" y="52.0" width="8.0" height="9.0" class="text" style="fill:none;stroke:red;stroke-width:0.5;"/>
     <text x="1076.0" y="61.0" achars="0,O,&quot;,Q" style="fill:black;font-family:helvetica;font-size:10.0px;">0</text>
    </g>
    <g>
     <rect x="1080.0" y="52.0" width="10.0" height="17.0" class="text" style="fill:none;stroke:red;stroke-width:0.5;"/>
     <text x="1080.0" y="69.0" achars="/" style="fill:black;font-family:helvetica;font-size:10.0px;">/</text>
    </g>
    <g>
     <rect x="1086.0" y="60.0" width="7.0" height="9.0" class="text" style="fill:none;stroke:red;stroke-width:0.5;"/>
     <text x="1086.0" y="69.0" achars="o,d,a,0" style="fill:black;font-family:helvetica;font-size:10.0px;">o</text>
    </g>
   </g>
   <g class="line">
    <rect x="25.0" y="106.0" width="-1.0" height="17.0" class="space" style="fill:none;stroke:blue;stroke-width:0.5;"/>
    <rect x="22.0" y="106.0" width="3.0" height="17.0" class="space" style="fill:none;stroke:blue;stroke-width:0.5;"/>
    <g>
     <rect x="22.0" y="106.0" width="3.0" height="17.0" class="text" style="fill:none;stroke:red;stroke-width:0.5;"/>
     <text x="22.0" y="123.0" achars="l,I,|,1" style="fill:black;font-family:helvetica;font-size:10.0px;">l</text>
    </g>
    <g>
     <rect x="28.0" y="107.0" width="13.0" height="15.0" class="text" style="fill:none;stroke:red;stroke-width:0.5;"/>
     <text x="28.0" y="122.0" achars="D" style="fill:black;font-family:helvetica;font-size:10.0px;">D</text>
    </g>
    <rect x="42.0" y="106.0" width="9.0" height="17.0" class="space" style="fill:none;stroke:blue;stroke-width:0.5;"/>
    <rect x="65.0" y="106.0" width="10.0" height="17.0" class="space" style="fill:none;stroke:blue;stroke-width:0.5;"/>
    <rect x="102.0" y="106.0" width="9.0" height="17.0" class="space" style="fill:none;stroke:blue;stroke-width:0.5;"/>
    <rect x="149.0" y="106.0" width="9.0" height="17.0" class="space" style="fill:none;stroke:blue;stroke-width:0.5;"/>
    <rect x="205.0" y="106.0" width="8.0" height="17.0" class="space" style="fill:none;stroke:blue;stroke-width:0.5;"/>
    <rect x="267.0" y="106.0" width="7.0" height="17.0" class="space" style="fill:none;stroke:blue;stroke-width:0.5;"/>
    <rect x="333.0" y="106.0" width="6.0" height="17.0" class="space" style="fill:none;stroke:blue;stroke-width:0.5;"/>
    <rect x="400.0" y="106.0" width="4.0" height="17.0" class="space" style="fill:none;stroke:blue;stroke-width:0.5;"/>
    <rect x="464.0" y="106.0" width="4.0" height="17.0" class="space" style="fill:none;stroke:blue;stroke-width:0.5;"/>
    <rect x="526.0" y="106.0" width="2.0" height="17.0" class="space" style="fill:none;stroke:blue;stroke-width:0.5;"/>
    <rect x="582.0" y="106.0" width="1.0" height="17.0" class="space" style="fill:none;stroke:blue;stroke-width:0.5;"/>
    <rect x="632.0" y="106.0" width="0.0" height="17.0" class="space" style="fill:none;stroke:blue;stroke-width:0.5;"/>
    <rect x="675.0" y="106.0" width="0.0" height="17.0" class="space" style="fill:none;stroke:blue;stroke-width:0.5;"/>
    <rect x="712.0" y="106.0" width="-1.0" height="17.0" class="space" style="fill:none;stroke:blue;stroke-width:0.5;"/>
    <rect x="742.0" y="106.0" width="-2.0" height="17.0" class="space" style="fill:none;stroke:blue;stroke-width:0.5;"/>
    <rect x="766.0" y="106.0" width="-2.0" height="17.0" class="space" style="fill:none;stroke:blue;stroke-width:0.5;"/>
    <rect x="785.0" y="106.0" width="-3.0" height="17.0" class="space" style="fill:none;stroke:blue;stroke-width:0.5;"/>
    <rect x="799.0" y="106.0" width="-3.0" height="17.0" class="space" style="fill:none;stroke:blue;stroke-width:0.5;"/>
    <rect x="810.0" y="106.0" width="-4.0" height="17.0" class="space" style="fill:none;stroke:blue;stroke-width:0.5;"/>
    <rect x="817.0" y="106.0" width="-3.0" height="17.0" class="space" style="fill:none;stroke:blue;stroke-width:0.5;"/>
    <rect x="823.0" y="106.0" width="-4.0" height="17.0" class="space" style="fill:none;stroke:blue;stroke-width:0.5;"/>
    <rect x="826.0" y="106.0" width="-3.0" height="17.0" class="space" style="fill:none;stroke:blue;stroke-width:0.5;"/>
    <rect x="829.0" y="106.0" width="-4.0" height="17.0" class="space" style="fill:none;stroke:blue;stroke-width:0.5;"/>
    <rect x="831.0" y="106.0" width="-4.0" height="17.0" class="space" style="fill:none;stroke:blue;stroke-width:0.5;"/>
    <rect x="832.0" y="106.0" width="-4.0" height="17.0" class="space" style="fill:none;stroke:blue;stroke-width:0.5;"/>
    <rect x="833.0" y="106.0" width="-4.0" height="17.0" class="space" style="fill:none;stroke:blue;stroke-width:0.5;"/>
    <rect x="834.0" y="106.0" width="-4.0" height="17.0" class="space" style="fill:none;stroke:blue;stroke-width:0.5;"/>
    <rect x="834.0" y="106.0" width="-4.0" height="17.0" class="space" style="fill:none;stroke:blue;stroke-width:0.5;"/>
    <rect x="834.0" y="106.0" width="-3.0" height="17.0" class="space" style="fill:none;stroke:blue;stroke-width:0.5;"/>
    <rect x="835.0" y="106.0" width="-4.0" height="17.0" class="space" style="fill:none;stroke:blue;stroke-width:0.5;"/>
    <rect x="835.0" y="106.0" width="-4.0" height="17.0" class="space" style="fill:none;stroke:blue;stroke-width:0.5;"/>
    <rect x="835.0" y="106.0" width="-4.0" height="17.0" class="space" style="fill:none;stroke:blue;stroke-width:0.5;"/>
    <rect x="835.0" y="106.0" width="-4.0" height="17.0" class="space" style="fill:none;stroke:blue;stroke-width:0.5;"/>
    <rect x="835.0" y="106.0" width="-3.0" height="17.0" class="space" style="fill:none;stroke:blue;stroke-width:0.5;"/>
    <rect x="836.0" y="106.0" width="-4.0" height="17.0" class="space" style="fill:none;stroke:blue;stroke-width:0.5;"/>
    <rect x="836.0" y="106.0" width="-4.0" height="17.0" class="space" style="fill:none;stroke:blue;stroke-width:0.5;"/>
    <rect x="836.0" y="106.0" width="-4.0" height="17.0" class="space" style="fill:none;stroke:blue;stroke-width:0.5;"/>
    <rect x="836.0" y="106.0" width="-4.0" height="17.0" class="space" style="fill:none;stroke:blue;stroke-width:0.5;"/>
    <rect x="836.0" y="106.0" width="-3.0" height="17.0" class="space" style="fill:none;stroke:blue;stroke-width:0.5;"/>
    <rect x="837.0" y="106.0" width="-4.0" height="17.0" class="space" style="fill:none;stroke:blue;stroke-width:0.5;"/>
    <rect x="837.0" y="106.0" width="-4.0" height="17.0" class="space" style="fill:none;stroke:blue;stroke-width:0.5;"/>
    <rect x="837.0" y="106.0" width="-4.0" height="17.0" class="space" style="fill:none;stroke:blue;stroke-width:0.5;"/>
    <rect x="837.0" y="106.0" width="-4.0" height="17.0" class="space" style="fill:none;stroke:blue;stroke-width:0.5;"/>
    <rect x="837.0" y="106.0" width="-4.0" height="17.0" class="space" style="fill:none;stroke:blue;stroke-width:0.5;"/>
    <rect x="837.0" y="106.0" width="-4.0" height="17.0" class="space" style="fill:none;stroke:blue;stroke-width:0.5;"/>
    <rect x="837.0" y="106.0" width="-4.0" height="17.0" class="space" style="fill:none;stroke:blue;stroke-width:0.5;"/>
    <rect x="837.0" y="106.0" width="-3.0" height="17.0" class="space" style="fill:none;stroke:blue;stroke-width:0.5;"/>
    <rect x="838.0" y="106.0" width="-4.0" height="17.0" class="space" style="fill:none;stroke:blue;stroke-width:0.5;"/>
    <rect x="838.0" y="106.0" width="-4.0" height="17.0" class="space" style="fill:none;stroke:blue;stroke-width:0.5;"/>
    <rect x="838.0" y="106.0" width="-4.0" height="17.0" class="space" style="fill:none;stroke:blue;stroke-width:0.5;"/>
    <rect x="838.0" y="106.0" width="-4.0" height="17.0" class="space" style="fill:none;stroke:blue;stroke-width:0.5;"/>
    <rect x="838.0" y="106.0" width="-4.0" height="17.0" class="space" style="fill:none;stroke:blue;stroke-width:0.5;"/>
    <rect x="838.0" y="106.0" width="-4.0" height="17.0" class="space" style="fill:none;stroke:blue;stroke-width:0.5;"/>
    <rect x="838.0" y="106.0" width="-4.0" height="17.0" class="space" style="fill:none;stroke:blue;stroke-width:0.5;"/>
    <rect x="838.0" y="106.0" width="-4.0" height="17.0" class="space" style="fill:none;stroke:blue;stroke-width:0.5;"/>
    <rect x="838.0" y="106.0" width="-4.0" height="17.0" class="space" style="fill:none;stroke:blue;stroke-width:0.5;"/>
    <rect x="838.0" y="106.0" width="-4.0" height="17.0" class="space" style="fill:none;stroke:blue;stroke-width:0.5;"/>
    <rect x="838.0" y="106.0" width="-3.0" height="17.0" class="space" style="fill:none;stroke:blue;stroke-width:0.5;"/>
    <g>
     <rect x="836.0" y="106.0" width="15.0" height="17.0" class="text" style="fill:none;stroke:red;stroke-width:0.5;"/>
     <text x="836.0" y="123.0" achars="O,0" style="fill:black;font-family:helvetica;font-size:10.0px;">O</text>
    </g>
    <g>
     <rect x="853.0" y="106.0" width="14.0" height="17.0" class="text" style="fill:none;stroke:red;stroke-width:0.5;"/>
     <text x="853.0" y="123.0" achars="R" style="fill:black;font-family:helvetica;font-size:10.0px;">R</text>
    </g>
    <rect x="868.0" y="106.0" width="5.0" height="21.0" class="space" style="fill:none;stroke:blue;stroke-width:0.5;"/>
    <g>
     <rect x="874.0" y="106.0" width="5.0" height="21.0" class="text" style="fill:none;stroke:red;stroke-width:0.5;"/>
     <text x="874.0" y="127.0" achars="(,C" style="fill:black;font-family:helvetica;font-size:10.0px;">(</text>
    </g>
    <g>
     <rect x="880.0" y="106.0" width="11.0" height="17.0" class="text" style="fill:none;stroke:red;stroke-width:0.5;"/>
     <text x="880.0" y="123.0" achars="9,g" style="fill:black;font-family:helvetica;font-size:10.0px;">9</text>
    </g>
    <g>
     <rect x="893.0" y="107.0" width="10.0" height="16.0" class="text" style="fill:none;stroke:red;stroke-width:0.5;"/>
     <text x="893.0" y="123.0" achars="5" style="fill:black;font-family:helvetica;font-size:10.0px;">5</text>
    </g>
    <g>
     <rect x="904.0" y="106.0" width="7.0" height="9.0" class="text" style="fill:none;stroke:red;stroke-width:0.5;"/>
     <text x="904.0" y="115.0" achars="0,O,&quot;,a" style="fill:black;font-family:helvetica;font-size:10.0px;">0</text>
    </g>
    <g>
     <rect x="908.0" y="106.0" width="10.0" height="17.0" class="text" style="fill:none;stroke:red;stroke-width:0.5;"/>
     <text x="908.0" y="123.0" achars="/" style="fill:black;font-family:helvetica;font-size:10.0px;">/</text>
    </g>
    <g>
     <rect x="914.0" y="114.0" width="7.0" height="9.0" class="text" style="fill:none;stroke:red;stroke-width:0.5;"/>
     <text x="914.0" y="123.0" achars="o,a,0" style="fill:black;font-family:helvetica;font-size:10.0px;">o</text>
    </g>
    <rect x="922.0" y="106.0" width="6.0" height="17.0" class="space" style="fill:none;stroke:blue;stroke-width:0.5;"/>
    <g>
     <rect x="929.0" y="106.0" width="14.0" height="17.0" class="text" style="fill:none;stroke:red;stroke-width:0.5;"/>
     <text x="929.0" y="123.0" achars="C" style="fill:black;font-family:helvetica;font-size:10.0px;">C</text>
    </g>
    <g>
     <rect x="945.0" y="106.0" width="3.0" height="17.0" class="text" style="fill:none;stroke:red;stroke-width:0.5;"/>
     <text x="945.0" y="123.0" achars="J,I,l" style="fill:black;font-family:helvetica;font-size:10.0px;">J</text>
    </g>
    <g>
     <rect x="951.0" y="106.0" width="6.0" height="21.0" class="text" style="fill:none;stroke:red;stroke-width:0.5;"/>
     <text x="951.0" y="127.0" achars="),&gt;" style="fill:black;font-family:helvetica;font-size:10.0px;">)</text>
    </g>
    <rect x="958.0" y="106.0" width="11.0" height="17.0" class="space" style="fill:none;stroke:blue;stroke-width:0.5;"/>
    <rect x="983.0" y="106.0" width="10.0" height="17.0" class="space" style="fill:none;stroke:blue;stroke-width:0.5;"/>
    <rect x="1015.0" y="106.0" width="6.0" height="17.0" class="space" style="fill:none;stroke:blue;stroke-width:0.5;"/>
    <rect x="1043.0" y="106.0" width="3.0" height="17.0" class="space" style="fill:none;stroke:blue;stroke-width:0.5;"/>
    <rect x="1063.0" y="106.0" width="0.0" height="17.0" class="space" style="fill:none;stroke:blue;stroke-width:0.5;"/>
    <rect x="1073.0" y="106.0" width="-2.0" height="17.0" class="space" style="fill:none;stroke:blue;stroke-width:0.5;"/>
    <rect x="1077.0" y="106.0" width="-3.0" height="17.0" class="space" style="fill:none;stroke:blue;stroke-width:0.5;"/>
    <rect x="1078.0" y="106.0" width="-3.0" height="17.0" class="space" style="fill:none;stroke:blue;stroke-width:0.5;"/>
    <g>
     <rect x="1076.0" y="106.0" width="20.0" height="17.0" class="text" style="fill:none;stroke:red;stroke-width:0.5;"/>
     <text x="1076.0" y="123.0" achars="W" style="fill:black;font-family:helvetica;font-size:10.0px;">W</text>
    </g>
    <g>
     <rect x="1096.0" y="111.0" width="11.0" height="12.0" class="text" style="fill:none;stroke:red;stroke-width:0.5;"/>
     <text x="1096.0" y="123.0" achars="e,g" style="fill:black;font-family:helvetica;font-size:10.0px;">e</text>
    </g>
    <g>
     <rect x="1109.0" y="106.0" width="2.0" height="16.0" class="text" style="fill:none;stroke:red;stroke-width:0.5;"/>
     <text x="1109.0" y="122.0" achars="i,j" style="fill:black;font-family:helvetica;font-size:10.0px;">i</text>
    </g>
    <g>
     <rect x="1113.0" y="110.0" width="10.0" height="17.0" class="text" style="fill:none;stroke:red;stroke-width:0.5;"/>
     <text x="1113.0" y="127.0" achars="g,9,0" style="fill:black;font-family:helvetica;font-size:10.0px;">g</text>
    </g>
    <g>
     <rect x="1125.0" y="106.0" width="10.0" height="17.0" class="text" style="fill:none;stroke:red;stroke-width:0.5;"/>
     <text x="1125.0" y="123.0" achars="h" style="fill:black;font-family:helvetica;font-size:10.0px;">h</text>
    </g>
    <g>
     <rect x="1136.0" y="107.0" width="6.0" height="16.0" class="text" style="fill:none;stroke:red;stroke-width:0.5;"/>
     <text x="1136.0" y="123.0" achars="t" style="fill:black;font-family:helvetica;font-size:10.0px;">t</text>
    </g>
   </g>
  </g>
 </g>
</svg>
