<?xml version="1.0" encoding="UTF-8"?>
<svg height="1001.0" width="1424.0" xmlns="http://www.w3.org/2000/svg">
 <g>
  <g class="horizontallines">
   <line x1="9.0" y1="2.0" x2="1414.0" y2="2.0" style="stroke:red;stroke-width:1.0;"/>
   <line x1="47.0" y1="48.0" x2="1383.0" y2="48.0" style="stroke:red;stroke-width:1.0;"/>
   <line x1="46.0" y1="276.0" x2="1383.0" y2="276.0" style="stroke:red;stroke-width:2.0;"/>
   <line x1="45.0" y1="888.0" x2="1383.0" y2="888.0" style="stroke:red;stroke-width:2.0;"/>
   <line x1="47.0" y1="893.0" x2="535.0" y2="893.0" style="stroke:red;stroke-width:1.0;"/>
   <line x1="545.0" y1="893.0" x2="678.0" y2="893.0" style="stroke:red;stroke-width:1.0;"/>
   <line x1="680.0" y1="893.0" x2="734.0" y2="893.0" style="stroke:red;stroke-width:1.0;"/>
   <line x1="745.0" y1="893.0" x2="934.0" y2="893.0" style="stroke:red;stroke-width:1.0;"/>
   <line x1="944.0" y1="893.0" x2="1375.0" y2="893.0" style="stroke:red;stroke-width:1.0;"/>
  </g>
  <g class="verticallines">
   <line x1="1.0" y1="8.0" x2="1.0" y2="991.0" style="stroke:blue;stroke-width:2.0;"/>
   <line x1="43.0" y1="52.0" x2="43.0" y2="270.0" style="stroke:blue;stroke-width:1.0;"/>
   <line x1="43.0" y1="281.0" x2="43.0" y2="878.0" style="stroke:blue;stroke-width:1.0;"/>
   <line x1="739.0" y1="277.0" x2="739.0" y2="902.0" style="stroke:blue;stroke-width:2.0;"/>
   <line x1="1385.0" y1="56.0" x2="1385.0" y2="271.0" style="stroke:blue;stroke-width:1.0;"/>
   <line x1="1385.0" y1="280.0" x2="1385.0" y2="887.0" style="stroke:blue;stroke-width:1.0;"/>
  </g>
 </g>
</svg>
