<?xml version="1.0" encoding="UTF-8"?>
<svg height="95.0" width="942.0" xmlns="http://www.w3.org/2000/svg">
 <g class="page">
  <g class="block">
   <g class="line">
    <rect x="3.0" y="12.0" width="9.0" height="11.0" class="space" style="fill:none;stroke:blue;stroke-width:0.5;"/>
    <g>
     <rect x="3.0" y="12.0" width="9.0" height="11.0" class="text" style="fill:none;stroke:red;stroke-width:0.5;"/>
     <text x="3.0" y="23.0" achars="s,5" style="fill:black;font-family:helvetica;font-size:10.0px;">s</text>
    </g>
    <g>
     <rect x="13.0" y="13.0" width="3.0" height="10.0" class="text" style="fill:none;stroke:red;stroke-width:0.5;"/>
     <text x="13.0" y="23.0" achars="t,1" style="fill:black;font-family:helvetica;font-size:10.0px;">t</text>
    </g>
    <g>
     <rect x="17.0" y="12.0" width="14.0" height="11.0" class="text" style="fill:none;stroke:red;stroke-width:0.5;"/>
     <text x="17.0" y="23.0" achars="" style="fill:black;font-family:helvetica;font-size:10.0px;">?</text>
    </g>
    <g>
     <rect x="32.0" y="15.0" width="7.0" height="11.0" class="text" style="fill:none;stroke:red;stroke-width:0.5;"/>
     <text x="32.0" y="26.0" achars="y,ยง,v" style="fill:black;font-family:helvetica;font-size:10.0px;">y</text>
    </g>
    <rect x="40.0" y="12.0" width="6.0" height="11.0" class="space" style="fill:none;stroke:blue;stroke-width:0.5;"/>
    <rect x="57.0" y="12.0" width="7.0" height="11.0" class="space" style="fill:none;stroke:blue;stroke-width:0.5;"/>
    <rect x="85.0" y="12.0" width="6.0" height="11.0" class="space" style="fill:none;stroke:blue;stroke-width:0.5;"/>
    <rect x="121.0" y="12.0" width="6.0" height="11.0" class="space" style="fill:none;stroke:blue;stroke-width:0.5;"/>
    <rect x="166.0" y="12.0" width="5.0" height="11.0" class="space" style="fill:none;stroke:blue;stroke-width:0.5;"/>
    <rect x="216.0" y="12.0" width="5.0" height="11.0" class="space" style="fill:none;stroke:blue;stroke-width:0.5;"/>
    <rect x="272.0" y="12.0" width="4.0" height="11.0" class="space" style="fill:none;stroke:blue;stroke-width:0.5;"/>
    <rect x="330.0" y="12.0" width="4.0" height="11.0" class="space" style="fill:none;stroke:blue;stroke-width:0.5;"/>
    <rect x="390.0" y="12.0" width="3.0" height="11.0" class="space" style="fill:none;stroke:blue;stroke-width:0.5;"/>
    <rect x="449.0" y="12.0" width="2.0" height="11.0" class="space" style="fill:none;stroke:blue;stroke-width:0.5;"/>
    <rect x="506.0" y="12.0" width="2.0" height="11.0" class="space" style="fill:none;stroke:blue;stroke-width:0.5;"/>
    <rect x="561.0" y="12.0" width="1.0" height="11.0" class="space" style="fill:none;stroke:blue;stroke-width:0.5;"/>
    <rect x="611.0" y="12.0" width="0.0" height="11.0" class="space" style="fill:none;stroke:blue;stroke-width:0.5;"/>
    <rect x="657.0" y="12.0" width="-1.0" height="11.0" class="space" style="fill:none;stroke:blue;stroke-width:0.5;"/>
    <rect x="697.0" y="12.0" width="-1.0" height="11.0" class="space" style="fill:none;stroke:blue;stroke-width:0.5;"/>
    <rect x="733.0" y="12.0" width="-2.0" height="11.0" class="space" style="fill:none;stroke:blue;stroke-width:0.5;"/>
    <rect x="763.0" y="12.0" width="-2.0" height="11.0" class="space" style="fill:none;stroke:blue;stroke-width:0.5;"/>
    <rect x="788.0" y="12.0" width="-2.0" height="11.0" class="space" style="fill:none;stroke:blue;stroke-width:0.5;"/>
    <rect x="809.0" y="12.0" width="-2.0" height="11.0" class="space" style="fill:none;stroke:blue;stroke-width:0.5;"/>
    <rect x="827.0" y="12.0" width="-3.0" height="11.0" class="space" style="fill:none;stroke:blue;stroke-width:0.5;"/>
    <rect x="841.0" y="12.0" width="-4.0" height="11.0" class="space" style="fill:none;stroke:blue;stroke-width:0.5;"/>
    <rect x="851.0" y="12.0" width="-3.0" height="11.0" class="space" style="fill:none;stroke:blue;stroke-width:0.5;"/>
    <rect x="860.0" y="12.0" width="-4.0" height="11.0" class="space" style="fill:none;stroke:blue;stroke-width:0.5;"/>
    <rect x="866.0" y="12.0" width="-4.0" height="11.0" class="space" style="fill:none;stroke:blue;stroke-width:0.5;"/>
    <rect x="870.0" y="12.0" width="-3.0" height="11.0" class="space" style="fill:none;stroke:blue;stroke-width:0.5;"/>
    <rect x="874.0" y="12.0" width="-4.0" height="11.0" class="space" style="fill:none;stroke:blue;stroke-width:0.5;"/>
    <rect x="876.0" y="12.0" width="-3.0" height="11.0" class="space" style="fill:none;stroke:blue;stroke-width:0.5;"/>
    <rect x="879.0" y="12.0" width="-4.0" height="11.0" class="space" style="fill:none;stroke:blue;stroke-width:0.5;"/>
    <rect x="880.0" y="12.0" width="-4.0" height="11.0" class="space" style="fill:none;stroke:blue;stroke-width:0.5;"/>
    <rect x="881.0" y="12.0" width="-4.0" height="11.0" class="space" style="fill:none;stroke:blue;stroke-width:0.5;"/>
    <rect x="882.0" y="12.0" width="-4.0" height="11.0" class="space" style="fill:none;stroke:blue;stroke-width:0.5;"/>
    <rect x="882.0" y="12.0" width="-3.0" height="11.0" class="space" style="fill:none;stroke:blue;stroke-width:0.5;"/>
    <rect x="883.0" y="12.0" width="-4.0" height="11.0" class="space" style="fill:none;stroke:blue;stroke-width:0.5;"/>
    <rect x="883.0" y="12.0" width="-4.0" height="11.0" class="space" style="fill:none;stroke:blue;stroke-width:0.5;"/>
    <rect x="883.0" y="12.0" width="-4.0" height="11.0" class="space" style="fill:none;stroke:blue;stroke-width:0.5;"/>
    <rect x="883.0" y="12.0" width="-3.0" height="11.0" class="space" style="fill:none;stroke:blue;stroke-width:0.5;"/>
    <rect x="884.0" y="12.0" width="-4.0" height="11.0" class="space" style="fill:none;stroke:blue;stroke-width:0.5;"/>
    <rect x="884.0" y="12.0" width="-4.0" height="11.0" class="space" style="fill:none;stroke:blue;stroke-width:0.5;"/>
    <rect x="884.0" y="12.0" width="-4.0" height="11.0" class="space" style="fill:none;stroke:blue;stroke-width:0.5;"/>
    <rect x="884.0" y="12.0" width="-3.0" height="11.0" class="space" style="fill:none;stroke:blue;stroke-width:0.5;"/>
    <rect x="885.0" y="12.0" width="-4.0" height="11.0" class="space" style="fill:none;stroke:blue;stroke-width:0.5;"/>
    <rect x="885.0" y="12.0" width="-4.0" height="11.0" class="space" style="fill:none;stroke:blue;stroke-width:0.5;"/>
    <rect x="885.0" y="12.0" width="-4.0" height="11.0" class="space" style="fill:none;stroke:blue;stroke-width:0.5;"/>
    <rect x="885.0" y="12.0" width="-4.0" height="11.0" class="space" style="fill:none;stroke:blue;stroke-width:0.5;"/>
    <rect x="885.0" y="12.0" width="-4.0" height="11.0" class="space" style="fill:none;stroke:blue;stroke-width:0.5;"/>
    <rect x="885.0" y="12.0" width="-3.0" height="11.0" class="space" style="fill:none;stroke:blue;stroke-width:0.5;"/>
    <rect x="886.0" y="12.0" width="-4.0" height="11.0" class="space" style="fill:none;stroke:blue;stroke-width:0.5;"/>
    <rect x="886.0" y="12.0" width="-4.0" height="11.0" class="space" style="fill:none;stroke:blue;stroke-width:0.5;"/>
    <rect x="886.0" y="12.0" width="-4.0" height="11.0" class="space" style="fill:none;stroke:blue;stroke-width:0.5;"/>
    <rect x="886.0" y="12.0" width="-4.0" height="11.0" class="space" style="fill:none;stroke:blue;stroke-width:0.5;"/>
    <rect x="886.0" y="12.0" width="-4.0" height="11.0" class="space" style="fill:none;stroke:blue;stroke-width:0.5;"/>
    <rect x="886.0" y="12.0" width="-4.0" height="11.0" class="space" style="fill:none;stroke:blue;stroke-width:0.5;"/>
    <rect x="886.0" y="12.0" width="-4.0" height="11.0" class="space" style="fill:none;stroke:blue;stroke-width:0.5;"/>
    <rect x="886.0" y="12.0" width="-3.0" height="11.0" class="space" style="fill:none;stroke:blue;stroke-width:0.5;"/>
    <rect x="887.0" y="12.0" width="-4.0" height="11.0" class="space" style="fill:none;stroke:blue;stroke-width:0.5;"/>
    <rect x="887.0" y="12.0" width="-4.0" height="11.0" class="space" style="fill:none;stroke:blue;stroke-width:0.5;"/>
    <rect x="887.0" y="12.0" width="-4.0" height="11.0" class="space" style="fill:none;stroke:blue;stroke-width:0.5;"/>
    <rect x="887.0" y="12.0" width="-4.0" height="11.0" class="space" style="fill:none;stroke:blue;stroke-width:0.5;"/>
    <rect x="887.0" y="12.0" width="-4.0" height="11.0" class="space" style="fill:none;stroke:blue;stroke-width:0.5;"/>
    <rect x="887.0" y="12.0" width="-4.0" height="11.0" class="space" style="fill:none;stroke:blue;stroke-width:0.5;"/>
    <rect x="887.0" y="12.0" width="-4.0" height="11.0" class="space" style="fill:none;stroke:blue;stroke-width:0.5;"/>
    <rect x="887.0" y="12.0" width="-4.0" height="11.0" class="space" style="fill:none;stroke:blue;stroke-width:0.5;"/>
    <rect x="887.0" y="12.0" width="-4.0" height="11.0" class="space" style="fill:none;stroke:blue;stroke-width:0.5;"/>
    <rect x="887.0" y="12.0" width="-3.0" height="11.0" class="space" style="fill:none;stroke:blue;stroke-width:0.5;"/>
    <rect x="888.0" y="12.0" width="-4.0" height="11.0" class="space" style="fill:none;stroke:blue;stroke-width:0.5;"/>
    <rect x="888.0" y="12.0" width="-4.0" height="11.0" class="space" style="fill:none;stroke:blue;stroke-width:0.5;"/>
    <rect x="888.0" y="12.0" width="-4.0" height="11.0" class="space" style="fill:none;stroke:blue;stroke-width:0.5;"/>
    <rect x="888.0" y="12.0" width="-4.0" height="11.0" class="space" style="fill:none;stroke:blue;stroke-width:0.5;"/>
    <rect x="888.0" y="12.0" width="-4.0" height="11.0" class="space" style="fill:none;stroke:blue;stroke-width:0.5;"/>
    <rect x="888.0" y="12.0" width="-4.0" height="11.0" class="space" style="fill:none;stroke:blue;stroke-width:0.5;"/>
    <rect x="888.0" y="12.0" width="-4.0" height="11.0" class="space" style="fill:none;stroke:blue;stroke-width:0.5;"/>
    <rect x="888.0" y="12.0" width="-4.0" height="11.0" class="space" style="fill:none;stroke:blue;stroke-width:0.5;"/>
    <rect x="888.0" y="12.0" width="-4.0" height="11.0" class="space" style="fill:none;stroke:blue;stroke-width:0.5;"/>
    <rect x="888.0" y="12.0" width="-4.0" height="11.0" class="space" style="fill:none;stroke:blue;stroke-width:0.5;"/>
    <rect x="888.0" y="12.0" width="-4.0" height="11.0" class="space" style="fill:none;stroke:blue;stroke-width:0.5;"/>
    <rect x="888.0" y="12.0" width="-4.0" height="11.0" class="space" style="fill:none;stroke:blue;stroke-width:0.5;"/>
    <rect x="888.0" y="12.0" width="-4.0" height="11.0" class="space" style="fill:none;stroke:blue;stroke-width:0.5;"/>
    <rect x="888.0" y="12.0" width="-4.0" height="11.0" class="space" style="fill:none;stroke:blue;stroke-width:0.5;"/>
    <rect x="888.0" y="12.0" width="-4.0" height="11.0" class="space" style="fill:none;stroke:blue;stroke-width:0.5;"/>
    <rect x="888.0" y="12.0" width="-3.0" height="11.0" class="space" style="fill:none;stroke:blue;stroke-width:0.5;"/>
    <g>
     <rect x="886.0" y="12.0" width="12.0" height="11.0" class="text" style="fill:none;stroke:red;stroke-width:0.5;"/>
     <text x="886.0" y="23.0" achars="" style="fill:black;font-family:helvetica;font-size:10.0px;">?</text>
    </g>
   </g>
   <g class="line">
    <rect x="4.0" y="72.0" width="2.0" height="10.0" class="space" style="fill:none;stroke:blue;stroke-width:0.5;"/>
    <g>
     <rect x="4.0" y="72.0" width="2.0" height="10.0" class="text" style="fill:none;stroke:red;stroke-width:0.5;"/>
     <text x="4.0" y="82.0" achars="|,l,1,I" style="fill:black;font-family:helvetica;font-size:10.0px;">|</text>
    </g>
    <g>
     <rect x="8.0" y="71.0" width="8.0" height="12.0" class="text" style="fill:none;stroke:red;stroke-width:0.5;"/>
     <text x="8.0" y="83.0" achars="D,0" style="fill:black;font-family:helvetica;font-size:10.0px;">D</text>
    </g>
    <rect x="17.0" y="71.0" width="6.0" height="12.0" class="space" style="fill:none;stroke:blue;stroke-width:0.5;"/>
    <rect x="34.0" y="71.0" width="7.0" height="12.0" class="space" style="fill:none;stroke:blue;stroke-width:0.5;"/>
    <rect x="62.0" y="71.0" width="6.0" height="12.0" class="space" style="fill:none;stroke:blue;stroke-width:0.5;"/>
    <rect x="98.0" y="71.0" width="6.0" height="12.0" class="space" style="fill:none;stroke:blue;stroke-width:0.5;"/>
    <rect x="141.0" y="71.0" width="5.0" height="12.0" class="space" style="fill:none;stroke:blue;stroke-width:0.5;"/>
    <rect x="189.0" y="71.0" width="5.0" height="12.0" class="space" style="fill:none;stroke:blue;stroke-width:0.5;"/>
    <rect x="241.0" y="71.0" width="4.0" height="12.0" class="space" style="fill:none;stroke:blue;stroke-width:0.5;"/>
    <rect x="294.0" y="71.0" width="3.0" height="12.0" class="space" style="fill:none;stroke:blue;stroke-width:0.5;"/>
    <rect x="346.0" y="71.0" width="2.0" height="12.0" class="space" style="fill:none;stroke:blue;stroke-width:0.5;"/>
    <rect x="396.0" y="71.0" width="1.0" height="12.0" class="space" style="fill:none;stroke:blue;stroke-width:0.5;"/>
    <rect x="442.0" y="71.0" width="1.0" height="12.0" class="space" style="fill:none;stroke:blue;stroke-width:0.5;"/>
    <rect x="484.0" y="71.0" width="0.0" height="12.0" class="space" style="fill:none;stroke:blue;stroke-width:0.5;"/>
    <rect x="521.0" y="71.0" width="-1.0" height="12.0" class="space" style="fill:none;stroke:blue;stroke-width:0.5;"/>
    <rect x="553.0" y="71.0" width="-2.0" height="12.0" class="space" style="fill:none;stroke:blue;stroke-width:0.5;"/>
    <rect x="579.0" y="71.0" width="-2.0" height="12.0" class="space" style="fill:none;stroke:blue;stroke-width:0.5;"/>
    <rect x="601.0" y="71.0" width="-2.0" height="12.0" class="space" style="fill:none;stroke:blue;stroke-width:0.5;"/>
    <rect x="619.0" y="71.0" width="-3.0" height="12.0" class="space" style="fill:none;stroke:blue;stroke-width:0.5;"/>
    <rect x="632.0" y="71.0" width="-3.0" height="12.0" class="space" style="fill:none;stroke:blue;stroke-width:0.5;"/>
    <rect x="643.0" y="71.0" width="-4.0" height="12.0" class="space" style="fill:none;stroke:blue;stroke-width:0.5;"/>
    <rect x="650.0" y="71.0" width="-3.0" height="12.0" class="space" style="fill:none;stroke:blue;stroke-width:0.5;"/>
    <rect x="656.0" y="71.0" width="-3.0" height="12.0" class="space" style="fill:none;stroke:blue;stroke-width:0.5;"/>
    <rect x="661.0" y="71.0" width="-4.0" height="12.0" class="space" style="fill:none;stroke:blue;stroke-width:0.5;"/>
    <rect x="664.0" y="71.0" width="-4.0" height="12.0" class="space" style="fill:none;stroke:blue;stroke-width:0.5;"/>
    <rect x="666.0" y="71.0" width="-4.0" height="12.0" class="space" style="fill:none;stroke:blue;stroke-width:0.5;"/>
    <rect x="667.0" y="71.0" width="-4.0" height="12.0" class="space" style="fill:none;stroke:blue;stroke-width:0.5;"/>
    <rect x="668.0" y="71.0" width="-4.0" height="12.0" class="space" style="fill:none;stroke:blue;stroke-width:0.5;"/>
    <rect x="669.0" y="71.0" width="-4.0" height="12.0" class="space" style="fill:none;stroke:blue;stroke-width:0.5;"/>
    <rect x="669.0" y="71.0" width="-3.0" height="12.0" class="space" style="fill:none;stroke:blue;stroke-width:0.5;"/>
    <rect x="670.0" y="71.0" width="-4.0" height="12.0" class="space" style="fill:none;stroke:blue;stroke-width:0.5;"/>
    <rect x="670.0" y="71.0" width="-4.0" height="12.0" class="space" style="fill:none;stroke:blue;stroke-width:0.5;"/>
    <rect x="670.0" y="71.0" width="-3.0" height="12.0" class="space" style="fill:none;stroke:blue;stroke-width:0.5;"/>
    <rect x="671.0" y="71.0" width="-4.0" height="12.0" class="space" style="fill:none;stroke:blue;stroke-width:0.5;"/>
    <rect x="671.0" y="71.0" width="-4.0" height="12.0" class="space" style="fill:none;stroke:blue;stroke-width:0.5;"/>
    <rect x="671.0" y="71.0" width="-4.0" height="12.0" class="space" style="fill:none;stroke:blue;stroke-width:0.5;"/>
    <rect x="671.0" y="71.0" width="-4.0" height="12.0" class="space" style="fill:none;stroke:blue;stroke-width:0.5;"/>
    <rect x="671.0" y="71.0" width="-3.0" height="12.0" class="space" style="fill:none;stroke:blue;stroke-width:0.5;"/>
    <rect x="672.0" y="71.0" width="-4.0" height="12.0" class="space" style="fill:none;stroke:blue;stroke-width:0.5;"/>
    <rect x="672.0" y="71.0" width="-4.0" height="12.0" class="space" style="fill:none;stroke:blue;stroke-width:0.5;"/>
    <rect x="672.0" y="71.0" width="-4.0" height="12.0" class="space" style="fill:none;stroke:blue;stroke-width:0.5;"/>
    <rect x="672.0" y="71.0" width="-4.0" height="12.0" class="space" style="fill:none;stroke:blue;stroke-width:0.5;"/>
    <rect x="672.0" y="71.0" width="-4.0" height="12.0" class="space" style="fill:none;stroke:blue;stroke-width:0.5;"/>
    <rect x="672.0" y="71.0" width="-3.0" height="12.0" class="space" style="fill:none;stroke:blue;stroke-width:0.5;"/>
    <rect x="673.0" y="71.0" width="-4.0" height="12.0" class="space" style="fill:none;stroke:blue;stroke-width:0.5;"/>
    <rect x="673.0" y="71.0" width="-4.0" height="12.0" class="space" style="fill:none;stroke:blue;stroke-width:0.5;"/>
    <rect x="673.0" y="71.0" width="-4.0" height="12.0" class="space" style="fill:none;stroke:blue;stroke-width:0.5;"/>
    <rect x="673.0" y="71.0" width="-4.0" height="12.0" class="space" style="fill:none;stroke:blue;stroke-width:0.5;"/>
    <rect x="673.0" y="71.0" width="-4.0" height="12.0" class="space" style="fill:none;stroke:blue;stroke-width:0.5;"/>
    <rect x="673.0" y="71.0" width="-4.0" height="12.0" class="space" style="fill:none;stroke:blue;stroke-width:0.5;"/>
    <rect x="673.0" y="71.0" width="-4.0" height="12.0" class="space" style="fill:none;stroke:blue;stroke-width:0.5;"/>
    <rect x="673.0" y="71.0" width="-3.0" height="12.0" class="space" style="fill:none;stroke:blue;stroke-width:0.5;"/>
    <rect x="674.0" y="71.0" width="-4.0" height="12.0" class="space" style="fill:none;stroke:blue;stroke-width:0.5;"/>
    <rect x="674.0" y="71.0" width="-4.0" height="12.0" class="space" style="fill:none;stroke:blue;stroke-width:0.5;"/>
    <rect x="674.0" y="71.0" width="-4.0" height="12.0" class="space" style="fill:none;stroke:blue;stroke-width:0.5;"/>
    <rect x="674.0" y="71.0" width="-4.0" height="12.0" class="space" style="fill:none;stroke:blue;stroke-width:0.5;"/>
    <rect x="674.0" y="71.0" width="-4.0" height="12.0" class="space" style="fill:none;stroke:blue;stroke-width:0.5;"/>
    <rect x="674.0" y="71.0" width="-4.0" height="12.0" class="space" style="fill:none;stroke:blue;stroke-width:0.5;"/>
    <rect x="674.0" y="71.0" width="-4.0" height="12.0" class="space" style="fill:none;stroke:blue;stroke-width:0.5;"/>
    <rect x="674.0" y="71.0" width="-4.0" height="12.0" class="space" style="fill:none;stroke:blue;stroke-width:0.5;"/>
    <rect x="674.0" y="71.0" width="-4.0" height="12.0" class="space" style="fill:none;stroke:blue;stroke-width:0.5;"/>
    <rect x="674.0" y="71.0" width="-4.0" height="12.0" class="space" style="fill:none;stroke:blue;stroke-width:0.5;"/>
    <rect x="674.0" y="71.0" width="-4.0" height="12.0" class="space" style="fill:none;stroke:blue;stroke-width:0.5;"/>
    <rect x="674.0" y="71.0" width="-3.0" height="12.0" class="space" style="fill:none;stroke:blue;stroke-width:0.5;"/>
    <g>
     <rect x="672.0" y="71.0" width="10.0" height="12.0" class="text" style="fill:none;stroke:red;stroke-width:0.5;"/>
     <text x="672.0" y="83.0" achars="O,0" style="fill:black;font-family:helvetica;font-size:10.0px;">O</text>
    </g>
    <g>
     <rect x="684.0" y="72.0" width="9.0" height="10.0" class="text" style="fill:none;stroke:red;stroke-width:0.5;"/>
     <text x="684.0" y="82.0" achars="R" style="fill:black;font-family:helvetica;font-size:10.0px;">R</text>
    </g>
    <rect x="694.0" y="72.0" width="3.0" height="12.0" class="space" style="fill:none;stroke:blue;stroke-width:0.5;"/>
    <g>
     <rect x="698.0" y="72.0" width="3.0" height="12.0" class="text" style="fill:none;stroke:red;stroke-width:0.5;"/>
     <text x="698.0" y="84.0" achars="(,1" style="fill:black;font-family:helvetica;font-size:10.0px;">(</text>
    </g>
    <g>
     <rect x="703.0" y="72.0" width="7.0" height="11.0" class="text" style="fill:none;stroke:red;stroke-width:0.5;"/>
     <text x="703.0" y="83.0" achars="9,g" style="fill:black;font-family:helvetica;font-size:10.0px;">9</text>
    </g>
    <g>
     <rect x="711.0" y="72.0" width="7.0" height="11.0" class="text" style="fill:none;stroke:red;stroke-width:0.5;"/>
     <text x="711.0" y="83.0" achars="5" style="fill:black;font-family:helvetica;font-size:10.0px;">5</text>
    </g>
    <g>
     <rect x="719.0" y="72.0" width="12.0" height="11.0" class="text" style="fill:none;stroke:red;stroke-width:0.5;"/>
     <text x="719.0" y="83.0" achars="%" style="fill:black;font-family:helvetica;font-size:10.0px;">%</text>
    </g>
    <rect x="732.0" y="71.0" width="3.0" height="12.0" class="space" style="fill:none;stroke:blue;stroke-width:0.5;"/>
    <g>
     <rect x="736.0" y="71.0" width="9.0" height="12.0" class="text" style="fill:none;stroke:red;stroke-width:0.5;"/>
     <text x="736.0" y="83.0" achars="C" style="fill:black;font-family:helvetica;font-size:10.0px;">C</text>
    </g>
    <g>
     <rect x="746.0" y="72.0" width="2.0" height="10.0" class="text" style="fill:none;stroke:red;stroke-width:0.5;"/>
     <text x="746.0" y="82.0" achars="I,l,1" style="fill:black;font-family:helvetica;font-size:10.0px;">I</text>
    </g>
    <g>
     <rect x="751.0" y="72.0" width="3.0" height="13.0" class="text" style="fill:none;stroke:red;stroke-width:0.5;"/>
     <text x="751.0" y="85.0" achars="t,),}" style="fill:black;font-family:helvetica;font-size:10.0px;">t</text>
    </g>
    <rect x="755.0" y="72.0" width="7.0" height="10.0" class="space" style="fill:none;stroke:blue;stroke-width:0.5;"/>
    <rect x="773.0" y="72.0" width="6.0" height="10.0" class="space" style="fill:none;stroke:blue;stroke-width:0.5;"/>
    <rect x="798.0" y="72.0" width="5.0" height="10.0" class="space" style="fill:none;stroke:blue;stroke-width:0.5;"/>
    <rect x="825.0" y="72.0" width="3.0" height="10.0" class="space" style="fill:none;stroke:blue;stroke-width:0.5;"/>
    <rect x="848.0" y="72.0" width="1.0" height="10.0" class="space" style="fill:none;stroke:blue;stroke-width:0.5;"/>
    <rect x="865.0" y="72.0" width="0.0" height="10.0" class="space" style="fill:none;stroke:blue;stroke-width:0.5;"/>
    <rect x="877.0" y="72.0" width="-3.0" height="10.0" class="space" style="fill:none;stroke:blue;stroke-width:0.5;"/>
    <rect x="882.0" y="72.0" width="-3.0" height="10.0" class="space" style="fill:none;stroke:blue;stroke-width:0.5;"/>
    <rect x="885.0" y="72.0" width="-3.0" height="10.0" class="space" style="fill:none;stroke:blue;stroke-width:0.5;"/>
    <rect x="886.0" y="72.0" width="-3.0" height="10.0" class="space" style="fill:none;stroke:blue;stroke-width:0.5;"/>
    <rect x="887.0" y="72.0" width="-4.0" height="10.0" class="space" style="fill:none;stroke:blue;stroke-width:0.5;"/>
    <rect x="887.0" y="72.0" width="-3.0" height="10.0" class="space" style="fill:none;stroke:blue;stroke-width:0.5;"/>
    <g>
     <rect x="885.0" y="72.0" width="14.0" height="10.0" class="text" style="fill:none;stroke:red;stroke-width:0.5;"/>
     <text x="885.0" y="82.0" achars="W" style="fill:black;font-family:helvetica;font-size:10.0px;">W</text>
    </g>
    <g>
     <rect x="900.0" y="74.0" width="7.0" height="9.0" class="text" style="fill:none;stroke:red;stroke-width:0.5;"/>
     <text x="900.0" y="83.0" achars="e,g" style="fill:black;font-family:helvetica;font-size:10.0px;">e</text>
    </g>
    <g>
     <rect x="908.0" y="72.0" width="2.0" height="10.0" class="text" style="fill:none;stroke:red;stroke-width:0.5;"/>
     <text x="908.0" y="82.0" achars="i,j" style="fill:black;font-family:helvetica;font-size:10.0px;">i</text>
    </g>
    <g>
     <rect x="911.0" y="74.0" width="7.0" height="11.0" class="text" style="fill:none;stroke:red;stroke-width:0.5;"/>
     <text x="911.0" y="85.0" achars="g" style="fill:black;font-family:helvetica;font-size:10.0px;">g</text>
    </g>
    <g>
     <rect x="920.0" y="72.0" width="6.0" height="10.0" class="text" style="fill:none;stroke:red;stroke-width:0.5;"/>
     <text x="920.0" y="82.0" achars="h" style="fill:black;font-family:helvetica;font-size:10.0px;">h</text>
    </g>
    <g>
     <rect x="927.0" y="72.0" width="4.0" height="11.0" class="text" style="fill:none;stroke:red;stroke-width:0.5;"/>
     <text x="927.0" y="83.0" achars="t" style="fill:black;font-family:helvetica;font-size:10.0px;">t</text>
    </g>
   </g>
  </g>
 </g>
</svg>
