<?xml version="1.0" encoding="UTF-8"?>
<svg height="945.0" width="1200.0" xmlns="http://www.w3.org/2000/svg">
 <g>
  <g class="horizontallines">
   <line x1="8.0" y1="132.0" x2="526.0" y2="132.0" style="stroke:red;stroke-width:2.0;"/>
   <line x1="532.0" y1="132.0" x2="1190.0" y2="132.0" style="stroke:red;stroke-width:2.0;"/>
   <line x1="7.0" y1="894.0" x2="1190.0" y2="894.0" style="stroke:red;stroke-width:2.0;"/>
   <line x1="17.0" y1="899.0" x2="71.0" y2="899.0" style="stroke:red;stroke-width:1.0;"/>
   <line x1="80.0" y1="899.0" x2="159.0" y2="899.0" style="stroke:red;stroke-width:1.0;"/>
   <line x1="168.0" y1="899.0" x2="222.0" y2="899.0" style="stroke:red;stroke-width:1.0;"/>
   <line x1="248.0" y1="899.0" x2="510.0" y2="899.0" style="stroke:red;stroke-width:1.0;"/>
   <line x1="545.0" y1="899.0" x2="814.0" y2="899.0" style="stroke:red;stroke-width:1.0;"/>
   <line x1="832.0" y1="899.0" x2="959.0" y2="899.0" style="stroke:red;stroke-width:1.0;"/>
   <line x1="968.0" y1="899.0" x2="1119.0" y2="899.0" style="stroke:red;stroke-width:1.0;"/>
   <line x1="1128.0" y1="899.0" x2="1182.0" y2="899.0" style="stroke:red;stroke-width:1.0;"/>
  </g>
  <g class="verticallines">
   <line x1="528.0" y1="131.0" x2="528.0" y2="196.0" style="stroke:blue;stroke-width:3.0;"/>
   <line x1="528.0" y1="203.0" x2="528.0" y2="427.0" style="stroke:blue;stroke-width:3.0;"/>
   <line x1="528.0" y1="435.0" x2="528.0" y2="631.0" style="stroke:blue;stroke-width:3.0;"/>
   <line x1="528.0" y1="633.0" x2="528.0" y2="659.0" style="stroke:blue;stroke-width:3.0;"/>
   <line x1="528.0" y1="673.0" x2="528.0" y2="910.0" style="stroke:blue;stroke-width:3.0;"/>
   <line x1="528.0" y1="920.0" x2="528.0" y2="935.0" style="stroke:blue;stroke-width:3.0;"/>
  </g>
 </g>
</svg>
