<?xml version="1.0" encoding="UTF-8"?>
<svg height="576.0" width="497.0" xmlns="http://www.w3.org/2000/svg">
 <g class="page">
  <g class="block">
   <g class="line">
    <rect x="16.0" y="562.0" width="468.0" height="4.0" class="space" style="fill:none;stroke:blue;stroke-width:0.5;"/>
    <g>
     <rect x="16.0" y="562.0" width="468.0" height="4.0" class="text" style="fill:none;stroke:red;stroke-width:0.5;"/>
     <text x="16.0" y="566.0" achars="" style="fill:black;font-family:helvetica;font-size:10.0px;">?</text>
    </g>
   </g>
   <g class="line">
    <rect x="32.0" y="54.0" width="11.0" height="16.0" class="space" style="fill:none;stroke:blue;stroke-width:0.5;"/>
    <g>
     <rect x="32.0" y="54.0" width="11.0" height="16.0" class="text" style="fill:none;stroke:red;stroke-width:0.5;"/>
     <text x="32.0" y="70.0" achars="B" style="fill:black;font-family:helvetica;font-size:10.0px;">B</text>
    </g>
    <g>
     <rect x="44.0" y="58.0" width="11.0" height="12.0" class="text" style="fill:none;stroke:red;stroke-width:0.5;"/>
     <text x="44.0" y="70.0" achars="e,g" style="fill:black;font-family:helvetica;font-size:10.0px;">e</text>
    </g>
    <g>
     <rect x="57.0" y="58.0" width="6.0" height="12.0" class="text" style="fill:none;stroke:red;stroke-width:0.5;"/>
     <text x="57.0" y="70.0" achars="r" style="fill:black;font-family:helvetica;font-size:10.0px;">r</text>
    </g>
    <g>
     <rect x="64.0" y="58.0" width="10.0" height="17.0" class="text" style="fill:none;stroke:red;stroke-width:0.5;"/>
     <text x="64.0" y="75.0" achars="g,9" style="fill:black;font-family:helvetica;font-size:10.0px;">g</text>
    </g>
    <g>
     <rect x="77.0" y="58.0" width="10.0" height="12.0" class="text" style="fill:none;stroke:red;stroke-width:0.5;"/>
     <text x="77.0" y="70.0" achars="e,g" style="fill:black;font-family:helvetica;font-size:10.0px;">e</text>
    </g>
    <g>
     <rect x="88.0" y="58.0" width="8.0" height="12.0" class="text" style="fill:none;stroke:red;stroke-width:0.5;"/>
     <text x="88.0" y="70.0" achars="s" style="fill:black;font-family:helvetica;font-size:10.0px;">s</text>
    </g>
    <g>
     <rect x="97.0" y="58.0" width="12.0" height="12.0" class="text" style="fill:none;stroke:red;stroke-width:0.5;"/>
     <text x="97.0" y="70.0" achars="o,O,0" style="fill:black;font-family:helvetica;font-size:10.0px;">o</text>
    </g>
    <g>
     <rect x="111.0" y="58.0" width="10.0" height="12.0" class="text" style="fill:none;stroke:red;stroke-width:0.5;"/>
     <text x="111.0" y="70.0" achars="n" style="fill:black;font-family:helvetica;font-size:10.0px;">n</text>
    </g>
    <rect x="122.0" y="54.0" width="5.0" height="16.0" class="space" style="fill:none;stroke:blue;stroke-width:0.5;"/>
    <g>
     <rect x="128.0" y="54.0" width="10.0" height="16.0" class="text" style="fill:none;stroke:red;stroke-width:0.5;"/>
     <text x="128.0" y="70.0" achars="2,l" style="fill:black;font-family:helvetica;font-size:10.0px;">2</text>
    </g>
    <g>
     <rect x="140.0" y="54.0" width="10.0" height="16.0" class="text" style="fill:none;stroke:red;stroke-width:0.5;"/>
     <text x="140.0" y="70.0" achars="O,0" style="fill:black;font-family:helvetica;font-size:10.0px;">O</text>
    </g>
    <g>
     <rect x="153.0" y="54.0" width="6.0" height="16.0" class="text" style="fill:none;stroke:red;stroke-width:0.5;"/>
     <text x="153.0" y="70.0" achars="" style="fill:black;font-family:helvetica;font-size:10.0px;">?</text>
    </g>
    <rect x="160.0" y="54.0" width="3.0" height="16.0" class="space" style="fill:none;stroke:blue;stroke-width:0.5;"/>
    <g>
     <rect x="164.0" y="54.0" width="10.0" height="16.0" class="text" style="fill:none;stroke:red;stroke-width:0.5;"/>
     <text x="164.0" y="70.0" achars="2,l" style="fill:black;font-family:helvetica;font-size:10.0px;">2</text>
    </g>
   </g>
   <g class="line">
    <rect x="32.0" y="137.0" width="11.0" height="16.0" class="space" style="fill:none;stroke:blue;stroke-width:0.5;"/>
    <g>
     <rect x="32.0" y="137.0" width="11.0" height="16.0" class="text" style="fill:none;stroke:red;stroke-width:0.5;"/>
     <text x="32.0" y="153.0" achars="" style="fill:black;font-family:helvetica;font-size:10.0px;">?</text>
    </g>
    <g>
     <rect x="44.0" y="141.0" width="11.0" height="13.0" class="text" style="fill:none;stroke:red;stroke-width:0.5;"/>
     <text x="44.0" y="154.0" achars="o,O,0" style="fill:black;font-family:helvetica;font-size:10.0px;">o</text>
    </g>
    <g>
     <rect x="57.0" y="136.0" width="11.0" height="18.0" class="text" style="fill:none;stroke:red;stroke-width:0.5;"/>
     <text x="57.0" y="154.0" achars="d" style="fill:black;font-family:helvetica;font-size:10.0px;">d</text>
    </g>
    <g>
     <rect x="70.0" y="141.0" width="10.0" height="13.0" class="text" style="fill:none;stroke:red;stroke-width:0.5;"/>
     <text x="70.0" y="154.0" achars="e,g" style="fill:black;font-family:helvetica;font-size:10.0px;">e</text>
    </g>
    <g>
     <rect x="82.0" y="141.0" width="11.0" height="13.0" class="text" style="fill:none;stroke:red;stroke-width:0.5;"/>
     <text x="82.0" y="154.0" achars="o,O,0" style="fill:black;font-family:helvetica;font-size:10.0px;">o</text>
    </g>
    <rect x="94.0" y="138.0" width="4.0" height="15.0" class="space" style="fill:none;stroke:blue;stroke-width:0.5;"/>
    <g>
     <rect x="99.0" y="138.0" width="11.0" height="15.0" class="text" style="fill:none;stroke:red;stroke-width:0.5;"/>
     <text x="99.0" y="153.0" achars="2,l" style="fill:black;font-family:helvetica;font-size:10.0px;">2</text>
    </g>
    <g>
     <rect x="111.0" y="138.0" width="11.0" height="16.0" class="text" style="fill:none;stroke:red;stroke-width:0.5;"/>
     <text x="111.0" y="154.0" achars="O,0" style="fill:black;font-family:helvetica;font-size:10.0px;">O</text>
    </g>
    <g>
     <rect x="125.0" y="138.0" width="5.0" height="15.0" class="text" style="fill:none;stroke:red;stroke-width:0.5;"/>
     <text x="125.0" y="153.0" achars="1,l" style="fill:black;font-family:helvetica;font-size:10.0px;">1</text>
    </g>
    <rect x="131.0" y="138.0" width="3.0" height="15.0" class="space" style="fill:none;stroke:blue;stroke-width:0.5;"/>
    <g>
     <rect x="135.0" y="138.0" width="10.0" height="15.0" class="text" style="fill:none;stroke:red;stroke-width:0.5;"/>
     <text x="135.0" y="153.0" achars="2" style="fill:black;font-family:helvetica;font-size:10.0px;">2</text>
    </g>
    <rect x="146.0" y="143.0" width="10.0" height="4.0" class="space" style="fill:none;stroke:blue;stroke-width:0.5;"/>
    <rect x="170.0" y="143.0" width="10.0" height="4.0" class="space" style="fill:none;stroke:blue;stroke-width:0.5;"/>
    <rect x="206.0" y="143.0" width="9.0" height="4.0" class="space" style="fill:none;stroke:blue;stroke-width:0.5;"/>
    <rect x="249.0" y="143.0" width="7.0" height="4.0" class="space" style="fill:none;stroke:blue;stroke-width:0.5;"/>
    <rect x="295.0" y="143.0" width="5.0" height="4.0" class="space" style="fill:none;stroke:blue;stroke-width:0.5;"/>
    <rect x="339.0" y="143.0" width="4.0" height="4.0" class="space" style="fill:none;stroke:blue;stroke-width:0.5;"/>
    <rect x="379.0" y="143.0" width="2.0" height="4.0" class="space" style="fill:none;stroke:blue;stroke-width:0.5;"/>
    <rect x="412.0" y="143.0" width="0.0" height="4.0" class="space" style="fill:none;stroke:blue;stroke-width:0.5;"/>
    <rect x="437.0" y="143.0" width="-1.0" height="4.0" class="space" style="fill:none;stroke:blue;stroke-width:0.5;"/>
    <rect x="455.0" y="143.0" width="-2.0" height="4.0" class="space" style="fill:none;stroke:blue;stroke-width:0.5;"/>
    <rect x="466.0" y="143.0" width="-2.0" height="4.0" class="space" style="fill:none;stroke:blue;stroke-width:0.5;"/>
    <rect x="474.0" y="143.0" width="-3.0" height="4.0" class="space" style="fill:none;stroke:blue;stroke-width:0.5;"/>
    <rect x="478.0" y="143.0" width="-3.0" height="4.0" class="space" style="fill:none;stroke:blue;stroke-width:0.5;"/>
    <rect x="480.0" y="143.0" width="-3.0" height="4.0" class="space" style="fill:none;stroke:blue;stroke-width:0.5;"/>
    <rect x="482.0" y="143.0" width="-4.0" height="4.0" class="space" style="fill:none;stroke:blue;stroke-width:0.5;"/>
    <rect x="482.0" y="143.0" width="-3.0" height="4.0" class="space" style="fill:none;stroke:blue;stroke-width:0.5;"/>
    <rect x="483.0" y="143.0" width="-4.0" height="4.0" class="space" style="fill:none;stroke:blue;stroke-width:0.5;"/>
    <rect x="483.0" y="143.0" width="-4.0" height="4.0" class="space" style="fill:none;stroke:blue;stroke-width:0.5;"/>
    <rect x="483.0" y="143.0" width="-4.0" height="4.0" class="space" style="fill:none;stroke:blue;stroke-width:0.5;"/>
    <rect x="483.0" y="143.0" width="-3.0" height="4.0" class="space" style="fill:none;stroke:blue;stroke-width:0.5;"/>
    <rect x="484.0" y="143.0" width="-4.0" height="4.0" class="space" style="fill:none;stroke:blue;stroke-width:0.5;"/>
    <rect x="484.0" y="143.0" width="-4.0" height="4.0" class="space" style="fill:none;stroke:blue;stroke-width:0.5;"/>
    <rect x="484.0" y="143.0" width="-4.0" height="4.0" class="space" style="fill:none;stroke:blue;stroke-width:0.5;"/>
    <rect x="484.0" y="143.0" width="-3.0" height="4.0" class="space" style="fill:none;stroke:blue;stroke-width:0.5;"/>
    <g>
     <rect x="482.0" y="143.0" width="2.0" height="4.0" class="text" style="fill:none;stroke:red;stroke-width:0.5;"/>
     <text x="482.0" y="147.0" achars="'" style="fill:black;font-family:helvetica;font-size:10.0px;">'</text>
    </g>
   </g>
   <g class="line">
    <rect x="31.0" y="220.0" width="19.0" height="17.0" class="space" style="fill:none;stroke:blue;stroke-width:0.5;"/>
    <g>
     <rect x="31.0" y="220.0" width="19.0" height="17.0" class="text" style="fill:none;stroke:red;stroke-width:0.5;"/>
     <text x="31.0" y="237.0" achars="W" style="fill:black;font-family:helvetica;font-size:10.0px;">W</text>
    </g>
    <g>
     <rect x="51.0" y="225.0" width="11.0" height="12.0" class="text" style="fill:none;stroke:red;stroke-width:0.5;"/>
     <text x="51.0" y="237.0" achars="e,g" style="fill:black;font-family:helvetica;font-size:10.0px;">e</text>
    </g>
    <g>
     <rect x="64.0" y="220.0" width="11.0" height="17.0" class="text" style="fill:none;stroke:red;stroke-width:0.5;"/>
     <text x="64.0" y="237.0" achars="b" style="fill:black;font-family:helvetica;font-size:10.0px;">b</text>
    </g>
    <g>
     <rect x="76.0" y="225.0" width="10.0" height="12.0" class="text" style="fill:none;stroke:red;stroke-width:0.5;"/>
     <text x="76.0" y="237.0" achars="e,g" style="fill:black;font-family:helvetica;font-size:10.0px;">e</text>
    </g>
    <g>
     <rect x="88.0" y="225.0" width="7.0" height="12.0" class="text" style="fill:none;stroke:red;stroke-width:0.5;"/>
     <text x="88.0" y="237.0" achars="r" style="fill:black;font-family:helvetica;font-size:10.0px;">r</text>
    </g>
    <rect x="96.0" y="221.0" width="3.0" height="16.0" class="space" style="fill:none;stroke:blue;stroke-width:0.5;"/>
    <g>
     <rect x="100.0" y="221.0" width="11.0" height="16.0" class="text" style="fill:none;stroke:red;stroke-width:0.5;"/>
     <text x="100.0" y="237.0" achars="2,l" style="fill:black;font-family:helvetica;font-size:10.0px;">2</text>
    </g>
    <g>
     <rect x="112.0" y="221.0" width="11.0" height="16.0" class="text" style="fill:none;stroke:red;stroke-width:0.5;"/>
     <text x="112.0" y="237.0" achars="O,0" style="fill:black;font-family:helvetica;font-size:10.0px;">O</text>
    </g>
    <g>
     <rect x="126.0" y="221.0" width="5.0" height="16.0" class="text" style="fill:none;stroke:red;stroke-width:0.5;"/>
     <text x="126.0" y="237.0" achars="1" style="fill:black;font-family:helvetica;font-size:10.0px;">1</text>
    </g>
    <rect x="132.0" y="221.0" width="3.0" height="16.0" class="space" style="fill:none;stroke:blue;stroke-width:0.5;"/>
    <g>
     <rect x="136.0" y="221.0" width="10.0" height="16.0" class="text" style="fill:none;stroke:red;stroke-width:0.5;"/>
     <text x="136.0" y="237.0" achars="3" style="fill:black;font-family:helvetica;font-size:10.0px;">3</text>
    </g>
   </g>
   <g class="line">
    <rect x="32.0" y="304.0" width="16.0" height="17.0" class="space" style="fill:none;stroke:blue;stroke-width:0.5;"/>
    <g>
     <rect x="32.0" y="304.0" width="16.0" height="17.0" class="text" style="fill:none;stroke:red;stroke-width:0.5;"/>
     <text x="32.0" y="321.0" achars="M,m" style="fill:black;font-family:helvetica;font-size:10.0px;">M</text>
    </g>
    <g>
     <rect x="50.0" y="305.0" width="6.0" height="2.0" class="text" style="fill:none;stroke:red;stroke-width:0.5;"/>
     <text x="50.0" y="307.0" achars="&quot;" style="fill:black;font-family:helvetica;font-size:10.0px;">"</text>
    </g>
    <g>
     <rect x="58.0" y="304.0" width="9.0" height="17.0" class="text" style="fill:none;stroke:red;stroke-width:0.5;"/>
     <text x="58.0" y="321.0" achars="t" style="fill:black;font-family:helvetica;font-size:10.0px;">t</text>
    </g>
    <g>
     <rect x="70.0" y="309.0" width="6.0" height="12.0" class="text" style="fill:none;stroke:red;stroke-width:0.5;"/>
     <text x="70.0" y="321.0" achars="r" style="fill:black;font-family:helvetica;font-size:10.0px;">r</text>
    </g>
    <g>
     <rect x="77.0" y="309.0" width="11.0" height="16.0" class="text" style="fill:none;stroke:red;stroke-width:0.5;"/>
     <text x="77.0" y="325.0" achars="q,a" style="fill:black;font-family:helvetica;font-size:10.0px;">q</text>
    </g>
    <g>
     <rect x="91.0" y="309.0" width="10.0" height="12.0" class="text" style="fill:none;stroke:red;stroke-width:0.5;"/>
     <text x="91.0" y="321.0" achars="u" style="fill:black;font-family:helvetica;font-size:10.0px;">u</text>
    </g>
    <g>
     <rect x="103.0" y="309.0" width="10.0" height="12.0" class="text" style="fill:none;stroke:red;stroke-width:0.5;"/>
     <text x="103.0" y="321.0" achars="e,g" style="fill:black;font-family:helvetica;font-size:10.0px;">e</text>
    </g>
    <g>
     <rect x="114.0" y="309.0" width="9.0" height="12.0" class="text" style="fill:none;stroke:red;stroke-width:0.5;"/>
     <text x="114.0" y="321.0" achars="z" style="fill:black;font-family:helvetica;font-size:10.0px;">z</text>
    </g>
    <rect x="124.0" y="305.0" width="4.0" height="16.0" class="space" style="fill:none;stroke:blue;stroke-width:0.5;"/>
    <g>
     <rect x="129.0" y="305.0" width="11.0" height="16.0" class="text" style="fill:none;stroke:red;stroke-width:0.5;"/>
     <text x="129.0" y="321.0" achars="2,l" style="fill:black;font-family:helvetica;font-size:10.0px;">2</text>
    </g>
    <g>
     <rect x="141.0" y="305.0" width="10.0" height="16.0" class="text" style="fill:none;stroke:red;stroke-width:0.5;"/>
     <text x="141.0" y="321.0" achars="O,0" style="fill:black;font-family:helvetica;font-size:10.0px;">O</text>
    </g>
    <g>
     <rect x="154.0" y="305.0" width="6.0" height="16.0" class="text" style="fill:none;stroke:red;stroke-width:0.5;"/>
     <text x="154.0" y="321.0" achars="1" style="fill:black;font-family:helvetica;font-size:10.0px;">1</text>
    </g>
    <rect x="161.0" y="305.0" width="4.0" height="16.0" class="space" style="fill:none;stroke:blue;stroke-width:0.5;"/>
    <g>
     <rect x="166.0" y="305.0" width="6.0" height="16.0" class="text" style="fill:none;stroke:red;stroke-width:0.5;"/>
     <text x="166.0" y="321.0" achars="1,J" style="fill:black;font-family:helvetica;font-size:10.0px;">1</text>
    </g>
   </g>
   <g class="line">
    <rect x="32.0" y="388.0" width="14.0" height="16.0" class="space" style="fill:none;stroke:blue;stroke-width:0.5;"/>
    <g>
     <rect x="32.0" y="388.0" width="14.0" height="16.0" class="text" style="fill:none;stroke:red;stroke-width:0.5;"/>
     <text x="32.0" y="404.0" achars="O,0" style="fill:black;font-family:helvetica;font-size:10.0px;">O</text>
    </g>
    <g>
     <rect x="47.0" y="392.0" width="11.0" height="12.0" class="text" style="fill:none;stroke:red;stroke-width:0.5;"/>
     <text x="47.0" y="404.0" achars="v" style="fill:black;font-family:helvetica;font-size:10.0px;">v</text>
    </g>
    <g>
     <rect x="59.0" y="392.0" width="10.0" height="12.0" class="text" style="fill:none;stroke:red;stroke-width:0.5;"/>
     <text x="59.0" y="404.0" achars="e,g" style="fill:black;font-family:helvetica;font-size:10.0px;">e</text>
    </g>
    <g>
     <rect x="71.0" y="392.0" width="6.0" height="12.0" class="text" style="fill:none;stroke:red;stroke-width:0.5;"/>
     <text x="71.0" y="404.0" achars="r" style="fill:black;font-family:helvetica;font-size:10.0px;">r</text>
    </g>
    <g>
     <rect x="78.0" y="392.0" width="9.0" height="12.0" class="text" style="fill:none;stroke:red;stroke-width:0.5;"/>
     <text x="78.0" y="404.0" achars="a" style="fill:black;font-family:helvetica;font-size:10.0px;">a</text>
    </g>
    <g>
     <rect x="90.0" y="387.0" width="3.0" height="17.0" class="text" style="fill:none;stroke:red;stroke-width:0.5;"/>
     <text x="90.0" y="404.0" achars="l,I" style="fill:black;font-family:helvetica;font-size:10.0px;">l</text>
    </g>
    <g>
     <rect x="95.0" y="387.0" width="3.0" height="17.0" class="text" style="fill:none;stroke:red;stroke-width:0.5;"/>
     <text x="95.0" y="404.0" achars="I,l,1" style="fill:black;font-family:helvetica;font-size:10.0px;">I</text>
    </g>
    <rect x="99.0" y="387.0" width="11.0" height="20.0" class="space" style="fill:none;stroke:blue;stroke-width:0.5;"/>
    <g>
     <rect x="111.0" y="387.0" width="4.0" height="20.0" class="text" style="fill:none;stroke:red;stroke-width:0.5;"/>
     <text x="111.0" y="407.0" achars="(" style="fill:black;font-family:helvetica;font-size:10.0px;">(</text>
    </g>
    <g>
     <rect x="117.0" y="388.0" width="3.0" height="16.0" class="text" style="fill:none;stroke:red;stroke-width:0.5;"/>
     <text x="117.0" y="404.0" achars="l,I" style="fill:black;font-family:helvetica;font-size:10.0px;">l</text>
    </g>
    <g>
     <rect x="122.0" y="397.0" width="13.0" height="2.0" class="text" style="fill:none;stroke:red;stroke-width:0.5;"/>
     <text x="122.0" y="399.0" achars="'" style="fill:black;font-family:helvetica;font-size:10.0px;">'</text>
    </g>
    <g>
     <rect x="136.0" y="392.0" width="8.0" height="12.0" class="text" style="fill:none;stroke:red;stroke-width:0.5;"/>
     <text x="136.0" y="404.0" achars="s" style="fill:black;font-family:helvetica;font-size:10.0px;">s</text>
    </g>
    <g>
     <rect x="145.0" y="392.0" width="11.0" height="17.0" class="text" style="fill:none;stroke:red;stroke-width:0.5;"/>
     <text x="145.0" y="409.0" achars="q" style="fill:black;font-family:helvetica;font-size:10.0px;">q</text>
    </g>
    <g>
     <rect x="159.0" y="392.0" width="10.0" height="12.0" class="text" style="fill:none;stroke:red;stroke-width:0.5;"/>
     <text x="159.0" y="404.0" achars="u" style="fill:black;font-family:helvetica;font-size:10.0px;">u</text>
    </g>
    <g>
     <rect x="171.0" y="392.0" width="9.0" height="12.0" class="text" style="fill:none;stroke:red;stroke-width:0.5;"/>
     <text x="171.0" y="404.0" achars="a" style="fill:black;font-family:helvetica;font-size:10.0px;">a</text>
    </g>
    <g>
     <rect x="183.0" y="392.0" width="6.0" height="12.0" class="text" style="fill:none;stroke:red;stroke-width:0.5;"/>
     <text x="183.0" y="404.0" achars="r" style="fill:black;font-family:helvetica;font-size:10.0px;">r</text>
    </g>
    <g>
     <rect x="190.0" y="392.0" width="10.0" height="12.0" class="text" style="fill:none;stroke:red;stroke-width:0.5;"/>
     <text x="190.0" y="404.0" achars="e,g" style="fill:black;font-family:helvetica;font-size:10.0px;">e</text>
    </g>
    <g>
     <rect x="202.0" y="387.0" width="11.0" height="17.0" class="text" style="fill:none;stroke:red;stroke-width:0.5;"/>
     <text x="202.0" y="404.0" achars="d" style="fill:black;font-family:helvetica;font-size:10.0px;">d</text>
    </g>
    <rect x="214.0" y="394.0" width="4.0" height="7.0" class="space" style="fill:none;stroke:blue;stroke-width:0.5;"/>
    <g>
     <rect x="219.0" y="394.0" width="13.0" height="7.0" class="text" style="fill:none;stroke:red;stroke-width:0.5;"/>
     <text x="219.0" y="401.0" achars="=" style="fill:black;font-family:helvetica;font-size:10.0px;">=</text>
    </g>
    <rect x="233.0" y="388.0" width="6.0" height="16.0" class="space" style="fill:none;stroke:blue;stroke-width:0.5;"/>
    <g>
     <rect x="240.0" y="388.0" width="5.0" height="16.0" class="text" style="fill:none;stroke:red;stroke-width:0.5;"/>
     <text x="240.0" y="404.0" achars="1" style="fill:black;font-family:helvetica;font-size:10.0px;">1</text>
    </g>
    <rect x="246.0" y="388.0" width="3.0" height="16.0" class="space" style="fill:none;stroke:blue;stroke-width:0.5;"/>
    <g>
     <rect x="250.0" y="388.0" width="10.0" height="16.0" class="text" style="fill:none;stroke:red;stroke-width:0.5;"/>
     <text x="250.0" y="404.0" achars="5" style="fill:black;font-family:helvetica;font-size:10.0px;">5</text>
    </g>
    <g>
     <rect x="262.0" y="401.0" width="4.0" height="3.0" class="text" style="fill:none;stroke:red;stroke-width:0.5;"/>
     <text x="262.0" y="404.0" achars=".,ยง,_" style="fill:black;font-family:helvetica;font-size:10.0px;">.</text>
    </g>
    <g>
     <rect x="267.0" y="388.0" width="10.0" height="16.0" class="text" style="fill:none;stroke:red;stroke-width:0.5;"/>
     <text x="267.0" y="404.0" achars="O,0" style="fill:black;font-family:helvetica;font-size:10.0px;">O</text>
    </g>
    <g>
     <rect x="279.0" y="388.0" width="13.0" height="16.0" class="text" style="fill:none;stroke:red;stroke-width:0.5;"/>
     <text x="279.0" y="404.0" achars="Y" style="fill:black;font-family:helvetica;font-size:10.0px;">Y</text>
    </g>
    <g>
     <rect x="289.0" y="394.0" width="7.0" height="10.0" class="text" style="fill:none;stroke:red;stroke-width:0.5;"/>
     <text x="289.0" y="404.0" achars="o,a,0,D" style="fill:black;font-family:helvetica;font-size:10.0px;">o</text>
    </g>
    <g>
     <rect x="297.0" y="400.0" width="4.0" height="7.0" class="text" style="fill:none;stroke:red;stroke-width:0.5;"/>
     <text x="297.0" y="407.0" achars=",ยงt,l,1" style="fill:black;font-family:helvetica;font-size:10.0px;">,</text>
    </g>
    <rect x="302.0" y="392.0" width="5.0" height="17.0" class="space" style="fill:none;stroke:blue;stroke-width:0.5;"/>
    <g>
     <rect x="308.0" y="392.0" width="11.0" height="17.0" class="text" style="fill:none;stroke:red;stroke-width:0.5;"/>
     <text x="308.0" y="409.0" achars="p" style="fill:black;font-family:helvetica;font-size:10.0px;">p</text>
    </g>
    <rect x="320.0" y="394.0" width="4.0" height="7.0" class="space" style="fill:none;stroke:blue;stroke-width:0.5;"/>
    <g>
     <rect x="325.0" y="394.0" width="13.0" height="7.0" class="text" style="fill:none;stroke:red;stroke-width:0.5;"/>
     <text x="325.0" y="401.0" achars="=" style="fill:black;font-family:helvetica;font-size:10.0px;">=</text>
    </g>
    <rect x="339.0" y="388.0" width="4.0" height="16.0" class="space" style="fill:none;stroke:blue;stroke-width:0.5;"/>
    <g>
     <rect x="344.0" y="388.0" width="10.0" height="16.0" class="text" style="fill:none;stroke:red;stroke-width:0.5;"/>
     <text x="344.0" y="404.0" achars="O,0" style="fill:black;font-family:helvetica;font-size:10.0px;">O</text>
    </g>
    <g>
     <rect x="356.0" y="401.0" width="3.0" height="3.0" class="text" style="fill:none;stroke:red;stroke-width:0.5;"/>
     <text x="356.0" y="404.0" achars=".,ยง" style="fill:black;font-family:helvetica;font-size:10.0px;">.</text>
    </g>
    <g>
     <rect x="361.0" y="388.0" width="10.0" height="16.0" class="text" style="fill:none;stroke:red;stroke-width:0.5;"/>
     <text x="361.0" y="404.0" achars="3" style="fill:black;font-family:helvetica;font-size:10.0px;">3</text>
    </g>
    <g>
     <rect x="374.0" y="388.0" width="5.0" height="16.0" class="text" style="fill:none;stroke:red;stroke-width:0.5;"/>
     <text x="374.0" y="404.0" achars="1" style="fill:black;font-family:helvetica;font-size:10.0px;">1</text>
    </g>
    <rect x="380.0" y="388.0" width="3.0" height="16.0" class="space" style="fill:none;stroke:blue;stroke-width:0.5;"/>
    <g>
     <rect x="384.0" y="388.0" width="11.0" height="16.0" class="text" style="fill:none;stroke:red;stroke-width:0.5;"/>
     <text x="384.0" y="404.0" achars="7,1" style="fill:black;font-family:helvetica;font-size:10.0px;">7</text>
    </g>
    <g>
     <rect x="396.0" y="387.0" width="5.0" height="20.0" class="text" style="fill:none;stroke:red;stroke-width:0.5;"/>
     <text x="396.0" y="407.0" achars="),&gt;" style="fill:black;font-family:helvetica;font-size:10.0px;">)</text>
    </g>
   </g>
   <g class="line">
    <rect x="46.0" y="450.0" width="-1.0" height="24.0" class="space" style="fill:none;stroke:blue;stroke-width:0.5;"/>
    <rect x="43.0" y="450.0" width="15.0" height="24.0" class="space" style="fill:none;stroke:blue;stroke-width:0.5;"/>
    <g>
     <rect x="43.0" y="450.0" width="15.0" height="24.0" class="text" style="fill:none;stroke:red;stroke-width:0.5;"/>
     <text x="43.0" y="474.0" achars="P" style="fill:black;font-family:helvetica;font-size:10.0px;">P</text>
    </g>
    <g>
     <rect x="60.0" y="459.0" width="18.0" height="10.0" class="text" style="fill:none;stroke:red;stroke-width:0.5;"/>
     <text x="60.0" y="469.0" achars="=" style="fill:black;font-family:helvetica;font-size:10.0px;">=</text>
    </g>
    <g>
     <rect x="80.0" y="451.0" width="16.0" height="23.0" class="text" style="fill:none;stroke:red;stroke-width:0.5;"/>
     <text x="80.0" y="474.0" achars="O,0" style="fill:black;font-family:helvetica;font-size:10.0px;">O</text>
    </g>
    <g>
     <rect x="98.0" y="469.0" width="5.0" height="5.0" class="text" style="fill:none;stroke:red;stroke-width:0.5;"/>
     <text x="98.0" y="474.0" achars=".,ยง" style="fill:black;font-family:helvetica;font-size:10.0px;">.</text>
    </g>
    <g>
     <rect x="105.0" y="451.0" width="16.0" height="23.0" class="text" style="fill:none;stroke:red;stroke-width:0.5;"/>
     <text x="105.0" y="474.0" achars="O,0" style="fill:black;font-family:helvetica;font-size:10.0px;">O</text>
    </g>
    <g>
     <rect x="123.0" y="451.0" width="15.0" height="23.0" class="text" style="fill:none;stroke:red;stroke-width:0.5;"/>
     <text x="123.0" y="474.0" achars="6" style="fill:black;font-family:helvetica;font-size:10.0px;">6</text>
    </g>
    <g>
     <rect x="140.0" y="451.0" width="16.0" height="23.0" class="text" style="fill:none;stroke:red;stroke-width:0.5;"/>
     <text x="140.0" y="474.0" achars="6" style="fill:black;font-family:helvetica;font-size:10.0px;">6</text>
    </g>
   </g>
   <g class="line">
    <rect x="32.0" y="513.0" width="13.0" height="17.0" class="space" style="fill:none;stroke:blue;stroke-width:0.5;"/>
    <g>
     <rect x="32.0" y="513.0" width="13.0" height="17.0" class="text" style="fill:none;stroke:red;stroke-width:0.5;"/>
     <text x="32.0" y="530.0" achars="N" style="fill:black;font-family:helvetica;font-size:10.0px;">N</text>
    </g>
    <g>
     <rect x="47.0" y="513.0" width="14.0" height="17.0" class="text" style="fill:none;stroke:red;stroke-width:0.5;"/>
     <text x="47.0" y="530.0" achars="O,0" style="fill:black;font-family:helvetica;font-size:10.0px;">O</text>
    </g>
    <g>
     <rect x="62.0" y="513.0" width="12.0" height="17.0" class="text" style="fill:none;stroke:red;stroke-width:0.5;"/>
     <text x="62.0" y="530.0" achars="T" style="fill:black;font-family:helvetica;font-size:10.0px;">T</text>
    </g>
    <g>
     <rect x="75.0" y="513.0" width="10.0" height="16.0" class="text" style="fill:none;stroke:red;stroke-width:0.5;"/>
     <text x="75.0" y="529.0" achars="E" style="fill:black;font-family:helvetica;font-size:10.0px;">E</text>
    </g>
    <g>
     <rect x="86.0" y="518.0" width="3.0" height="12.0" class="text" style="fill:none;stroke:red;stroke-width:0.5;"/>
     <text x="86.0" y="530.0" achars=":,;" style="fill:black;font-family:helvetica;font-size:10.0px;">:</text>
    </g>
    <rect x="90.0" y="513.0" width="4.0" height="17.0" class="space" style="fill:none;stroke:blue;stroke-width:0.5;"/>
    <g>
     <rect x="95.0" y="513.0" width="20.0" height="17.0" class="text" style="fill:none;stroke:red;stroke-width:0.5;"/>
     <text x="95.0" y="530.0" achars="W" style="fill:black;font-family:helvetica;font-size:10.0px;">W</text>
    </g>
    <g>
     <rect x="115.0" y="518.0" width="11.0" height="12.0" class="text" style="fill:none;stroke:red;stroke-width:0.5;"/>
     <text x="115.0" y="530.0" achars="e,g" style="fill:black;font-family:helvetica;font-size:10.0px;">e</text>
    </g>
    <g>
     <rect x="128.0" y="514.0" width="2.0" height="16.0" class="text" style="fill:none;stroke:red;stroke-width:0.5;"/>
     <text x="128.0" y="530.0" achars="i,j" style="fill:black;font-family:helvetica;font-size:10.0px;">i</text>
    </g>
    <g>
     <rect x="132.0" y="517.0" width="11.0" height="17.0" class="text" style="fill:none;stroke:red;stroke-width:0.5;"/>
     <text x="132.0" y="534.0" achars="g,9" style="fill:black;font-family:helvetica;font-size:10.0px;">g</text>
    </g>
    <g>
     <rect x="146.0" y="512.0" width="10.0" height="18.0" class="text" style="fill:none;stroke:red;stroke-width:0.5;"/>
     <text x="146.0" y="530.0" achars="h" style="fill:black;font-family:helvetica;font-size:10.0px;">h</text>
    </g>
    <g>
     <rect x="158.0" y="515.0" width="7.0" height="15.0" class="text" style="fill:none;stroke:red;stroke-width:0.5;"/>
     <text x="158.0" y="530.0" achars="t" style="fill:black;font-family:helvetica;font-size:10.0px;">t</text>
    </g>
    <g>
     <rect x="166.0" y="517.0" width="8.0" height="13.0" class="text" style="fill:none;stroke:red;stroke-width:0.5;"/>
     <text x="166.0" y="530.0" achars="s" style="fill:black;font-family:helvetica;font-size:10.0px;">s</text>
    </g>
    <rect x="175.0" y="518.0" width="4.0" height="12.0" class="space" style="fill:none;stroke:blue;stroke-width:0.5;"/>
    <g>
     <rect x="180.0" y="518.0" width="9.0" height="12.0" class="text" style="fill:none;stroke:red;stroke-width:0.5;"/>
     <text x="180.0" y="530.0" achars="a" style="fill:black;font-family:helvetica;font-size:10.0px;">a</text>
    </g>
    <g>
     <rect x="192.0" y="517.0" width="6.0" height="13.0" class="text" style="fill:none;stroke:red;stroke-width:0.5;"/>
     <text x="192.0" y="530.0" achars="r" style="fill:black;font-family:helvetica;font-size:10.0px;">r</text>
    </g>
    <g>
     <rect x="199.0" y="518.0" width="10.0" height="12.0" class="text" style="fill:none;stroke:red;stroke-width:0.5;"/>
     <text x="199.0" y="530.0" achars="e,g" style="fill:black;font-family:helvetica;font-size:10.0px;">e</text>
    </g>
    <rect x="210.0" y="512.0" width="4.0" height="18.0" class="space" style="fill:none;stroke:blue;stroke-width:0.5;"/>
    <g>
     <rect x="215.0" y="512.0" width="8.0" height="18.0" class="text" style="fill:none;stroke:red;stroke-width:0.5;"/>
     <text x="215.0" y="530.0" achars="f" style="fill:black;font-family:helvetica;font-size:10.0px;">f</text>
    </g>
    <g>
     <rect x="223.0" y="518.0" width="6.0" height="12.0" class="text" style="fill:none;stroke:red;stroke-width:0.5;"/>
     <text x="223.0" y="530.0" achars="r" style="fill:black;font-family:helvetica;font-size:10.0px;">r</text>
    </g>
    <g>
     <rect x="230.0" y="517.0" width="11.0" height="13.0" class="text" style="fill:none;stroke:red;stroke-width:0.5;"/>
     <text x="230.0" y="530.0" achars="o,O,0" style="fill:black;font-family:helvetica;font-size:10.0px;">o</text>
    </g>
    <g>
     <rect x="243.0" y="518.0" width="17.0" height="12.0" class="text" style="fill:none;stroke:red;stroke-width:0.5;"/>
     <text x="243.0" y="530.0" achars="m" style="fill:black;font-family:helvetica;font-size:10.0px;">m</text>
    </g>
    <rect x="261.0" y="518.0" width="6.0" height="12.0" class="space" style="fill:none;stroke:blue;stroke-width:0.5;"/>
    <g>
     <rect x="268.0" y="518.0" width="6.0" height="12.0" class="text" style="fill:none;stroke:red;stroke-width:0.5;"/>
     <text x="268.0" y="530.0" achars="r" style="fill:black;font-family:helvetica;font-size:10.0px;">r</text>
    </g>
    <g>
     <rect x="274.0" y="518.0" width="10.0" height="12.0" class="text" style="fill:none;stroke:red;stroke-width:0.5;"/>
     <text x="274.0" y="530.0" achars="a" style="fill:black;font-family:helvetica;font-size:10.0px;">a</text>
    </g>
    <g>
     <rect x="286.0" y="518.0" width="10.0" height="12.0" class="text" style="fill:none;stroke:red;stroke-width:0.5;"/>
     <text x="286.0" y="530.0" achars="n" style="fill:black;font-family:helvetica;font-size:10.0px;">n</text>
    </g>
    <g>
     <rect x="298.0" y="512.0" width="11.0" height="18.0" class="text" style="fill:none;stroke:red;stroke-width:0.5;"/>
     <text x="298.0" y="530.0" achars="d" style="fill:black;font-family:helvetica;font-size:10.0px;">d</text>
    </g>
    <g>
     <rect x="311.0" y="518.0" width="12.0" height="12.0" class="text" style="fill:none;stroke:red;stroke-width:0.5;"/>
     <text x="311.0" y="530.0" achars="o,O,0" style="fill:black;font-family:helvetica;font-size:10.0px;">o</text>
    </g>
    <g>
     <rect x="325.0" y="517.0" width="17.0" height="13.0" class="text" style="fill:none;stroke:red;stroke-width:0.5;"/>
     <text x="325.0" y="530.0" achars="m" style="fill:black;font-family:helvetica;font-size:10.0px;">m</text>
    </g>
    <rect x="343.0" y="517.0" width="5.0" height="13.0" class="space" style="fill:none;stroke:blue;stroke-width:0.5;"/>
    <g>
     <rect x="349.0" y="517.0" width="10.0" height="13.0" class="text" style="fill:none;stroke:red;stroke-width:0.5;"/>
     <text x="349.0" y="530.0" achars="e,g" style="fill:black;font-family:helvetica;font-size:10.0px;">e</text>
    </g>
    <g>
     <rect x="359.0" y="512.0" width="15.0" height="18.0" class="text" style="fill:none;stroke:red;stroke-width:0.5;"/>
     <text x="359.0" y="530.0" achars="ff,1f" style="fill:black;font-family:helvetica;font-size:10.0px;">f</text>
    </g>
    <g>
     <rect x="374.0" y="517.0" width="10.0" height="13.0" class="text" style="fill:none;stroke:red;stroke-width:0.5;"/>
     <text x="374.0" y="530.0" achars="e,g" style="fill:black;font-family:helvetica;font-size:10.0px;">e</text>
    </g>
    <g>
     <rect x="385.0" y="517.0" width="10.0" height="13.0" class="text" style="fill:none;stroke:red;stroke-width:0.5;"/>
     <text x="385.0" y="530.0" achars="c" style="fill:black;font-family:helvetica;font-size:10.0px;">c</text>
    </g>
    <g>
     <rect x="395.0" y="515.0" width="8.0" height="15.0" class="text" style="fill:none;stroke:red;stroke-width:0.5;"/>
     <text x="395.0" y="530.0" achars="t" style="fill:black;font-family:helvetica;font-size:10.0px;">t</text>
    </g>
    <g>
     <rect x="404.0" y="518.0" width="7.0" height="12.0" class="text" style="fill:none;stroke:red;stroke-width:0.5;"/>
     <text x="404.0" y="530.0" achars="s,5" style="fill:black;font-family:helvetica;font-size:10.0px;">s</text>
    </g>
    <rect x="412.0" y="518.0" width="4.0" height="12.0" class="space" style="fill:none;stroke:blue;stroke-width:0.5;"/>
    <g>
     <rect x="417.0" y="518.0" width="10.0" height="12.0" class="text" style="fill:none;stroke:red;stroke-width:0.5;"/>
     <text x="417.0" y="530.0" achars="a" style="fill:black;font-family:helvetica;font-size:10.0px;">a</text>
    </g>
    <g>
     <rect x="430.0" y="518.0" width="10.0" height="12.0" class="text" style="fill:none;stroke:red;stroke-width:0.5;"/>
     <text x="430.0" y="530.0" achars="n" style="fill:black;font-family:helvetica;font-size:10.0px;">n</text>
    </g>
    <g>
     <rect x="442.0" y="518.0" width="9.0" height="12.0" class="text" style="fill:none;stroke:red;stroke-width:0.5;"/>
     <text x="442.0" y="530.0" achars="a" style="fill:black;font-family:helvetica;font-size:10.0px;">a</text>
    </g>
    <g>
     <rect x="454.0" y="512.0" width="2.0" height="18.0" class="text" style="fill:none;stroke:red;stroke-width:0.5;"/>
     <text x="454.0" y="530.0" achars="l,I,|,1" style="fill:black;font-family:helvetica;font-size:10.0px;">l</text>
    </g>
    <g>
     <rect x="458.0" y="518.0" width="10.0" height="16.0" class="text" style="fill:none;stroke:red;stroke-width:0.5;"/>
     <text x="458.0" y="534.0" achars="y" style="fill:black;font-family:helvetica;font-size:10.0px;">y</text>
    </g>
    <g>
     <rect x="469.0" y="518.0" width="8.0" height="12.0" class="text" style="fill:none;stroke:red;stroke-width:0.5;"/>
     <text x="469.0" y="530.0" achars="s" style="fill:black;font-family:helvetica;font-size:10.0px;">s</text>
    </g>
    <g>
     <rect x="479.0" y="513.0" width="3.0" height="17.0" class="text" style="fill:none;stroke:red;stroke-width:0.5;"/>
     <text x="479.0" y="530.0" achars="i,j" style="fill:black;font-family:helvetica;font-size:10.0px;">i</text>
    </g>
   </g>
  </g>
 </g>
</svg>
