<?xml version="1.0" encoding="UTF-8"?>
<svg height="224.0" width="944.0" xmlns="http://www.w3.org/2000/svg">
 <g class="page">
  <g class="block">
   <g class="line">
    <rect x="934.0" y="37.0" width="-538.0" height="49.0" class="space" style="fill:none;stroke:blue;stroke-width:0.5;"/>
    <rect x="397.0" y="37.0" width="-4.0" height="49.0" class="space" style="fill:none;stroke:blue;stroke-width:0.5;"/>
    <rect x="394.0" y="37.0" width="-4.0" height="49.0" class="space" style="fill:none;stroke:blue;stroke-width:0.5;"/>
    <rect x="391.0" y="37.0" width="-4.0" height="49.0" class="space" style="fill:none;stroke:blue;stroke-width:0.5;"/>
    <rect x="389.0" y="37.0" width="-4.0" height="49.0" class="space" style="fill:none;stroke:blue;stroke-width:0.5;"/>
    <rect x="387.0" y="37.0" width="-4.0" height="49.0" class="space" style="fill:none;stroke:blue;stroke-width:0.5;"/>
    <rect x="386.0" y="37.0" width="-4.0" height="49.0" class="space" style="fill:none;stroke:blue;stroke-width:0.5;"/>
    <rect x="385.0" y="37.0" width="-3.0" height="49.0" class="space" style="fill:none;stroke:blue;stroke-width:0.5;"/>
    <rect x="386.0" y="37.0" width="-4.0" height="49.0" class="space" style="fill:none;stroke:blue;stroke-width:0.5;"/>
    <rect x="386.0" y="37.0" width="-4.0" height="49.0" class="space" style="fill:none;stroke:blue;stroke-width:0.5;"/>
    <rect x="386.0" y="37.0" width="-3.0" height="49.0" class="space" style="fill:none;stroke:blue;stroke-width:0.5;"/>
    <rect x="388.0" y="37.0" width="-4.0" height="49.0" class="space" style="fill:none;stroke:blue;stroke-width:0.5;"/>
    <rect x="389.0" y="37.0" width="-4.0" height="49.0" class="space" style="fill:none;stroke:blue;stroke-width:0.5;"/>
    <rect x="390.0" y="37.0" width="-4.0" height="49.0" class="space" style="fill:none;stroke:blue;stroke-width:0.5;"/>
    <rect x="391.0" y="37.0" width="-4.0" height="49.0" class="space" style="fill:none;stroke:blue;stroke-width:0.5;"/>
    <rect x="392.0" y="37.0" width="-4.0" height="49.0" class="space" style="fill:none;stroke:blue;stroke-width:0.5;"/>
    <rect x="393.0" y="37.0" width="-4.0" height="49.0" class="space" style="fill:none;stroke:blue;stroke-width:0.5;"/>
    <rect x="393.0" y="37.0" width="-3.0" height="49.0" class="space" style="fill:none;stroke:blue;stroke-width:0.5;"/>
    <rect x="394.0" y="37.0" width="-4.0" height="49.0" class="space" style="fill:none;stroke:blue;stroke-width:0.5;"/>
    <rect x="394.0" y="37.0" width="-3.0" height="49.0" class="space" style="fill:none;stroke:blue;stroke-width:0.5;"/>
    <rect x="395.0" y="37.0" width="-4.0" height="49.0" class="space" style="fill:none;stroke:blue;stroke-width:0.5;"/>
    <rect x="395.0" y="37.0" width="-3.0" height="49.0" class="space" style="fill:none;stroke:blue;stroke-width:0.5;"/>
    <rect x="396.0" y="37.0" width="-4.0" height="49.0" class="space" style="fill:none;stroke:blue;stroke-width:0.5;"/>
    <rect x="396.0" y="37.0" width="-4.0" height="49.0" class="space" style="fill:none;stroke:blue;stroke-width:0.5;"/>
    <rect x="396.0" y="37.0" width="-3.0" height="49.0" class="space" style="fill:none;stroke:blue;stroke-width:0.5;"/>
    <rect x="397.0" y="37.0" width="-4.0" height="49.0" class="space" style="fill:none;stroke:blue;stroke-width:0.5;"/>
    <rect x="397.0" y="37.0" width="-4.0" height="49.0" class="space" style="fill:none;stroke:blue;stroke-width:0.5;"/>
    <rect x="397.0" y="37.0" width="-4.0" height="49.0" class="space" style="fill:none;stroke:blue;stroke-width:0.5;"/>
    <rect x="397.0" y="37.0" width="-3.0" height="49.0" class="space" style="fill:none;stroke:blue;stroke-width:0.5;"/>
    <rect x="398.0" y="37.0" width="-4.0" height="49.0" class="space" style="fill:none;stroke:blue;stroke-width:0.5;"/>
    <rect x="398.0" y="37.0" width="-4.0" height="49.0" class="space" style="fill:none;stroke:blue;stroke-width:0.5;"/>
    <rect x="398.0" y="37.0" width="-4.0" height="49.0" class="space" style="fill:none;stroke:blue;stroke-width:0.5;"/>
    <rect x="398.0" y="37.0" width="-4.0" height="49.0" class="space" style="fill:none;stroke:blue;stroke-width:0.5;"/>
    <rect x="398.0" y="37.0" width="-4.0" height="49.0" class="space" style="fill:none;stroke:blue;stroke-width:0.5;"/>
    <rect x="398.0" y="37.0" width="-3.0" height="49.0" class="space" style="fill:none;stroke:blue;stroke-width:0.5;"/>
    <rect x="399.0" y="37.0" width="-4.0" height="49.0" class="space" style="fill:none;stroke:blue;stroke-width:0.5;"/>
    <rect x="399.0" y="37.0" width="-4.0" height="49.0" class="space" style="fill:none;stroke:blue;stroke-width:0.5;"/>
    <rect x="399.0" y="37.0" width="-4.0" height="49.0" class="space" style="fill:none;stroke:blue;stroke-width:0.5;"/>
    <rect x="399.0" y="37.0" width="-4.0" height="49.0" class="space" style="fill:none;stroke:blue;stroke-width:0.5;"/>
    <rect x="399.0" y="37.0" width="-4.0" height="49.0" class="space" style="fill:none;stroke:blue;stroke-width:0.5;"/>
    <rect x="399.0" y="37.0" width="-4.0" height="49.0" class="space" style="fill:none;stroke:blue;stroke-width:0.5;"/>
    <rect x="399.0" y="37.0" width="-4.0" height="49.0" class="space" style="fill:none;stroke:blue;stroke-width:0.5;"/>
    <rect x="399.0" y="37.0" width="-3.0" height="49.0" class="space" style="fill:none;stroke:blue;stroke-width:0.5;"/>
    <rect x="397.0" y="37.0" width="53.0" height="49.0" class="space" style="fill:none;stroke:blue;stroke-width:0.5;"/>
    <g>
     <rect x="397.0" y="37.0" width="53.0" height="49.0" class="text" style="fill:none;stroke:red;stroke-width:0.5;"/>
     <text x="397.0" y="86.0" achars="" style="fill:black;font-family:helvetica;font-size:10.0px;">?</text>
    </g>
    <g>
     <rect x="423.0" y="51.0" width="1.0" height="5.0" class="text" style="fill:none;stroke:red;stroke-width:0.5;"/>
     <text x="423.0" y="56.0" achars="|,I,1" style="fill:black;font-family:helvetica;font-size:10.0px;">|</text>
    </g>
    <g>
     <rect x="423.0" y="92.0" width="1.0" height="4.0" class="text" style="fill:none;stroke:red;stroke-width:0.5;"/>
     <text x="423.0" y="96.0" achars="" style="fill:black;font-family:helvetica;font-size:10.0px;">?</text>
    </g>
    <g>
     <rect x="423.0" y="102.0" width="1.0" height="4.0" class="text" style="fill:none;stroke:red;stroke-width:0.5;"/>
     <text x="423.0" y="106.0" achars="" style="fill:black;font-family:helvetica;font-size:10.0px;">?</text>
    </g>
    <g>
     <rect x="423.0" y="111.0" width="1.0" height="5.0" class="text" style="fill:none;stroke:red;stroke-width:0.5;"/>
     <text x="423.0" y="116.0" achars="|,I,1" style="fill:black;font-family:helvetica;font-size:10.0px;">|</text>
    </g>
    <g>
     <rect x="423.0" y="122.0" width="1.0" height="5.0" class="text" style="fill:none;stroke:red;stroke-width:0.5;"/>
     <text x="423.0" y="127.0" achars="|,I,1" style="fill:black;font-family:helvetica;font-size:10.0px;">|</text>
    </g>
    <g>
     <rect x="423.0" y="132.0" width="1.0" height="4.0" class="text" style="fill:none;stroke:red;stroke-width:0.5;"/>
     <text x="423.0" y="136.0" achars="" style="fill:black;font-family:helvetica;font-size:10.0px;">?</text>
    </g>
    <g>
     <rect x="423.0" y="142.0" width="1.0" height="5.0" class="text" style="fill:none;stroke:red;stroke-width:0.5;"/>
     <text x="423.0" y="147.0" achars="|,I,1" style="fill:black;font-family:helvetica;font-size:10.0px;">|</text>
    </g>
    <g>
     <rect x="423.0" y="152.0" width="1.0" height="5.0" class="text" style="fill:none;stroke:red;stroke-width:0.5;"/>
     <text x="423.0" y="157.0" achars="|,I,1" style="fill:black;font-family:helvetica;font-size:10.0px;">|</text>
    </g>
    <g>
     <rect x="423.0" y="162.0" width="1.0" height="5.0" class="text" style="fill:none;stroke:red;stroke-width:0.5;"/>
     <text x="423.0" y="167.0" achars="|,I,1" style="fill:black;font-family:helvetica;font-size:10.0px;">|</text>
    </g>
   </g>
   <g class="line">
    <rect x="5.0" y="57.0" width="10.0" height="11.0" class="space" style="fill:none;stroke:blue;stroke-width:0.5;"/>
    <g>
     <rect x="5.0" y="57.0" width="10.0" height="11.0" class="text" style="fill:none;stroke:red;stroke-width:0.5;"/>
     <text x="5.0" y="68.0" achars="O,0" style="fill:black;font-family:helvetica;font-size:10.0px;">O</text>
    </g>
    <g>
     <rect x="16.0" y="60.0" width="6.0" height="7.0" class="text" style="fill:none;stroke:red;stroke-width:0.5;"/>
     <text x="16.0" y="67.0" achars="v" style="fill:black;font-family:helvetica;font-size:10.0px;">v</text>
    </g>
    <g>
     <rect x="23.0" y="59.0" width="7.0" height="8.0" class="text" style="fill:none;stroke:red;stroke-width:0.5;"/>
     <text x="23.0" y="67.0" achars="e,g,i,Q" style="fill:black;font-family:helvetica;font-size:10.0px;">e</text>
    </g>
    <g>
     <rect x="31.0" y="59.0" width="4.0" height="8.0" class="text" style="fill:none;stroke:red;stroke-width:0.5;"/>
     <text x="31.0" y="67.0" achars="r" style="fill:black;font-family:helvetica;font-size:10.0px;">r</text>
    </g>
    <g>
     <rect x="35.0" y="60.0" width="7.0" height="8.0" class="text" style="fill:none;stroke:red;stroke-width:0.5;"/>
     <text x="35.0" y="68.0" achars="a,g" style="fill:black;font-family:helvetica;font-size:10.0px;">a</text>
    </g>
    <g>
     <rect x="44.0" y="57.0" width="1.0" height="10.0" class="text" style="fill:none;stroke:red;stroke-width:0.5;"/>
     <text x="44.0" y="67.0" achars="l,I,|,1" style="fill:black;font-family:helvetica;font-size:10.0px;">l</text>
    </g>
    <g>
     <rect x="46.0" y="57.0" width="2.0" height="10.0" class="text" style="fill:none;stroke:red;stroke-width:0.5;"/>
     <text x="46.0" y="67.0" achars="I,1,l" style="fill:black;font-family:helvetica;font-size:10.0px;">I</text>
    </g>
    <rect x="49.0" y="57.0" width="7.0" height="13.0" class="space" style="fill:none;stroke:blue;stroke-width:0.5;"/>
    <g>
     <rect x="57.0" y="57.0" width="4.0" height="13.0" class="text" style="fill:none;stroke:red;stroke-width:0.5;"/>
     <text x="57.0" y="70.0" achars="(,1,C" style="fill:black;font-family:helvetica;font-size:10.0px;">(</text>
    </g>
    <g>
     <rect x="62.0" y="57.0" width="2.0" height="10.0" class="text" style="fill:none;stroke:red;stroke-width:0.5;"/>
     <text x="62.0" y="67.0" achars="l,I,|,1" style="fill:black;font-family:helvetica;font-size:10.0px;">l</text>
    </g>
    <g>
     <rect x="66.0" y="63.0" width="3.0" height="1.0" class="text" style="fill:none;stroke:red;stroke-width:0.5;"/>
     <text x="66.0" y="64.0" achars="-" style="fill:black;font-family:helvetica;font-size:10.0px;">-</text>
    </g>
    <g>
     <rect x="70.0" y="59.0" width="6.0" height="8.0" class="text" style="fill:none;stroke:red;stroke-width:0.5;"/>
     <text x="70.0" y="67.0" achars="s" style="fill:black;font-family:helvetica;font-size:10.0px;">s</text>
    </g>
    <g>
     <rect x="77.0" y="59.0" width="7.0" height="11.0" class="text" style="fill:none;stroke:red;stroke-width:0.5;"/>
     <text x="77.0" y="70.0" achars="q" style="fill:black;font-family:helvetica;font-size:10.0px;">q</text>
    </g>
    <g>
     <rect x="85.0" y="60.0" width="7.0" height="7.0" class="text" style="fill:none;stroke:red;stroke-width:0.5;"/>
     <text x="85.0" y="67.0" achars="u" style="fill:black;font-family:helvetica;font-size:10.0px;">u</text>
    </g>
    <g>
     <rect x="93.0" y="59.0" width="6.0" height="8.0" class="text" style="fill:none;stroke:red;stroke-width:0.5;"/>
     <text x="93.0" y="67.0" achars="a" style="fill:black;font-family:helvetica;font-size:10.0px;">a</text>
    </g>
    <g>
     <rect x="101.0" y="60.0" width="4.0" height="7.0" class="text" style="fill:none;stroke:red;stroke-width:0.5;"/>
     <text x="101.0" y="67.0" achars="r" style="fill:black;font-family:helvetica;font-size:10.0px;">r</text>
    </g>
    <g>
     <rect x="105.0" y="59.0" width="7.0" height="8.0" class="text" style="fill:none;stroke:red;stroke-width:0.5;"/>
     <text x="105.0" y="67.0" achars="e,g,i,Q" style="fill:black;font-family:helvetica;font-size:10.0px;">e</text>
    </g>
    <g>
     <rect x="113.0" y="57.0" width="7.0" height="10.0" class="text" style="fill:none;stroke:red;stroke-width:0.5;"/>
     <text x="113.0" y="67.0" achars="d" style="fill:black;font-family:helvetica;font-size:10.0px;">d</text>
    </g>
    <rect x="121.0" y="60.0" width="3.0" height="5.0" class="space" style="fill:none;stroke:blue;stroke-width:0.5;"/>
    <g>
     <rect x="125.0" y="60.0" width="7.0" height="5.0" class="text" style="fill:none;stroke:red;stroke-width:0.5;"/>
     <text x="125.0" y="65.0" achars="'" style="fill:black;font-family:helvetica;font-size:10.0px;">'</text>
    </g>
    <rect x="133.0" y="57.0" width="3.0" height="10.0" class="space" style="fill:none;stroke:blue;stroke-width:0.5;"/>
    <g>
     <rect x="137.0" y="57.0" width="7.0" height="10.0" class="text" style="fill:none;stroke:red;stroke-width:0.5;"/>
     <text x="137.0" y="67.0" achars="5" style="fill:black;font-family:helvetica;font-size:10.0px;">5</text>
    </g>
    <g>
     <rect x="146.0" y="57.0" width="4.0" height="10.0" class="text" style="fill:none;stroke:red;stroke-width:0.5;"/>
     <text x="146.0" y="67.0" achars="1" style="fill:black;font-family:helvetica;font-size:10.0px;">1</text>
    </g>
    <rect x="151.0" y="57.0" width="4.0" height="10.0" class="space" style="fill:none;stroke:blue;stroke-width:0.5;"/>
    <g>
     <rect x="156.0" y="57.0" width="7.0" height="10.0" class="text" style="fill:none;stroke:red;stroke-width:0.5;"/>
     <text x="156.0" y="67.0" achars="7,J" style="fill:black;font-family:helvetica;font-size:10.0px;">7</text>
    </g>
    <g>
     <rect x="164.0" y="57.0" width="5.0" height="6.0" class="text" style="fill:none;stroke:red;stroke-width:0.5;"/>
     <text x="164.0" y="63.0" achars="P,O,0,a,&quot;" style="fill:black;font-family:helvetica;font-size:10.0px;">P</text>
    </g>
    <g>
     <rect x="167.0" y="57.0" width="9.0" height="11.0" class="text" style="fill:none;stroke:red;stroke-width:0.5;"/>
     <text x="167.0" y="68.0" achars="t4" style="fill:black;font-family:helvetica;font-size:10.0px;">t</text>
    </g>
    <g>
     <rect x="177.0" y="66.0" width="2.0" height="3.0" class="text" style="fill:none;stroke:red;stroke-width:0.5;"/>
     <text x="177.0" y="69.0" achars=".,§" style="fill:black;font-family:helvetica;font-size:10.0px;">.</text>
    </g>
    <rect x="180.0" y="59.0" width="3.0" height="11.0" class="space" style="fill:none;stroke:blue;stroke-width:0.5;"/>
    <g>
     <rect x="184.0" y="59.0" width="7.0" height="11.0" class="text" style="fill:none;stroke:red;stroke-width:0.5;"/>
     <text x="184.0" y="70.0" achars="p" style="fill:black;font-family:helvetica;font-size:10.0px;">p</text>
    </g>
    <rect x="192.0" y="60.0" width="3.0" height="5.0" class="space" style="fill:none;stroke:blue;stroke-width:0.5;"/>
    <g>
     <rect x="196.0" y="60.0" width="7.0" height="5.0" class="text" style="fill:none;stroke:red;stroke-width:0.5;"/>
     <text x="196.0" y="65.0" achars="'" style="fill:black;font-family:helvetica;font-size:10.0px;">'</text>
    </g>
    <rect x="204.0" y="57.0" width="3.0" height="10.0" class="space" style="fill:none;stroke:blue;stroke-width:0.5;"/>
    <g>
     <rect x="208.0" y="57.0" width="7.0" height="10.0" class="text" style="fill:none;stroke:red;stroke-width:0.5;"/>
     <text x="208.0" y="67.0" achars="O,0" style="fill:black;font-family:helvetica;font-size:10.0px;">O</text>
    </g>
    <g>
     <rect x="216.0" y="66.0" width="2.0" height="1.0" class="text" style="fill:none;stroke:red;stroke-width:0.5;"/>
     <text x="216.0" y="67.0" achars="." style="fill:black;font-family:helvetica;font-size:10.0px;">.</text>
    </g>
    <g>
     <rect x="220.0" y="57.0" width="4.0" height="10.0" class="text" style="fill:none;stroke:red;stroke-width:0.5;"/>
     <text x="220.0" y="67.0" achars="1" style="fill:black;font-family:helvetica;font-size:10.0px;">1</text>
    </g>
    <g>
     <rect x="227.0" y="57.0" width="7.0" height="10.0" class="text" style="fill:none;stroke:red;stroke-width:0.5;"/>
     <text x="227.0" y="67.0" achars="2,e" style="fill:black;font-family:helvetica;font-size:10.0px;">2</text>
    </g>
    <g>
     <rect x="235.0" y="57.0" width="7.0" height="10.0" class="text" style="fill:none;stroke:red;stroke-width:0.5;"/>
     <text x="235.0" y="67.0" achars="6" style="fill:black;font-family:helvetica;font-size:10.0px;">6</text>
    </g>
    <g>
     <rect x="243.0" y="57.0" width="4.0" height="13.0" class="text" style="fill:none;stroke:red;stroke-width:0.5;"/>
     <text x="243.0" y="70.0" achars="),&gt;" style="fill:black;font-family:helvetica;font-size:10.0px;">)</text>
    </g>
    <rect x="248.0" y="62.0" width="5.0" height="4.0" class="space" style="fill:none;stroke:blue;stroke-width:0.5;"/>
    <rect x="263.0" y="62.0" width="5.0" height="4.0" class="space" style="fill:none;stroke:blue;stroke-width:0.5;"/>
    <rect x="285.0" y="62.0" width="4.0" height="4.0" class="space" style="fill:none;stroke:blue;stroke-width:0.5;"/>
    <rect x="311.0" y="62.0" width="3.0" height="4.0" class="space" style="fill:none;stroke:blue;stroke-width:0.5;"/>
    <rect x="338.0" y="62.0" width="2.0" height="4.0" class="space" style="fill:none;stroke:blue;stroke-width:0.5;"/>
    <rect x="363.0" y="62.0" width="0.0" height="4.0" class="space" style="fill:none;stroke:blue;stroke-width:0.5;"/>
    <rect x="383.0" y="62.0" width="-1.0" height="4.0" class="space" style="fill:none;stroke:blue;stroke-width:0.5;"/>
    <rect x="398.0" y="62.0" width="-1.0" height="4.0" class="space" style="fill:none;stroke:blue;stroke-width:0.5;"/>
    <rect x="409.0" y="62.0" width="-2.0" height="4.0" class="space" style="fill:none;stroke:blue;stroke-width:0.5;"/>
    <rect x="416.0" y="62.0" width="-3.0" height="4.0" class="space" style="fill:none;stroke:blue;stroke-width:0.5;"/>
    <rect x="420.0" y="62.0" width="-4.0" height="4.0" class="space" style="fill:none;stroke:blue;stroke-width:0.5;"/>
    <rect x="422.0" y="62.0" width="-4.0" height="4.0" class="space" style="fill:none;stroke:blue;stroke-width:0.5;"/>
    <rect x="423.0" y="62.0" width="-4.0" height="4.0" class="space" style="fill:none;stroke:blue;stroke-width:0.5;"/>
    <rect x="424.0" y="62.0" width="-4.0" height="4.0" class="space" style="fill:none;stroke:blue;stroke-width:0.5;"/>
    <rect x="424.0" y="62.0" width="-4.0" height="4.0" class="space" style="fill:none;stroke:blue;stroke-width:0.5;"/>
    <rect x="424.0" y="62.0" width="-3.0" height="4.0" class="space" style="fill:none;stroke:blue;stroke-width:0.5;"/>
    <rect x="425.0" y="62.0" width="-4.0" height="4.0" class="space" style="fill:none;stroke:blue;stroke-width:0.5;"/>
    <rect x="425.0" y="62.0" width="-4.0" height="4.0" class="space" style="fill:none;stroke:blue;stroke-width:0.5;"/>
    <rect x="425.0" y="62.0" width="-3.0" height="4.0" class="space" style="fill:none;stroke:blue;stroke-width:0.5;"/>
    <g>
     <rect x="423.0" y="62.0" width="1.0" height="4.0" class="text" style="fill:none;stroke:red;stroke-width:0.5;"/>
     <text x="423.0" y="66.0" achars="" style="fill:black;font-family:helvetica;font-size:10.0px;">?</text>
    </g>
   </g>
   <g class="line">
    <rect x="423.0" y="71.0" width="1.0" height="5.0" class="space" style="fill:none;stroke:blue;stroke-width:0.5;"/>
    <g>
     <rect x="423.0" y="71.0" width="1.0" height="5.0" class="text" style="fill:none;stroke:red;stroke-width:0.5;"/>
     <text x="423.0" y="76.0" achars="," style="fill:black;font-family:helvetica;font-size:10.0px;">,</text>
    </g>
   </g>
   <g class="line">
    <rect x="425.0" y="57.0" width="5.0" height="10.0" class="space" style="fill:none;stroke:blue;stroke-width:0.5;"/>
    <rect x="440.0" y="57.0" width="5.0" height="10.0" class="space" style="fill:none;stroke:blue;stroke-width:0.5;"/>
    <rect x="463.0" y="57.0" width="4.0" height="10.0" class="space" style="fill:none;stroke:blue;stroke-width:0.5;"/>
    <rect x="491.0" y="57.0" width="4.0" height="10.0" class="space" style="fill:none;stroke:blue;stroke-width:0.5;"/>
    <rect x="523.0" y="57.0" width="3.0" height="10.0" class="space" style="fill:none;stroke:blue;stroke-width:0.5;"/>
    <rect x="556.0" y="57.0" width="2.0" height="10.0" class="space" style="fill:none;stroke:blue;stroke-width:0.5;"/>
    <rect x="588.0" y="57.0" width="1.0" height="10.0" class="space" style="fill:none;stroke:blue;stroke-width:0.5;"/>
    <rect x="617.0" y="57.0" width="0.0" height="10.0" class="space" style="fill:none;stroke:blue;stroke-width:0.5;"/>
    <rect x="642.0" y="57.0" width="-1.0" height="10.0" class="space" style="fill:none;stroke:blue;stroke-width:0.5;"/>
    <rect x="662.0" y="57.0" width="-2.0" height="10.0" class="space" style="fill:none;stroke:blue;stroke-width:0.5;"/>
    <rect x="677.0" y="57.0" width="-3.0" height="10.0" class="space" style="fill:none;stroke:blue;stroke-width:0.5;"/>
    <rect x="687.0" y="57.0" width="-3.0" height="10.0" class="space" style="fill:none;stroke:blue;stroke-width:0.5;"/>
    <rect x="695.0" y="57.0" width="-4.0" height="10.0" class="space" style="fill:none;stroke:blue;stroke-width:0.5;"/>
    <rect x="699.0" y="57.0" width="-3.0" height="10.0" class="space" style="fill:none;stroke:blue;stroke-width:0.5;"/>
    <rect x="703.0" y="57.0" width="-4.0" height="10.0" class="space" style="fill:none;stroke:blue;stroke-width:0.5;"/>
    <rect x="705.0" y="57.0" width="-4.0" height="10.0" class="space" style="fill:none;stroke:blue;stroke-width:0.5;"/>
    <rect x="706.0" y="57.0" width="-4.0" height="10.0" class="space" style="fill:none;stroke:blue;stroke-width:0.5;"/>
    <rect x="707.0" y="57.0" width="-4.0" height="10.0" class="space" style="fill:none;stroke:blue;stroke-width:0.5;"/>
    <rect x="708.0" y="57.0" width="-4.0" height="10.0" class="space" style="fill:none;stroke:blue;stroke-width:0.5;"/>
    <rect x="708.0" y="57.0" width="-4.0" height="10.0" class="space" style="fill:none;stroke:blue;stroke-width:0.5;"/>
    <rect x="708.0" y="57.0" width="-3.0" height="10.0" class="space" style="fill:none;stroke:blue;stroke-width:0.5;"/>
    <rect x="709.0" y="57.0" width="-4.0" height="10.0" class="space" style="fill:none;stroke:blue;stroke-width:0.5;"/>
    <rect x="709.0" y="57.0" width="-4.0" height="10.0" class="space" style="fill:none;stroke:blue;stroke-width:0.5;"/>
    <rect x="709.0" y="57.0" width="-4.0" height="10.0" class="space" style="fill:none;stroke:blue;stroke-width:0.5;"/>
    <rect x="709.0" y="57.0" width="-3.0" height="10.0" class="space" style="fill:none;stroke:blue;stroke-width:0.5;"/>
    <rect x="710.0" y="57.0" width="-4.0" height="10.0" class="space" style="fill:none;stroke:blue;stroke-width:0.5;"/>
    <rect x="710.0" y="57.0" width="-4.0" height="10.0" class="space" style="fill:none;stroke:blue;stroke-width:0.5;"/>
    <rect x="710.0" y="57.0" width="-4.0" height="10.0" class="space" style="fill:none;stroke:blue;stroke-width:0.5;"/>
    <rect x="710.0" y="57.0" width="-4.0" height="10.0" class="space" style="fill:none;stroke:blue;stroke-width:0.5;"/>
    <rect x="710.0" y="57.0" width="-4.0" height="10.0" class="space" style="fill:none;stroke:blue;stroke-width:0.5;"/>
    <rect x="710.0" y="57.0" width="-3.0" height="10.0" class="space" style="fill:none;stroke:blue;stroke-width:0.5;"/>
    <rect x="708.0" y="57.0" width="7.0" height="10.0" class="space" style="fill:none;stroke:blue;stroke-width:0.5;"/>
    <g>
     <rect x="708.0" y="57.0" width="7.0" height="10.0" class="text" style="fill:none;stroke:red;stroke-width:0.5;"/>
     <text x="708.0" y="67.0" achars="O,0,a,o" style="fill:black;font-family:helvetica;font-size:10.0px;">O</text>
    </g>
    <rect x="716.0" y="57.0" width="3.0" height="10.0" class="space" style="fill:none;stroke:blue;stroke-width:0.5;"/>
    <g>
     <rect x="720.0" y="57.0" width="7.0" height="10.0" class="text" style="fill:none;stroke:red;stroke-width:0.5;"/>
     <text x="720.0" y="67.0" achars="6" style="fill:black;font-family:helvetica;font-size:10.0px;">6</text>
    </g>
    <g>
     <rect x="728.0" y="57.0" width="7.0" height="10.0" class="text" style="fill:none;stroke:red;stroke-width:0.5;"/>
     <text x="728.0" y="67.0" achars="5" style="fill:black;font-family:helvetica;font-size:10.0px;">5</text>
    </g>
    <rect x="736.0" y="57.0" width="3.0" height="13.0" class="space" style="fill:none;stroke:blue;stroke-width:0.5;"/>
    <g>
     <rect x="740.0" y="57.0" width="3.0" height="13.0" class="text" style="fill:none;stroke:red;stroke-width:0.5;"/>
     <text x="740.0" y="70.0" achars="(" style="fill:black;font-family:helvetica;font-size:10.0px;">(</text>
    </g>
    <g>
     <rect x="744.0" y="57.0" width="8.0" height="10.0" class="text" style="fill:none;stroke:red;stroke-width:0.5;"/>
     <text x="744.0" y="67.0" achars="o,O,0" style="fill:black;font-family:helvetica;font-size:10.0px;">o</text>
    </g>
    <g>
     <rect x="752.0" y="66.0" width="2.0" height="1.0" class="text" style="fill:none;stroke:red;stroke-width:0.5;"/>
     <text x="752.0" y="67.0" achars="." style="fill:black;font-family:helvetica;font-size:10.0px;">.</text>
    </g>
    <g>
     <rect x="756.0" y="57.0" width="6.0" height="10.0" class="text" style="fill:none;stroke:red;stroke-width:0.5;"/>
     <text x="756.0" y="67.0" achars="4,q" style="fill:black;font-family:helvetica;font-size:10.0px;">4</text>
    </g>
    <g>
     <rect x="763.0" y="57.0" width="8.0" height="10.0" class="text" style="fill:none;stroke:red;stroke-width:0.5;"/>
     <text x="763.0" y="67.0" achars="q,4" style="fill:black;font-family:helvetica;font-size:10.0px;">q</text>
    </g>
    <g>
     <rect x="772.0" y="66.0" width="2.0" height="2.0" class="text" style="fill:none;stroke:red;stroke-width:0.5;"/>
     <text x="772.0" y="68.0" achars=",§." style="fill:black;font-family:helvetica;font-size:10.0px;">,</text>
    </g>
    <rect x="775.0" y="57.0" width="3.0" height="10.0" class="space" style="fill:none;stroke:blue;stroke-width:0.5;"/>
    <g>
     <rect x="779.0" y="57.0" width="7.0" height="10.0" class="text" style="fill:none;stroke:red;stroke-width:0.5;"/>
     <text x="779.0" y="67.0" achars="O,0,a,o" style="fill:black;font-family:helvetica;font-size:10.0px;">O</text>
    </g>
    <rect x="787.0" y="57.0" width="3.0" height="10.0" class="space" style="fill:none;stroke:blue;stroke-width:0.5;"/>
    <g>
     <rect x="791.0" y="57.0" width="7.0" height="10.0" class="text" style="fill:none;stroke:red;stroke-width:0.5;"/>
     <text x="791.0" y="67.0" achars="9,g" style="fill:black;font-family:helvetica;font-size:10.0px;">9</text>
    </g>
    <g>
     <rect x="799.0" y="57.0" width="7.0" height="10.0" class="text" style="fill:none;stroke:red;stroke-width:0.5;"/>
     <text x="799.0" y="67.0" achars="8" style="fill:black;font-family:helvetica;font-size:10.0px;">8</text>
    </g>
    <g>
     <rect x="807.0" y="57.0" width="3.0" height="13.0" class="text" style="fill:none;stroke:red;stroke-width:0.5;"/>
     <text x="807.0" y="70.0" achars="),t" style="fill:black;font-family:helvetica;font-size:10.0px;">)</text>
    </g>
    <rect x="811.0" y="57.0" width="5.0" height="10.0" class="space" style="fill:none;stroke:blue;stroke-width:0.5;"/>
    <rect x="825.0" y="57.0" width="5.0" height="10.0" class="space" style="fill:none;stroke:blue;stroke-width:0.5;"/>
    <rect x="845.0" y="57.0" width="3.0" height="10.0" class="space" style="fill:none;stroke:blue;stroke-width:0.5;"/>
    <rect x="863.0" y="57.0" width="1.0" height="10.0" class="space" style="fill:none;stroke:blue;stroke-width:0.5;"/>
    <rect x="876.0" y="57.0" width="-2.0" height="10.0" class="space" style="fill:none;stroke:blue;stroke-width:0.5;"/>
    <rect x="882.0" y="57.0" width="-2.0" height="10.0" class="space" style="fill:none;stroke:blue;stroke-width:0.5;"/>
    <rect x="885.0" y="57.0" width="-3.0" height="10.0" class="space" style="fill:none;stroke:blue;stroke-width:0.5;"/>
    <rect x="886.0" y="57.0" width="-3.0" height="10.0" class="space" style="fill:none;stroke:blue;stroke-width:0.5;"/>
    <g>
     <rect x="884.0" y="57.0" width="4.0" height="10.0" class="text" style="fill:none;stroke:red;stroke-width:0.5;"/>
     <text x="884.0" y="67.0" achars="1" style="fill:black;font-family:helvetica;font-size:10.0px;">1</text>
    </g>
    <g>
     <rect x="890.0" y="57.0" width="7.0" height="10.0" class="text" style="fill:none;stroke:red;stroke-width:0.5;"/>
     <text x="890.0" y="67.0" achars="a,o,O,0" style="fill:black;font-family:helvetica;font-size:10.0px;">a</text>
    </g>
    <g>
     <rect x="898.0" y="57.0" width="7.0" height="10.0" class="text" style="fill:none;stroke:red;stroke-width:0.5;"/>
     <text x="898.0" y="67.0" achars="O,0,o" style="fill:black;font-family:helvetica;font-size:10.0px;">O</text>
    </g>
    <g>
     <rect x="907.0" y="66.0" width="1.0" height="2.0" class="text" style="fill:none;stroke:red;stroke-width:0.5;"/>
     <text x="907.0" y="68.0" achars=".,§" style="fill:black;font-family:helvetica;font-size:10.0px;">.</text>
    </g>
    <g>
     <rect x="910.0" y="57.0" width="7.0" height="10.0" class="text" style="fill:none;stroke:red;stroke-width:0.5;"/>
     <text x="910.0" y="67.0" achars="0" style="fill:black;font-family:helvetica;font-size:10.0px;">0</text>
    </g>
    <g>
     <rect x="918.0" y="57.0" width="6.0" height="10.0" class="text" style="fill:none;stroke:red;stroke-width:0.5;"/>
     <text x="918.0" y="67.0" achars="O,0,a,o" style="fill:black;font-family:helvetica;font-size:10.0px;">O</text>
    </g>
   </g>
   <g class="line">
    <rect x="185.0" y="212.0" width="-4.0" height="2.0" class="space" style="fill:none;stroke:blue;stroke-width:0.5;"/>
    <rect x="185.0" y="212.0" width="-3.0" height="2.0" class="space" style="fill:none;stroke:blue;stroke-width:0.5;"/>
    <rect x="186.0" y="212.0" width="-3.0" height="2.0" class="space" style="fill:none;stroke:blue;stroke-width:0.5;"/>
    <rect x="187.0" y="212.0" width="-3.0" height="2.0" class="space" style="fill:none;stroke:blue;stroke-width:0.5;"/>
    <rect x="188.0" y="212.0" width="-3.0" height="2.0" class="space" style="fill:none;stroke:blue;stroke-width:0.5;"/>
    <rect x="189.0" y="212.0" width="-3.0" height="2.0" class="space" style="fill:none;stroke:blue;stroke-width:0.5;"/>
    <rect x="190.0" y="212.0" width="-4.0" height="2.0" class="space" style="fill:none;stroke:blue;stroke-width:0.5;"/>
    <rect x="190.0" y="212.0" width="-3.0" height="2.0" class="space" style="fill:none;stroke:blue;stroke-width:0.5;"/>
    <rect x="191.0" y="212.0" width="-4.0" height="2.0" class="space" style="fill:none;stroke:blue;stroke-width:0.5;"/>
    <rect x="191.0" y="212.0" width="-3.0" height="2.0" class="space" style="fill:none;stroke:blue;stroke-width:0.5;"/>
    <rect x="192.0" y="212.0" width="-4.0" height="2.0" class="space" style="fill:none;stroke:blue;stroke-width:0.5;"/>
    <rect x="192.0" y="212.0" width="-4.0" height="2.0" class="space" style="fill:none;stroke:blue;stroke-width:0.5;"/>
    <rect x="192.0" y="212.0" width="-3.0" height="2.0" class="space" style="fill:none;stroke:blue;stroke-width:0.5;"/>
    <rect x="193.0" y="212.0" width="-4.0" height="2.0" class="space" style="fill:none;stroke:blue;stroke-width:0.5;"/>
    <rect x="193.0" y="212.0" width="-4.0" height="2.0" class="space" style="fill:none;stroke:blue;stroke-width:0.5;"/>
    <rect x="193.0" y="212.0" width="-4.0" height="2.0" class="space" style="fill:none;stroke:blue;stroke-width:0.5;"/>
    <rect x="193.0" y="212.0" width="-3.0" height="2.0" class="space" style="fill:none;stroke:blue;stroke-width:0.5;"/>
    <rect x="194.0" y="212.0" width="-4.0" height="2.0" class="space" style="fill:none;stroke:blue;stroke-width:0.5;"/>
    <rect x="194.0" y="212.0" width="-4.0" height="2.0" class="space" style="fill:none;stroke:blue;stroke-width:0.5;"/>
    <rect x="194.0" y="212.0" width="-4.0" height="2.0" class="space" style="fill:none;stroke:blue;stroke-width:0.5;"/>
    <rect x="194.0" y="212.0" width="-4.0" height="2.0" class="space" style="fill:none;stroke:blue;stroke-width:0.5;"/>
    <rect x="194.0" y="212.0" width="-4.0" height="2.0" class="space" style="fill:none;stroke:blue;stroke-width:0.5;"/>
    <rect x="194.0" y="212.0" width="-4.0" height="2.0" class="space" style="fill:none;stroke:blue;stroke-width:0.5;"/>
    <rect x="191.0" y="212.0" width="1.0" height="2.0" class="space" style="fill:none;stroke:blue;stroke-width:0.5;"/>
    <g>
     <rect x="191.0" y="212.0" width="1.0" height="2.0" class="text" style="fill:none;stroke:red;stroke-width:0.5;"/>
     <text x="191.0" y="214.0" achars=".,§" style="fill:black;font-family:helvetica;font-size:10.0px;">.</text>
    </g>
    <g>
     <rect x="194.0" y="203.0" width="7.0" height="11.0" class="text" style="fill:none;stroke:red;stroke-width:0.5;"/>
     <text x="194.0" y="214.0" achars="O,0,o" style="fill:black;font-family:helvetica;font-size:10.0px;">O</text>
    </g>
    <g>
     <rect x="202.0" y="203.0" width="7.0" height="11.0" class="text" style="fill:none;stroke:red;stroke-width:0.5;"/>
     <text x="202.0" y="214.0" achars="e" style="fill:black;font-family:helvetica;font-size:10.0px;">e</text>
    </g>
    <g>
     <rect x="210.0" y="203.0" width="6.0" height="11.0" class="text" style="fill:none;stroke:red;stroke-width:0.5;"/>
     <text x="210.0" y="214.0" achars="7,J,1" style="fill:black;font-family:helvetica;font-size:10.0px;">7</text>
    </g>
    <g>
     <rect x="217.0" y="203.0" width="7.0" height="11.0" class="text" style="fill:none;stroke:red;stroke-width:0.5;"/>
     <text x="217.0" y="214.0" achars="8" style="fill:black;font-family:helvetica;font-size:10.0px;">8</text>
    </g>
    <rect x="225.0" y="203.0" width="4.0" height="11.0" class="space" style="fill:none;stroke:blue;stroke-width:0.5;"/>
    <rect x="237.0" y="203.0" width="4.0" height="11.0" class="space" style="fill:none;stroke:blue;stroke-width:0.5;"/>
    <rect x="257.0" y="203.0" width="3.0" height="11.0" class="space" style="fill:none;stroke:blue;stroke-width:0.5;"/>
    <rect x="281.0" y="203.0" width="3.0" height="11.0" class="space" style="fill:none;stroke:blue;stroke-width:0.5;"/>
    <rect x="309.0" y="203.0" width="2.0" height="11.0" class="space" style="fill:none;stroke:blue;stroke-width:0.5;"/>
    <rect x="337.0" y="203.0" width="1.0" height="11.0" class="space" style="fill:none;stroke:blue;stroke-width:0.5;"/>
    <rect x="363.0" y="203.0" width="0.0" height="11.0" class="space" style="fill:none;stroke:blue;stroke-width:0.5;"/>
    <rect x="386.0" y="203.0" width="-1.0" height="11.0" class="space" style="fill:none;stroke:blue;stroke-width:0.5;"/>
    <rect x="405.0" y="203.0" width="-2.0" height="11.0" class="space" style="fill:none;stroke:blue;stroke-width:0.5;"/>
    <rect x="419.0" y="203.0" width="-2.0" height="11.0" class="space" style="fill:none;stroke:blue;stroke-width:0.5;"/>
    <rect x="430.0" y="203.0" width="-3.0" height="11.0" class="space" style="fill:none;stroke:blue;stroke-width:0.5;"/>
    <rect x="437.0" y="203.0" width="-3.0" height="11.0" class="space" style="fill:none;stroke:blue;stroke-width:0.5;"/>
    <rect x="442.0" y="203.0" width="-3.0" height="11.0" class="space" style="fill:none;stroke:blue;stroke-width:0.5;"/>
    <rect x="446.0" y="203.0" width="-4.0" height="11.0" class="space" style="fill:none;stroke:blue;stroke-width:0.5;"/>
    <rect x="448.0" y="203.0" width="-4.0" height="11.0" class="space" style="fill:none;stroke:blue;stroke-width:0.5;"/>
    <rect x="449.0" y="203.0" width="-4.0" height="11.0" class="space" style="fill:none;stroke:blue;stroke-width:0.5;"/>
    <rect x="450.0" y="203.0" width="-4.0" height="11.0" class="space" style="fill:none;stroke:blue;stroke-width:0.5;"/>
    <rect x="450.0" y="203.0" width="-4.0" height="11.0" class="space" style="fill:none;stroke:blue;stroke-width:0.5;"/>
    <rect x="450.0" y="203.0" width="-3.0" height="11.0" class="space" style="fill:none;stroke:blue;stroke-width:0.5;"/>
    <rect x="451.0" y="203.0" width="-4.0" height="11.0" class="space" style="fill:none;stroke:blue;stroke-width:0.5;"/>
    <rect x="451.0" y="203.0" width="-4.0" height="11.0" class="space" style="fill:none;stroke:blue;stroke-width:0.5;"/>
    <rect x="451.0" y="203.0" width="-4.0" height="11.0" class="space" style="fill:none;stroke:blue;stroke-width:0.5;"/>
    <rect x="451.0" y="203.0" width="-3.0" height="11.0" class="space" style="fill:none;stroke:blue;stroke-width:0.5;"/>
    <rect x="452.0" y="203.0" width="-4.0" height="11.0" class="space" style="fill:none;stroke:blue;stroke-width:0.5;"/>
    <rect x="452.0" y="203.0" width="-4.0" height="11.0" class="space" style="fill:none;stroke:blue;stroke-width:0.5;"/>
    <rect x="452.0" y="203.0" width="-4.0" height="11.0" class="space" style="fill:none;stroke:blue;stroke-width:0.5;"/>
    <rect x="452.0" y="203.0" width="-4.0" height="11.0" class="space" style="fill:none;stroke:blue;stroke-width:0.5;"/>
    <rect x="452.0" y="203.0" width="-3.0" height="11.0" class="space" style="fill:none;stroke:blue;stroke-width:0.5;"/>
    <g>
     <rect x="450.0" y="203.0" width="4.0" height="11.0" class="text" style="fill:none;stroke:red;stroke-width:0.5;"/>
     <text x="450.0" y="214.0" achars="1" style="fill:black;font-family:helvetica;font-size:10.0px;">1</text>
    </g>
    <rect x="455.0" y="203.0" width="4.0" height="11.0" class="space" style="fill:none;stroke:blue;stroke-width:0.5;"/>
    <rect x="468.0" y="203.0" width="4.0" height="11.0" class="space" style="fill:none;stroke:blue;stroke-width:0.5;"/>
    <rect x="488.0" y="203.0" width="4.0" height="11.0" class="space" style="fill:none;stroke:blue;stroke-width:0.5;"/>
    <rect x="513.0" y="203.0" width="3.0" height="11.0" class="space" style="fill:none;stroke:blue;stroke-width:0.5;"/>
    <rect x="541.0" y="203.0" width="2.0" height="11.0" class="space" style="fill:none;stroke:blue;stroke-width:0.5;"/>
    <rect x="569.0" y="203.0" width="1.0" height="11.0" class="space" style="fill:none;stroke:blue;stroke-width:0.5;"/>
    <rect x="596.0" y="203.0" width="0.0" height="11.0" class="space" style="fill:none;stroke:blue;stroke-width:0.5;"/>
    <rect x="619.0" y="203.0" width="0.0" height="11.0" class="space" style="fill:none;stroke:blue;stroke-width:0.5;"/>
    <rect x="639.0" y="203.0" width="-2.0" height="11.0" class="space" style="fill:none;stroke:blue;stroke-width:0.5;"/>
    <rect x="654.0" y="203.0" width="-3.0" height="11.0" class="space" style="fill:none;stroke:blue;stroke-width:0.5;"/>
    <rect x="664.0" y="203.0" width="-2.0" height="11.0" class="space" style="fill:none;stroke:blue;stroke-width:0.5;"/>
    <rect x="672.0" y="203.0" width="-3.0" height="11.0" class="space" style="fill:none;stroke:blue;stroke-width:0.5;"/>
    <rect x="677.0" y="203.0" width="-3.0" height="11.0" class="space" style="fill:none;stroke:blue;stroke-width:0.5;"/>
    <rect x="681.0" y="203.0" width="-4.0" height="11.0" class="space" style="fill:none;stroke:blue;stroke-width:0.5;"/>
    <rect x="683.0" y="203.0" width="-4.0" height="11.0" class="space" style="fill:none;stroke:blue;stroke-width:0.5;"/>
    <rect x="684.0" y="203.0" width="-4.0" height="11.0" class="space" style="fill:none;stroke:blue;stroke-width:0.5;"/>
    <rect x="685.0" y="203.0" width="-4.0" height="11.0" class="space" style="fill:none;stroke:blue;stroke-width:0.5;"/>
    <rect x="685.0" y="203.0" width="-4.0" height="11.0" class="space" style="fill:none;stroke:blue;stroke-width:0.5;"/>
    <rect x="685.0" y="203.0" width="-3.0" height="11.0" class="space" style="fill:none;stroke:blue;stroke-width:0.5;"/>
    <rect x="686.0" y="203.0" width="-4.0" height="11.0" class="space" style="fill:none;stroke:blue;stroke-width:0.5;"/>
    <rect x="686.0" y="203.0" width="-4.0" height="11.0" class="space" style="fill:none;stroke:blue;stroke-width:0.5;"/>
    <rect x="686.0" y="203.0" width="-4.0" height="11.0" class="space" style="fill:none;stroke:blue;stroke-width:0.5;"/>
    <rect x="686.0" y="203.0" width="-3.0" height="11.0" class="space" style="fill:none;stroke:blue;stroke-width:0.5;"/>
    <rect x="687.0" y="203.0" width="-4.0" height="11.0" class="space" style="fill:none;stroke:blue;stroke-width:0.5;"/>
    <rect x="687.0" y="203.0" width="-4.0" height="11.0" class="space" style="fill:none;stroke:blue;stroke-width:0.5;"/>
    <rect x="687.0" y="203.0" width="-4.0" height="11.0" class="space" style="fill:none;stroke:blue;stroke-width:0.5;"/>
    <rect x="687.0" y="203.0" width="-4.0" height="11.0" class="space" style="fill:none;stroke:blue;stroke-width:0.5;"/>
    <rect x="687.0" y="203.0" width="-3.0" height="11.0" class="space" style="fill:none;stroke:blue;stroke-width:0.5;"/>
    <g>
     <rect x="685.0" y="203.0" width="7.0" height="11.0" class="text" style="fill:none;stroke:red;stroke-width:0.5;"/>
     <text x="685.0" y="214.0" achars="3,s" style="fill:black;font-family:helvetica;font-size:10.0px;">3</text>
    </g>
    <g>
     <rect x="693.0" y="203.0" width="7.0" height="11.0" class="text" style="fill:none;stroke:red;stroke-width:0.5;"/>
     <text x="693.0" y="214.0" achars="$,5" style="fill:black;font-family:helvetica;font-size:10.0px;">$</text>
    </g>
    <g>
     <rect x="701.0" y="212.0" width="2.0" height="2.0" class="text" style="fill:none;stroke:red;stroke-width:0.5;"/>
     <text x="701.0" y="214.0" achars=".,§" style="fill:black;font-family:helvetica;font-size:10.0px;">.</text>
    </g>
    <g>
     <rect x="705.0" y="203.0" width="7.0" height="11.0" class="text" style="fill:none;stroke:red;stroke-width:0.5;"/>
     <text x="705.0" y="214.0" achars="g,9" style="fill:black;font-family:helvetica;font-size:10.0px;">g</text>
    </g>
   </g>
  </g>
 </g>
</svg>
