<?xml version="1.0" encoding="UTF-8"?>
<svg height="580.0" width="518.0" xmlns="http://www.w3.org/2000/svg">
 <g class="page">
  <g class="block">
   <g class="line">
    <rect x="0.0" y="568.0" width="508.0" height="2.0" class="space" style="fill:none;stroke:blue;stroke-width:0.5;"/>
    <g>
     <rect x="0.0" y="568.0" width="508.0" height="2.0" class="text" style="fill:none;stroke:red;stroke-width:0.5;"/>
     <text x="0.0" y="570.0" achars="" style="fill:black;font-family:helvetica;font-size:10.0px;">?</text>
    </g>
   </g>
   <g class="line">
    <rect x="14.0" y="55.0" width="12.0" height="17.0" class="space" style="fill:none;stroke:blue;stroke-width:0.5;"/>
    <g>
     <rect x="14.0" y="55.0" width="12.0" height="17.0" class="text" style="fill:none;stroke:red;stroke-width:0.5;"/>
     <text x="14.0" y="72.0" achars="o,O,0" style="fill:black;font-family:helvetica;font-size:10.0px;">o</text>
    </g>
    <g>
     <rect x="28.0" y="68.0" width="3.0" height="4.0" class="text" style="fill:none;stroke:red;stroke-width:0.5;"/>
     <text x="28.0" y="72.0" achars=".,§,t" style="fill:black;font-family:helvetica;font-size:10.0px;">.</text>
    </g>
    <g>
     <rect x="33.0" y="55.0" width="10.0" height="17.0" class="text" style="fill:none;stroke:red;stroke-width:0.5;"/>
     <text x="33.0" y="72.0" achars="s,5" style="fill:black;font-family:helvetica;font-size:10.0px;">s</text>
    </g>
    <g>
     <rect x="46.0" y="55.0" width="11.0" height="17.0" class="text" style="fill:none;stroke:red;stroke-width:0.5;"/>
     <text x="46.0" y="72.0" achars="o,O,0" style="fill:black;font-family:helvetica;font-size:10.0px;">o</text>
    </g>
    <rect x="58.0" y="53.0" width="6.0" height="22.0" class="space" style="fill:none;stroke:blue;stroke-width:0.5;"/>
    <g>
     <rect x="65.0" y="53.0" width="5.0" height="22.0" class="text" style="fill:none;stroke:red;stroke-width:0.5;"/>
     <text x="65.0" y="75.0" achars="(,c" style="fill:black;font-family:helvetica;font-size:10.0px;">(</text>
    </g>
    <g>
     <rect x="71.0" y="64.0" width="14.0" height="2.0" class="text" style="fill:none;stroke:red;stroke-width:0.5;"/>
     <text x="71.0" y="66.0" achars="" style="fill:black;font-family:helvetica;font-size:10.0px;">?</text>
    </g>
    <g>
     <rect x="87.0" y="55.0" width="11.0" height="17.0" class="text" style="fill:none;stroke:red;stroke-width:0.5;"/>
     <text x="87.0" y="72.0" achars="" style="fill:black;font-family:helvetica;font-size:10.0px;">?</text>
    </g>
    <g>
     <rect x="100.0" y="68.0" width="3.0" height="4.0" class="text" style="fill:none;stroke:red;stroke-width:0.5;"/>
     <text x="100.0" y="72.0" achars=".,§,t" style="fill:black;font-family:helvetica;font-size:10.0px;">.</text>
    </g>
    <g>
     <rect x="105.0" y="55.0" width="11.0" height="17.0" class="text" style="fill:none;stroke:red;stroke-width:0.5;"/>
     <text x="105.0" y="72.0" achars="o,O,0" style="fill:black;font-family:helvetica;font-size:10.0px;">o</text>
    </g>
    <g>
     <rect x="118.0" y="55.0" width="11.0" height="17.0" class="text" style="fill:none;stroke:red;stroke-width:0.5;"/>
     <text x="118.0" y="72.0" achars="2,l" style="fill:black;font-family:helvetica;font-size:10.0px;">2</text>
    </g>
    <g>
     <rect x="131.0" y="68.0" width="4.0" height="7.0" class="text" style="fill:none;stroke:red;stroke-width:0.5;"/>
     <text x="131.0" y="75.0" achars=",§l" style="fill:black;font-family:helvetica;font-size:10.0px;">,</text>
    </g>
    <rect x="136.0" y="55.0" width="6.0" height="17.0" class="space" style="fill:none;stroke:blue;stroke-width:0.5;"/>
    <g>
     <rect x="143.0" y="55.0" width="6.0" height="17.0" class="text" style="fill:none;stroke:red;stroke-width:0.5;"/>
     <text x="143.0" y="72.0" achars="1" style="fill:black;font-family:helvetica;font-size:10.0px;">1</text>
    </g>
    <rect x="150.0" y="54.0" width="4.0" height="18.0" class="space" style="fill:none;stroke:blue;stroke-width:0.5;"/>
    <g>
     <rect x="155.0" y="54.0" width="11.0" height="18.0" class="text" style="fill:none;stroke:red;stroke-width:0.5;"/>
     <text x="155.0" y="72.0" achars="o,O,0" style="fill:black;font-family:helvetica;font-size:10.0px;">o</text>
    </g>
    <g>
     <rect x="168.0" y="68.0" width="3.0" height="4.0" class="text" style="fill:none;stroke:red;stroke-width:0.5;"/>
     <text x="168.0" y="72.0" achars=".,§,t" style="fill:black;font-family:helvetica;font-size:10.0px;">.</text>
    </g>
    <g>
     <rect x="173.0" y="55.0" width="11.0" height="17.0" class="text" style="fill:none;stroke:red;stroke-width:0.5;"/>
     <text x="173.0" y="72.0" achars="o,O,0" style="fill:black;font-family:helvetica;font-size:10.0px;">o</text>
    </g>
    <g>
     <rect x="186.0" y="55.0" width="11.0" height="17.0" class="text" style="fill:none;stroke:red;stroke-width:0.5;"/>
     <text x="186.0" y="72.0" achars="2,l" style="fill:black;font-family:helvetica;font-size:10.0px;">2</text>
    </g>
    <g>
     <rect x="199.0" y="53.0" width="5.0" height="22.0" class="text" style="fill:none;stroke:red;stroke-width:0.5;"/>
     <text x="199.0" y="75.0" achars=")" style="fill:black;font-family:helvetica;font-size:10.0px;">)</text>
    </g>
    <rect x="205.0" y="55.0" width="10.0" height="17.0" class="space" style="fill:none;stroke:blue;stroke-width:0.5;"/>
    <rect x="229.0" y="55.0" width="10.0" height="17.0" class="space" style="fill:none;stroke:blue;stroke-width:0.5;"/>
    <rect x="262.0" y="55.0" width="7.0" height="17.0" class="space" style="fill:none;stroke:blue;stroke-width:0.5;"/>
    <rect x="293.0" y="55.0" width="3.0" height="17.0" class="space" style="fill:none;stroke:blue;stroke-width:0.5;"/>
    <rect x="315.0" y="55.0" width="1.0" height="17.0" class="space" style="fill:none;stroke:blue;stroke-width:0.5;"/>
    <rect x="329.0" y="55.0" width="-2.0" height="17.0" class="space" style="fill:none;stroke:blue;stroke-width:0.5;"/>
    <rect x="335.0" y="55.0" width="-3.0" height="17.0" class="space" style="fill:none;stroke:blue;stroke-width:0.5;"/>
    <rect x="337.0" y="55.0" width="-3.0" height="17.0" class="space" style="fill:none;stroke:blue;stroke-width:0.5;"/>
    <rect x="338.0" y="55.0" width="-3.0" height="17.0" class="space" style="fill:none;stroke:blue;stroke-width:0.5;"/>
    <g>
     <rect x="336.0" y="55.0" width="13.0" height="17.0" class="text" style="fill:none;stroke:red;stroke-width:0.5;"/>
     <text x="336.0" y="72.0" achars="4,9" style="fill:black;font-family:helvetica;font-size:10.0px;">4</text>
    </g>
    <g>
     <rect x="350.0" y="68.0" width="3.0" height="4.0" class="text" style="fill:none;stroke:red;stroke-width:0.5;"/>
     <text x="350.0" y="72.0" achars=".,§,t" style="fill:black;font-family:helvetica;font-size:10.0px;">.</text>
    </g>
    <g>
     <rect x="355.0" y="55.0" width="11.0" height="17.0" class="text" style="fill:none;stroke:red;stroke-width:0.5;"/>
     <text x="355.0" y="72.0" achars="5" style="fill:black;font-family:helvetica;font-size:10.0px;">5</text>
    </g>
    <g>
     <rect x="369.0" y="55.0" width="10.0" height="17.0" class="text" style="fill:none;stroke:red;stroke-width:0.5;"/>
     <text x="369.0" y="72.0" achars="7,J" style="fill:black;font-family:helvetica;font-size:10.0px;">7</text>
    </g>
   </g>
   <g class="line">
    <rect x="14.0" y="139.0" width="12.0" height="17.0" class="space" style="fill:none;stroke:blue;stroke-width:0.5;"/>
    <g>
     <rect x="14.0" y="139.0" width="12.0" height="17.0" class="text" style="fill:none;stroke:red;stroke-width:0.5;"/>
     <text x="14.0" y="156.0" achars="o,O,0" style="fill:black;font-family:helvetica;font-size:10.0px;">o</text>
    </g>
    <g>
     <rect x="28.0" y="152.0" width="3.0" height="4.0" class="text" style="fill:none;stroke:red;stroke-width:0.5;"/>
     <text x="28.0" y="156.0" achars=".,§,t" style="fill:black;font-family:helvetica;font-size:10.0px;">.</text>
    </g>
    <g>
     <rect x="33.0" y="139.0" width="11.0" height="17.0" class="text" style="fill:none;stroke:red;stroke-width:0.5;"/>
     <text x="33.0" y="156.0" achars="o,O,0" style="fill:black;font-family:helvetica;font-size:10.0px;">o</text>
    </g>
    <g>
     <rect x="46.0" y="139.0" width="11.0" height="17.0" class="text" style="fill:none;stroke:red;stroke-width:0.5;"/>
     <text x="46.0" y="156.0" achars="o,O,0" style="fill:black;font-family:helvetica;font-size:10.0px;">o</text>
    </g>
    <rect x="58.0" y="138.0" width="6.0" height="21.0" class="space" style="fill:none;stroke:blue;stroke-width:0.5;"/>
    <g>
     <rect x="65.0" y="138.0" width="5.0" height="21.0" class="text" style="fill:none;stroke:red;stroke-width:0.5;"/>
     <text x="65.0" y="159.0" achars="(,c,{" style="fill:black;font-family:helvetica;font-size:10.0px;">(</text>
    </g>
    <g>
     <rect x="71.0" y="148.0" width="14.0" height="2.0" class="text" style="fill:none;stroke:red;stroke-width:0.5;"/>
     <text x="71.0" y="150.0" achars="-" style="fill:black;font-family:helvetica;font-size:10.0px;">-</text>
    </g>
    <g>
     <rect x="87.0" y="139.0" width="10.0" height="17.0" class="text" style="fill:none;stroke:red;stroke-width:0.5;"/>
     <text x="87.0" y="156.0" achars="3" style="fill:black;font-family:helvetica;font-size:10.0px;">3</text>
    </g>
    <g>
     <rect x="100.0" y="153.0" width="3.0" height="3.0" class="text" style="fill:none;stroke:red;stroke-width:0.5;"/>
     <text x="100.0" y="156.0" achars=".,§" style="fill:black;font-family:helvetica;font-size:10.0px;">.</text>
    </g>
    <g>
     <rect x="105.0" y="139.0" width="11.0" height="17.0" class="text" style="fill:none;stroke:red;stroke-width:0.5;"/>
     <text x="105.0" y="156.0" achars="s,5" style="fill:black;font-family:helvetica;font-size:10.0px;">s</text>
    </g>
    <g>
     <rect x="118.0" y="139.0" width="11.0" height="17.0" class="text" style="fill:none;stroke:red;stroke-width:0.5;"/>
     <text x="118.0" y="156.0" achars="7,J" style="fill:black;font-family:helvetica;font-size:10.0px;">7</text>
    </g>
    <g>
     <rect x="130.0" y="152.0" width="5.0" height="7.0" class="text" style="fill:none;stroke:red;stroke-width:0.5;"/>
     <text x="130.0" y="159.0" achars=",§t,l" style="fill:black;font-family:helvetica;font-size:10.0px;">,</text>
    </g>
    <rect x="136.0" y="139.0" width="5.0" height="17.0" class="space" style="fill:none;stroke:blue;stroke-width:0.5;"/>
    <g>
     <rect x="142.0" y="139.0" width="10.0" height="17.0" class="text" style="fill:none;stroke:red;stroke-width:0.5;"/>
     <text x="142.0" y="156.0" achars="3" style="fill:black;font-family:helvetica;font-size:10.0px;">3</text>
    </g>
    <g>
     <rect x="155.0" y="152.0" width="3.0" height="4.0" class="text" style="fill:none;stroke:red;stroke-width:0.5;"/>
     <text x="155.0" y="156.0" achars=".,§,t" style="fill:black;font-family:helvetica;font-size:10.0px;">.</text>
    </g>
    <g>
     <rect x="160.0" y="139.0" width="11.0" height="17.0" class="text" style="fill:none;stroke:red;stroke-width:0.5;"/>
     <text x="160.0" y="156.0" achars="5" style="fill:black;font-family:helvetica;font-size:10.0px;">5</text>
    </g>
    <g>
     <rect x="173.0" y="139.0" width="11.0" height="17.0" class="text" style="fill:none;stroke:red;stroke-width:0.5;"/>
     <text x="173.0" y="156.0" achars="J,7" style="fill:black;font-family:helvetica;font-size:10.0px;">J</text>
    </g>
    <g>
     <rect x="186.0" y="138.0" width="5.0" height="21.0" class="text" style="fill:none;stroke:red;stroke-width:0.5;"/>
     <text x="186.0" y="159.0" achars=")" style="fill:black;font-family:helvetica;font-size:10.0px;">)</text>
    </g>
    <rect x="192.0" y="139.0" width="10.0" height="17.0" class="space" style="fill:none;stroke:blue;stroke-width:0.5;"/>
    <rect x="216.0" y="139.0" width="10.0" height="17.0" class="space" style="fill:none;stroke:blue;stroke-width:0.5;"/>
    <rect x="249.0" y="139.0" width="7.0" height="17.0" class="space" style="fill:none;stroke:blue;stroke-width:0.5;"/>
    <rect x="281.0" y="139.0" width="5.0" height="17.0" class="space" style="fill:none;stroke:blue;stroke-width:0.5;"/>
    <rect x="308.0" y="139.0" width="1.0" height="17.0" class="space" style="fill:none;stroke:blue;stroke-width:0.5;"/>
    <rect x="325.0" y="139.0" width="-1.0" height="17.0" class="space" style="fill:none;stroke:blue;stroke-width:0.5;"/>
    <rect x="334.0" y="139.0" width="-3.0" height="17.0" class="space" style="fill:none;stroke:blue;stroke-width:0.5;"/>
    <rect x="337.0" y="139.0" width="-3.0" height="17.0" class="space" style="fill:none;stroke:blue;stroke-width:0.5;"/>
    <rect x="339.0" y="139.0" width="-4.0" height="17.0" class="space" style="fill:none;stroke:blue;stroke-width:0.5;"/>
    <rect x="339.0" y="139.0" width="-3.0" height="17.0" class="space" style="fill:none;stroke:blue;stroke-width:0.5;"/>
    <g>
     <rect x="337.0" y="139.0" width="11.0" height="17.0" class="text" style="fill:none;stroke:red;stroke-width:0.5;"/>
     <text x="337.0" y="156.0" achars="3" style="fill:black;font-family:helvetica;font-size:10.0px;">3</text>
    </g>
    <g>
     <rect x="350.0" y="139.0" width="11.0" height="17.0" class="text" style="fill:none;stroke:red;stroke-width:0.5;"/>
     <text x="350.0" y="156.0" achars="2,l" style="fill:black;font-family:helvetica;font-size:10.0px;">2</text>
    </g>
    <g>
     <rect x="363.0" y="153.0" width="4.0" height="3.0" class="text" style="fill:none;stroke:red;stroke-width:0.5;"/>
     <text x="363.0" y="156.0" achars=".,§,_" style="fill:black;font-family:helvetica;font-size:10.0px;">.</text>
    </g>
    <g>
     <rect x="368.0" y="139.0" width="11.0" height="17.0" class="text" style="fill:none;stroke:red;stroke-width:0.5;"/>
     <text x="368.0" y="156.0" achars="5" style="fill:black;font-family:helvetica;font-size:10.0px;">5</text>
    </g>
    <g>
     <rect x="381.0" y="139.0" width="12.0" height="17.0" class="text" style="fill:none;stroke:red;stroke-width:0.5;"/>
     <text x="381.0" y="156.0" achars="8" style="fill:black;font-family:helvetica;font-size:10.0px;">8</text>
    </g>
   </g>
   <g class="line">
    <rect x="16.0" y="223.0" width="6.0" height="17.0" class="space" style="fill:none;stroke:blue;stroke-width:0.5;"/>
    <g>
     <rect x="16.0" y="223.0" width="6.0" height="17.0" class="text" style="fill:none;stroke:red;stroke-width:0.5;"/>
     <text x="16.0" y="240.0" achars="J,1" style="fill:black;font-family:helvetica;font-size:10.0px;">J</text>
    </g>
    <rect x="23.0" y="237.0" width="4.0" height="3.0" class="space" style="fill:none;stroke:blue;stroke-width:0.5;"/>
    <g>
     <rect x="28.0" y="237.0" width="3.0" height="3.0" class="text" style="fill:none;stroke:red;stroke-width:0.5;"/>
     <text x="28.0" y="240.0" achars=".,§" style="fill:black;font-family:helvetica;font-size:10.0px;">.</text>
    </g>
    <g>
     <rect x="35.0" y="223.0" width="5.0" height="17.0" class="text" style="fill:none;stroke:red;stroke-width:0.5;"/>
     <text x="35.0" y="240.0" achars="1" style="fill:black;font-family:helvetica;font-size:10.0px;">1</text>
    </g>
    <rect x="41.0" y="223.0" width="4.0" height="17.0" class="space" style="fill:none;stroke:blue;stroke-width:0.5;"/>
    <g>
     <rect x="46.0" y="223.0" width="11.0" height="17.0" class="text" style="fill:none;stroke:red;stroke-width:0.5;"/>
     <text x="46.0" y="240.0" achars="o,O,0,a" style="fill:black;font-family:helvetica;font-size:10.0px;">o</text>
    </g>
    <rect x="58.0" y="222.0" width="6.0" height="21.0" class="space" style="fill:none;stroke:blue;stroke-width:0.5;"/>
    <g>
     <rect x="65.0" y="222.0" width="5.0" height="21.0" class="text" style="fill:none;stroke:red;stroke-width:0.5;"/>
     <text x="65.0" y="243.0" achars="(,c" style="fill:black;font-family:helvetica;font-size:10.0px;">(</text>
    </g>
    <g>
     <rect x="71.0" y="232.0" width="14.0" height="2.0" class="text" style="fill:none;stroke:red;stroke-width:0.5;"/>
     <text x="71.0" y="234.0" achars="-" style="fill:black;font-family:helvetica;font-size:10.0px;">-</text>
    </g>
    <g>
     <rect x="88.0" y="223.0" width="6.0" height="17.0" class="text" style="fill:none;stroke:red;stroke-width:0.5;"/>
     <text x="88.0" y="240.0" achars="1" style="fill:black;font-family:helvetica;font-size:10.0px;">1</text>
    </g>
    <rect x="95.0" y="237.0" width="4.0" height="3.0" class="space" style="fill:none;stroke:blue;stroke-width:0.5;"/>
    <g>
     <rect x="100.0" y="237.0" width="3.0" height="3.0" class="text" style="fill:none;stroke:red;stroke-width:0.5;"/>
     <text x="100.0" y="240.0" achars=".,§" style="fill:black;font-family:helvetica;font-size:10.0px;">.</text>
    </g>
    <g>
     <rect x="105.0" y="223.0" width="11.0" height="17.0" class="text" style="fill:none;stroke:red;stroke-width:0.5;"/>
     <text x="105.0" y="240.0" achars="5" style="fill:black;font-family:helvetica;font-size:10.0px;">5</text>
    </g>
    <g>
     <rect x="118.0" y="223.0" width="11.0" height="17.0" class="text" style="fill:none;stroke:red;stroke-width:0.5;"/>
     <text x="118.0" y="240.0" achars="6" style="fill:black;font-family:helvetica;font-size:10.0px;">6</text>
    </g>
    <g>
     <rect x="131.0" y="236.0" width="3.0" height="7.0" class="text" style="fill:none;stroke:red;stroke-width:0.5;"/>
     <text x="131.0" y="243.0" achars=",§l" style="fill:black;font-family:helvetica;font-size:10.0px;">,</text>
    </g>
    <rect x="135.0" y="223.0" width="6.0" height="17.0" class="space" style="fill:none;stroke:blue;stroke-width:0.5;"/>
    <g>
     <rect x="142.0" y="223.0" width="10.0" height="17.0" class="text" style="fill:none;stroke:red;stroke-width:0.5;"/>
     <text x="142.0" y="240.0" achars="3" style="fill:black;font-family:helvetica;font-size:10.0px;">3</text>
    </g>
    <g>
     <rect x="155.0" y="237.0" width="3.0" height="3.0" class="text" style="fill:none;stroke:red;stroke-width:0.5;"/>
     <text x="155.0" y="240.0" achars=".,§" style="fill:black;font-family:helvetica;font-size:10.0px;">.</text>
    </g>
    <g>
     <rect x="160.0" y="223.0" width="11.0" height="17.0" class="text" style="fill:none;stroke:red;stroke-width:0.5;"/>
     <text x="160.0" y="240.0" achars="J,7" style="fill:black;font-family:helvetica;font-size:10.0px;">J</text>
    </g>
    <g>
     <rect x="173.0" y="223.0" width="11.0" height="17.0" class="text" style="fill:none;stroke:red;stroke-width:0.5;"/>
     <text x="173.0" y="240.0" achars="6" style="fill:black;font-family:helvetica;font-size:10.0px;">6</text>
    </g>
    <g>
     <rect x="186.0" y="222.0" width="5.0" height="21.0" class="text" style="fill:none;stroke:red;stroke-width:0.5;"/>
     <text x="186.0" y="243.0" achars=")" style="fill:black;font-family:helvetica;font-size:10.0px;">)</text>
    </g>
    <rect x="192.0" y="223.0" width="10.0" height="17.0" class="space" style="fill:none;stroke:blue;stroke-width:0.5;"/>
    <rect x="216.0" y="223.0" width="10.0" height="17.0" class="space" style="fill:none;stroke:blue;stroke-width:0.5;"/>
    <rect x="249.0" y="223.0" width="7.0" height="17.0" class="space" style="fill:none;stroke:blue;stroke-width:0.5;"/>
    <rect x="281.0" y="223.0" width="5.0" height="17.0" class="space" style="fill:none;stroke:blue;stroke-width:0.5;"/>
    <rect x="308.0" y="223.0" width="1.0" height="17.0" class="space" style="fill:none;stroke:blue;stroke-width:0.5;"/>
    <rect x="325.0" y="223.0" width="-1.0" height="17.0" class="space" style="fill:none;stroke:blue;stroke-width:0.5;"/>
    <rect x="334.0" y="223.0" width="-3.0" height="17.0" class="space" style="fill:none;stroke:blue;stroke-width:0.5;"/>
    <rect x="337.0" y="223.0" width="-3.0" height="17.0" class="space" style="fill:none;stroke:blue;stroke-width:0.5;"/>
    <rect x="339.0" y="223.0" width="-4.0" height="17.0" class="space" style="fill:none;stroke:blue;stroke-width:0.5;"/>
    <rect x="339.0" y="223.0" width="-3.0" height="17.0" class="space" style="fill:none;stroke:blue;stroke-width:0.5;"/>
    <g>
     <rect x="337.0" y="223.0" width="11.0" height="17.0" class="text" style="fill:none;stroke:red;stroke-width:0.5;"/>
     <text x="337.0" y="240.0" achars="5" style="fill:black;font-family:helvetica;font-size:10.0px;">5</text>
    </g>
    <g>
     <rect x="350.0" y="223.0" width="11.0" height="17.0" class="text" style="fill:none;stroke:red;stroke-width:0.5;"/>
     <text x="350.0" y="240.0" achars="8" style="fill:black;font-family:helvetica;font-size:10.0px;">8</text>
    </g>
    <g>
     <rect x="363.0" y="237.0" width="4.0" height="3.0" class="text" style="fill:none;stroke:red;stroke-width:0.5;"/>
     <text x="363.0" y="240.0" achars=".,§,_" style="fill:black;font-family:helvetica;font-size:10.0px;">.</text>
    </g>
    <g>
     <rect x="368.0" y="223.0" width="12.0" height="17.0" class="text" style="fill:none;stroke:red;stroke-width:0.5;"/>
     <text x="368.0" y="240.0" achars="" style="fill:black;font-family:helvetica;font-size:10.0px;">?</text>
    </g>
    <g>
     <rect x="381.0" y="223.0" width="11.0" height="17.0" class="text" style="fill:none;stroke:red;stroke-width:0.5;"/>
     <text x="381.0" y="240.0" achars="2,l" style="fill:black;font-family:helvetica;font-size:10.0px;">2</text>
    </g>
   </g>
   <g class="line">
    <rect x="16.0" y="308.0" width="6.0" height="17.0" class="space" style="fill:none;stroke:blue;stroke-width:0.5;"/>
    <g>
     <rect x="16.0" y="308.0" width="6.0" height="17.0" class="text" style="fill:none;stroke:red;stroke-width:0.5;"/>
     <text x="16.0" y="325.0" achars="1" style="fill:black;font-family:helvetica;font-size:10.0px;">1</text>
    </g>
    <rect x="23.0" y="321.0" width="4.0" height="4.0" class="space" style="fill:none;stroke:blue;stroke-width:0.5;"/>
    <g>
     <rect x="28.0" y="321.0" width="3.0" height="4.0" class="text" style="fill:none;stroke:red;stroke-width:0.5;"/>
     <text x="28.0" y="325.0" achars=".,§,t" style="fill:black;font-family:helvetica;font-size:10.0px;">.</text>
    </g>
    <g>
     <rect x="33.0" y="308.0" width="10.0" height="17.0" class="text" style="fill:none;stroke:red;stroke-width:0.5;"/>
     <text x="33.0" y="325.0" achars="s,5" style="fill:black;font-family:helvetica;font-size:10.0px;">s</text>
    </g>
    <g>
     <rect x="46.0" y="308.0" width="11.0" height="17.0" class="text" style="fill:none;stroke:red;stroke-width:0.5;"/>
     <text x="46.0" y="325.0" achars="o,O,0" style="fill:black;font-family:helvetica;font-size:10.0px;">o</text>
    </g>
    <rect x="58.0" y="307.0" width="6.0" height="21.0" class="space" style="fill:none;stroke:blue;stroke-width:0.5;"/>
    <g>
     <rect x="65.0" y="307.0" width="5.0" height="21.0" class="text" style="fill:none;stroke:red;stroke-width:0.5;"/>
     <text x="65.0" y="328.0" achars="(,c" style="fill:black;font-family:helvetica;font-size:10.0px;">(</text>
    </g>
    <g>
     <rect x="71.0" y="317.0" width="14.0" height="2.0" class="text" style="fill:none;stroke:red;stroke-width:0.5;"/>
     <text x="71.0" y="319.0" achars="-" style="fill:black;font-family:helvetica;font-size:10.0px;">-</text>
    </g>
    <g>
     <rect x="87.0" y="308.0" width="11.0" height="17.0" class="text" style="fill:none;stroke:red;stroke-width:0.5;"/>
     <text x="87.0" y="325.0" achars="8" style="fill:black;font-family:helvetica;font-size:10.0px;">8</text>
    </g>
    <g>
     <rect x="100.0" y="321.0" width="3.0" height="4.0" class="text" style="fill:none;stroke:red;stroke-width:0.5;"/>
     <text x="100.0" y="325.0" achars=".,§,t" style="fill:black;font-family:helvetica;font-size:10.0px;">.</text>
    </g>
    <g>
     <rect x="105.0" y="308.0" width="11.0" height="17.0" class="text" style="fill:none;stroke:red;stroke-width:0.5;"/>
     <text x="105.0" y="325.0" achars="3" style="fill:black;font-family:helvetica;font-size:10.0px;">3</text>
    </g>
    <g>
     <rect x="118.0" y="308.0" width="11.0" height="17.0" class="text" style="fill:none;stroke:red;stroke-width:0.5;"/>
     <text x="118.0" y="325.0" achars="9,g" style="fill:black;font-family:helvetica;font-size:10.0px;">9</text>
    </g>
    <g>
     <rect x="131.0" y="321.0" width="4.0" height="7.0" class="text" style="fill:none;stroke:red;stroke-width:0.5;"/>
     <text x="131.0" y="328.0" achars=",§t,l" style="fill:black;font-family:helvetica;font-size:10.0px;">,</text>
    </g>
    <rect x="136.0" y="308.0" width="6.0" height="17.0" class="space" style="fill:none;stroke:blue;stroke-width:0.5;"/>
    <g>
     <rect x="143.0" y="308.0" width="6.0" height="17.0" class="text" style="fill:none;stroke:red;stroke-width:0.5;"/>
     <text x="143.0" y="325.0" achars="1" style="fill:black;font-family:helvetica;font-size:10.0px;">1</text>
    </g>
    <rect x="150.0" y="308.0" width="6.0" height="17.0" class="space" style="fill:none;stroke:blue;stroke-width:0.5;"/>
    <g>
     <rect x="157.0" y="308.0" width="5.0" height="17.0" class="text" style="fill:none;stroke:red;stroke-width:0.5;"/>
     <text x="157.0" y="325.0" achars="1" style="fill:black;font-family:helvetica;font-size:10.0px;">1</text>
    </g>
    <rect x="163.0" y="321.0" width="4.0" height="4.0" class="space" style="fill:none;stroke:blue;stroke-width:0.5;"/>
    <g>
     <rect x="168.0" y="321.0" width="3.0" height="4.0" class="text" style="fill:none;stroke:red;stroke-width:0.5;"/>
     <text x="168.0" y="325.0" achars=".,§,t" style="fill:black;font-family:helvetica;font-size:10.0px;">.</text>
    </g>
    <g>
     <rect x="173.0" y="308.0" width="11.0" height="17.0" class="text" style="fill:none;stroke:red;stroke-width:0.5;"/>
     <text x="173.0" y="325.0" achars="3" style="fill:black;font-family:helvetica;font-size:10.0px;">3</text>
    </g>
    <g>
     <rect x="186.0" y="308.0" width="12.0" height="17.0" class="text" style="fill:none;stroke:red;stroke-width:0.5;"/>
     <text x="186.0" y="325.0" achars="9,g" style="fill:black;font-family:helvetica;font-size:10.0px;">9</text>
    </g>
    <g>
     <rect x="199.0" y="307.0" width="5.0" height="21.0" class="text" style="fill:none;stroke:red;stroke-width:0.5;"/>
     <text x="199.0" y="328.0" achars=")" style="fill:black;font-family:helvetica;font-size:10.0px;">)</text>
    </g>
    <rect x="205.0" y="308.0" width="10.0" height="17.0" class="space" style="fill:none;stroke:blue;stroke-width:0.5;"/>
    <rect x="229.0" y="308.0" width="10.0" height="17.0" class="space" style="fill:none;stroke:blue;stroke-width:0.5;"/>
    <rect x="262.0" y="308.0" width="7.0" height="17.0" class="space" style="fill:none;stroke:blue;stroke-width:0.5;"/>
    <rect x="293.0" y="308.0" width="3.0" height="17.0" class="space" style="fill:none;stroke:blue;stroke-width:0.5;"/>
    <rect x="315.0" y="308.0" width="1.0" height="17.0" class="space" style="fill:none;stroke:blue;stroke-width:0.5;"/>
    <rect x="329.0" y="308.0" width="-2.0" height="17.0" class="space" style="fill:none;stroke:blue;stroke-width:0.5;"/>
    <rect x="335.0" y="308.0" width="-3.0" height="17.0" class="space" style="fill:none;stroke:blue;stroke-width:0.5;"/>
    <rect x="337.0" y="308.0" width="-3.0" height="17.0" class="space" style="fill:none;stroke:blue;stroke-width:0.5;"/>
    <rect x="338.0" y="308.0" width="-3.0" height="17.0" class="space" style="fill:none;stroke:blue;stroke-width:0.5;"/>
    <g>
     <rect x="336.0" y="308.0" width="13.0" height="17.0" class="text" style="fill:none;stroke:red;stroke-width:0.5;"/>
     <text x="336.0" y="325.0" achars="4,9" style="fill:black;font-family:helvetica;font-size:10.0px;">4</text>
    </g>
    <g>
     <rect x="350.0" y="322.0" width="4.0" height="3.0" class="text" style="fill:none;stroke:red;stroke-width:0.5;"/>
     <text x="350.0" y="325.0" achars=".,§,_" style="fill:black;font-family:helvetica;font-size:10.0px;">.</text>
    </g>
    <g>
     <rect x="355.0" y="308.0" width="11.0" height="17.0" class="text" style="fill:none;stroke:red;stroke-width:0.5;"/>
     <text x="355.0" y="325.0" achars="2,l" style="fill:black;font-family:helvetica;font-size:10.0px;">2</text>
    </g>
    <g>
     <rect x="368.0" y="308.0" width="11.0" height="17.0" class="text" style="fill:none;stroke:red;stroke-width:0.5;"/>
     <text x="368.0" y="325.0" achars="3" style="fill:black;font-family:helvetica;font-size:10.0px;">3</text>
    </g>
   </g>
   <g class="line">
    <rect x="14.0" y="392.0" width="12.0" height="17.0" class="space" style="fill:none;stroke:blue;stroke-width:0.5;"/>
    <g>
     <rect x="14.0" y="392.0" width="12.0" height="17.0" class="text" style="fill:none;stroke:red;stroke-width:0.5;"/>
     <text x="14.0" y="409.0" achars="o,O,0" style="fill:black;font-family:helvetica;font-size:10.0px;">o</text>
    </g>
    <g>
     <rect x="28.0" y="406.0" width="3.0" height="3.0" class="text" style="fill:none;stroke:red;stroke-width:0.5;"/>
     <text x="28.0" y="409.0" achars=".,§" style="fill:black;font-family:helvetica;font-size:10.0px;">.</text>
    </g>
    <g>
     <rect x="33.0" y="392.0" width="11.0" height="17.0" class="text" style="fill:none;stroke:red;stroke-width:0.5;"/>
     <text x="33.0" y="409.0" achars="7,J" style="fill:black;font-family:helvetica;font-size:10.0px;">7</text>
    </g>
    <g>
     <rect x="46.0" y="392.0" width="10.0" height="17.0" class="text" style="fill:none;stroke:red;stroke-width:0.5;"/>
     <text x="46.0" y="409.0" achars="3" style="fill:black;font-family:helvetica;font-size:10.0px;">3</text>
    </g>
    <g>
     <rect x="65.0" y="391.0" width="5.0" height="21.0" class="text" style="fill:none;stroke:red;stroke-width:0.5;"/>
     <text x="65.0" y="412.0" achars="(,c" style="fill:black;font-family:helvetica;font-size:10.0px;">(</text>
    </g>
    <g>
     <rect x="71.0" y="401.0" width="14.0" height="2.0" class="text" style="fill:none;stroke:red;stroke-width:0.5;"/>
     <text x="71.0" y="403.0" achars="-" style="fill:black;font-family:helvetica;font-size:10.0px;">-</text>
    </g>
    <g>
     <rect x="88.0" y="392.0" width="6.0" height="17.0" class="text" style="fill:none;stroke:red;stroke-width:0.5;"/>
     <text x="88.0" y="409.0" achars="1" style="fill:black;font-family:helvetica;font-size:10.0px;">1</text>
    </g>
    <g>
     <rect x="100.0" y="406.0" width="3.0" height="3.0" class="text" style="fill:none;stroke:red;stroke-width:0.5;"/>
     <text x="100.0" y="409.0" achars=".,§" style="fill:black;font-family:helvetica;font-size:10.0px;">.</text>
    </g>
    <g>
     <rect x="105.0" y="392.0" width="10.0" height="17.0" class="text" style="fill:none;stroke:red;stroke-width:0.5;"/>
     <text x="105.0" y="409.0" achars="3" style="fill:black;font-family:helvetica;font-size:10.0px;">3</text>
    </g>
    <g>
     <rect x="118.0" y="392.0" width="11.0" height="17.0" class="text" style="fill:none;stroke:red;stroke-width:0.5;"/>
     <text x="118.0" y="409.0" achars="o,O,0,a" style="fill:black;font-family:helvetica;font-size:10.0px;">o</text>
    </g>
    <g>
     <rect x="130.0" y="405.0" width="5.0" height="7.0" class="text" style="fill:none;stroke:red;stroke-width:0.5;"/>
     <text x="130.0" y="412.0" achars=",§t,l" style="fill:black;font-family:helvetica;font-size:10.0px;">,</text>
    </g>
    <g>
     <rect x="142.0" y="392.0" width="11.0" height="17.0" class="text" style="fill:none;stroke:red;stroke-width:0.5;"/>
     <text x="142.0" y="409.0" achars="2,l" style="fill:black;font-family:helvetica;font-size:10.0px;">2</text>
    </g>
    <g>
     <rect x="155.0" y="406.0" width="3.0" height="3.0" class="text" style="fill:none;stroke:red;stroke-width:0.5;"/>
     <text x="155.0" y="409.0" achars=".,§" style="fill:black;font-family:helvetica;font-size:10.0px;">.</text>
    </g>
    <g>
     <rect x="160.0" y="392.0" width="11.0" height="17.0" class="text" style="fill:none;stroke:red;stroke-width:0.5;"/>
     <text x="160.0" y="409.0" achars="7,J" style="fill:black;font-family:helvetica;font-size:10.0px;">7</text>
    </g>
    <g>
     <rect x="173.0" y="392.0" width="11.0" height="17.0" class="text" style="fill:none;stroke:red;stroke-width:0.5;"/>
     <text x="173.0" y="409.0" achars="J,7" style="fill:black;font-family:helvetica;font-size:10.0px;">J</text>
    </g>
    <g>
     <rect x="186.0" y="391.0" width="5.0" height="21.0" class="text" style="fill:none;stroke:red;stroke-width:0.5;"/>
     <text x="186.0" y="412.0" achars=")" style="fill:black;font-family:helvetica;font-size:10.0px;">)</text>
    </g>
    <rect x="192.0" y="392.0" width="9.0" height="17.0" class="space" style="fill:none;stroke:blue;stroke-width:0.5;"/>
    <rect x="214.0" y="392.0" width="9.0" height="17.0" class="space" style="fill:none;stroke:blue;stroke-width:0.5;"/>
    <rect x="245.0" y="392.0" width="7.0" height="17.0" class="space" style="fill:none;stroke:blue;stroke-width:0.5;"/>
    <rect x="277.0" y="392.0" width="4.0" height="17.0" class="space" style="fill:none;stroke:blue;stroke-width:0.5;"/>
    <rect x="303.0" y="392.0" width="2.0" height="17.0" class="space" style="fill:none;stroke:blue;stroke-width:0.5;"/>
    <rect x="322.0" y="392.0" width="-1.0" height="17.0" class="space" style="fill:none;stroke:blue;stroke-width:0.5;"/>
    <rect x="332.0" y="392.0" width="-2.0" height="17.0" class="space" style="fill:none;stroke:blue;stroke-width:0.5;"/>
    <rect x="338.0" y="392.0" width="-3.0" height="17.0" class="space" style="fill:none;stroke:blue;stroke-width:0.5;"/>
    <rect x="340.0" y="392.0" width="-4.0" height="17.0" class="space" style="fill:none;stroke:blue;stroke-width:0.5;"/>
    <rect x="341.0" y="392.0" width="-4.0" height="17.0" class="space" style="fill:none;stroke:blue;stroke-width:0.5;"/>
    <rect x="341.0" y="392.0" width="-3.0" height="17.0" class="space" style="fill:none;stroke:blue;stroke-width:0.5;"/>
    <g>
     <rect x="339.0" y="392.0" width="5.0" height="17.0" class="text" style="fill:none;stroke:red;stroke-width:0.5;"/>
     <text x="339.0" y="409.0" achars="1" style="fill:black;font-family:helvetica;font-size:10.0px;">1</text>
    </g>
    <g>
     <rect x="350.0" y="392.0" width="11.0" height="17.0" class="text" style="fill:none;stroke:red;stroke-width:0.5;"/>
     <text x="350.0" y="409.0" achars="o,O,0" style="fill:black;font-family:helvetica;font-size:10.0px;">o</text>
    </g>
    <g>
     <rect x="363.0" y="392.0" width="11.0" height="17.0" class="text" style="fill:none;stroke:red;stroke-width:0.5;"/>
     <text x="363.0" y="409.0" achars="o,O,0,a" style="fill:black;font-family:helvetica;font-size:10.0px;">o</text>
    </g>
    <g>
     <rect x="376.0" y="406.0" width="4.0" height="3.0" class="text" style="fill:none;stroke:red;stroke-width:0.5;"/>
     <text x="376.0" y="409.0" achars=".,§,_" style="fill:black;font-family:helvetica;font-size:10.0px;">.</text>
    </g>
    <g>
     <rect x="381.0" y="392.0" width="12.0" height="17.0" class="text" style="fill:none;stroke:red;stroke-width:0.5;"/>
     <text x="381.0" y="409.0" achars="o,O,0" style="fill:black;font-family:helvetica;font-size:10.0px;">o</text>
    </g>
    <g>
     <rect x="394.0" y="392.0" width="12.0" height="17.0" class="text" style="fill:none;stroke:red;stroke-width:0.5;"/>
     <text x="394.0" y="409.0" achars="o,O,0" style="fill:black;font-family:helvetica;font-size:10.0px;">o</text>
    </g>
   </g>
  </g>
 </g>
</svg>
