<?xml version="1.0" encoding="UTF-8"?>
<svg height="258.0" width="1402.0" xmlns="http://www.w3.org/2000/svg">
 <g class="page">
  <g class="block">
   <g class="line">
    <rect x="21.0" y="247.0" width="675.0" height="1.0" class="space" style="fill:none;stroke:blue;stroke-width:0.5;"/>
    <g>
     <rect x="21.0" y="247.0" width="675.0" height="1.0" class="text" style="fill:none;stroke:red;stroke-width:0.5;"/>
     <text x="21.0" y="248.0" achars="" style="fill:black;font-family:helvetica;font-size:10.0px;">?</text>
    </g>
    <g>
     <rect x="96.0" y="87.0" width="14.0" height="22.0" class="text" style="fill:none;stroke:red;stroke-width:0.5;"/>
     <text x="96.0" y="109.0" achars="y" style="fill:black;font-family:helvetica;font-size:10.0px;">y</text>
    </g>
    <rect x="111.0" y="246.0" width="12.0" height="2.0" class="space" style="fill:none;stroke:blue;stroke-width:0.5;"/>
    <rect x="140.0" y="246.0" width="12.0" height="2.0" class="space" style="fill:none;stroke:blue;stroke-width:0.5;"/>
    <rect x="184.0" y="246.0" width="11.0" height="2.0" class="space" style="fill:none;stroke:blue;stroke-width:0.5;"/>
    <rect x="239.0" y="246.0" width="10.0" height="2.0" class="space" style="fill:none;stroke:blue;stroke-width:0.5;"/>
    <rect x="301.0" y="246.0" width="9.0" height="2.0" class="space" style="fill:none;stroke:blue;stroke-width:0.5;"/>
    <rect x="367.0" y="246.0" width="7.0" height="2.0" class="space" style="fill:none;stroke:blue;stroke-width:0.5;"/>
    <rect x="431.0" y="246.0" width="6.0" height="2.0" class="space" style="fill:none;stroke:blue;stroke-width:0.5;"/>
    <rect x="492.0" y="246.0" width="3.0" height="2.0" class="space" style="fill:none;stroke:blue;stroke-width:0.5;"/>
    <rect x="544.0" y="246.0" width="3.0" height="2.0" class="space" style="fill:none;stroke:blue;stroke-width:0.5;"/>
    <rect x="590.0" y="246.0" width="0.0" height="2.0" class="space" style="fill:none;stroke:blue;stroke-width:0.5;"/>
    <rect x="625.0" y="246.0" width="0.0" height="2.0" class="space" style="fill:none;stroke:blue;stroke-width:0.5;"/>
    <rect x="653.0" y="246.0" width="-1.0" height="2.0" class="space" style="fill:none;stroke:blue;stroke-width:0.5;"/>
    <rect x="674.0" y="246.0" width="-3.0" height="2.0" class="space" style="fill:none;stroke:blue;stroke-width:0.5;"/>
    <rect x="687.0" y="246.0" width="-2.0" height="2.0" class="space" style="fill:none;stroke:blue;stroke-width:0.5;"/>
    <rect x="697.0" y="246.0" width="-3.0" height="2.0" class="space" style="fill:none;stroke:blue;stroke-width:0.5;"/>
    <rect x="703.0" y="246.0" width="-3.0" height="2.0" class="space" style="fill:none;stroke:blue;stroke-width:0.5;"/>
    <rect x="707.0" y="246.0" width="-3.0" height="2.0" class="space" style="fill:none;stroke:blue;stroke-width:0.5;"/>
    <rect x="710.0" y="246.0" width="-4.0" height="2.0" class="space" style="fill:none;stroke:blue;stroke-width:0.5;"/>
    <rect x="711.0" y="246.0" width="-4.0" height="2.0" class="space" style="fill:none;stroke:blue;stroke-width:0.5;"/>
    <rect x="712.0" y="246.0" width="-4.0" height="2.0" class="space" style="fill:none;stroke:blue;stroke-width:0.5;"/>
    <rect x="712.0" y="246.0" width="-3.0" height="2.0" class="space" style="fill:none;stroke:blue;stroke-width:0.5;"/>
    <rect x="713.0" y="246.0" width="-4.0" height="2.0" class="space" style="fill:none;stroke:blue;stroke-width:0.5;"/>
    <rect x="713.0" y="246.0" width="-4.0" height="2.0" class="space" style="fill:none;stroke:blue;stroke-width:0.5;"/>
    <rect x="713.0" y="246.0" width="-3.0" height="2.0" class="space" style="fill:none;stroke:blue;stroke-width:0.5;"/>
    <rect x="714.0" y="246.0" width="-4.0" height="2.0" class="space" style="fill:none;stroke:blue;stroke-width:0.5;"/>
    <rect x="714.0" y="246.0" width="-4.0" height="2.0" class="space" style="fill:none;stroke:blue;stroke-width:0.5;"/>
    <rect x="714.0" y="246.0" width="-4.0" height="2.0" class="space" style="fill:none;stroke:blue;stroke-width:0.5;"/>
    <rect x="714.0" y="246.0" width="-4.0" height="2.0" class="space" style="fill:none;stroke:blue;stroke-width:0.5;"/>
    <rect x="714.0" y="246.0" width="-3.0" height="2.0" class="space" style="fill:none;stroke:blue;stroke-width:0.5;"/>
    <rect x="715.0" y="246.0" width="-4.0" height="2.0" class="space" style="fill:none;stroke:blue;stroke-width:0.5;"/>
    <rect x="715.0" y="246.0" width="-4.0" height="2.0" class="space" style="fill:none;stroke:blue;stroke-width:0.5;"/>
    <rect x="715.0" y="246.0" width="-4.0" height="2.0" class="space" style="fill:none;stroke:blue;stroke-width:0.5;"/>
    <rect x="715.0" y="246.0" width="-4.0" height="2.0" class="space" style="fill:none;stroke:blue;stroke-width:0.5;"/>
    <rect x="715.0" y="246.0" width="-4.0" height="2.0" class="space" style="fill:none;stroke:blue;stroke-width:0.5;"/>
    <rect x="715.0" y="246.0" width="-4.0" height="2.0" class="space" style="fill:none;stroke:blue;stroke-width:0.5;"/>
    <rect x="715.0" y="246.0" width="-3.0" height="2.0" class="space" style="fill:none;stroke:blue;stroke-width:0.5;"/>
    <g>
     <rect x="713.0" y="246.0" width="679.0" height="2.0" class="text" style="fill:none;stroke:red;stroke-width:0.5;"/>
     <text x="713.0" y="248.0" achars="" style="fill:black;font-family:helvetica;font-size:10.0px;">?</text>
    </g>
   </g>
   <g class="line">
    <rect x="38.0" y="81.0" width="13.0" height="22.0" class="space" style="fill:none;stroke:blue;stroke-width:0.5;"/>
    <g>
     <rect x="38.0" y="81.0" width="13.0" height="22.0" class="text" style="fill:none;stroke:red;stroke-width:0.5;"/>
     <text x="38.0" y="103.0" achars="S,5" style="fill:black;font-family:helvetica;font-size:10.0px;">S</text>
    </g>
    <g>
     <rect x="52.0" y="83.0" width="9.0" height="20.0" class="text" style="fill:none;stroke:red;stroke-width:0.5;"/>
     <text x="52.0" y="103.0" achars="t" style="fill:black;font-family:helvetica;font-size:10.0px;">t</text>
    </g>
    <g>
     <rect x="64.0" y="87.0" width="13.0" height="16.0" class="text" style="fill:none;stroke:red;stroke-width:0.5;"/>
     <text x="64.0" y="103.0" achars="u" style="fill:black;font-family:helvetica;font-size:10.0px;">u</text>
    </g>
    <g>
     <rect x="80.0" y="80.0" width="14.0" height="23.0" class="text" style="fill:none;stroke:red;stroke-width:0.5;"/>
     <text x="80.0" y="103.0" achars="d" style="fill:black;font-family:helvetica;font-size:10.0px;">d</text>
    </g>
    <rect x="95.0" y="82.0" width="12.0" height="12.0" class="space" style="fill:none;stroke:blue;stroke-width:0.5;"/>
    <rect x="124.0" y="82.0" width="12.0" height="12.0" class="space" style="fill:none;stroke:blue;stroke-width:0.5;"/>
    <rect x="169.0" y="82.0" width="12.0" height="12.0" class="space" style="fill:none;stroke:blue;stroke-width:0.5;"/>
    <rect x="228.0" y="82.0" width="11.0" height="12.0" class="space" style="fill:none;stroke:blue;stroke-width:0.5;"/>
    <rect x="298.0" y="82.0" width="10.0" height="12.0" class="space" style="fill:none;stroke:blue;stroke-width:0.5;"/>
    <rect x="376.0" y="82.0" width="10.0" height="12.0" class="space" style="fill:none;stroke:blue;stroke-width:0.5;"/>
    <rect x="461.0" y="82.0" width="8.0" height="12.0" class="space" style="fill:none;stroke:blue;stroke-width:0.5;"/>
    <rect x="548.0" y="82.0" width="7.0" height="12.0" class="space" style="fill:none;stroke:blue;stroke-width:0.5;"/>
    <rect x="635.0" y="82.0" width="6.0" height="12.0" class="space" style="fill:none;stroke:blue;stroke-width:0.5;"/>
    <rect x="719.0" y="82.0" width="5.0" height="12.0" class="space" style="fill:none;stroke:blue;stroke-width:0.5;"/>
    <rect x="799.0" y="82.0" width="3.0" height="12.0" class="space" style="fill:none;stroke:blue;stroke-width:0.5;"/>
    <rect x="871.0" y="82.0" width="3.0" height="12.0" class="space" style="fill:none;stroke:blue;stroke-width:0.5;"/>
    <rect x="937.0" y="82.0" width="1.0" height="12.0" class="space" style="fill:none;stroke:blue;stroke-width:0.5;"/>
    <rect x="994.0" y="82.0" width="0.0" height="12.0" class="space" style="fill:none;stroke:blue;stroke-width:0.5;"/>
    <rect x="1043.0" y="82.0" width="-1.0" height="12.0" class="space" style="fill:none;stroke:blue;stroke-width:0.5;"/>
    <rect x="1084.0" y="82.0" width="-2.0" height="12.0" class="space" style="fill:none;stroke:blue;stroke-width:0.5;"/>
    <rect x="1117.0" y="82.0" width="-2.0" height="12.0" class="space" style="fill:none;stroke:blue;stroke-width:0.5;"/>
    <rect x="1144.0" y="82.0" width="-3.0" height="12.0" class="space" style="fill:none;stroke:blue;stroke-width:0.5;"/>
    <rect x="1165.0" y="82.0" width="-3.0" height="12.0" class="space" style="fill:none;stroke:blue;stroke-width:0.5;"/>
    <rect x="1181.0" y="82.0" width="-3.0" height="12.0" class="space" style="fill:none;stroke:blue;stroke-width:0.5;"/>
    <rect x="1193.0" y="82.0" width="-3.0" height="12.0" class="space" style="fill:none;stroke:blue;stroke-width:0.5;"/>
    <rect x="1202.0" y="82.0" width="-3.0" height="12.0" class="space" style="fill:none;stroke:blue;stroke-width:0.5;"/>
    <rect x="1209.0" y="82.0" width="-4.0" height="12.0" class="space" style="fill:none;stroke:blue;stroke-width:0.5;"/>
    <rect x="1213.0" y="82.0" width="-3.0" height="12.0" class="space" style="fill:none;stroke:blue;stroke-width:0.5;"/>
    <rect x="1217.0" y="82.0" width="-4.0" height="12.0" class="space" style="fill:none;stroke:blue;stroke-width:0.5;"/>
    <rect x="1219.0" y="82.0" width="-4.0" height="12.0" class="space" style="fill:none;stroke:blue;stroke-width:0.5;"/>
    <rect x="1220.0" y="82.0" width="-3.0" height="12.0" class="space" style="fill:none;stroke:blue;stroke-width:0.5;"/>
    <rect x="1222.0" y="82.0" width="-4.0" height="12.0" class="space" style="fill:none;stroke:blue;stroke-width:0.5;"/>
    <rect x="1223.0" y="82.0" width="-4.0" height="12.0" class="space" style="fill:none;stroke:blue;stroke-width:0.5;"/>
    <rect x="1223.0" y="82.0" width="-4.0" height="12.0" class="space" style="fill:none;stroke:blue;stroke-width:0.5;"/>
    <rect x="1223.0" y="82.0" width="-3.0" height="12.0" class="space" style="fill:none;stroke:blue;stroke-width:0.5;"/>
    <rect x="1224.0" y="82.0" width="-4.0" height="12.0" class="space" style="fill:none;stroke:blue;stroke-width:0.5;"/>
    <rect x="1224.0" y="82.0" width="-4.0" height="12.0" class="space" style="fill:none;stroke:blue;stroke-width:0.5;"/>
    <rect x="1224.0" y="82.0" width="-3.0" height="12.0" class="space" style="fill:none;stroke:blue;stroke-width:0.5;"/>
    <rect x="1225.0" y="82.0" width="-4.0" height="12.0" class="space" style="fill:none;stroke:blue;stroke-width:0.5;"/>
    <rect x="1225.0" y="82.0" width="-4.0" height="12.0" class="space" style="fill:none;stroke:blue;stroke-width:0.5;"/>
    <rect x="1225.0" y="82.0" width="-4.0" height="12.0" class="space" style="fill:none;stroke:blue;stroke-width:0.5;"/>
    <rect x="1225.0" y="82.0" width="-4.0" height="12.0" class="space" style="fill:none;stroke:blue;stroke-width:0.5;"/>
    <rect x="1225.0" y="82.0" width="-3.0" height="12.0" class="space" style="fill:none;stroke:blue;stroke-width:0.5;"/>
    <rect x="1226.0" y="82.0" width="-4.0" height="12.0" class="space" style="fill:none;stroke:blue;stroke-width:0.5;"/>
    <rect x="1226.0" y="82.0" width="-4.0" height="12.0" class="space" style="fill:none;stroke:blue;stroke-width:0.5;"/>
    <rect x="1226.0" y="82.0" width="-4.0" height="12.0" class="space" style="fill:none;stroke:blue;stroke-width:0.5;"/>
    <rect x="1226.0" y="82.0" width="-4.0" height="12.0" class="space" style="fill:none;stroke:blue;stroke-width:0.5;"/>
    <rect x="1226.0" y="82.0" width="-4.0" height="12.0" class="space" style="fill:none;stroke:blue;stroke-width:0.5;"/>
    <rect x="1226.0" y="82.0" width="-4.0" height="12.0" class="space" style="fill:none;stroke:blue;stroke-width:0.5;"/>
    <rect x="1226.0" y="82.0" width="-3.0" height="12.0" class="space" style="fill:none;stroke:blue;stroke-width:0.5;"/>
    <rect x="1227.0" y="82.0" width="-4.0" height="12.0" class="space" style="fill:none;stroke:blue;stroke-width:0.5;"/>
    <rect x="1227.0" y="82.0" width="-4.0" height="12.0" class="space" style="fill:none;stroke:blue;stroke-width:0.5;"/>
    <rect x="1227.0" y="82.0" width="-4.0" height="12.0" class="space" style="fill:none;stroke:blue;stroke-width:0.5;"/>
    <rect x="1227.0" y="82.0" width="-4.0" height="12.0" class="space" style="fill:none;stroke:blue;stroke-width:0.5;"/>
    <rect x="1227.0" y="82.0" width="-4.0" height="12.0" class="space" style="fill:none;stroke:blue;stroke-width:0.5;"/>
    <rect x="1227.0" y="82.0" width="-4.0" height="12.0" class="space" style="fill:none;stroke:blue;stroke-width:0.5;"/>
    <rect x="1227.0" y="82.0" width="-4.0" height="12.0" class="space" style="fill:none;stroke:blue;stroke-width:0.5;"/>
    <rect x="1227.0" y="82.0" width="-4.0" height="12.0" class="space" style="fill:none;stroke:blue;stroke-width:0.5;"/>
    <rect x="1227.0" y="82.0" width="-3.0" height="12.0" class="space" style="fill:none;stroke:blue;stroke-width:0.5;"/>
    <rect x="1228.0" y="82.0" width="-4.0" height="12.0" class="space" style="fill:none;stroke:blue;stroke-width:0.5;"/>
    <rect x="1228.0" y="82.0" width="-4.0" height="12.0" class="space" style="fill:none;stroke:blue;stroke-width:0.5;"/>
    <rect x="1228.0" y="82.0" width="-4.0" height="12.0" class="space" style="fill:none;stroke:blue;stroke-width:0.5;"/>
    <rect x="1228.0" y="82.0" width="-4.0" height="12.0" class="space" style="fill:none;stroke:blue;stroke-width:0.5;"/>
    <rect x="1228.0" y="82.0" width="-4.0" height="12.0" class="space" style="fill:none;stroke:blue;stroke-width:0.5;"/>
    <rect x="1228.0" y="82.0" width="-4.0" height="12.0" class="space" style="fill:none;stroke:blue;stroke-width:0.5;"/>
    <rect x="1228.0" y="82.0" width="-4.0" height="12.0" class="space" style="fill:none;stroke:blue;stroke-width:0.5;"/>
    <rect x="1228.0" y="82.0" width="-4.0" height="12.0" class="space" style="fill:none;stroke:blue;stroke-width:0.5;"/>
    <rect x="1228.0" y="82.0" width="-4.0" height="12.0" class="space" style="fill:none;stroke:blue;stroke-width:0.5;"/>
    <rect x="1228.0" y="82.0" width="-4.0" height="12.0" class="space" style="fill:none;stroke:blue;stroke-width:0.5;"/>
    <rect x="1228.0" y="82.0" width="-4.0" height="12.0" class="space" style="fill:none;stroke:blue;stroke-width:0.5;"/>
    <rect x="1228.0" y="82.0" width="-4.0" height="12.0" class="space" style="fill:none;stroke:blue;stroke-width:0.5;"/>
    <rect x="1228.0" y="82.0" width="-3.0" height="12.0" class="space" style="fill:none;stroke:blue;stroke-width:0.5;"/>
    <g>
     <rect x="1226.0" y="82.0" width="10.0" height="12.0" class="text" style="fill:none;stroke:red;stroke-width:0.5;"/>
     <text x="1226.0" y="94.0" achars="O,0,a" style="fill:black;font-family:helvetica;font-size:10.0px;">O</text>
    </g>
    <g>
     <rect x="1231.0" y="82.0" width="13.0" height="21.0" class="text" style="fill:none;stroke:red;stroke-width:0.5;"/>
     <text x="1231.0" y="103.0" achars="/" style="fill:black;font-family:helvetica;font-size:10.0px;">/</text>
    </g>
    <g>
     <rect x="1239.0" y="90.0" width="10.0" height="13.0" class="text" style="fill:none;stroke:red;stroke-width:0.5;"/>
     <text x="1239.0" y="103.0" achars="o,0" style="fill:black;font-family:helvetica;font-size:10.0px;">o</text>
    </g>
   </g>
   <g class="line">
    <rect x="39.0" y="151.0" width="3.0" height="21.0" class="space" style="fill:none;stroke:blue;stroke-width:0.5;"/>
    <g>
     <rect x="39.0" y="151.0" width="3.0" height="21.0" class="text" style="fill:none;stroke:red;stroke-width:0.5;"/>
     <text x="39.0" y="172.0" achars="l,I,|,1" style="fill:black;font-family:helvetica;font-size:10.0px;">l</text>
    </g>
    <g>
     <rect x="46.0" y="151.0" width="17.0" height="21.0" class="text" style="fill:none;stroke:red;stroke-width:0.5;"/>
     <text x="46.0" y="172.0" achars="D" style="fill:black;font-family:helvetica;font-size:10.0px;">D</text>
    </g>
    <rect x="64.0" y="151.0" width="12.0" height="21.0" class="space" style="fill:none;stroke:blue;stroke-width:0.5;"/>
    <rect x="93.0" y="151.0" width="12.0" height="21.0" class="space" style="fill:none;stroke:blue;stroke-width:0.5;"/>
    <rect x="137.0" y="151.0" width="12.0" height="21.0" class="space" style="fill:none;stroke:blue;stroke-width:0.5;"/>
    <rect x="194.0" y="151.0" width="11.0" height="21.0" class="space" style="fill:none;stroke:blue;stroke-width:0.5;"/>
    <rect x="261.0" y="151.0" width="10.0" height="21.0" class="space" style="fill:none;stroke:blue;stroke-width:0.5;"/>
    <rect x="334.0" y="151.0" width="9.0" height="21.0" class="space" style="fill:none;stroke:blue;stroke-width:0.5;"/>
    <rect x="411.0" y="151.0" width="7.0" height="21.0" class="space" style="fill:none;stroke:blue;stroke-width:0.5;"/>
    <rect x="487.0" y="151.0" width="6.0" height="21.0" class="space" style="fill:none;stroke:blue;stroke-width:0.5;"/>
    <rect x="560.0" y="151.0" width="4.0" height="21.0" class="space" style="fill:none;stroke:blue;stroke-width:0.5;"/>
    <rect x="627.0" y="151.0" width="3.0" height="21.0" class="space" style="fill:none;stroke:blue;stroke-width:0.5;"/>
    <rect x="687.0" y="151.0" width="2.0" height="21.0" class="space" style="fill:none;stroke:blue;stroke-width:0.5;"/>
    <rect x="740.0" y="151.0" width="0.0" height="21.0" class="space" style="fill:none;stroke:blue;stroke-width:0.5;"/>
    <rect x="783.0" y="151.0" width="0.0" height="21.0" class="space" style="fill:none;stroke:blue;stroke-width:0.5;"/>
    <rect x="819.0" y="151.0" width="-1.0" height="21.0" class="space" style="fill:none;stroke:blue;stroke-width:0.5;"/>
    <rect x="848.0" y="151.0" width="-2.0" height="21.0" class="space" style="fill:none;stroke:blue;stroke-width:0.5;"/>
    <rect x="870.0" y="151.0" width="-3.0" height="21.0" class="space" style="fill:none;stroke:blue;stroke-width:0.5;"/>
    <rect x="886.0" y="151.0" width="-3.0" height="21.0" class="space" style="fill:none;stroke:blue;stroke-width:0.5;"/>
    <rect x="898.0" y="151.0" width="-4.0" height="21.0" class="space" style="fill:none;stroke:blue;stroke-width:0.5;"/>
    <rect x="906.0" y="151.0" width="-4.0" height="21.0" class="space" style="fill:none;stroke:blue;stroke-width:0.5;"/>
    <rect x="911.0" y="151.0" width="-3.0" height="21.0" class="space" style="fill:none;stroke:blue;stroke-width:0.5;"/>
    <rect x="915.0" y="151.0" width="-3.0" height="21.0" class="space" style="fill:none;stroke:blue;stroke-width:0.5;"/>
    <rect x="918.0" y="151.0" width="-4.0" height="21.0" class="space" style="fill:none;stroke:blue;stroke-width:0.5;"/>
    <rect x="920.0" y="151.0" width="-4.0" height="21.0" class="space" style="fill:none;stroke:blue;stroke-width:0.5;"/>
    <rect x="921.0" y="151.0" width="-4.0" height="21.0" class="space" style="fill:none;stroke:blue;stroke-width:0.5;"/>
    <rect x="922.0" y="151.0" width="-4.0" height="21.0" class="space" style="fill:none;stroke:blue;stroke-width:0.5;"/>
    <rect x="922.0" y="151.0" width="-3.0" height="21.0" class="space" style="fill:none;stroke:blue;stroke-width:0.5;"/>
    <rect x="923.0" y="151.0" width="-4.0" height="21.0" class="space" style="fill:none;stroke:blue;stroke-width:0.5;"/>
    <rect x="923.0" y="151.0" width="-4.0" height="21.0" class="space" style="fill:none;stroke:blue;stroke-width:0.5;"/>
    <rect x="923.0" y="151.0" width="-4.0" height="21.0" class="space" style="fill:none;stroke:blue;stroke-width:0.5;"/>
    <rect x="923.0" y="151.0" width="-3.0" height="21.0" class="space" style="fill:none;stroke:blue;stroke-width:0.5;"/>
    <rect x="924.0" y="151.0" width="-4.0" height="21.0" class="space" style="fill:none;stroke:blue;stroke-width:0.5;"/>
    <rect x="924.0" y="151.0" width="-4.0" height="21.0" class="space" style="fill:none;stroke:blue;stroke-width:0.5;"/>
    <rect x="924.0" y="151.0" width="-4.0" height="21.0" class="space" style="fill:none;stroke:blue;stroke-width:0.5;"/>
    <rect x="924.0" y="151.0" width="-4.0" height="21.0" class="space" style="fill:none;stroke:blue;stroke-width:0.5;"/>
    <rect x="924.0" y="151.0" width="-3.0" height="21.0" class="space" style="fill:none;stroke:blue;stroke-width:0.5;"/>
    <rect x="925.0" y="151.0" width="-4.0" height="21.0" class="space" style="fill:none;stroke:blue;stroke-width:0.5;"/>
    <rect x="925.0" y="151.0" width="-4.0" height="21.0" class="space" style="fill:none;stroke:blue;stroke-width:0.5;"/>
    <rect x="925.0" y="151.0" width="-4.0" height="21.0" class="space" style="fill:none;stroke:blue;stroke-width:0.5;"/>
    <rect x="925.0" y="151.0" width="-4.0" height="21.0" class="space" style="fill:none;stroke:blue;stroke-width:0.5;"/>
    <rect x="925.0" y="151.0" width="-4.0" height="21.0" class="space" style="fill:none;stroke:blue;stroke-width:0.5;"/>
    <rect x="925.0" y="151.0" width="-4.0" height="21.0" class="space" style="fill:none;stroke:blue;stroke-width:0.5;"/>
    <rect x="925.0" y="151.0" width="-3.0" height="21.0" class="space" style="fill:none;stroke:blue;stroke-width:0.5;"/>
    <rect x="926.0" y="151.0" width="-4.0" height="21.0" class="space" style="fill:none;stroke:blue;stroke-width:0.5;"/>
    <rect x="926.0" y="151.0" width="-4.0" height="21.0" class="space" style="fill:none;stroke:blue;stroke-width:0.5;"/>
    <rect x="926.0" y="151.0" width="-4.0" height="21.0" class="space" style="fill:none;stroke:blue;stroke-width:0.5;"/>
    <rect x="926.0" y="151.0" width="-4.0" height="21.0" class="space" style="fill:none;stroke:blue;stroke-width:0.5;"/>
    <rect x="926.0" y="151.0" width="-4.0" height="21.0" class="space" style="fill:none;stroke:blue;stroke-width:0.5;"/>
    <rect x="926.0" y="151.0" width="-4.0" height="21.0" class="space" style="fill:none;stroke:blue;stroke-width:0.5;"/>
    <rect x="926.0" y="151.0" width="-4.0" height="21.0" class="space" style="fill:none;stroke:blue;stroke-width:0.5;"/>
    <rect x="926.0" y="151.0" width="-4.0" height="21.0" class="space" style="fill:none;stroke:blue;stroke-width:0.5;"/>
    <rect x="926.0" y="151.0" width="-4.0" height="21.0" class="space" style="fill:none;stroke:blue;stroke-width:0.5;"/>
    <rect x="926.0" y="151.0" width="-3.0" height="21.0" class="space" style="fill:none;stroke:blue;stroke-width:0.5;"/>
    <g>
     <rect x="924.0" y="151.0" width="14.0" height="21.0" class="text" style="fill:none;stroke:red;stroke-width:0.5;"/>
     <text x="924.0" y="172.0" achars="R" style="fill:black;font-family:helvetica;font-size:10.0px;">R</text>
    </g>
    <g>
     <rect x="940.0" y="151.0" width="14.0" height="21.0" class="text" style="fill:none;stroke:red;stroke-width:0.5;"/>
     <text x="940.0" y="172.0" achars="R" style="fill:black;font-family:helvetica;font-size:10.0px;">R</text>
    </g>
    <rect x="955.0" y="150.0" width="7.0" height="26.0" class="space" style="fill:none;stroke:blue;stroke-width:0.5;"/>
    <g>
     <rect x="963.0" y="150.0" width="6.0" height="26.0" class="text" style="fill:none;stroke:red;stroke-width:0.5;"/>
     <text x="963.0" y="176.0" achars="(,C" style="fill:black;font-family:helvetica;font-size:10.0px;">(</text>
    </g>
    <g>
     <rect x="971.0" y="151.0" width="14.0" height="21.0" class="text" style="fill:none;stroke:red;stroke-width:0.5;"/>
     <text x="971.0" y="172.0" achars="9,g" style="fill:black;font-family:helvetica;font-size:10.0px;">9</text>
    </g>
    <g>
     <rect x="987.0" y="152.0" width="12.0" height="20.0" class="text" style="fill:none;stroke:red;stroke-width:0.5;"/>
     <text x="987.0" y="172.0" achars="5,S" style="fill:black;font-family:helvetica;font-size:10.0px;">5</text>
    </g>
    <g>
     <rect x="1002.0" y="151.0" width="9.0" height="13.0" class="text" style="fill:none;stroke:red;stroke-width:0.5;"/>
     <text x="1002.0" y="164.0" achars="O,0,&quot;" style="fill:black;font-family:helvetica;font-size:10.0px;">O</text>
    </g>
    <g>
     <rect x="1006.0" y="151.0" width="14.0" height="21.0" class="text" style="fill:none;stroke:red;stroke-width:0.5;"/>
     <text x="1006.0" y="172.0" achars="/" style="fill:black;font-family:helvetica;font-size:10.0px;">/</text>
    </g>
    <g>
     <rect x="1015.0" y="159.0" width="9.0" height="13.0" class="text" style="fill:none;stroke:red;stroke-width:0.5;"/>
     <text x="1015.0" y="172.0" achars="o,0" style="fill:black;font-family:helvetica;font-size:10.0px;">o</text>
    </g>
    <rect x="1025.0" y="151.0" width="6.0" height="21.0" class="space" style="fill:none;stroke:blue;stroke-width:0.5;"/>
    <g>
     <rect x="1032.0" y="151.0" width="16.0" height="21.0" class="text" style="fill:none;stroke:red;stroke-width:0.5;"/>
     <text x="1032.0" y="172.0" achars="C" style="fill:black;font-family:helvetica;font-size:10.0px;">C</text>
    </g>
    <g>
     <rect x="1051.0" y="151.0" width="3.0" height="21.0" class="text" style="fill:none;stroke:red;stroke-width:0.5;"/>
     <text x="1051.0" y="172.0" achars="l,I,|,1" style="fill:black;font-family:helvetica;font-size:10.0px;">l</text>
    </g>
    <g>
     <rect x="1057.0" y="150.0" width="6.0" height="26.0" class="text" style="fill:none;stroke:red;stroke-width:0.5;"/>
     <text x="1057.0" y="176.0" achars=")" style="fill:black;font-family:helvetica;font-size:10.0px;">)</text>
    </g>
    <rect x="1064.0" y="151.0" width="14.0" height="21.0" class="space" style="fill:none;stroke:blue;stroke-width:0.5;"/>
    <rect x="1095.0" y="151.0" width="13.0" height="21.0" class="space" style="fill:none;stroke:blue;stroke-width:0.5;"/>
    <rect x="1135.0" y="151.0" width="10.0" height="21.0" class="space" style="fill:none;stroke:blue;stroke-width:0.5;"/>
    <rect x="1173.0" y="151.0" width="5.0" height="21.0" class="space" style="fill:none;stroke:blue;stroke-width:0.5;"/>
    <rect x="1201.0" y="151.0" width="1.0" height="21.0" class="space" style="fill:none;stroke:blue;stroke-width:0.5;"/>
    <rect x="1217.0" y="151.0" width="-1.0" height="21.0" class="space" style="fill:none;stroke:blue;stroke-width:0.5;"/>
    <rect x="1225.0" y="151.0" width="-3.0" height="21.0" class="space" style="fill:none;stroke:blue;stroke-width:0.5;"/>
    <rect x="1227.0" y="151.0" width="-3.0" height="21.0" class="space" style="fill:none;stroke:blue;stroke-width:0.5;"/>
    <rect x="1228.0" y="151.0" width="-3.0" height="21.0" class="space" style="fill:none;stroke:blue;stroke-width:0.5;"/>
    <g>
     <rect x="1226.0" y="151.0" width="25.0" height="21.0" class="text" style="fill:none;stroke:red;stroke-width:0.5;"/>
     <text x="1226.0" y="172.0" achars="W" style="fill:black;font-family:helvetica;font-size:10.0px;">W</text>
    </g>
    <g>
     <rect x="1252.0" y="156.0" width="14.0" height="16.0" class="text" style="fill:none;stroke:red;stroke-width:0.5;"/>
     <text x="1252.0" y="172.0" achars="e,g" style="fill:black;font-family:helvetica;font-size:10.0px;">e</text>
    </g>
    <g>
     <rect x="1268.0" y="151.0" width="4.0" height="21.0" class="text" style="fill:none;stroke:red;stroke-width:0.5;"/>
     <text x="1268.0" y="172.0" achars="i,j" style="fill:black;font-family:helvetica;font-size:10.0px;">i</text>
    </g>
    <g>
     <rect x="1275.0" y="156.0" width="14.0" height="22.0" class="text" style="fill:none;stroke:red;stroke-width:0.5;"/>
     <text x="1275.0" y="178.0" achars="g,9" style="fill:black;font-family:helvetica;font-size:10.0px;">g</text>
    </g>
    <g>
     <rect x="1293.0" y="150.0" width="13.0" height="22.0" class="text" style="fill:none;stroke:red;stroke-width:0.5;"/>
     <text x="1293.0" y="172.0" achars="h" style="fill:black;font-family:helvetica;font-size:10.0px;">h</text>
    </g>
    <g>
     <rect x="1308.0" y="153.0" width="9.0" height="19.0" class="text" style="fill:none;stroke:red;stroke-width:0.5;"/>
     <text x="1308.0" y="172.0" achars="t" style="fill:black;font-family:helvetica;font-size:10.0px;">t</text>
    </g>
   </g>
  </g>
 </g>
</svg>
