<?xml version="1.0" encoding="UTF-8"?>
<svg height="122.0" width="1144.0" xmlns="http://www.w3.org/2000/svg">
 <g class="page">
  <g class="block">
   <g class="line">
    <rect x="9.0" y="41.0" width="3.0" height="3.0" class="space" style="fill:none;stroke:blue;stroke-width:0.5;"/>
    <g>
     <rect x="9.0" y="41.0" width="3.0" height="3.0" class="text" style="fill:none;stroke:red;stroke-width:0.5;"/>
     <text x="9.0" y="44.0" achars="" style="fill:black;font-family:helvetica;font-size:10.0px;">?</text>
    </g>
   </g>
   <g class="line">
    <rect x="25.0" y="49.0" width="12.0" height="15.0" class="space" style="fill:none;stroke:blue;stroke-width:0.5;"/>
    <g>
     <rect x="25.0" y="49.0" width="12.0" height="15.0" class="text" style="fill:none;stroke:red;stroke-width:0.5;"/>
     <text x="25.0" y="64.0" achars="S" style="fill:black;font-family:helvetica;font-size:10.0px;">S</text>
    </g>
    <g>
     <rect x="38.0" y="50.0" width="5.0" height="14.0" class="text" style="fill:none;stroke:red;stroke-width:0.5;"/>
     <text x="38.0" y="64.0" achars="t,f" style="fill:black;font-family:helvetica;font-size:10.0px;">t</text>
    </g>
    <g>
     <rect x="44.0" y="53.0" width="9.0" height="11.0" class="text" style="fill:none;stroke:red;stroke-width:0.5;"/>
     <text x="44.0" y="64.0" achars="u" style="fill:black;font-family:helvetica;font-size:10.0px;">u</text>
    </g>
    <g>
     <rect x="54.0" y="49.0" width="10.0" height="15.0" class="text" style="fill:none;stroke:red;stroke-width:0.5;"/>
     <text x="54.0" y="64.0" achars="d" style="fill:black;font-family:helvetica;font-size:10.0px;">d</text>
    </g>
    <g>
     <rect x="65.0" y="53.0" width="10.0" height="15.0" class="text" style="fill:none;stroke:red;stroke-width:0.5;"/>
     <text x="65.0" y="68.0" achars="y" style="fill:black;font-family:helvetica;font-size:10.0px;">y</text>
    </g>
    <rect x="76.0" y="49.0" width="6.0" height="8.0" class="space" style="fill:none;stroke:blue;stroke-width:0.5;"/>
    <rect x="93.0" y="49.0" width="6.0" height="8.0" class="space" style="fill:none;stroke:blue;stroke-width:0.5;"/>
    <rect x="119.0" y="49.0" width="6.0" height="8.0" class="space" style="fill:none;stroke:blue;stroke-width:0.5;"/>
    <rect x="154.0" y="49.0" width="6.0" height="8.0" class="space" style="fill:none;stroke:blue;stroke-width:0.5;"/>
    <rect x="197.0" y="49.0" width="6.0" height="8.0" class="space" style="fill:none;stroke:blue;stroke-width:0.5;"/>
    <rect x="247.0" y="49.0" width="5.0" height="8.0" class="space" style="fill:none;stroke:blue;stroke-width:0.5;"/>
    <rect x="302.0" y="49.0" width="5.0" height="8.0" class="space" style="fill:none;stroke:blue;stroke-width:0.5;"/>
    <rect x="362.0" y="49.0" width="3.0" height="8.0" class="space" style="fill:none;stroke:blue;stroke-width:0.5;"/>
    <rect x="423.0" y="49.0" width="3.0" height="8.0" class="space" style="fill:none;stroke:blue;stroke-width:0.5;"/>
    <rect x="485.0" y="49.0" width="3.0" height="8.0" class="space" style="fill:none;stroke:blue;stroke-width:0.5;"/>
    <rect x="548.0" y="49.0" width="2.0" height="8.0" class="space" style="fill:none;stroke:blue;stroke-width:0.5;"/>
    <rect x="609.0" y="49.0" width="1.0" height="8.0" class="space" style="fill:none;stroke:blue;stroke-width:0.5;"/>
    <rect x="667.0" y="49.0" width="0.0" height="8.0" class="space" style="fill:none;stroke:blue;stroke-width:0.5;"/>
    <rect x="721.0" y="49.0" width="0.0" height="8.0" class="space" style="fill:none;stroke:blue;stroke-width:0.5;"/>
    <rect x="771.0" y="49.0" width="0.0" height="8.0" class="space" style="fill:none;stroke:blue;stroke-width:0.5;"/>
    <rect x="817.0" y="49.0" width="-1.0" height="8.0" class="space" style="fill:none;stroke:blue;stroke-width:0.5;"/>
    <rect x="858.0" y="49.0" width="-1.0" height="8.0" class="space" style="fill:none;stroke:blue;stroke-width:0.5;"/>
    <rect x="895.0" y="49.0" width="-2.0" height="8.0" class="space" style="fill:none;stroke:blue;stroke-width:0.5;"/>
    <rect x="926.0" y="49.0" width="-2.0" height="8.0" class="space" style="fill:none;stroke:blue;stroke-width:0.5;"/>
    <rect x="953.0" y="49.0" width="-2.0" height="8.0" class="space" style="fill:none;stroke:blue;stroke-width:0.5;"/>
    <rect x="976.0" y="49.0" width="-2.0" height="8.0" class="space" style="fill:none;stroke:blue;stroke-width:0.5;"/>
    <rect x="996.0" y="49.0" width="-3.0" height="8.0" class="space" style="fill:none;stroke:blue;stroke-width:0.5;"/>
    <rect x="1012.0" y="49.0" width="-4.0" height="8.0" class="space" style="fill:none;stroke:blue;stroke-width:0.5;"/>
    <rect x="1024.0" y="49.0" width="-3.0" height="8.0" class="space" style="fill:none;stroke:blue;stroke-width:0.5;"/>
    <rect x="1034.0" y="49.0" width="-3.0" height="8.0" class="space" style="fill:none;stroke:blue;stroke-width:0.5;"/>
    <rect x="1042.0" y="49.0" width="-3.0" height="8.0" class="space" style="fill:none;stroke:blue;stroke-width:0.5;"/>
    <rect x="1049.0" y="49.0" width="-4.0" height="8.0" class="space" style="fill:none;stroke:blue;stroke-width:0.5;"/>
    <rect x="1053.0" y="49.0" width="-3.0" height="8.0" class="space" style="fill:none;stroke:blue;stroke-width:0.5;"/>
    <rect x="1057.0" y="49.0" width="-3.0" height="8.0" class="space" style="fill:none;stroke:blue;stroke-width:0.5;"/>
    <rect x="1060.0" y="49.0" width="-3.0" height="8.0" class="space" style="fill:none;stroke:blue;stroke-width:0.5;"/>
    <rect x="1063.0" y="49.0" width="-4.0" height="8.0" class="space" style="fill:none;stroke:blue;stroke-width:0.5;"/>
    <rect x="1064.0" y="49.0" width="-4.0" height="8.0" class="space" style="fill:none;stroke:blue;stroke-width:0.5;"/>
    <rect x="1065.0" y="49.0" width="-4.0" height="8.0" class="space" style="fill:none;stroke:blue;stroke-width:0.5;"/>
    <rect x="1066.0" y="49.0" width="-4.0" height="8.0" class="space" style="fill:none;stroke:blue;stroke-width:0.5;"/>
    <rect x="1067.0" y="49.0" width="-4.0" height="8.0" class="space" style="fill:none;stroke:blue;stroke-width:0.5;"/>
    <rect x="1067.0" y="49.0" width="-3.0" height="8.0" class="space" style="fill:none;stroke:blue;stroke-width:0.5;"/>
    <rect x="1068.0" y="49.0" width="-4.0" height="8.0" class="space" style="fill:none;stroke:blue;stroke-width:0.5;"/>
    <rect x="1068.0" y="49.0" width="-4.0" height="8.0" class="space" style="fill:none;stroke:blue;stroke-width:0.5;"/>
    <rect x="1068.0" y="49.0" width="-4.0" height="8.0" class="space" style="fill:none;stroke:blue;stroke-width:0.5;"/>
    <rect x="1068.0" y="49.0" width="-3.0" height="8.0" class="space" style="fill:none;stroke:blue;stroke-width:0.5;"/>
    <rect x="1069.0" y="49.0" width="-4.0" height="8.0" class="space" style="fill:none;stroke:blue;stroke-width:0.5;"/>
    <rect x="1069.0" y="49.0" width="-4.0" height="8.0" class="space" style="fill:none;stroke:blue;stroke-width:0.5;"/>
    <rect x="1069.0" y="49.0" width="-4.0" height="8.0" class="space" style="fill:none;stroke:blue;stroke-width:0.5;"/>
    <rect x="1069.0" y="49.0" width="-3.0" height="8.0" class="space" style="fill:none;stroke:blue;stroke-width:0.5;"/>
    <rect x="1070.0" y="49.0" width="-4.0" height="8.0" class="space" style="fill:none;stroke:blue;stroke-width:0.5;"/>
    <rect x="1070.0" y="49.0" width="-4.0" height="8.0" class="space" style="fill:none;stroke:blue;stroke-width:0.5;"/>
    <rect x="1070.0" y="49.0" width="-4.0" height="8.0" class="space" style="fill:none;stroke:blue;stroke-width:0.5;"/>
    <rect x="1070.0" y="49.0" width="-4.0" height="8.0" class="space" style="fill:none;stroke:blue;stroke-width:0.5;"/>
    <rect x="1070.0" y="49.0" width="-4.0" height="8.0" class="space" style="fill:none;stroke:blue;stroke-width:0.5;"/>
    <rect x="1070.0" y="49.0" width="-3.0" height="8.0" class="space" style="fill:none;stroke:blue;stroke-width:0.5;"/>
    <rect x="1071.0" y="49.0" width="-4.0" height="8.0" class="space" style="fill:none;stroke:blue;stroke-width:0.5;"/>
    <rect x="1071.0" y="49.0" width="-4.0" height="8.0" class="space" style="fill:none;stroke:blue;stroke-width:0.5;"/>
    <rect x="1071.0" y="49.0" width="-4.0" height="8.0" class="space" style="fill:none;stroke:blue;stroke-width:0.5;"/>
    <rect x="1071.0" y="49.0" width="-4.0" height="8.0" class="space" style="fill:none;stroke:blue;stroke-width:0.5;"/>
    <rect x="1071.0" y="49.0" width="-4.0" height="8.0" class="space" style="fill:none;stroke:blue;stroke-width:0.5;"/>
    <rect x="1071.0" y="49.0" width="-4.0" height="8.0" class="space" style="fill:none;stroke:blue;stroke-width:0.5;"/>
    <rect x="1071.0" y="49.0" width="-3.0" height="8.0" class="space" style="fill:none;stroke:blue;stroke-width:0.5;"/>
    <rect x="1072.0" y="49.0" width="-4.0" height="8.0" class="space" style="fill:none;stroke:blue;stroke-width:0.5;"/>
    <rect x="1072.0" y="49.0" width="-4.0" height="8.0" class="space" style="fill:none;stroke:blue;stroke-width:0.5;"/>
    <rect x="1072.0" y="49.0" width="-4.0" height="8.0" class="space" style="fill:none;stroke:blue;stroke-width:0.5;"/>
    <rect x="1072.0" y="49.0" width="-4.0" height="8.0" class="space" style="fill:none;stroke:blue;stroke-width:0.5;"/>
    <rect x="1072.0" y="49.0" width="-4.0" height="8.0" class="space" style="fill:none;stroke:blue;stroke-width:0.5;"/>
    <rect x="1072.0" y="49.0" width="-4.0" height="8.0" class="space" style="fill:none;stroke:blue;stroke-width:0.5;"/>
    <rect x="1072.0" y="49.0" width="-4.0" height="8.0" class="space" style="fill:none;stroke:blue;stroke-width:0.5;"/>
    <rect x="1072.0" y="49.0" width="-4.0" height="8.0" class="space" style="fill:none;stroke:blue;stroke-width:0.5;"/>
    <rect x="1072.0" y="49.0" width="-3.0" height="8.0" class="space" style="fill:none;stroke:blue;stroke-width:0.5;"/>
    <rect x="1073.0" y="49.0" width="-4.0" height="8.0" class="space" style="fill:none;stroke:blue;stroke-width:0.5;"/>
    <rect x="1073.0" y="49.0" width="-4.0" height="8.0" class="space" style="fill:none;stroke:blue;stroke-width:0.5;"/>
    <rect x="1073.0" y="49.0" width="-4.0" height="8.0" class="space" style="fill:none;stroke:blue;stroke-width:0.5;"/>
    <rect x="1073.0" y="49.0" width="-4.0" height="8.0" class="space" style="fill:none;stroke:blue;stroke-width:0.5;"/>
    <rect x="1073.0" y="49.0" width="-4.0" height="8.0" class="space" style="fill:none;stroke:blue;stroke-width:0.5;"/>
    <rect x="1073.0" y="49.0" width="-4.0" height="8.0" class="space" style="fill:none;stroke:blue;stroke-width:0.5;"/>
    <rect x="1073.0" y="49.0" width="-4.0" height="8.0" class="space" style="fill:none;stroke:blue;stroke-width:0.5;"/>
    <rect x="1073.0" y="49.0" width="-4.0" height="8.0" class="space" style="fill:none;stroke:blue;stroke-width:0.5;"/>
    <rect x="1073.0" y="49.0" width="-4.0" height="8.0" class="space" style="fill:none;stroke:blue;stroke-width:0.5;"/>
    <rect x="1073.0" y="49.0" width="-4.0" height="8.0" class="space" style="fill:none;stroke:blue;stroke-width:0.5;"/>
    <rect x="1073.0" y="49.0" width="-4.0" height="8.0" class="space" style="fill:none;stroke:blue;stroke-width:0.5;"/>
    <rect x="1073.0" y="49.0" width="-4.0" height="8.0" class="space" style="fill:none;stroke:blue;stroke-width:0.5;"/>
    <rect x="1073.0" y="49.0" width="-4.0" height="8.0" class="space" style="fill:none;stroke:blue;stroke-width:0.5;"/>
    <rect x="1073.0" y="49.0" width="-3.0" height="8.0" class="space" style="fill:none;stroke:blue;stroke-width:0.5;"/>
    <rect x="1074.0" y="49.0" width="-4.0" height="8.0" class="space" style="fill:none;stroke:blue;stroke-width:0.5;"/>
    <rect x="1074.0" y="49.0" width="-4.0" height="8.0" class="space" style="fill:none;stroke:blue;stroke-width:0.5;"/>
    <rect x="1074.0" y="49.0" width="-4.0" height="8.0" class="space" style="fill:none;stroke:blue;stroke-width:0.5;"/>
    <rect x="1074.0" y="49.0" width="-4.0" height="8.0" class="space" style="fill:none;stroke:blue;stroke-width:0.5;"/>
    <rect x="1074.0" y="49.0" width="-4.0" height="8.0" class="space" style="fill:none;stroke:blue;stroke-width:0.5;"/>
    <rect x="1074.0" y="49.0" width="-4.0" height="8.0" class="space" style="fill:none;stroke:blue;stroke-width:0.5;"/>
    <rect x="1074.0" y="49.0" width="-4.0" height="8.0" class="space" style="fill:none;stroke:blue;stroke-width:0.5;"/>
    <rect x="1074.0" y="49.0" width="-4.0" height="8.0" class="space" style="fill:none;stroke:blue;stroke-width:0.5;"/>
    <rect x="1074.0" y="49.0" width="-4.0" height="8.0" class="space" style="fill:none;stroke:blue;stroke-width:0.5;"/>
    <rect x="1074.0" y="49.0" width="-4.0" height="8.0" class="space" style="fill:none;stroke:blue;stroke-width:0.5;"/>
    <rect x="1074.0" y="49.0" width="-4.0" height="8.0" class="space" style="fill:none;stroke:blue;stroke-width:0.5;"/>
    <rect x="1074.0" y="49.0" width="-4.0" height="8.0" class="space" style="fill:none;stroke:blue;stroke-width:0.5;"/>
    <rect x="1074.0" y="49.0" width="-4.0" height="8.0" class="space" style="fill:none;stroke:blue;stroke-width:0.5;"/>
    <rect x="1074.0" y="49.0" width="-4.0" height="8.0" class="space" style="fill:none;stroke:blue;stroke-width:0.5;"/>
    <rect x="1074.0" y="49.0" width="-4.0" height="8.0" class="space" style="fill:none;stroke:blue;stroke-width:0.5;"/>
    <rect x="1074.0" y="49.0" width="-4.0" height="8.0" class="space" style="fill:none;stroke:blue;stroke-width:0.5;"/>
    <rect x="1074.0" y="49.0" width="-4.0" height="8.0" class="space" style="fill:none;stroke:blue;stroke-width:0.5;"/>
    <rect x="1074.0" y="49.0" width="-4.0" height="8.0" class="space" style="fill:none;stroke:blue;stroke-width:0.5;"/>
    <rect x="1074.0" y="49.0" width="-3.0" height="8.0" class="space" style="fill:none;stroke:blue;stroke-width:0.5;"/>
    <g>
     <rect x="1072.0" y="49.0" width="7.0" height="8.0" class="text" style="fill:none;stroke:red;stroke-width:0.5;"/>
     <text x="1072.0" y="57.0" achars="O,0,&quot;,a" style="fill:black;font-family:helvetica;font-size:10.0px;">O</text>
    </g>
    <g>
     <rect x="1076.0" y="49.0" width="9.0" height="15.0" class="text" style="fill:none;stroke:red;stroke-width:0.5;"/>
     <text x="1076.0" y="64.0" achars="/" style="fill:black;font-family:helvetica;font-size:10.0px;">/</text>
    </g>
    <g>
     <rect x="1082.0" y="56.0" width="6.0" height="8.0" class="text" style="fill:none;stroke:red;stroke-width:0.5;"/>
     <text x="1082.0" y="64.0" achars="o,0" style="fill:black;font-family:helvetica;font-size:10.0px;">o</text>
    </g>
   </g>
   <g class="line">
    <rect x="26.0" y="93.0" width="2.0" height="15.0" class="space" style="fill:none;stroke:blue;stroke-width:0.5;"/>
    <g>
     <rect x="26.0" y="93.0" width="2.0" height="15.0" class="text" style="fill:none;stroke:red;stroke-width:0.5;"/>
     <text x="26.0" y="108.0" achars="l,I,|,1" style="fill:black;font-family:helvetica;font-size:10.0px;">l</text>
    </g>
    <g>
     <rect x="31.0" y="93.0" width="12.0" height="15.0" class="text" style="fill:none;stroke:red;stroke-width:0.5;"/>
     <text x="31.0" y="108.0" achars="D" style="fill:black;font-family:helvetica;font-size:10.0px;">D</text>
    </g>
    <rect x="44.0" y="93.0" width="8.0" height="15.0" class="space" style="fill:none;stroke:blue;stroke-width:0.5;"/>
    <rect x="64.0" y="93.0" width="8.0" height="15.0" class="space" style="fill:none;stroke:blue;stroke-width:0.5;"/>
    <rect x="96.0" y="93.0" width="7.0" height="15.0" class="space" style="fill:none;stroke:blue;stroke-width:0.5;"/>
    <rect x="137.0" y="93.0" width="7.0" height="15.0" class="space" style="fill:none;stroke:blue;stroke-width:0.5;"/>
    <rect x="187.0" y="93.0" width="6.0" height="15.0" class="space" style="fill:none;stroke:blue;stroke-width:0.5;"/>
    <rect x="242.0" y="93.0" width="6.0" height="15.0" class="space" style="fill:none;stroke:blue;stroke-width:0.5;"/>
    <rect x="302.0" y="93.0" width="5.0" height="15.0" class="space" style="fill:none;stroke:blue;stroke-width:0.5;"/>
    <rect x="364.0" y="93.0" width="4.0" height="15.0" class="space" style="fill:none;stroke:blue;stroke-width:0.5;"/>
    <rect x="426.0" y="93.0" width="3.0" height="15.0" class="space" style="fill:none;stroke:blue;stroke-width:0.5;"/>
    <rect x="486.0" y="93.0" width="2.0" height="15.0" class="space" style="fill:none;stroke:blue;stroke-width:0.5;"/>
    <rect x="542.0" y="93.0" width="2.0" height="15.0" class="space" style="fill:none;stroke:blue;stroke-width:0.5;"/>
    <rect x="595.0" y="93.0" width="0.0" height="15.0" class="space" style="fill:none;stroke:blue;stroke-width:0.5;"/>
    <rect x="641.0" y="93.0" width="0.0" height="15.0" class="space" style="fill:none;stroke:blue;stroke-width:0.5;"/>
    <rect x="682.0" y="93.0" width="-1.0" height="15.0" class="space" style="fill:none;stroke:blue;stroke-width:0.5;"/>
    <rect x="717.0" y="93.0" width="-2.0" height="15.0" class="space" style="fill:none;stroke:blue;stroke-width:0.5;"/>
    <rect x="746.0" y="93.0" width="-2.0" height="15.0" class="space" style="fill:none;stroke:blue;stroke-width:0.5;"/>
    <rect x="770.0" y="93.0" width="-3.0" height="15.0" class="space" style="fill:none;stroke:blue;stroke-width:0.5;"/>
    <rect x="788.0" y="93.0" width="-2.0" height="15.0" class="space" style="fill:none;stroke:blue;stroke-width:0.5;"/>
    <rect x="803.0" y="93.0" width="-3.0" height="15.0" class="space" style="fill:none;stroke:blue;stroke-width:0.5;"/>
    <rect x="814.0" y="93.0" width="-3.0" height="15.0" class="space" style="fill:none;stroke:blue;stroke-width:0.5;"/>
    <rect x="823.0" y="93.0" width="-4.0" height="15.0" class="space" style="fill:none;stroke:blue;stroke-width:0.5;"/>
    <rect x="829.0" y="93.0" width="-4.0" height="15.0" class="space" style="fill:none;stroke:blue;stroke-width:0.5;"/>
    <rect x="833.0" y="93.0" width="-3.0" height="15.0" class="space" style="fill:none;stroke:blue;stroke-width:0.5;"/>
    <rect x="837.0" y="93.0" width="-4.0" height="15.0" class="space" style="fill:none;stroke:blue;stroke-width:0.5;"/>
    <rect x="839.0" y="93.0" width="-4.0" height="15.0" class="space" style="fill:none;stroke:blue;stroke-width:0.5;"/>
    <rect x="841.0" y="93.0" width="-4.0" height="15.0" class="space" style="fill:none;stroke:blue;stroke-width:0.5;"/>
    <rect x="842.0" y="93.0" width="-4.0" height="15.0" class="space" style="fill:none;stroke:blue;stroke-width:0.5;"/>
    <rect x="843.0" y="93.0" width="-4.0" height="15.0" class="space" style="fill:none;stroke:blue;stroke-width:0.5;"/>
    <rect x="844.0" y="93.0" width="-4.0" height="15.0" class="space" style="fill:none;stroke:blue;stroke-width:0.5;"/>
    <rect x="844.0" y="93.0" width="-3.0" height="15.0" class="space" style="fill:none;stroke:blue;stroke-width:0.5;"/>
    <rect x="845.0" y="93.0" width="-4.0" height="15.0" class="space" style="fill:none;stroke:blue;stroke-width:0.5;"/>
    <rect x="845.0" y="93.0" width="-4.0" height="15.0" class="space" style="fill:none;stroke:blue;stroke-width:0.5;"/>
    <rect x="845.0" y="93.0" width="-4.0" height="15.0" class="space" style="fill:none;stroke:blue;stroke-width:0.5;"/>
    <rect x="845.0" y="93.0" width="-3.0" height="15.0" class="space" style="fill:none;stroke:blue;stroke-width:0.5;"/>
    <rect x="846.0" y="93.0" width="-4.0" height="15.0" class="space" style="fill:none;stroke:blue;stroke-width:0.5;"/>
    <rect x="846.0" y="93.0" width="-4.0" height="15.0" class="space" style="fill:none;stroke:blue;stroke-width:0.5;"/>
    <rect x="846.0" y="93.0" width="-4.0" height="15.0" class="space" style="fill:none;stroke:blue;stroke-width:0.5;"/>
    <rect x="846.0" y="93.0" width="-4.0" height="15.0" class="space" style="fill:none;stroke:blue;stroke-width:0.5;"/>
    <rect x="846.0" y="93.0" width="-3.0" height="15.0" class="space" style="fill:none;stroke:blue;stroke-width:0.5;"/>
    <rect x="847.0" y="93.0" width="-4.0" height="15.0" class="space" style="fill:none;stroke:blue;stroke-width:0.5;"/>
    <rect x="847.0" y="93.0" width="-4.0" height="15.0" class="space" style="fill:none;stroke:blue;stroke-width:0.5;"/>
    <rect x="847.0" y="93.0" width="-4.0" height="15.0" class="space" style="fill:none;stroke:blue;stroke-width:0.5;"/>
    <rect x="847.0" y="93.0" width="-4.0" height="15.0" class="space" style="fill:none;stroke:blue;stroke-width:0.5;"/>
    <rect x="847.0" y="93.0" width="-4.0" height="15.0" class="space" style="fill:none;stroke:blue;stroke-width:0.5;"/>
    <rect x="847.0" y="93.0" width="-3.0" height="15.0" class="space" style="fill:none;stroke:blue;stroke-width:0.5;"/>
    <rect x="848.0" y="93.0" width="-4.0" height="15.0" class="space" style="fill:none;stroke:blue;stroke-width:0.5;"/>
    <rect x="848.0" y="93.0" width="-4.0" height="15.0" class="space" style="fill:none;stroke:blue;stroke-width:0.5;"/>
    <rect x="848.0" y="93.0" width="-4.0" height="15.0" class="space" style="fill:none;stroke:blue;stroke-width:0.5;"/>
    <rect x="848.0" y="93.0" width="-4.0" height="15.0" class="space" style="fill:none;stroke:blue;stroke-width:0.5;"/>
    <rect x="848.0" y="93.0" width="-4.0" height="15.0" class="space" style="fill:none;stroke:blue;stroke-width:0.5;"/>
    <rect x="848.0" y="93.0" width="-4.0" height="15.0" class="space" style="fill:none;stroke:blue;stroke-width:0.5;"/>
    <rect x="848.0" y="93.0" width="-4.0" height="15.0" class="space" style="fill:none;stroke:blue;stroke-width:0.5;"/>
    <rect x="848.0" y="93.0" width="-4.0" height="15.0" class="space" style="fill:none;stroke:blue;stroke-width:0.5;"/>
    <rect x="848.0" y="93.0" width="-3.0" height="15.0" class="space" style="fill:none;stroke:blue;stroke-width:0.5;"/>
    <rect x="849.0" y="93.0" width="-4.0" height="15.0" class="space" style="fill:none;stroke:blue;stroke-width:0.5;"/>
    <rect x="849.0" y="93.0" width="-4.0" height="15.0" class="space" style="fill:none;stroke:blue;stroke-width:0.5;"/>
    <rect x="849.0" y="93.0" width="-4.0" height="15.0" class="space" style="fill:none;stroke:blue;stroke-width:0.5;"/>
    <rect x="849.0" y="93.0" width="-4.0" height="15.0" class="space" style="fill:none;stroke:blue;stroke-width:0.5;"/>
    <rect x="849.0" y="93.0" width="-4.0" height="15.0" class="space" style="fill:none;stroke:blue;stroke-width:0.5;"/>
    <rect x="849.0" y="93.0" width="-4.0" height="15.0" class="space" style="fill:none;stroke:blue;stroke-width:0.5;"/>
    <rect x="849.0" y="93.0" width="-4.0" height="15.0" class="space" style="fill:none;stroke:blue;stroke-width:0.5;"/>
    <rect x="849.0" y="93.0" width="-4.0" height="15.0" class="space" style="fill:none;stroke:blue;stroke-width:0.5;"/>
    <rect x="849.0" y="93.0" width="-4.0" height="15.0" class="space" style="fill:none;stroke:blue;stroke-width:0.5;"/>
    <rect x="849.0" y="93.0" width="-4.0" height="15.0" class="space" style="fill:none;stroke:blue;stroke-width:0.5;"/>
    <rect x="849.0" y="93.0" width="-4.0" height="15.0" class="space" style="fill:none;stroke:blue;stroke-width:0.5;"/>
    <rect x="849.0" y="93.0" width="-4.0" height="15.0" class="space" style="fill:none;stroke:blue;stroke-width:0.5;"/>
    <rect x="849.0" y="93.0" width="-3.0" height="15.0" class="space" style="fill:none;stroke:blue;stroke-width:0.5;"/>
    <g>
     <rect x="847.0" y="93.0" width="14.0" height="15.0" class="text" style="fill:none;stroke:red;stroke-width:0.5;"/>
     <text x="847.0" y="108.0" achars="O,0" style="fill:black;font-family:helvetica;font-size:10.0px;">O</text>
    </g>
    <g>
     <rect x="863.0" y="93.0" width="12.0" height="15.0" class="text" style="fill:none;stroke:red;stroke-width:0.5;"/>
     <text x="863.0" y="108.0" achars="R" style="fill:black;font-family:helvetica;font-size:10.0px;">R</text>
    </g>
    <rect x="876.0" y="93.0" width="5.0" height="19.0" class="space" style="fill:none;stroke:blue;stroke-width:0.5;"/>
    <g>
     <rect x="882.0" y="93.0" width="5.0" height="19.0" class="text" style="fill:none;stroke:red;stroke-width:0.5;"/>
     <text x="882.0" y="112.0" achars="(,C" style="fill:black;font-family:helvetica;font-size:10.0px;">(</text>
    </g>
    <g>
     <rect x="888.0" y="93.0" width="10.0" height="15.0" class="text" style="fill:none;stroke:red;stroke-width:0.5;"/>
     <text x="888.0" y="108.0" achars="g" style="fill:black;font-family:helvetica;font-size:10.0px;">g</text>
    </g>
    <g>
     <rect x="899.0" y="93.0" width="10.0" height="15.0" class="text" style="fill:none;stroke:red;stroke-width:0.5;"/>
     <text x="899.0" y="108.0" achars="$" style="fill:black;font-family:helvetica;font-size:10.0px;">$</text>
    </g>
    <g>
     <rect x="910.0" y="93.0" width="7.0" height="8.0" class="text" style="fill:none;stroke:red;stroke-width:0.5;"/>
     <text x="910.0" y="101.0" achars="O,0,&quot;" style="fill:black;font-family:helvetica;font-size:10.0px;">O</text>
    </g>
    <g>
     <rect x="913.0" y="93.0" width="10.0" height="16.0" class="text" style="fill:none;stroke:red;stroke-width:0.5;"/>
     <text x="913.0" y="109.0" achars="/" style="fill:black;font-family:helvetica;font-size:10.0px;">/</text>
    </g>
    <g>
     <rect x="920.0" y="100.0" width="6.0" height="9.0" class="text" style="fill:none;stroke:red;stroke-width:0.5;"/>
     <text x="920.0" y="109.0" achars="o,0" style="fill:black;font-family:helvetica;font-size:10.0px;">o</text>
    </g>
    <rect x="927.0" y="93.0" width="5.0" height="15.0" class="space" style="fill:none;stroke:blue;stroke-width:0.5;"/>
    <g>
     <rect x="933.0" y="93.0" width="13.0" height="15.0" class="text" style="fill:none;stroke:red;stroke-width:0.5;"/>
     <text x="933.0" y="108.0" achars="C" style="fill:black;font-family:helvetica;font-size:10.0px;">C</text>
    </g>
    <g>
     <rect x="948.0" y="93.0" width="2.0" height="15.0" class="text" style="fill:none;stroke:red;stroke-width:0.5;"/>
     <text x="948.0" y="108.0" achars="l,I,|,1" style="fill:black;font-family:helvetica;font-size:10.0px;">l</text>
    </g>
    <g>
     <rect x="953.0" y="93.0" width="5.0" height="19.0" class="text" style="fill:none;stroke:red;stroke-width:0.5;"/>
     <text x="953.0" y="112.0" achars=")" style="fill:black;font-family:helvetica;font-size:10.0px;">)</text>
    </g>
    <rect x="959.0" y="93.0" width="8.0" height="15.0" class="space" style="fill:none;stroke:blue;stroke-width:0.5;"/>
    <rect x="979.0" y="93.0" width="8.0" height="15.0" class="space" style="fill:none;stroke:blue;stroke-width:0.5;"/>
    <rect x="1007.0" y="93.0" width="6.0" height="15.0" class="space" style="fill:none;stroke:blue;stroke-width:0.5;"/>
    <rect x="1034.0" y="93.0" width="3.0" height="15.0" class="space" style="fill:none;stroke:blue;stroke-width:0.5;"/>
    <rect x="1054.0" y="93.0" width="0.0" height="15.0" class="space" style="fill:none;stroke:blue;stroke-width:0.5;"/>
    <rect x="1066.0" y="93.0" width="-2.0" height="15.0" class="space" style="fill:none;stroke:blue;stroke-width:0.5;"/>
    <rect x="1071.0" y="93.0" width="-3.0" height="15.0" class="space" style="fill:none;stroke:blue;stroke-width:0.5;"/>
    <rect x="1073.0" y="93.0" width="-3.0" height="15.0" class="space" style="fill:none;stroke:blue;stroke-width:0.5;"/>
    <rect x="1074.0" y="93.0" width="-3.0" height="15.0" class="space" style="fill:none;stroke:blue;stroke-width:0.5;"/>
    <g>
     <rect x="1072.0" y="93.0" width="18.0" height="15.0" class="text" style="fill:none;stroke:red;stroke-width:0.5;"/>
     <text x="1072.0" y="108.0" achars="W" style="fill:black;font-family:helvetica;font-size:10.0px;">W</text>
    </g>
    <g>
     <rect x="1092.0" y="97.0" width="10.0" height="11.0" class="text" style="fill:none;stroke:red;stroke-width:0.5;"/>
     <text x="1092.0" y="108.0" achars="e,g" style="fill:black;font-family:helvetica;font-size:10.0px;">e</text>
    </g>
    <g>
     <rect x="1103.0" y="93.0" width="3.0" height="15.0" class="text" style="fill:none;stroke:red;stroke-width:0.5;"/>
     <text x="1103.0" y="108.0" achars="i,j" style="fill:black;font-family:helvetica;font-size:10.0px;">i</text>
    </g>
    <g>
     <rect x="1107.0" y="97.0" width="10.0" height="15.0" class="text" style="fill:none;stroke:red;stroke-width:0.5;"/>
     <text x="1107.0" y="112.0" achars="g,9" style="fill:black;font-family:helvetica;font-size:10.0px;">g</text>
    </g>
    <g>
     <rect x="1118.0" y="93.0" width="9.0" height="15.0" class="text" style="fill:none;stroke:red;stroke-width:0.5;"/>
     <text x="1118.0" y="108.0" achars="h" style="fill:black;font-family:helvetica;font-size:10.0px;">h</text>
    </g>
    <g>
     <rect x="1129.0" y="94.0" width="5.0" height="14.0" class="text" style="fill:none;stroke:red;stroke-width:0.5;"/>
     <text x="1129.0" y="108.0" achars="t,f" style="fill:black;font-family:helvetica;font-size:10.0px;">t</text>
    </g>
   </g>
  </g>
 </g>
</svg>
