<?xml version="1.0" encoding="UTF-8"?>
<svg height="1395.0" width="1276.0" xmlns="http://www.w3.org/2000/svg">
 <g>
  <g class="horizontallines">
   <line x1="1.0" y1="91.0" x2="1266.0" y2="91.0" style="stroke:red;stroke-width:3.0;"/>
   <line x1="0.0" y1="1337.0" x2="1266.0" y2="1337.0" style="stroke:red;stroke-width:4.0;"/>
  </g>
  <g class="verticallines">
   <line x1="554.0" y1="91.0" x2="554.0" y2="105.0" style="stroke:blue;stroke-width:4.0;"/>
   <line x1="554.0" y1="112.0" x2="554.0" y2="125.0" style="stroke:blue;stroke-width:4.0;"/>
   <line x1="554.0" y1="132.0" x2="554.0" y2="147.0" style="stroke:blue;stroke-width:4.0;"/>
   <line x1="554.0" y1="152.0" x2="554.0" y2="166.0" style="stroke:blue;stroke-width:4.0;"/>
   <line x1="554.0" y1="174.0" x2="554.0" y2="221.0" style="stroke:blue;stroke-width:4.0;"/>
   <line x1="554.0" y1="223.0" x2="554.0" y2="311.0" style="stroke:blue;stroke-width:4.0;"/>
   <line x1="554.0" y1="319.0" x2="554.0" y2="351.0" style="stroke:blue;stroke-width:4.0;"/>
   <line x1="554.0" y1="359.0" x2="554.0" y2="414.0" style="stroke:blue;stroke-width:4.0;"/>
   <line x1="554.0" y1="418.0" x2="554.0" y2="433.0" style="stroke:blue;stroke-width:4.0;"/>
   <line x1="554.0" y1="441.0" x2="554.0" y2="519.0" style="stroke:blue;stroke-width:4.0;"/>
   <line x1="554.0" y1="523.0" x2="554.0" y2="538.0" style="stroke:blue;stroke-width:4.0;"/>
   <line x1="554.0" y1="545.0" x2="554.0" y2="558.0" style="stroke:blue;stroke-width:4.0;"/>
   <line x1="554.0" y1="565.0" x2="554.0" y2="578.0" style="stroke:blue;stroke-width:4.0;"/>
   <line x1="554.0" y1="584.0" x2="554.0" y2="639.0" style="stroke:blue;stroke-width:4.0;"/>
   <line x1="554.0" y1="648.0" x2="554.0" y2="660.0" style="stroke:blue;stroke-width:4.0;"/>
   <line x1="554.0" y1="668.0" x2="554.0" y2="683.0" style="stroke:blue;stroke-width:4.0;"/>
   <line x1="554.0" y1="688.0" x2="554.0" y2="702.0" style="stroke:blue;stroke-width:4.0;"/>
   <line x1="554.0" y1="710.0" x2="554.0" y2="722.0" style="stroke:blue;stroke-width:4.0;"/>
   <line x1="554.0" y1="730.0" x2="554.0" y2="743.0" style="stroke:blue;stroke-width:4.0;"/>
   <line x1="554.0" y1="750.0" x2="554.0" y2="764.0" style="stroke:blue;stroke-width:4.0;"/>
   <line x1="554.0" y1="772.0" x2="554.0" y2="784.0" style="stroke:blue;stroke-width:4.0;"/>
   <line x1="554.0" y1="791.0" x2="554.0" y2="804.0" style="stroke:blue;stroke-width:4.0;"/>
   <line x1="554.0" y1="813.0" x2="554.0" y2="827.0" style="stroke:blue;stroke-width:4.0;"/>
   <line x1="554.0" y1="832.0" x2="554.0" y2="846.0" style="stroke:blue;stroke-width:4.0;"/>
   <line x1="554.0" y1="854.0" x2="554.0" y2="866.0" style="stroke:blue;stroke-width:4.0;"/>
   <line x1="554.0" y1="873.0" x2="554.0" y2="887.0" style="stroke:blue;stroke-width:4.0;"/>
   <line x1="554.0" y1="892.0" x2="554.0" y2="909.0" style="stroke:blue;stroke-width:4.0;"/>
   <line x1="554.0" y1="914.0" x2="554.0" y2="929.0" style="stroke:blue;stroke-width:4.0;"/>
   <line x1="554.0" y1="936.0" x2="554.0" y2="950.0" style="stroke:blue;stroke-width:4.0;"/>
   <line x1="554.0" y1="957.0" x2="554.0" y2="969.0" style="stroke:blue;stroke-width:4.0;"/>
   <line x1="554.0" y1="976.0" x2="554.0" y2="991.0" style="stroke:blue;stroke-width:4.0;"/>
   <line x1="554.0" y1="997.0" x2="554.0" y2="1011.0" style="stroke:blue;stroke-width:4.0;"/>
   <line x1="554.0" y1="1019.0" x2="554.0" y2="1055.0" style="stroke:blue;stroke-width:4.0;"/>
   <line x1="554.0" y1="1057.0" x2="554.0" y2="1093.0" style="stroke:blue;stroke-width:4.0;"/>
   <line x1="554.0" y1="1101.0" x2="554.0" y2="1118.0" style="stroke:blue;stroke-width:4.0;"/>
   <line x1="554.0" y1="1121.0" x2="554.0" y2="1135.0" style="stroke:blue;stroke-width:4.0;"/>
   <line x1="554.0" y1="1142.0" x2="554.0" y2="1195.0" style="stroke:blue;stroke-width:4.0;"/>
   <line x1="554.0" y1="1204.0" x2="554.0" y2="1241.0" style="stroke:blue;stroke-width:4.0;"/>
   <line x1="554.0" y1="1246.0" x2="554.0" y2="1259.0" style="stroke:blue;stroke-width:4.0;"/>
   <line x1="554.0" y1="1266.0" x2="554.0" y2="1278.0" style="stroke:blue;stroke-width:4.0;"/>
   <line x1="554.0" y1="1286.0" x2="554.0" y2="1300.0" style="stroke:blue;stroke-width:4.0;"/>
   <line x1="554.0" y1="1306.0" x2="554.0" y2="1320.0" style="stroke:blue;stroke-width:4.0;"/>
   <line x1="554.0" y1="1328.0" x2="554.0" y2="1340.0" style="stroke:blue;stroke-width:4.0;"/>
   <line x1="590.0" y1="91.0" x2="590.0" y2="1361.0" style="stroke:blue;stroke-width:4.0;"/>
   <line x1="590.0" y1="1372.0" x2="590.0" y2="1385.0" style="stroke:blue;stroke-width:4.0;"/>
   <line x1="994.0" y1="50.0" x2="994.0" y2="67.0" style="stroke:blue;stroke-width:1.0;"/>
   <line x1="994.0" y1="134.0" x2="994.0" y2="153.0" style="stroke:blue;stroke-width:1.0;"/>
   <line x1="994.0" y1="162.0" x2="994.0" y2="182.0" style="stroke:blue;stroke-width:1.0;"/>
   <line x1="994.0" y1="190.0" x2="994.0" y2="211.0" style="stroke:blue;stroke-width:1.0;"/>
   <line x1="994.0" y1="216.0" x2="994.0" y2="239.0" style="stroke:blue;stroke-width:1.0;"/>
   <line x1="994.0" y1="246.0" x2="994.0" y2="267.0" style="stroke:blue;stroke-width:1.0;"/>
   <line x1="994.0" y1="273.0" x2="994.0" y2="293.0" style="stroke:blue;stroke-width:1.0;"/>
   <line x1="994.0" y1="301.0" x2="994.0" y2="321.0" style="stroke:blue;stroke-width:1.0;"/>
   <line x1="994.0" y1="328.0" x2="994.0" y2="350.0" style="stroke:blue;stroke-width:1.0;"/>
   <line x1="994.0" y1="357.0" x2="994.0" y2="377.0" style="stroke:blue;stroke-width:1.0;"/>
   <line x1="994.0" y1="384.0" x2="994.0" y2="407.0" style="stroke:blue;stroke-width:1.0;"/>
   <line x1="994.0" y1="412.0" x2="994.0" y2="432.0" style="stroke:blue;stroke-width:1.0;"/>
   <line x1="994.0" y1="440.0" x2="994.0" y2="461.0" style="stroke:blue;stroke-width:1.0;"/>
   <line x1="994.0" y1="468.0" x2="994.0" y2="487.0" style="stroke:blue;stroke-width:1.0;"/>
   <line x1="994.0" y1="496.0" x2="994.0" y2="517.0" style="stroke:blue;stroke-width:1.0;"/>
   <line x1="994.0" y1="580.0" x2="994.0" y2="601.0" style="stroke:blue;stroke-width:1.0;"/>
   <line x1="994.0" y1="606.0" x2="994.0" y2="628.0" style="stroke:blue;stroke-width:1.0;"/>
   <line x1="994.0" y1="634.0" x2="994.0" y2="656.0" style="stroke:blue;stroke-width:1.0;"/>
   <line x1="994.0" y1="663.0" x2="994.0" y2="685.0" style="stroke:blue;stroke-width:1.0;"/>
   <line x1="994.0" y1="690.0" x2="994.0" y2="712.0" style="stroke:blue;stroke-width:1.0;"/>
   <line x1="994.0" y1="719.0" x2="994.0" y2="740.0" style="stroke:blue;stroke-width:1.0;"/>
   <line x1="994.0" y1="747.0" x2="994.0" y2="766.0" style="stroke:blue;stroke-width:1.0;"/>
   <line x1="994.0" y1="774.0" x2="994.0" y2="796.0" style="stroke:blue;stroke-width:1.0;"/>
   <line x1="994.0" y1="802.0" x2="994.0" y2="824.0" style="stroke:blue;stroke-width:1.0;"/>
   <line x1="994.0" y1="830.0" x2="994.0" y2="852.0" style="stroke:blue;stroke-width:1.0;"/>
   <line x1="994.0" y1="858.0" x2="994.0" y2="879.0" style="stroke:blue;stroke-width:1.0;"/>
   <line x1="994.0" y1="886.0" x2="994.0" y2="906.0" style="stroke:blue;stroke-width:1.0;"/>
   <line x1="994.0" y1="914.0" x2="994.0" y2="934.0" style="stroke:blue;stroke-width:1.0;"/>
   <line x1="994.0" y1="942.0" x2="994.0" y2="963.0" style="stroke:blue;stroke-width:1.0;"/>
   <line x1="994.0" y1="968.0" x2="994.0" y2="990.0" style="stroke:blue;stroke-width:1.0;"/>
   <line x1="994.0" y1="998.0" x2="994.0" y2="1018.0" style="stroke:blue;stroke-width:1.0;"/>
   <line x1="994.0" y1="1024.0" x2="994.0" y2="1047.0" style="stroke:blue;stroke-width:1.0;"/>
   <line x1="994.0" y1="1054.0" x2="994.0" y2="1074.0" style="stroke:blue;stroke-width:1.0;"/>
   <line x1="994.0" y1="1080.0" x2="994.0" y2="1100.0" style="stroke:blue;stroke-width:1.0;"/>
   <line x1="994.0" y1="1109.0" x2="994.0" y2="1129.0" style="stroke:blue;stroke-width:1.0;"/>
   <line x1="994.0" y1="1136.0" x2="994.0" y2="1159.0" style="stroke:blue;stroke-width:1.0;"/>
   <line x1="994.0" y1="1164.0" x2="994.0" y2="1184.0" style="stroke:blue;stroke-width:1.0;"/>
   <line x1="994.0" y1="1220.0" x2="994.0" y2="1241.0" style="stroke:blue;stroke-width:1.0;"/>
   <line x1="994.0" y1="1277.0" x2="994.0" y2="1297.0" style="stroke:blue;stroke-width:1.0;"/>
  </g>
 </g>
</svg>
