<?xml version="1.0" encoding="UTF-8"?>
<svg height="998.0" width="1427.0" xmlns="http://www.w3.org/2000/svg">
 <g>
  <g class="horizontallines">
   <line x1="9.0" y1="2.0" x2="1414.0" y2="2.0" style="stroke:red;stroke-width:1.0;"/>
   <line x1="47.0" y1="48.0" x2="1383.0" y2="48.0" style="stroke:red;stroke-width:1.0;"/>
   <line x1="46.0" y1="276.0" x2="1383.0" y2="276.0" style="stroke:red;stroke-width:2.0;"/>
   <line x1="45.0" y1="885.0" x2="1383.0" y2="885.0" style="stroke:red;stroke-width:2.0;"/>
   <line x1="48.0" y1="889.0" x2="495.0" y2="889.0" style="stroke:red;stroke-width:1.0;"/>
   <line x1="504.0" y1="889.0" x2="696.0" y2="889.0" style="stroke:red;stroke-width:1.0;"/>
   <line x1="704.0" y1="889.0" x2="895.0" y2="889.0" style="stroke:red;stroke-width:1.0;"/>
   <line x1="904.0" y1="889.0" x2="1383.0" y2="889.0" style="stroke:red;stroke-width:1.0;"/>
   <line x1="8.0" y1="984.0" x2="1415.0" y2="984.0" style="stroke:red;stroke-width:1.0;"/>
   <line x1="9.0" y1="986.0" x2="1415.0" y2="986.0" style="stroke:red;stroke-width:1.0;"/>
   <line x1="8.0" y1="988.0" x2="1417.0" y2="988.0" style="stroke:red;stroke-width:1.0;"/>
  </g>
  <g class="verticallines">
   <line x1="1.0" y1="8.0" x2="1.0" y2="983.0" style="stroke:blue;stroke-width:2.0;"/>
   <line x1="43.0" y1="56.0" x2="43.0" y2="270.0" style="stroke:blue;stroke-width:1.0;"/>
   <line x1="43.0" y1="281.0" x2="43.0" y2="879.0" style="stroke:blue;stroke-width:1.0;"/>
   <line x1="698.0" y1="276.0" x2="698.0" y2="900.0" style="stroke:blue;stroke-width:3.0;"/>
   <line x1="1385.0" y1="56.0" x2="1385.0" y2="881.0" style="stroke:blue;stroke-width:1.0;"/>
  </g>
 </g>
</svg>
