<?xml version="1.0" encoding="UTF-8"?>
<svg height="60.0" width="1768.0" xmlns="http://www.w3.org/2000/svg">
 <g class="page">
  <g class="block">
   <g class="line">
    <rect x="12.0" y="0.0" width="1746.0" height="19.0" class="space" style="fill:none;stroke:blue;stroke-width:0.5;"/>
    <g>
     <rect x="12.0" y="0.0" width="1746.0" height="19.0" class="text" style="fill:none;stroke:red;stroke-width:0.5;"/>
     <text x="12.0" y="19.0" achars="" style="fill:black;font-family:helvetica;font-size:10.0px;">?</text>
    </g>
   </g>
   <g class="line">
    <rect x="391.0" y="42.0" width="8.0" height="4.0" class="space" style="fill:none;stroke:blue;stroke-width:0.5;"/>
    <g>
     <rect x="391.0" y="42.0" width="8.0" height="4.0" class="text" style="fill:none;stroke:red;stroke-width:0.5;"/>
     <text x="391.0" y="46.0" achars="-,t" style="fill:black;font-family:helvetica;font-size:10.0px;">-</text>
    </g>
    <g>
     <rect x="401.0" y="34.0" width="6.0" height="15.0" class="text" style="fill:none;stroke:red;stroke-width:0.5;"/>
     <text x="401.0" y="49.0" achars="1" style="fill:black;font-family:helvetica;font-size:10.0px;">1</text>
    </g>
    <rect x="408.0" y="34.0" width="4.0" height="15.0" class="space" style="fill:none;stroke:blue;stroke-width:0.5;"/>
    <g>
     <rect x="413.0" y="34.0" width="6.0" height="15.0" class="text" style="fill:none;stroke:red;stroke-width:0.5;"/>
     <text x="413.0" y="49.0" achars="1" style="fill:black;font-family:helvetica;font-size:10.0px;">1</text>
    </g>
    <rect x="420.0" y="47.0" width="3.0" height="3.0" class="space" style="fill:none;stroke:blue;stroke-width:0.5;"/>
    <g>
     <rect x="424.0" y="47.0" width="3.0" height="3.0" class="text" style="fill:none;stroke:red;stroke-width:0.5;"/>
     <text x="424.0" y="50.0" achars=".,ยง" style="fill:black;font-family:helvetica;font-size:10.0px;">.</text>
    </g>
    <rect x="428.0" y="34.0" width="3.0" height="15.0" class="space" style="fill:none;stroke:blue;stroke-width:0.5;"/>
    <g>
     <rect x="432.0" y="34.0" width="6.0" height="15.0" class="text" style="fill:none;stroke:red;stroke-width:0.5;"/>
     <text x="432.0" y="49.0" achars="1" style="fill:black;font-family:helvetica;font-size:10.0px;">1</text>
    </g>
    <rect x="439.0" y="33.0" width="6.0" height="17.0" class="space" style="fill:none;stroke:blue;stroke-width:0.5;"/>
    <rect x="456.0" y="33.0" width="7.0" height="17.0" class="space" style="fill:none;stroke:blue;stroke-width:0.5;"/>
    <rect x="484.0" y="33.0" width="6.0" height="17.0" class="space" style="fill:none;stroke:blue;stroke-width:0.5;"/>
    <rect x="519.0" y="33.0" width="5.0" height="17.0" class="space" style="fill:none;stroke:blue;stroke-width:0.5;"/>
    <rect x="559.0" y="33.0" width="4.0" height="17.0" class="space" style="fill:none;stroke:blue;stroke-width:0.5;"/>
    <rect x="601.0" y="33.0" width="4.0" height="17.0" class="space" style="fill:none;stroke:blue;stroke-width:0.5;"/>
    <rect x="644.0" y="33.0" width="2.0" height="17.0" class="space" style="fill:none;stroke:blue;stroke-width:0.5;"/>
    <rect x="684.0" y="33.0" width="1.0" height="17.0" class="space" style="fill:none;stroke:blue;stroke-width:0.5;"/>
    <rect x="720.0" y="33.0" width="0.0" height="17.0" class="space" style="fill:none;stroke:blue;stroke-width:0.5;"/>
    <rect x="751.0" y="33.0" width="-1.0" height="17.0" class="space" style="fill:none;stroke:blue;stroke-width:0.5;"/>
    <rect x="777.0" y="33.0" width="-2.0" height="17.0" class="space" style="fill:none;stroke:blue;stroke-width:0.5;"/>
    <rect x="797.0" y="33.0" width="-2.0" height="17.0" class="space" style="fill:none;stroke:blue;stroke-width:0.5;"/>
    <rect x="813.0" y="33.0" width="-3.0" height="17.0" class="space" style="fill:none;stroke:blue;stroke-width:0.5;"/>
    <rect x="824.0" y="33.0" width="-3.0" height="17.0" class="space" style="fill:none;stroke:blue;stroke-width:0.5;"/>
    <rect x="832.0" y="33.0" width="-3.0" height="17.0" class="space" style="fill:none;stroke:blue;stroke-width:0.5;"/>
    <rect x="837.0" y="33.0" width="-3.0" height="17.0" class="space" style="fill:none;stroke:blue;stroke-width:0.5;"/>
    <rect x="841.0" y="33.0" width="-4.0" height="17.0" class="space" style="fill:none;stroke:blue;stroke-width:0.5;"/>
    <rect x="843.0" y="33.0" width="-4.0" height="17.0" class="space" style="fill:none;stroke:blue;stroke-width:0.5;"/>
    <rect x="844.0" y="33.0" width="-3.0" height="17.0" class="space" style="fill:none;stroke:blue;stroke-width:0.5;"/>
    <rect x="846.0" y="33.0" width="-4.0" height="17.0" class="space" style="fill:none;stroke:blue;stroke-width:0.5;"/>
    <rect x="846.0" y="33.0" width="-4.0" height="17.0" class="space" style="fill:none;stroke:blue;stroke-width:0.5;"/>
    <rect x="846.0" y="33.0" width="-3.0" height="17.0" class="space" style="fill:none;stroke:blue;stroke-width:0.5;"/>
    <rect x="847.0" y="33.0" width="-4.0" height="17.0" class="space" style="fill:none;stroke:blue;stroke-width:0.5;"/>
    <rect x="847.0" y="33.0" width="-4.0" height="17.0" class="space" style="fill:none;stroke:blue;stroke-width:0.5;"/>
    <rect x="847.0" y="33.0" width="-4.0" height="17.0" class="space" style="fill:none;stroke:blue;stroke-width:0.5;"/>
    <rect x="847.0" y="33.0" width="-3.0" height="17.0" class="space" style="fill:none;stroke:blue;stroke-width:0.5;"/>
    <rect x="848.0" y="33.0" width="-4.0" height="17.0" class="space" style="fill:none;stroke:blue;stroke-width:0.5;"/>
    <rect x="848.0" y="33.0" width="-4.0" height="17.0" class="space" style="fill:none;stroke:blue;stroke-width:0.5;"/>
    <rect x="848.0" y="33.0" width="-4.0" height="17.0" class="space" style="fill:none;stroke:blue;stroke-width:0.5;"/>
    <rect x="848.0" y="33.0" width="-4.0" height="17.0" class="space" style="fill:none;stroke:blue;stroke-width:0.5;"/>
    <rect x="848.0" y="33.0" width="-3.0" height="17.0" class="space" style="fill:none;stroke:blue;stroke-width:0.5;"/>
    <rect x="849.0" y="33.0" width="-4.0" height="17.0" class="space" style="fill:none;stroke:blue;stroke-width:0.5;"/>
    <rect x="849.0" y="33.0" width="-4.0" height="17.0" class="space" style="fill:none;stroke:blue;stroke-width:0.5;"/>
    <rect x="849.0" y="33.0" width="-4.0" height="17.0" class="space" style="fill:none;stroke:blue;stroke-width:0.5;"/>
    <rect x="849.0" y="33.0" width="-4.0" height="17.0" class="space" style="fill:none;stroke:blue;stroke-width:0.5;"/>
    <rect x="849.0" y="33.0" width="-4.0" height="17.0" class="space" style="fill:none;stroke:blue;stroke-width:0.5;"/>
    <rect x="849.0" y="33.0" width="-4.0" height="17.0" class="space" style="fill:none;stroke:blue;stroke-width:0.5;"/>
    <rect x="849.0" y="33.0" width="-3.0" height="17.0" class="space" style="fill:none;stroke:blue;stroke-width:0.5;"/>
    <g>
     <rect x="847.0" y="33.0" width="12.0" height="17.0" class="text" style="fill:none;stroke:red;stroke-width:0.5;"/>
     <text x="847.0" y="50.0" achars="O,0" style="fill:black;font-family:helvetica;font-size:10.0px;">O</text>
    </g>
    <rect x="860.0" y="34.0" width="6.0" height="15.0" class="space" style="fill:none;stroke:blue;stroke-width:0.5;"/>
    <rect x="877.0" y="34.0" width="6.0" height="15.0" class="space" style="fill:none;stroke:blue;stroke-width:0.5;"/>
    <rect x="903.0" y="34.0" width="6.0" height="15.0" class="space" style="fill:none;stroke:blue;stroke-width:0.5;"/>
    <rect x="937.0" y="34.0" width="6.0" height="15.0" class="space" style="fill:none;stroke:blue;stroke-width:0.5;"/>
    <rect x="977.0" y="34.0" width="5.0" height="15.0" class="space" style="fill:none;stroke:blue;stroke-width:0.5;"/>
    <rect x="1020.0" y="34.0" width="3.0" height="15.0" class="space" style="fill:none;stroke:blue;stroke-width:0.5;"/>
    <rect x="1062.0" y="34.0" width="2.0" height="15.0" class="space" style="fill:none;stroke:blue;stroke-width:0.5;"/>
    <rect x="1102.0" y="34.0" width="1.0" height="15.0" class="space" style="fill:none;stroke:blue;stroke-width:0.5;"/>
    <rect x="1138.0" y="34.0" width="0.0" height="15.0" class="space" style="fill:none;stroke:blue;stroke-width:0.5;"/>
    <rect x="1169.0" y="34.0" width="0.0" height="15.0" class="space" style="fill:none;stroke:blue;stroke-width:0.5;"/>
    <rect x="1196.0" y="34.0" width="-2.0" height="15.0" class="space" style="fill:none;stroke:blue;stroke-width:0.5;"/>
    <rect x="1216.0" y="34.0" width="-2.0" height="15.0" class="space" style="fill:none;stroke:blue;stroke-width:0.5;"/>
    <rect x="1232.0" y="34.0" width="-2.0" height="15.0" class="space" style="fill:none;stroke:blue;stroke-width:0.5;"/>
    <rect x="1244.0" y="34.0" width="-3.0" height="15.0" class="space" style="fill:none;stroke:blue;stroke-width:0.5;"/>
    <rect x="1252.0" y="34.0" width="-3.0" height="15.0" class="space" style="fill:none;stroke:blue;stroke-width:0.5;"/>
    <rect x="1258.0" y="34.0" width="-3.0" height="15.0" class="space" style="fill:none;stroke:blue;stroke-width:0.5;"/>
    <rect x="1262.0" y="34.0" width="-4.0" height="15.0" class="space" style="fill:none;stroke:blue;stroke-width:0.5;"/>
    <rect x="1264.0" y="34.0" width="-3.0" height="15.0" class="space" style="fill:none;stroke:blue;stroke-width:0.5;"/>
    <rect x="1266.0" y="34.0" width="-4.0" height="15.0" class="space" style="fill:none;stroke:blue;stroke-width:0.5;"/>
    <rect x="1267.0" y="34.0" width="-4.0" height="15.0" class="space" style="fill:none;stroke:blue;stroke-width:0.5;"/>
    <rect x="1268.0" y="34.0" width="-4.0" height="15.0" class="space" style="fill:none;stroke:blue;stroke-width:0.5;"/>
    <rect x="1268.0" y="34.0" width="-4.0" height="15.0" class="space" style="fill:none;stroke:blue;stroke-width:0.5;"/>
    <rect x="1268.0" y="34.0" width="-3.0" height="15.0" class="space" style="fill:none;stroke:blue;stroke-width:0.5;"/>
    <rect x="1269.0" y="34.0" width="-4.0" height="15.0" class="space" style="fill:none;stroke:blue;stroke-width:0.5;"/>
    <rect x="1269.0" y="34.0" width="-4.0" height="15.0" class="space" style="fill:none;stroke:blue;stroke-width:0.5;"/>
    <rect x="1269.0" y="34.0" width="-3.0" height="15.0" class="space" style="fill:none;stroke:blue;stroke-width:0.5;"/>
    <rect x="1270.0" y="34.0" width="-4.0" height="15.0" class="space" style="fill:none;stroke:blue;stroke-width:0.5;"/>
    <rect x="1270.0" y="34.0" width="-4.0" height="15.0" class="space" style="fill:none;stroke:blue;stroke-width:0.5;"/>
    <rect x="1270.0" y="34.0" width="-4.0" height="15.0" class="space" style="fill:none;stroke:blue;stroke-width:0.5;"/>
    <rect x="1270.0" y="34.0" width="-4.0" height="15.0" class="space" style="fill:none;stroke:blue;stroke-width:0.5;"/>
    <rect x="1270.0" y="34.0" width="-4.0" height="15.0" class="space" style="fill:none;stroke:blue;stroke-width:0.5;"/>
    <rect x="1270.0" y="34.0" width="-3.0" height="15.0" class="space" style="fill:none;stroke:blue;stroke-width:0.5;"/>
    <rect x="1271.0" y="34.0" width="-4.0" height="15.0" class="space" style="fill:none;stroke:blue;stroke-width:0.5;"/>
    <rect x="1271.0" y="34.0" width="-4.0" height="15.0" class="space" style="fill:none;stroke:blue;stroke-width:0.5;"/>
    <rect x="1271.0" y="34.0" width="-4.0" height="15.0" class="space" style="fill:none;stroke:blue;stroke-width:0.5;"/>
    <rect x="1271.0" y="34.0" width="-4.0" height="15.0" class="space" style="fill:none;stroke:blue;stroke-width:0.5;"/>
    <rect x="1271.0" y="34.0" width="-4.0" height="15.0" class="space" style="fill:none;stroke:blue;stroke-width:0.5;"/>
    <rect x="1271.0" y="34.0" width="-4.0" height="15.0" class="space" style="fill:none;stroke:blue;stroke-width:0.5;"/>
    <rect x="1271.0" y="34.0" width="-3.0" height="15.0" class="space" style="fill:none;stroke:blue;stroke-width:0.5;"/>
    <g>
     <rect x="1269.0" y="34.0" width="6.0" height="15.0" class="text" style="fill:none;stroke:red;stroke-width:0.5;"/>
     <text x="1269.0" y="49.0" achars="1" style="fill:black;font-family:helvetica;font-size:10.0px;">1</text>
    </g>
    <rect x="1276.0" y="34.0" width="4.0" height="15.0" class="space" style="fill:none;stroke:blue;stroke-width:0.5;"/>
    <g>
     <rect x="1281.0" y="34.0" width="6.0" height="15.0" class="text" style="fill:none;stroke:red;stroke-width:0.5;"/>
     <text x="1281.0" y="49.0" achars="1" style="fill:black;font-family:helvetica;font-size:10.0px;">1</text>
    </g>
    <rect x="1288.0" y="47.0" width="3.0" height="3.0" class="space" style="fill:none;stroke:blue;stroke-width:0.5;"/>
    <g>
     <rect x="1292.0" y="47.0" width="4.0" height="3.0" class="text" style="fill:none;stroke:red;stroke-width:0.5;"/>
     <text x="1292.0" y="50.0" achars=".,ยง,_" style="fill:black;font-family:helvetica;font-size:10.0px;">.</text>
    </g>
    <g>
     <rect x="1300.0" y="33.0" width="6.0" height="16.0" class="text" style="fill:none;stroke:red;stroke-width:0.5;"/>
     <text x="1300.0" y="49.0" achars="" style="fill:black;font-family:helvetica;font-size:10.0px;">?</text>
    </g>
   </g>
  </g>
 </g>
</svg>
