<?xml version="1.0" encoding="UTF-8"?>
<svg height="1127.0" width="1274.0" xmlns="http://www.w3.org/2000/svg">
 <g>
  <g class="horizontallines">
   <line x1="3.0" y1="118.0" x2="1264.0" y2="118.0" style="stroke:red;stroke-width:2.0;"/>
   <line x1="3.0" y1="1066.0" x2="1264.0" y2="1066.0" style="stroke:red;stroke-width:3.0;"/>
  </g>
  <g class="verticallines">
   <line x1="579.0" y1="118.0" x2="579.0" y2="1084.0" style="stroke:blue;stroke-width:4.0;"/>
   <line x1="579.0" y1="1097.0" x2="579.0" y2="1117.0" style="stroke:blue;stroke-width:4.0;"/>
   <line x1="620.0" y1="133.0" x2="620.0" y2="145.0" style="stroke:blue;stroke-width:4.0;"/>
   <line x1="620.0" y1="152.0" x2="620.0" y2="164.0" style="stroke:blue;stroke-width:4.0;"/>
   <line x1="620.0" y1="170.0" x2="620.0" y2="182.0" style="stroke:blue;stroke-width:4.0;"/>
   <line x1="620.0" y1="189.0" x2="620.0" y2="201.0" style="stroke:blue;stroke-width:4.0;"/>
   <line x1="620.0" y1="226.0" x2="620.0" y2="237.0" style="stroke:blue;stroke-width:4.0;"/>
   <line x1="620.0" y1="244.0" x2="620.0" y2="255.0" style="stroke:blue;stroke-width:4.0;"/>
   <line x1="620.0" y1="263.0" x2="620.0" y2="371.0" style="stroke:blue;stroke-width:4.0;"/>
   <line x1="620.0" y1="374.0" x2="620.0" y2="408.0" style="stroke:blue;stroke-width:4.0;"/>
   <line x1="620.0" y1="410.0" x2="620.0" y2="439.0" style="stroke:blue;stroke-width:4.0;"/>
   <line x1="620.0" y1="448.0" x2="620.0" y2="459.0" style="stroke:blue;stroke-width:4.0;"/>
   <line x1="620.0" y1="466.0" x2="620.0" y2="478.0" style="stroke:blue;stroke-width:4.0;"/>
   <line x1="620.0" y1="483.0" x2="620.0" y2="495.0" style="stroke:blue;stroke-width:4.0;"/>
   <line x1="620.0" y1="502.0" x2="620.0" y2="514.0" style="stroke:blue;stroke-width:4.0;"/>
   <line x1="620.0" y1="521.0" x2="620.0" y2="533.0" style="stroke:blue;stroke-width:4.0;"/>
   <line x1="620.0" y1="539.0" x2="620.0" y2="551.0" style="stroke:blue;stroke-width:4.0;"/>
   <line x1="620.0" y1="558.0" x2="620.0" y2="572.0" style="stroke:blue;stroke-width:4.0;"/>
   <line x1="620.0" y1="576.0" x2="620.0" y2="588.0" style="stroke:blue;stroke-width:4.0;"/>
   <line x1="620.0" y1="594.0" x2="620.0" y2="625.0" style="stroke:blue;stroke-width:4.0;"/>
   <line x1="620.0" y1="632.0" x2="620.0" y2="643.0" style="stroke:blue;stroke-width:4.0;"/>
   <line x1="620.0" y1="650.0" x2="620.0" y2="663.0" style="stroke:blue;stroke-width:4.0;"/>
   <line x1="620.0" y1="668.0" x2="620.0" y2="681.0" style="stroke:blue;stroke-width:4.0;"/>
   <line x1="620.0" y1="687.0" x2="620.0" y2="699.0" style="stroke:blue;stroke-width:4.0;"/>
   <line x1="620.0" y1="717.0" x2="620.0" y2="809.0" style="stroke:blue;stroke-width:4.0;"/>
   <line x1="620.0" y1="816.0" x2="620.0" y2="828.0" style="stroke:blue;stroke-width:4.0;"/>
   <line x1="620.0" y1="834.0" x2="620.0" y2="847.0" style="stroke:blue;stroke-width:4.0;"/>
   <line x1="620.0" y1="852.0" x2="620.0" y2="865.0" style="stroke:blue;stroke-width:4.0;"/>
   <line x1="620.0" y1="872.0" x2="620.0" y2="884.0" style="stroke:blue;stroke-width:4.0;"/>
   <line x1="620.0" y1="888.0" x2="620.0" y2="901.0" style="stroke:blue;stroke-width:4.0;"/>
   <line x1="620.0" y1="908.0" x2="620.0" y2="919.0" style="stroke:blue;stroke-width:4.0;"/>
   <line x1="620.0" y1="927.0" x2="620.0" y2="938.0" style="stroke:blue;stroke-width:4.0;"/>
   <line x1="620.0" y1="946.0" x2="620.0" y2="957.0" style="stroke:blue;stroke-width:4.0;"/>
   <line x1="620.0" y1="964.0" x2="620.0" y2="975.0" style="stroke:blue;stroke-width:4.0;"/>
   <line x1="620.0" y1="981.0" x2="620.0" y2="994.0" style="stroke:blue;stroke-width:4.0;"/>
   <line x1="620.0" y1="1000.0" x2="620.0" y2="1012.0" style="stroke:blue;stroke-width:4.0;"/>
   <line x1="620.0" y1="1019.0" x2="620.0" y2="1031.0" style="stroke:blue;stroke-width:4.0;"/>
   <line x1="620.0" y1="1037.0" x2="620.0" y2="1050.0" style="stroke:blue;stroke-width:4.0;"/>
   <line x1="620.0" y1="1056.0" x2="620.0" y2="1068.0" style="stroke:blue;stroke-width:4.0;"/>
  </g>
 </g>
</svg>
