<?xml version="1.0" encoding="UTF-8"?>
<svg height="103.0" width="1163.0" xmlns="http://www.w3.org/2000/svg">
 <g class="page">
  <g class="block">
   <g class="line">
    <rect x="14.0" y="47.0" width="3.0" height="2.0" class="space" style="fill:none;stroke:blue;stroke-width:0.5;"/>
    <g>
     <rect x="14.0" y="47.0" width="3.0" height="2.0" class="text" style="fill:none;stroke:red;stroke-width:0.5;"/>
     <text x="14.0" y="49.0" achars="-" style="fill:black;font-family:helvetica;font-size:10.0px;">-</text>
    </g>
    <rect x="18.0" y="35.0" width="21.0" height="18.0" class="space" style="fill:none;stroke:blue;stroke-width:0.5;"/>
    <g>
     <rect x="40.0" y="35.0" width="14.0" height="18.0" class="text" style="fill:none;stroke:red;stroke-width:0.5;"/>
     <text x="40.0" y="53.0" achars="S" style="fill:black;font-family:helvetica;font-size:10.0px;">S</text>
    </g>
    <g>
     <rect x="55.0" y="36.0" width="7.0" height="17.0" class="text" style="fill:none;stroke:red;stroke-width:0.5;"/>
     <text x="55.0" y="53.0" achars="t" style="fill:black;font-family:helvetica;font-size:10.0px;">t</text>
    </g>
    <g>
     <rect x="63.0" y="40.0" width="11.0" height="13.0" class="text" style="fill:none;stroke:red;stroke-width:0.5;"/>
     <text x="63.0" y="53.0" achars="u" style="fill:black;font-family:helvetica;font-size:10.0px;">u</text>
    </g>
    <g>
     <rect x="76.0" y="35.0" width="11.0" height="18.0" class="text" style="fill:none;stroke:red;stroke-width:0.5;"/>
     <text x="76.0" y="53.0" achars="d" style="fill:black;font-family:helvetica;font-size:10.0px;">d</text>
    </g>
    <g>
     <rect x="89.0" y="40.0" width="11.0" height="18.0" class="text" style="fill:none;stroke:red;stroke-width:0.5;"/>
     <text x="89.0" y="58.0" achars="y" style="fill:black;font-family:helvetica;font-size:10.0px;">y</text>
    </g>
    <rect x="101.0" y="35.0" width="11.0" height="19.0" class="space" style="fill:none;stroke:blue;stroke-width:0.5;"/>
    <rect x="127.0" y="35.0" width="11.0" height="19.0" class="space" style="fill:none;stroke:blue;stroke-width:0.5;"/>
    <rect x="168.0" y="35.0" width="10.0" height="19.0" class="space" style="fill:none;stroke:blue;stroke-width:0.5;"/>
    <rect x="220.0" y="35.0" width="10.0" height="19.0" class="space" style="fill:none;stroke:blue;stroke-width:0.5;"/>
    <rect x="283.0" y="35.0" width="9.0" height="19.0" class="space" style="fill:none;stroke:blue;stroke-width:0.5;"/>
    <rect x="353.0" y="35.0" width="8.0" height="19.0" class="space" style="fill:none;stroke:blue;stroke-width:0.5;"/>
    <rect x="428.0" y="35.0" width="7.0" height="19.0" class="space" style="fill:none;stroke:blue;stroke-width:0.5;"/>
    <rect x="505.0" y="35.0" width="6.0" height="19.0" class="space" style="fill:none;stroke:blue;stroke-width:0.5;"/>
    <rect x="582.0" y="35.0" width="5.0" height="19.0" class="space" style="fill:none;stroke:blue;stroke-width:0.5;"/>
    <rect x="656.0" y="35.0" width="4.0" height="19.0" class="space" style="fill:none;stroke:blue;stroke-width:0.5;"/>
    <rect x="725.0" y="35.0" width="3.0" height="19.0" class="space" style="fill:none;stroke:blue;stroke-width:0.5;"/>
    <rect x="788.0" y="35.0" width="2.0" height="19.0" class="space" style="fill:none;stroke:blue;stroke-width:0.5;"/>
    <rect x="844.0" y="35.0" width="1.0" height="19.0" class="space" style="fill:none;stroke:blue;stroke-width:0.5;"/>
    <rect x="893.0" y="35.0" width="0.0" height="19.0" class="space" style="fill:none;stroke:blue;stroke-width:0.5;"/>
    <rect x="934.0" y="35.0" width="-1.0" height="19.0" class="space" style="fill:none;stroke:blue;stroke-width:0.5;"/>
    <rect x="968.0" y="35.0" width="-2.0" height="19.0" class="space" style="fill:none;stroke:blue;stroke-width:0.5;"/>
    <rect x="995.0" y="35.0" width="-2.0" height="19.0" class="space" style="fill:none;stroke:blue;stroke-width:0.5;"/>
    <rect x="1017.0" y="35.0" width="-3.0" height="19.0" class="space" style="fill:none;stroke:blue;stroke-width:0.5;"/>
    <rect x="1033.0" y="35.0" width="-3.0" height="19.0" class="space" style="fill:none;stroke:blue;stroke-width:0.5;"/>
    <rect x="1046.0" y="35.0" width="-3.0" height="19.0" class="space" style="fill:none;stroke:blue;stroke-width:0.5;"/>
    <rect x="1056.0" y="35.0" width="-4.0" height="19.0" class="space" style="fill:none;stroke:blue;stroke-width:0.5;"/>
    <rect x="1062.0" y="35.0" width="-3.0" height="19.0" class="space" style="fill:none;stroke:blue;stroke-width:0.5;"/>
    <rect x="1067.0" y="35.0" width="-3.0" height="19.0" class="space" style="fill:none;stroke:blue;stroke-width:0.5;"/>
    <rect x="1071.0" y="35.0" width="-4.0" height="19.0" class="space" style="fill:none;stroke:blue;stroke-width:0.5;"/>
    <rect x="1073.0" y="35.0" width="-4.0" height="19.0" class="space" style="fill:none;stroke:blue;stroke-width:0.5;"/>
    <rect x="1075.0" y="35.0" width="-4.0" height="19.0" class="space" style="fill:none;stroke:blue;stroke-width:0.5;"/>
    <rect x="1076.0" y="35.0" width="-4.0" height="19.0" class="space" style="fill:none;stroke:blue;stroke-width:0.5;"/>
    <rect x="1077.0" y="35.0" width="-4.0" height="19.0" class="space" style="fill:none;stroke:blue;stroke-width:0.5;"/>
    <rect x="1077.0" y="35.0" width="-3.0" height="19.0" class="space" style="fill:none;stroke:blue;stroke-width:0.5;"/>
    <rect x="1078.0" y="35.0" width="-4.0" height="19.0" class="space" style="fill:none;stroke:blue;stroke-width:0.5;"/>
    <rect x="1078.0" y="35.0" width="-4.0" height="19.0" class="space" style="fill:none;stroke:blue;stroke-width:0.5;"/>
    <rect x="1078.0" y="35.0" width="-4.0" height="19.0" class="space" style="fill:none;stroke:blue;stroke-width:0.5;"/>
    <rect x="1078.0" y="35.0" width="-3.0" height="19.0" class="space" style="fill:none;stroke:blue;stroke-width:0.5;"/>
    <rect x="1079.0" y="35.0" width="-4.0" height="19.0" class="space" style="fill:none;stroke:blue;stroke-width:0.5;"/>
    <rect x="1079.0" y="35.0" width="-4.0" height="19.0" class="space" style="fill:none;stroke:blue;stroke-width:0.5;"/>
    <rect x="1079.0" y="35.0" width="-4.0" height="19.0" class="space" style="fill:none;stroke:blue;stroke-width:0.5;"/>
    <rect x="1079.0" y="35.0" width="-4.0" height="19.0" class="space" style="fill:none;stroke:blue;stroke-width:0.5;"/>
    <rect x="1079.0" y="35.0" width="-3.0" height="19.0" class="space" style="fill:none;stroke:blue;stroke-width:0.5;"/>
    <rect x="1080.0" y="35.0" width="-4.0" height="19.0" class="space" style="fill:none;stroke:blue;stroke-width:0.5;"/>
    <rect x="1080.0" y="35.0" width="-4.0" height="19.0" class="space" style="fill:none;stroke:blue;stroke-width:0.5;"/>
    <rect x="1080.0" y="35.0" width="-4.0" height="19.0" class="space" style="fill:none;stroke:blue;stroke-width:0.5;"/>
    <rect x="1080.0" y="35.0" width="-4.0" height="19.0" class="space" style="fill:none;stroke:blue;stroke-width:0.5;"/>
    <rect x="1080.0" y="35.0" width="-4.0" height="19.0" class="space" style="fill:none;stroke:blue;stroke-width:0.5;"/>
    <rect x="1080.0" y="35.0" width="-3.0" height="19.0" class="space" style="fill:none;stroke:blue;stroke-width:0.5;"/>
    <rect x="1081.0" y="35.0" width="-4.0" height="19.0" class="space" style="fill:none;stroke:blue;stroke-width:0.5;"/>
    <rect x="1081.0" y="35.0" width="-4.0" height="19.0" class="space" style="fill:none;stroke:blue;stroke-width:0.5;"/>
    <rect x="1081.0" y="35.0" width="-4.0" height="19.0" class="space" style="fill:none;stroke:blue;stroke-width:0.5;"/>
    <rect x="1081.0" y="35.0" width="-4.0" height="19.0" class="space" style="fill:none;stroke:blue;stroke-width:0.5;"/>
    <rect x="1081.0" y="35.0" width="-4.0" height="19.0" class="space" style="fill:none;stroke:blue;stroke-width:0.5;"/>
    <rect x="1081.0" y="35.0" width="-4.0" height="19.0" class="space" style="fill:none;stroke:blue;stroke-width:0.5;"/>
    <rect x="1081.0" y="35.0" width="-4.0" height="19.0" class="space" style="fill:none;stroke:blue;stroke-width:0.5;"/>
    <rect x="1081.0" y="35.0" width="-3.0" height="19.0" class="space" style="fill:none;stroke:blue;stroke-width:0.5;"/>
    <rect x="1082.0" y="35.0" width="-4.0" height="19.0" class="space" style="fill:none;stroke:blue;stroke-width:0.5;"/>
    <rect x="1082.0" y="35.0" width="-4.0" height="19.0" class="space" style="fill:none;stroke:blue;stroke-width:0.5;"/>
    <rect x="1082.0" y="35.0" width="-4.0" height="19.0" class="space" style="fill:none;stroke:blue;stroke-width:0.5;"/>
    <rect x="1082.0" y="35.0" width="-4.0" height="19.0" class="space" style="fill:none;stroke:blue;stroke-width:0.5;"/>
    <rect x="1082.0" y="35.0" width="-4.0" height="19.0" class="space" style="fill:none;stroke:blue;stroke-width:0.5;"/>
    <rect x="1082.0" y="35.0" width="-4.0" height="19.0" class="space" style="fill:none;stroke:blue;stroke-width:0.5;"/>
    <rect x="1082.0" y="35.0" width="-4.0" height="19.0" class="space" style="fill:none;stroke:blue;stroke-width:0.5;"/>
    <rect x="1082.0" y="35.0" width="-4.0" height="19.0" class="space" style="fill:none;stroke:blue;stroke-width:0.5;"/>
    <rect x="1082.0" y="35.0" width="-4.0" height="19.0" class="space" style="fill:none;stroke:blue;stroke-width:0.5;"/>
    <rect x="1082.0" y="35.0" width="-4.0" height="19.0" class="space" style="fill:none;stroke:blue;stroke-width:0.5;"/>
    <rect x="1082.0" y="35.0" width="-4.0" height="19.0" class="space" style="fill:none;stroke:blue;stroke-width:0.5;"/>
    <rect x="1082.0" y="35.0" width="-4.0" height="19.0" class="space" style="fill:none;stroke:blue;stroke-width:0.5;"/>
    <rect x="1082.0" y="35.0" width="-3.0" height="19.0" class="space" style="fill:none;stroke:blue;stroke-width:0.5;"/>
    <g>
     <rect x="1080.0" y="35.0" width="15.0" height="19.0" class="text" style="fill:none;stroke:red;stroke-width:0.5;"/>
     <text x="1080.0" y="54.0" achars="" style="fill:black;font-family:helvetica;font-size:10.0px;">?</text>
    </g>
    <g>
     <rect x="1091.0" y="44.0" width="7.0" height="9.0" class="text" style="fill:none;stroke:red;stroke-width:0.5;"/>
     <text x="1091.0" y="53.0" achars="o,0" style="fill:black;font-family:helvetica;font-size:10.0px;">o</text>
    </g>
   </g>
   <g class="line">
    <rect x="44.0" y="70.0" width="-1.0" height="18.0" class="space" style="fill:none;stroke:blue;stroke-width:0.5;"/>
    <rect x="41.0" y="70.0" width="3.0" height="18.0" class="space" style="fill:none;stroke:blue;stroke-width:0.5;"/>
    <g>
     <rect x="41.0" y="70.0" width="3.0" height="18.0" class="text" style="fill:none;stroke:red;stroke-width:0.5;"/>
     <text x="41.0" y="88.0" achars="l,I,|,1" style="fill:black;font-family:helvetica;font-size:10.0px;">l</text>
    </g>
    <g>
     <rect x="48.0" y="70.0" width="14.0" height="18.0" class="text" style="fill:none;stroke:red;stroke-width:0.5;"/>
     <text x="48.0" y="88.0" achars="D" style="fill:black;font-family:helvetica;font-size:10.0px;">D</text>
    </g>
    <rect x="63.0" y="70.0" width="11.0" height="18.0" class="space" style="fill:none;stroke:blue;stroke-width:0.5;"/>
    <rect x="90.0" y="70.0" width="11.0" height="18.0" class="space" style="fill:none;stroke:blue;stroke-width:0.5;"/>
    <rect x="130.0" y="70.0" width="11.0" height="18.0" class="space" style="fill:none;stroke:blue;stroke-width:0.5;"/>
    <rect x="183.0" y="70.0" width="9.0" height="18.0" class="space" style="fill:none;stroke:blue;stroke-width:0.5;"/>
    <rect x="243.0" y="70.0" width="9.0" height="18.0" class="space" style="fill:none;stroke:blue;stroke-width:0.5;"/>
    <rect x="310.0" y="70.0" width="8.0" height="18.0" class="space" style="fill:none;stroke:blue;stroke-width:0.5;"/>
    <rect x="380.0" y="70.0" width="6.0" height="18.0" class="space" style="fill:none;stroke:blue;stroke-width:0.5;"/>
    <rect x="449.0" y="70.0" width="5.0" height="18.0" class="space" style="fill:none;stroke:blue;stroke-width:0.5;"/>
    <rect x="515.0" y="70.0" width="3.0" height="18.0" class="space" style="fill:none;stroke:blue;stroke-width:0.5;"/>
    <rect x="575.0" y="70.0" width="2.0" height="18.0" class="space" style="fill:none;stroke:blue;stroke-width:0.5;"/>
    <rect x="629.0" y="70.0" width="1.0" height="18.0" class="space" style="fill:none;stroke:blue;stroke-width:0.5;"/>
    <rect x="676.0" y="70.0" width="0.0" height="18.0" class="space" style="fill:none;stroke:blue;stroke-width:0.5;"/>
    <rect x="715.0" y="70.0" width="-1.0" height="18.0" class="space" style="fill:none;stroke:blue;stroke-width:0.5;"/>
    <rect x="746.0" y="70.0" width="-1.0" height="18.0" class="space" style="fill:none;stroke:blue;stroke-width:0.5;"/>
    <rect x="771.0" y="70.0" width="-2.0" height="18.0" class="space" style="fill:none;stroke:blue;stroke-width:0.5;"/>
    <rect x="790.0" y="70.0" width="-3.0" height="18.0" class="space" style="fill:none;stroke:blue;stroke-width:0.5;"/>
    <rect x="804.0" y="70.0" width="-3.0" height="18.0" class="space" style="fill:none;stroke:blue;stroke-width:0.5;"/>
    <rect x="814.0" y="70.0" width="-3.0" height="18.0" class="space" style="fill:none;stroke:blue;stroke-width:0.5;"/>
    <rect x="821.0" y="70.0" width="-3.0" height="18.0" class="space" style="fill:none;stroke:blue;stroke-width:0.5;"/>
    <rect x="826.0" y="70.0" width="-3.0" height="18.0" class="space" style="fill:none;stroke:blue;stroke-width:0.5;"/>
    <rect x="830.0" y="70.0" width="-4.0" height="18.0" class="space" style="fill:none;stroke:blue;stroke-width:0.5;"/>
    <rect x="832.0" y="70.0" width="-4.0" height="18.0" class="space" style="fill:none;stroke:blue;stroke-width:0.5;"/>
    <rect x="833.0" y="70.0" width="-4.0" height="18.0" class="space" style="fill:none;stroke:blue;stroke-width:0.5;"/>
    <rect x="834.0" y="70.0" width="-4.0" height="18.0" class="space" style="fill:none;stroke:blue;stroke-width:0.5;"/>
    <rect x="835.0" y="70.0" width="-4.0" height="18.0" class="space" style="fill:none;stroke:blue;stroke-width:0.5;"/>
    <rect x="835.0" y="70.0" width="-3.0" height="18.0" class="space" style="fill:none;stroke:blue;stroke-width:0.5;"/>
    <rect x="836.0" y="70.0" width="-4.0" height="18.0" class="space" style="fill:none;stroke:blue;stroke-width:0.5;"/>
    <rect x="836.0" y="70.0" width="-4.0" height="18.0" class="space" style="fill:none;stroke:blue;stroke-width:0.5;"/>
    <rect x="836.0" y="70.0" width="-4.0" height="18.0" class="space" style="fill:none;stroke:blue;stroke-width:0.5;"/>
    <rect x="836.0" y="70.0" width="-3.0" height="18.0" class="space" style="fill:none;stroke:blue;stroke-width:0.5;"/>
    <rect x="837.0" y="70.0" width="-4.0" height="18.0" class="space" style="fill:none;stroke:blue;stroke-width:0.5;"/>
    <rect x="837.0" y="70.0" width="-4.0" height="18.0" class="space" style="fill:none;stroke:blue;stroke-width:0.5;"/>
    <rect x="837.0" y="70.0" width="-4.0" height="18.0" class="space" style="fill:none;stroke:blue;stroke-width:0.5;"/>
    <rect x="837.0" y="70.0" width="-3.0" height="18.0" class="space" style="fill:none;stroke:blue;stroke-width:0.5;"/>
    <rect x="838.0" y="70.0" width="-4.0" height="18.0" class="space" style="fill:none;stroke:blue;stroke-width:0.5;"/>
    <rect x="838.0" y="70.0" width="-4.0" height="18.0" class="space" style="fill:none;stroke:blue;stroke-width:0.5;"/>
    <rect x="838.0" y="70.0" width="-4.0" height="18.0" class="space" style="fill:none;stroke:blue;stroke-width:0.5;"/>
    <rect x="838.0" y="70.0" width="-4.0" height="18.0" class="space" style="fill:none;stroke:blue;stroke-width:0.5;"/>
    <rect x="838.0" y="70.0" width="-4.0" height="18.0" class="space" style="fill:none;stroke:blue;stroke-width:0.5;"/>
    <rect x="838.0" y="70.0" width="-4.0" height="18.0" class="space" style="fill:none;stroke:blue;stroke-width:0.5;"/>
    <rect x="838.0" y="70.0" width="-3.0" height="18.0" class="space" style="fill:none;stroke:blue;stroke-width:0.5;"/>
    <rect x="839.0" y="70.0" width="-4.0" height="18.0" class="space" style="fill:none;stroke:blue;stroke-width:0.5;"/>
    <rect x="839.0" y="70.0" width="-4.0" height="18.0" class="space" style="fill:none;stroke:blue;stroke-width:0.5;"/>
    <rect x="839.0" y="70.0" width="-4.0" height="18.0" class="space" style="fill:none;stroke:blue;stroke-width:0.5;"/>
    <rect x="839.0" y="70.0" width="-4.0" height="18.0" class="space" style="fill:none;stroke:blue;stroke-width:0.5;"/>
    <rect x="839.0" y="70.0" width="-4.0" height="18.0" class="space" style="fill:none;stroke:blue;stroke-width:0.5;"/>
    <rect x="839.0" y="70.0" width="-4.0" height="18.0" class="space" style="fill:none;stroke:blue;stroke-width:0.5;"/>
    <rect x="839.0" y="70.0" width="-4.0" height="18.0" class="space" style="fill:none;stroke:blue;stroke-width:0.5;"/>
    <rect x="839.0" y="70.0" width="-4.0" height="18.0" class="space" style="fill:none;stroke:blue;stroke-width:0.5;"/>
    <rect x="839.0" y="70.0" width="-4.0" height="18.0" class="space" style="fill:none;stroke:blue;stroke-width:0.5;"/>
    <rect x="839.0" y="70.0" width="-3.0" height="18.0" class="space" style="fill:none;stroke:blue;stroke-width:0.5;"/>
    <g>
     <rect x="837.0" y="70.0" width="17.0" height="18.0" class="text" style="fill:none;stroke:red;stroke-width:0.5;"/>
     <text x="837.0" y="88.0" achars="O,0" style="fill:black;font-family:helvetica;font-size:10.0px;">O</text>
    </g>
    <g>
     <rect x="856.0" y="70.0" width="16.0" height="18.0" class="text" style="fill:none;stroke:red;stroke-width:0.5;"/>
     <text x="856.0" y="88.0" achars="R" style="fill:black;font-family:helvetica;font-size:10.0px;">R</text>
    </g>
    <rect x="873.0" y="70.0" width="6.0" height="23.0" class="space" style="fill:none;stroke:blue;stroke-width:0.5;"/>
    <g>
     <rect x="880.0" y="70.0" width="6.0" height="23.0" class="text" style="fill:none;stroke:red;stroke-width:0.5;"/>
     <text x="880.0" y="93.0" achars="(,C" style="fill:black;font-family:helvetica;font-size:10.0px;">(</text>
    </g>
    <g>
     <rect x="887.0" y="70.0" width="12.0" height="18.0" class="text" style="fill:none;stroke:red;stroke-width:0.5;"/>
     <text x="887.0" y="88.0" achars="9,g" style="fill:black;font-family:helvetica;font-size:10.0px;">9</text>
    </g>
    <g>
     <rect x="901.0" y="70.0" width="11.0" height="18.0" class="text" style="fill:none;stroke:red;stroke-width:0.5;"/>
     <text x="901.0" y="88.0" achars="5" style="fill:black;font-family:helvetica;font-size:10.0px;">5</text>
    </g>
    <g>
     <rect x="914.0" y="70.0" width="8.0" height="10.0" class="text" style="fill:none;stroke:red;stroke-width:0.5;"/>
     <text x="914.0" y="80.0" achars="O,0,&quot;" style="fill:black;font-family:helvetica;font-size:10.0px;">O</text>
    </g>
    <g>
     <rect x="918.0" y="69.0" width="11.0" height="19.0" class="text" style="fill:none;stroke:red;stroke-width:0.5;"/>
     <text x="918.0" y="88.0" achars="J" style="fill:black;font-family:helvetica;font-size:10.0px;">J</text>
    </g>
    <g>
     <rect x="925.0" y="79.0" width="8.0" height="9.0" class="text" style="fill:none;stroke:red;stroke-width:0.5;"/>
     <text x="925.0" y="88.0" achars="o,0" style="fill:black;font-family:helvetica;font-size:10.0px;">o</text>
    </g>
    <rect x="934.0" y="70.0" width="7.0" height="18.0" class="space" style="fill:none;stroke:blue;stroke-width:0.5;"/>
    <g>
     <rect x="942.0" y="70.0" width="15.0" height="18.0" class="text" style="fill:none;stroke:red;stroke-width:0.5;"/>
     <text x="942.0" y="88.0" achars="C" style="fill:black;font-family:helvetica;font-size:10.0px;">C</text>
    </g>
    <g>
     <rect x="960.0" y="70.0" width="2.0" height="18.0" class="text" style="fill:none;stroke:red;stroke-width:0.5;"/>
     <text x="960.0" y="88.0" achars="l,I,|,1" style="fill:black;font-family:helvetica;font-size:10.0px;">l</text>
    </g>
    <g>
     <rect x="966.0" y="70.0" width="6.0" height="23.0" class="text" style="fill:none;stroke:red;stroke-width:0.5;"/>
     <text x="966.0" y="93.0" achars="),&gt;" style="fill:black;font-family:helvetica;font-size:10.0px;">)</text>
    </g>
    <rect x="973.0" y="70.0" width="11.0" height="18.0" class="space" style="fill:none;stroke:blue;stroke-width:0.5;"/>
    <rect x="998.0" y="70.0" width="10.0" height="18.0" class="space" style="fill:none;stroke:blue;stroke-width:0.5;"/>
    <rect x="1029.0" y="70.0" width="7.0" height="18.0" class="space" style="fill:none;stroke:blue;stroke-width:0.5;"/>
    <rect x="1056.0" y="70.0" width="2.0" height="18.0" class="space" style="fill:none;stroke:blue;stroke-width:0.5;"/>
    <rect x="1072.0" y="70.0" width="-1.0" height="18.0" class="space" style="fill:none;stroke:blue;stroke-width:0.5;"/>
    <rect x="1079.0" y="70.0" width="-3.0" height="18.0" class="space" style="fill:none;stroke:blue;stroke-width:0.5;"/>
    <rect x="1081.0" y="70.0" width="-3.0" height="18.0" class="space" style="fill:none;stroke:blue;stroke-width:0.5;"/>
    <g>
     <rect x="1079.0" y="70.0" width="22.0" height="18.0" class="text" style="fill:none;stroke:red;stroke-width:0.5;"/>
     <text x="1079.0" y="88.0" achars="W" style="fill:black;font-family:helvetica;font-size:10.0px;">W</text>
    </g>
    <g>
     <rect x="1102.0" y="74.0" width="12.0" height="14.0" class="text" style="fill:none;stroke:red;stroke-width:0.5;"/>
     <text x="1102.0" y="88.0" achars="e,g" style="fill:black;font-family:helvetica;font-size:10.0px;">e</text>
    </g>
    <g>
     <rect x="1116.0" y="70.0" width="3.0" height="18.0" class="text" style="fill:none;stroke:red;stroke-width:0.5;"/>
     <text x="1116.0" y="88.0" achars="i,j" style="fill:black;font-family:helvetica;font-size:10.0px;">i</text>
    </g>
    <g>
     <rect x="1120.0" y="74.0" width="12.0" height="19.0" class="text" style="fill:none;stroke:red;stroke-width:0.5;"/>
     <text x="1120.0" y="93.0" achars="g,9" style="fill:black;font-family:helvetica;font-size:10.0px;">g</text>
    </g>
    <g>
     <rect x="1134.0" y="70.0" width="11.0" height="18.0" class="text" style="fill:none;stroke:red;stroke-width:0.5;"/>
     <text x="1134.0" y="88.0" achars="h" style="fill:black;font-family:helvetica;font-size:10.0px;">h</text>
    </g>
    <g>
     <rect x="1146.0" y="71.0" width="7.0" height="17.0" class="text" style="fill:none;stroke:red;stroke-width:0.5;"/>
     <text x="1146.0" y="88.0" achars="t" style="fill:black;font-family:helvetica;font-size:10.0px;">t</text>
    </g>
   </g>
  </g>
 </g>
</svg>
