<?xml version="1.0" encoding="UTF-8"?>
<svg height="32.0" width="869.0" xmlns="http://www.w3.org/2000/svg">
 <g class="page">
  <g class="block">
   <g class="line">
    <rect x="295.0" y="0.0" width="-1.0" height="10.0" class="space" style="fill:none;stroke:blue;stroke-width:0.5;"/>
    <rect x="295.0" y="0.0" width="2.0" height="10.0" class="space" style="fill:none;stroke:blue;stroke-width:0.5;"/>
    <g>
     <rect x="295.0" y="0.0" width="2.0" height="10.0" class="text" style="fill:none;stroke:red;stroke-width:0.5;"/>
     <text x="295.0" y="10.0" achars="l,I,|,1" style="fill:black;font-family:helvetica;font-size:10.0px;">l</text>
    </g>
    <rect x="298.0" y="0.0" width="3.0" height="10.0" class="space" style="fill:none;stroke:blue;stroke-width:0.5;"/>
    <rect x="309.0" y="0.0" width="4.0" height="10.0" class="space" style="fill:none;stroke:blue;stroke-width:0.5;"/>
    <rect x="328.0" y="0.0" width="3.0" height="10.0" class="space" style="fill:none;stroke:blue;stroke-width:0.5;"/>
    <rect x="352.0" y="0.0" width="3.0" height="10.0" class="space" style="fill:none;stroke:blue;stroke-width:0.5;"/>
    <rect x="380.0" y="0.0" width="2.0" height="10.0" class="space" style="fill:none;stroke:blue;stroke-width:0.5;"/>
    <rect x="409.0" y="0.0" width="2.0" height="10.0" class="space" style="fill:none;stroke:blue;stroke-width:0.5;"/>
    <rect x="439.0" y="0.0" width="0.0" height="10.0" class="space" style="fill:none;stroke:blue;stroke-width:0.5;"/>
    <rect x="466.0" y="0.0" width="0.0" height="10.0" class="space" style="fill:none;stroke:blue;stroke-width:0.5;"/>
    <rect x="491.0" y="0.0" width="-1.0" height="10.0" class="space" style="fill:none;stroke:blue;stroke-width:0.5;"/>
    <rect x="512.0" y="0.0" width="-2.0" height="10.0" class="space" style="fill:none;stroke:blue;stroke-width:0.5;"/>
    <rect x="529.0" y="0.0" width="-3.0" height="10.0" class="space" style="fill:none;stroke:blue;stroke-width:0.5;"/>
    <rect x="541.0" y="0.0" width="-2.0" height="10.0" class="space" style="fill:none;stroke:blue;stroke-width:0.5;"/>
    <rect x="552.0" y="0.0" width="-3.0" height="10.0" class="space" style="fill:none;stroke:blue;stroke-width:0.5;"/>
    <rect x="559.0" y="0.0" width="-3.0" height="10.0" class="space" style="fill:none;stroke:blue;stroke-width:0.5;"/>
    <rect x="564.0" y="0.0" width="-4.0" height="10.0" class="space" style="fill:none;stroke:blue;stroke-width:0.5;"/>
    <rect x="567.0" y="0.0" width="-4.0" height="10.0" class="space" style="fill:none;stroke:blue;stroke-width:0.5;"/>
    <rect x="569.0" y="0.0" width="-4.0" height="10.0" class="space" style="fill:none;stroke:blue;stroke-width:0.5;"/>
    <rect x="570.0" y="0.0" width="-3.0" height="10.0" class="space" style="fill:none;stroke:blue;stroke-width:0.5;"/>
    <rect x="572.0" y="0.0" width="-4.0" height="10.0" class="space" style="fill:none;stroke:blue;stroke-width:0.5;"/>
    <rect x="572.0" y="0.0" width="-4.0" height="10.0" class="space" style="fill:none;stroke:blue;stroke-width:0.5;"/>
    <rect x="572.0" y="0.0" width="-3.0" height="10.0" class="space" style="fill:none;stroke:blue;stroke-width:0.5;"/>
    <rect x="573.0" y="0.0" width="-4.0" height="10.0" class="space" style="fill:none;stroke:blue;stroke-width:0.5;"/>
    <rect x="573.0" y="0.0" width="-4.0" height="10.0" class="space" style="fill:none;stroke:blue;stroke-width:0.5;"/>
    <rect x="573.0" y="0.0" width="-3.0" height="10.0" class="space" style="fill:none;stroke:blue;stroke-width:0.5;"/>
    <rect x="574.0" y="0.0" width="-4.0" height="10.0" class="space" style="fill:none;stroke:blue;stroke-width:0.5;"/>
    <rect x="574.0" y="0.0" width="-4.0" height="10.0" class="space" style="fill:none;stroke:blue;stroke-width:0.5;"/>
    <rect x="574.0" y="0.0" width="-4.0" height="10.0" class="space" style="fill:none;stroke:blue;stroke-width:0.5;"/>
    <rect x="574.0" y="0.0" width="-4.0" height="10.0" class="space" style="fill:none;stroke:blue;stroke-width:0.5;"/>
    <rect x="574.0" y="0.0" width="-3.0" height="10.0" class="space" style="fill:none;stroke:blue;stroke-width:0.5;"/>
    <rect x="575.0" y="0.0" width="-4.0" height="10.0" class="space" style="fill:none;stroke:blue;stroke-width:0.5;"/>
    <rect x="575.0" y="0.0" width="-4.0" height="10.0" class="space" style="fill:none;stroke:blue;stroke-width:0.5;"/>
    <rect x="575.0" y="0.0" width="-4.0" height="10.0" class="space" style="fill:none;stroke:blue;stroke-width:0.5;"/>
    <rect x="575.0" y="0.0" width="-4.0" height="10.0" class="space" style="fill:none;stroke:blue;stroke-width:0.5;"/>
    <rect x="575.0" y="0.0" width="-4.0" height="10.0" class="space" style="fill:none;stroke:blue;stroke-width:0.5;"/>
    <rect x="575.0" y="0.0" width="-4.0" height="10.0" class="space" style="fill:none;stroke:blue;stroke-width:0.5;"/>
    <rect x="575.0" y="0.0" width="-3.0" height="10.0" class="space" style="fill:none;stroke:blue;stroke-width:0.5;"/>
    <g>
     <rect x="573.0" y="0.0" width="2.0" height="10.0" class="text" style="fill:none;stroke:red;stroke-width:0.5;"/>
     <text x="573.0" y="10.0" achars="l,I,|,1" style="fill:black;font-family:helvetica;font-size:10.0px;">l</text>
    </g>
    <rect x="576.0" y="0.0" width="3.0" height="10.0" class="space" style="fill:none;stroke:blue;stroke-width:0.5;"/>
    <rect x="587.0" y="0.0" width="4.0" height="10.0" class="space" style="fill:none;stroke:blue;stroke-width:0.5;"/>
    <rect x="606.0" y="0.0" width="3.0" height="10.0" class="space" style="fill:none;stroke:blue;stroke-width:0.5;"/>
    <rect x="630.0" y="0.0" width="3.0" height="10.0" class="space" style="fill:none;stroke:blue;stroke-width:0.5;"/>
    <rect x="658.0" y="0.0" width="2.0" height="10.0" class="space" style="fill:none;stroke:blue;stroke-width:0.5;"/>
    <rect x="687.0" y="0.0" width="2.0" height="10.0" class="space" style="fill:none;stroke:blue;stroke-width:0.5;"/>
    <rect x="717.0" y="0.0" width="0.0" height="10.0" class="space" style="fill:none;stroke:blue;stroke-width:0.5;"/>
    <rect x="744.0" y="0.0" width="0.0" height="10.0" class="space" style="fill:none;stroke:blue;stroke-width:0.5;"/>
    <rect x="769.0" y="0.0" width="-1.0" height="10.0" class="space" style="fill:none;stroke:blue;stroke-width:0.5;"/>
    <rect x="790.0" y="0.0" width="-2.0" height="10.0" class="space" style="fill:none;stroke:blue;stroke-width:0.5;"/>
    <rect x="806.0" y="0.0" width="-2.0" height="10.0" class="space" style="fill:none;stroke:blue;stroke-width:0.5;"/>
    <rect x="819.0" y="0.0" width="-2.0" height="10.0" class="space" style="fill:none;stroke:blue;stroke-width:0.5;"/>
    <rect x="829.0" y="0.0" width="-3.0" height="10.0" class="space" style="fill:none;stroke:blue;stroke-width:0.5;"/>
    <rect x="836.0" y="0.0" width="-3.0" height="10.0" class="space" style="fill:none;stroke:blue;stroke-width:0.5;"/>
    <rect x="841.0" y="0.0" width="-4.0" height="10.0" class="space" style="fill:none;stroke:blue;stroke-width:0.5;"/>
    <rect x="844.0" y="0.0" width="-4.0" height="10.0" class="space" style="fill:none;stroke:blue;stroke-width:0.5;"/>
    <rect x="846.0" y="0.0" width="-4.0" height="10.0" class="space" style="fill:none;stroke:blue;stroke-width:0.5;"/>
    <rect x="847.0" y="0.0" width="-3.0" height="10.0" class="space" style="fill:none;stroke:blue;stroke-width:0.5;"/>
    <rect x="849.0" y="0.0" width="-4.0" height="10.0" class="space" style="fill:none;stroke:blue;stroke-width:0.5;"/>
    <rect x="849.0" y="0.0" width="-4.0" height="10.0" class="space" style="fill:none;stroke:blue;stroke-width:0.5;"/>
    <rect x="849.0" y="0.0" width="-3.0" height="10.0" class="space" style="fill:none;stroke:blue;stroke-width:0.5;"/>
    <rect x="850.0" y="0.0" width="-4.0" height="10.0" class="space" style="fill:none;stroke:blue;stroke-width:0.5;"/>
    <rect x="850.0" y="0.0" width="-4.0" height="10.0" class="space" style="fill:none;stroke:blue;stroke-width:0.5;"/>
    <rect x="850.0" y="0.0" width="-3.0" height="10.0" class="space" style="fill:none;stroke:blue;stroke-width:0.5;"/>
    <rect x="851.0" y="0.0" width="-4.0" height="10.0" class="space" style="fill:none;stroke:blue;stroke-width:0.5;"/>
    <rect x="851.0" y="0.0" width="-4.0" height="10.0" class="space" style="fill:none;stroke:blue;stroke-width:0.5;"/>
    <rect x="851.0" y="0.0" width="-4.0" height="10.0" class="space" style="fill:none;stroke:blue;stroke-width:0.5;"/>
    <rect x="851.0" y="0.0" width="-4.0" height="10.0" class="space" style="fill:none;stroke:blue;stroke-width:0.5;"/>
    <rect x="851.0" y="0.0" width="-3.0" height="10.0" class="space" style="fill:none;stroke:blue;stroke-width:0.5;"/>
    <rect x="852.0" y="0.0" width="-4.0" height="10.0" class="space" style="fill:none;stroke:blue;stroke-width:0.5;"/>
    <rect x="852.0" y="0.0" width="-4.0" height="10.0" class="space" style="fill:none;stroke:blue;stroke-width:0.5;"/>
    <rect x="852.0" y="0.0" width="-4.0" height="10.0" class="space" style="fill:none;stroke:blue;stroke-width:0.5;"/>
    <rect x="852.0" y="0.0" width="-4.0" height="10.0" class="space" style="fill:none;stroke:blue;stroke-width:0.5;"/>
    <rect x="852.0" y="0.0" width="-4.0" height="10.0" class="space" style="fill:none;stroke:blue;stroke-width:0.5;"/>
    <rect x="852.0" y="0.0" width="-4.0" height="10.0" class="space" style="fill:none;stroke:blue;stroke-width:0.5;"/>
    <rect x="852.0" y="0.0" width="-3.0" height="10.0" class="space" style="fill:none;stroke:blue;stroke-width:0.5;"/>
    <g>
     <rect x="850.0" y="0.0" width="3.0" height="10.0" class="text" style="fill:none;stroke:red;stroke-width:0.5;"/>
     <text x="850.0" y="10.0" achars="i,t,l,I,J,f" style="fill:black;font-family:helvetica;font-size:10.0px;">i</text>
    </g>
   </g>
   <g class="line">
    <rect x="286.0" y="18.0" width="5.0" height="2.0" class="space" style="fill:none;stroke:blue;stroke-width:0.5;"/>
    <g>
     <rect x="286.0" y="18.0" width="5.0" height="2.0" class="text" style="fill:none;stroke:red;stroke-width:0.5;"/>
     <text x="286.0" y="20.0" achars="'" style="fill:black;font-family:helvetica;font-size:10.0px;">'</text>
    </g>
    <g>
     <rect x="291.0" y="15.0" width="15.0" height="7.0" class="text" style="fill:none;stroke:red;stroke-width:0.5;"/>
     <text x="291.0" y="22.0" achars="" style="fill:black;font-family:helvetica;font-size:10.0px;">?</text>
    </g>
    <rect x="307.0" y="15.0" width="3.0" height="7.0" class="space" style="fill:none;stroke:blue;stroke-width:0.5;"/>
    <rect x="318.0" y="15.0" width="4.0" height="7.0" class="space" style="fill:none;stroke:blue;stroke-width:0.5;"/>
    <rect x="337.0" y="15.0" width="3.0" height="7.0" class="space" style="fill:none;stroke:blue;stroke-width:0.5;"/>
    <rect x="361.0" y="15.0" width="2.0" height="7.0" class="space" style="fill:none;stroke:blue;stroke-width:0.5;"/>
    <rect x="388.0" y="15.0" width="2.0" height="7.0" class="space" style="fill:none;stroke:blue;stroke-width:0.5;"/>
    <rect x="417.0" y="15.0" width="1.0" height="7.0" class="space" style="fill:none;stroke:blue;stroke-width:0.5;"/>
    <rect x="445.0" y="15.0" width="1.0" height="7.0" class="space" style="fill:none;stroke:blue;stroke-width:0.5;"/>
    <rect x="472.0" y="15.0" width="0.0" height="7.0" class="space" style="fill:none;stroke:blue;stroke-width:0.5;"/>
    <rect x="496.0" y="15.0" width="-1.0" height="7.0" class="space" style="fill:none;stroke:blue;stroke-width:0.5;"/>
    <rect x="516.0" y="15.0" width="-2.0" height="7.0" class="space" style="fill:none;stroke:blue;stroke-width:0.5;"/>
    <rect x="532.0" y="15.0" width="-3.0" height="7.0" class="space" style="fill:none;stroke:blue;stroke-width:0.5;"/>
    <rect x="544.0" y="15.0" width="-3.0" height="7.0" class="space" style="fill:none;stroke:blue;stroke-width:0.5;"/>
    <rect x="553.0" y="15.0" width="-3.0" height="7.0" class="space" style="fill:none;stroke:blue;stroke-width:0.5;"/>
    <rect x="559.0" y="15.0" width="-3.0" height="7.0" class="space" style="fill:none;stroke:blue;stroke-width:0.5;"/>
    <rect x="564.0" y="15.0" width="-4.0" height="7.0" class="space" style="fill:none;stroke:blue;stroke-width:0.5;"/>
    <rect x="567.0" y="15.0" width="-4.0" height="7.0" class="space" style="fill:none;stroke:blue;stroke-width:0.5;"/>
    <rect x="569.0" y="15.0" width="-4.0" height="7.0" class="space" style="fill:none;stroke:blue;stroke-width:0.5;"/>
    <rect x="570.0" y="15.0" width="-4.0" height="7.0" class="space" style="fill:none;stroke:blue;stroke-width:0.5;"/>
    <rect x="571.0" y="15.0" width="-4.0" height="7.0" class="space" style="fill:none;stroke:blue;stroke-width:0.5;"/>
    <rect x="571.0" y="15.0" width="-3.0" height="7.0" class="space" style="fill:none;stroke:blue;stroke-width:0.5;"/>
    <rect x="572.0" y="15.0" width="-4.0" height="7.0" class="space" style="fill:none;stroke:blue;stroke-width:0.5;"/>
    <rect x="572.0" y="15.0" width="-4.0" height="7.0" class="space" style="fill:none;stroke:blue;stroke-width:0.5;"/>
    <rect x="572.0" y="15.0" width="-4.0" height="7.0" class="space" style="fill:none;stroke:blue;stroke-width:0.5;"/>
    <rect x="572.0" y="15.0" width="-3.0" height="7.0" class="space" style="fill:none;stroke:blue;stroke-width:0.5;"/>
    <rect x="573.0" y="15.0" width="-4.0" height="7.0" class="space" style="fill:none;stroke:blue;stroke-width:0.5;"/>
    <rect x="573.0" y="15.0" width="-4.0" height="7.0" class="space" style="fill:none;stroke:blue;stroke-width:0.5;"/>
    <rect x="573.0" y="15.0" width="-4.0" height="7.0" class="space" style="fill:none;stroke:blue;stroke-width:0.5;"/>
    <rect x="573.0" y="15.0" width="-3.0" height="7.0" class="space" style="fill:none;stroke:blue;stroke-width:0.5;"/>
    <rect x="574.0" y="15.0" width="-4.0" height="7.0" class="space" style="fill:none;stroke:blue;stroke-width:0.5;"/>
    <rect x="574.0" y="15.0" width="-4.0" height="7.0" class="space" style="fill:none;stroke:blue;stroke-width:0.5;"/>
    <rect x="574.0" y="15.0" width="-4.0" height="7.0" class="space" style="fill:none;stroke:blue;stroke-width:0.5;"/>
    <rect x="574.0" y="15.0" width="-4.0" height="7.0" class="space" style="fill:none;stroke:blue;stroke-width:0.5;"/>
    <rect x="574.0" y="15.0" width="-4.0" height="7.0" class="space" style="fill:none;stroke:blue;stroke-width:0.5;"/>
    <rect x="574.0" y="15.0" width="-4.0" height="7.0" class="space" style="fill:none;stroke:blue;stroke-width:0.5;"/>
    <rect x="574.0" y="15.0" width="-3.0" height="7.0" class="space" style="fill:none;stroke:blue;stroke-width:0.5;"/>
    <g>
     <rect x="572.0" y="15.0" width="4.0" height="7.0" class="text" style="fill:none;stroke:red;stroke-width:0.5;"/>
     <text x="572.0" y="22.0" achars="O,0,4" style="fill:black;font-family:helvetica;font-size:10.0px;">O</text>
    </g>
    <rect x="577.0" y="15.0" width="3.0" height="7.0" class="space" style="fill:none;stroke:blue;stroke-width:0.5;"/>
    <rect x="588.0" y="15.0" width="4.0" height="7.0" class="space" style="fill:none;stroke:blue;stroke-width:0.5;"/>
    <rect x="607.0" y="15.0" width="3.0" height="7.0" class="space" style="fill:none;stroke:blue;stroke-width:0.5;"/>
    <rect x="631.0" y="15.0" width="2.0" height="7.0" class="space" style="fill:none;stroke:blue;stroke-width:0.5;"/>
    <rect x="658.0" y="15.0" width="2.0" height="7.0" class="space" style="fill:none;stroke:blue;stroke-width:0.5;"/>
    <rect x="687.0" y="15.0" width="1.0" height="7.0" class="space" style="fill:none;stroke:blue;stroke-width:0.5;"/>
    <rect x="716.0" y="15.0" width="0.0" height="7.0" class="space" style="fill:none;stroke:blue;stroke-width:0.5;"/>
    <rect x="743.0" y="15.0" width="-1.0" height="7.0" class="space" style="fill:none;stroke:blue;stroke-width:0.5;"/>
    <rect x="766.0" y="15.0" width="-1.0" height="7.0" class="space" style="fill:none;stroke:blue;stroke-width:0.5;"/>
    <rect x="786.0" y="15.0" width="-1.0" height="7.0" class="space" style="fill:none;stroke:blue;stroke-width:0.5;"/>
    <rect x="803.0" y="15.0" width="-2.0" height="7.0" class="space" style="fill:none;stroke:blue;stroke-width:0.5;"/>
    <rect x="816.0" y="15.0" width="-3.0" height="7.0" class="space" style="fill:none;stroke:blue;stroke-width:0.5;"/>
    <rect x="825.0" y="15.0" width="-3.0" height="7.0" class="space" style="fill:none;stroke:blue;stroke-width:0.5;"/>
    <rect x="831.0" y="15.0" width="-3.0" height="7.0" class="space" style="fill:none;stroke:blue;stroke-width:0.5;"/>
    <rect x="836.0" y="15.0" width="-4.0" height="7.0" class="space" style="fill:none;stroke:blue;stroke-width:0.5;"/>
    <rect x="839.0" y="15.0" width="-4.0" height="7.0" class="space" style="fill:none;stroke:blue;stroke-width:0.5;"/>
    <rect x="841.0" y="15.0" width="-4.0" height="7.0" class="space" style="fill:none;stroke:blue;stroke-width:0.5;"/>
    <rect x="842.0" y="15.0" width="-4.0" height="7.0" class="space" style="fill:none;stroke:blue;stroke-width:0.5;"/>
    <rect x="843.0" y="15.0" width="-4.0" height="7.0" class="space" style="fill:none;stroke:blue;stroke-width:0.5;"/>
    <rect x="843.0" y="15.0" width="-3.0" height="7.0" class="space" style="fill:none;stroke:blue;stroke-width:0.5;"/>
    <rect x="844.0" y="15.0" width="-4.0" height="7.0" class="space" style="fill:none;stroke:blue;stroke-width:0.5;"/>
    <rect x="844.0" y="15.0" width="-4.0" height="7.0" class="space" style="fill:none;stroke:blue;stroke-width:0.5;"/>
    <rect x="844.0" y="15.0" width="-4.0" height="7.0" class="space" style="fill:none;stroke:blue;stroke-width:0.5;"/>
    <rect x="844.0" y="15.0" width="-3.0" height="7.0" class="space" style="fill:none;stroke:blue;stroke-width:0.5;"/>
    <rect x="845.0" y="15.0" width="-4.0" height="7.0" class="space" style="fill:none;stroke:blue;stroke-width:0.5;"/>
    <rect x="845.0" y="15.0" width="-4.0" height="7.0" class="space" style="fill:none;stroke:blue;stroke-width:0.5;"/>
    <rect x="845.0" y="15.0" width="-4.0" height="7.0" class="space" style="fill:none;stroke:blue;stroke-width:0.5;"/>
    <rect x="845.0" y="15.0" width="-3.0" height="7.0" class="space" style="fill:none;stroke:blue;stroke-width:0.5;"/>
    <rect x="846.0" y="15.0" width="-4.0" height="7.0" class="space" style="fill:none;stroke:blue;stroke-width:0.5;"/>
    <rect x="846.0" y="15.0" width="-4.0" height="7.0" class="space" style="fill:none;stroke:blue;stroke-width:0.5;"/>
    <rect x="846.0" y="15.0" width="-4.0" height="7.0" class="space" style="fill:none;stroke:blue;stroke-width:0.5;"/>
    <rect x="846.0" y="15.0" width="-4.0" height="7.0" class="space" style="fill:none;stroke:blue;stroke-width:0.5;"/>
    <rect x="846.0" y="15.0" width="-4.0" height="7.0" class="space" style="fill:none;stroke:blue;stroke-width:0.5;"/>
    <rect x="846.0" y="15.0" width="-4.0" height="7.0" class="space" style="fill:none;stroke:blue;stroke-width:0.5;"/>
    <rect x="846.0" y="15.0" width="-3.0" height="7.0" class="space" style="fill:none;stroke:blue;stroke-width:0.5;"/>
    <g>
     <rect x="844.0" y="15.0" width="15.0" height="7.0" class="text" style="fill:none;stroke:red;stroke-width:0.5;"/>
     <text x="844.0" y="22.0" achars="8A" style="fill:black;font-family:helvetica;font-size:10.0px;">8</text>
    </g>
   </g>
  </g>
 </g>
</svg>
