<?xml version="1.0" encoding="UTF-8"?>
<svg height="1287.0" width="1276.0" xmlns="http://www.w3.org/2000/svg">
 <g>
  <g class="horizontallines">
   <line x1="1.0" y1="1228.0" x2="1266.0" y2="1228.0" style="stroke:red;stroke-width:4.0;"/>
  </g>
  <g class="verticallines">
   <line x1="572.0" y1="96.0" x2="572.0" y2="133.0" style="stroke:blue;stroke-width:3.0;"/>
   <line x1="572.0" y1="288.0" x2="572.0" y2="342.0" style="stroke:blue;stroke-width:3.0;"/>
   <line x1="572.0" y1="347.0" x2="572.0" y2="367.0" style="stroke:blue;stroke-width:3.0;"/>
   <line x1="572.0" y1="445.0" x2="572.0" y2="628.0" style="stroke:blue;stroke-width:3.0;"/>
   <line x1="572.0" y1="664.0" x2="572.0" y2="679.0" style="stroke:blue;stroke-width:3.0;"/>
   <line x1="572.0" y1="728.0" x2="572.0" y2="894.0" style="stroke:blue;stroke-width:3.0;"/>
   <line x1="572.0" y1="923.0" x2="572.0" y2="970.0" style="stroke:blue;stroke-width:3.0;"/>
   <line x1="572.0" y1="974.0" x2="572.0" y2="1249.0" style="stroke:blue;stroke-width:3.0;"/>
   <line x1="572.0" y1="1262.0" x2="572.0" y2="1277.0" style="stroke:blue;stroke-width:3.0;"/>
   <line x1="976.0" y1="142.0" x2="976.0" y2="162.0" style="stroke:blue;stroke-width:1.0;"/>
   <line x1="976.0" y1="171.0" x2="976.0" y2="192.0" style="stroke:blue;stroke-width:1.0;"/>
   <line x1="976.0" y1="200.0" x2="976.0" y2="220.0" style="stroke:blue;stroke-width:1.0;"/>
   <line x1="976.0" y1="287.0" x2="976.0" y2="307.0" style="stroke:blue;stroke-width:1.0;"/>
   <line x1="976.0" y1="346.0" x2="976.0" y2="367.0" style="stroke:blue;stroke-width:1.0;"/>
   <line x1="976.0" y1="374.0" x2="976.0" y2="395.0" style="stroke:blue;stroke-width:1.0;"/>
   <line x1="976.0" y1="404.0" x2="976.0" y2="425.0" style="stroke:blue;stroke-width:1.0;"/>
   <line x1="976.0" y1="434.0" x2="976.0" y2="448.0" style="stroke:blue;stroke-width:1.0;"/>
   <line x1="976.0" y1="464.0" x2="976.0" y2="484.0" style="stroke:blue;stroke-width:1.0;"/>
   <line x1="976.0" y1="492.0" x2="976.0" y2="512.0" style="stroke:blue;stroke-width:1.0;"/>
   <line x1="976.0" y1="579.0" x2="976.0" y2="600.0" style="stroke:blue;stroke-width:1.0;"/>
   <line x1="976.0" y1="609.0" x2="976.0" y2="630.0" style="stroke:blue;stroke-width:1.0;"/>
   <line x1="976.0" y1="668.0" x2="976.0" y2="689.0" style="stroke:blue;stroke-width:1.0;"/>
   <line x1="976.0" y1="696.0" x2="976.0" y2="717.0" style="stroke:blue;stroke-width:1.0;"/>
   <line x1="976.0" y1="726.0" x2="976.0" y2="747.0" style="stroke:blue;stroke-width:1.0;"/>
   <line x1="976.0" y1="756.0" x2="976.0" y2="777.0" style="stroke:blue;stroke-width:1.0;"/>
   <line x1="976.0" y1="784.0" x2="976.0" y2="804.0" style="stroke:blue;stroke-width:1.0;"/>
   <line x1="976.0" y1="871.0" x2="976.0" y2="892.0" style="stroke:blue;stroke-width:1.0;"/>
   <line x1="976.0" y1="931.0" x2="976.0" y2="951.0" style="stroke:blue;stroke-width:1.0;"/>
   <line x1="976.0" y1="960.0" x2="976.0" y2="981.0" style="stroke:blue;stroke-width:1.0;"/>
   <line x1="976.0" y1="1018.0" x2="976.0" y2="1039.0" style="stroke:blue;stroke-width:1.0;"/>
   <line x1="976.0" y1="1048.0" x2="976.0" y2="1068.0" style="stroke:blue;stroke-width:1.0;"/>
   <line x1="976.0" y1="1076.0" x2="976.0" y2="1097.0" style="stroke:blue;stroke-width:1.0;"/>
   <line x1="976.0" y1="1106.0" x2="976.0" y2="1126.0" style="stroke:blue;stroke-width:1.0;"/>
   <line x1="976.0" y1="1163.0" x2="976.0" y2="1184.0" style="stroke:blue;stroke-width:1.0;"/>
  </g>
 </g>
</svg>
