<?xml version="1.0" encoding="UTF-8"?>
<svg height="713.0" width="413.0" xmlns="http://www.w3.org/2000/svg">
 <g class="page">
  <g class="block">
   <g class="line">
    <rect x="0.0" y="700.0" width="403.0" height="3.0" class="space" style="fill:none;stroke:blue;stroke-width:0.5;"/>
    <g>
     <rect x="0.0" y="700.0" width="403.0" height="3.0" class="text" style="fill:none;stroke:red;stroke-width:0.5;"/>
     <text x="0.0" y="703.0" achars="" style="fill:black;font-family:helvetica;font-size:10.0px;">?</text>
    </g>
   </g>
   <g class="line">
    <rect x="157.0" y="122.0" width="-4.0" height="10.0" class="space" style="fill:none;stroke:blue;stroke-width:0.5;"/>
    <rect x="154.0" y="122.0" width="-3.0" height="10.0" class="space" style="fill:none;stroke:blue;stroke-width:0.5;"/>
    <rect x="153.0" y="122.0" width="-3.0" height="10.0" class="space" style="fill:none;stroke:blue;stroke-width:0.5;"/>
    <rect x="153.0" y="122.0" width="-4.0" height="10.0" class="space" style="fill:none;stroke:blue;stroke-width:0.5;"/>
    <rect x="153.0" y="122.0" width="-4.0" height="10.0" class="space" style="fill:none;stroke:blue;stroke-width:0.5;"/>
    <rect x="153.0" y="122.0" width="-3.0" height="10.0" class="space" style="fill:none;stroke:blue;stroke-width:0.5;"/>
    <rect x="154.0" y="122.0" width="-3.0" height="10.0" class="space" style="fill:none;stroke:blue;stroke-width:0.5;"/>
    <rect x="156.0" y="122.0" width="-4.0" height="10.0" class="space" style="fill:none;stroke:blue;stroke-width:0.5;"/>
    <rect x="156.0" y="122.0" width="-3.0" height="10.0" class="space" style="fill:none;stroke:blue;stroke-width:0.5;"/>
    <rect x="157.0" y="122.0" width="-3.0" height="10.0" class="space" style="fill:none;stroke:blue;stroke-width:0.5;"/>
    <rect x="158.0" y="122.0" width="-4.0" height="10.0" class="space" style="fill:none;stroke:blue;stroke-width:0.5;"/>
    <rect x="158.0" y="122.0" width="-3.0" height="10.0" class="space" style="fill:none;stroke:blue;stroke-width:0.5;"/>
    <rect x="159.0" y="122.0" width="-4.0" height="10.0" class="space" style="fill:none;stroke:blue;stroke-width:0.5;"/>
    <rect x="159.0" y="122.0" width="-4.0" height="10.0" class="space" style="fill:none;stroke:blue;stroke-width:0.5;"/>
    <rect x="159.0" y="122.0" width="-3.0" height="10.0" class="space" style="fill:none;stroke:blue;stroke-width:0.5;"/>
    <rect x="160.0" y="122.0" width="-4.0" height="10.0" class="space" style="fill:none;stroke:blue;stroke-width:0.5;"/>
    <rect x="157.0" y="122.0" width="6.0" height="10.0" class="space" style="fill:none;stroke:blue;stroke-width:0.5;"/>
    <g>
     <rect x="157.0" y="122.0" width="6.0" height="10.0" class="text" style="fill:none;stroke:red;stroke-width:0.5;"/>
     <text x="157.0" y="132.0" achars="E" style="fill:black;font-family:helvetica;font-size:10.0px;">E</text>
    </g>
    <g>
     <rect x="164.0" y="125.0" width="7.0" height="7.0" class="text" style="fill:none;stroke:red;stroke-width:0.5;"/>
     <text x="164.0" y="132.0" achars="v,y" style="fill:black;font-family:helvetica;font-size:10.0px;">v</text>
    </g>
    <g>
     <rect x="172.0" y="124.0" width="6.0" height="8.0" class="text" style="fill:none;stroke:red;stroke-width:0.5;"/>
     <text x="172.0" y="132.0" achars="e,g" style="fill:black;font-family:helvetica;font-size:10.0px;">e</text>
    </g>
    <g>
     <rect x="179.0" y="124.0" width="6.0" height="8.0" class="text" style="fill:none;stroke:red;stroke-width:0.5;"/>
     <text x="179.0" y="132.0" achars="n" style="fill:black;font-family:helvetica;font-size:10.0px;">n</text>
    </g>
    <g>
     <rect x="186.0" y="122.0" width="11.0" height="10.0" class="text" style="fill:none;stroke:red;stroke-width:0.5;"/>
     <text x="186.0" y="132.0" achars="ii" style="fill:black;font-family:helvetica;font-size:10.0px;">i</text>
    </g>
    <g>
     <rect x="198.0" y="131.0" width="2.0" height="3.0" class="text" style="fill:none;stroke:red;stroke-width:0.5;"/>
     <text x="198.0" y="134.0" achars=".,§" style="fill:black;font-family:helvetica;font-size:10.0px;">.</text>
    </g>
    <rect x="201.0" y="122.0" width="5.0" height="10.0" class="space" style="fill:none;stroke:blue;stroke-width:0.5;"/>
    <rect x="215.0" y="122.0" width="4.0" height="10.0" class="space" style="fill:none;stroke:blue;stroke-width:0.5;"/>
    <rect x="229.0" y="122.0" width="1.0" height="10.0" class="space" style="fill:none;stroke:blue;stroke-width:0.5;"/>
    <rect x="237.0" y="122.0" width="-2.0" height="10.0" class="space" style="fill:none;stroke:blue;stroke-width:0.5;"/>
    <g>
     <rect x="236.0" y="122.0" width="6.0" height="10.0" class="text" style="fill:none;stroke:red;stroke-width:0.5;"/>
     <text x="236.0" y="132.0" achars="E" style="fill:black;font-family:helvetica;font-size:10.0px;">E</text>
    </g>
    <g>
     <rect x="243.0" y="125.0" width="7.0" height="7.0" class="text" style="fill:none;stroke:red;stroke-width:0.5;"/>
     <text x="243.0" y="132.0" achars="v" style="fill:black;font-family:helvetica;font-size:10.0px;">v</text>
    </g>
    <g>
     <rect x="251.0" y="124.0" width="6.0" height="8.0" class="text" style="fill:none;stroke:red;stroke-width:0.5;"/>
     <text x="251.0" y="132.0" achars="e,g" style="fill:black;font-family:helvetica;font-size:10.0px;">e</text>
    </g>
    <g>
     <rect x="258.0" y="124.0" width="6.0" height="8.0" class="text" style="fill:none;stroke:red;stroke-width:0.5;"/>
     <text x="258.0" y="132.0" achars="n" style="fill:black;font-family:helvetica;font-size:10.0px;">n</text>
    </g>
    <g>
     <rect x="265.0" y="122.0" width="3.0" height="10.0" class="text" style="fill:none;stroke:red;stroke-width:0.5;"/>
     <text x="265.0" y="132.0" achars="t" style="fill:black;font-family:helvetica;font-size:10.0px;">t</text>
    </g>
    <g>
     <rect x="269.0" y="124.0" width="7.0" height="8.0" class="text" style="fill:none;stroke:red;stroke-width:0.5;"/>
     <text x="269.0" y="132.0" achars="g,i" style="fill:black;font-family:helvetica;font-size:10.0px;">g</text>
    </g>
    <g>
     <rect x="277.0" y="131.0" width="2.0" height="2.0" class="text" style="fill:none;stroke:red;stroke-width:0.5;"/>
     <text x="277.0" y="133.0" achars=".,§" style="fill:black;font-family:helvetica;font-size:10.0px;">.</text>
    </g>
    <rect x="280.0" y="122.0" width="7.0" height="5.0" class="space" style="fill:none;stroke:blue;stroke-width:0.5;"/>
    <rect x="297.0" y="122.0" width="5.0" height="5.0" class="space" style="fill:none;stroke:blue;stroke-width:0.5;"/>
    <rect x="314.0" y="122.0" width="1.0" height="5.0" class="space" style="fill:none;stroke:blue;stroke-width:0.5;"/>
    <rect x="322.0" y="122.0" width="-1.0" height="5.0" class="space" style="fill:none;stroke:blue;stroke-width:0.5;"/>
    <g>
     <rect x="322.0" y="122.0" width="5.0" height="5.0" class="text" style="fill:none;stroke:red;stroke-width:0.5;"/>
     <text x="322.0" y="127.0" achars="&quot;" style="fill:black;font-family:helvetica;font-size:10.0px;">"</text>
    </g>
    <g>
     <rect x="325.0" y="122.0" width="8.0" height="10.0" class="text" style="fill:none;stroke:red;stroke-width:0.5;"/>
     <text x="325.0" y="132.0" achars="" style="fill:black;font-family:helvetica;font-size:10.0px;">?</text>
    </g>
   </g>
   <g class="line">
    <rect x="11.0" y="204.0" width="9.0" height="11.0" class="space" style="fill:none;stroke:blue;stroke-width:0.5;"/>
    <g>
     <rect x="11.0" y="204.0" width="9.0" height="11.0" class="text" style="fill:none;stroke:red;stroke-width:0.5;"/>
     <text x="11.0" y="215.0" achars="O,0,D" style="fill:black;font-family:helvetica;font-size:10.0px;">O</text>
    </g>
    <g>
     <rect x="21.0" y="204.0" width="8.0" height="11.0" class="text" style="fill:none;stroke:red;stroke-width:0.5;"/>
     <text x="21.0" y="215.0" achars="A" style="fill:black;font-family:helvetica;font-size:10.0px;">A</text>
    </g>
    <rect x="30.0" y="205.0" width="3.0" height="12.0" class="space" style="fill:none;stroke:blue;stroke-width:0.5;"/>
    <g>
     <rect x="34.0" y="205.0" width="11.0" height="12.0" class="text" style="fill:none;stroke:red;stroke-width:0.5;"/>
     <text x="34.0" y="217.0" achars="ii,C9" style="fill:black;font-family:helvetica;font-size:10.0px;">i</text>
    </g>
    <g>
     <rect x="46.0" y="204.0" width="7.0" height="11.0" class="text" style="fill:none;stroke:red;stroke-width:0.5;"/>
     <text x="46.0" y="215.0" achars="$,S,5" style="fill:black;font-family:helvetica;font-size:10.0px;">$</text>
    </g>
    <g>
     <rect x="53.0" y="204.0" width="5.0" height="6.0" class="text" style="fill:none;stroke:red;stroke-width:0.5;"/>
     <text x="53.0" y="210.0" achars="9,0,O,4,&quot;,a" style="fill:black;font-family:helvetica;font-size:10.0px;">9</text>
    </g>
    <g>
     <rect x="56.0" y="204.0" width="9.0" height="11.0" class="text" style="fill:none;stroke:red;stroke-width:0.5;"/>
     <text x="56.0" y="215.0" achars="" style="fill:black;font-family:helvetica;font-size:10.0px;">?</text>
    </g>
    <rect x="66.0" y="204.0" width="2.0" height="11.0" class="space" style="fill:none;stroke:blue;stroke-width:0.5;"/>
    <g>
     <rect x="69.0" y="204.0" width="8.0" height="11.0" class="text" style="fill:none;stroke:red;stroke-width:0.5;"/>
     <text x="69.0" y="215.0" achars="C" style="fill:black;font-family:helvetica;font-size:10.0px;">C</text>
    </g>
    <g>
     <rect x="78.0" y="205.0" width="2.0" height="10.0" class="text" style="fill:none;stroke:red;stroke-width:0.5;"/>
     <text x="78.0" y="215.0" achars="l,I,|,1" style="fill:black;font-family:helvetica;font-size:10.0px;">l</text>
    </g>
    <g>
     <rect x="80.0" y="205.0" width="5.0" height="12.0" class="text" style="fill:none;stroke:red;stroke-width:0.5;"/>
     <text x="80.0" y="217.0" achars="J" style="fill:black;font-family:helvetica;font-size:10.0px;">J</text>
    </g>
    <rect x="86.0" y="205.0" width="6.0" height="10.0" class="space" style="fill:none;stroke:blue;stroke-width:0.5;"/>
    <rect x="102.0" y="205.0" width="5.0" height="10.0" class="space" style="fill:none;stroke:blue;stroke-width:0.5;"/>
    <rect x="122.0" y="205.0" width="3.0" height="10.0" class="space" style="fill:none;stroke:blue;stroke-width:0.5;"/>
    <rect x="140.0" y="205.0" width="0.0" height="10.0" class="space" style="fill:none;stroke:blue;stroke-width:0.5;"/>
    <rect x="151.0" y="205.0" width="-2.0" height="10.0" class="space" style="fill:none;stroke:blue;stroke-width:0.5;"/>
    <rect x="156.0" y="205.0" width="-3.0" height="10.0" class="space" style="fill:none;stroke:blue;stroke-width:0.5;"/>
    <rect x="158.0" y="205.0" width="-3.0" height="10.0" class="space" style="fill:none;stroke:blue;stroke-width:0.5;"/>
    <g>
     <rect x="156.0" y="205.0" width="20.0" height="10.0" class="text" style="fill:none;stroke:red;stroke-width:0.5;"/>
     <text x="156.0" y="215.0" achars="AA,PiA,iĄA,ibĄ,iiA,PiĄ,Aai,iiĄ,i%i" style="fill:black;font-family:helvetica;font-size:10.0px;">A</text>
    </g>
    <rect x="177.0" y="204.0" width="6.0" height="11.0" class="space" style="fill:none;stroke:blue;stroke-width:0.5;"/>
    <rect x="193.0" y="204.0" width="5.0" height="11.0" class="space" style="fill:none;stroke:blue;stroke-width:0.5;"/>
    <rect x="212.0" y="204.0" width="3.0" height="11.0" class="space" style="fill:none;stroke:blue;stroke-width:0.5;"/>
    <rect x="227.0" y="204.0" width="0.0" height="11.0" class="space" style="fill:none;stroke:blue;stroke-width:0.5;"/>
    <rect x="235.0" y="204.0" width="-2.0" height="11.0" class="space" style="fill:none;stroke:blue;stroke-width:0.5;"/>
    <rect x="238.0" y="204.0" width="-3.0" height="11.0" class="space" style="fill:none;stroke:blue;stroke-width:0.5;"/>
    <g>
     <rect x="236.0" y="204.0" width="7.0" height="11.0" class="text" style="fill:none;stroke:red;stroke-width:0.5;"/>
     <text x="236.0" y="215.0" achars="C" style="fill:black;font-family:helvetica;font-size:10.0px;">C</text>
    </g>
    <g>
     <rect x="244.0" y="207.0" width="7.0" height="8.0" class="text" style="fill:none;stroke:red;stroke-width:0.5;"/>
     <text x="244.0" y="215.0" achars="o,O,0,D" style="fill:black;font-family:helvetica;font-size:10.0px;">o</text>
    </g>
    <g>
     <rect x="252.0" y="207.0" width="6.0" height="7.0" class="text" style="fill:none;stroke:red;stroke-width:0.5;"/>
     <text x="252.0" y="214.0" achars="n" style="fill:black;font-family:helvetica;font-size:10.0px;">n</text>
    </g>
    <g>
     <rect x="259.0" y="205.0" width="3.0" height="10.0" class="text" style="fill:none;stroke:red;stroke-width:0.5;"/>
     <text x="259.0" y="215.0" achars="t" style="fill:black;font-family:helvetica;font-size:10.0px;">t</text>
    </g>
    <g>
     <rect x="263.0" y="207.0" width="4.0" height="7.0" class="text" style="fill:none;stroke:red;stroke-width:0.5;"/>
     <text x="263.0" y="214.0" achars="r,1" style="fill:black;font-family:helvetica;font-size:10.0px;">r</text>
    </g>
    <g>
     <rect x="268.0" y="207.0" width="6.0" height="8.0" class="text" style="fill:none;stroke:red;stroke-width:0.5;"/>
     <text x="268.0" y="215.0" achars="o,O,0" style="fill:black;font-family:helvetica;font-size:10.0px;">o</text>
    </g>
    <g>
     <rect x="276.0" y="205.0" width="8.0" height="10.0" class="text" style="fill:none;stroke:red;stroke-width:0.5;"/>
     <text x="276.0" y="215.0" achars="" style="fill:black;font-family:helvetica;font-size:10.0px;">?</text>
    </g>
    <rect x="285.0" y="204.0" width="6.0" height="11.0" class="space" style="fill:none;stroke:blue;stroke-width:0.5;"/>
    <rect x="300.0" y="204.0" width="4.0" height="11.0" class="space" style="fill:none;stroke:blue;stroke-width:0.5;"/>
    <rect x="315.0" y="204.0" width="1.0" height="11.0" class="space" style="fill:none;stroke:blue;stroke-width:0.5;"/>
    <rect x="323.0" y="204.0" width="-2.0" height="11.0" class="space" style="fill:none;stroke:blue;stroke-width:0.5;"/>
    <g>
     <rect x="322.0" y="204.0" width="7.0" height="11.0" class="text" style="fill:none;stroke:red;stroke-width:0.5;"/>
     <text x="322.0" y="215.0" achars="" style="fill:black;font-family:helvetica;font-size:10.0px;">?</text>
    </g>
    <g>
     <rect x="329.0" y="205.0" width="5.0" height="10.0" class="text" style="fill:none;stroke:red;stroke-width:0.5;"/>
     <text x="329.0" y="215.0" achars="J" style="fill:black;font-family:helvetica;font-size:10.0px;">J</text>
    </g>
    <g>
     <rect x="334.0" y="207.0" width="7.0" height="8.0" class="text" style="fill:none;stroke:red;stroke-width:0.5;"/>
     <text x="334.0" y="215.0" achars="" style="fill:black;font-family:helvetica;font-size:10.0px;">?</text>
    </g>
    <g>
     <rect x="342.0" y="205.0" width="2.0" height="9.0" class="text" style="fill:none;stroke:red;stroke-width:0.5;"/>
     <text x="342.0" y="214.0" achars="i,j" style="fill:black;font-family:helvetica;font-size:10.0px;">i</text>
    </g>
    <g>
     <rect x="345.0" y="207.0" width="5.0" height="11.0" class="text" style="fill:none;stroke:red;stroke-width:0.5;"/>
     <text x="345.0" y="218.0" achars="g,9,0" style="fill:black;font-family:helvetica;font-size:10.0px;">g</text>
    </g>
    <g>
     <rect x="352.0" y="205.0" width="6.0" height="9.0" class="text" style="fill:none;stroke:red;stroke-width:0.5;"/>
     <text x="352.0" y="214.0" achars="h" style="fill:black;font-family:helvetica;font-size:10.0px;">h</text>
    </g>
    <g>
     <rect x="359.0" y="205.0" width="3.0" height="10.0" class="text" style="fill:none;stroke:red;stroke-width:0.5;"/>
     <text x="359.0" y="215.0" achars="t" style="fill:black;font-family:helvetica;font-size:10.0px;">t</text>
    </g>
   </g>
   <g class="line">
    <rect x="12.0" y="367.0" width="6.0" height="11.0" class="space" style="fill:none;stroke:blue;stroke-width:0.5;"/>
    <g>
     <rect x="12.0" y="367.0" width="6.0" height="11.0" class="text" style="fill:none;stroke:red;stroke-width:0.5;"/>
     <text x="12.0" y="378.0" achars="0" style="fill:black;font-family:helvetica;font-size:10.0px;">0</text>
    </g>
    <g>
     <rect x="19.0" y="376.0" width="2.0" height="1.0" class="text" style="fill:none;stroke:red;stroke-width:0.5;"/>
     <text x="19.0" y="377.0" achars="." style="fill:black;font-family:helvetica;font-size:10.0px;">.</text>
    </g>
    <g>
     <rect x="22.0" y="367.0" width="7.0" height="11.0" class="text" style="fill:none;stroke:red;stroke-width:0.5;"/>
     <text x="22.0" y="378.0" achars="3" style="fill:black;font-family:helvetica;font-size:10.0px;">3</text>
    </g>
    <g>
     <rect x="30.0" y="367.0" width="7.0" height="11.0" class="text" style="fill:none;stroke:red;stroke-width:0.5;"/>
     <text x="30.0" y="378.0" achars="3" style="fill:black;font-family:helvetica;font-size:10.0px;">3</text>
    </g>
    <rect x="38.0" y="367.0" width="2.0" height="13.0" class="space" style="fill:none;stroke:blue;stroke-width:0.5;"/>
    <g>
     <rect x="41.0" y="367.0" width="4.0" height="13.0" class="text" style="fill:none;stroke:red;stroke-width:0.5;"/>
     <text x="41.0" y="380.0" achars="(,c" style="fill:black;font-family:helvetica;font-size:10.0px;">(</text>
    </g>
    <g>
     <rect x="46.0" y="367.0" width="7.0" height="11.0" class="text" style="fill:none;stroke:red;stroke-width:0.5;"/>
     <text x="46.0" y="378.0" achars="0" style="fill:black;font-family:helvetica;font-size:10.0px;">0</text>
    </g>
    <g>
     <rect x="54.0" y="376.0" width="2.0" height="1.0" class="text" style="fill:none;stroke:red;stroke-width:0.5;"/>
     <text x="54.0" y="377.0" achars="." style="fill:black;font-family:helvetica;font-size:10.0px;">.</text>
    </g>
    <g>
     <rect x="58.0" y="367.0" width="4.0" height="10.0" class="text" style="fill:none;stroke:red;stroke-width:0.5;"/>
     <text x="58.0" y="377.0" achars="1" style="fill:black;font-family:helvetica;font-size:10.0px;">1</text>
    </g>
    <g>
     <rect x="64.0" y="367.0" width="7.0" height="11.0" class="text" style="fill:none;stroke:red;stroke-width:0.5;"/>
     <text x="64.0" y="378.0" achars="9,g" style="fill:black;font-family:helvetica;font-size:10.0px;">9</text>
    </g>
    <g>
     <rect x="72.0" y="376.0" width="2.0" height="4.0" class="text" style="fill:none;stroke:red;stroke-width:0.5;"/>
     <text x="72.0" y="380.0" achars=".,§" style="fill:black;font-family:helvetica;font-size:10.0px;">.</text>
    </g>
    <rect x="75.0" y="367.0" width="3.0" height="11.0" class="space" style="fill:none;stroke:blue;stroke-width:0.5;"/>
    <g>
     <rect x="79.0" y="367.0" width="7.0" height="11.0" class="text" style="fill:none;stroke:red;stroke-width:0.5;"/>
     <text x="79.0" y="378.0" achars="O,0,o" style="fill:black;font-family:helvetica;font-size:10.0px;">O</text>
    </g>
    <g>
     <rect x="87.0" y="376.0" width="2.0" height="1.0" class="text" style="fill:none;stroke:red;stroke-width:0.5;"/>
     <text x="87.0" y="377.0" achars="." style="fill:black;font-family:helvetica;font-size:10.0px;">.</text>
    </g>
    <g>
     <rect x="90.0" y="367.0" width="7.0" height="11.0" class="text" style="fill:none;stroke:red;stroke-width:0.5;"/>
     <text x="90.0" y="378.0" achars="$,5" style="fill:black;font-family:helvetica;font-size:10.0px;">$</text>
    </g>
    <g>
     <rect x="98.0" y="367.0" width="6.0" height="11.0" class="text" style="fill:none;stroke:red;stroke-width:0.5;"/>
     <text x="98.0" y="378.0" achars="7,1,l" style="fill:black;font-family:helvetica;font-size:10.0px;">7</text>
    </g>
    <g>
     <rect x="105.0" y="367.0" width="4.0" height="13.0" class="text" style="fill:none;stroke:red;stroke-width:0.5;"/>
     <text x="105.0" y="380.0" achars="),1" style="fill:black;font-family:helvetica;font-size:10.0px;">)</text>
    </g>
    <rect x="110.0" y="367.0" width="5.0" height="11.0" class="space" style="fill:none;stroke:blue;stroke-width:0.5;"/>
    <rect x="124.0" y="367.0" width="5.0" height="11.0" class="space" style="fill:none;stroke:blue;stroke-width:0.5;"/>
    <rect x="141.0" y="367.0" width="2.0" height="11.0" class="space" style="fill:none;stroke:blue;stroke-width:0.5;"/>
    <rect x="153.0" y="367.0" width="-1.0" height="11.0" class="space" style="fill:none;stroke:blue;stroke-width:0.5;"/>
    <rect x="157.0" y="367.0" width="-2.0" height="11.0" class="space" style="fill:none;stroke:blue;stroke-width:0.5;"/>
    <g>
     <rect x="156.0" y="367.0" width="15.0" height="11.0" class="text" style="fill:none;stroke:red;stroke-width:0.5;"/>
     <text x="156.0" y="378.0" achars="2l" style="fill:black;font-family:helvetica;font-size:10.0px;">2</text>
    </g>
    <g>
     <rect x="171.0" y="367.0" width="18.0" height="11.0" class="text" style="fill:none;stroke:red;stroke-width:0.5;"/>
     <text x="171.0" y="378.0" achars="rJ29,r29,J29" style="fill:black;font-family:helvetica;font-size:10.0px;">r</text>
    </g>
    <g>
     <rect x="191.0" y="368.0" width="4.0" height="9.0" class="text" style="fill:none;stroke:red;stroke-width:0.5;"/>
     <text x="191.0" y="377.0" achars="1" style="fill:black;font-family:helvetica;font-size:10.0px;">1</text>
    </g>
    <rect x="196.0" y="367.0" width="6.0" height="11.0" class="space" style="fill:none;stroke:blue;stroke-width:0.5;"/>
    <rect x="212.0" y="367.0" width="5.0" height="11.0" class="space" style="fill:none;stroke:blue;stroke-width:0.5;"/>
    <rect x="228.0" y="367.0" width="1.0" height="11.0" class="space" style="fill:none;stroke:blue;stroke-width:0.5;"/>
    <rect x="236.0" y="367.0" width="-1.0" height="11.0" class="space" style="fill:none;stroke:blue;stroke-width:0.5;"/>
    <g>
     <rect x="236.0" y="367.0" width="18.0" height="11.0" class="text" style="fill:none;stroke:red;stroke-width:0.5;"/>
     <text x="236.0" y="378.0" achars="36r,3Y,36J" style="fill:black;font-family:helvetica;font-size:10.0px;">3</text>
    </g>
    <g>
     <rect x="256.0" y="368.0" width="3.0" height="9.0" class="text" style="fill:none;stroke:red;stroke-width:0.5;"/>
     <text x="256.0" y="377.0" achars="1" style="fill:black;font-family:helvetica;font-size:10.0px;">1</text>
    </g>
    <g>
     <rect x="262.0" y="367.0" width="6.0" height="11.0" class="text" style="fill:none;stroke:red;stroke-width:0.5;"/>
     <text x="262.0" y="378.0" achars="5,&gt;,s" style="fill:black;font-family:helvetica;font-size:10.0px;">5</text>
    </g>
    <g>
     <rect x="269.0" y="367.0" width="7.0" height="11.0" class="text" style="fill:none;stroke:red;stroke-width:0.5;"/>
     <text x="269.0" y="378.0" achars="2" style="fill:black;font-family:helvetica;font-size:10.0px;">2</text>
    </g>
    <rect x="277.0" y="367.0" width="5.0" height="11.0" class="space" style="fill:none;stroke:blue;stroke-width:0.5;"/>
    <rect x="291.0" y="367.0" width="4.0" height="11.0" class="space" style="fill:none;stroke:blue;stroke-width:0.5;"/>
    <rect x="307.0" y="367.0" width="2.0" height="11.0" class="space" style="fill:none;stroke:blue;stroke-width:0.5;"/>
    <rect x="319.0" y="367.0" width="-1.0" height="11.0" class="space" style="fill:none;stroke:blue;stroke-width:0.5;"/>
    <rect x="323.0" y="367.0" width="-2.0" height="11.0" class="space" style="fill:none;stroke:blue;stroke-width:0.5;"/>
    <g>
     <rect x="322.0" y="367.0" width="7.0" height="11.0" class="text" style="fill:none;stroke:red;stroke-width:0.5;"/>
     <text x="322.0" y="378.0" achars="5" style="fill:black;font-family:helvetica;font-size:10.0px;">5</text>
    </g>
    <g>
     <rect x="330.0" y="367.0" width="6.0" height="10.0" class="text" style="fill:none;stroke:red;stroke-width:0.5;"/>
     <text x="330.0" y="377.0" achars="7,1" style="fill:black;font-family:helvetica;font-size:10.0px;">7</text>
    </g>
    <g>
     <rect x="337.0" y="376.0" width="2.0" height="1.0" class="text" style="fill:none;stroke:red;stroke-width:0.5;"/>
     <text x="337.0" y="377.0" achars="." style="fill:black;font-family:helvetica;font-size:10.0px;">.</text>
    </g>
    <g>
     <rect x="340.0" y="367.0" width="7.0" height="11.0" class="text" style="fill:none;stroke:red;stroke-width:0.5;"/>
     <text x="340.0" y="378.0" achars="6" style="fill:black;font-family:helvetica;font-size:10.0px;">6</text>
    </g>
    <g>
     <rect x="348.0" y="367.0" width="7.0" height="11.0" class="text" style="fill:none;stroke:red;stroke-width:0.5;"/>
     <text x="348.0" y="378.0" achars="3" style="fill:black;font-family:helvetica;font-size:10.0px;">3</text>
    </g>
   </g>
   <g class="line">
    <rect x="12.0" y="450.0" width="6.0" height="11.0" class="space" style="fill:none;stroke:blue;stroke-width:0.5;"/>
    <g>
     <rect x="12.0" y="450.0" width="6.0" height="11.0" class="text" style="fill:none;stroke:red;stroke-width:0.5;"/>
     <text x="12.0" y="461.0" achars="0" style="fill:black;font-family:helvetica;font-size:10.0px;">0</text>
    </g>
    <g>
     <rect x="19.0" y="459.0" width="2.0" height="2.0" class="text" style="fill:none;stroke:red;stroke-width:0.5;"/>
     <text x="19.0" y="461.0" achars=",§." style="fill:black;font-family:helvetica;font-size:10.0px;">,</text>
    </g>
    <g>
     <rect x="22.0" y="450.0" width="7.0" height="11.0" class="text" style="fill:none;stroke:red;stroke-width:0.5;"/>
     <text x="22.0" y="461.0" achars="s" style="fill:black;font-family:helvetica;font-size:10.0px;">s</text>
    </g>
    <g>
     <rect x="30.0" y="450.0" width="7.0" height="11.0" class="text" style="fill:none;stroke:red;stroke-width:0.5;"/>
     <text x="30.0" y="461.0" achars="s" style="fill:black;font-family:helvetica;font-size:10.0px;">s</text>
    </g>
    <rect x="38.0" y="450.0" width="2.0" height="13.0" class="space" style="fill:none;stroke:blue;stroke-width:0.5;"/>
    <g>
     <rect x="41.0" y="450.0" width="4.0" height="13.0" class="text" style="fill:none;stroke:red;stroke-width:0.5;"/>
     <text x="41.0" y="463.0" achars="(,c" style="fill:black;font-family:helvetica;font-size:10.0px;">(</text>
    </g>
    <g>
     <rect x="46.0" y="450.0" width="6.0" height="11.0" class="text" style="fill:none;stroke:red;stroke-width:0.5;"/>
     <text x="46.0" y="461.0" achars="O,0,a,o" style="fill:black;font-family:helvetica;font-size:10.0px;">O</text>
    </g>
    <g>
     <rect x="54.0" y="459.0" width="2.0" height="2.0" class="text" style="fill:none;stroke:red;stroke-width:0.5;"/>
     <text x="54.0" y="461.0" achars=".,§" style="fill:black;font-family:helvetica;font-size:10.0px;">.</text>
    </g>
    <g>
     <rect x="57.0" y="450.0" width="7.0" height="11.0" class="text" style="fill:none;stroke:red;stroke-width:0.5;"/>
     <text x="57.0" y="461.0" achars="3" style="fill:black;font-family:helvetica;font-size:10.0px;">3</text>
    </g>
    <g>
     <rect x="65.0" y="450.0" width="4.0" height="10.0" class="text" style="fill:none;stroke:red;stroke-width:0.5;"/>
     <text x="65.0" y="460.0" achars="1" style="fill:black;font-family:helvetica;font-size:10.0px;">1</text>
    </g>
    <g>
     <rect x="72.0" y="459.0" width="2.0" height="3.0" class="text" style="fill:none;stroke:red;stroke-width:0.5;"/>
     <text x="72.0" y="462.0" achars=".,§" style="fill:black;font-family:helvetica;font-size:10.0px;">.</text>
    </g>
    <rect x="75.0" y="450.0" width="3.0" height="11.0" class="space" style="fill:none;stroke:blue;stroke-width:0.5;"/>
    <g>
     <rect x="79.0" y="450.0" width="7.0" height="11.0" class="text" style="fill:none;stroke:red;stroke-width:0.5;"/>
     <text x="79.0" y="461.0" achars="O,0,o" style="fill:black;font-family:helvetica;font-size:10.0px;">O</text>
    </g>
    <g>
     <rect x="87.0" y="459.0" width="2.0" height="1.0" class="text" style="fill:none;stroke:red;stroke-width:0.5;"/>
     <text x="87.0" y="460.0" achars="." style="fill:black;font-family:helvetica;font-size:10.0px;">.</text>
    </g>
    <g>
     <rect x="90.0" y="450.0" width="7.0" height="11.0" class="text" style="fill:none;stroke:red;stroke-width:0.5;"/>
     <text x="90.0" y="461.0" achars="g,9" style="fill:black;font-family:helvetica;font-size:10.0px;">g</text>
    </g>
    <g>
     <rect x="98.0" y="450.0" width="7.0" height="11.0" class="text" style="fill:none;stroke:red;stroke-width:0.5;"/>
     <text x="98.0" y="461.0" achars="8,&amp;" style="fill:black;font-family:helvetica;font-size:10.0px;">8</text>
    </g>
    <g>
     <rect x="106.0" y="450.0" width="3.0" height="13.0" class="text" style="fill:none;stroke:red;stroke-width:0.5;"/>
     <text x="106.0" y="463.0" achars="),t,1" style="fill:black;font-family:helvetica;font-size:10.0px;">)</text>
    </g>
    <rect x="110.0" y="450.0" width="5.0" height="11.0" class="space" style="fill:none;stroke:blue;stroke-width:0.5;"/>
    <rect x="124.0" y="450.0" width="5.0" height="11.0" class="space" style="fill:none;stroke:blue;stroke-width:0.5;"/>
    <rect x="141.0" y="450.0" width="2.0" height="11.0" class="space" style="fill:none;stroke:blue;stroke-width:0.5;"/>
    <rect x="153.0" y="450.0" width="-1.0" height="11.0" class="space" style="fill:none;stroke:blue;stroke-width:0.5;"/>
    <rect x="157.0" y="450.0" width="-2.0" height="11.0" class="space" style="fill:none;stroke:blue;stroke-width:0.5;"/>
    <g>
     <rect x="156.0" y="450.0" width="19.0" height="11.0" class="text" style="fill:none;stroke:red;stroke-width:0.5;"/>
     <text x="156.0" y="461.0" achars="" style="fill:black;font-family:helvetica;font-size:10.0px;">?</text>
    </g>
    <g>
     <rect x="176.0" y="450.0" width="4.0" height="10.0" class="text" style="fill:none;stroke:red;stroke-width:0.5;"/>
     <text x="176.0" y="460.0" achars="1" style="fill:black;font-family:helvetica;font-size:10.0px;">1</text>
    </g>
    <g>
     <rect x="182.0" y="450.0" width="7.0" height="11.0" class="text" style="fill:none;stroke:red;stroke-width:0.5;"/>
     <text x="182.0" y="461.0" achars="6" style="fill:black;font-family:helvetica;font-size:10.0px;">6</text>
    </g>
    <g>
     <rect x="190.0" y="451.0" width="5.0" height="10.0" class="text" style="fill:none;stroke:red;stroke-width:0.5;"/>
     <text x="190.0" y="461.0" achars="1" style="fill:black;font-family:helvetica;font-size:10.0px;">1</text>
    </g>
    <rect x="196.0" y="450.0" width="6.0" height="11.0" class="space" style="fill:none;stroke:blue;stroke-width:0.5;"/>
    <rect x="212.0" y="450.0" width="5.0" height="11.0" class="space" style="fill:none;stroke:blue;stroke-width:0.5;"/>
    <rect x="228.0" y="450.0" width="1.0" height="11.0" class="space" style="fill:none;stroke:blue;stroke-width:0.5;"/>
    <rect x="236.0" y="450.0" width="-1.0" height="11.0" class="space" style="fill:none;stroke:blue;stroke-width:0.5;"/>
    <g>
     <rect x="236.0" y="450.0" width="6.0" height="11.0" class="text" style="fill:none;stroke:red;stroke-width:0.5;"/>
     <text x="236.0" y="461.0" achars="3" style="fill:black;font-family:helvetica;font-size:10.0px;">3</text>
    </g>
    <g>
     <rect x="243.0" y="450.0" width="6.0" height="10.0" class="text" style="fill:none;stroke:red;stroke-width:0.5;"/>
     <text x="243.0" y="460.0" achars="7,J,1" style="fill:black;font-family:helvetica;font-size:10.0px;">7</text>
    </g>
    <g>
     <rect x="250.0" y="451.0" width="4.0" height="9.0" class="text" style="fill:none;stroke:red;stroke-width:0.5;"/>
     <text x="250.0" y="460.0" achars="J,r,I,t,1,l" style="fill:black;font-family:helvetica;font-size:10.0px;">J</text>
    </g>
    <g>
     <rect x="256.0" y="451.0" width="3.0" height="9.0" class="text" style="fill:none;stroke:red;stroke-width:0.5;"/>
     <text x="256.0" y="460.0" achars="1" style="fill:black;font-family:helvetica;font-size:10.0px;">1</text>
    </g>
    <g>
     <rect x="261.0" y="450.0" width="7.0" height="11.0" class="text" style="fill:none;stroke:red;stroke-width:0.5;"/>
     <text x="261.0" y="461.0" achars="d,6" style="fill:black;font-family:helvetica;font-size:10.0px;">d</text>
    </g>
    <g>
     <rect x="269.0" y="450.0" width="7.0" height="11.0" class="text" style="fill:none;stroke:red;stroke-width:0.5;"/>
     <text x="269.0" y="461.0" achars="5" style="fill:black;font-family:helvetica;font-size:10.0px;">5</text>
    </g>
    <rect x="277.0" y="451.0" width="5.0" height="9.0" class="space" style="fill:none;stroke:blue;stroke-width:0.5;"/>
    <rect x="291.0" y="451.0" width="4.0" height="9.0" class="space" style="fill:none;stroke:blue;stroke-width:0.5;"/>
    <rect x="307.0" y="451.0" width="2.0" height="9.0" class="space" style="fill:none;stroke:blue;stroke-width:0.5;"/>
    <rect x="319.0" y="451.0" width="-1.0" height="9.0" class="space" style="fill:none;stroke:blue;stroke-width:0.5;"/>
    <rect x="323.0" y="451.0" width="-2.0" height="9.0" class="space" style="fill:none;stroke:blue;stroke-width:0.5;"/>
    <g>
     <rect x="322.0" y="451.0" width="6.0" height="9.0" class="text" style="fill:none;stroke:red;stroke-width:0.5;"/>
     <text x="322.0" y="460.0" achars="q" style="fill:black;font-family:helvetica;font-size:10.0px;">q</text>
    </g>
    <g>
     <rect x="329.0" y="450.0" width="7.0" height="11.0" class="text" style="fill:none;stroke:red;stroke-width:0.5;"/>
     <text x="329.0" y="461.0" achars="" style="fill:black;font-family:helvetica;font-size:10.0px;">?</text>
    </g>
    <rect x="337.0" y="450.0" width="3.0" height="11.0" class="space" style="fill:none;stroke:blue;stroke-width:0.5;"/>
    <g>
     <rect x="341.0" y="450.0" width="6.0" height="11.0" class="text" style="fill:none;stroke:red;stroke-width:0.5;"/>
     <text x="341.0" y="461.0" achars="3" style="fill:black;font-family:helvetica;font-size:10.0px;">3</text>
    </g>
    <g>
     <rect x="348.0" y="450.0" width="6.0" height="10.0" class="text" style="fill:none;stroke:red;stroke-width:0.5;"/>
     <text x="348.0" y="460.0" achars="7,J,1" style="fill:black;font-family:helvetica;font-size:10.0px;">7</text>
    </g>
   </g>
   <g class="line">
    <rect x="12.0" y="532.0" width="6.0" height="10.0" class="space" style="fill:none;stroke:blue;stroke-width:0.5;"/>
    <g>
     <rect x="12.0" y="532.0" width="6.0" height="10.0" class="text" style="fill:none;stroke:red;stroke-width:0.5;"/>
     <text x="12.0" y="542.0" achars="0" style="fill:black;font-family:helvetica;font-size:10.0px;">0</text>
    </g>
    <g>
     <rect x="19.0" y="540.0" width="2.0" height="2.0" class="text" style="fill:none;stroke:red;stroke-width:0.5;"/>
     <text x="19.0" y="542.0" achars=".,§" style="fill:black;font-family:helvetica;font-size:10.0px;">.</text>
    </g>
    <g>
     <rect x="22.0" y="532.0" width="7.0" height="10.0" class="text" style="fill:none;stroke:red;stroke-width:0.5;"/>
     <text x="22.0" y="542.0" achars="q,4" style="fill:black;font-family:helvetica;font-size:10.0px;">q</text>
    </g>
    <g>
     <rect x="30.0" y="531.0" width="7.0" height="11.0" class="text" style="fill:none;stroke:red;stroke-width:0.5;"/>
     <text x="30.0" y="542.0" achars="2" style="fill:black;font-family:helvetica;font-size:10.0px;">2</text>
    </g>
    <g>
     <rect x="41.0" y="532.0" width="4.0" height="12.0" class="text" style="fill:none;stroke:red;stroke-width:0.5;"/>
     <text x="41.0" y="544.0" achars="(,c,r,1" style="fill:black;font-family:helvetica;font-size:10.0px;">(</text>
    </g>
    <g>
     <rect x="46.0" y="531.0" width="7.0" height="11.0" class="text" style="fill:none;stroke:red;stroke-width:0.5;"/>
     <text x="46.0" y="542.0" achars="0,D,Q" style="fill:black;font-family:helvetica;font-size:10.0px;">0</text>
    </g>
    <g>
     <rect x="54.0" y="540.0" width="2.0" height="2.0" class="text" style="fill:none;stroke:red;stroke-width:0.5;"/>
     <text x="54.0" y="542.0" achars=".,§" style="fill:black;font-family:helvetica;font-size:10.0px;">.</text>
    </g>
    <g>
     <rect x="57.0" y="532.0" width="7.0" height="10.0" class="text" style="fill:none;stroke:red;stroke-width:0.5;"/>
     <text x="57.0" y="542.0" achars="2" style="fill:black;font-family:helvetica;font-size:10.0px;">2</text>
    </g>
    <g>
     <rect x="64.0" y="531.0" width="7.0" height="11.0" class="text" style="fill:none;stroke:red;stroke-width:0.5;"/>
     <text x="64.0" y="542.0" achars="8" style="fill:black;font-family:helvetica;font-size:10.0px;">8</text>
    </g>
    <g>
     <rect x="72.0" y="540.0" width="2.0" height="4.0" class="text" style="fill:none;stroke:red;stroke-width:0.5;"/>
     <text x="72.0" y="544.0" achars=".,§" style="fill:black;font-family:helvetica;font-size:10.0px;">.</text>
    </g>
    <rect x="75.0" y="531.0" width="3.0" height="11.0" class="space" style="fill:none;stroke:blue;stroke-width:0.5;"/>
    <g>
     <rect x="79.0" y="531.0" width="7.0" height="11.0" class="text" style="fill:none;stroke:red;stroke-width:0.5;"/>
     <text x="79.0" y="542.0" achars="0" style="fill:black;font-family:helvetica;font-size:10.0px;">0</text>
    </g>
    <g>
     <rect x="87.0" y="540.0" width="2.0" height="2.0" class="text" style="fill:none;stroke:red;stroke-width:0.5;"/>
     <text x="87.0" y="542.0" achars=".,§" style="fill:black;font-family:helvetica;font-size:10.0px;">.</text>
    </g>
    <g>
     <rect x="90.0" y="531.0" width="7.0" height="11.0" class="text" style="fill:none;stroke:red;stroke-width:0.5;"/>
     <text x="90.0" y="542.0" achars="6" style="fill:black;font-family:helvetica;font-size:10.0px;">6</text>
    </g>
    <g>
     <rect x="98.0" y="531.0" width="6.0" height="11.0" class="text" style="fill:none;stroke:red;stroke-width:0.5;"/>
     <text x="98.0" y="542.0" achars="3" style="fill:black;font-family:helvetica;font-size:10.0px;">3</text>
    </g>
    <g>
     <rect x="105.0" y="532.0" width="4.0" height="12.0" class="text" style="fill:none;stroke:red;stroke-width:0.5;"/>
     <text x="105.0" y="544.0" achars=")" style="fill:black;font-family:helvetica;font-size:10.0px;">)</text>
    </g>
    <rect x="110.0" y="532.0" width="6.0" height="10.0" class="space" style="fill:none;stroke:blue;stroke-width:0.5;"/>
    <rect x="125.0" y="532.0" width="5.0" height="10.0" class="space" style="fill:none;stroke:blue;stroke-width:0.5;"/>
    <rect x="142.0" y="532.0" width="2.0" height="10.0" class="space" style="fill:none;stroke:blue;stroke-width:0.5;"/>
    <rect x="154.0" y="532.0" width="-1.0" height="10.0" class="space" style="fill:none;stroke:blue;stroke-width:0.5;"/>
    <rect x="158.0" y="532.0" width="-2.0" height="10.0" class="space" style="fill:none;stroke:blue;stroke-width:0.5;"/>
    <g>
     <rect x="157.0" y="532.0" width="6.0" height="10.0" class="text" style="fill:none;stroke:red;stroke-width:0.5;"/>
     <text x="157.0" y="542.0" achars="q,4" style="fill:black;font-family:helvetica;font-size:10.0px;">q</text>
    </g>
    <g>
     <rect x="164.0" y="532.0" width="12.0" height="10.0" class="text" style="fill:none;stroke:red;stroke-width:0.5;"/>
     <text x="164.0" y="542.0" achars="" style="fill:black;font-family:helvetica;font-size:10.0px;">?</text>
    </g>
    <g>
     <rect x="175.0" y="532.0" width="7.0" height="10.0" class="text" style="fill:none;stroke:red;stroke-width:0.5;"/>
     <text x="175.0" y="542.0" achars="q,4" style="fill:black;font-family:helvetica;font-size:10.0px;">q</text>
    </g>
    <g>
     <rect x="183.0" y="532.0" width="7.0" height="10.0" class="text" style="fill:none;stroke:red;stroke-width:0.5;"/>
     <text x="183.0" y="542.0" achars="5,&gt;" style="fill:black;font-family:helvetica;font-size:10.0px;">5</text>
    </g>
    <g>
     <rect x="190.0" y="532.0" width="7.0" height="10.0" class="text" style="fill:none;stroke:red;stroke-width:0.5;"/>
     <text x="190.0" y="542.0" achars="2" style="fill:black;font-family:helvetica;font-size:10.0px;">2</text>
    </g>
    <rect x="198.0" y="531.0" width="6.0" height="11.0" class="space" style="fill:none;stroke:blue;stroke-width:0.5;"/>
    <rect x="213.0" y="531.0" width="5.0" height="11.0" class="space" style="fill:none;stroke:blue;stroke-width:0.5;"/>
    <rect x="229.0" y="531.0" width="1.0" height="11.0" class="space" style="fill:none;stroke:blue;stroke-width:0.5;"/>
    <rect x="237.0" y="531.0" width="-2.0" height="11.0" class="space" style="fill:none;stroke:blue;stroke-width:0.5;"/>
    <g>
     <rect x="236.0" y="531.0" width="6.0" height="11.0" class="text" style="fill:none;stroke:red;stroke-width:0.5;"/>
     <text x="236.0" y="542.0" achars="7" style="fill:black;font-family:helvetica;font-size:10.0px;">7</text>
    </g>
    <g>
     <rect x="243.0" y="531.0" width="18.0" height="11.0" class="text" style="fill:none;stroke:red;stroke-width:0.5;"/>
     <text x="243.0" y="542.0" achars="Xt" style="fill:black;font-family:helvetica;font-size:10.0px;">X</text>
    </g>
    <g>
     <rect x="263.0" y="532.0" width="3.0" height="10.0" class="text" style="fill:none;stroke:red;stroke-width:0.5;"/>
     <text x="263.0" y="542.0" achars="1" style="fill:black;font-family:helvetica;font-size:10.0px;">1</text>
    </g>
    <g>
     <rect x="269.0" y="532.0" width="6.0" height="10.0" class="text" style="fill:none;stroke:red;stroke-width:0.5;"/>
     <text x="269.0" y="542.0" achars="7,J" style="fill:black;font-family:helvetica;font-size:10.0px;">7</text>
    </g>
    <rect x="276.0" y="532.0" width="6.0" height="10.0" class="space" style="fill:none;stroke:blue;stroke-width:0.5;"/>
    <rect x="291.0" y="532.0" width="5.0" height="10.0" class="space" style="fill:none;stroke:blue;stroke-width:0.5;"/>
    <rect x="309.0" y="532.0" width="2.0" height="10.0" class="space" style="fill:none;stroke:blue;stroke-width:0.5;"/>
    <rect x="321.0" y="532.0" width="-1.0" height="10.0" class="space" style="fill:none;stroke:blue;stroke-width:0.5;"/>
    <rect x="325.0" y="532.0" width="-2.0" height="10.0" class="space" style="fill:none;stroke:blue;stroke-width:0.5;"/>
    <g>
     <rect x="324.0" y="532.0" width="3.0" height="10.0" class="text" style="fill:none;stroke:red;stroke-width:0.5;"/>
     <text x="324.0" y="542.0" achars="1" style="fill:black;font-family:helvetica;font-size:10.0px;">1</text>
    </g>
    <g>
     <rect x="330.0" y="531.0" width="6.0" height="11.0" class="text" style="fill:none;stroke:red;stroke-width:0.5;"/>
     <text x="330.0" y="542.0" achars="0" style="fill:black;font-family:helvetica;font-size:10.0px;">0</text>
    </g>
    <g>
     <rect x="337.0" y="531.0" width="6.0" height="11.0" class="text" style="fill:none;stroke:red;stroke-width:0.5;"/>
     <text x="337.0" y="542.0" achars="O,0,o" style="fill:black;font-family:helvetica;font-size:10.0px;">O</text>
    </g>
    <g>
     <rect x="345.0" y="540.0" width="1.0" height="2.0" class="text" style="fill:none;stroke:red;stroke-width:0.5;"/>
     <text x="345.0" y="542.0" achars=".,§" style="fill:black;font-family:helvetica;font-size:10.0px;">.</text>
    </g>
    <g>
     <rect x="348.0" y="532.0" width="6.0" height="10.0" class="text" style="fill:none;stroke:red;stroke-width:0.5;"/>
     <text x="348.0" y="542.0" achars="o,O,0" style="fill:black;font-family:helvetica;font-size:10.0px;">o</text>
    </g>
    <g>
     <rect x="356.0" y="531.0" width="6.0" height="11.0" class="text" style="fill:none;stroke:red;stroke-width:0.5;"/>
     <text x="356.0" y="542.0" achars="0" style="fill:black;font-family:helvetica;font-size:10.0px;">0</text>
    </g>
   </g>
  </g>
 </g>
</svg>
