<?xml version="1.0" encoding="UTF-8"?>
<svg height="504.0" width="347.0" xmlns="http://www.w3.org/2000/svg">
 <g class="page">
  <g class="block">
   <g class="line">
    <rect x="42.0" y="490.0" width="292.0" height="4.0" class="space" style="fill:none;stroke:blue;stroke-width:0.5;"/>
    <g>
     <rect x="42.0" y="490.0" width="292.0" height="4.0" class="text" style="fill:none;stroke:red;stroke-width:0.5;"/>
     <text x="42.0" y="494.0" achars="" style="fill:black;font-family:helvetica;font-size:10.0px;">?</text>
    </g>
   </g>
   <g class="line">
    <rect x="57.0" y="57.0" width="12.0" height="12.0" class="space" style="fill:none;stroke:blue;stroke-width:0.5;"/>
    <g>
     <rect x="57.0" y="57.0" width="12.0" height="12.0" class="text" style="fill:none;stroke:red;stroke-width:0.5;"/>
     <text x="57.0" y="69.0" achars="M,m" style="fill:black;font-family:helvetica;font-size:10.0px;">M</text>
    </g>
    <g>
     <rect x="70.0" y="60.0" width="8.0" height="9.0" class="text" style="fill:none;stroke:red;stroke-width:0.5;"/>
     <text x="70.0" y="69.0" achars="u" style="fill:black;font-family:helvetica;font-size:10.0px;">u</text>
    </g>
    <g>
     <rect x="80.0" y="60.0" width="4.0" height="9.0" class="text" style="fill:none;stroke:red;stroke-width:0.5;"/>
     <text x="80.0" y="69.0" achars="r" style="fill:black;font-family:helvetica;font-size:10.0px;">r</text>
    </g>
    <g>
     <rect x="84.0" y="60.0" width="8.0" height="9.0" class="text" style="fill:none;stroke:red;stroke-width:0.5;"/>
     <text x="84.0" y="69.0" achars="e,g" style="fill:black;font-family:helvetica;font-size:10.0px;">e</text>
    </g>
    <g>
     <rect x="93.0" y="60.0" width="7.0" height="9.0" class="text" style="fill:none;stroke:red;stroke-width:0.5;"/>
     <text x="93.0" y="69.0" achars="n" style="fill:black;font-family:helvetica;font-size:10.0px;">n</text>
    </g>
    <rect x="101.0" y="58.0" width="3.0" height="11.0" class="space" style="fill:none;stroke:blue;stroke-width:0.5;"/>
    <g>
     <rect x="105.0" y="58.0" width="8.0" height="11.0" class="text" style="fill:none;stroke:red;stroke-width:0.5;"/>
     <text x="105.0" y="69.0" achars="2,Z,l" style="fill:black;font-family:helvetica;font-size:10.0px;">2</text>
    </g>
    <g>
     <rect x="114.0" y="57.0" width="7.0" height="12.0" class="text" style="fill:none;stroke:red;stroke-width:0.5;"/>
     <text x="114.0" y="69.0" achars="O,0,a" style="fill:black;font-family:helvetica;font-size:10.0px;">O</text>
    </g>
    <g>
     <rect x="123.0" y="58.0" width="4.0" height="11.0" class="text" style="fill:none;stroke:red;stroke-width:0.5;"/>
     <text x="123.0" y="69.0" achars="1" style="fill:black;font-family:helvetica;font-size:10.0px;">1</text>
    </g>
    <rect x="128.0" y="58.0" width="2.0" height="11.0" class="space" style="fill:none;stroke:blue;stroke-width:0.5;"/>
    <g>
     <rect x="131.0" y="58.0" width="7.0" height="11.0" class="text" style="fill:none;stroke:red;stroke-width:0.5;"/>
     <text x="131.0" y="69.0" achars="5,S" style="fill:black;font-family:helvetica;font-size:10.0px;">5</text>
    </g>
    <rect x="139.0" y="61.0" width="5.0" height="3.0" class="space" style="fill:none;stroke:blue;stroke-width:0.5;"/>
    <rect x="154.0" y="61.0" width="5.0" height="3.0" class="space" style="fill:none;stroke:blue;stroke-width:0.5;"/>
    <rect x="176.0" y="61.0" width="5.0" height="3.0" class="space" style="fill:none;stroke:blue;stroke-width:0.5;"/>
    <rect x="203.0" y="61.0" width="4.0" height="3.0" class="space" style="fill:none;stroke:blue;stroke-width:0.5;"/>
    <rect x="232.0" y="61.0" width="2.0" height="3.0" class="space" style="fill:none;stroke:blue;stroke-width:0.5;"/>
    <rect x="258.0" y="61.0" width="1.0" height="3.0" class="space" style="fill:none;stroke:blue;stroke-width:0.5;"/>
    <rect x="281.0" y="61.0" width="0.0" height="3.0" class="space" style="fill:none;stroke:blue;stroke-width:0.5;"/>
    <rect x="299.0" y="61.0" width="-1.0" height="3.0" class="space" style="fill:none;stroke:blue;stroke-width:0.5;"/>
    <rect x="312.0" y="61.0" width="-2.0" height="3.0" class="space" style="fill:none;stroke:blue;stroke-width:0.5;"/>
    <rect x="321.0" y="61.0" width="-3.0" height="3.0" class="space" style="fill:none;stroke:blue;stroke-width:0.5;"/>
    <rect x="326.0" y="61.0" width="-3.0" height="3.0" class="space" style="fill:none;stroke:blue;stroke-width:0.5;"/>
    <rect x="329.0" y="61.0" width="-3.0" height="3.0" class="space" style="fill:none;stroke:blue;stroke-width:0.5;"/>
    <rect x="331.0" y="61.0" width="-4.0" height="3.0" class="space" style="fill:none;stroke:blue;stroke-width:0.5;"/>
    <rect x="332.0" y="61.0" width="-4.0" height="3.0" class="space" style="fill:none;stroke:blue;stroke-width:0.5;"/>
    <rect x="333.0" y="61.0" width="-4.0" height="3.0" class="space" style="fill:none;stroke:blue;stroke-width:0.5;"/>
    <rect x="333.0" y="61.0" width="-4.0" height="3.0" class="space" style="fill:none;stroke:blue;stroke-width:0.5;"/>
    <rect x="333.0" y="61.0" width="-3.0" height="3.0" class="space" style="fill:none;stroke:blue;stroke-width:0.5;"/>
    <rect x="334.0" y="61.0" width="-4.0" height="3.0" class="space" style="fill:none;stroke:blue;stroke-width:0.5;"/>
    <rect x="334.0" y="61.0" width="-4.0" height="3.0" class="space" style="fill:none;stroke:blue;stroke-width:0.5;"/>
    <rect x="334.0" y="61.0" width="-4.0" height="3.0" class="space" style="fill:none;stroke:blue;stroke-width:0.5;"/>
    <rect x="334.0" y="61.0" width="-3.0" height="3.0" class="space" style="fill:none;stroke:blue;stroke-width:0.5;"/>
    <g>
     <rect x="332.0" y="61.0" width="2.0" height="3.0" class="text" style="fill:none;stroke:red;stroke-width:0.5;"/>
     <text x="332.0" y="64.0" achars="'" style="fill:black;font-family:helvetica;font-size:10.0px;">'</text>
    </g>
   </g>
   <g class="line">
    <rect x="57.0" y="143.0" width="7.0" height="12.0" class="space" style="fill:none;stroke:blue;stroke-width:0.5;"/>
    <g>
     <rect x="57.0" y="143.0" width="7.0" height="12.0" class="text" style="fill:none;stroke:red;stroke-width:0.5;"/>
     <text x="57.0" y="155.0" achars="S,5" style="fill:black;font-family:helvetica;font-size:10.0px;">S</text>
    </g>
    <g>
     <rect x="65.0" y="143.0" width="7.0" height="12.0" class="text" style="fill:none;stroke:red;stroke-width:0.5;"/>
     <text x="65.0" y="155.0" achars="k" style="fill:black;font-family:helvetica;font-size:10.0px;">k</text>
    </g>
    <g>
     <rect x="73.0" y="146.0" width="8.0" height="9.0" class="text" style="fill:none;stroke:red;stroke-width:0.5;"/>
     <text x="73.0" y="155.0" achars="o,O,0" style="fill:black;font-family:helvetica;font-size:10.0px;">o</text>
    </g>
    <g>
     <rect x="82.0" y="143.0" width="2.0" height="12.0" class="text" style="fill:none;stroke:red;stroke-width:0.5;"/>
     <text x="82.0" y="155.0" achars="l,I,|,1" style="fill:black;font-family:helvetica;font-size:10.0px;">l</text>
    </g>
    <g>
     <rect x="86.0" y="143.0" width="7.0" height="12.0" class="text" style="fill:none;stroke:red;stroke-width:0.5;"/>
     <text x="86.0" y="155.0" achars="d" style="fill:black;font-family:helvetica;font-size:10.0px;">d</text>
    </g>
    <g>
     <rect x="95.0" y="146.0" width="7.0" height="9.0" class="text" style="fill:none;stroke:red;stroke-width:0.5;"/>
     <text x="95.0" y="155.0" achars="e,g" style="fill:black;font-family:helvetica;font-size:10.0px;">e</text>
    </g>
    <g>
     <rect x="104.0" y="146.0" width="7.0" height="9.0" class="text" style="fill:none;stroke:red;stroke-width:0.5;"/>
     <text x="104.0" y="155.0" achars="n" style="fill:black;font-family:helvetica;font-size:10.0px;">n</text>
    </g>
    <g>
     <rect x="113.0" y="143.0" width="8.0" height="12.0" class="text" style="fill:none;stroke:red;stroke-width:0.5;"/>
     <text x="113.0" y="155.0" achars="b" style="fill:black;font-family:helvetica;font-size:10.0px;">b</text>
    </g>
    <g>
     <rect x="122.0" y="146.0" width="7.0" height="9.0" class="text" style="fill:none;stroke:red;stroke-width:0.5;"/>
     <text x="122.0" y="155.0" achars="e,g,i" style="fill:black;font-family:helvetica;font-size:10.0px;">e</text>
    </g>
    <g>
     <rect x="130.0" y="146.0" width="5.0" height="9.0" class="text" style="fill:none;stroke:red;stroke-width:0.5;"/>
     <text x="130.0" y="155.0" achars="r" style="fill:black;font-family:helvetica;font-size:10.0px;">r</text>
    </g>
    <g>
     <rect x="135.0" y="146.0" width="8.0" height="12.0" class="text" style="fill:none;stroke:red;stroke-width:0.5;"/>
     <text x="135.0" y="158.0" achars="g,9,0" style="fill:black;font-family:helvetica;font-size:10.0px;">g</text>
    </g>
    <rect x="144.0" y="144.0" width="3.0" height="11.0" class="space" style="fill:none;stroke:blue;stroke-width:0.5;"/>
    <g>
     <rect x="148.0" y="144.0" width="7.0" height="11.0" class="text" style="fill:none;stroke:red;stroke-width:0.5;"/>
     <text x="148.0" y="155.0" achars="l,Z" style="fill:black;font-family:helvetica;font-size:10.0px;">l</text>
    </g>
    <g>
     <rect x="156.0" y="143.0" width="8.0" height="12.0" class="text" style="fill:none;stroke:red;stroke-width:0.5;"/>
     <text x="156.0" y="155.0" achars="O,0,a" style="fill:black;font-family:helvetica;font-size:10.0px;">O</text>
    </g>
    <g>
     <rect x="166.0" y="144.0" width="4.0" height="11.0" class="text" style="fill:none;stroke:red;stroke-width:0.5;"/>
     <text x="166.0" y="155.0" achars="1,l" style="fill:black;font-family:helvetica;font-size:10.0px;">1</text>
    </g>
    <rect x="171.0" y="144.0" width="3.0" height="11.0" class="space" style="fill:none;stroke:blue;stroke-width:0.5;"/>
    <g>
     <rect x="175.0" y="144.0" width="4.0" height="11.0" class="text" style="fill:none;stroke:red;stroke-width:0.5;"/>
     <text x="175.0" y="155.0" achars="l,1" style="fill:black;font-family:helvetica;font-size:10.0px;">l</text>
    </g>
   </g>
   <g class="line">
    <rect x="57.0" y="229.0" width="8.0" height="11.0" class="space" style="fill:none;stroke:blue;stroke-width:0.5;"/>
    <g>
     <rect x="57.0" y="229.0" width="8.0" height="11.0" class="text" style="fill:none;stroke:red;stroke-width:0.5;"/>
     <text x="57.0" y="240.0" achars="K,C" style="fill:black;font-family:helvetica;font-size:10.0px;">K</text>
    </g>
    <g>
     <rect x="66.0" y="232.0" width="7.0" height="8.0" class="text" style="fill:none;stroke:red;stroke-width:0.5;"/>
     <text x="66.0" y="240.0" achars="u" style="fill:black;font-family:helvetica;font-size:10.0px;">u</text>
    </g>
    <g>
     <rect x="75.0" y="232.0" width="12.0" height="8.0" class="text" style="fill:none;stroke:red;stroke-width:0.5;"/>
     <text x="75.0" y="240.0" achars="m" style="fill:black;font-family:helvetica;font-size:10.0px;">m</text>
    </g>
    <g>
     <rect x="88.0" y="232.0" width="7.0" height="8.0" class="text" style="fill:none;stroke:red;stroke-width:0.5;"/>
     <text x="88.0" y="240.0" achars="a" style="fill:black;font-family:helvetica;font-size:10.0px;">a</text>
    </g>
    <g>
     <rect x="97.0" y="232.0" width="5.0" height="8.0" class="text" style="fill:none;stroke:red;stroke-width:0.5;"/>
     <text x="97.0" y="240.0" achars="r" style="fill:black;font-family:helvetica;font-size:10.0px;">r</text>
    </g>
    <g>
     <rect x="105.0" y="229.0" width="8.0" height="11.0" class="text" style="fill:none;stroke:red;stroke-width:0.5;"/>
     <text x="105.0" y="240.0" achars="2,e,l" style="fill:black;font-family:helvetica;font-size:10.0px;">2</text>
    </g>
    <g>
     <rect x="114.0" y="229.0" width="7.0" height="11.0" class="text" style="fill:none;stroke:red;stroke-width:0.5;"/>
     <text x="114.0" y="240.0" achars="O,0,a" style="fill:black;font-family:helvetica;font-size:10.0px;">O</text>
    </g>
    <g>
     <rect x="123.0" y="229.0" width="4.0" height="12.0" class="text" style="fill:none;stroke:red;stroke-width:0.5;"/>
     <text x="123.0" y="241.0" achars="1" style="fill:black;font-family:helvetica;font-size:10.0px;">1</text>
    </g>
    <rect x="128.0" y="229.0" width="3.0" height="12.0" class="space" style="fill:none;stroke:blue;stroke-width:0.5;"/>
    <g>
     <rect x="132.0" y="229.0" width="4.0" height="12.0" class="text" style="fill:none;stroke:red;stroke-width:0.5;"/>
     <text x="132.0" y="241.0" achars="1" style="fill:black;font-family:helvetica;font-size:10.0px;">1</text>
    </g>
   </g>
   <g class="line">
    <rect x="57.0" y="314.0" width="10.0" height="12.0" class="space" style="fill:none;stroke:blue;stroke-width:0.5;"/>
    <g>
     <rect x="57.0" y="314.0" width="10.0" height="12.0" class="text" style="fill:none;stroke:red;stroke-width:0.5;"/>
     <text x="57.0" y="326.0" achars="O,0" style="fill:black;font-family:helvetica;font-size:10.0px;">O</text>
    </g>
    <g>
     <rect x="68.0" y="317.0" width="7.0" height="9.0" class="text" style="fill:none;stroke:red;stroke-width:0.5;"/>
     <text x="68.0" y="326.0" achars="v" style="fill:black;font-family:helvetica;font-size:10.0px;">v</text>
    </g>
    <g>
     <rect x="76.0" y="317.0" width="7.0" height="9.0" class="text" style="fill:none;stroke:red;stroke-width:0.5;"/>
     <text x="76.0" y="326.0" achars="e,g" style="fill:black;font-family:helvetica;font-size:10.0px;">e</text>
    </g>
    <g>
     <rect x="85.0" y="317.0" width="4.0" height="9.0" class="text" style="fill:none;stroke:red;stroke-width:0.5;"/>
     <text x="85.0" y="326.0" achars="r" style="fill:black;font-family:helvetica;font-size:10.0px;">r</text>
    </g>
    <g>
     <rect x="90.0" y="317.0" width="6.0" height="9.0" class="text" style="fill:none;stroke:red;stroke-width:0.5;"/>
     <text x="90.0" y="326.0" achars="a" style="fill:black;font-family:helvetica;font-size:10.0px;">a</text>
    </g>
    <g>
     <rect x="98.0" y="314.0" width="2.0" height="12.0" class="text" style="fill:none;stroke:red;stroke-width:0.5;"/>
     <text x="98.0" y="326.0" achars="l,I,|,1" style="fill:black;font-family:helvetica;font-size:10.0px;">l</text>
    </g>
    <g>
     <rect x="102.0" y="314.0" width="2.0" height="12.0" class="text" style="fill:none;stroke:red;stroke-width:0.5;"/>
     <text x="102.0" y="326.0" achars="l,I,|,1" style="fill:black;font-family:helvetica;font-size:10.0px;">l</text>
    </g>
    <rect x="105.0" y="314.0" width="7.0" height="14.0" class="space" style="fill:none;stroke:blue;stroke-width:0.5;"/>
    <g>
     <rect x="113.0" y="314.0" width="4.0" height="14.0" class="text" style="fill:none;stroke:red;stroke-width:0.5;"/>
     <text x="113.0" y="328.0" achars="(,C,f" style="fill:black;font-family:helvetica;font-size:10.0px;">(</text>
    </g>
    <g>
     <rect x="118.0" y="314.0" width="1.0" height="12.0" class="text" style="fill:none;stroke:red;stroke-width:0.5;"/>
     <text x="118.0" y="326.0" achars="l,I,|,1" style="fill:black;font-family:helvetica;font-size:10.0px;">l</text>
    </g>
    <g>
     <rect x="121.0" y="320.0" width="9.0" height="2.0" class="text" style="fill:none;stroke:red;stroke-width:0.5;"/>
     <text x="121.0" y="322.0" achars="'" style="fill:black;font-family:helvetica;font-size:10.0px;">'</text>
    </g>
    <g>
     <rect x="131.0" y="317.0" width="6.0" height="9.0" class="text" style="fill:none;stroke:red;stroke-width:0.5;"/>
     <text x="131.0" y="326.0" achars="s,t" style="fill:black;font-family:helvetica;font-size:10.0px;">s</text>
    </g>
    <g>
     <rect x="137.0" y="317.0" width="8.0" height="12.0" class="text" style="fill:none;stroke:red;stroke-width:0.5;"/>
     <text x="137.0" y="329.0" achars="q,a" style="fill:black;font-family:helvetica;font-size:10.0px;">q</text>
    </g>
    <g>
     <rect x="147.0" y="317.0" width="7.0" height="9.0" class="text" style="fill:none;stroke:red;stroke-width:0.5;"/>
     <text x="147.0" y="326.0" achars="u" style="fill:black;font-family:helvetica;font-size:10.0px;">u</text>
    </g>
    <g>
     <rect x="156.0" y="317.0" width="7.0" height="9.0" class="text" style="fill:none;stroke:red;stroke-width:0.5;"/>
     <text x="156.0" y="326.0" achars="a" style="fill:black;font-family:helvetica;font-size:10.0px;">a</text>
    </g>
    <g>
     <rect x="164.0" y="317.0" width="5.0" height="9.0" class="text" style="fill:none;stroke:red;stroke-width:0.5;"/>
     <text x="164.0" y="326.0" achars="r" style="fill:black;font-family:helvetica;font-size:10.0px;">r</text>
    </g>
    <g>
     <rect x="169.0" y="317.0" width="7.0" height="9.0" class="text" style="fill:none;stroke:red;stroke-width:0.5;"/>
     <text x="169.0" y="326.0" achars="e,g" style="fill:black;font-family:helvetica;font-size:10.0px;">e</text>
    </g>
    <g>
     <rect x="178.0" y="313.0" width="7.0" height="13.0" class="text" style="fill:none;stroke:red;stroke-width:0.5;"/>
     <text x="178.0" y="326.0" achars="d" style="fill:black;font-family:helvetica;font-size:10.0px;">d</text>
    </g>
    <rect x="186.0" y="319.0" width="3.0" height="5.0" class="space" style="fill:none;stroke:blue;stroke-width:0.5;"/>
    <g>
     <rect x="190.0" y="319.0" width="9.0" height="5.0" class="text" style="fill:none;stroke:red;stroke-width:0.5;"/>
     <text x="190.0" y="324.0" achars="" style="fill:black;font-family:helvetica;font-size:10.0px;">?</text>
    </g>
    <rect x="200.0" y="315.0" width="2.0" height="11.0" class="space" style="fill:none;stroke:blue;stroke-width:0.5;"/>
    <g>
     <rect x="203.0" y="315.0" width="8.0" height="11.0" class="text" style="fill:none;stroke:red;stroke-width:0.5;"/>
     <text x="203.0" y="326.0" achars="0,O" style="fill:black;font-family:helvetica;font-size:10.0px;">0</text>
    </g>
    <g>
     <rect x="212.0" y="324.0" width="3.0" height="2.0" class="text" style="fill:none;stroke:red;stroke-width:0.5;"/>
     <text x="212.0" y="326.0" achars=".,_" style="fill:black;font-family:helvetica;font-size:10.0px;">.</text>
    </g>
    <g>
     <rect x="215.0" y="314.0" width="8.0" height="12.0" class="text" style="fill:none;stroke:red;stroke-width:0.5;"/>
     <text x="215.0" y="326.0" achars="O,0" style="fill:black;font-family:helvetica;font-size:10.0px;">O</text>
    </g>
    <g>
     <rect x="224.0" y="314.0" width="12.0" height="12.0" class="text" style="fill:none;stroke:red;stroke-width:0.5;"/>
     <text x="224.0" y="326.0" achars="96,Yi,e4" style="fill:black;font-family:helvetica;font-size:10.0px;">9</text>
    </g>
    <g>
     <rect x="236.0" y="323.0" width="3.0" height="5.0" class="text" style="fill:none;stroke:red;stroke-width:0.5;"/>
     <text x="236.0" y="328.0" achars=",ยงJ,1" style="fill:black;font-family:helvetica;font-size:10.0px;">,</text>
    </g>
    <rect x="240.0" y="317.0" width="4.0" height="12.0" class="space" style="fill:none;stroke:blue;stroke-width:0.5;"/>
    <g>
     <rect x="245.0" y="317.0" width="7.0" height="12.0" class="text" style="fill:none;stroke:red;stroke-width:0.5;"/>
     <text x="245.0" y="329.0" achars="p" style="fill:black;font-family:helvetica;font-size:10.0px;">p</text>
    </g>
    <rect x="253.0" y="319.0" width="3.0" height="5.0" class="space" style="fill:none;stroke:blue;stroke-width:0.5;"/>
    <g>
     <rect x="257.0" y="319.0" width="9.0" height="5.0" class="text" style="fill:none;stroke:red;stroke-width:0.5;"/>
     <text x="257.0" y="324.0" achars="" style="fill:black;font-family:helvetica;font-size:10.0px;">?</text>
    </g>
    <rect x="267.0" y="315.0" width="2.0" height="11.0" class="space" style="fill:none;stroke:blue;stroke-width:0.5;"/>
    <g>
     <rect x="270.0" y="315.0" width="8.0" height="11.0" class="text" style="fill:none;stroke:red;stroke-width:0.5;"/>
     <text x="270.0" y="326.0" achars="O,0" style="fill:black;font-family:helvetica;font-size:10.0px;">O</text>
    </g>
    <g>
     <rect x="279.0" y="323.0" width="2.0" height="3.0" class="text" style="fill:none;stroke:red;stroke-width:0.5;"/>
     <text x="279.0" y="326.0" achars=".,ยง" style="fill:black;font-family:helvetica;font-size:10.0px;">.</text>
    </g>
    <g>
     <rect x="282.0" y="315.0" width="7.0" height="11.0" class="text" style="fill:none;stroke:red;stroke-width:0.5;"/>
     <text x="282.0" y="326.0" achars="5,S" style="fill:black;font-family:helvetica;font-size:10.0px;">5</text>
    </g>
    <g>
     <rect x="291.0" y="314.0" width="7.0" height="12.0" class="text" style="fill:none;stroke:red;stroke-width:0.5;"/>
     <text x="291.0" y="326.0" achars="O,0" style="fill:black;font-family:helvetica;font-size:10.0px;">O</text>
    </g>
    <g>
     <rect x="299.0" y="315.0" width="8.0" height="11.0" class="text" style="fill:none;stroke:red;stroke-width:0.5;"/>
     <text x="299.0" y="326.0" achars="O,0" style="fill:black;font-family:helvetica;font-size:10.0px;">O</text>
    </g>
    <g>
     <rect x="307.0" y="314.0" width="4.0" height="14.0" class="text" style="fill:none;stroke:red;stroke-width:0.5;"/>
     <text x="307.0" y="328.0" achars="),J,}" style="fill:black;font-family:helvetica;font-size:10.0px;">)</text>
    </g>
   </g>
   <g class="line">
    <rect x="76.0" y="381.0" width="-1.0" height="17.0" class="space" style="fill:none;stroke:blue;stroke-width:0.5;"/>
    <rect x="73.0" y="381.0" width="11.0" height="17.0" class="space" style="fill:none;stroke:blue;stroke-width:0.5;"/>
    <g>
     <rect x="73.0" y="381.0" width="11.0" height="17.0" class="text" style="fill:none;stroke:red;stroke-width:0.5;"/>
     <text x="73.0" y="398.0" achars="P" style="fill:black;font-family:helvetica;font-size:10.0px;">P</text>
    </g>
    <g>
     <rect x="85.0" y="387.0" width="14.0" height="7.0" class="text" style="fill:none;stroke:red;stroke-width:0.5;"/>
     <text x="85.0" y="394.0" achars="'" style="fill:black;font-family:helvetica;font-size:10.0px;">'</text>
    </g>
    <g>
     <rect x="100.0" y="381.0" width="12.0" height="17.0" class="text" style="fill:none;stroke:red;stroke-width:0.5;"/>
     <text x="100.0" y="398.0" achars="O,0,a" style="fill:black;font-family:helvetica;font-size:10.0px;">O</text>
    </g>
    <g>
     <rect x="114.0" y="395.0" width="3.0" height="3.0" class="text" style="fill:none;stroke:red;stroke-width:0.5;"/>
     <text x="114.0" y="398.0" achars=".,ยง" style="fill:black;font-family:helvetica;font-size:10.0px;">.</text>
    </g>
    <g>
     <rect x="119.0" y="381.0" width="11.0" height="17.0" class="text" style="fill:none;stroke:red;stroke-width:0.5;"/>
     <text x="119.0" y="398.0" achars="8" style="fill:black;font-family:helvetica;font-size:10.0px;">8</text>
    </g>
    <g>
     <rect x="132.0" y="381.0" width="11.0" height="17.0" class="text" style="fill:none;stroke:red;stroke-width:0.5;"/>
     <text x="132.0" y="398.0" achars="O,0" style="fill:black;font-family:helvetica;font-size:10.0px;">O</text>
    </g>
    <g>
     <rect x="145.0" y="381.0" width="11.0" height="17.0" class="text" style="fill:none;stroke:red;stroke-width:0.5;"/>
     <text x="145.0" y="398.0" achars="5" style="fill:black;font-family:helvetica;font-size:10.0px;">5</text>
    </g>
   </g>
   <g class="line">
    <rect x="57.0" y="445.0" width="6.0" height="8.0" class="space" style="fill:none;stroke:blue;stroke-width:0.5;"/>
    <g>
     <rect x="57.0" y="445.0" width="6.0" height="8.0" class="text" style="fill:none;stroke:red;stroke-width:0.5;"/>
     <text x="57.0" y="453.0" achars="N" style="fill:black;font-family:helvetica;font-size:10.0px;">N</text>
    </g>
    <g>
     <rect x="64.0" y="445.0" width="7.0" height="8.0" class="text" style="fill:none;stroke:red;stroke-width:0.5;"/>
     <text x="64.0" y="453.0" achars="0,a" style="fill:black;font-family:helvetica;font-size:10.0px;">0</text>
    </g>
    <g>
     <rect x="71.0" y="445.0" width="11.0" height="8.0" class="text" style="fill:none;stroke:red;stroke-width:0.5;"/>
     <text x="71.0" y="453.0" achars="7E,TE,lT" style="fill:black;font-family:helvetica;font-size:10.0px;">7</text>
    </g>
    <g>
     <rect x="82.0" y="447.0" width="2.0" height="6.0" class="text" style="fill:none;stroke:red;stroke-width:0.5;"/>
     <text x="82.0" y="453.0" achars=":,;" style="fill:black;font-family:helvetica;font-size:10.0px;">:</text>
    </g>
    <g>
     <rect x="87.0" y="445.0" width="9.0" height="8.0" class="text" style="fill:none;stroke:red;stroke-width:0.5;"/>
     <text x="87.0" y="453.0" achars="W" style="fill:black;font-family:helvetica;font-size:10.0px;">W</text>
    </g>
    <g>
     <rect x="96.0" y="447.0" width="5.0" height="6.0" class="text" style="fill:none;stroke:red;stroke-width:0.5;"/>
     <text x="96.0" y="453.0" achars="i,e,g" style="fill:black;font-family:helvetica;font-size:10.0px;">i</text>
    </g>
    <g>
     <rect x="102.0" y="445.0" width="2.0" height="8.0" class="text" style="fill:none;stroke:red;stroke-width:0.5;"/>
     <text x="102.0" y="453.0" achars="i,j,r" style="fill:black;font-family:helvetica;font-size:10.0px;">i</text>
    </g>
    <g>
     <rect x="105.0" y="447.0" width="5.0" height="8.0" class="text" style="fill:none;stroke:red;stroke-width:0.5;"/>
     <text x="105.0" y="455.0" achars="g,0" style="fill:black;font-family:helvetica;font-size:10.0px;">g</text>
    </g>
    <g>
     <rect x="111.0" y="444.0" width="5.0" height="9.0" class="text" style="fill:none;stroke:red;stroke-width:0.5;"/>
     <text x="111.0" y="453.0" achars="h" style="fill:black;font-family:helvetica;font-size:10.0px;">h</text>
    </g>
    <g>
     <rect x="117.0" y="446.0" width="7.0" height="7.0" class="text" style="fill:none;stroke:red;stroke-width:0.5;"/>
     <text x="117.0" y="453.0" achars="t5" style="fill:black;font-family:helvetica;font-size:10.0px;">t</text>
    </g>
    <g>
     <rect x="127.0" y="447.0" width="5.0" height="6.0" class="text" style="fill:none;stroke:red;stroke-width:0.5;"/>
     <text x="127.0" y="453.0" achars="a" style="fill:black;font-family:helvetica;font-size:10.0px;">a</text>
    </g>
    <g>
     <rect x="133.0" y="447.0" width="8.0" height="6.0" class="text" style="fill:none;stroke:red;stroke-width:0.5;"/>
     <text x="133.0" y="453.0" achars="R" style="fill:black;font-family:helvetica;font-size:10.0px;">R</text>
    </g>
    <g>
     <rect x="144.0" y="444.0" width="4.0" height="9.0" class="text" style="fill:none;stroke:red;stroke-width:0.5;"/>
     <text x="144.0" y="453.0" achars="t,r" style="fill:black;font-family:helvetica;font-size:10.0px;">t</text>
    </g>
    <g>
     <rect x="148.0" y="447.0" width="8.0" height="6.0" class="text" style="fill:none;stroke:red;stroke-width:0.5;"/>
     <text x="148.0" y="453.0" achars="ro,0" style="fill:black;font-family:helvetica;font-size:10.0px;">r</text>
    </g>
    <g>
     <rect x="157.0" y="447.0" width="9.0" height="6.0" class="text" style="fill:none;stroke:red;stroke-width:0.5;"/>
     <text x="157.0" y="453.0" achars="m" style="fill:black;font-family:helvetica;font-size:10.0px;">m</text>
    </g>
    <g>
     <rect x="169.0" y="447.0" width="3.0" height="6.0" class="text" style="fill:none;stroke:red;stroke-width:0.5;"/>
     <text x="169.0" y="453.0" achars="r" style="fill:black;font-family:helvetica;font-size:10.0px;">r</text>
    </g>
    <g>
     <rect x="172.0" y="447.0" width="5.0" height="6.0" class="text" style="fill:none;stroke:red;stroke-width:0.5;"/>
     <text x="172.0" y="453.0" achars="a" style="fill:black;font-family:helvetica;font-size:10.0px;">a</text>
    </g>
    <g>
     <rect x="178.0" y="447.0" width="5.0" height="6.0" class="text" style="fill:none;stroke:red;stroke-width:0.5;"/>
     <text x="178.0" y="453.0" achars="n" style="fill:black;font-family:helvetica;font-size:10.0px;">n</text>
    </g>
    <g>
     <rect x="184.0" y="444.0" width="5.0" height="9.0" class="text" style="fill:none;stroke:red;stroke-width:0.5;"/>
     <text x="184.0" y="453.0" achars="d" style="fill:black;font-family:helvetica;font-size:10.0px;">d</text>
    </g>
    <g>
     <rect x="190.0" y="447.0" width="5.0" height="6.0" class="text" style="fill:none;stroke:red;stroke-width:0.5;"/>
     <text x="190.0" y="453.0" achars="o,O,0,a" style="fill:black;font-family:helvetica;font-size:10.0px;">o</text>
    </g>
    <g>
     <rect x="196.0" y="447.0" width="8.0" height="6.0" class="text" style="fill:none;stroke:red;stroke-width:0.5;"/>
     <text x="196.0" y="453.0" achars="m" style="fill:black;font-family:helvetica;font-size:10.0px;">m</text>
    </g>
    <g>
     <rect x="208.0" y="444.0" width="12.0" height="9.0" class="text" style="fill:none;stroke:red;stroke-width:0.5;"/>
     <text x="208.0" y="453.0" achars="e4,4t,iX,eX" style="fill:black;font-family:helvetica;font-size:10.0px;">e</text>
    </g>
    <g>
     <rect x="220.0" y="447.0" width="4.0" height="6.0" class="text" style="fill:none;stroke:red;stroke-width:0.5;"/>
     <text x="220.0" y="453.0" achars="e,i,g" style="fill:black;font-family:helvetica;font-size:10.0px;">e</text>
    </g>
    <g>
     <rect x="225.0" y="447.0" width="5.0" height="6.0" class="text" style="fill:none;stroke:red;stroke-width:0.5;"/>
     <text x="225.0" y="453.0" achars="c" style="fill:black;font-family:helvetica;font-size:10.0px;">c</text>
    </g>
    <g>
     <rect x="230.0" y="445.0" width="3.0" height="8.0" class="text" style="fill:none;stroke:red;stroke-width:0.5;"/>
     <text x="230.0" y="453.0" achars="t" style="fill:black;font-family:helvetica;font-size:10.0px;">t</text>
    </g>
    <g>
     <rect x="234.0" y="447.0" width="4.0" height="6.0" class="text" style="fill:none;stroke:red;stroke-width:0.5;"/>
     <text x="234.0" y="453.0" achars="" style="fill:black;font-family:helvetica;font-size:10.0px;">?</text>
    </g>
    <g>
     <rect x="240.0" y="447.0" width="5.0" height="6.0" class="text" style="fill:none;stroke:red;stroke-width:0.5;"/>
     <text x="240.0" y="453.0" achars="a" style="fill:black;font-family:helvetica;font-size:10.0px;">a</text>
    </g>
    <g>
     <rect x="246.0" y="447.0" width="5.0" height="6.0" class="text" style="fill:none;stroke:red;stroke-width:0.5;"/>
     <text x="246.0" y="453.0" achars="n" style="fill:black;font-family:helvetica;font-size:10.0px;">n</text>
    </g>
    <g>
     <rect x="252.0" y="447.0" width="4.0" height="6.0" class="text" style="fill:none;stroke:red;stroke-width:0.5;"/>
     <text x="252.0" y="453.0" achars="a" style="fill:black;font-family:helvetica;font-size:10.0px;">a</text>
    </g>
    <g>
     <rect x="257.0" y="444.0" width="2.0" height="9.0" class="text" style="fill:none;stroke:red;stroke-width:0.5;"/>
     <text x="257.0" y="453.0" achars="I,1,l" style="fill:black;font-family:helvetica;font-size:10.0px;">I</text>
    </g>
    <g>
     <rect x="260.0" y="447.0" width="9.0" height="8.0" class="text" style="fill:none;stroke:red;stroke-width:0.5;"/>
     <text x="260.0" y="455.0" achars="y5,p" style="fill:black;font-family:helvetica;font-size:10.0px;">y</text>
    </g>
    <g>
     <rect x="270.0" y="447.0" width="1.0" height="6.0" class="text" style="fill:none;stroke:red;stroke-width:0.5;"/>
     <text x="270.0" y="453.0" achars="|,l,I,1" style="fill:black;font-family:helvetica;font-size:10.0px;">|</text>
    </g>
    <g>
     <rect x="272.0" y="447.0" width="4.0" height="6.0" class="text" style="fill:none;stroke:red;stroke-width:0.5;"/>
     <text x="272.0" y="453.0" achars="" style="fill:black;font-family:helvetica;font-size:10.0px;">?</text>
    </g>
   </g>
  </g>
 </g>
</svg>
