<?xml version="1.0" encoding="UTF-8"?>
<svg height="83.0" width="1251.0" xmlns="http://www.w3.org/2000/svg">
 <g class="page">
  <g class="block">
   <g class="line">
    <rect x="22.0" y="20.0" width="16.0" height="20.0" class="space" style="fill:none;stroke:blue;stroke-width:0.5;"/>
    <g>
     <rect x="22.0" y="20.0" width="16.0" height="20.0" class="text" style="fill:none;stroke:red;stroke-width:0.5;"/>
     <text x="22.0" y="40.0" achars="S,5" style="fill:black;font-family:helvetica;font-size:10.0px;">S</text>
    </g>
    <g>
     <rect x="40.0" y="20.0" width="6.0" height="20.0" class="text" style="fill:none;stroke:red;stroke-width:0.5;"/>
     <text x="40.0" y="40.0" achars="t,f" style="fill:black;font-family:helvetica;font-size:10.0px;">t</text>
    </g>
    <g>
     <rect x="48.0" y="25.0" width="11.0" height="15.0" class="text" style="fill:none;stroke:red;stroke-width:0.5;"/>
     <text x="48.0" y="40.0" achars="u" style="fill:black;font-family:helvetica;font-size:10.0px;">u</text>
    </g>
    <g>
     <rect x="62.0" y="20.0" width="12.0" height="20.0" class="text" style="fill:none;stroke:red;stroke-width:0.5;"/>
     <text x="62.0" y="40.0" achars="d" style="fill:black;font-family:helvetica;font-size:10.0px;">d</text>
    </g>
    <g>
     <rect x="77.0" y="25.0" width="13.0" height="20.0" class="text" style="fill:none;stroke:red;stroke-width:0.5;"/>
     <text x="77.0" y="45.0" achars="y" style="fill:black;font-family:helvetica;font-size:10.0px;">y</text>
    </g>
    <rect x="91.0" y="20.0" width="10.0" height="12.0" class="space" style="fill:none;stroke:blue;stroke-width:0.5;"/>
    <rect x="115.0" y="20.0" width="10.0" height="12.0" class="space" style="fill:none;stroke:blue;stroke-width:0.5;"/>
    <rect x="153.0" y="20.0" width="9.0" height="12.0" class="space" style="fill:none;stroke:blue;stroke-width:0.5;"/>
    <rect x="202.0" y="20.0" width="9.0" height="12.0" class="space" style="fill:none;stroke:blue;stroke-width:0.5;"/>
    <rect x="261.0" y="20.0" width="9.0" height="12.0" class="space" style="fill:none;stroke:blue;stroke-width:0.5;"/>
    <rect x="329.0" y="20.0" width="8.0" height="12.0" class="space" style="fill:none;stroke:blue;stroke-width:0.5;"/>
    <rect x="402.0" y="20.0" width="7.0" height="12.0" class="space" style="fill:none;stroke:blue;stroke-width:0.5;"/>
    <rect x="479.0" y="20.0" width="5.0" height="12.0" class="space" style="fill:none;stroke:blue;stroke-width:0.5;"/>
    <rect x="556.0" y="20.0" width="4.0" height="12.0" class="space" style="fill:none;stroke:blue;stroke-width:0.5;"/>
    <rect x="631.0" y="20.0" width="4.0" height="12.0" class="space" style="fill:none;stroke:blue;stroke-width:0.5;"/>
    <rect x="704.0" y="20.0" width="3.0" height="12.0" class="space" style="fill:none;stroke:blue;stroke-width:0.5;"/>
    <rect x="773.0" y="20.0" width="2.0" height="12.0" class="space" style="fill:none;stroke:blue;stroke-width:0.5;"/>
    <rect x="836.0" y="20.0" width="1.0" height="12.0" class="space" style="fill:none;stroke:blue;stroke-width:0.5;"/>
    <rect x="893.0" y="20.0" width="0.0" height="12.0" class="space" style="fill:none;stroke:blue;stroke-width:0.5;"/>
    <rect x="943.0" y="20.0" width="-1.0" height="12.0" class="space" style="fill:none;stroke:blue;stroke-width:0.5;"/>
    <rect x="985.0" y="20.0" width="-1.0" height="12.0" class="space" style="fill:none;stroke:blue;stroke-width:0.5;"/>
    <rect x="1021.0" y="20.0" width="-1.0" height="12.0" class="space" style="fill:none;stroke:blue;stroke-width:0.5;"/>
    <rect x="1052.0" y="20.0" width="-3.0" height="12.0" class="space" style="fill:none;stroke:blue;stroke-width:0.5;"/>
    <rect x="1076.0" y="20.0" width="-3.0" height="12.0" class="space" style="fill:none;stroke:blue;stroke-width:0.5;"/>
    <rect x="1095.0" y="20.0" width="-3.0" height="12.0" class="space" style="fill:none;stroke:blue;stroke-width:0.5;"/>
    <rect x="1110.0" y="20.0" width="-3.0" height="12.0" class="space" style="fill:none;stroke:blue;stroke-width:0.5;"/>
    <rect x="1122.0" y="20.0" width="-3.0" height="12.0" class="space" style="fill:none;stroke:blue;stroke-width:0.5;"/>
    <rect x="1131.0" y="20.0" width="-3.0" height="12.0" class="space" style="fill:none;stroke:blue;stroke-width:0.5;"/>
    <rect x="1138.0" y="20.0" width="-4.0" height="12.0" class="space" style="fill:none;stroke:blue;stroke-width:0.5;"/>
    <rect x="1142.0" y="20.0" width="-3.0" height="12.0" class="space" style="fill:none;stroke:blue;stroke-width:0.5;"/>
    <rect x="1146.0" y="20.0" width="-4.0" height="12.0" class="space" style="fill:none;stroke:blue;stroke-width:0.5;"/>
    <rect x="1148.0" y="20.0" width="-3.0" height="12.0" class="space" style="fill:none;stroke:blue;stroke-width:0.5;"/>
    <rect x="1150.0" y="20.0" width="-3.0" height="12.0" class="space" style="fill:none;stroke:blue;stroke-width:0.5;"/>
    <rect x="1152.0" y="20.0" width="-4.0" height="12.0" class="space" style="fill:none;stroke:blue;stroke-width:0.5;"/>
    <rect x="1153.0" y="20.0" width="-4.0" height="12.0" class="space" style="fill:none;stroke:blue;stroke-width:0.5;"/>
    <rect x="1153.0" y="20.0" width="-3.0" height="12.0" class="space" style="fill:none;stroke:blue;stroke-width:0.5;"/>
    <rect x="1154.0" y="20.0" width="-4.0" height="12.0" class="space" style="fill:none;stroke:blue;stroke-width:0.5;"/>
    <rect x="1154.0" y="20.0" width="-4.0" height="12.0" class="space" style="fill:none;stroke:blue;stroke-width:0.5;"/>
    <rect x="1154.0" y="20.0" width="-3.0" height="12.0" class="space" style="fill:none;stroke:blue;stroke-width:0.5;"/>
    <rect x="1155.0" y="20.0" width="-4.0" height="12.0" class="space" style="fill:none;stroke:blue;stroke-width:0.5;"/>
    <rect x="1155.0" y="20.0" width="-4.0" height="12.0" class="space" style="fill:none;stroke:blue;stroke-width:0.5;"/>
    <rect x="1155.0" y="20.0" width="-4.0" height="12.0" class="space" style="fill:none;stroke:blue;stroke-width:0.5;"/>
    <rect x="1155.0" y="20.0" width="-3.0" height="12.0" class="space" style="fill:none;stroke:blue;stroke-width:0.5;"/>
    <rect x="1156.0" y="20.0" width="-4.0" height="12.0" class="space" style="fill:none;stroke:blue;stroke-width:0.5;"/>
    <rect x="1156.0" y="20.0" width="-4.0" height="12.0" class="space" style="fill:none;stroke:blue;stroke-width:0.5;"/>
    <rect x="1156.0" y="20.0" width="-4.0" height="12.0" class="space" style="fill:none;stroke:blue;stroke-width:0.5;"/>
    <rect x="1156.0" y="20.0" width="-4.0" height="12.0" class="space" style="fill:none;stroke:blue;stroke-width:0.5;"/>
    <rect x="1156.0" y="20.0" width="-4.0" height="12.0" class="space" style="fill:none;stroke:blue;stroke-width:0.5;"/>
    <rect x="1156.0" y="20.0" width="-3.0" height="12.0" class="space" style="fill:none;stroke:blue;stroke-width:0.5;"/>
    <rect x="1157.0" y="20.0" width="-4.0" height="12.0" class="space" style="fill:none;stroke:blue;stroke-width:0.5;"/>
    <rect x="1157.0" y="20.0" width="-4.0" height="12.0" class="space" style="fill:none;stroke:blue;stroke-width:0.5;"/>
    <rect x="1157.0" y="20.0" width="-4.0" height="12.0" class="space" style="fill:none;stroke:blue;stroke-width:0.5;"/>
    <rect x="1157.0" y="20.0" width="-4.0" height="12.0" class="space" style="fill:none;stroke:blue;stroke-width:0.5;"/>
    <rect x="1157.0" y="20.0" width="-4.0" height="12.0" class="space" style="fill:none;stroke:blue;stroke-width:0.5;"/>
    <rect x="1157.0" y="20.0" width="-4.0" height="12.0" class="space" style="fill:none;stroke:blue;stroke-width:0.5;"/>
    <rect x="1157.0" y="20.0" width="-3.0" height="12.0" class="space" style="fill:none;stroke:blue;stroke-width:0.5;"/>
    <rect x="1158.0" y="20.0" width="-4.0" height="12.0" class="space" style="fill:none;stroke:blue;stroke-width:0.5;"/>
    <rect x="1158.0" y="20.0" width="-4.0" height="12.0" class="space" style="fill:none;stroke:blue;stroke-width:0.5;"/>
    <rect x="1158.0" y="20.0" width="-4.0" height="12.0" class="space" style="fill:none;stroke:blue;stroke-width:0.5;"/>
    <rect x="1158.0" y="20.0" width="-4.0" height="12.0" class="space" style="fill:none;stroke:blue;stroke-width:0.5;"/>
    <rect x="1158.0" y="20.0" width="-4.0" height="12.0" class="space" style="fill:none;stroke:blue;stroke-width:0.5;"/>
    <rect x="1158.0" y="20.0" width="-4.0" height="12.0" class="space" style="fill:none;stroke:blue;stroke-width:0.5;"/>
    <rect x="1158.0" y="20.0" width="-4.0" height="12.0" class="space" style="fill:none;stroke:blue;stroke-width:0.5;"/>
    <rect x="1158.0" y="20.0" width="-4.0" height="12.0" class="space" style="fill:none;stroke:blue;stroke-width:0.5;"/>
    <rect x="1158.0" y="20.0" width="-4.0" height="12.0" class="space" style="fill:none;stroke:blue;stroke-width:0.5;"/>
    <rect x="1158.0" y="20.0" width="-3.0" height="12.0" class="space" style="fill:none;stroke:blue;stroke-width:0.5;"/>
    <rect x="1159.0" y="20.0" width="-4.0" height="12.0" class="space" style="fill:none;stroke:blue;stroke-width:0.5;"/>
    <rect x="1159.0" y="20.0" width="-4.0" height="12.0" class="space" style="fill:none;stroke:blue;stroke-width:0.5;"/>
    <rect x="1159.0" y="20.0" width="-4.0" height="12.0" class="space" style="fill:none;stroke:blue;stroke-width:0.5;"/>
    <rect x="1159.0" y="20.0" width="-4.0" height="12.0" class="space" style="fill:none;stroke:blue;stroke-width:0.5;"/>
    <rect x="1159.0" y="20.0" width="-4.0" height="12.0" class="space" style="fill:none;stroke:blue;stroke-width:0.5;"/>
    <rect x="1159.0" y="20.0" width="-4.0" height="12.0" class="space" style="fill:none;stroke:blue;stroke-width:0.5;"/>
    <rect x="1159.0" y="20.0" width="-4.0" height="12.0" class="space" style="fill:none;stroke:blue;stroke-width:0.5;"/>
    <rect x="1159.0" y="20.0" width="-4.0" height="12.0" class="space" style="fill:none;stroke:blue;stroke-width:0.5;"/>
    <rect x="1159.0" y="20.0" width="-4.0" height="12.0" class="space" style="fill:none;stroke:blue;stroke-width:0.5;"/>
    <rect x="1159.0" y="20.0" width="-4.0" height="12.0" class="space" style="fill:none;stroke:blue;stroke-width:0.5;"/>
    <rect x="1159.0" y="20.0" width="-4.0" height="12.0" class="space" style="fill:none;stroke:blue;stroke-width:0.5;"/>
    <rect x="1159.0" y="20.0" width="-4.0" height="12.0" class="space" style="fill:none;stroke:blue;stroke-width:0.5;"/>
    <rect x="1159.0" y="20.0" width="-4.0" height="12.0" class="space" style="fill:none;stroke:blue;stroke-width:0.5;"/>
    <rect x="1159.0" y="20.0" width="-4.0" height="12.0" class="space" style="fill:none;stroke:blue;stroke-width:0.5;"/>
    <rect x="1159.0" y="20.0" width="-3.0" height="12.0" class="space" style="fill:none;stroke:blue;stroke-width:0.5;"/>
    <g>
     <rect x="1157.0" y="20.0" width="9.0" height="12.0" class="text" style="fill:none;stroke:red;stroke-width:0.5;"/>
     <text x="1157.0" y="32.0" achars="O,0,&quot;" style="fill:black;font-family:helvetica;font-size:10.0px;">O</text>
    </g>
    <g>
     <rect x="1162.0" y="20.0" width="12.0" height="20.0" class="text" style="fill:none;stroke:red;stroke-width:0.5;"/>
     <text x="1162.0" y="40.0" achars="/" style="fill:black;font-family:helvetica;font-size:10.0px;">/</text>
    </g>
    <g>
     <rect x="1170.0" y="28.0" width="9.0" height="12.0" class="text" style="fill:none;stroke:red;stroke-width:0.5;"/>
     <text x="1170.0" y="40.0" achars="a,o,0" style="fill:black;font-family:helvetica;font-size:10.0px;">a</text>
    </g>
   </g>
   <g class="line">
    <rect x="24.0" y="48.0" width="3.0" height="20.0" class="space" style="fill:none;stroke:blue;stroke-width:0.5;"/>
    <g>
     <rect x="24.0" y="48.0" width="3.0" height="20.0" class="text" style="fill:none;stroke:red;stroke-width:0.5;"/>
     <text x="24.0" y="68.0" achars="l,I,|,1" style="fill:black;font-family:helvetica;font-size:10.0px;">l</text>
    </g>
    <g>
     <rect x="32.0" y="48.0" width="16.0" height="20.0" class="text" style="fill:none;stroke:red;stroke-width:0.5;"/>
     <text x="32.0" y="68.0" achars="D" style="fill:black;font-family:helvetica;font-size:10.0px;">D</text>
    </g>
    <rect x="49.0" y="48.0" width="12.0" height="20.0" class="space" style="fill:none;stroke:blue;stroke-width:0.5;"/>
    <rect x="78.0" y="48.0" width="12.0" height="20.0" class="space" style="fill:none;stroke:blue;stroke-width:0.5;"/>
    <rect x="122.0" y="48.0" width="12.0" height="20.0" class="space" style="fill:none;stroke:blue;stroke-width:0.5;"/>
    <rect x="180.0" y="48.0" width="11.0" height="20.0" class="space" style="fill:none;stroke:blue;stroke-width:0.5;"/>
    <rect x="247.0" y="48.0" width="10.0" height="20.0" class="space" style="fill:none;stroke:blue;stroke-width:0.5;"/>
    <rect x="321.0" y="48.0" width="8.0" height="20.0" class="space" style="fill:none;stroke:blue;stroke-width:0.5;"/>
    <rect x="397.0" y="48.0" width="7.0" height="20.0" class="space" style="fill:none;stroke:blue;stroke-width:0.5;"/>
    <rect x="473.0" y="48.0" width="6.0" height="20.0" class="space" style="fill:none;stroke:blue;stroke-width:0.5;"/>
    <rect x="546.0" y="48.0" width="5.0" height="20.0" class="space" style="fill:none;stroke:blue;stroke-width:0.5;"/>
    <rect x="614.0" y="48.0" width="3.0" height="20.0" class="space" style="fill:none;stroke:blue;stroke-width:0.5;"/>
    <rect x="675.0" y="48.0" width="1.0" height="20.0" class="space" style="fill:none;stroke:blue;stroke-width:0.5;"/>
    <rect x="727.0" y="48.0" width="0.0" height="20.0" class="space" style="fill:none;stroke:blue;stroke-width:0.5;"/>
    <rect x="771.0" y="48.0" width="-1.0" height="20.0" class="space" style="fill:none;stroke:blue;stroke-width:0.5;"/>
    <rect x="807.0" y="48.0" width="-2.0" height="20.0" class="space" style="fill:none;stroke:blue;stroke-width:0.5;"/>
    <rect x="835.0" y="48.0" width="-2.0" height="20.0" class="space" style="fill:none;stroke:blue;stroke-width:0.5;"/>
    <rect x="857.0" y="48.0" width="-3.0" height="20.0" class="space" style="fill:none;stroke:blue;stroke-width:0.5;"/>
    <rect x="873.0" y="48.0" width="-3.0" height="20.0" class="space" style="fill:none;stroke:blue;stroke-width:0.5;"/>
    <rect x="885.0" y="48.0" width="-3.0" height="20.0" class="space" style="fill:none;stroke:blue;stroke-width:0.5;"/>
    <rect x="894.0" y="48.0" width="-4.0" height="20.0" class="space" style="fill:none;stroke:blue;stroke-width:0.5;"/>
    <rect x="899.0" y="48.0" width="-3.0" height="20.0" class="space" style="fill:none;stroke:blue;stroke-width:0.5;"/>
    <rect x="903.0" y="48.0" width="-3.0" height="20.0" class="space" style="fill:none;stroke:blue;stroke-width:0.5;"/>
    <rect x="906.0" y="48.0" width="-4.0" height="20.0" class="space" style="fill:none;stroke:blue;stroke-width:0.5;"/>
    <rect x="908.0" y="48.0" width="-4.0" height="20.0" class="space" style="fill:none;stroke:blue;stroke-width:0.5;"/>
    <rect x="909.0" y="48.0" width="-4.0" height="20.0" class="space" style="fill:none;stroke:blue;stroke-width:0.5;"/>
    <rect x="910.0" y="48.0" width="-4.0" height="20.0" class="space" style="fill:none;stroke:blue;stroke-width:0.5;"/>
    <rect x="910.0" y="48.0" width="-3.0" height="20.0" class="space" style="fill:none;stroke:blue;stroke-width:0.5;"/>
    <rect x="911.0" y="48.0" width="-4.0" height="20.0" class="space" style="fill:none;stroke:blue;stroke-width:0.5;"/>
    <rect x="911.0" y="48.0" width="-4.0" height="20.0" class="space" style="fill:none;stroke:blue;stroke-width:0.5;"/>
    <rect x="911.0" y="48.0" width="-4.0" height="20.0" class="space" style="fill:none;stroke:blue;stroke-width:0.5;"/>
    <rect x="911.0" y="48.0" width="-3.0" height="20.0" class="space" style="fill:none;stroke:blue;stroke-width:0.5;"/>
    <rect x="912.0" y="48.0" width="-4.0" height="20.0" class="space" style="fill:none;stroke:blue;stroke-width:0.5;"/>
    <rect x="912.0" y="48.0" width="-4.0" height="20.0" class="space" style="fill:none;stroke:blue;stroke-width:0.5;"/>
    <rect x="912.0" y="48.0" width="-4.0" height="20.0" class="space" style="fill:none;stroke:blue;stroke-width:0.5;"/>
    <rect x="912.0" y="48.0" width="-4.0" height="20.0" class="space" style="fill:none;stroke:blue;stroke-width:0.5;"/>
    <rect x="912.0" y="48.0" width="-3.0" height="20.0" class="space" style="fill:none;stroke:blue;stroke-width:0.5;"/>
    <rect x="913.0" y="48.0" width="-4.0" height="20.0" class="space" style="fill:none;stroke:blue;stroke-width:0.5;"/>
    <rect x="913.0" y="48.0" width="-4.0" height="20.0" class="space" style="fill:none;stroke:blue;stroke-width:0.5;"/>
    <rect x="913.0" y="48.0" width="-4.0" height="20.0" class="space" style="fill:none;stroke:blue;stroke-width:0.5;"/>
    <rect x="913.0" y="48.0" width="-4.0" height="20.0" class="space" style="fill:none;stroke:blue;stroke-width:0.5;"/>
    <rect x="913.0" y="48.0" width="-4.0" height="20.0" class="space" style="fill:none;stroke:blue;stroke-width:0.5;"/>
    <rect x="913.0" y="48.0" width="-4.0" height="20.0" class="space" style="fill:none;stroke:blue;stroke-width:0.5;"/>
    <rect x="913.0" y="48.0" width="-3.0" height="20.0" class="space" style="fill:none;stroke:blue;stroke-width:0.5;"/>
    <rect x="914.0" y="48.0" width="-4.0" height="20.0" class="space" style="fill:none;stroke:blue;stroke-width:0.5;"/>
    <rect x="914.0" y="48.0" width="-4.0" height="20.0" class="space" style="fill:none;stroke:blue;stroke-width:0.5;"/>
    <rect x="914.0" y="48.0" width="-4.0" height="20.0" class="space" style="fill:none;stroke:blue;stroke-width:0.5;"/>
    <rect x="914.0" y="48.0" width="-4.0" height="20.0" class="space" style="fill:none;stroke:blue;stroke-width:0.5;"/>
    <rect x="914.0" y="48.0" width="-4.0" height="20.0" class="space" style="fill:none;stroke:blue;stroke-width:0.5;"/>
    <rect x="914.0" y="48.0" width="-4.0" height="20.0" class="space" style="fill:none;stroke:blue;stroke-width:0.5;"/>
    <rect x="914.0" y="48.0" width="-4.0" height="20.0" class="space" style="fill:none;stroke:blue;stroke-width:0.5;"/>
    <rect x="914.0" y="48.0" width="-4.0" height="20.0" class="space" style="fill:none;stroke:blue;stroke-width:0.5;"/>
    <rect x="914.0" y="48.0" width="-4.0" height="20.0" class="space" style="fill:none;stroke:blue;stroke-width:0.5;"/>
    <rect x="914.0" y="48.0" width="-3.0" height="20.0" class="space" style="fill:none;stroke:blue;stroke-width:0.5;"/>
    <g>
     <rect x="912.0" y="48.0" width="16.0" height="20.0" class="text" style="fill:none;stroke:red;stroke-width:0.5;"/>
     <text x="912.0" y="68.0" achars="R" style="fill:black;font-family:helvetica;font-size:10.0px;">R</text>
    </g>
    <g>
     <rect x="930.0" y="48.0" width="17.0" height="20.0" class="text" style="fill:none;stroke:red;stroke-width:0.5;"/>
     <text x="930.0" y="68.0" achars="R" style="fill:black;font-family:helvetica;font-size:10.0px;">R</text>
    </g>
    <rect x="948.0" y="48.0" width="8.0" height="24.0" class="space" style="fill:none;stroke:blue;stroke-width:0.5;"/>
    <g>
     <rect x="957.0" y="48.0" width="7.0" height="24.0" class="text" style="fill:none;stroke:red;stroke-width:0.5;"/>
     <text x="957.0" y="72.0" achars="(,C" style="fill:black;font-family:helvetica;font-size:10.0px;">(</text>
    </g>
    <g>
     <rect x="966.0" y="48.0" width="13.0" height="20.0" class="text" style="fill:none;stroke:red;stroke-width:0.5;"/>
     <text x="966.0" y="68.0" achars="g,Q" style="fill:black;font-family:helvetica;font-size:10.0px;">g</text>
    </g>
    <g>
     <rect x="981.0" y="48.0" width="13.0" height="20.0" class="text" style="fill:none;stroke:red;stroke-width:0.5;"/>
     <text x="981.0" y="68.0" achars="5" style="fill:black;font-family:helvetica;font-size:10.0px;">5</text>
    </g>
    <g>
     <rect x="996.0" y="48.0" width="9.0" height="12.0" class="text" style="fill:none;stroke:red;stroke-width:0.5;"/>
     <text x="996.0" y="60.0" achars="O,0,a,&quot;" style="fill:black;font-family:helvetica;font-size:10.0px;">O</text>
    </g>
    <g>
     <rect x="1001.0" y="48.0" width="12.0" height="20.0" class="text" style="fill:none;stroke:red;stroke-width:0.5;"/>
     <text x="1001.0" y="68.0" achars="/" style="fill:black;font-family:helvetica;font-size:10.0px;">/</text>
    </g>
    <g>
     <rect x="1009.0" y="56.0" width="9.0" height="12.0" class="text" style="fill:none;stroke:red;stroke-width:0.5;"/>
     <text x="1009.0" y="68.0" achars="o,0" style="fill:black;font-family:helvetica;font-size:10.0px;">o</text>
    </g>
    <rect x="1019.0" y="48.0" width="9.0" height="20.0" class="space" style="fill:none;stroke:blue;stroke-width:0.5;"/>
    <g>
     <rect x="1029.0" y="48.0" width="17.0" height="20.0" class="text" style="fill:none;stroke:red;stroke-width:0.5;"/>
     <text x="1029.0" y="68.0" achars="C,G" style="fill:black;font-family:helvetica;font-size:10.0px;">C</text>
    </g>
    <g>
     <rect x="1050.0" y="48.0" width="3.0" height="20.0" class="text" style="fill:none;stroke:red;stroke-width:0.5;"/>
     <text x="1050.0" y="68.0" achars="l,I,|,1" style="fill:black;font-family:helvetica;font-size:10.0px;">l</text>
    </g>
    <g>
     <rect x="1058.0" y="48.0" width="6.0" height="24.0" class="text" style="fill:none;stroke:red;stroke-width:0.5;"/>
     <text x="1058.0" y="72.0" achars=")" style="fill:black;font-family:helvetica;font-size:10.0px;">)</text>
    </g>
    <rect x="1065.0" y="48.0" width="14.0" height="20.0" class="space" style="fill:none;stroke:blue;stroke-width:0.5;"/>
    <rect x="1095.0" y="48.0" width="12.0" height="20.0" class="space" style="fill:none;stroke:blue;stroke-width:0.5;"/>
    <rect x="1128.0" y="48.0" width="6.0" height="20.0" class="space" style="fill:none;stroke:blue;stroke-width:0.5;"/>
    <rect x="1149.0" y="48.0" width="1.0" height="20.0" class="space" style="fill:none;stroke:blue;stroke-width:0.5;"/>
    <rect x="1157.0" y="48.0" width="-2.0" height="20.0" class="space" style="fill:none;stroke:blue;stroke-width:0.5;"/>
    <g>
     <rect x="1156.0" y="48.0" width="27.0" height="20.0" class="text" style="fill:none;stroke:red;stroke-width:0.5;"/>
     <text x="1156.0" y="68.0" achars="W" style="fill:black;font-family:helvetica;font-size:10.0px;">W</text>
    </g>
    <g>
     <rect x="1184.0" y="53.0" width="14.0" height="15.0" class="text" style="fill:none;stroke:red;stroke-width:0.5;"/>
     <text x="1184.0" y="68.0" achars="e,g" style="fill:black;font-family:helvetica;font-size:10.0px;">e</text>
    </g>
    <g>
     <rect x="1200.0" y="48.0" width="4.0" height="20.0" class="text" style="fill:none;stroke:red;stroke-width:0.5;"/>
     <text x="1200.0" y="68.0" achars="i,j" style="fill:black;font-family:helvetica;font-size:10.0px;">i</text>
    </g>
    <g>
     <rect x="1206.0" y="53.0" width="12.0" height="20.0" class="text" style="fill:none;stroke:red;stroke-width:0.5;"/>
     <text x="1206.0" y="73.0" achars="g,0" style="fill:black;font-family:helvetica;font-size:10.0px;">g</text>
    </g>
    <g>
     <rect x="1222.0" y="48.0" width="11.0" height="20.0" class="text" style="fill:none;stroke:red;stroke-width:0.5;"/>
     <text x="1222.0" y="68.0" achars="h" style="fill:black;font-family:helvetica;font-size:10.0px;">h</text>
    </g>
    <g>
     <rect x="1234.0" y="48.0" width="7.0" height="20.0" class="text" style="fill:none;stroke:red;stroke-width:0.5;"/>
     <text x="1234.0" y="68.0" achars="t" style="fill:black;font-family:helvetica;font-size:10.0px;">t</text>
    </g>
   </g>
  </g>
 </g>
</svg>
