<?xml version="1.0" encoding="UTF-8"?>
<svg height="1001.0" width="1428.0" xmlns="http://www.w3.org/2000/svg">
 <g>
  <g class="horizontallines">
   <line x1="5.0" y1="1.0" x2="1415.0" y2="1.0" style="stroke:red;stroke-width:1.0;"/>
   <line x1="45.0" y1="47.0" x2="1384.0" y2="47.0" style="stroke:red;stroke-width:1.0;"/>
   <line x1="44.0" y1="295.0" x2="1383.0" y2="295.0" style="stroke:red;stroke-width:2.0;"/>
   <line x1="45.0" y1="885.0" x2="1383.0" y2="885.0" style="stroke:red;stroke-width:3.0;"/>
   <line x1="48.0" y1="889.0" x2="496.0" y2="889.0" style="stroke:red;stroke-width:2.0;"/>
   <line x1="510.0" y1="889.0" x2="697.0" y2="889.0" style="stroke:red;stroke-width:2.0;"/>
   <line x1="711.0" y1="889.0" x2="895.0" y2="889.0" style="stroke:red;stroke-width:2.0;"/>
   <line x1="911.0" y1="889.0" x2="1383.0" y2="889.0" style="stroke:red;stroke-width:2.0;"/>
   <line x1="8.0" y1="991.0" x2="1418.0" y2="991.0" style="stroke:red;stroke-width:1.0;"/>
  </g>
  <g class="verticallines">
   <line x1="2.0" y1="7.0" x2="2.0" y2="991.0" style="stroke:blue;stroke-width:1.0;"/>
   <line x1="43.0" y1="48.0" x2="43.0" y2="289.0" style="stroke:blue;stroke-width:1.0;"/>
   <line x1="43.0" y1="300.0" x2="43.0" y2="879.0" style="stroke:blue;stroke-width:1.0;"/>
   <line x1="701.0" y1="296.0" x2="701.0" y2="900.0" style="stroke:blue;stroke-width:3.0;"/>
   <line x1="1385.0" y1="48.0" x2="1385.0" y2="878.0" style="stroke:blue;stroke-width:1.0;"/>
   <line x1="1418.0" y1="5.0" x2="1418.0" y2="991.0" style="stroke:blue;stroke-width:1.0;"/>
  </g>
 </g>
</svg>
