<?xml version="1.0" encoding="UTF-8"?>
<svg height="50.0" width="1213.0" xmlns="http://www.w3.org/2000/svg">
 <g class="page">
  <g class="block">
   <g class="line">
    <rect x="1203.0" y="0.0" width="-376.0" height="1.0" class="space" style="fill:none;stroke:blue;stroke-width:0.5;"/>
    <rect x="828.0" y="0.0" width="-4.0" height="1.0" class="space" style="fill:none;stroke:blue;stroke-width:0.5;"/>
    <rect x="825.0" y="0.0" width="-4.0" height="1.0" class="space" style="fill:none;stroke:blue;stroke-width:0.5;"/>
    <rect x="822.0" y="0.0" width="-4.0" height="1.0" class="space" style="fill:none;stroke:blue;stroke-width:0.5;"/>
    <rect x="819.0" y="0.0" width="-4.0" height="1.0" class="space" style="fill:none;stroke:blue;stroke-width:0.5;"/>
    <rect x="816.0" y="0.0" width="-3.0" height="1.0" class="space" style="fill:none;stroke:blue;stroke-width:0.5;"/>
    <rect x="815.0" y="0.0" width="-4.0" height="1.0" class="space" style="fill:none;stroke:blue;stroke-width:0.5;"/>
    <rect x="813.0" y="0.0" width="-4.0" height="1.0" class="space" style="fill:none;stroke:blue;stroke-width:0.5;"/>
    <rect x="812.0" y="0.0" width="-4.0" height="1.0" class="space" style="fill:none;stroke:blue;stroke-width:0.5;"/>
    <rect x="811.0" y="0.0" width="-4.0" height="1.0" class="space" style="fill:none;stroke:blue;stroke-width:0.5;"/>
    <rect x="810.0" y="0.0" width="-3.0" height="1.0" class="space" style="fill:none;stroke:blue;stroke-width:0.5;"/>
    <rect x="811.0" y="0.0" width="-4.0" height="1.0" class="space" style="fill:none;stroke:blue;stroke-width:0.5;"/>
    <rect x="811.0" y="0.0" width="-4.0" height="1.0" class="space" style="fill:none;stroke:blue;stroke-width:0.5;"/>
    <rect x="811.0" y="0.0" width="-3.0" height="1.0" class="space" style="fill:none;stroke:blue;stroke-width:0.5;"/>
    <rect x="812.0" y="0.0" width="-3.0" height="1.0" class="space" style="fill:none;stroke:blue;stroke-width:0.5;"/>
    <rect x="814.0" y="0.0" width="-4.0" height="1.0" class="space" style="fill:none;stroke:blue;stroke-width:0.5;"/>
    <rect x="815.0" y="0.0" width="-4.0" height="1.0" class="space" style="fill:none;stroke:blue;stroke-width:0.5;"/>
    <rect x="816.0" y="0.0" width="-4.0" height="1.0" class="space" style="fill:none;stroke:blue;stroke-width:0.5;"/>
    <rect x="817.0" y="0.0" width="-4.0" height="1.0" class="space" style="fill:none;stroke:blue;stroke-width:0.5;"/>
    <rect x="818.0" y="0.0" width="-4.0" height="1.0" class="space" style="fill:none;stroke:blue;stroke-width:0.5;"/>
    <rect x="819.0" y="0.0" width="-4.0" height="1.0" class="space" style="fill:none;stroke:blue;stroke-width:0.5;"/>
    <rect x="820.0" y="0.0" width="-4.0" height="1.0" class="space" style="fill:none;stroke:blue;stroke-width:0.5;"/>
    <rect x="820.0" y="0.0" width="-3.0" height="1.0" class="space" style="fill:none;stroke:blue;stroke-width:0.5;"/>
    <rect x="821.0" y="0.0" width="-3.0" height="1.0" class="space" style="fill:none;stroke:blue;stroke-width:0.5;"/>
    <rect x="822.0" y="0.0" width="-4.0" height="1.0" class="space" style="fill:none;stroke:blue;stroke-width:0.5;"/>
    <rect x="822.0" y="0.0" width="-3.0" height="1.0" class="space" style="fill:none;stroke:blue;stroke-width:0.5;"/>
    <rect x="823.0" y="0.0" width="-4.0" height="1.0" class="space" style="fill:none;stroke:blue;stroke-width:0.5;"/>
    <rect x="823.0" y="0.0" width="-4.0" height="1.0" class="space" style="fill:none;stroke:blue;stroke-width:0.5;"/>
    <rect x="823.0" y="0.0" width="-3.0" height="1.0" class="space" style="fill:none;stroke:blue;stroke-width:0.5;"/>
    <rect x="824.0" y="0.0" width="-4.0" height="1.0" class="space" style="fill:none;stroke:blue;stroke-width:0.5;"/>
    <rect x="824.0" y="0.0" width="-4.0" height="1.0" class="space" style="fill:none;stroke:blue;stroke-width:0.5;"/>
    <rect x="824.0" y="0.0" width="-3.0" height="1.0" class="space" style="fill:none;stroke:blue;stroke-width:0.5;"/>
    <rect x="825.0" y="0.0" width="-4.0" height="1.0" class="space" style="fill:none;stroke:blue;stroke-width:0.5;"/>
    <rect x="825.0" y="0.0" width="-4.0" height="1.0" class="space" style="fill:none;stroke:blue;stroke-width:0.5;"/>
    <rect x="825.0" y="0.0" width="-3.0" height="1.0" class="space" style="fill:none;stroke:blue;stroke-width:0.5;"/>
    <rect x="826.0" y="0.0" width="-4.0" height="1.0" class="space" style="fill:none;stroke:blue;stroke-width:0.5;"/>
    <rect x="826.0" y="0.0" width="-4.0" height="1.0" class="space" style="fill:none;stroke:blue;stroke-width:0.5;"/>
    <rect x="826.0" y="0.0" width="-4.0" height="1.0" class="space" style="fill:none;stroke:blue;stroke-width:0.5;"/>
    <rect x="826.0" y="0.0" width="-3.0" height="1.0" class="space" style="fill:none;stroke:blue;stroke-width:0.5;"/>
    <rect x="827.0" y="0.0" width="-4.0" height="1.0" class="space" style="fill:none;stroke:blue;stroke-width:0.5;"/>
    <rect x="827.0" y="0.0" width="-4.0" height="1.0" class="space" style="fill:none;stroke:blue;stroke-width:0.5;"/>
    <rect x="827.0" y="0.0" width="-4.0" height="1.0" class="space" style="fill:none;stroke:blue;stroke-width:0.5;"/>
    <rect x="827.0" y="0.0" width="-4.0" height="1.0" class="space" style="fill:none;stroke:blue;stroke-width:0.5;"/>
    <rect x="827.0" y="0.0" width="-4.0" height="1.0" class="space" style="fill:none;stroke:blue;stroke-width:0.5;"/>
    <rect x="827.0" y="0.0" width="-3.0" height="1.0" class="space" style="fill:none;stroke:blue;stroke-width:0.5;"/>
    <rect x="828.0" y="0.0" width="-4.0" height="1.0" class="space" style="fill:none;stroke:blue;stroke-width:0.5;"/>
    <rect x="828.0" y="0.0" width="-4.0" height="1.0" class="space" style="fill:none;stroke:blue;stroke-width:0.5;"/>
    <rect x="828.0" y="0.0" width="-4.0" height="1.0" class="space" style="fill:none;stroke:blue;stroke-width:0.5;"/>
    <rect x="828.0" y="0.0" width="-4.0" height="1.0" class="space" style="fill:none;stroke:blue;stroke-width:0.5;"/>
    <rect x="828.0" y="0.0" width="-4.0" height="1.0" class="space" style="fill:none;stroke:blue;stroke-width:0.5;"/>
    <rect x="828.0" y="0.0" width="-4.0" height="1.0" class="space" style="fill:none;stroke:blue;stroke-width:0.5;"/>
    <rect x="828.0" y="0.0" width="-3.0" height="1.0" class="space" style="fill:none;stroke:blue;stroke-width:0.5;"/>
    <rect x="829.0" y="0.0" width="-4.0" height="1.0" class="space" style="fill:none;stroke:blue;stroke-width:0.5;"/>
    <rect x="829.0" y="0.0" width="-4.0" height="1.0" class="space" style="fill:none;stroke:blue;stroke-width:0.5;"/>
    <rect x="829.0" y="0.0" width="-4.0" height="1.0" class="space" style="fill:none;stroke:blue;stroke-width:0.5;"/>
    <rect x="829.0" y="0.0" width="-4.0" height="1.0" class="space" style="fill:none;stroke:blue;stroke-width:0.5;"/>
    <rect x="829.0" y="0.0" width="-4.0" height="1.0" class="space" style="fill:none;stroke:blue;stroke-width:0.5;"/>
    <rect x="829.0" y="0.0" width="-4.0" height="1.0" class="space" style="fill:none;stroke:blue;stroke-width:0.5;"/>
    <rect x="829.0" y="0.0" width="-4.0" height="1.0" class="space" style="fill:none;stroke:blue;stroke-width:0.5;"/>
    <rect x="829.0" y="0.0" width="-4.0" height="1.0" class="space" style="fill:none;stroke:blue;stroke-width:0.5;"/>
    <rect x="829.0" y="0.0" width="-4.0" height="1.0" class="space" style="fill:none;stroke:blue;stroke-width:0.5;"/>
    <rect x="829.0" y="0.0" width="-4.0" height="1.0" class="space" style="fill:none;stroke:blue;stroke-width:0.5;"/>
    <rect x="829.0" y="0.0" width="-3.0" height="1.0" class="space" style="fill:none;stroke:blue;stroke-width:0.5;"/>
    <rect x="830.0" y="0.0" width="-4.0" height="1.0" class="space" style="fill:none;stroke:blue;stroke-width:0.5;"/>
    <rect x="830.0" y="0.0" width="-4.0" height="1.0" class="space" style="fill:none;stroke:blue;stroke-width:0.5;"/>
    <rect x="830.0" y="0.0" width="-4.0" height="1.0" class="space" style="fill:none;stroke:blue;stroke-width:0.5;"/>
    <rect x="830.0" y="0.0" width="-4.0" height="1.0" class="space" style="fill:none;stroke:blue;stroke-width:0.5;"/>
    <rect x="830.0" y="0.0" width="-4.0" height="1.0" class="space" style="fill:none;stroke:blue;stroke-width:0.5;"/>
    <rect x="830.0" y="0.0" width="-4.0" height="1.0" class="space" style="fill:none;stroke:blue;stroke-width:0.5;"/>
    <rect x="830.0" y="0.0" width="-4.0" height="1.0" class="space" style="fill:none;stroke:blue;stroke-width:0.5;"/>
    <rect x="830.0" y="0.0" width="-4.0" height="1.0" class="space" style="fill:none;stroke:blue;stroke-width:0.5;"/>
    <rect x="830.0" y="0.0" width="-4.0" height="1.0" class="space" style="fill:none;stroke:blue;stroke-width:0.5;"/>
    <rect x="830.0" y="0.0" width="-4.0" height="1.0" class="space" style="fill:none;stroke:blue;stroke-width:0.5;"/>
    <rect x="830.0" y="0.0" width="-4.0" height="1.0" class="space" style="fill:none;stroke:blue;stroke-width:0.5;"/>
    <rect x="830.0" y="0.0" width="-4.0" height="1.0" class="space" style="fill:none;stroke:blue;stroke-width:0.5;"/>
    <rect x="830.0" y="0.0" width="-4.0" height="1.0" class="space" style="fill:none;stroke:blue;stroke-width:0.5;"/>
    <rect x="830.0" y="0.0" width="-4.0" height="1.0" class="space" style="fill:none;stroke:blue;stroke-width:0.5;"/>
    <rect x="830.0" y="0.0" width="-3.0" height="1.0" class="space" style="fill:none;stroke:blue;stroke-width:0.5;"/>
    <rect x="828.0" y="0.0" width="362.0" height="1.0" class="space" style="fill:none;stroke:blue;stroke-width:0.5;"/>
    <g>
     <rect x="828.0" y="0.0" width="362.0" height="1.0" class="text" style="fill:none;stroke:red;stroke-width:0.5;"/>
     <text x="828.0" y="1.0" achars="" style="fill:black;font-family:helvetica;font-size:10.0px;">?</text>
    </g>
   </g>
   <g class="line">
    <rect x="8.0" y="0.0" width="223.0" height="1.0" class="space" style="fill:none;stroke:blue;stroke-width:0.5;"/>
    <g>
     <rect x="8.0" y="0.0" width="223.0" height="1.0" class="text" style="fill:none;stroke:red;stroke-width:0.5;"/>
     <text x="8.0" y="1.0" achars="-" style="fill:black;font-family:helvetica;font-size:10.0px;">-</text>
    </g>
    <g>
     <rect x="232.0" y="0.0" width="3.0" height="14.0" class="text" style="fill:none;stroke:red;stroke-width:0.5;"/>
     <text x="232.0" y="14.0" achars="I,l,1" style="fill:black;font-family:helvetica;font-size:10.0px;">I</text>
    </g>
    <g>
     <rect x="237.0" y="0.0" width="290.0" height="1.0" class="text" style="fill:none;stroke:red;stroke-width:0.5;"/>
     <text x="237.0" y="1.0" achars="" style="fill:black;font-family:helvetica;font-size:10.0px;">?</text>
    </g>
    <g>
     <rect x="528.0" y="0.0" width="3.0" height="14.0" class="text" style="fill:none;stroke:red;stroke-width:0.5;"/>
     <text x="528.0" y="14.0" achars="l,I,|,1" style="fill:black;font-family:helvetica;font-size:10.0px;">l</text>
    </g>
    <g>
     <rect x="532.0" y="0.0" width="291.0" height="1.0" class="text" style="fill:none;stroke:red;stroke-width:0.5;"/>
     <text x="532.0" y="1.0" achars="" style="fill:black;font-family:helvetica;font-size:10.0px;">?</text>
    </g>
    <g>
     <rect x="824.0" y="0.0" width="3.0" height="14.0" class="text" style="fill:none;stroke:red;stroke-width:0.5;"/>
     <text x="824.0" y="14.0" achars="l,I,|,1" style="fill:black;font-family:helvetica;font-size:10.0px;">l</text>
    </g>
   </g>
   <g class="line">
    <rect x="204.0" y="37.0" width="-4.0" height="2.0" class="space" style="fill:none;stroke:blue;stroke-width:0.5;"/>
    <rect x="201.0" y="37.0" width="-3.0" height="2.0" class="space" style="fill:none;stroke:blue;stroke-width:0.5;"/>
    <rect x="200.0" y="37.0" width="-3.0" height="2.0" class="space" style="fill:none;stroke:blue;stroke-width:0.5;"/>
    <rect x="200.0" y="37.0" width="-4.0" height="2.0" class="space" style="fill:none;stroke:blue;stroke-width:0.5;"/>
    <rect x="200.0" y="37.0" width="-4.0" height="2.0" class="space" style="fill:none;stroke:blue;stroke-width:0.5;"/>
    <rect x="200.0" y="37.0" width="-3.0" height="2.0" class="space" style="fill:none;stroke:blue;stroke-width:0.5;"/>
    <rect x="201.0" y="37.0" width="-3.0" height="2.0" class="space" style="fill:none;stroke:blue;stroke-width:0.5;"/>
    <rect x="203.0" y="37.0" width="-4.0" height="2.0" class="space" style="fill:none;stroke:blue;stroke-width:0.5;"/>
    <rect x="203.0" y="37.0" width="-3.0" height="2.0" class="space" style="fill:none;stroke:blue;stroke-width:0.5;"/>
    <rect x="204.0" y="37.0" width="-3.0" height="2.0" class="space" style="fill:none;stroke:blue;stroke-width:0.5;"/>
    <rect x="205.0" y="37.0" width="-4.0" height="2.0" class="space" style="fill:none;stroke:blue;stroke-width:0.5;"/>
    <rect x="205.0" y="37.0" width="-3.0" height="2.0" class="space" style="fill:none;stroke:blue;stroke-width:0.5;"/>
    <rect x="206.0" y="37.0" width="-4.0" height="2.0" class="space" style="fill:none;stroke:blue;stroke-width:0.5;"/>
    <rect x="206.0" y="37.0" width="-4.0" height="2.0" class="space" style="fill:none;stroke:blue;stroke-width:0.5;"/>
    <rect x="206.0" y="37.0" width="-3.0" height="2.0" class="space" style="fill:none;stroke:blue;stroke-width:0.5;"/>
    <rect x="207.0" y="37.0" width="-4.0" height="2.0" class="space" style="fill:none;stroke:blue;stroke-width:0.5;"/>
    <rect x="204.0" y="37.0" width="3.0" height="2.0" class="space" style="fill:none;stroke:blue;stroke-width:0.5;"/>
    <g>
     <rect x="204.0" y="37.0" width="3.0" height="2.0" class="text" style="fill:none;stroke:red;stroke-width:0.5;"/>
     <text x="204.0" y="39.0" achars=".,_" style="fill:black;font-family:helvetica;font-size:10.0px;">.</text>
    </g>
    <g>
     <rect x="209.0" y="24.0" width="10.0" height="16.0" class="text" style="fill:none;stroke:red;stroke-width:0.5;"/>
     <text x="209.0" y="40.0" achars="O,0" style="fill:black;font-family:helvetica;font-size:10.0px;">O</text>
    </g>
    <g>
     <rect x="221.0" y="24.0" width="10.0" height="16.0" class="text" style="fill:none;stroke:red;stroke-width:0.5;"/>
     <text x="221.0" y="40.0" achars="O,0" style="fill:black;font-family:helvetica;font-size:10.0px;">O</text>
    </g>
    <g>
     <rect x="231.0" y="24.0" width="11.0" height="15.0" class="text" style="fill:none;stroke:red;stroke-width:0.5;"/>
     <text x="231.0" y="39.0" achars="4,q" style="fill:black;font-family:helvetica;font-size:10.0px;">4</text>
    </g>
    <g>
     <rect x="244.0" y="24.0" width="7.0" height="15.0" class="text" style="fill:none;stroke:red;stroke-width:0.5;"/>
     <text x="244.0" y="39.0" achars="1" style="fill:black;font-family:helvetica;font-size:10.0px;">1</text>
    </g>
    <g>
     <rect x="254.0" y="24.0" width="10.0" height="15.0" class="text" style="fill:none;stroke:red;stroke-width:0.5;"/>
     <text x="254.0" y="39.0" achars="4,0,q" style="fill:black;font-family:helvetica;font-size:10.0px;">4</text>
    </g>
    <rect x="265.0" y="24.0" width="8.0" height="16.0" class="space" style="fill:none;stroke:blue;stroke-width:0.5;"/>
    <rect x="286.0" y="24.0" width="8.0" height="16.0" class="space" style="fill:none;stroke:blue;stroke-width:0.5;"/>
    <rect x="317.0" y="24.0" width="7.0" height="16.0" class="space" style="fill:none;stroke:blue;stroke-width:0.5;"/>
    <rect x="354.0" y="24.0" width="5.0" height="16.0" class="space" style="fill:none;stroke:blue;stroke-width:0.5;"/>
    <rect x="392.0" y="24.0" width="4.0" height="16.0" class="space" style="fill:none;stroke:blue;stroke-width:0.5;"/>
    <rect x="428.0" y="24.0" width="2.0" height="16.0" class="space" style="fill:none;stroke:blue;stroke-width:0.5;"/>
    <rect x="459.0" y="24.0" width="0.0" height="16.0" class="space" style="fill:none;stroke:blue;stroke-width:0.5;"/>
    <rect x="483.0" y="24.0" width="-1.0" height="16.0" class="space" style="fill:none;stroke:blue;stroke-width:0.5;"/>
    <rect x="500.0" y="24.0" width="-2.0" height="16.0" class="space" style="fill:none;stroke:blue;stroke-width:0.5;"/>
    <rect x="511.0" y="24.0" width="-2.0" height="16.0" class="space" style="fill:none;stroke:blue;stroke-width:0.5;"/>
    <rect x="519.0" y="24.0" width="-4.0" height="16.0" class="space" style="fill:none;stroke:blue;stroke-width:0.5;"/>
    <rect x="522.0" y="24.0" width="-3.0" height="16.0" class="space" style="fill:none;stroke:blue;stroke-width:0.5;"/>
    <rect x="525.0" y="24.0" width="-4.0" height="16.0" class="space" style="fill:none;stroke:blue;stroke-width:0.5;"/>
    <rect x="526.0" y="24.0" width="-4.0" height="16.0" class="space" style="fill:none;stroke:blue;stroke-width:0.5;"/>
    <rect x="527.0" y="24.0" width="-4.0" height="16.0" class="space" style="fill:none;stroke:blue;stroke-width:0.5;"/>
    <rect x="527.0" y="24.0" width="-4.0" height="16.0" class="space" style="fill:none;stroke:blue;stroke-width:0.5;"/>
    <rect x="527.0" y="24.0" width="-3.0" height="16.0" class="space" style="fill:none;stroke:blue;stroke-width:0.5;"/>
    <rect x="528.0" y="24.0" width="-4.0" height="16.0" class="space" style="fill:none;stroke:blue;stroke-width:0.5;"/>
    <rect x="528.0" y="24.0" width="-4.0" height="16.0" class="space" style="fill:none;stroke:blue;stroke-width:0.5;"/>
    <rect x="528.0" y="24.0" width="-4.0" height="16.0" class="space" style="fill:none;stroke:blue;stroke-width:0.5;"/>
    <rect x="528.0" y="24.0" width="-3.0" height="16.0" class="space" style="fill:none;stroke:blue;stroke-width:0.5;"/>
    <g>
     <rect x="526.0" y="24.0" width="6.0" height="16.0" class="text" style="fill:none;stroke:red;stroke-width:0.5;"/>
     <text x="526.0" y="40.0" achars="1" style="fill:black;font-family:helvetica;font-size:10.0px;">1</text>
    </g>
    <rect x="533.0" y="24.0" width="8.0" height="15.0" class="space" style="fill:none;stroke:blue;stroke-width:0.5;"/>
    <rect x="553.0" y="24.0" width="8.0" height="15.0" class="space" style="fill:none;stroke:blue;stroke-width:0.5;"/>
    <rect x="583.0" y="24.0" width="7.0" height="15.0" class="space" style="fill:none;stroke:blue;stroke-width:0.5;"/>
    <rect x="619.0" y="24.0" width="6.0" height="15.0" class="space" style="fill:none;stroke:blue;stroke-width:0.5;"/>
    <rect x="658.0" y="24.0" width="4.0" height="15.0" class="space" style="fill:none;stroke:blue;stroke-width:0.5;"/>
    <rect x="695.0" y="24.0" width="2.0" height="15.0" class="space" style="fill:none;stroke:blue;stroke-width:0.5;"/>
    <rect x="727.0" y="24.0" width="1.0" height="15.0" class="space" style="fill:none;stroke:blue;stroke-width:0.5;"/>
    <rect x="754.0" y="24.0" width="-1.0" height="15.0" class="space" style="fill:none;stroke:blue;stroke-width:0.5;"/>
    <rect x="774.0" y="24.0" width="-2.0" height="15.0" class="space" style="fill:none;stroke:blue;stroke-width:0.5;"/>
    <rect x="788.0" y="24.0" width="-3.0" height="15.0" class="space" style="fill:none;stroke:blue;stroke-width:0.5;"/>
    <rect x="797.0" y="24.0" width="-3.0" height="15.0" class="space" style="fill:none;stroke:blue;stroke-width:0.5;"/>
    <rect x="803.0" y="24.0" width="-4.0" height="15.0" class="space" style="fill:none;stroke:blue;stroke-width:0.5;"/>
    <rect x="806.0" y="24.0" width="-4.0" height="15.0" class="space" style="fill:none;stroke:blue;stroke-width:0.5;"/>
    <rect x="808.0" y="24.0" width="-4.0" height="15.0" class="space" style="fill:none;stroke:blue;stroke-width:0.5;"/>
    <rect x="809.0" y="24.0" width="-4.0" height="15.0" class="space" style="fill:none;stroke:blue;stroke-width:0.5;"/>
    <rect x="809.0" y="24.0" width="-3.0" height="15.0" class="space" style="fill:none;stroke:blue;stroke-width:0.5;"/>
    <rect x="810.0" y="24.0" width="-4.0" height="15.0" class="space" style="fill:none;stroke:blue;stroke-width:0.5;"/>
    <rect x="810.0" y="24.0" width="-4.0" height="15.0" class="space" style="fill:none;stroke:blue;stroke-width:0.5;"/>
    <rect x="810.0" y="24.0" width="-3.0" height="15.0" class="space" style="fill:none;stroke:blue;stroke-width:0.5;"/>
    <rect x="811.0" y="24.0" width="-4.0" height="15.0" class="space" style="fill:none;stroke:blue;stroke-width:0.5;"/>
    <rect x="811.0" y="24.0" width="-4.0" height="15.0" class="space" style="fill:none;stroke:blue;stroke-width:0.5;"/>
    <rect x="811.0" y="24.0" width="-4.0" height="15.0" class="space" style="fill:none;stroke:blue;stroke-width:0.5;"/>
    <rect x="811.0" y="24.0" width="-3.0" height="15.0" class="space" style="fill:none;stroke:blue;stroke-width:0.5;"/>
    <g>
     <rect x="809.0" y="24.0" width="10.0" height="15.0" class="text" style="fill:none;stroke:red;stroke-width:0.5;"/>
     <text x="809.0" y="39.0" achars="2" style="fill:black;font-family:helvetica;font-size:10.0px;">2</text>
    </g>
    <g>
     <rect x="820.0" y="24.0" width="11.0" height="16.0" class="text" style="fill:none;stroke:red;stroke-width:0.5;"/>
     <text x="820.0" y="40.0" achars="4" style="fill:black;font-family:helvetica;font-size:10.0px;">4</text>
    </g>
    <g>
     <rect x="832.0" y="24.0" width="10.0" height="15.0" class="text" style="fill:none;stroke:red;stroke-width:0.5;"/>
     <text x="832.0" y="39.0" achars="2" style="fill:black;font-family:helvetica;font-size:10.0px;">2</text>
    </g>
   </g>
  </g>
 </g>
</svg>
