<?xml version="1.0" encoding="UTF-8"?>
<svg height="985.0" width="1427.0" xmlns="http://www.w3.org/2000/svg">
 <g>
  <g class="horizontallines">
   <line x1="8.0" y1="2.0" x2="1417.0" y2="2.0" style="stroke:red;stroke-width:1.0;"/>
   <line x1="48.0" y1="49.0" x2="1383.0" y2="49.0" style="stroke:red;stroke-width:1.0;"/>
   <line x1="45.0" y1="274.0" x2="1383.0" y2="274.0" style="stroke:red;stroke-width:1.0;"/>
   <line x1="45.0" y1="873.0" x2="1383.0" y2="873.0" style="stroke:red;stroke-width:3.0;"/>
   <line x1="48.0" y1="877.0" x2="484.0" y2="877.0" style="stroke:red;stroke-width:1.0;"/>
   <line x1="495.0" y1="877.0" x2="575.0" y2="877.0" style="stroke:red;stroke-width:1.0;"/>
   <line x1="584.0" y1="877.0" x2="682.0" y2="877.0" style="stroke:red;stroke-width:1.0;"/>
   <line x1="695.0" y1="877.0" x2="887.0" y2="877.0" style="stroke:red;stroke-width:1.0;"/>
   <line x1="896.0" y1="877.0" x2="1375.0" y2="877.0" style="stroke:red;stroke-width:1.0;"/>
   <line x1="6.0" y1="973.0" x2="1415.0" y2="973.0" style="stroke:red;stroke-width:1.0;"/>
  </g>
  <g class="verticallines">
   <line x1="2.0" y1="8.0" x2="2.0" y2="970.0" style="stroke:blue;stroke-width:1.0;"/>
   <line x1="689.0" y1="274.0" x2="689.0" y2="887.0" style="stroke:blue;stroke-width:2.0;"/>
   <line x1="1386.0" y1="52.0" x2="1386.0" y2="271.0" style="stroke:blue;stroke-width:1.0;"/>
   <line x1="1386.0" y1="280.0" x2="1386.0" y2="870.0" style="stroke:blue;stroke-width:1.0;"/>
   <line x1="1417.0" y1="2.0" x2="1417.0" y2="975.0" style="stroke:blue;stroke-width:1.0;"/>
  </g>
 </g>
</svg>
