<?xml version="1.0" encoding="UTF-8"?>
<svg height="104.0" width="1193.0" xmlns="http://www.w3.org/2000/svg">
 <g class="page">
  <g class="block">
   <g class="line">
    <rect x="1134.0" y="9.0" width="-1.0" height="7.0" class="space" style="fill:none;stroke:blue;stroke-width:0.5;"/>
    <rect x="1134.0" y="9.0" width="-4.0" height="7.0" class="space" style="fill:none;stroke:blue;stroke-width:0.5;"/>
    <rect x="1131.0" y="9.0" width="-4.0" height="7.0" class="space" style="fill:none;stroke:blue;stroke-width:0.5;"/>
    <rect x="1128.0" y="9.0" width="-4.0" height="7.0" class="space" style="fill:none;stroke:blue;stroke-width:0.5;"/>
    <rect x="1125.0" y="9.0" width="-4.0" height="7.0" class="space" style="fill:none;stroke:blue;stroke-width:0.5;"/>
    <rect x="1122.0" y="9.0" width="-4.0" height="7.0" class="space" style="fill:none;stroke:blue;stroke-width:0.5;"/>
    <rect x="1120.0" y="9.0" width="-4.0" height="7.0" class="space" style="fill:none;stroke:blue;stroke-width:0.5;"/>
    <rect x="1118.0" y="9.0" width="-4.0" height="7.0" class="space" style="fill:none;stroke:blue;stroke-width:0.5;"/>
    <rect x="1116.0" y="9.0" width="-4.0" height="7.0" class="space" style="fill:none;stroke:blue;stroke-width:0.5;"/>
    <rect x="1115.0" y="9.0" width="-4.0" height="7.0" class="space" style="fill:none;stroke:blue;stroke-width:0.5;"/>
    <rect x="1114.0" y="9.0" width="-4.0" height="7.0" class="space" style="fill:none;stroke:blue;stroke-width:0.5;"/>
    <rect x="1113.0" y="9.0" width="-4.0" height="7.0" class="space" style="fill:none;stroke:blue;stroke-width:0.5;"/>
    <rect x="1113.0" y="9.0" width="-4.0" height="7.0" class="space" style="fill:none;stroke:blue;stroke-width:0.5;"/>
    <rect x="1113.0" y="9.0" width="-4.0" height="7.0" class="space" style="fill:none;stroke:blue;stroke-width:0.5;"/>
    <rect x="1113.0" y="9.0" width="-4.0" height="7.0" class="space" style="fill:none;stroke:blue;stroke-width:0.5;"/>
    <rect x="1113.0" y="9.0" width="-3.0" height="7.0" class="space" style="fill:none;stroke:blue;stroke-width:0.5;"/>
    <rect x="1114.0" y="9.0" width="-3.0" height="7.0" class="space" style="fill:none;stroke:blue;stroke-width:0.5;"/>
    <rect x="1116.0" y="9.0" width="-4.0" height="7.0" class="space" style="fill:none;stroke:blue;stroke-width:0.5;"/>
    <rect x="1117.0" y="9.0" width="-4.0" height="7.0" class="space" style="fill:none;stroke:blue;stroke-width:0.5;"/>
    <rect x="1118.0" y="9.0" width="-4.0" height="7.0" class="space" style="fill:none;stroke:blue;stroke-width:0.5;"/>
    <rect x="1119.0" y="9.0" width="-4.0" height="7.0" class="space" style="fill:none;stroke:blue;stroke-width:0.5;"/>
    <rect x="1120.0" y="9.0" width="-4.0" height="7.0" class="space" style="fill:none;stroke:blue;stroke-width:0.5;"/>
    <rect x="1121.0" y="9.0" width="-4.0" height="7.0" class="space" style="fill:none;stroke:blue;stroke-width:0.5;"/>
    <rect x="1122.0" y="9.0" width="-4.0" height="7.0" class="space" style="fill:none;stroke:blue;stroke-width:0.5;"/>
    <rect x="1123.0" y="9.0" width="-4.0" height="7.0" class="space" style="fill:none;stroke:blue;stroke-width:0.5;"/>
    <rect x="1124.0" y="9.0" width="-4.0" height="7.0" class="space" style="fill:none;stroke:blue;stroke-width:0.5;"/>
    <rect x="1124.0" y="9.0" width="-3.0" height="7.0" class="space" style="fill:none;stroke:blue;stroke-width:0.5;"/>
    <rect x="1125.0" y="9.0" width="-4.0" height="7.0" class="space" style="fill:none;stroke:blue;stroke-width:0.5;"/>
    <rect x="1125.0" y="9.0" width="-3.0" height="7.0" class="space" style="fill:none;stroke:blue;stroke-width:0.5;"/>
    <rect x="1126.0" y="9.0" width="-4.0" height="7.0" class="space" style="fill:none;stroke:blue;stroke-width:0.5;"/>
    <rect x="1126.0" y="9.0" width="-3.0" height="7.0" class="space" style="fill:none;stroke:blue;stroke-width:0.5;"/>
    <rect x="1127.0" y="9.0" width="-4.0" height="7.0" class="space" style="fill:none;stroke:blue;stroke-width:0.5;"/>
    <rect x="1127.0" y="9.0" width="-3.0" height="7.0" class="space" style="fill:none;stroke:blue;stroke-width:0.5;"/>
    <rect x="1128.0" y="9.0" width="-4.0" height="7.0" class="space" style="fill:none;stroke:blue;stroke-width:0.5;"/>
    <rect x="1128.0" y="9.0" width="-4.0" height="7.0" class="space" style="fill:none;stroke:blue;stroke-width:0.5;"/>
    <rect x="1128.0" y="9.0" width="-3.0" height="7.0" class="space" style="fill:none;stroke:blue;stroke-width:0.5;"/>
    <rect x="1129.0" y="9.0" width="-4.0" height="7.0" class="space" style="fill:none;stroke:blue;stroke-width:0.5;"/>
    <rect x="1129.0" y="9.0" width="-4.0" height="7.0" class="space" style="fill:none;stroke:blue;stroke-width:0.5;"/>
    <rect x="1129.0" y="9.0" width="-3.0" height="7.0" class="space" style="fill:none;stroke:blue;stroke-width:0.5;"/>
    <rect x="1130.0" y="9.0" width="-4.0" height="7.0" class="space" style="fill:none;stroke:blue;stroke-width:0.5;"/>
    <rect x="1130.0" y="9.0" width="-4.0" height="7.0" class="space" style="fill:none;stroke:blue;stroke-width:0.5;"/>
    <rect x="1130.0" y="9.0" width="-4.0" height="7.0" class="space" style="fill:none;stroke:blue;stroke-width:0.5;"/>
    <rect x="1130.0" y="9.0" width="-3.0" height="7.0" class="space" style="fill:none;stroke:blue;stroke-width:0.5;"/>
    <rect x="1131.0" y="9.0" width="-4.0" height="7.0" class="space" style="fill:none;stroke:blue;stroke-width:0.5;"/>
    <rect x="1131.0" y="9.0" width="-4.0" height="7.0" class="space" style="fill:none;stroke:blue;stroke-width:0.5;"/>
    <rect x="1131.0" y="9.0" width="-4.0" height="7.0" class="space" style="fill:none;stroke:blue;stroke-width:0.5;"/>
    <rect x="1131.0" y="9.0" width="-4.0" height="7.0" class="space" style="fill:none;stroke:blue;stroke-width:0.5;"/>
    <rect x="1131.0" y="9.0" width="-3.0" height="7.0" class="space" style="fill:none;stroke:blue;stroke-width:0.5;"/>
    <rect x="1132.0" y="9.0" width="-4.0" height="7.0" class="space" style="fill:none;stroke:blue;stroke-width:0.5;"/>
    <rect x="1132.0" y="9.0" width="-4.0" height="7.0" class="space" style="fill:none;stroke:blue;stroke-width:0.5;"/>
    <rect x="1132.0" y="9.0" width="-4.0" height="7.0" class="space" style="fill:none;stroke:blue;stroke-width:0.5;"/>
    <rect x="1132.0" y="9.0" width="-4.0" height="7.0" class="space" style="fill:none;stroke:blue;stroke-width:0.5;"/>
    <rect x="1132.0" y="9.0" width="-3.0" height="7.0" class="space" style="fill:none;stroke:blue;stroke-width:0.5;"/>
    <rect x="1133.0" y="9.0" width="-4.0" height="7.0" class="space" style="fill:none;stroke:blue;stroke-width:0.5;"/>
    <rect x="1133.0" y="9.0" width="-4.0" height="7.0" class="space" style="fill:none;stroke:blue;stroke-width:0.5;"/>
    <rect x="1133.0" y="9.0" width="-4.0" height="7.0" class="space" style="fill:none;stroke:blue;stroke-width:0.5;"/>
    <rect x="1133.0" y="9.0" width="-4.0" height="7.0" class="space" style="fill:none;stroke:blue;stroke-width:0.5;"/>
    <rect x="1133.0" y="9.0" width="-4.0" height="7.0" class="space" style="fill:none;stroke:blue;stroke-width:0.5;"/>
    <rect x="1133.0" y="9.0" width="-4.0" height="7.0" class="space" style="fill:none;stroke:blue;stroke-width:0.5;"/>
    <rect x="1133.0" y="9.0" width="-4.0" height="7.0" class="space" style="fill:none;stroke:blue;stroke-width:0.5;"/>
    <rect x="1133.0" y="9.0" width="-3.0" height="7.0" class="space" style="fill:none;stroke:blue;stroke-width:0.5;"/>
    <rect x="1134.0" y="9.0" width="-4.0" height="7.0" class="space" style="fill:none;stroke:blue;stroke-width:0.5;"/>
    <rect x="1134.0" y="9.0" width="-4.0" height="7.0" class="space" style="fill:none;stroke:blue;stroke-width:0.5;"/>
    <rect x="1134.0" y="9.0" width="-4.0" height="7.0" class="space" style="fill:none;stroke:blue;stroke-width:0.5;"/>
    <rect x="1134.0" y="9.0" width="-4.0" height="7.0" class="space" style="fill:none;stroke:blue;stroke-width:0.5;"/>
    <rect x="1134.0" y="9.0" width="-4.0" height="7.0" class="space" style="fill:none;stroke:blue;stroke-width:0.5;"/>
    <rect x="1134.0" y="9.0" width="-4.0" height="7.0" class="space" style="fill:none;stroke:blue;stroke-width:0.5;"/>
    <rect x="1134.0" y="9.0" width="-4.0" height="7.0" class="space" style="fill:none;stroke:blue;stroke-width:0.5;"/>
    <rect x="1134.0" y="9.0" width="-4.0" height="7.0" class="space" style="fill:none;stroke:blue;stroke-width:0.5;"/>
    <rect x="1134.0" y="9.0" width="-4.0" height="7.0" class="space" style="fill:none;stroke:blue;stroke-width:0.5;"/>
    <rect x="1134.0" y="9.0" width="-3.0" height="7.0" class="space" style="fill:none;stroke:blue;stroke-width:0.5;"/>
    <rect x="1135.0" y="9.0" width="-4.0" height="7.0" class="space" style="fill:none;stroke:blue;stroke-width:0.5;"/>
    <rect x="1135.0" y="9.0" width="-4.0" height="7.0" class="space" style="fill:none;stroke:blue;stroke-width:0.5;"/>
    <rect x="1135.0" y="9.0" width="-4.0" height="7.0" class="space" style="fill:none;stroke:blue;stroke-width:0.5;"/>
    <rect x="1135.0" y="9.0" width="-4.0" height="7.0" class="space" style="fill:none;stroke:blue;stroke-width:0.5;"/>
    <rect x="1135.0" y="9.0" width="-4.0" height="7.0" class="space" style="fill:none;stroke:blue;stroke-width:0.5;"/>
    <rect x="1135.0" y="9.0" width="-4.0" height="7.0" class="space" style="fill:none;stroke:blue;stroke-width:0.5;"/>
    <rect x="1135.0" y="9.0" width="-4.0" height="7.0" class="space" style="fill:none;stroke:blue;stroke-width:0.5;"/>
    <rect x="1135.0" y="9.0" width="-4.0" height="7.0" class="space" style="fill:none;stroke:blue;stroke-width:0.5;"/>
    <rect x="1135.0" y="9.0" width="-4.0" height="7.0" class="space" style="fill:none;stroke:blue;stroke-width:0.5;"/>
    <rect x="1135.0" y="9.0" width="-4.0" height="7.0" class="space" style="fill:none;stroke:blue;stroke-width:0.5;"/>
    <rect x="1135.0" y="9.0" width="-4.0" height="7.0" class="space" style="fill:none;stroke:blue;stroke-width:0.5;"/>
    <rect x="1135.0" y="9.0" width="-4.0" height="7.0" class="space" style="fill:none;stroke:blue;stroke-width:0.5;"/>
    <rect x="1135.0" y="9.0" width="-4.0" height="7.0" class="space" style="fill:none;stroke:blue;stroke-width:0.5;"/>
    <rect x="1135.0" y="9.0" width="-3.0" height="7.0" class="space" style="fill:none;stroke:blue;stroke-width:0.5;"/>
    <rect x="1136.0" y="9.0" width="-4.0" height="7.0" class="space" style="fill:none;stroke:blue;stroke-width:0.5;"/>
    <rect x="1136.0" y="9.0" width="-4.0" height="7.0" class="space" style="fill:none;stroke:blue;stroke-width:0.5;"/>
    <rect x="1136.0" y="9.0" width="-4.0" height="7.0" class="space" style="fill:none;stroke:blue;stroke-width:0.5;"/>
    <rect x="1136.0" y="9.0" width="-4.0" height="7.0" class="space" style="fill:none;stroke:blue;stroke-width:0.5;"/>
    <rect x="1136.0" y="9.0" width="-4.0" height="7.0" class="space" style="fill:none;stroke:blue;stroke-width:0.5;"/>
    <rect x="1136.0" y="9.0" width="-4.0" height="7.0" class="space" style="fill:none;stroke:blue;stroke-width:0.5;"/>
    <rect x="1136.0" y="9.0" width="-4.0" height="7.0" class="space" style="fill:none;stroke:blue;stroke-width:0.5;"/>
    <rect x="1136.0" y="9.0" width="-4.0" height="7.0" class="space" style="fill:none;stroke:blue;stroke-width:0.5;"/>
    <rect x="1136.0" y="9.0" width="-4.0" height="7.0" class="space" style="fill:none;stroke:blue;stroke-width:0.5;"/>
    <rect x="1136.0" y="9.0" width="-4.0" height="7.0" class="space" style="fill:none;stroke:blue;stroke-width:0.5;"/>
    <rect x="1136.0" y="9.0" width="-4.0" height="7.0" class="space" style="fill:none;stroke:blue;stroke-width:0.5;"/>
    <rect x="1136.0" y="9.0" width="-4.0" height="7.0" class="space" style="fill:none;stroke:blue;stroke-width:0.5;"/>
    <rect x="1136.0" y="9.0" width="-4.0" height="7.0" class="space" style="fill:none;stroke:blue;stroke-width:0.5;"/>
    <rect x="1136.0" y="9.0" width="-4.0" height="7.0" class="space" style="fill:none;stroke:blue;stroke-width:0.5;"/>
    <rect x="1136.0" y="9.0" width="-4.0" height="7.0" class="space" style="fill:none;stroke:blue;stroke-width:0.5;"/>
    <rect x="1136.0" y="9.0" width="-4.0" height="7.0" class="space" style="fill:none;stroke:blue;stroke-width:0.5;"/>
    <rect x="1136.0" y="9.0" width="-4.0" height="7.0" class="space" style="fill:none;stroke:blue;stroke-width:0.5;"/>
    <rect x="1136.0" y="9.0" width="-4.0" height="7.0" class="space" style="fill:none;stroke:blue;stroke-width:0.5;"/>
    <rect x="1136.0" y="9.0" width="-4.0" height="7.0" class="space" style="fill:none;stroke:blue;stroke-width:0.5;"/>
    <rect x="1136.0" y="9.0" width="-4.0" height="7.0" class="space" style="fill:none;stroke:blue;stroke-width:0.5;"/>
    <rect x="1136.0" y="9.0" width="-3.0" height="7.0" class="space" style="fill:none;stroke:blue;stroke-width:0.5;"/>
    <rect x="1134.0" y="9.0" width="6.0" height="7.0" class="space" style="fill:none;stroke:blue;stroke-width:0.5;"/>
    <g>
     <rect x="1134.0" y="9.0" width="6.0" height="7.0" class="text" style="fill:none;stroke:red;stroke-width:0.5;"/>
     <text x="1134.0" y="16.0" achars="" style="fill:black;font-family:helvetica;font-size:10.0px;">?</text>
    </g>
    <g>
     <rect x="1137.0" y="9.0" width="11.0" height="13.0" class="text" style="fill:none;stroke:red;stroke-width:0.5;"/>
     <text x="1137.0" y="22.0" achars="" style="fill:black;font-family:helvetica;font-size:10.0px;">?</text>
    </g>
   </g>
   <g class="line">
    <rect x="14.0" y="45.0" width="10.0" height="12.0" class="space" style="fill:none;stroke:blue;stroke-width:0.5;"/>
    <g>
     <rect x="14.0" y="45.0" width="10.0" height="12.0" class="text" style="fill:none;stroke:red;stroke-width:0.5;"/>
     <text x="14.0" y="57.0" achars="S" style="fill:black;font-family:helvetica;font-size:10.0px;">S</text>
    </g>
    <g>
     <rect x="24.0" y="45.0" width="4.0" height="12.0" class="text" style="fill:none;stroke:red;stroke-width:0.5;"/>
     <text x="24.0" y="57.0" achars="t,f" style="fill:black;font-family:helvetica;font-size:10.0px;">t</text>
    </g>
    <g>
     <rect x="29.0" y="48.0" width="7.0" height="9.0" class="text" style="fill:none;stroke:red;stroke-width:0.5;"/>
     <text x="29.0" y="57.0" achars="u" style="fill:black;font-family:helvetica;font-size:10.0px;">u</text>
    </g>
    <g>
     <rect x="38.0" y="45.0" width="8.0" height="12.0" class="text" style="fill:none;stroke:red;stroke-width:0.5;"/>
     <text x="38.0" y="57.0" achars="d" style="fill:black;font-family:helvetica;font-size:10.0px;">d</text>
    </g>
    <g>
     <rect x="46.0" y="48.0" width="9.0" height="12.0" class="text" style="fill:none;stroke:red;stroke-width:0.5;"/>
     <text x="46.0" y="60.0" achars="y" style="fill:black;font-family:helvetica;font-size:10.0px;">y</text>
    </g>
    <rect x="56.0" y="45.0" width="6.0" height="12.0" class="space" style="fill:none;stroke:blue;stroke-width:0.5;"/>
    <rect x="73.0" y="45.0" width="6.0" height="12.0" class="space" style="fill:none;stroke:blue;stroke-width:0.5;"/>
    <rect x="100.0" y="45.0" width="6.0" height="12.0" class="space" style="fill:none;stroke:blue;stroke-width:0.5;"/>
    <rect x="136.0" y="45.0" width="6.0" height="12.0" class="space" style="fill:none;stroke:blue;stroke-width:0.5;"/>
    <rect x="181.0" y="45.0" width="5.0" height="12.0" class="space" style="fill:none;stroke:blue;stroke-width:0.5;"/>
    <rect x="232.0" y="45.0" width="5.0" height="12.0" class="space" style="fill:none;stroke:blue;stroke-width:0.5;"/>
    <rect x="288.0" y="45.0" width="5.0" height="12.0" class="space" style="fill:none;stroke:blue;stroke-width:0.5;"/>
    <rect x="348.0" y="45.0" width="4.0" height="12.0" class="space" style="fill:none;stroke:blue;stroke-width:0.5;"/>
    <rect x="409.0" y="45.0" width="3.0" height="12.0" class="space" style="fill:none;stroke:blue;stroke-width:0.5;"/>
    <rect x="470.0" y="45.0" width="2.0" height="12.0" class="space" style="fill:none;stroke:blue;stroke-width:0.5;"/>
    <rect x="529.0" y="45.0" width="2.0" height="12.0" class="space" style="fill:none;stroke:blue;stroke-width:0.5;"/>
    <rect x="586.0" y="45.0" width="1.0" height="12.0" class="space" style="fill:none;stroke:blue;stroke-width:0.5;"/>
    <rect x="639.0" y="45.0" width="1.0" height="12.0" class="space" style="fill:none;stroke:blue;stroke-width:0.5;"/>
    <rect x="689.0" y="45.0" width="-1.0" height="12.0" class="space" style="fill:none;stroke:blue;stroke-width:0.5;"/>
    <rect x="732.0" y="45.0" width="-1.0" height="12.0" class="space" style="fill:none;stroke:blue;stroke-width:0.5;"/>
    <rect x="771.0" y="45.0" width="-2.0" height="12.0" class="space" style="fill:none;stroke:blue;stroke-width:0.5;"/>
    <rect x="804.0" y="45.0" width="-1.0" height="12.0" class="space" style="fill:none;stroke:blue;stroke-width:0.5;"/>
    <rect x="834.0" y="45.0" width="-3.0" height="12.0" class="space" style="fill:none;stroke:blue;stroke-width:0.5;"/>
    <rect x="858.0" y="45.0" width="-3.0" height="12.0" class="space" style="fill:none;stroke:blue;stroke-width:0.5;"/>
    <rect x="878.0" y="45.0" width="-3.0" height="12.0" class="space" style="fill:none;stroke:blue;stroke-width:0.5;"/>
    <rect x="894.0" y="45.0" width="-3.0" height="12.0" class="space" style="fill:none;stroke:blue;stroke-width:0.5;"/>
    <rect x="907.0" y="45.0" width="-3.0" height="12.0" class="space" style="fill:none;stroke:blue;stroke-width:0.5;"/>
    <rect x="917.0" y="45.0" width="-3.0" height="12.0" class="space" style="fill:none;stroke:blue;stroke-width:0.5;"/>
    <rect x="925.0" y="45.0" width="-3.0" height="12.0" class="space" style="fill:none;stroke:blue;stroke-width:0.5;"/>
    <rect x="932.0" y="45.0" width="-4.0" height="12.0" class="space" style="fill:none;stroke:blue;stroke-width:0.5;"/>
    <rect x="936.0" y="45.0" width="-4.0" height="12.0" class="space" style="fill:none;stroke:blue;stroke-width:0.5;"/>
    <rect x="939.0" y="45.0" width="-4.0" height="12.0" class="space" style="fill:none;stroke:blue;stroke-width:0.5;"/>
    <rect x="942.0" y="45.0" width="-4.0" height="12.0" class="space" style="fill:none;stroke:blue;stroke-width:0.5;"/>
    <rect x="944.0" y="45.0" width="-4.0" height="12.0" class="space" style="fill:none;stroke:blue;stroke-width:0.5;"/>
    <rect x="945.0" y="45.0" width="-4.0" height="12.0" class="space" style="fill:none;stroke:blue;stroke-width:0.5;"/>
    <rect x="946.0" y="45.0" width="-4.0" height="12.0" class="space" style="fill:none;stroke:blue;stroke-width:0.5;"/>
    <rect x="947.0" y="45.0" width="-4.0" height="12.0" class="space" style="fill:none;stroke:blue;stroke-width:0.5;"/>
    <rect x="948.0" y="45.0" width="-4.0" height="12.0" class="space" style="fill:none;stroke:blue;stroke-width:0.5;"/>
    <rect x="948.0" y="45.0" width="-3.0" height="12.0" class="space" style="fill:none;stroke:blue;stroke-width:0.5;"/>
    <rect x="949.0" y="45.0" width="-4.0" height="12.0" class="space" style="fill:none;stroke:blue;stroke-width:0.5;"/>
    <rect x="949.0" y="45.0" width="-4.0" height="12.0" class="space" style="fill:none;stroke:blue;stroke-width:0.5;"/>
    <rect x="949.0" y="45.0" width="-4.0" height="12.0" class="space" style="fill:none;stroke:blue;stroke-width:0.5;"/>
    <rect x="949.0" y="45.0" width="-3.0" height="12.0" class="space" style="fill:none;stroke:blue;stroke-width:0.5;"/>
    <rect x="950.0" y="45.0" width="-4.0" height="12.0" class="space" style="fill:none;stroke:blue;stroke-width:0.5;"/>
    <rect x="950.0" y="45.0" width="-4.0" height="12.0" class="space" style="fill:none;stroke:blue;stroke-width:0.5;"/>
    <rect x="950.0" y="45.0" width="-4.0" height="12.0" class="space" style="fill:none;stroke:blue;stroke-width:0.5;"/>
    <rect x="950.0" y="45.0" width="-4.0" height="12.0" class="space" style="fill:none;stroke:blue;stroke-width:0.5;"/>
    <rect x="950.0" y="45.0" width="-3.0" height="12.0" class="space" style="fill:none;stroke:blue;stroke-width:0.5;"/>
    <rect x="951.0" y="45.0" width="-4.0" height="12.0" class="space" style="fill:none;stroke:blue;stroke-width:0.5;"/>
    <rect x="951.0" y="45.0" width="-4.0" height="12.0" class="space" style="fill:none;stroke:blue;stroke-width:0.5;"/>
    <rect x="951.0" y="45.0" width="-4.0" height="12.0" class="space" style="fill:none;stroke:blue;stroke-width:0.5;"/>
    <rect x="951.0" y="45.0" width="-4.0" height="12.0" class="space" style="fill:none;stroke:blue;stroke-width:0.5;"/>
    <rect x="951.0" y="45.0" width="-4.0" height="12.0" class="space" style="fill:none;stroke:blue;stroke-width:0.5;"/>
    <rect x="951.0" y="45.0" width="-3.0" height="12.0" class="space" style="fill:none;stroke:blue;stroke-width:0.5;"/>
    <rect x="952.0" y="45.0" width="-4.0" height="12.0" class="space" style="fill:none;stroke:blue;stroke-width:0.5;"/>
    <rect x="952.0" y="45.0" width="-4.0" height="12.0" class="space" style="fill:none;stroke:blue;stroke-width:0.5;"/>
    <rect x="952.0" y="45.0" width="-4.0" height="12.0" class="space" style="fill:none;stroke:blue;stroke-width:0.5;"/>
    <rect x="952.0" y="45.0" width="-4.0" height="12.0" class="space" style="fill:none;stroke:blue;stroke-width:0.5;"/>
    <rect x="952.0" y="45.0" width="-4.0" height="12.0" class="space" style="fill:none;stroke:blue;stroke-width:0.5;"/>
    <rect x="952.0" y="45.0" width="-4.0" height="12.0" class="space" style="fill:none;stroke:blue;stroke-width:0.5;"/>
    <rect x="952.0" y="45.0" width="-4.0" height="12.0" class="space" style="fill:none;stroke:blue;stroke-width:0.5;"/>
    <rect x="952.0" y="45.0" width="-3.0" height="12.0" class="space" style="fill:none;stroke:blue;stroke-width:0.5;"/>
    <rect x="953.0" y="45.0" width="-4.0" height="12.0" class="space" style="fill:none;stroke:blue;stroke-width:0.5;"/>
    <rect x="953.0" y="45.0" width="-4.0" height="12.0" class="space" style="fill:none;stroke:blue;stroke-width:0.5;"/>
    <rect x="953.0" y="45.0" width="-4.0" height="12.0" class="space" style="fill:none;stroke:blue;stroke-width:0.5;"/>
    <rect x="953.0" y="45.0" width="-4.0" height="12.0" class="space" style="fill:none;stroke:blue;stroke-width:0.5;"/>
    <rect x="953.0" y="45.0" width="-4.0" height="12.0" class="space" style="fill:none;stroke:blue;stroke-width:0.5;"/>
    <rect x="953.0" y="45.0" width="-4.0" height="12.0" class="space" style="fill:none;stroke:blue;stroke-width:0.5;"/>
    <rect x="953.0" y="45.0" width="-4.0" height="12.0" class="space" style="fill:none;stroke:blue;stroke-width:0.5;"/>
    <rect x="953.0" y="45.0" width="-4.0" height="12.0" class="space" style="fill:none;stroke:blue;stroke-width:0.5;"/>
    <rect x="953.0" y="45.0" width="-4.0" height="12.0" class="space" style="fill:none;stroke:blue;stroke-width:0.5;"/>
    <rect x="953.0" y="45.0" width="-4.0" height="12.0" class="space" style="fill:none;stroke:blue;stroke-width:0.5;"/>
    <rect x="953.0" y="45.0" width="-3.0" height="12.0" class="space" style="fill:none;stroke:blue;stroke-width:0.5;"/>
    <rect x="954.0" y="45.0" width="-4.0" height="12.0" class="space" style="fill:none;stroke:blue;stroke-width:0.5;"/>
    <rect x="954.0" y="45.0" width="-4.0" height="12.0" class="space" style="fill:none;stroke:blue;stroke-width:0.5;"/>
    <rect x="954.0" y="45.0" width="-4.0" height="12.0" class="space" style="fill:none;stroke:blue;stroke-width:0.5;"/>
    <rect x="954.0" y="45.0" width="-4.0" height="12.0" class="space" style="fill:none;stroke:blue;stroke-width:0.5;"/>
    <rect x="954.0" y="45.0" width="-4.0" height="12.0" class="space" style="fill:none;stroke:blue;stroke-width:0.5;"/>
    <rect x="954.0" y="45.0" width="-4.0" height="12.0" class="space" style="fill:none;stroke:blue;stroke-width:0.5;"/>
    <rect x="954.0" y="45.0" width="-4.0" height="12.0" class="space" style="fill:none;stroke:blue;stroke-width:0.5;"/>
    <rect x="954.0" y="45.0" width="-4.0" height="12.0" class="space" style="fill:none;stroke:blue;stroke-width:0.5;"/>
    <rect x="954.0" y="45.0" width="-4.0" height="12.0" class="space" style="fill:none;stroke:blue;stroke-width:0.5;"/>
    <rect x="954.0" y="45.0" width="-4.0" height="12.0" class="space" style="fill:none;stroke:blue;stroke-width:0.5;"/>
    <rect x="954.0" y="45.0" width="-4.0" height="12.0" class="space" style="fill:none;stroke:blue;stroke-width:0.5;"/>
    <rect x="954.0" y="45.0" width="-4.0" height="12.0" class="space" style="fill:none;stroke:blue;stroke-width:0.5;"/>
    <rect x="954.0" y="45.0" width="-4.0" height="12.0" class="space" style="fill:none;stroke:blue;stroke-width:0.5;"/>
    <rect x="954.0" y="45.0" width="-4.0" height="12.0" class="space" style="fill:none;stroke:blue;stroke-width:0.5;"/>
    <rect x="954.0" y="45.0" width="-4.0" height="12.0" class="space" style="fill:none;stroke:blue;stroke-width:0.5;"/>
    <rect x="954.0" y="45.0" width="-4.0" height="12.0" class="space" style="fill:none;stroke:blue;stroke-width:0.5;"/>
    <rect x="954.0" y="45.0" width="-3.0" height="12.0" class="space" style="fill:none;stroke:blue;stroke-width:0.5;"/>
    <g>
     <rect x="952.0" y="45.0" width="8.0" height="12.0" class="text" style="fill:none;stroke:red;stroke-width:0.5;"/>
     <text x="952.0" y="57.0" achars="E" style="fill:black;font-family:helvetica;font-size:10.0px;">E</text>
    </g>
    <g>
     <rect x="962.0" y="48.0" width="8.0" height="9.0" class="text" style="fill:none;stroke:red;stroke-width:0.5;"/>
     <text x="962.0" y="57.0" achars="y,4" style="fill:black;font-family:helvetica;font-size:10.0px;">y</text>
    </g>
    <g>
     <rect x="970.0" y="48.0" width="9.0" height="9.0" class="text" style="fill:none;stroke:red;stroke-width:0.5;"/>
     <text x="970.0" y="57.0" achars="e,g" style="fill:black;font-family:helvetica;font-size:10.0px;">e</text>
    </g>
    <g>
     <rect x="980.0" y="48.0" width="7.0" height="9.0" class="text" style="fill:none;stroke:red;stroke-width:0.5;"/>
     <text x="980.0" y="57.0" achars="n" style="fill:black;font-family:helvetica;font-size:10.0px;">n</text>
    </g>
    <g>
     <rect x="987.0" y="45.0" width="5.0" height="12.0" class="text" style="fill:none;stroke:red;stroke-width:0.5;"/>
     <text x="987.0" y="57.0" achars="t" style="fill:black;font-family:helvetica;font-size:10.0px;">t</text>
    </g>
    <g>
     <rect x="993.0" y="48.0" width="8.0" height="9.0" class="text" style="fill:none;stroke:red;stroke-width:0.5;"/>
     <text x="993.0" y="57.0" achars="s" style="fill:black;font-family:helvetica;font-size:10.0px;">s</text>
    </g>
    <g>
     <rect x="1002.0" y="55.0" width="3.0" height="5.0" class="text" style="fill:none;stroke:red;stroke-width:0.5;"/>
     <text x="1002.0" y="60.0" achars=".,§,t,1" style="fill:black;font-family:helvetica;font-size:10.0px;">.</text>
    </g>
    <rect x="1006.0" y="45.0" width="7.0" height="12.0" class="space" style="fill:none;stroke:blue;stroke-width:0.5;"/>
    <rect x="1021.0" y="45.0" width="4.0" height="12.0" class="space" style="fill:none;stroke:blue;stroke-width:0.5;"/>
    <g>
     <rect x="1026.0" y="45.0" width="6.0" height="12.0" class="text" style="fill:none;stroke:red;stroke-width:0.5;"/>
     <text x="1026.0" y="57.0" achars="E" style="fill:black;font-family:helvetica;font-size:10.0px;">E</text>
    </g>
    <rect x="1033.0" y="48.0" width="1.0" height="9.0" class="space" style="fill:none;stroke:blue;stroke-width:0.5;"/>
    <g>
     <rect x="1035.0" y="48.0" width="8.0" height="9.0" class="text" style="fill:none;stroke:red;stroke-width:0.5;"/>
     <text x="1035.0" y="57.0" achars="" style="fill:black;font-family:helvetica;font-size:10.0px;">?</text>
    </g>
    <g>
     <rect x="1043.0" y="48.0" width="8.0" height="9.0" class="text" style="fill:none;stroke:red;stroke-width:0.5;"/>
     <text x="1043.0" y="57.0" achars="g" style="fill:black;font-family:helvetica;font-size:10.0px;">g</text>
    </g>
    <g>
     <rect x="1052.0" y="48.0" width="8.0" height="9.0" class="text" style="fill:none;stroke:red;stroke-width:0.5;"/>
     <text x="1052.0" y="57.0" achars="n" style="fill:black;font-family:helvetica;font-size:10.0px;">n</text>
    </g>
    <g>
     <rect x="1060.0" y="45.0" width="5.0" height="12.0" class="text" style="fill:none;stroke:red;stroke-width:0.5;"/>
     <text x="1060.0" y="57.0" achars="t" style="fill:black;font-family:helvetica;font-size:10.0px;">t</text>
    </g>
    <g>
     <rect x="1066.0" y="48.0" width="7.0" height="9.0" class="text" style="fill:none;stroke:red;stroke-width:0.5;"/>
     <text x="1066.0" y="57.0" achars="s" style="fill:black;font-family:helvetica;font-size:10.0px;">s</text>
    </g>
    <g>
     <rect x="1075.0" y="55.0" width="2.0" height="4.0" class="text" style="fill:none;stroke:red;stroke-width:0.5;"/>
     <text x="1075.0" y="59.0" achars="," style="fill:black;font-family:helvetica;font-size:10.0px;">,</text>
    </g>
    <rect x="1078.0" y="45.0" width="7.0" height="12.0" class="space" style="fill:none;stroke:blue;stroke-width:0.5;"/>
    <rect x="1096.0" y="45.0" width="6.0" height="12.0" class="space" style="fill:none;stroke:blue;stroke-width:0.5;"/>
    <rect x="1116.0" y="45.0" width="3.0" height="12.0" class="space" style="fill:none;stroke:blue;stroke-width:0.5;"/>
    <rect x="1130.0" y="45.0" width="-1.0" height="12.0" class="space" style="fill:none;stroke:blue;stroke-width:0.5;"/>
    <rect x="1135.0" y="45.0" width="-2.0" height="12.0" class="space" style="fill:none;stroke:blue;stroke-width:0.5;"/>
    <g>
     <rect x="1134.0" y="45.0" width="5.0" height="12.0" class="text" style="fill:none;stroke:red;stroke-width:0.5;"/>
     <text x="1134.0" y="57.0" achars="1" style="fill:black;font-family:helvetica;font-size:10.0px;">1</text>
    </g>
    <g>
     <rect x="1138.0" y="45.0" width="10.0" height="12.0" class="text" style="fill:none;stroke:red;stroke-width:0.5;"/>
     <text x="1138.0" y="57.0" achars="V" style="fill:black;font-family:helvetica;font-size:10.0px;">V</text>
    </g>
    <g>
     <rect x="1149.0" y="48.0" width="7.0" height="9.0" class="text" style="fill:none;stroke:red;stroke-width:0.5;"/>
     <text x="1149.0" y="57.0" achars="e,i" style="fill:black;font-family:helvetica;font-size:10.0px;">e</text>
    </g>
    <g>
     <rect x="1158.0" y="45.0" width="2.0" height="12.0" class="text" style="fill:none;stroke:red;stroke-width:0.5;"/>
     <text x="1158.0" y="57.0" achars="i,j" style="fill:black;font-family:helvetica;font-size:10.0px;">i</text>
    </g>
    <g>
     <rect x="1161.0" y="48.0" width="7.0" height="12.0" class="text" style="fill:none;stroke:red;stroke-width:0.5;"/>
     <text x="1161.0" y="60.0" achars="g,0" style="fill:black;font-family:helvetica;font-size:10.0px;">g</text>
    </g>
    <g>
     <rect x="1170.0" y="45.0" width="6.0" height="12.0" class="text" style="fill:none;stroke:red;stroke-width:0.5;"/>
     <text x="1170.0" y="57.0" achars="h" style="fill:black;font-family:helvetica;font-size:10.0px;">h</text>
    </g>
    <g>
     <rect x="1178.0" y="45.0" width="4.0" height="12.0" class="text" style="fill:none;stroke:red;stroke-width:0.5;"/>
     <text x="1178.0" y="57.0" achars="t,r" style="fill:black;font-family:helvetica;font-size:10.0px;">t</text>
    </g>
   </g>
   <g class="line">
    <rect x="15.0" y="79.0" width="2.0" height="12.0" class="space" style="fill:none;stroke:blue;stroke-width:0.5;"/>
    <g>
     <rect x="15.0" y="79.0" width="2.0" height="12.0" class="text" style="fill:none;stroke:red;stroke-width:0.5;"/>
     <text x="15.0" y="91.0" achars="l,I,1" style="fill:black;font-family:helvetica;font-size:10.0px;">l</text>
    </g>
    <g>
     <rect x="17.0" y="79.0" width="10.0" height="12.0" class="text" style="fill:none;stroke:red;stroke-width:0.5;"/>
     <text x="17.0" y="91.0" achars="D" style="fill:black;font-family:helvetica;font-size:10.0px;">D</text>
    </g>
    <rect x="28.0" y="79.0" width="6.0" height="12.0" class="space" style="fill:none;stroke:blue;stroke-width:0.5;"/>
    <rect x="45.0" y="79.0" width="7.0" height="12.0" class="space" style="fill:none;stroke:blue;stroke-width:0.5;"/>
    <rect x="73.0" y="79.0" width="6.0" height="12.0" class="space" style="fill:none;stroke:blue;stroke-width:0.5;"/>
    <rect x="109.0" y="79.0" width="6.0" height="12.0" class="space" style="fill:none;stroke:blue;stroke-width:0.5;"/>
    <rect x="153.0" y="79.0" width="6.0" height="12.0" class="space" style="fill:none;stroke:blue;stroke-width:0.5;"/>
    <rect x="204.0" y="79.0" width="5.0" height="12.0" class="space" style="fill:none;stroke:blue;stroke-width:0.5;"/>
    <rect x="259.0" y="79.0" width="4.0" height="12.0" class="space" style="fill:none;stroke:blue;stroke-width:0.5;"/>
    <rect x="316.0" y="79.0" width="3.0" height="12.0" class="space" style="fill:none;stroke:blue;stroke-width:0.5;"/>
    <rect x="373.0" y="79.0" width="3.0" height="12.0" class="space" style="fill:none;stroke:blue;stroke-width:0.5;"/>
    <rect x="430.0" y="79.0" width="2.0" height="12.0" class="space" style="fill:none;stroke:blue;stroke-width:0.5;"/>
    <rect x="485.0" y="79.0" width="1.0" height="12.0" class="space" style="fill:none;stroke:blue;stroke-width:0.5;"/>
    <rect x="536.0" y="79.0" width="0.0" height="12.0" class="space" style="fill:none;stroke:blue;stroke-width:0.5;"/>
    <rect x="582.0" y="79.0" width="0.0" height="12.0" class="space" style="fill:none;stroke:blue;stroke-width:0.5;"/>
    <rect x="624.0" y="79.0" width="-1.0" height="12.0" class="space" style="fill:none;stroke:blue;stroke-width:0.5;"/>
    <rect x="661.0" y="79.0" width="-1.0" height="12.0" class="space" style="fill:none;stroke:blue;stroke-width:0.5;"/>
    <rect x="693.0" y="79.0" width="-2.0" height="12.0" class="space" style="fill:none;stroke:blue;stroke-width:0.5;"/>
    <rect x="720.0" y="79.0" width="-3.0" height="12.0" class="space" style="fill:none;stroke:blue;stroke-width:0.5;"/>
    <rect x="742.0" y="79.0" width="-3.0" height="12.0" class="space" style="fill:none;stroke:blue;stroke-width:0.5;"/>
    <rect x="760.0" y="79.0" width="-3.0" height="12.0" class="space" style="fill:none;stroke:blue;stroke-width:0.5;"/>
    <rect x="774.0" y="79.0" width="-3.0" height="12.0" class="space" style="fill:none;stroke:blue;stroke-width:0.5;"/>
    <rect x="785.0" y="79.0" width="-3.0" height="12.0" class="space" style="fill:none;stroke:blue;stroke-width:0.5;"/>
    <rect x="794.0" y="79.0" width="-3.0" height="12.0" class="space" style="fill:none;stroke:blue;stroke-width:0.5;"/>
    <rect x="801.0" y="79.0" width="-4.0" height="12.0" class="space" style="fill:none;stroke:blue;stroke-width:0.5;"/>
    <rect x="805.0" y="79.0" width="-3.0" height="12.0" class="space" style="fill:none;stroke:blue;stroke-width:0.5;"/>
    <rect x="809.0" y="79.0" width="-3.0" height="12.0" class="space" style="fill:none;stroke:blue;stroke-width:0.5;"/>
    <rect x="812.0" y="79.0" width="-4.0" height="12.0" class="space" style="fill:none;stroke:blue;stroke-width:0.5;"/>
    <rect x="814.0" y="79.0" width="-4.0" height="12.0" class="space" style="fill:none;stroke:blue;stroke-width:0.5;"/>
    <rect x="815.0" y="79.0" width="-4.0" height="12.0" class="space" style="fill:none;stroke:blue;stroke-width:0.5;"/>
    <rect x="816.0" y="79.0" width="-4.0" height="12.0" class="space" style="fill:none;stroke:blue;stroke-width:0.5;"/>
    <rect x="817.0" y="79.0" width="-4.0" height="12.0" class="space" style="fill:none;stroke:blue;stroke-width:0.5;"/>
    <rect x="818.0" y="79.0" width="-4.0" height="12.0" class="space" style="fill:none;stroke:blue;stroke-width:0.5;"/>
    <rect x="818.0" y="79.0" width="-4.0" height="12.0" class="space" style="fill:none;stroke:blue;stroke-width:0.5;"/>
    <rect x="818.0" y="79.0" width="-4.0" height="12.0" class="space" style="fill:none;stroke:blue;stroke-width:0.5;"/>
    <rect x="818.0" y="79.0" width="-3.0" height="12.0" class="space" style="fill:none;stroke:blue;stroke-width:0.5;"/>
    <rect x="819.0" y="79.0" width="-4.0" height="12.0" class="space" style="fill:none;stroke:blue;stroke-width:0.5;"/>
    <rect x="819.0" y="79.0" width="-4.0" height="12.0" class="space" style="fill:none;stroke:blue;stroke-width:0.5;"/>
    <rect x="819.0" y="79.0" width="-4.0" height="12.0" class="space" style="fill:none;stroke:blue;stroke-width:0.5;"/>
    <rect x="819.0" y="79.0" width="-3.0" height="12.0" class="space" style="fill:none;stroke:blue;stroke-width:0.5;"/>
    <rect x="820.0" y="79.0" width="-4.0" height="12.0" class="space" style="fill:none;stroke:blue;stroke-width:0.5;"/>
    <rect x="820.0" y="79.0" width="-4.0" height="12.0" class="space" style="fill:none;stroke:blue;stroke-width:0.5;"/>
    <rect x="820.0" y="79.0" width="-4.0" height="12.0" class="space" style="fill:none;stroke:blue;stroke-width:0.5;"/>
    <rect x="820.0" y="79.0" width="-4.0" height="12.0" class="space" style="fill:none;stroke:blue;stroke-width:0.5;"/>
    <rect x="820.0" y="79.0" width="-3.0" height="12.0" class="space" style="fill:none;stroke:blue;stroke-width:0.5;"/>
    <rect x="821.0" y="79.0" width="-4.0" height="12.0" class="space" style="fill:none;stroke:blue;stroke-width:0.5;"/>
    <rect x="821.0" y="79.0" width="-4.0" height="12.0" class="space" style="fill:none;stroke:blue;stroke-width:0.5;"/>
    <rect x="821.0" y="79.0" width="-4.0" height="12.0" class="space" style="fill:none;stroke:blue;stroke-width:0.5;"/>
    <rect x="821.0" y="79.0" width="-4.0" height="12.0" class="space" style="fill:none;stroke:blue;stroke-width:0.5;"/>
    <rect x="821.0" y="79.0" width="-4.0" height="12.0" class="space" style="fill:none;stroke:blue;stroke-width:0.5;"/>
    <rect x="821.0" y="79.0" width="-4.0" height="12.0" class="space" style="fill:none;stroke:blue;stroke-width:0.5;"/>
    <rect x="821.0" y="79.0" width="-3.0" height="12.0" class="space" style="fill:none;stroke:blue;stroke-width:0.5;"/>
    <rect x="822.0" y="79.0" width="-4.0" height="12.0" class="space" style="fill:none;stroke:blue;stroke-width:0.5;"/>
    <rect x="822.0" y="79.0" width="-4.0" height="12.0" class="space" style="fill:none;stroke:blue;stroke-width:0.5;"/>
    <rect x="822.0" y="79.0" width="-4.0" height="12.0" class="space" style="fill:none;stroke:blue;stroke-width:0.5;"/>
    <rect x="822.0" y="79.0" width="-4.0" height="12.0" class="space" style="fill:none;stroke:blue;stroke-width:0.5;"/>
    <rect x="822.0" y="79.0" width="-4.0" height="12.0" class="space" style="fill:none;stroke:blue;stroke-width:0.5;"/>
    <rect x="822.0" y="79.0" width="-4.0" height="12.0" class="space" style="fill:none;stroke:blue;stroke-width:0.5;"/>
    <rect x="822.0" y="79.0" width="-4.0" height="12.0" class="space" style="fill:none;stroke:blue;stroke-width:0.5;"/>
    <rect x="822.0" y="79.0" width="-4.0" height="12.0" class="space" style="fill:none;stroke:blue;stroke-width:0.5;"/>
    <rect x="822.0" y="79.0" width="-4.0" height="12.0" class="space" style="fill:none;stroke:blue;stroke-width:0.5;"/>
    <rect x="822.0" y="79.0" width="-3.0" height="12.0" class="space" style="fill:none;stroke:blue;stroke-width:0.5;"/>
    <rect x="823.0" y="79.0" width="-4.0" height="12.0" class="space" style="fill:none;stroke:blue;stroke-width:0.5;"/>
    <rect x="823.0" y="79.0" width="-4.0" height="12.0" class="space" style="fill:none;stroke:blue;stroke-width:0.5;"/>
    <rect x="823.0" y="79.0" width="-4.0" height="12.0" class="space" style="fill:none;stroke:blue;stroke-width:0.5;"/>
    <rect x="823.0" y="79.0" width="-4.0" height="12.0" class="space" style="fill:none;stroke:blue;stroke-width:0.5;"/>
    <rect x="823.0" y="79.0" width="-4.0" height="12.0" class="space" style="fill:none;stroke:blue;stroke-width:0.5;"/>
    <rect x="823.0" y="79.0" width="-4.0" height="12.0" class="space" style="fill:none;stroke:blue;stroke-width:0.5;"/>
    <rect x="823.0" y="79.0" width="-4.0" height="12.0" class="space" style="fill:none;stroke:blue;stroke-width:0.5;"/>
    <rect x="823.0" y="79.0" width="-4.0" height="12.0" class="space" style="fill:none;stroke:blue;stroke-width:0.5;"/>
    <rect x="823.0" y="79.0" width="-4.0" height="12.0" class="space" style="fill:none;stroke:blue;stroke-width:0.5;"/>
    <rect x="823.0" y="79.0" width="-4.0" height="12.0" class="space" style="fill:none;stroke:blue;stroke-width:0.5;"/>
    <rect x="823.0" y="79.0" width="-4.0" height="12.0" class="space" style="fill:none;stroke:blue;stroke-width:0.5;"/>
    <rect x="823.0" y="79.0" width="-4.0" height="12.0" class="space" style="fill:none;stroke:blue;stroke-width:0.5;"/>
    <rect x="823.0" y="79.0" width="-4.0" height="12.0" class="space" style="fill:none;stroke:blue;stroke-width:0.5;"/>
    <rect x="823.0" y="79.0" width="-4.0" height="12.0" class="space" style="fill:none;stroke:blue;stroke-width:0.5;"/>
    <rect x="823.0" y="79.0" width="-3.0" height="12.0" class="space" style="fill:none;stroke:blue;stroke-width:0.5;"/>
    <g>
     <rect x="821.0" y="79.0" width="10.0" height="12.0" class="text" style="fill:none;stroke:red;stroke-width:0.5;"/>
     <text x="821.0" y="91.0" achars="O,0" style="fill:black;font-family:helvetica;font-size:10.0px;">O</text>
    </g>
    <g>
     <rect x="833.0" y="79.0" width="10.0" height="12.0" class="text" style="fill:none;stroke:red;stroke-width:0.5;"/>
     <text x="833.0" y="91.0" achars="R" style="fill:black;font-family:helvetica;font-size:10.0px;">R</text>
    </g>
    <rect x="844.0" y="79.0" width="3.0" height="15.0" class="space" style="fill:none;stroke:blue;stroke-width:0.5;"/>
    <g>
     <rect x="848.0" y="79.0" width="5.0" height="15.0" class="text" style="fill:none;stroke:red;stroke-width:0.5;"/>
     <text x="848.0" y="94.0" achars="(,C" style="fill:black;font-family:helvetica;font-size:10.0px;">(</text>
    </g>
    <g>
     <rect x="853.0" y="79.0" width="9.0" height="12.0" class="text" style="fill:none;stroke:red;stroke-width:0.5;"/>
     <text x="853.0" y="91.0" achars="9,g,Q,0" style="fill:black;font-family:helvetica;font-size:10.0px;">9</text>
    </g>
    <g>
     <rect x="862.0" y="79.0" width="8.0" height="12.0" class="text" style="fill:none;stroke:red;stroke-width:0.5;"/>
     <text x="862.0" y="91.0" achars="5,S" style="fill:black;font-family:helvetica;font-size:10.0px;">5</text>
    </g>
    <g>
     <rect x="871.0" y="79.0" width="6.0" height="6.0" class="text" style="fill:none;stroke:red;stroke-width:0.5;"/>
     <text x="871.0" y="85.0" achars="0,&quot;,&gt;" style="fill:black;font-family:helvetica;font-size:10.0px;">0</text>
    </g>
    <g>
     <rect x="874.0" y="79.0" width="11.0" height="12.0" class="text" style="fill:none;stroke:red;stroke-width:0.5;"/>
     <text x="874.0" y="91.0" achars="t4" style="fill:black;font-family:helvetica;font-size:10.0px;">t</text>
    </g>
    <rect x="886.0" y="79.0" width="3.0" height="12.0" class="space" style="fill:none;stroke:blue;stroke-width:0.5;"/>
    <g>
     <rect x="890.0" y="79.0" width="10.0" height="12.0" class="text" style="fill:none;stroke:red;stroke-width:0.5;"/>
     <text x="890.0" y="91.0" achars="C" style="fill:black;font-family:helvetica;font-size:10.0px;">C</text>
    </g>
    <g>
     <rect x="901.0" y="79.0" width="2.0" height="12.0" class="text" style="fill:none;stroke:red;stroke-width:0.5;"/>
     <text x="901.0" y="91.0" achars="l,I,|,1" style="fill:black;font-family:helvetica;font-size:10.0px;">l</text>
    </g>
    <g>
     <rect x="904.0" y="79.0" width="5.0" height="15.0" class="text" style="fill:none;stroke:red;stroke-width:0.5;"/>
     <text x="904.0" y="94.0" achars="),},J" style="fill:black;font-family:helvetica;font-size:10.0px;">)</text>
    </g>
    <rect x="910.0" y="79.0" width="7.0" height="12.0" class="space" style="fill:none;stroke:blue;stroke-width:0.5;"/>
    <rect x="927.0" y="79.0" width="5.0" height="12.0" class="space" style="fill:none;stroke:blue;stroke-width:0.5;"/>
    <rect x="944.0" y="79.0" width="1.0" height="12.0" class="space" style="fill:none;stroke:blue;stroke-width:0.5;"/>
    <rect x="952.0" y="79.0" width="-1.0" height="12.0" class="space" style="fill:none;stroke:blue;stroke-width:0.5;"/>
    <g>
     <rect x="952.0" y="79.0" width="24.0" height="12.0" class="text" style="fill:none;stroke:red;stroke-width:0.5;"/>
     <text x="952.0" y="91.0" achars="iiA,iiq,iiĄ,iUi" style="fill:black;font-family:helvetica;font-size:10.0px;">i</text>
    </g>
    <rect x="977.0" y="79.0" width="9.0" height="12.0" class="space" style="fill:none;stroke:blue;stroke-width:0.5;"/>
    <rect x="997.0" y="79.0" width="7.0" height="12.0" class="space" style="fill:none;stroke:blue;stroke-width:0.5;"/>
    <rect x="1017.0" y="79.0" width="2.0" height="12.0" class="space" style="fill:none;stroke:blue;stroke-width:0.5;"/>
    <rect x="1026.0" y="79.0" width="-1.0" height="12.0" class="space" style="fill:none;stroke:blue;stroke-width:0.5;"/>
    <g>
     <rect x="1026.0" y="79.0" width="9.0" height="12.0" class="text" style="fill:none;stroke:red;stroke-width:0.5;"/>
     <text x="1026.0" y="91.0" achars="C" style="fill:black;font-family:helvetica;font-size:10.0px;">C</text>
    </g>
    <g>
     <rect x="1036.0" y="82.0" width="7.0" height="9.0" class="text" style="fill:none;stroke:red;stroke-width:0.5;"/>
     <text x="1036.0" y="91.0" achars="c" style="fill:black;font-family:helvetica;font-size:10.0px;">c</text>
    </g>
    <g>
     <rect x="1045.0" y="82.0" width="7.0" height="9.0" class="text" style="fill:none;stroke:red;stroke-width:0.5;"/>
     <text x="1045.0" y="91.0" achars="n" style="fill:black;font-family:helvetica;font-size:10.0px;">n</text>
    </g>
    <g>
     <rect x="1053.0" y="79.0" width="4.0" height="12.0" class="text" style="fill:none;stroke:red;stroke-width:0.5;"/>
     <text x="1053.0" y="91.0" achars="t,f" style="fill:black;font-family:helvetica;font-size:10.0px;">t</text>
    </g>
    <g>
     <rect x="1058.0" y="82.0" width="6.0" height="9.0" class="text" style="fill:none;stroke:red;stroke-width:0.5;"/>
     <text x="1058.0" y="91.0" achars="r" style="fill:black;font-family:helvetica;font-size:10.0px;">r</text>
    </g>
    <g>
     <rect x="1064.0" y="82.0" width="8.0" height="9.0" class="text" style="fill:none;stroke:red;stroke-width:0.5;"/>
     <text x="1064.0" y="91.0" achars="o,O,0,D" style="fill:black;font-family:helvetica;font-size:10.0px;">o</text>
    </g>
    <g>
     <rect x="1073.0" y="79.0" width="2.0" height="12.0" class="text" style="fill:none;stroke:red;stroke-width:0.5;"/>
     <text x="1073.0" y="91.0" achars="1,l,I" style="fill:black;font-family:helvetica;font-size:10.0px;">1</text>
    </g>
    <g>
     <rect x="1076.0" y="82.0" width="8.0" height="9.0" class="text" style="fill:none;stroke:red;stroke-width:0.5;"/>
     <text x="1076.0" y="91.0" achars="s" style="fill:black;font-family:helvetica;font-size:10.0px;">s</text>
    </g>
    <rect x="1085.0" y="79.0" width="9.0" height="15.0" class="space" style="fill:none;stroke:blue;stroke-width:0.5;"/>
    <rect x="1105.0" y="79.0" width="7.0" height="15.0" class="space" style="fill:none;stroke:blue;stroke-width:0.5;"/>
    <rect x="1125.0" y="79.0" width="2.0" height="15.0" class="space" style="fill:none;stroke:blue;stroke-width:0.5;"/>
    <rect x="1134.0" y="79.0" width="-1.0" height="15.0" class="space" style="fill:none;stroke:blue;stroke-width:0.5;"/>
    <g>
     <rect x="1134.0" y="79.0" width="5.0" height="15.0" class="text" style="fill:none;stroke:red;stroke-width:0.5;"/>
     <text x="1134.0" y="94.0" achars="(,C" style="fill:black;font-family:helvetica;font-size:10.0px;">(</text>
    </g>
    <g>
     <rect x="1140.0" y="79.0" width="9.0" height="12.0" class="text" style="fill:none;stroke:red;stroke-width:0.5;"/>
     <text x="1140.0" y="91.0" achars="D" style="fill:black;font-family:helvetica;font-size:10.0px;">D</text>
    </g>
    <g>
     <rect x="1150.0" y="82.0" width="8.0" height="7.0" class="text" style="fill:none;stroke:red;stroke-width:0.5;"/>
     <text x="1150.0" y="89.0" achars="+" style="fill:black;font-family:helvetica;font-size:10.0px;">+</text>
    </g>
    <g>
     <rect x="1159.0" y="79.0" width="8.0" height="12.0" class="text" style="fill:none;stroke:red;stroke-width:0.5;"/>
     <text x="1159.0" y="91.0" achars="L" style="fill:black;font-family:helvetica;font-size:10.0px;">L</text>
    </g>
    <g>
     <rect x="1168.0" y="79.0" width="5.0" height="15.0" class="text" style="fill:none;stroke:red;stroke-width:0.5;"/>
     <text x="1168.0" y="94.0" achars=")" style="fill:black;font-family:helvetica;font-size:10.0px;">)</text>
    </g>
   </g>
  </g>
 </g>
</svg>
