<?xml version="1.0" encoding="UTF-8"?>
<svg height="966.0" width="1427.0" xmlns="http://www.w3.org/2000/svg">
 <g>
  <g class="horizontallines">
   <line x1="8.0" y1="2.0" x2="1417.0" y2="2.0" style="stroke:red;stroke-width:1.0;"/>
   <line x1="44.0" y1="289.0" x2="1384.0" y2="289.0" style="stroke:red;stroke-width:2.0;"/>
   <line x1="44.0" y1="857.0" x2="1384.0" y2="857.0" style="stroke:red;stroke-width:2.0;"/>
   <line x1="48.0" y1="861.0" x2="487.0" y2="861.0" style="stroke:red;stroke-width:1.0;"/>
   <line x1="495.0" y1="861.0" x2="566.0" y2="861.0" style="stroke:red;stroke-width:1.0;"/>
   <line x1="583.0" y1="861.0" x2="687.0" y2="861.0" style="stroke:red;stroke-width:1.0;"/>
   <line x1="696.0" y1="861.0" x2="887.0" y2="861.0" style="stroke:red;stroke-width:1.0;"/>
   <line x1="897.0" y1="861.0" x2="1382.0" y2="861.0" style="stroke:red;stroke-width:1.0;"/>
   <line x1="1.0" y1="956.0" x2="1417.0" y2="956.0" style="stroke:red;stroke-width:1.0;"/>
  </g>
  <g class="verticallines">
   <line x1="2.0" y1="8.0" x2="2.0" y2="951.0" style="stroke:blue;stroke-width:1.0;"/>
   <line x1="41.0" y1="56.0" x2="41.0" y2="288.0" style="stroke:blue;stroke-width:2.0;"/>
   <line x1="41.0" y1="296.0" x2="41.0" y2="856.0" style="stroke:blue;stroke-width:2.0;"/>
   <line x1="692.0" y1="289.0" x2="692.0" y2="871.0" style="stroke:blue;stroke-width:3.0;"/>
   <line x1="1386.0" y1="56.0" x2="1386.0" y2="287.0" style="stroke:blue;stroke-width:1.0;"/>
   <line x1="1386.0" y1="289.0" x2="1386.0" y2="854.0" style="stroke:blue;stroke-width:1.0;"/>
   <line x1="1417.0" y1="6.0" x2="1417.0" y2="953.0" style="stroke:blue;stroke-width:1.0;"/>
  </g>
 </g>
</svg>
