<?xml version="1.0" encoding="UTF-8"?>
<svg height="145.0" width="1192.0" xmlns="http://www.w3.org/2000/svg">
 <g class="page">
  <g class="block">
   <g class="line">
    <rect x="1182.0" y="55.0" width="-93.0" height="7.0" class="space" style="fill:none;stroke:blue;stroke-width:0.5;"/>
    <rect x="1090.0" y="55.0" width="-4.0" height="7.0" class="space" style="fill:none;stroke:blue;stroke-width:0.5;"/>
    <rect x="1087.0" y="55.0" width="-4.0" height="7.0" class="space" style="fill:none;stroke:blue;stroke-width:0.5;"/>
    <rect x="1084.0" y="55.0" width="-4.0" height="7.0" class="space" style="fill:none;stroke:blue;stroke-width:0.5;"/>
    <rect x="1081.0" y="55.0" width="-4.0" height="7.0" class="space" style="fill:none;stroke:blue;stroke-width:0.5;"/>
    <rect x="1078.0" y="55.0" width="-4.0" height="7.0" class="space" style="fill:none;stroke:blue;stroke-width:0.5;"/>
    <rect x="1076.0" y="55.0" width="-4.0" height="7.0" class="space" style="fill:none;stroke:blue;stroke-width:0.5;"/>
    <rect x="1074.0" y="55.0" width="-4.0" height="7.0" class="space" style="fill:none;stroke:blue;stroke-width:0.5;"/>
    <rect x="1072.0" y="55.0" width="-3.0" height="7.0" class="space" style="fill:none;stroke:blue;stroke-width:0.5;"/>
    <rect x="1072.0" y="55.0" width="-4.0" height="7.0" class="space" style="fill:none;stroke:blue;stroke-width:0.5;"/>
    <rect x="1071.0" y="55.0" width="-4.0" height="7.0" class="space" style="fill:none;stroke:blue;stroke-width:0.5;"/>
    <rect x="1070.0" y="55.0" width="-3.0" height="7.0" class="space" style="fill:none;stroke:blue;stroke-width:0.5;"/>
    <rect x="1071.0" y="55.0" width="-4.0" height="7.0" class="space" style="fill:none;stroke:blue;stroke-width:0.5;"/>
    <rect x="1071.0" y="55.0" width="-4.0" height="7.0" class="space" style="fill:none;stroke:blue;stroke-width:0.5;"/>
    <rect x="1071.0" y="55.0" width="-4.0" height="7.0" class="space" style="fill:none;stroke:blue;stroke-width:0.5;"/>
    <rect x="1071.0" y="55.0" width="-3.0" height="7.0" class="space" style="fill:none;stroke:blue;stroke-width:0.5;"/>
    <rect x="1072.0" y="55.0" width="-3.0" height="7.0" class="space" style="fill:none;stroke:blue;stroke-width:0.5;"/>
    <rect x="1073.0" y="55.0" width="-3.0" height="7.0" class="space" style="fill:none;stroke:blue;stroke-width:0.5;"/>
    <rect x="1075.0" y="55.0" width="-4.0" height="7.0" class="space" style="fill:none;stroke:blue;stroke-width:0.5;"/>
    <rect x="1076.0" y="55.0" width="-4.0" height="7.0" class="space" style="fill:none;stroke:blue;stroke-width:0.5;"/>
    <rect x="1077.0" y="55.0" width="-4.0" height="7.0" class="space" style="fill:none;stroke:blue;stroke-width:0.5;"/>
    <rect x="1078.0" y="55.0" width="-4.0" height="7.0" class="space" style="fill:none;stroke:blue;stroke-width:0.5;"/>
    <rect x="1079.0" y="55.0" width="-4.0" height="7.0" class="space" style="fill:none;stroke:blue;stroke-width:0.5;"/>
    <rect x="1079.0" y="55.0" width="-3.0" height="7.0" class="space" style="fill:none;stroke:blue;stroke-width:0.5;"/>
    <rect x="1080.0" y="55.0" width="-3.0" height="7.0" class="space" style="fill:none;stroke:blue;stroke-width:0.5;"/>
    <rect x="1081.0" y="55.0" width="-4.0" height="7.0" class="space" style="fill:none;stroke:blue;stroke-width:0.5;"/>
    <rect x="1081.0" y="55.0" width="-3.0" height="7.0" class="space" style="fill:none;stroke:blue;stroke-width:0.5;"/>
    <rect x="1082.0" y="55.0" width="-4.0" height="7.0" class="space" style="fill:none;stroke:blue;stroke-width:0.5;"/>
    <rect x="1082.0" y="55.0" width="-3.0" height="7.0" class="space" style="fill:none;stroke:blue;stroke-width:0.5;"/>
    <rect x="1083.0" y="55.0" width="-4.0" height="7.0" class="space" style="fill:none;stroke:blue;stroke-width:0.5;"/>
    <rect x="1083.0" y="55.0" width="-3.0" height="7.0" class="space" style="fill:none;stroke:blue;stroke-width:0.5;"/>
    <rect x="1084.0" y="55.0" width="-4.0" height="7.0" class="space" style="fill:none;stroke:blue;stroke-width:0.5;"/>
    <rect x="1084.0" y="55.0" width="-3.0" height="7.0" class="space" style="fill:none;stroke:blue;stroke-width:0.5;"/>
    <rect x="1085.0" y="55.0" width="-4.0" height="7.0" class="space" style="fill:none;stroke:blue;stroke-width:0.5;"/>
    <rect x="1085.0" y="55.0" width="-4.0" height="7.0" class="space" style="fill:none;stroke:blue;stroke-width:0.5;"/>
    <rect x="1085.0" y="55.0" width="-3.0" height="7.0" class="space" style="fill:none;stroke:blue;stroke-width:0.5;"/>
    <rect x="1086.0" y="55.0" width="-4.0" height="7.0" class="space" style="fill:none;stroke:blue;stroke-width:0.5;"/>
    <rect x="1086.0" y="55.0" width="-4.0" height="7.0" class="space" style="fill:none;stroke:blue;stroke-width:0.5;"/>
    <rect x="1086.0" y="55.0" width="-4.0" height="7.0" class="space" style="fill:none;stroke:blue;stroke-width:0.5;"/>
    <rect x="1086.0" y="55.0" width="-3.0" height="7.0" class="space" style="fill:none;stroke:blue;stroke-width:0.5;"/>
    <rect x="1087.0" y="55.0" width="-4.0" height="7.0" class="space" style="fill:none;stroke:blue;stroke-width:0.5;"/>
    <rect x="1087.0" y="55.0" width="-4.0" height="7.0" class="space" style="fill:none;stroke:blue;stroke-width:0.5;"/>
    <rect x="1087.0" y="55.0" width="-4.0" height="7.0" class="space" style="fill:none;stroke:blue;stroke-width:0.5;"/>
    <rect x="1087.0" y="55.0" width="-3.0" height="7.0" class="space" style="fill:none;stroke:blue;stroke-width:0.5;"/>
    <rect x="1088.0" y="55.0" width="-4.0" height="7.0" class="space" style="fill:none;stroke:blue;stroke-width:0.5;"/>
    <rect x="1088.0" y="55.0" width="-4.0" height="7.0" class="space" style="fill:none;stroke:blue;stroke-width:0.5;"/>
    <rect x="1088.0" y="55.0" width="-4.0" height="7.0" class="space" style="fill:none;stroke:blue;stroke-width:0.5;"/>
    <rect x="1088.0" y="55.0" width="-4.0" height="7.0" class="space" style="fill:none;stroke:blue;stroke-width:0.5;"/>
    <rect x="1088.0" y="55.0" width="-4.0" height="7.0" class="space" style="fill:none;stroke:blue;stroke-width:0.5;"/>
    <rect x="1088.0" y="55.0" width="-3.0" height="7.0" class="space" style="fill:none;stroke:blue;stroke-width:0.5;"/>
    <rect x="1089.0" y="55.0" width="-4.0" height="7.0" class="space" style="fill:none;stroke:blue;stroke-width:0.5;"/>
    <rect x="1089.0" y="55.0" width="-4.0" height="7.0" class="space" style="fill:none;stroke:blue;stroke-width:0.5;"/>
    <rect x="1089.0" y="55.0" width="-4.0" height="7.0" class="space" style="fill:none;stroke:blue;stroke-width:0.5;"/>
    <rect x="1089.0" y="55.0" width="-4.0" height="7.0" class="space" style="fill:none;stroke:blue;stroke-width:0.5;"/>
    <rect x="1089.0" y="55.0" width="-4.0" height="7.0" class="space" style="fill:none;stroke:blue;stroke-width:0.5;"/>
    <rect x="1089.0" y="55.0" width="-4.0" height="7.0" class="space" style="fill:none;stroke:blue;stroke-width:0.5;"/>
    <rect x="1089.0" y="55.0" width="-3.0" height="7.0" class="space" style="fill:none;stroke:blue;stroke-width:0.5;"/>
    <rect x="1090.0" y="55.0" width="-4.0" height="7.0" class="space" style="fill:none;stroke:blue;stroke-width:0.5;"/>
    <rect x="1090.0" y="55.0" width="-4.0" height="7.0" class="space" style="fill:none;stroke:blue;stroke-width:0.5;"/>
    <rect x="1090.0" y="55.0" width="-4.0" height="7.0" class="space" style="fill:none;stroke:blue;stroke-width:0.5;"/>
    <rect x="1090.0" y="55.0" width="-4.0" height="7.0" class="space" style="fill:none;stroke:blue;stroke-width:0.5;"/>
    <rect x="1090.0" y="55.0" width="-4.0" height="7.0" class="space" style="fill:none;stroke:blue;stroke-width:0.5;"/>
    <rect x="1090.0" y="55.0" width="-4.0" height="7.0" class="space" style="fill:none;stroke:blue;stroke-width:0.5;"/>
    <rect x="1090.0" y="55.0" width="-4.0" height="7.0" class="space" style="fill:none;stroke:blue;stroke-width:0.5;"/>
    <rect x="1090.0" y="55.0" width="-4.0" height="7.0" class="space" style="fill:none;stroke:blue;stroke-width:0.5;"/>
    <rect x="1090.0" y="55.0" width="-3.0" height="7.0" class="space" style="fill:none;stroke:blue;stroke-width:0.5;"/>
    <rect x="1091.0" y="55.0" width="-4.0" height="7.0" class="space" style="fill:none;stroke:blue;stroke-width:0.5;"/>
    <rect x="1091.0" y="55.0" width="-4.0" height="7.0" class="space" style="fill:none;stroke:blue;stroke-width:0.5;"/>
    <rect x="1091.0" y="55.0" width="-4.0" height="7.0" class="space" style="fill:none;stroke:blue;stroke-width:0.5;"/>
    <rect x="1091.0" y="55.0" width="-4.0" height="7.0" class="space" style="fill:none;stroke:blue;stroke-width:0.5;"/>
    <rect x="1091.0" y="55.0" width="-4.0" height="7.0" class="space" style="fill:none;stroke:blue;stroke-width:0.5;"/>
    <rect x="1091.0" y="55.0" width="-4.0" height="7.0" class="space" style="fill:none;stroke:blue;stroke-width:0.5;"/>
    <rect x="1091.0" y="55.0" width="-4.0" height="7.0" class="space" style="fill:none;stroke:blue;stroke-width:0.5;"/>
    <rect x="1091.0" y="55.0" width="-4.0" height="7.0" class="space" style="fill:none;stroke:blue;stroke-width:0.5;"/>
    <rect x="1091.0" y="55.0" width="-4.0" height="7.0" class="space" style="fill:none;stroke:blue;stroke-width:0.5;"/>
    <rect x="1091.0" y="55.0" width="-4.0" height="7.0" class="space" style="fill:none;stroke:blue;stroke-width:0.5;"/>
    <rect x="1091.0" y="55.0" width="-4.0" height="7.0" class="space" style="fill:none;stroke:blue;stroke-width:0.5;"/>
    <rect x="1091.0" y="55.0" width="-4.0" height="7.0" class="space" style="fill:none;stroke:blue;stroke-width:0.5;"/>
    <rect x="1091.0" y="55.0" width="-4.0" height="7.0" class="space" style="fill:none;stroke:blue;stroke-width:0.5;"/>
    <rect x="1091.0" y="55.0" width="-3.0" height="7.0" class="space" style="fill:none;stroke:blue;stroke-width:0.5;"/>
    <rect x="1092.0" y="55.0" width="-4.0" height="7.0" class="space" style="fill:none;stroke:blue;stroke-width:0.5;"/>
    <rect x="1092.0" y="55.0" width="-4.0" height="7.0" class="space" style="fill:none;stroke:blue;stroke-width:0.5;"/>
    <rect x="1092.0" y="55.0" width="-4.0" height="7.0" class="space" style="fill:none;stroke:blue;stroke-width:0.5;"/>
    <rect x="1092.0" y="55.0" width="-4.0" height="7.0" class="space" style="fill:none;stroke:blue;stroke-width:0.5;"/>
    <rect x="1092.0" y="55.0" width="-4.0" height="7.0" class="space" style="fill:none;stroke:blue;stroke-width:0.5;"/>
    <rect x="1092.0" y="55.0" width="-4.0" height="7.0" class="space" style="fill:none;stroke:blue;stroke-width:0.5;"/>
    <rect x="1092.0" y="55.0" width="-4.0" height="7.0" class="space" style="fill:none;stroke:blue;stroke-width:0.5;"/>
    <rect x="1092.0" y="55.0" width="-4.0" height="7.0" class="space" style="fill:none;stroke:blue;stroke-width:0.5;"/>
    <rect x="1092.0" y="55.0" width="-4.0" height="7.0" class="space" style="fill:none;stroke:blue;stroke-width:0.5;"/>
    <rect x="1092.0" y="55.0" width="-4.0" height="7.0" class="space" style="fill:none;stroke:blue;stroke-width:0.5;"/>
    <rect x="1092.0" y="55.0" width="-4.0" height="7.0" class="space" style="fill:none;stroke:blue;stroke-width:0.5;"/>
    <rect x="1092.0" y="55.0" width="-4.0" height="7.0" class="space" style="fill:none;stroke:blue;stroke-width:0.5;"/>
    <rect x="1092.0" y="55.0" width="-4.0" height="7.0" class="space" style="fill:none;stroke:blue;stroke-width:0.5;"/>
    <rect x="1092.0" y="55.0" width="-4.0" height="7.0" class="space" style="fill:none;stroke:blue;stroke-width:0.5;"/>
    <rect x="1092.0" y="55.0" width="-4.0" height="7.0" class="space" style="fill:none;stroke:blue;stroke-width:0.5;"/>
    <rect x="1092.0" y="55.0" width="-4.0" height="7.0" class="space" style="fill:none;stroke:blue;stroke-width:0.5;"/>
    <rect x="1092.0" y="55.0" width="-4.0" height="7.0" class="space" style="fill:none;stroke:blue;stroke-width:0.5;"/>
    <rect x="1092.0" y="55.0" width="-4.0" height="7.0" class="space" style="fill:none;stroke:blue;stroke-width:0.5;"/>
    <rect x="1092.0" y="55.0" width="-3.0" height="7.0" class="space" style="fill:none;stroke:blue;stroke-width:0.5;"/>
    <rect x="1090.0" y="55.0" width="6.0" height="7.0" class="space" style="fill:none;stroke:blue;stroke-width:0.5;"/>
    <g>
     <rect x="1090.0" y="55.0" width="6.0" height="7.0" class="text" style="fill:none;stroke:red;stroke-width:0.5;"/>
     <text x="1090.0" y="62.0" achars="o,0,4" style="fill:black;font-family:helvetica;font-size:10.0px;">o</text>
    </g>
    <g>
     <rect x="1093.0" y="56.0" width="8.0" height="11.0" class="text" style="fill:none;stroke:red;stroke-width:0.5;"/>
     <text x="1093.0" y="67.0" achars="/,l,I" style="fill:black;font-family:helvetica;font-size:10.0px;">/</text>
    </g>
    <g>
     <rect x="1098.0" y="61.0" width="5.0" height="6.0" class="text" style="fill:none;stroke:red;stroke-width:0.5;"/>
     <text x="1098.0" y="67.0" achars="o,0" style="fill:black;font-family:helvetica;font-size:10.0px;">o</text>
    </g>
   </g>
   <g class="line">
    <rect x="41.0" y="88.0" width="9.0" height="12.0" class="space" style="fill:none;stroke:blue;stroke-width:0.5;"/>
    <g>
     <rect x="41.0" y="88.0" width="9.0" height="12.0" class="text" style="fill:none;stroke:red;stroke-width:0.5;"/>
     <text x="41.0" y="100.0" achars="S,5" style="fill:black;font-family:helvetica;font-size:10.0px;">S</text>
    </g>
    <g>
     <rect x="50.0" y="88.0" width="4.0" height="12.0" class="text" style="fill:none;stroke:red;stroke-width:0.5;"/>
     <text x="50.0" y="100.0" achars="t,f" style="fill:black;font-family:helvetica;font-size:10.0px;">t</text>
    </g>
    <g>
     <rect x="56.0" y="91.0" width="6.0" height="9.0" class="text" style="fill:none;stroke:red;stroke-width:0.5;"/>
     <text x="56.0" y="100.0" achars="u" style="fill:black;font-family:helvetica;font-size:10.0px;">u</text>
    </g>
    <g>
     <rect x="64.0" y="88.0" width="7.0" height="12.0" class="text" style="fill:none;stroke:red;stroke-width:0.5;"/>
     <text x="64.0" y="100.0" achars="d" style="fill:black;font-family:helvetica;font-size:10.0px;">d</text>
    </g>
    <g>
     <rect x="72.0" y="91.0" width="8.0" height="12.0" class="text" style="fill:none;stroke:red;stroke-width:0.5;"/>
     <text x="72.0" y="103.0" achars="y" style="fill:black;font-family:helvetica;font-size:10.0px;">y</text>
    </g>
    <rect x="81.0" y="88.0" width="6.0" height="12.0" class="space" style="fill:none;stroke:blue;stroke-width:0.5;"/>
    <rect x="98.0" y="88.0" width="6.0" height="12.0" class="space" style="fill:none;stroke:blue;stroke-width:0.5;"/>
    <rect x="125.0" y="88.0" width="6.0" height="12.0" class="space" style="fill:none;stroke:blue;stroke-width:0.5;"/>
    <rect x="161.0" y="88.0" width="6.0" height="12.0" class="space" style="fill:none;stroke:blue;stroke-width:0.5;"/>
    <rect x="205.0" y="88.0" width="6.0" height="12.0" class="space" style="fill:none;stroke:blue;stroke-width:0.5;"/>
    <rect x="256.0" y="88.0" width="5.0" height="12.0" class="space" style="fill:none;stroke:blue;stroke-width:0.5;"/>
    <rect x="311.0" y="88.0" width="5.0" height="12.0" class="space" style="fill:none;stroke:blue;stroke-width:0.5;"/>
    <rect x="370.0" y="88.0" width="3.0" height="12.0" class="space" style="fill:none;stroke:blue;stroke-width:0.5;"/>
    <rect x="429.0" y="88.0" width="3.0" height="12.0" class="space" style="fill:none;stroke:blue;stroke-width:0.5;"/>
    <rect x="488.0" y="88.0" width="2.0" height="12.0" class="space" style="fill:none;stroke:blue;stroke-width:0.5;"/>
    <rect x="545.0" y="88.0" width="1.0" height="12.0" class="space" style="fill:none;stroke:blue;stroke-width:0.5;"/>
    <rect x="599.0" y="88.0" width="0.0" height="12.0" class="space" style="fill:none;stroke:blue;stroke-width:0.5;"/>
    <rect x="648.0" y="88.0" width="0.0" height="12.0" class="space" style="fill:none;stroke:blue;stroke-width:0.5;"/>
    <rect x="694.0" y="88.0" width="-1.0" height="12.0" class="space" style="fill:none;stroke:blue;stroke-width:0.5;"/>
    <rect x="734.0" y="88.0" width="-1.0" height="12.0" class="space" style="fill:none;stroke:blue;stroke-width:0.5;"/>
    <rect x="770.0" y="88.0" width="-2.0" height="12.0" class="space" style="fill:none;stroke:blue;stroke-width:0.5;"/>
    <rect x="800.0" y="88.0" width="-2.0" height="12.0" class="space" style="fill:none;stroke:blue;stroke-width:0.5;"/>
    <rect x="825.0" y="88.0" width="-2.0" height="12.0" class="space" style="fill:none;stroke:blue;stroke-width:0.5;"/>
    <rect x="846.0" y="88.0" width="-2.0" height="12.0" class="space" style="fill:none;stroke:blue;stroke-width:0.5;"/>
    <rect x="864.0" y="88.0" width="-3.0" height="12.0" class="space" style="fill:none;stroke:blue;stroke-width:0.5;"/>
    <rect x="878.0" y="88.0" width="-4.0" height="12.0" class="space" style="fill:none;stroke:blue;stroke-width:0.5;"/>
    <rect x="888.0" y="88.0" width="-3.0" height="12.0" class="space" style="fill:none;stroke:blue;stroke-width:0.5;"/>
    <rect x="897.0" y="88.0" width="-4.0" height="12.0" class="space" style="fill:none;stroke:blue;stroke-width:0.5;"/>
    <rect x="903.0" y="88.0" width="-4.0" height="12.0" class="space" style="fill:none;stroke:blue;stroke-width:0.5;"/>
    <rect x="907.0" y="88.0" width="-3.0" height="12.0" class="space" style="fill:none;stroke:blue;stroke-width:0.5;"/>
    <rect x="911.0" y="88.0" width="-4.0" height="12.0" class="space" style="fill:none;stroke:blue;stroke-width:0.5;"/>
    <rect x="913.0" y="88.0" width="-3.0" height="12.0" class="space" style="fill:none;stroke:blue;stroke-width:0.5;"/>
    <rect x="916.0" y="88.0" width="-4.0" height="12.0" class="space" style="fill:none;stroke:blue;stroke-width:0.5;"/>
    <rect x="917.0" y="88.0" width="-4.0" height="12.0" class="space" style="fill:none;stroke:blue;stroke-width:0.5;"/>
    <rect x="918.0" y="88.0" width="-4.0" height="12.0" class="space" style="fill:none;stroke:blue;stroke-width:0.5;"/>
    <rect x="919.0" y="88.0" width="-4.0" height="12.0" class="space" style="fill:none;stroke:blue;stroke-width:0.5;"/>
    <rect x="919.0" y="88.0" width="-3.0" height="12.0" class="space" style="fill:none;stroke:blue;stroke-width:0.5;"/>
    <rect x="920.0" y="88.0" width="-4.0" height="12.0" class="space" style="fill:none;stroke:blue;stroke-width:0.5;"/>
    <rect x="920.0" y="88.0" width="-4.0" height="12.0" class="space" style="fill:none;stroke:blue;stroke-width:0.5;"/>
    <rect x="920.0" y="88.0" width="-4.0" height="12.0" class="space" style="fill:none;stroke:blue;stroke-width:0.5;"/>
    <rect x="920.0" y="88.0" width="-3.0" height="12.0" class="space" style="fill:none;stroke:blue;stroke-width:0.5;"/>
    <rect x="921.0" y="88.0" width="-4.0" height="12.0" class="space" style="fill:none;stroke:blue;stroke-width:0.5;"/>
    <rect x="921.0" y="88.0" width="-4.0" height="12.0" class="space" style="fill:none;stroke:blue;stroke-width:0.5;"/>
    <rect x="921.0" y="88.0" width="-4.0" height="12.0" class="space" style="fill:none;stroke:blue;stroke-width:0.5;"/>
    <rect x="921.0" y="88.0" width="-3.0" height="12.0" class="space" style="fill:none;stroke:blue;stroke-width:0.5;"/>
    <rect x="922.0" y="88.0" width="-4.0" height="12.0" class="space" style="fill:none;stroke:blue;stroke-width:0.5;"/>
    <rect x="922.0" y="88.0" width="-4.0" height="12.0" class="space" style="fill:none;stroke:blue;stroke-width:0.5;"/>
    <rect x="922.0" y="88.0" width="-4.0" height="12.0" class="space" style="fill:none;stroke:blue;stroke-width:0.5;"/>
    <rect x="922.0" y="88.0" width="-4.0" height="12.0" class="space" style="fill:none;stroke:blue;stroke-width:0.5;"/>
    <rect x="922.0" y="88.0" width="-4.0" height="12.0" class="space" style="fill:none;stroke:blue;stroke-width:0.5;"/>
    <rect x="922.0" y="88.0" width="-3.0" height="12.0" class="space" style="fill:none;stroke:blue;stroke-width:0.5;"/>
    <rect x="923.0" y="88.0" width="-4.0" height="12.0" class="space" style="fill:none;stroke:blue;stroke-width:0.5;"/>
    <rect x="923.0" y="88.0" width="-4.0" height="12.0" class="space" style="fill:none;stroke:blue;stroke-width:0.5;"/>
    <rect x="923.0" y="88.0" width="-4.0" height="12.0" class="space" style="fill:none;stroke:blue;stroke-width:0.5;"/>
    <rect x="923.0" y="88.0" width="-4.0" height="12.0" class="space" style="fill:none;stroke:blue;stroke-width:0.5;"/>
    <rect x="923.0" y="88.0" width="-4.0" height="12.0" class="space" style="fill:none;stroke:blue;stroke-width:0.5;"/>
    <rect x="923.0" y="88.0" width="-4.0" height="12.0" class="space" style="fill:none;stroke:blue;stroke-width:0.5;"/>
    <rect x="923.0" y="88.0" width="-4.0" height="12.0" class="space" style="fill:none;stroke:blue;stroke-width:0.5;"/>
    <rect x="923.0" y="88.0" width="-3.0" height="12.0" class="space" style="fill:none;stroke:blue;stroke-width:0.5;"/>
    <rect x="924.0" y="88.0" width="-4.0" height="12.0" class="space" style="fill:none;stroke:blue;stroke-width:0.5;"/>
    <rect x="924.0" y="88.0" width="-4.0" height="12.0" class="space" style="fill:none;stroke:blue;stroke-width:0.5;"/>
    <rect x="924.0" y="88.0" width="-4.0" height="12.0" class="space" style="fill:none;stroke:blue;stroke-width:0.5;"/>
    <rect x="924.0" y="88.0" width="-4.0" height="12.0" class="space" style="fill:none;stroke:blue;stroke-width:0.5;"/>
    <rect x="924.0" y="88.0" width="-4.0" height="12.0" class="space" style="fill:none;stroke:blue;stroke-width:0.5;"/>
    <rect x="924.0" y="88.0" width="-4.0" height="12.0" class="space" style="fill:none;stroke:blue;stroke-width:0.5;"/>
    <rect x="924.0" y="88.0" width="-4.0" height="12.0" class="space" style="fill:none;stroke:blue;stroke-width:0.5;"/>
    <rect x="924.0" y="88.0" width="-4.0" height="12.0" class="space" style="fill:none;stroke:blue;stroke-width:0.5;"/>
    <rect x="924.0" y="88.0" width="-4.0" height="12.0" class="space" style="fill:none;stroke:blue;stroke-width:0.5;"/>
    <rect x="924.0" y="88.0" width="-3.0" height="12.0" class="space" style="fill:none;stroke:blue;stroke-width:0.5;"/>
    <rect x="925.0" y="88.0" width="-4.0" height="12.0" class="space" style="fill:none;stroke:blue;stroke-width:0.5;"/>
    <rect x="925.0" y="88.0" width="-4.0" height="12.0" class="space" style="fill:none;stroke:blue;stroke-width:0.5;"/>
    <rect x="925.0" y="88.0" width="-4.0" height="12.0" class="space" style="fill:none;stroke:blue;stroke-width:0.5;"/>
    <rect x="925.0" y="88.0" width="-4.0" height="12.0" class="space" style="fill:none;stroke:blue;stroke-width:0.5;"/>
    <rect x="925.0" y="88.0" width="-4.0" height="12.0" class="space" style="fill:none;stroke:blue;stroke-width:0.5;"/>
    <rect x="925.0" y="88.0" width="-4.0" height="12.0" class="space" style="fill:none;stroke:blue;stroke-width:0.5;"/>
    <rect x="925.0" y="88.0" width="-4.0" height="12.0" class="space" style="fill:none;stroke:blue;stroke-width:0.5;"/>
    <rect x="925.0" y="88.0" width="-4.0" height="12.0" class="space" style="fill:none;stroke:blue;stroke-width:0.5;"/>
    <rect x="925.0" y="88.0" width="-4.0" height="12.0" class="space" style="fill:none;stroke:blue;stroke-width:0.5;"/>
    <rect x="925.0" y="88.0" width="-4.0" height="12.0" class="space" style="fill:none;stroke:blue;stroke-width:0.5;"/>
    <rect x="925.0" y="88.0" width="-4.0" height="12.0" class="space" style="fill:none;stroke:blue;stroke-width:0.5;"/>
    <rect x="925.0" y="88.0" width="-4.0" height="12.0" class="space" style="fill:none;stroke:blue;stroke-width:0.5;"/>
    <rect x="925.0" y="88.0" width="-4.0" height="12.0" class="space" style="fill:none;stroke:blue;stroke-width:0.5;"/>
    <rect x="925.0" y="88.0" width="-4.0" height="12.0" class="space" style="fill:none;stroke:blue;stroke-width:0.5;"/>
    <rect x="925.0" y="88.0" width="-4.0" height="12.0" class="space" style="fill:none;stroke:blue;stroke-width:0.5;"/>
    <rect x="925.0" y="88.0" width="-3.0" height="12.0" class="space" style="fill:none;stroke:blue;stroke-width:0.5;"/>
    <g>
     <rect x="923.0" y="88.0" width="7.0" height="12.0" class="text" style="fill:none;stroke:red;stroke-width:0.5;"/>
     <text x="923.0" y="100.0" achars="E" style="fill:black;font-family:helvetica;font-size:10.0px;">E</text>
    </g>
    <g>
     <rect x="931.0" y="91.0" width="8.0" height="9.0" class="text" style="fill:none;stroke:red;stroke-width:0.5;"/>
     <text x="931.0" y="100.0" achars="v,y" style="fill:black;font-family:helvetica;font-size:10.0px;">v</text>
    </g>
    <g>
     <rect x="940.0" y="90.0" width="7.0" height="10.0" class="text" style="fill:none;stroke:red;stroke-width:0.5;"/>
     <text x="940.0" y="100.0" achars="e,g,6,i" style="fill:black;font-family:helvetica;font-size:10.0px;">e</text>
    </g>
    <g>
     <rect x="948.0" y="90.0" width="7.0" height="10.0" class="text" style="fill:none;stroke:red;stroke-width:0.5;"/>
     <text x="948.0" y="100.0" achars="n" style="fill:black;font-family:helvetica;font-size:10.0px;">n</text>
    </g>
    <g>
     <rect x="956.0" y="88.0" width="4.0" height="12.0" class="text" style="fill:none;stroke:red;stroke-width:0.5;"/>
     <text x="956.0" y="100.0" achars="t,f" style="fill:black;font-family:helvetica;font-size:10.0px;">t</text>
    </g>
    <g>
     <rect x="961.0" y="90.0" width="8.0" height="10.0" class="text" style="fill:none;stroke:red;stroke-width:0.5;"/>
     <text x="961.0" y="100.0" achars="g" style="fill:black;font-family:helvetica;font-size:10.0px;">g</text>
    </g>
    <g>
     <rect x="970.0" y="98.0" width="2.0" height="4.0" class="text" style="fill:none;stroke:red;stroke-width:0.5;"/>
     <text x="970.0" y="102.0" achars=".,§" style="fill:black;font-family:helvetica;font-size:10.0px;">.</text>
    </g>
    <rect x="973.0" y="88.0" width="7.0" height="12.0" class="space" style="fill:none;stroke:blue;stroke-width:0.5;"/>
    <rect x="988.0" y="88.0" width="4.0" height="12.0" class="space" style="fill:none;stroke:blue;stroke-width:0.5;"/>
    <g>
     <rect x="993.0" y="88.0" width="7.0" height="12.0" class="text" style="fill:none;stroke:red;stroke-width:0.5;"/>
     <text x="993.0" y="100.0" achars="E,f" style="fill:black;font-family:helvetica;font-size:10.0px;">E</text>
    </g>
    <g>
     <rect x="1002.0" y="91.0" width="5.0" height="9.0" class="text" style="fill:none;stroke:red;stroke-width:0.5;"/>
     <text x="1002.0" y="100.0" achars="1" style="fill:black;font-family:helvetica;font-size:10.0px;">1</text>
    </g>
    <g>
     <rect x="1006.0" y="91.0" width="3.0" height="5.0" class="text" style="fill:none;stroke:red;stroke-width:0.5;"/>
     <text x="1006.0" y="96.0" achars="1" style="fill:black;font-family:helvetica;font-size:10.0px;">1</text>
    </g>
    <g>
     <rect x="1010.0" y="90.0" width="7.0" height="10.0" class="text" style="fill:none;stroke:red;stroke-width:0.5;"/>
     <text x="1010.0" y="100.0" achars="e" style="fill:black;font-family:helvetica;font-size:10.0px;">e</text>
    </g>
    <g>
     <rect x="1019.0" y="90.0" width="7.0" height="9.0" class="text" style="fill:none;stroke:red;stroke-width:0.5;"/>
     <text x="1019.0" y="99.0" achars="n" style="fill:black;font-family:helvetica;font-size:10.0px;">n</text>
    </g>
    <g>
     <rect x="1026.0" y="88.0" width="5.0" height="12.0" class="text" style="fill:none;stroke:red;stroke-width:0.5;"/>
     <text x="1026.0" y="100.0" achars="t" style="fill:black;font-family:helvetica;font-size:10.0px;">t</text>
    </g>
    <g>
     <rect x="1032.0" y="90.0" width="7.0" height="10.0" class="text" style="fill:none;stroke:red;stroke-width:0.5;"/>
     <text x="1032.0" y="100.0" achars="$" style="fill:black;font-family:helvetica;font-size:10.0px;">$</text>
    </g>
    <g>
     <rect x="1040.0" y="98.0" width="2.0" height="4.0" class="text" style="fill:none;stroke:red;stroke-width:0.5;"/>
     <text x="1040.0" y="102.0" achars="," style="fill:black;font-family:helvetica;font-size:10.0px;">,</text>
    </g>
    <rect x="1043.0" y="88.0" width="8.0" height="12.0" class="space" style="fill:none;stroke:blue;stroke-width:0.5;"/>
    <rect x="1062.0" y="88.0" width="6.0" height="12.0" class="space" style="fill:none;stroke:blue;stroke-width:0.5;"/>
    <rect x="1081.0" y="88.0" width="2.0" height="12.0" class="space" style="fill:none;stroke:blue;stroke-width:0.5;"/>
    <rect x="1090.0" y="88.0" width="-1.0" height="12.0" class="space" style="fill:none;stroke:blue;stroke-width:0.5;"/>
    <g>
     <rect x="1090.0" y="88.0" width="8.0" height="12.0" class="text" style="fill:none;stroke:red;stroke-width:0.5;"/>
     <text x="1090.0" y="100.0" achars="v,y" style="fill:black;font-family:helvetica;font-size:10.0px;">v</text>
    </g>
    <g>
     <rect x="1098.0" y="88.0" width="6.0" height="11.0" class="text" style="fill:none;stroke:red;stroke-width:0.5;"/>
     <text x="1098.0" y="99.0" achars="J" style="fill:black;font-family:helvetica;font-size:10.0px;">J</text>
    </g>
    <g>
     <rect x="1104.0" y="90.0" width="8.0" height="10.0" class="text" style="fill:none;stroke:red;stroke-width:0.5;"/>
     <text x="1104.0" y="100.0" achars="e" style="fill:black;font-family:helvetica;font-size:10.0px;">e</text>
    </g>
    <g>
     <rect x="1113.0" y="88.0" width="2.0" height="11.0" class="text" style="fill:none;stroke:red;stroke-width:0.5;"/>
     <text x="1113.0" y="99.0" achars="i,;" style="fill:black;font-family:helvetica;font-size:10.0px;">i</text>
    </g>
    <g>
     <rect x="1116.0" y="90.0" width="7.0" height="12.0" class="text" style="fill:none;stroke:red;stroke-width:0.5;"/>
     <text x="1116.0" y="102.0" achars="ç" style="fill:black;font-family:helvetica;font-size:10.0px;">ç</text>
    </g>
    <g>
     <rect x="1124.0" y="88.0" width="7.0" height="12.0" class="text" style="fill:none;stroke:red;stroke-width:0.5;"/>
     <text x="1124.0" y="100.0" achars="h" style="fill:black;font-family:helvetica;font-size:10.0px;">h</text>
    </g>
    <g>
     <rect x="1132.0" y="88.0" width="4.0" height="12.0" class="text" style="fill:none;stroke:red;stroke-width:0.5;"/>
     <text x="1132.0" y="100.0" achars="f,t" style="fill:black;font-family:helvetica;font-size:10.0px;">f</text>
    </g>
   </g>
   <g class="line">
    <rect x="41.0" y="120.0" width="2.0" height="12.0" class="space" style="fill:none;stroke:blue;stroke-width:0.5;"/>
    <g>
     <rect x="41.0" y="120.0" width="2.0" height="12.0" class="text" style="fill:none;stroke:red;stroke-width:0.5;"/>
     <text x="41.0" y="132.0" achars="l,I,|,1" style="fill:black;font-family:helvetica;font-size:10.0px;">l</text>
    </g>
    <g>
     <rect x="44.0" y="120.0" width="9.0" height="12.0" class="text" style="fill:none;stroke:red;stroke-width:0.5;"/>
     <text x="44.0" y="132.0" achars="D" style="fill:black;font-family:helvetica;font-size:10.0px;">D</text>
    </g>
    <rect x="54.0" y="120.0" width="6.0" height="12.0" class="space" style="fill:none;stroke:blue;stroke-width:0.5;"/>
    <rect x="71.0" y="120.0" width="7.0" height="12.0" class="space" style="fill:none;stroke:blue;stroke-width:0.5;"/>
    <rect x="99.0" y="120.0" width="6.0" height="12.0" class="space" style="fill:none;stroke:blue;stroke-width:0.5;"/>
    <rect x="135.0" y="120.0" width="6.0" height="12.0" class="space" style="fill:none;stroke:blue;stroke-width:0.5;"/>
    <rect x="179.0" y="120.0" width="5.0" height="12.0" class="space" style="fill:none;stroke:blue;stroke-width:0.5;"/>
    <rect x="228.0" y="120.0" width="5.0" height="12.0" class="space" style="fill:none;stroke:blue;stroke-width:0.5;"/>
    <rect x="282.0" y="120.0" width="4.0" height="12.0" class="space" style="fill:none;stroke:blue;stroke-width:0.5;"/>
    <rect x="337.0" y="120.0" width="4.0" height="12.0" class="space" style="fill:none;stroke:blue;stroke-width:0.5;"/>
    <rect x="393.0" y="120.0" width="3.0" height="12.0" class="space" style="fill:none;stroke:blue;stroke-width:0.5;"/>
    <rect x="448.0" y="120.0" width="1.0" height="12.0" class="space" style="fill:none;stroke:blue;stroke-width:0.5;"/>
    <rect x="498.0" y="120.0" width="1.0" height="12.0" class="space" style="fill:none;stroke:blue;stroke-width:0.5;"/>
    <rect x="545.0" y="120.0" width="1.0" height="12.0" class="space" style="fill:none;stroke:blue;stroke-width:0.5;"/>
    <rect x="588.0" y="120.0" width="0.0" height="12.0" class="space" style="fill:none;stroke:blue;stroke-width:0.5;"/>
    <rect x="626.0" y="120.0" width="-1.0" height="12.0" class="space" style="fill:none;stroke:blue;stroke-width:0.5;"/>
    <rect x="658.0" y="120.0" width="-1.0" height="12.0" class="space" style="fill:none;stroke:blue;stroke-width:0.5;"/>
    <rect x="686.0" y="120.0" width="-2.0" height="12.0" class="space" style="fill:none;stroke:blue;stroke-width:0.5;"/>
    <rect x="708.0" y="120.0" width="-2.0" height="12.0" class="space" style="fill:none;stroke:blue;stroke-width:0.5;"/>
    <rect x="726.0" y="120.0" width="-2.0" height="12.0" class="space" style="fill:none;stroke:blue;stroke-width:0.5;"/>
    <rect x="741.0" y="120.0" width="-3.0" height="12.0" class="space" style="fill:none;stroke:blue;stroke-width:0.5;"/>
    <rect x="752.0" y="120.0" width="-3.0" height="12.0" class="space" style="fill:none;stroke:blue;stroke-width:0.5;"/>
    <rect x="761.0" y="120.0" width="-4.0" height="12.0" class="space" style="fill:none;stroke:blue;stroke-width:0.5;"/>
    <rect x="767.0" y="120.0" width="-4.0" height="12.0" class="space" style="fill:none;stroke:blue;stroke-width:0.5;"/>
    <rect x="771.0" y="120.0" width="-3.0" height="12.0" class="space" style="fill:none;stroke:blue;stroke-width:0.5;"/>
    <rect x="775.0" y="120.0" width="-4.0" height="12.0" class="space" style="fill:none;stroke:blue;stroke-width:0.5;"/>
    <rect x="777.0" y="120.0" width="-4.0" height="12.0" class="space" style="fill:none;stroke:blue;stroke-width:0.5;"/>
    <rect x="779.0" y="120.0" width="-4.0" height="12.0" class="space" style="fill:none;stroke:blue;stroke-width:0.5;"/>
    <rect x="780.0" y="120.0" width="-4.0" height="12.0" class="space" style="fill:none;stroke:blue;stroke-width:0.5;"/>
    <rect x="781.0" y="120.0" width="-4.0" height="12.0" class="space" style="fill:none;stroke:blue;stroke-width:0.5;"/>
    <rect x="782.0" y="120.0" width="-4.0" height="12.0" class="space" style="fill:none;stroke:blue;stroke-width:0.5;"/>
    <rect x="782.0" y="120.0" width="-4.0" height="12.0" class="space" style="fill:none;stroke:blue;stroke-width:0.5;"/>
    <rect x="782.0" y="120.0" width="-3.0" height="12.0" class="space" style="fill:none;stroke:blue;stroke-width:0.5;"/>
    <rect x="783.0" y="120.0" width="-4.0" height="12.0" class="space" style="fill:none;stroke:blue;stroke-width:0.5;"/>
    <rect x="783.0" y="120.0" width="-4.0" height="12.0" class="space" style="fill:none;stroke:blue;stroke-width:0.5;"/>
    <rect x="783.0" y="120.0" width="-4.0" height="12.0" class="space" style="fill:none;stroke:blue;stroke-width:0.5;"/>
    <rect x="783.0" y="120.0" width="-3.0" height="12.0" class="space" style="fill:none;stroke:blue;stroke-width:0.5;"/>
    <rect x="784.0" y="120.0" width="-4.0" height="12.0" class="space" style="fill:none;stroke:blue;stroke-width:0.5;"/>
    <rect x="784.0" y="120.0" width="-4.0" height="12.0" class="space" style="fill:none;stroke:blue;stroke-width:0.5;"/>
    <rect x="784.0" y="120.0" width="-4.0" height="12.0" class="space" style="fill:none;stroke:blue;stroke-width:0.5;"/>
    <rect x="784.0" y="120.0" width="-4.0" height="12.0" class="space" style="fill:none;stroke:blue;stroke-width:0.5;"/>
    <rect x="784.0" y="120.0" width="-3.0" height="12.0" class="space" style="fill:none;stroke:blue;stroke-width:0.5;"/>
    <rect x="785.0" y="120.0" width="-4.0" height="12.0" class="space" style="fill:none;stroke:blue;stroke-width:0.5;"/>
    <rect x="785.0" y="120.0" width="-4.0" height="12.0" class="space" style="fill:none;stroke:blue;stroke-width:0.5;"/>
    <rect x="785.0" y="120.0" width="-4.0" height="12.0" class="space" style="fill:none;stroke:blue;stroke-width:0.5;"/>
    <rect x="785.0" y="120.0" width="-4.0" height="12.0" class="space" style="fill:none;stroke:blue;stroke-width:0.5;"/>
    <rect x="785.0" y="120.0" width="-4.0" height="12.0" class="space" style="fill:none;stroke:blue;stroke-width:0.5;"/>
    <rect x="785.0" y="120.0" width="-3.0" height="12.0" class="space" style="fill:none;stroke:blue;stroke-width:0.5;"/>
    <rect x="786.0" y="120.0" width="-4.0" height="12.0" class="space" style="fill:none;stroke:blue;stroke-width:0.5;"/>
    <rect x="786.0" y="120.0" width="-4.0" height="12.0" class="space" style="fill:none;stroke:blue;stroke-width:0.5;"/>
    <rect x="786.0" y="120.0" width="-4.0" height="12.0" class="space" style="fill:none;stroke:blue;stroke-width:0.5;"/>
    <rect x="786.0" y="120.0" width="-4.0" height="12.0" class="space" style="fill:none;stroke:blue;stroke-width:0.5;"/>
    <rect x="786.0" y="120.0" width="-4.0" height="12.0" class="space" style="fill:none;stroke:blue;stroke-width:0.5;"/>
    <rect x="786.0" y="120.0" width="-4.0" height="12.0" class="space" style="fill:none;stroke:blue;stroke-width:0.5;"/>
    <rect x="786.0" y="120.0" width="-4.0" height="12.0" class="space" style="fill:none;stroke:blue;stroke-width:0.5;"/>
    <rect x="786.0" y="120.0" width="-4.0" height="12.0" class="space" style="fill:none;stroke:blue;stroke-width:0.5;"/>
    <rect x="786.0" y="120.0" width="-4.0" height="12.0" class="space" style="fill:none;stroke:blue;stroke-width:0.5;"/>
    <rect x="786.0" y="120.0" width="-3.0" height="12.0" class="space" style="fill:none;stroke:blue;stroke-width:0.5;"/>
    <rect x="787.0" y="120.0" width="-4.0" height="12.0" class="space" style="fill:none;stroke:blue;stroke-width:0.5;"/>
    <rect x="787.0" y="120.0" width="-4.0" height="12.0" class="space" style="fill:none;stroke:blue;stroke-width:0.5;"/>
    <rect x="787.0" y="120.0" width="-4.0" height="12.0" class="space" style="fill:none;stroke:blue;stroke-width:0.5;"/>
    <rect x="787.0" y="120.0" width="-4.0" height="12.0" class="space" style="fill:none;stroke:blue;stroke-width:0.5;"/>
    <rect x="787.0" y="120.0" width="-4.0" height="12.0" class="space" style="fill:none;stroke:blue;stroke-width:0.5;"/>
    <rect x="787.0" y="120.0" width="-4.0" height="12.0" class="space" style="fill:none;stroke:blue;stroke-width:0.5;"/>
    <rect x="787.0" y="120.0" width="-4.0" height="12.0" class="space" style="fill:none;stroke:blue;stroke-width:0.5;"/>
    <rect x="787.0" y="120.0" width="-4.0" height="12.0" class="space" style="fill:none;stroke:blue;stroke-width:0.5;"/>
    <rect x="787.0" y="120.0" width="-4.0" height="12.0" class="space" style="fill:none;stroke:blue;stroke-width:0.5;"/>
    <rect x="787.0" y="120.0" width="-4.0" height="12.0" class="space" style="fill:none;stroke:blue;stroke-width:0.5;"/>
    <rect x="787.0" y="120.0" width="-4.0" height="12.0" class="space" style="fill:none;stroke:blue;stroke-width:0.5;"/>
    <rect x="787.0" y="120.0" width="-4.0" height="12.0" class="space" style="fill:none;stroke:blue;stroke-width:0.5;"/>
    <rect x="787.0" y="120.0" width="-3.0" height="12.0" class="space" style="fill:none;stroke:blue;stroke-width:0.5;"/>
    <g>
     <rect x="785.0" y="120.0" width="10.0" height="12.0" class="text" style="fill:none;stroke:red;stroke-width:0.5;"/>
     <text x="785.0" y="132.0" achars="O,0" style="fill:black;font-family:helvetica;font-size:10.0px;">O</text>
    </g>
    <g>
     <rect x="796.0" y="120.0" width="10.0" height="12.0" class="text" style="fill:none;stroke:red;stroke-width:0.5;"/>
     <text x="796.0" y="132.0" achars="R" style="fill:black;font-family:helvetica;font-size:10.0px;">R</text>
    </g>
    <rect x="807.0" y="120.0" width="2.0" height="15.0" class="space" style="fill:none;stroke:blue;stroke-width:0.5;"/>
    <g>
     <rect x="810.0" y="120.0" width="5.0" height="15.0" class="text" style="fill:none;stroke:red;stroke-width:0.5;"/>
     <text x="810.0" y="135.0" achars="(" style="fill:black;font-family:helvetica;font-size:10.0px;">(</text>
    </g>
    <g>
     <rect x="816.0" y="120.0" width="8.0" height="12.0" class="text" style="fill:none;stroke:red;stroke-width:0.5;"/>
     <text x="816.0" y="132.0" achars="9,g" style="fill:black;font-family:helvetica;font-size:10.0px;">9</text>
    </g>
    <g>
     <rect x="825.0" y="120.0" width="7.0" height="12.0" class="text" style="fill:none;stroke:red;stroke-width:0.5;"/>
     <text x="825.0" y="132.0" achars="S" style="fill:black;font-family:helvetica;font-size:10.0px;">S</text>
    </g>
    <g>
     <rect x="833.0" y="120.0" width="13.0" height="12.0" class="text" style="fill:none;stroke:red;stroke-width:0.5;"/>
     <text x="833.0" y="132.0" achars="%" style="fill:black;font-family:helvetica;font-size:10.0px;">%</text>
    </g>
    <rect x="847.0" y="120.0" width="3.0" height="12.0" class="space" style="fill:none;stroke:blue;stroke-width:0.5;"/>
    <g>
     <rect x="851.0" y="120.0" width="9.0" height="12.0" class="text" style="fill:none;stroke:red;stroke-width:0.5;"/>
     <text x="851.0" y="132.0" achars="C" style="fill:black;font-family:helvetica;font-size:10.0px;">C</text>
    </g>
    <g>
     <rect x="861.0" y="120.0" width="3.0" height="12.0" class="text" style="fill:none;stroke:red;stroke-width:0.5;"/>
     <text x="861.0" y="132.0" achars="l,I" style="fill:black;font-family:helvetica;font-size:10.0px;">l</text>
    </g>
    <g>
     <rect x="864.0" y="120.0" width="5.0" height="15.0" class="text" style="fill:none;stroke:red;stroke-width:0.5;"/>
     <text x="864.0" y="135.0" achars=")" style="fill:black;font-family:helvetica;font-size:10.0px;">)</text>
    </g>
    <rect x="870.0" y="120.0" width="7.0" height="12.0" class="space" style="fill:none;stroke:blue;stroke-width:0.5;"/>
    <rect x="887.0" y="120.0" width="5.0" height="12.0" class="space" style="fill:none;stroke:blue;stroke-width:0.5;"/>
    <rect x="905.0" y="120.0" width="3.0" height="12.0" class="space" style="fill:none;stroke:blue;stroke-width:0.5;"/>
    <rect x="918.0" y="120.0" width="-1.0" height="12.0" class="space" style="fill:none;stroke:blue;stroke-width:0.5;"/>
    <rect x="923.0" y="120.0" width="-2.0" height="12.0" class="space" style="fill:none;stroke:blue;stroke-width:0.5;"/>
    <g>
     <rect x="922.0" y="120.0" width="23.0" height="12.0" class="text" style="fill:none;stroke:red;stroke-width:0.5;"/>
     <text x="922.0" y="132.0" achars="Ai,iiA,i%i,ibĄ" style="fill:black;font-family:helvetica;font-size:10.0px;">A</text>
    </g>
    <rect x="946.0" y="120.0" width="8.0" height="12.0" class="space" style="fill:none;stroke:blue;stroke-width:0.5;"/>
    <rect x="965.0" y="120.0" width="6.0" height="12.0" class="space" style="fill:none;stroke:blue;stroke-width:0.5;"/>
    <rect x="984.0" y="120.0" width="2.0" height="12.0" class="space" style="fill:none;stroke:blue;stroke-width:0.5;"/>
    <rect x="993.0" y="120.0" width="-1.0" height="12.0" class="space" style="fill:none;stroke:blue;stroke-width:0.5;"/>
    <g>
     <rect x="993.0" y="120.0" width="9.0" height="12.0" class="text" style="fill:none;stroke:red;stroke-width:0.5;"/>
     <text x="993.0" y="132.0" achars="c" style="fill:black;font-family:helvetica;font-size:10.0px;">c</text>
    </g>
    <g>
     <rect x="1003.0" y="123.0" width="7.0" height="9.0" class="text" style="fill:none;stroke:red;stroke-width:0.5;"/>
     <text x="1003.0" y="132.0" achars="o,0" style="fill:black;font-family:helvetica;font-size:10.0px;">o</text>
    </g>
    <g>
     <rect x="1012.0" y="123.0" width="6.0" height="9.0" class="text" style="fill:none;stroke:red;stroke-width:0.5;"/>
     <text x="1012.0" y="132.0" achars="n" style="fill:black;font-family:helvetica;font-size:10.0px;">n</text>
    </g>
    <g>
     <rect x="1020.0" y="120.0" width="3.0" height="12.0" class="text" style="fill:none;stroke:red;stroke-width:0.5;"/>
     <text x="1020.0" y="132.0" achars="t,l,f,I" style="fill:black;font-family:helvetica;font-size:10.0px;">t</text>
    </g>
    <g>
     <rect x="1024.0" y="123.0" width="5.0" height="9.0" class="text" style="fill:none;stroke:red;stroke-width:0.5;"/>
     <text x="1024.0" y="132.0" achars="r" style="fill:black;font-family:helvetica;font-size:10.0px;">r</text>
    </g>
    <g>
     <rect x="1030.0" y="123.0" width="7.0" height="9.0" class="text" style="fill:none;stroke:red;stroke-width:0.5;"/>
     <text x="1030.0" y="132.0" achars="0,D,Q" style="fill:black;font-family:helvetica;font-size:10.0px;">0</text>
    </g>
    <g>
     <rect x="1039.0" y="120.0" width="1.0" height="12.0" class="text" style="fill:none;stroke:red;stroke-width:0.5;"/>
     <text x="1039.0" y="132.0" achars="l,|,I,1" style="fill:black;font-family:helvetica;font-size:10.0px;">l</text>
    </g>
    <g>
     <rect x="1041.0" y="123.0" width="8.0" height="9.0" class="text" style="fill:none;stroke:red;stroke-width:0.5;"/>
     <text x="1041.0" y="132.0" achars="s,e" style="fill:black;font-family:helvetica;font-size:10.0px;">s</text>
    </g>
    <rect x="1050.0" y="120.0" width="10.0" height="15.0" class="space" style="fill:none;stroke:blue;stroke-width:0.5;"/>
    <rect x="1071.0" y="120.0" width="7.0" height="15.0" class="space" style="fill:none;stroke:blue;stroke-width:0.5;"/>
    <rect x="1088.0" y="120.0" width="1.0" height="15.0" class="space" style="fill:none;stroke:blue;stroke-width:0.5;"/>
    <g>
     <rect x="1090.0" y="120.0" width="5.0" height="15.0" class="text" style="fill:none;stroke:red;stroke-width:0.5;"/>
     <text x="1090.0" y="135.0" achars="(,c" style="fill:black;font-family:helvetica;font-size:10.0px;">(</text>
    </g>
    <g>
     <rect x="1096.0" y="120.0" width="9.0" height="12.0" class="text" style="fill:none;stroke:red;stroke-width:0.5;"/>
     <text x="1096.0" y="132.0" achars="D,0" style="fill:black;font-family:helvetica;font-size:10.0px;">D</text>
    </g>
    <g>
     <rect x="1106.0" y="123.0" width="7.0" height="7.0" class="text" style="fill:none;stroke:red;stroke-width:0.5;"/>
     <text x="1106.0" y="130.0" achars="„" style="fill:black;font-family:helvetica;font-size:10.0px;">„</text>
    </g>
    <g>
     <rect x="1114.0" y="120.0" width="8.0" height="12.0" class="text" style="fill:none;stroke:red;stroke-width:0.5;"/>
     <text x="1114.0" y="132.0" achars="L" style="fill:black;font-family:helvetica;font-size:10.0px;">L</text>
    </g>
    <g>
     <rect x="1123.0" y="120.0" width="4.0" height="14.0" class="text" style="fill:none;stroke:red;stroke-width:0.5;"/>
     <text x="1123.0" y="134.0" achars="),1" style="fill:black;font-family:helvetica;font-size:10.0px;">)</text>
    </g>
   </g>
  </g>
 </g>
</svg>
