<?xml version="1.0" encoding="UTF-8"?>
<svg height="586.0" width="419.0" xmlns="http://www.w3.org/2000/svg">
 <g class="page">
  <g class="block">
   <g class="line">
    <rect x="0.0" y="572.0" width="409.0" height="4.0" class="space" style="fill:none;stroke:blue;stroke-width:0.5;"/>
    <g>
     <rect x="0.0" y="572.0" width="409.0" height="4.0" class="text" style="fill:none;stroke:red;stroke-width:0.5;"/>
     <text x="0.0" y="576.0" achars="" style="fill:black;font-family:helvetica;font-size:10.0px;">?</text>
    </g>
   </g>
   <g class="line">
    <rect x="15.0" y="49.0" width="7.0" height="12.0" class="space" style="fill:none;stroke:blue;stroke-width:0.5;"/>
    <g>
     <rect x="15.0" y="49.0" width="7.0" height="12.0" class="text" style="fill:none;stroke:red;stroke-width:0.5;"/>
     <text x="15.0" y="61.0" achars="e" style="fill:black;font-family:helvetica;font-size:10.0px;">e</text>
    </g>
    <g>
     <rect x="24.0" y="59.0" width="2.0" height="2.0" class="text" style="fill:none;stroke:red;stroke-width:0.5;"/>
     <text x="24.0" y="61.0" achars=".,§" style="fill:black;font-family:helvetica;font-size:10.0px;">.</text>
    </g>
    <g>
     <rect x="27.0" y="49.0" width="8.0" height="12.0" class="text" style="fill:none;stroke:red;stroke-width:0.5;"/>
     <text x="27.0" y="61.0" achars="o,O,0" style="fill:black;font-family:helvetica;font-size:10.0px;">o</text>
    </g>
    <g>
     <rect x="36.0" y="49.0" width="8.0" height="12.0" class="text" style="fill:none;stroke:red;stroke-width:0.5;"/>
     <text x="36.0" y="61.0" achars="o,&gt;,O,0" style="fill:black;font-family:helvetica;font-size:10.0px;">o</text>
    </g>
    <g>
     <rect x="49.0" y="49.0" width="4.0" height="14.0" class="text" style="fill:none;stroke:red;stroke-width:0.5;"/>
     <text x="49.0" y="63.0" achars="(,c,f" style="fill:black;font-family:helvetica;font-size:10.0px;">(</text>
    </g>
    <g>
     <rect x="53.0" y="55.0" width="9.0" height="2.0" class="text" style="fill:none;stroke:red;stroke-width:0.5;"/>
     <text x="53.0" y="57.0" achars="-" style="fill:black;font-family:helvetica;font-size:10.0px;">-</text>
    </g>
    <g>
     <rect x="63.0" y="49.0" width="9.0" height="12.0" class="text" style="fill:none;stroke:red;stroke-width:0.5;"/>
     <text x="63.0" y="61.0" achars="q,4" style="fill:black;font-family:helvetica;font-size:10.0px;">q</text>
    </g>
    <g>
     <rect x="73.0" y="59.0" width="2.0" height="2.0" class="text" style="fill:none;stroke:red;stroke-width:0.5;"/>
     <text x="73.0" y="61.0" achars=".,§" style="fill:black;font-family:helvetica;font-size:10.0px;">.</text>
    </g>
    <g>
     <rect x="76.0" y="49.0" width="8.0" height="12.0" class="text" style="fill:none;stroke:red;stroke-width:0.5;"/>
     <text x="76.0" y="61.0" achars="7,J,1" style="fill:black;font-family:helvetica;font-size:10.0px;">7</text>
    </g>
    <g>
     <rect x="85.0" y="49.0" width="8.0" height="12.0" class="text" style="fill:none;stroke:red;stroke-width:0.5;"/>
     <text x="85.0" y="61.0" achars="9,g,e" style="fill:black;font-family:helvetica;font-size:10.0px;">9</text>
    </g>
    <g>
     <rect x="94.0" y="58.0" width="3.0" height="5.0" class="text" style="fill:none;stroke:red;stroke-width:0.5;"/>
     <text x="94.0" y="63.0" achars="," style="fill:black;font-family:helvetica;font-size:10.0px;">,</text>
    </g>
    <g>
     <rect x="101.0" y="49.0" width="8.0" height="12.0" class="text" style="fill:none;stroke:red;stroke-width:0.5;"/>
     <text x="101.0" y="61.0" achars="8" style="fill:black;font-family:helvetica;font-size:10.0px;">8</text>
    </g>
    <g>
     <rect x="110.0" y="59.0" width="3.0" height="2.0" class="text" style="fill:none;stroke:red;stroke-width:0.5;"/>
     <text x="110.0" y="61.0" achars=".,_" style="fill:black;font-family:helvetica;font-size:10.0px;">.</text>
    </g>
    <g>
     <rect x="114.0" y="49.0" width="8.0" height="12.0" class="text" style="fill:none;stroke:red;stroke-width:0.5;"/>
     <text x="114.0" y="61.0" achars="7,1" style="fill:black;font-family:helvetica;font-size:10.0px;">7</text>
    </g>
    <g>
     <rect x="123.0" y="49.0" width="8.0" height="12.0" class="text" style="fill:none;stroke:red;stroke-width:0.5;"/>
     <text x="123.0" y="61.0" achars="9,g,0" style="fill:black;font-family:helvetica;font-size:10.0px;">9</text>
    </g>
    <g>
     <rect x="131.0" y="48.0" width="4.0" height="15.0" class="text" style="fill:none;stroke:red;stroke-width:0.5;"/>
     <text x="131.0" y="63.0" achars="),}" style="fill:black;font-family:helvetica;font-size:10.0px;">)</text>
    </g>
    <rect x="136.0" y="49.0" width="4.0" height="12.0" class="space" style="fill:none;stroke:blue;stroke-width:0.5;"/>
    <rect x="149.0" y="49.0" width="4.0" height="12.0" class="space" style="fill:none;stroke:blue;stroke-width:0.5;"/>
    <rect x="168.0" y="49.0" width="4.0" height="12.0" class="space" style="fill:none;stroke:blue;stroke-width:0.5;"/>
    <rect x="191.0" y="49.0" width="3.0" height="12.0" class="space" style="fill:none;stroke:blue;stroke-width:0.5;"/>
    <rect x="214.0" y="49.0" width="1.0" height="12.0" class="space" style="fill:none;stroke:blue;stroke-width:0.5;"/>
    <rect x="233.0" y="49.0" width="0.0" height="12.0" class="space" style="fill:none;stroke:blue;stroke-width:0.5;"/>
    <rect x="248.0" y="49.0" width="-1.0" height="12.0" class="space" style="fill:none;stroke:blue;stroke-width:0.5;"/>
    <rect x="258.0" y="49.0" width="-2.0" height="12.0" class="space" style="fill:none;stroke:blue;stroke-width:0.5;"/>
    <rect x="265.0" y="49.0" width="-3.0" height="12.0" class="space" style="fill:none;stroke:blue;stroke-width:0.5;"/>
    <rect x="268.0" y="49.0" width="-3.0" height="12.0" class="space" style="fill:none;stroke:blue;stroke-width:0.5;"/>
    <rect x="270.0" y="49.0" width="-4.0" height="12.0" class="space" style="fill:none;stroke:blue;stroke-width:0.5;"/>
    <rect x="271.0" y="49.0" width="-4.0" height="12.0" class="space" style="fill:none;stroke:blue;stroke-width:0.5;"/>
    <rect x="271.0" y="49.0" width="-3.0" height="12.0" class="space" style="fill:none;stroke:blue;stroke-width:0.5;"/>
    <rect x="272.0" y="49.0" width="-4.0" height="12.0" class="space" style="fill:none;stroke:blue;stroke-width:0.5;"/>
    <rect x="272.0" y="49.0" width="-4.0" height="12.0" class="space" style="fill:none;stroke:blue;stroke-width:0.5;"/>
    <rect x="272.0" y="49.0" width="-3.0" height="12.0" class="space" style="fill:none;stroke:blue;stroke-width:0.5;"/>
    <g>
     <rect x="270.0" y="49.0" width="8.0" height="12.0" class="text" style="fill:none;stroke:red;stroke-width:0.5;"/>
     <text x="270.0" y="61.0" achars="9,g,e" style="fill:black;font-family:helvetica;font-size:10.0px;">9</text>
    </g>
    <g>
     <rect x="279.0" y="59.0" width="2.0" height="2.0" class="text" style="fill:none;stroke:red;stroke-width:0.5;"/>
     <text x="279.0" y="61.0" achars=".,§" style="fill:black;font-family:helvetica;font-size:10.0px;">.</text>
    </g>
    <g>
     <rect x="283.0" y="49.0" width="7.0" height="12.0" class="text" style="fill:none;stroke:red;stroke-width:0.5;"/>
     <text x="283.0" y="61.0" achars="s,5" style="fill:black;font-family:helvetica;font-size:10.0px;">s</text>
    </g>
    <g>
     <rect x="291.0" y="49.0" width="8.0" height="12.0" class="text" style="fill:none;stroke:red;stroke-width:0.5;"/>
     <text x="291.0" y="61.0" achars="6" style="fill:black;font-family:helvetica;font-size:10.0px;">6</text>
    </g>
   </g>
   <g class="line">
    <rect x="15.0" y="123.0" width="7.0" height="12.0" class="space" style="fill:none;stroke:blue;stroke-width:0.5;"/>
    <g>
     <rect x="15.0" y="123.0" width="7.0" height="12.0" class="text" style="fill:none;stroke:red;stroke-width:0.5;"/>
     <text x="15.0" y="135.0" achars="7,J,1" style="fill:black;font-family:helvetica;font-size:10.0px;">7</text>
    </g>
    <g>
     <rect x="24.0" y="132.0" width="2.0" height="3.0" class="text" style="fill:none;stroke:red;stroke-width:0.5;"/>
     <text x="24.0" y="135.0" achars=".,§" style="fill:black;font-family:helvetica;font-size:10.0px;">.</text>
    </g>
    <g>
     <rect x="27.0" y="123.0" width="8.0" height="12.0" class="text" style="fill:none;stroke:red;stroke-width:0.5;"/>
     <text x="27.0" y="135.0" achars="a,o,O,0" style="fill:black;font-family:helvetica;font-size:10.0px;">a</text>
    </g>
    <g>
     <rect x="36.0" y="123.0" width="8.0" height="12.0" class="text" style="fill:none;stroke:red;stroke-width:0.5;"/>
     <text x="36.0" y="135.0" achars="o,O,0" style="fill:black;font-family:helvetica;font-size:10.0px;">o</text>
    </g>
    <g>
     <rect x="49.0" y="122.0" width="4.0" height="15.0" class="text" style="fill:none;stroke:red;stroke-width:0.5;"/>
     <text x="49.0" y="137.0" achars="(,f,r,c,{" style="fill:black;font-family:helvetica;font-size:10.0px;">(</text>
    </g>
    <g>
     <rect x="53.0" y="123.0" width="8.0" height="12.0" class="text" style="fill:none;stroke:red;stroke-width:0.5;"/>
     <text x="53.0" y="135.0" achars="2,i" style="fill:black;font-family:helvetica;font-size:10.0px;">2</text>
    </g>
    <g>
     <rect x="62.0" y="132.0" width="3.0" height="3.0" class="text" style="fill:none;stroke:red;stroke-width:0.5;"/>
     <text x="62.0" y="135.0" achars=".,§" style="fill:black;font-family:helvetica;font-size:10.0px;">.</text>
    </g>
    <g>
     <rect x="67.0" y="123.0" width="4.0" height="12.0" class="text" style="fill:none;stroke:red;stroke-width:0.5;"/>
     <text x="67.0" y="135.0" achars="1" style="fill:black;font-family:helvetica;font-size:10.0px;">1</text>
    </g>
    <g>
     <rect x="75.0" y="123.0" width="8.0" height="12.0" class="text" style="fill:none;stroke:red;stroke-width:0.5;"/>
     <text x="75.0" y="135.0" achars="7,1" style="fill:black;font-family:helvetica;font-size:10.0px;">7</text>
    </g>
    <g>
     <rect x="83.0" y="132.0" width="3.0" height="5.0" class="text" style="fill:none;stroke:red;stroke-width:0.5;"/>
     <text x="83.0" y="137.0" achars="," style="fill:black;font-family:helvetica;font-size:10.0px;">,</text>
    </g>
    <g>
     <rect x="92.0" y="123.0" width="4.0" height="12.0" class="text" style="fill:none;stroke:red;stroke-width:0.5;"/>
     <text x="92.0" y="135.0" achars="1" style="fill:black;font-family:helvetica;font-size:10.0px;">1</text>
    </g>
    <g>
     <rect x="101.0" y="123.0" width="4.0" height="12.0" class="text" style="fill:none;stroke:red;stroke-width:0.5;"/>
     <text x="101.0" y="135.0" achars="1" style="fill:black;font-family:helvetica;font-size:10.0px;">1</text>
    </g>
    <g>
     <rect x="109.0" y="133.0" width="2.0" height="2.0" class="text" style="fill:none;stroke:red;stroke-width:0.5;"/>
     <text x="109.0" y="135.0" achars=".,§" style="fill:black;font-family:helvetica;font-size:10.0px;">.</text>
    </g>
    <g>
     <rect x="112.0" y="123.0" width="9.0" height="12.0" class="text" style="fill:none;stroke:red;stroke-width:0.5;"/>
     <text x="112.0" y="135.0" achars="8" style="fill:black;font-family:helvetica;font-size:10.0px;">8</text>
    </g>
    <g>
     <rect x="121.0" y="123.0" width="8.0" height="12.0" class="text" style="fill:none;stroke:red;stroke-width:0.5;"/>
     <text x="121.0" y="135.0" achars="3" style="fill:black;font-family:helvetica;font-size:10.0px;">3</text>
    </g>
    <g>
     <rect x="130.0" y="122.0" width="4.0" height="15.0" class="text" style="fill:none;stroke:red;stroke-width:0.5;"/>
     <text x="130.0" y="137.0" achars="),t,&gt;" style="fill:black;font-family:helvetica;font-size:10.0px;">)</text>
    </g>
    <rect x="135.0" y="123.0" width="6.0" height="12.0" class="space" style="fill:none;stroke:blue;stroke-width:0.5;"/>
    <rect x="152.0" y="123.0" width="6.0" height="12.0" class="space" style="fill:none;stroke:blue;stroke-width:0.5;"/>
    <rect x="176.0" y="123.0" width="5.0" height="12.0" class="space" style="fill:none;stroke:blue;stroke-width:0.5;"/>
    <rect x="203.0" y="123.0" width="3.0" height="12.0" class="space" style="fill:none;stroke:blue;stroke-width:0.5;"/>
    <rect x="227.0" y="123.0" width="1.0" height="12.0" class="space" style="fill:none;stroke:blue;stroke-width:0.5;"/>
    <rect x="246.0" y="123.0" width="-1.0" height="12.0" class="space" style="fill:none;stroke:blue;stroke-width:0.5;"/>
    <rect x="258.0" y="123.0" width="-1.0" height="12.0" class="space" style="fill:none;stroke:blue;stroke-width:0.5;"/>
    <rect x="266.0" y="123.0" width="-3.0" height="12.0" class="space" style="fill:none;stroke:blue;stroke-width:0.5;"/>
    <rect x="270.0" y="123.0" width="-4.0" height="12.0" class="space" style="fill:none;stroke:blue;stroke-width:0.5;"/>
    <rect x="271.0" y="123.0" width="-3.0" height="12.0" class="space" style="fill:none;stroke:blue;stroke-width:0.5;"/>
    <rect x="272.0" y="123.0" width="-3.0" height="12.0" class="space" style="fill:none;stroke:blue;stroke-width:0.5;"/>
    <rect x="273.0" y="123.0" width="-4.0" height="12.0" class="space" style="fill:none;stroke:blue;stroke-width:0.5;"/>
    <rect x="273.0" y="123.0" width="-3.0" height="12.0" class="space" style="fill:none;stroke:blue;stroke-width:0.5;"/>
    <g>
     <rect x="271.0" y="123.0" width="4.0" height="12.0" class="text" style="fill:none;stroke:red;stroke-width:0.5;"/>
     <text x="271.0" y="135.0" achars="1,J" style="fill:black;font-family:helvetica;font-size:10.0px;">1</text>
    </g>
    <g>
     <rect x="279.0" y="123.0" width="8.0" height="12.0" class="text" style="fill:none;stroke:red;stroke-width:0.5;"/>
     <text x="279.0" y="135.0" achars="8" style="fill:black;font-family:helvetica;font-size:10.0px;">8</text>
    </g>
    <g>
     <rect x="288.0" y="132.0" width="3.0" height="3.0" class="text" style="fill:none;stroke:red;stroke-width:0.5;"/>
     <text x="288.0" y="135.0" achars=".,§" style="fill:black;font-family:helvetica;font-size:10.0px;">.</text>
    </g>
    <g>
     <rect x="291.0" y="123.0" width="8.0" height="12.0" class="text" style="fill:none;stroke:red;stroke-width:0.5;"/>
     <text x="291.0" y="135.0" achars="9,g" style="fill:black;font-family:helvetica;font-size:10.0px;">9</text>
    </g>
    <g>
     <rect x="300.0" y="123.0" width="8.0" height="12.0" class="text" style="fill:none;stroke:red;stroke-width:0.5;"/>
     <text x="300.0" y="135.0" achars="o,O,0,a" style="fill:black;font-family:helvetica;font-size:10.0px;">o</text>
    </g>
   </g>
   <g class="line">
    <rect x="14.0" y="197.0" width="8.0" height="12.0" class="space" style="fill:none;stroke:blue;stroke-width:0.5;"/>
    <g>
     <rect x="14.0" y="197.0" width="8.0" height="12.0" class="text" style="fill:none;stroke:red;stroke-width:0.5;"/>
     <text x="14.0" y="209.0" achars="7" style="fill:black;font-family:helvetica;font-size:10.0px;">7</text>
    </g>
    <g>
     <rect x="24.0" y="207.0" width="2.0" height="2.0" class="text" style="fill:none;stroke:red;stroke-width:0.5;"/>
     <text x="24.0" y="209.0" achars=".,§" style="fill:black;font-family:helvetica;font-size:10.0px;">.</text>
    </g>
    <g>
     <rect x="27.0" y="197.0" width="8.0" height="12.0" class="text" style="fill:none;stroke:red;stroke-width:0.5;"/>
     <text x="27.0" y="209.0" achars="O,0,o" style="fill:black;font-family:helvetica;font-size:10.0px;">O</text>
    </g>
    <g>
     <rect x="36.0" y="197.0" width="8.0" height="12.0" class="text" style="fill:none;stroke:red;stroke-width:0.5;"/>
     <text x="36.0" y="209.0" achars="O,0,o" style="fill:black;font-family:helvetica;font-size:10.0px;">O</text>
    </g>
    <g>
     <rect x="49.0" y="197.0" width="4.0" height="14.0" class="text" style="fill:none;stroke:red;stroke-width:0.5;"/>
     <text x="49.0" y="211.0" achars="c,(,f" style="fill:black;font-family:helvetica;font-size:10.0px;">c</text>
    </g>
    <g>
     <rect x="53.0" y="197.0" width="8.0" height="12.0" class="text" style="fill:none;stroke:red;stroke-width:0.5;"/>
     <text x="53.0" y="209.0" achars="O,0,o" style="fill:black;font-family:helvetica;font-size:10.0px;">O</text>
    </g>
    <g>
     <rect x="62.0" y="207.0" width="3.0" height="2.0" class="text" style="fill:none;stroke:red;stroke-width:0.5;"/>
     <text x="62.0" y="209.0" achars=".,-" style="fill:black;font-family:helvetica;font-size:10.0px;">.</text>
    </g>
    <g>
     <rect x="65.0" y="197.0" width="9.0" height="12.0" class="text" style="fill:none;stroke:red;stroke-width:0.5;"/>
     <text x="65.0" y="209.0" achars="q,4" style="fill:black;font-family:helvetica;font-size:10.0px;">q</text>
    </g>
    <g>
     <rect x="75.0" y="197.0" width="8.0" height="13.0" class="text" style="fill:none;stroke:red;stroke-width:0.5;"/>
     <text x="75.0" y="210.0" achars="6" style="fill:black;font-family:helvetica;font-size:10.0px;">6</text>
    </g>
    <g>
     <rect x="83.0" y="207.0" width="3.0" height="4.0" class="text" style="fill:none;stroke:red;stroke-width:0.5;"/>
     <text x="83.0" y="211.0" achars="," style="fill:black;font-family:helvetica;font-size:10.0px;">,</text>
    </g>
    <g>
     <rect x="92.0" y="198.0" width="4.0" height="11.0" class="text" style="fill:none;stroke:red;stroke-width:0.5;"/>
     <text x="92.0" y="209.0" achars="1" style="fill:black;font-family:helvetica;font-size:10.0px;">1</text>
    </g>
    <g>
     <rect x="100.0" y="197.0" width="7.0" height="12.0" class="text" style="fill:none;stroke:red;stroke-width:0.5;"/>
     <text x="100.0" y="209.0" achars="3" style="fill:black;font-family:helvetica;font-size:10.0px;">3</text>
    </g>
    <g>
     <rect x="109.0" y="207.0" width="2.0" height="2.0" class="text" style="fill:none;stroke:red;stroke-width:0.5;"/>
     <text x="109.0" y="209.0" achars=".,§" style="fill:black;font-family:helvetica;font-size:10.0px;">.</text>
    </g>
    <g>
     <rect x="113.0" y="198.0" width="7.0" height="12.0" class="text" style="fill:none;stroke:red;stroke-width:0.5;"/>
     <text x="113.0" y="210.0" achars="s,5" style="fill:black;font-family:helvetica;font-size:10.0px;">s</text>
    </g>
    <g>
     <rect x="121.0" y="198.0" width="8.0" height="11.0" class="text" style="fill:none;stroke:red;stroke-width:0.5;"/>
     <text x="121.0" y="209.0" achars="9,q,4" style="fill:black;font-family:helvetica;font-size:10.0px;">9</text>
    </g>
    <g>
     <rect x="130.0" y="197.0" width="4.0" height="15.0" class="text" style="fill:none;stroke:red;stroke-width:0.5;"/>
     <text x="130.0" y="212.0" achars="),&gt;,}" style="fill:black;font-family:helvetica;font-size:10.0px;">)</text>
    </g>
    <rect x="135.0" y="197.0" width="5.0" height="12.0" class="space" style="fill:none;stroke:blue;stroke-width:0.5;"/>
    <rect x="149.0" y="197.0" width="5.0" height="12.0" class="space" style="fill:none;stroke:blue;stroke-width:0.5;"/>
    <rect x="170.0" y="197.0" width="4.0" height="12.0" class="space" style="fill:none;stroke:blue;stroke-width:0.5;"/>
    <rect x="194.0" y="197.0" width="3.0" height="12.0" class="space" style="fill:none;stroke:blue;stroke-width:0.5;"/>
    <rect x="218.0" y="197.0" width="1.0" height="12.0" class="space" style="fill:none;stroke:blue;stroke-width:0.5;"/>
    <rect x="238.0" y="197.0" width="-1.0" height="12.0" class="space" style="fill:none;stroke:blue;stroke-width:0.5;"/>
    <rect x="252.0" y="197.0" width="-2.0" height="12.0" class="space" style="fill:none;stroke:blue;stroke-width:0.5;"/>
    <rect x="261.0" y="197.0" width="-2.0" height="12.0" class="space" style="fill:none;stroke:blue;stroke-width:0.5;"/>
    <rect x="267.0" y="197.0" width="-3.0" height="12.0" class="space" style="fill:none;stroke:blue;stroke-width:0.5;"/>
    <rect x="270.0" y="197.0" width="-3.0" height="12.0" class="space" style="fill:none;stroke:blue;stroke-width:0.5;"/>
    <rect x="272.0" y="197.0" width="-4.0" height="12.0" class="space" style="fill:none;stroke:blue;stroke-width:0.5;"/>
    <rect x="272.0" y="197.0" width="-3.0" height="12.0" class="space" style="fill:none;stroke:blue;stroke-width:0.5;"/>
    <rect x="273.0" y="197.0" width="-4.0" height="12.0" class="space" style="fill:none;stroke:blue;stroke-width:0.5;"/>
    <rect x="273.0" y="197.0" width="-4.0" height="12.0" class="space" style="fill:none;stroke:blue;stroke-width:0.5;"/>
    <rect x="273.0" y="197.0" width="-3.0" height="12.0" class="space" style="fill:none;stroke:blue;stroke-width:0.5;"/>
    <g>
     <rect x="271.0" y="197.0" width="4.0" height="12.0" class="text" style="fill:none;stroke:red;stroke-width:0.5;"/>
     <text x="271.0" y="209.0" achars="1" style="fill:black;font-family:helvetica;font-size:10.0px;">1</text>
    </g>
    <g>
     <rect x="279.0" y="197.0" width="8.0" height="12.0" class="text" style="fill:none;stroke:red;stroke-width:0.5;"/>
     <text x="279.0" y="209.0" achars="O,0,o" style="fill:black;font-family:helvetica;font-size:10.0px;">O</text>
    </g>
    <g>
     <rect x="288.0" y="207.0" width="2.0" height="2.0" class="text" style="fill:none;stroke:red;stroke-width:0.5;"/>
     <text x="288.0" y="209.0" achars=".,§" style="fill:black;font-family:helvetica;font-size:10.0px;">.</text>
    </g>
    <g>
     <rect x="292.0" y="197.0" width="7.0" height="13.0" class="text" style="fill:none;stroke:red;stroke-width:0.5;"/>
     <text x="292.0" y="210.0" achars="3" style="fill:black;font-family:helvetica;font-size:10.0px;">3</text>
    </g>
    <g>
     <rect x="300.0" y="197.0" width="8.0" height="12.0" class="text" style="fill:none;stroke:red;stroke-width:0.5;"/>
     <text x="300.0" y="209.0" achars="O,0,o" style="fill:black;font-family:helvetica;font-size:10.0px;">O</text>
    </g>
   </g>
   <g class="line">
    <rect x="14.0" y="271.0" width="9.0" height="12.0" class="space" style="fill:none;stroke:blue;stroke-width:0.5;"/>
    <g>
     <rect x="14.0" y="271.0" width="9.0" height="12.0" class="text" style="fill:none;stroke:red;stroke-width:0.5;"/>
     <text x="14.0" y="283.0" achars="6" style="fill:black;font-family:helvetica;font-size:10.0px;">6</text>
    </g>
    <g>
     <rect x="24.0" y="281.0" width="2.0" height="2.0" class="text" style="fill:none;stroke:red;stroke-width:0.5;"/>
     <text x="24.0" y="283.0" achars=".,§" style="fill:black;font-family:helvetica;font-size:10.0px;">.</text>
    </g>
    <g>
     <rect x="27.0" y="271.0" width="8.0" height="12.0" class="text" style="fill:none;stroke:red;stroke-width:0.5;"/>
     <text x="27.0" y="283.0" achars="o,O,0" style="fill:black;font-family:helvetica;font-size:10.0px;">o</text>
    </g>
    <g>
     <rect x="36.0" y="271.0" width="8.0" height="12.0" class="text" style="fill:none;stroke:red;stroke-width:0.5;"/>
     <text x="36.0" y="283.0" achars="o,O,0,&gt;" style="fill:black;font-family:helvetica;font-size:10.0px;">o</text>
    </g>
    <g>
     <rect x="49.0" y="271.0" width="4.0" height="14.0" class="text" style="fill:none;stroke:red;stroke-width:0.5;"/>
     <text x="49.0" y="285.0" achars="(,c,f" style="fill:black;font-family:helvetica;font-size:10.0px;">(</text>
    </g>
    <g>
     <rect x="53.0" y="271.0" width="8.0" height="12.0" class="text" style="fill:none;stroke:red;stroke-width:0.5;"/>
     <text x="53.0" y="283.0" achars="e" style="fill:black;font-family:helvetica;font-size:10.0px;">e</text>
    </g>
    <g>
     <rect x="63.0" y="281.0" width="2.0" height="2.0" class="text" style="fill:none;stroke:red;stroke-width:0.5;"/>
     <text x="63.0" y="283.0" achars=".,§" style="fill:black;font-family:helvetica;font-size:10.0px;">.</text>
    </g>
    <g>
     <rect x="65.0" y="271.0" width="18.0" height="12.0" class="text" style="fill:none;stroke:red;stroke-width:0.5;"/>
     <text x="65.0" y="283.0" achars="" style="fill:black;font-family:helvetica;font-size:10.0px;">?</text>
    </g>
    <g>
     <rect x="83.0" y="280.0" width="3.0" height="5.0" class="text" style="fill:none;stroke:red;stroke-width:0.5;"/>
     <text x="83.0" y="285.0" achars=",§J" style="fill:black;font-family:helvetica;font-size:10.0px;">,</text>
    </g>
    <g>
     <rect x="91.0" y="271.0" width="8.0" height="12.0" class="text" style="fill:none;stroke:red;stroke-width:0.5;"/>
     <text x="91.0" y="283.0" achars="9,g" style="fill:black;font-family:helvetica;font-size:10.0px;">9</text>
    </g>
    <g>
     <rect x="100.0" y="281.0" width="2.0" height="2.0" class="text" style="fill:none;stroke:red;stroke-width:0.5;"/>
     <text x="100.0" y="283.0" achars=".,§" style="fill:black;font-family:helvetica;font-size:10.0px;">.</text>
    </g>
    <g>
     <rect x="104.0" y="271.0" width="7.0" height="12.0" class="text" style="fill:none;stroke:red;stroke-width:0.5;"/>
     <text x="104.0" y="283.0" achars="s" style="fill:black;font-family:helvetica;font-size:10.0px;">s</text>
    </g>
    <g>
     <rect x="112.0" y="271.0" width="8.0" height="12.0" class="text" style="fill:none;stroke:red;stroke-width:0.5;"/>
     <text x="112.0" y="283.0" achars="6" style="fill:black;font-family:helvetica;font-size:10.0px;">6</text>
    </g>
    <g>
     <rect x="121.0" y="271.0" width="4.0" height="14.0" class="text" style="fill:none;stroke:red;stroke-width:0.5;"/>
     <text x="121.0" y="285.0" achars="),&gt;,}" style="fill:black;font-family:helvetica;font-size:10.0px;">)</text>
    </g>
    <rect x="126.0" y="271.0" width="5.0" height="12.0" class="space" style="fill:none;stroke:blue;stroke-width:0.5;"/>
    <rect x="140.0" y="271.0" width="5.0" height="12.0" class="space" style="fill:none;stroke:blue;stroke-width:0.5;"/>
    <rect x="161.0" y="271.0" width="4.0" height="12.0" class="space" style="fill:none;stroke:blue;stroke-width:0.5;"/>
    <rect x="186.0" y="271.0" width="2.0" height="12.0" class="space" style="fill:none;stroke:blue;stroke-width:0.5;"/>
    <rect x="210.0" y="271.0" width="1.0" height="12.0" class="space" style="fill:none;stroke:blue;stroke-width:0.5;"/>
    <rect x="231.0" y="271.0" width="-1.0" height="12.0" class="space" style="fill:none;stroke:blue;stroke-width:0.5;"/>
    <rect x="246.0" y="271.0" width="-1.0" height="12.0" class="space" style="fill:none;stroke:blue;stroke-width:0.5;"/>
    <rect x="257.0" y="271.0" width="-2.0" height="12.0" class="space" style="fill:none;stroke:blue;stroke-width:0.5;"/>
    <rect x="264.0" y="271.0" width="-3.0" height="12.0" class="space" style="fill:none;stroke:blue;stroke-width:0.5;"/>
    <rect x="268.0" y="271.0" width="-4.0" height="12.0" class="space" style="fill:none;stroke:blue;stroke-width:0.5;"/>
    <rect x="270.0" y="271.0" width="-4.0" height="12.0" class="space" style="fill:none;stroke:blue;stroke-width:0.5;"/>
    <rect x="271.0" y="271.0" width="-4.0" height="12.0" class="space" style="fill:none;stroke:blue;stroke-width:0.5;"/>
    <rect x="271.0" y="271.0" width="-3.0" height="12.0" class="space" style="fill:none;stroke:blue;stroke-width:0.5;"/>
    <rect x="272.0" y="271.0" width="-4.0" height="12.0" class="space" style="fill:none;stroke:blue;stroke-width:0.5;"/>
    <rect x="272.0" y="271.0" width="-4.0" height="12.0" class="space" style="fill:none;stroke:blue;stroke-width:0.5;"/>
    <rect x="272.0" y="271.0" width="-3.0" height="12.0" class="space" style="fill:none;stroke:blue;stroke-width:0.5;"/>
    <g>
     <rect x="270.0" y="271.0" width="7.0" height="12.0" class="text" style="fill:none;stroke:red;stroke-width:0.5;"/>
     <text x="270.0" y="283.0" achars="3" style="fill:black;font-family:helvetica;font-size:10.0px;">3</text>
    </g>
    <g>
     <rect x="279.0" y="271.0" width="8.0" height="12.0" class="text" style="fill:none;stroke:red;stroke-width:0.5;"/>
     <text x="279.0" y="283.0" achars="a,q,4" style="fill:black;font-family:helvetica;font-size:10.0px;">a</text>
    </g>
    <g>
     <rect x="288.0" y="281.0" width="2.0" height="2.0" class="text" style="fill:none;stroke:red;stroke-width:0.5;"/>
     <text x="288.0" y="283.0" achars=".,§" style="fill:black;font-family:helvetica;font-size:10.0px;">.</text>
    </g>
    <g>
     <rect x="292.0" y="271.0" width="7.0" height="12.0" class="text" style="fill:none;stroke:red;stroke-width:0.5;"/>
     <text x="292.0" y="283.0" achars="7,J,1" style="fill:black;font-family:helvetica;font-size:10.0px;">7</text>
    </g>
    <g>
     <rect x="300.0" y="271.0" width="8.0" height="12.0" class="text" style="fill:none;stroke:red;stroke-width:0.5;"/>
     <text x="300.0" y="283.0" achars="9,g" style="fill:black;font-family:helvetica;font-size:10.0px;">9</text>
    </g>
   </g>
   <g class="line">
    <rect x="14.0" y="345.0" width="8.0" height="12.0" class="space" style="fill:none;stroke:blue;stroke-width:0.5;"/>
    <g>
     <rect x="14.0" y="345.0" width="8.0" height="12.0" class="text" style="fill:none;stroke:red;stroke-width:0.5;"/>
     <text x="14.0" y="357.0" achars="6" style="fill:black;font-family:helvetica;font-size:10.0px;">6</text>
    </g>
    <g>
     <rect x="24.0" y="354.0" width="2.0" height="3.0" class="text" style="fill:none;stroke:red;stroke-width:0.5;"/>
     <text x="24.0" y="357.0" achars=".,§" style="fill:black;font-family:helvetica;font-size:10.0px;">.</text>
    </g>
    <g>
     <rect x="27.0" y="345.0" width="8.0" height="12.0" class="text" style="fill:none;stroke:red;stroke-width:0.5;"/>
     <text x="27.0" y="357.0" achars="o,O,0" style="fill:black;font-family:helvetica;font-size:10.0px;">o</text>
    </g>
    <g>
     <rect x="36.0" y="345.0" width="8.0" height="12.0" class="text" style="fill:none;stroke:red;stroke-width:0.5;"/>
     <text x="36.0" y="357.0" achars="o,O,0" style="fill:black;font-family:helvetica;font-size:10.0px;">o</text>
    </g>
    <rect x="45.0" y="344.0" width="3.0" height="15.0" class="space" style="fill:none;stroke:blue;stroke-width:0.5;"/>
    <g>
     <rect x="49.0" y="344.0" width="4.0" height="15.0" class="text" style="fill:none;stroke:red;stroke-width:0.5;"/>
     <text x="49.0" y="359.0" achars="(,f,r,c" style="fill:black;font-family:helvetica;font-size:10.0px;">(</text>
    </g>
    <g>
     <rect x="54.0" y="345.0" width="5.0" height="12.0" class="text" style="fill:none;stroke:red;stroke-width:0.5;"/>
     <text x="54.0" y="357.0" achars="1" style="fill:black;font-family:helvetica;font-size:10.0px;">1</text>
    </g>
    <rect x="60.0" y="355.0" width="1.0" height="2.0" class="space" style="fill:none;stroke:blue;stroke-width:0.5;"/>
    <g>
     <rect x="62.0" y="355.0" width="3.0" height="2.0" class="text" style="fill:none;stroke:red;stroke-width:0.5;"/>
     <text x="62.0" y="357.0" achars=".,_" style="fill:black;font-family:helvetica;font-size:10.0px;">.</text>
    </g>
    <g>
     <rect x="66.0" y="345.0" width="8.0" height="12.0" class="text" style="fill:none;stroke:red;stroke-width:0.5;"/>
     <text x="66.0" y="357.0" achars="9,g" style="fill:black;font-family:helvetica;font-size:10.0px;">9</text>
    </g>
    <g>
     <rect x="75.0" y="345.0" width="7.0" height="12.0" class="text" style="fill:none;stroke:red;stroke-width:0.5;"/>
     <text x="75.0" y="357.0" achars="e" style="fill:black;font-family:helvetica;font-size:10.0px;">e</text>
    </g>
    <g>
     <rect x="83.0" y="354.0" width="3.0" height="5.0" class="text" style="fill:none;stroke:red;stroke-width:0.5;"/>
     <text x="83.0" y="359.0" achars="," style="fill:black;font-family:helvetica;font-size:10.0px;">,</text>
    </g>
    <rect x="87.0" y="345.0" width="4.0" height="12.0" class="space" style="fill:none;stroke:blue;stroke-width:0.5;"/>
    <g>
     <rect x="92.0" y="345.0" width="4.0" height="12.0" class="text" style="fill:none;stroke:red;stroke-width:0.5;"/>
     <text x="92.0" y="357.0" achars="1" style="fill:black;font-family:helvetica;font-size:10.0px;">1</text>
    </g>
    <rect x="97.0" y="345.0" width="2.0" height="12.0" class="space" style="fill:none;stroke:blue;stroke-width:0.5;"/>
    <g>
     <rect x="100.0" y="345.0" width="8.0" height="12.0" class="text" style="fill:none;stroke:red;stroke-width:0.5;"/>
     <text x="100.0" y="357.0" achars="o,O,0" style="fill:black;font-family:helvetica;font-size:10.0px;">o</text>
    </g>
    <g>
     <rect x="109.0" y="355.0" width="2.0" height="2.0" class="text" style="fill:none;stroke:red;stroke-width:0.5;"/>
     <text x="109.0" y="357.0" achars=".,§" style="fill:black;font-family:helvetica;font-size:10.0px;">.</text>
    </g>
    <g>
     <rect x="112.0" y="345.0" width="8.0" height="12.0" class="text" style="fill:none;stroke:red;stroke-width:0.5;"/>
     <text x="112.0" y="357.0" achars="o,O,0,a" style="fill:black;font-family:helvetica;font-size:10.0px;">o</text>
    </g>
    <g>
     <rect x="121.0" y="345.0" width="8.0" height="12.0" class="text" style="fill:none;stroke:red;stroke-width:0.5;"/>
     <text x="121.0" y="357.0" achars="8" style="fill:black;font-family:helvetica;font-size:10.0px;">8</text>
    </g>
    <g>
     <rect x="130.0" y="344.0" width="4.0" height="15.0" class="text" style="fill:none;stroke:red;stroke-width:0.5;"/>
     <text x="130.0" y="359.0" achars="),&gt;" style="fill:black;font-family:helvetica;font-size:10.0px;">)</text>
    </g>
    <rect x="135.0" y="345.0" width="7.0" height="12.0" class="space" style="fill:none;stroke:blue;stroke-width:0.5;"/>
    <rect x="153.0" y="345.0" width="7.0" height="12.0" class="space" style="fill:none;stroke:blue;stroke-width:0.5;"/>
    <rect x="179.0" y="345.0" width="6.0" height="12.0" class="space" style="fill:none;stroke:blue;stroke-width:0.5;"/>
    <rect x="207.0" y="345.0" width="4.0" height="12.0" class="space" style="fill:none;stroke:blue;stroke-width:0.5;"/>
    <rect x="232.0" y="345.0" width="1.0" height="12.0" class="space" style="fill:none;stroke:blue;stroke-width:0.5;"/>
    <rect x="250.0" y="345.0" width="-1.0" height="12.0" class="space" style="fill:none;stroke:blue;stroke-width:0.5;"/>
    <rect x="261.0" y="345.0" width="-2.0" height="12.0" class="space" style="fill:none;stroke:blue;stroke-width:0.5;"/>
    <rect x="267.0" y="345.0" width="-3.0" height="12.0" class="space" style="fill:none;stroke:blue;stroke-width:0.5;"/>
    <rect x="270.0" y="345.0" width="-3.0" height="12.0" class="space" style="fill:none;stroke:blue;stroke-width:0.5;"/>
    <rect x="271.0" y="345.0" width="-3.0" height="12.0" class="space" style="fill:none;stroke:blue;stroke-width:0.5;"/>
    <rect x="272.0" y="345.0" width="-4.0" height="12.0" class="space" style="fill:none;stroke:blue;stroke-width:0.5;"/>
    <rect x="272.0" y="345.0" width="-3.0" height="12.0" class="space" style="fill:none;stroke:blue;stroke-width:0.5;"/>
    <g>
     <rect x="270.0" y="345.0" width="8.0" height="12.0" class="text" style="fill:none;stroke:red;stroke-width:0.5;"/>
     <text x="270.0" y="357.0" achars="2" style="fill:black;font-family:helvetica;font-size:10.0px;">2</text>
    </g>
    <g>
     <rect x="279.0" y="345.0" width="8.0" height="12.0" class="text" style="fill:none;stroke:red;stroke-width:0.5;"/>
     <text x="279.0" y="357.0" achars="6" style="fill:black;font-family:helvetica;font-size:10.0px;">6</text>
    </g>
    <g>
     <rect x="288.0" y="355.0" width="2.0" height="2.0" class="text" style="fill:none;stroke:red;stroke-width:0.5;"/>
     <text x="288.0" y="357.0" achars=".,§" style="fill:black;font-family:helvetica;font-size:10.0px;">.</text>
    </g>
    <g>
     <rect x="291.0" y="345.0" width="9.0" height="12.0" class="text" style="fill:none;stroke:red;stroke-width:0.5;"/>
     <text x="291.0" y="357.0" achars="q,4,a" style="fill:black;font-family:helvetica;font-size:10.0px;">q</text>
    </g>
    <g>
     <rect x="300.0" y="345.0" width="8.0" height="12.0" class="text" style="fill:none;stroke:red;stroke-width:0.5;"/>
     <text x="300.0" y="357.0" achars="s" style="fill:black;font-family:helvetica;font-size:10.0px;">s</text>
    </g>
   </g>
   <g class="line">
    <rect x="14.0" y="420.0" width="8.0" height="11.0" class="space" style="fill:none;stroke:blue;stroke-width:0.5;"/>
    <g>
     <rect x="14.0" y="420.0" width="8.0" height="11.0" class="text" style="fill:none;stroke:red;stroke-width:0.5;"/>
     <text x="14.0" y="431.0" achars="s" style="fill:black;font-family:helvetica;font-size:10.0px;">s</text>
    </g>
    <g>
     <rect x="24.0" y="429.0" width="2.0" height="2.0" class="text" style="fill:none;stroke:red;stroke-width:0.5;"/>
     <text x="24.0" y="431.0" achars=".,§" style="fill:black;font-family:helvetica;font-size:10.0px;">.</text>
    </g>
    <g>
     <rect x="27.0" y="419.0" width="8.0" height="12.0" class="text" style="fill:none;stroke:red;stroke-width:0.5;"/>
     <text x="27.0" y="431.0" achars="9,g,e" style="fill:black;font-family:helvetica;font-size:10.0px;">9</text>
    </g>
    <g>
     <rect x="37.0" y="420.0" width="4.0" height="11.0" class="text" style="fill:none;stroke:red;stroke-width:0.5;"/>
     <text x="37.0" y="431.0" achars="1" style="fill:black;font-family:helvetica;font-size:10.0px;">1</text>
    </g>
    <rect x="42.0" y="419.0" width="6.0" height="15.0" class="space" style="fill:none;stroke:blue;stroke-width:0.5;"/>
    <g>
     <rect x="49.0" y="419.0" width="4.0" height="15.0" class="text" style="fill:none;stroke:red;stroke-width:0.5;"/>
     <text x="49.0" y="434.0" achars="(,c" style="fill:black;font-family:helvetica;font-size:10.0px;">(</text>
    </g>
    <g>
     <rect x="53.0" y="419.0" width="8.0" height="12.0" class="text" style="fill:none;stroke:red;stroke-width:0.5;"/>
     <text x="53.0" y="431.0" achars="3" style="fill:black;font-family:helvetica;font-size:10.0px;">3</text>
    </g>
    <g>
     <rect x="62.0" y="429.0" width="3.0" height="2.0" class="text" style="fill:none;stroke:red;stroke-width:0.5;"/>
     <text x="62.0" y="431.0" achars=".,-" style="fill:black;font-family:helvetica;font-size:10.0px;">.</text>
    </g>
    <g>
     <rect x="66.0" y="419.0" width="8.0" height="13.0" class="text" style="fill:none;stroke:red;stroke-width:0.5;"/>
     <text x="66.0" y="432.0" achars="8" style="fill:black;font-family:helvetica;font-size:10.0px;">8</text>
    </g>
    <g>
     <rect x="76.0" y="420.0" width="4.0" height="11.0" class="text" style="fill:none;stroke:red;stroke-width:0.5;"/>
     <text x="76.0" y="431.0" achars="1" style="fill:black;font-family:helvetica;font-size:10.0px;">1</text>
    </g>
    <g>
     <rect x="83.0" y="429.0" width="3.0" height="4.0" class="text" style="fill:none;stroke:red;stroke-width:0.5;"/>
     <text x="83.0" y="433.0" achars="," style="fill:black;font-family:helvetica;font-size:10.0px;">,</text>
    </g>
    <g>
     <rect x="91.0" y="419.0" width="8.0" height="13.0" class="text" style="fill:none;stroke:red;stroke-width:0.5;"/>
     <text x="91.0" y="432.0" achars="8" style="fill:black;font-family:helvetica;font-size:10.0px;">8</text>
    </g>
    <g>
     <rect x="100.0" y="429.0" width="3.0" height="2.0" class="text" style="fill:none;stroke:red;stroke-width:0.5;"/>
     <text x="100.0" y="431.0" achars=".,-" style="fill:black;font-family:helvetica;font-size:10.0px;">.</text>
    </g>
    <g>
     <rect x="104.0" y="419.0" width="7.0" height="13.0" class="text" style="fill:none;stroke:red;stroke-width:0.5;"/>
     <text x="104.0" y="432.0" achars="O,0,o,4" style="fill:black;font-family:helvetica;font-size:10.0px;">O</text>
    </g>
    <g>
     <rect x="113.0" y="420.0" width="5.0" height="11.0" class="text" style="fill:none;stroke:red;stroke-width:0.5;"/>
     <text x="113.0" y="431.0" achars="1" style="fill:black;font-family:helvetica;font-size:10.0px;">1</text>
    </g>
    <g>
     <rect x="121.0" y="419.0" width="4.0" height="15.0" class="text" style="fill:none;stroke:red;stroke-width:0.5;"/>
     <text x="121.0" y="434.0" achars="),&gt;" style="fill:black;font-family:helvetica;font-size:10.0px;">)</text>
    </g>
    <rect x="126.0" y="420.0" width="7.0" height="11.0" class="space" style="fill:none;stroke:blue;stroke-width:0.5;"/>
    <rect x="144.0" y="420.0" width="7.0" height="11.0" class="space" style="fill:none;stroke:blue;stroke-width:0.5;"/>
    <rect x="170.0" y="420.0" width="6.0" height="11.0" class="space" style="fill:none;stroke:blue;stroke-width:0.5;"/>
    <rect x="199.0" y="420.0" width="3.0" height="11.0" class="space" style="fill:none;stroke:blue;stroke-width:0.5;"/>
    <rect x="224.0" y="420.0" width="2.0" height="11.0" class="space" style="fill:none;stroke:blue;stroke-width:0.5;"/>
    <rect x="245.0" y="420.0" width="-1.0" height="11.0" class="space" style="fill:none;stroke:blue;stroke-width:0.5;"/>
    <rect x="258.0" y="420.0" width="-2.0" height="11.0" class="space" style="fill:none;stroke:blue;stroke-width:0.5;"/>
    <rect x="266.0" y="420.0" width="-3.0" height="11.0" class="space" style="fill:none;stroke:blue;stroke-width:0.5;"/>
    <rect x="270.0" y="420.0" width="-4.0" height="11.0" class="space" style="fill:none;stroke:blue;stroke-width:0.5;"/>
    <rect x="271.0" y="420.0" width="-3.0" height="11.0" class="space" style="fill:none;stroke:blue;stroke-width:0.5;"/>
    <rect x="272.0" y="420.0" width="-3.0" height="11.0" class="space" style="fill:none;stroke:blue;stroke-width:0.5;"/>
    <rect x="273.0" y="420.0" width="-4.0" height="11.0" class="space" style="fill:none;stroke:blue;stroke-width:0.5;"/>
    <rect x="273.0" y="420.0" width="-3.0" height="11.0" class="space" style="fill:none;stroke:blue;stroke-width:0.5;"/>
    <g>
     <rect x="271.0" y="420.0" width="4.0" height="11.0" class="text" style="fill:none;stroke:red;stroke-width:0.5;"/>
     <text x="271.0" y="431.0" achars="1" style="fill:black;font-family:helvetica;font-size:10.0px;">1</text>
    </g>
    <g>
     <rect x="279.0" y="419.0" width="8.0" height="13.0" class="text" style="fill:none;stroke:red;stroke-width:0.5;"/>
     <text x="279.0" y="432.0" achars="O,0,o" style="fill:black;font-family:helvetica;font-size:10.0px;">O</text>
    </g>
    <g>
     <rect x="288.0" y="419.0" width="8.0" height="13.0" class="text" style="fill:none;stroke:red;stroke-width:0.5;"/>
     <text x="288.0" y="432.0" achars="O,0,o" style="fill:black;font-family:helvetica;font-size:10.0px;">O</text>
    </g>
    <g>
     <rect x="297.0" y="429.0" width="3.0" height="2.0" class="text" style="fill:none;stroke:red;stroke-width:0.5;"/>
     <text x="297.0" y="431.0" achars=".,-" style="fill:black;font-family:helvetica;font-size:10.0px;">.</text>
    </g>
    <g>
     <rect x="300.0" y="419.0" width="8.0" height="13.0" class="text" style="fill:none;stroke:red;stroke-width:0.5;"/>
     <text x="300.0" y="432.0" achars="O,0,o" style="fill:black;font-family:helvetica;font-size:10.0px;">O</text>
    </g>
    <g>
     <rect x="309.0" y="419.0" width="8.0" height="13.0" class="text" style="fill:none;stroke:red;stroke-width:0.5;"/>
     <text x="309.0" y="432.0" achars="O,0,o" style="fill:black;font-family:helvetica;font-size:10.0px;">O</text>
    </g>
   </g>
  </g>
 </g>
</svg>
