<?xml version="1.0" encoding="UTF-8"?>
<svg height="155.0" width="1313.0" xmlns="http://www.w3.org/2000/svg">
 <g class="page">
  <g class="block">
   <g class="line">
    <rect x="1303.0" y="118.0" width="-796.0" height="24.0" class="space" style="fill:none;stroke:blue;stroke-width:0.5;"/>
    <rect x="508.0" y="118.0" width="-4.0" height="24.0" class="space" style="fill:none;stroke:blue;stroke-width:0.5;"/>
    <rect x="505.0" y="118.0" width="-4.0" height="24.0" class="space" style="fill:none;stroke:blue;stroke-width:0.5;"/>
    <rect x="502.0" y="118.0" width="-3.0" height="24.0" class="space" style="fill:none;stroke:blue;stroke-width:0.5;"/>
    <rect x="501.0" y="118.0" width="-4.0" height="24.0" class="space" style="fill:none;stroke:blue;stroke-width:0.5;"/>
    <rect x="499.0" y="118.0" width="-3.0" height="24.0" class="space" style="fill:none;stroke:blue;stroke-width:0.5;"/>
    <rect x="499.0" y="118.0" width="-4.0" height="24.0" class="space" style="fill:none;stroke:blue;stroke-width:0.5;"/>
    <rect x="499.0" y="118.0" width="-4.0" height="24.0" class="space" style="fill:none;stroke:blue;stroke-width:0.5;"/>
    <rect x="499.0" y="118.0" width="-3.0" height="24.0" class="space" style="fill:none;stroke:blue;stroke-width:0.5;"/>
    <rect x="500.0" y="118.0" width="-3.0" height="24.0" class="space" style="fill:none;stroke:blue;stroke-width:0.5;"/>
    <rect x="501.0" y="118.0" width="-3.0" height="24.0" class="space" style="fill:none;stroke:blue;stroke-width:0.5;"/>
    <rect x="503.0" y="118.0" width="-4.0" height="24.0" class="space" style="fill:none;stroke:blue;stroke-width:0.5;"/>
    <rect x="504.0" y="118.0" width="-4.0" height="24.0" class="space" style="fill:none;stroke:blue;stroke-width:0.5;"/>
    <rect x="504.0" y="118.0" width="-3.0" height="24.0" class="space" style="fill:none;stroke:blue;stroke-width:0.5;"/>
    <rect x="505.0" y="118.0" width="-3.0" height="24.0" class="space" style="fill:none;stroke:blue;stroke-width:0.5;"/>
    <rect x="506.0" y="118.0" width="-4.0" height="24.0" class="space" style="fill:none;stroke:blue;stroke-width:0.5;"/>
    <rect x="506.0" y="118.0" width="-3.0" height="24.0" class="space" style="fill:none;stroke:blue;stroke-width:0.5;"/>
    <rect x="507.0" y="118.0" width="-4.0" height="24.0" class="space" style="fill:none;stroke:blue;stroke-width:0.5;"/>
    <rect x="507.0" y="118.0" width="-3.0" height="24.0" class="space" style="fill:none;stroke:blue;stroke-width:0.5;"/>
    <rect x="508.0" y="118.0" width="-4.0" height="24.0" class="space" style="fill:none;stroke:blue;stroke-width:0.5;"/>
    <rect x="508.0" y="118.0" width="-4.0" height="24.0" class="space" style="fill:none;stroke:blue;stroke-width:0.5;"/>
    <rect x="508.0" y="118.0" width="-3.0" height="24.0" class="space" style="fill:none;stroke:blue;stroke-width:0.5;"/>
    <rect x="509.0" y="118.0" width="-4.0" height="24.0" class="space" style="fill:none;stroke:blue;stroke-width:0.5;"/>
    <rect x="509.0" y="118.0" width="-4.0" height="24.0" class="space" style="fill:none;stroke:blue;stroke-width:0.5;"/>
    <rect x="509.0" y="118.0" width="-4.0" height="24.0" class="space" style="fill:none;stroke:blue;stroke-width:0.5;"/>
    <rect x="509.0" y="118.0" width="-4.0" height="24.0" class="space" style="fill:none;stroke:blue;stroke-width:0.5;"/>
    <rect x="509.0" y="118.0" width="-3.0" height="24.0" class="space" style="fill:none;stroke:blue;stroke-width:0.5;"/>
    <rect x="510.0" y="118.0" width="-4.0" height="24.0" class="space" style="fill:none;stroke:blue;stroke-width:0.5;"/>
    <rect x="510.0" y="118.0" width="-4.0" height="24.0" class="space" style="fill:none;stroke:blue;stroke-width:0.5;"/>
    <rect x="510.0" y="118.0" width="-4.0" height="24.0" class="space" style="fill:none;stroke:blue;stroke-width:0.5;"/>
    <rect x="510.0" y="118.0" width="-4.0" height="24.0" class="space" style="fill:none;stroke:blue;stroke-width:0.5;"/>
    <rect x="510.0" y="118.0" width="-4.0" height="24.0" class="space" style="fill:none;stroke:blue;stroke-width:0.5;"/>
    <rect x="510.0" y="118.0" width="-3.0" height="24.0" class="space" style="fill:none;stroke:blue;stroke-width:0.5;"/>
    <rect x="508.0" y="118.0" width="20.0" height="24.0" class="space" style="fill:none;stroke:blue;stroke-width:0.5;"/>
    <g>
     <rect x="508.0" y="118.0" width="20.0" height="24.0" class="text" style="fill:none;stroke:red;stroke-width:0.5;"/>
     <text x="508.0" y="142.0" achars="A" style="fill:black;font-family:helvetica;font-size:10.0px;">A</text>
    </g>
    <g>
     <rect x="529.0" y="118.0" width="18.0" height="24.0" class="text" style="fill:none;stroke:red;stroke-width:0.5;"/>
     <text x="529.0" y="142.0" achars="c" style="fill:black;font-family:helvetica;font-size:10.0px;">c</text>
    </g>
    <rect x="548.0" y="118.0" width="2.0" height="24.0" class="space" style="fill:none;stroke:blue;stroke-width:0.5;"/>
    <g>
     <rect x="551.0" y="118.0" width="15.0" height="24.0" class="text" style="fill:none;stroke:red;stroke-width:0.5;"/>
     <text x="551.0" y="142.0" achars="B,8" style="fill:black;font-family:helvetica;font-size:10.0px;">B</text>
    </g>
    <g>
     <rect x="568.0" y="123.0" width="19.0" height="19.0" class="text" style="fill:none;stroke:red;stroke-width:0.5;"/>
     <text x="568.0" y="142.0" achars="+,t" style="fill:black;font-family:helvetica;font-size:10.0px;">+</text>
    </g>
    <g>
     <rect x="590.0" y="118.0" width="14.0" height="24.0" class="text" style="fill:none;stroke:red;stroke-width:0.5;"/>
     <text x="590.0" y="142.0" achars="L,l" style="fill:black;font-family:helvetica;font-size:10.0px;">L</text>
    </g>
    <g>
     <rect x="607.0" y="118.0" width="3.0" height="24.0" class="text" style="fill:none;stroke:red;stroke-width:0.5;"/>
     <text x="607.0" y="142.0" achars="l,|,1,I" style="fill:black;font-family:helvetica;font-size:10.0px;">l</text>
    </g>
    <rect x="611.0" y="118.0" width="2.0" height="24.0" class="space" style="fill:none;stroke:blue;stroke-width:0.5;"/>
    <g>
     <rect x="614.0" y="118.0" width="19.0" height="24.0" class="text" style="fill:none;stroke:red;stroke-width:0.5;"/>
     <text x="614.0" y="142.0" achars="A" style="fill:black;font-family:helvetica;font-size:10.0px;">A</text>
    </g>
    <rect x="634.0" y="121.0" width="9.0" height="24.0" class="space" style="fill:none;stroke:blue;stroke-width:0.5;"/>
    <rect x="656.0" y="121.0" width="9.0" height="24.0" class="space" style="fill:none;stroke:blue;stroke-width:0.5;"/>
    <rect x="686.0" y="121.0" width="7.0" height="24.0" class="space" style="fill:none;stroke:blue;stroke-width:0.5;"/>
    <rect x="715.0" y="121.0" width="3.0" height="24.0" class="space" style="fill:none;stroke:blue;stroke-width:0.5;"/>
    <rect x="736.0" y="121.0" width="1.0" height="24.0" class="space" style="fill:none;stroke:blue;stroke-width:0.5;"/>
    <rect x="749.0" y="121.0" width="-1.0" height="24.0" class="space" style="fill:none;stroke:blue;stroke-width:0.5;"/>
    <rect x="755.0" y="121.0" width="-3.0" height="24.0" class="space" style="fill:none;stroke:blue;stroke-width:0.5;"/>
    <rect x="757.0" y="121.0" width="-3.0" height="24.0" class="space" style="fill:none;stroke:blue;stroke-width:0.5;"/>
    <rect x="758.0" y="121.0" width="-3.0" height="24.0" class="space" style="fill:none;stroke:blue;stroke-width:0.5;"/>
    <g>
     <rect x="756.0" y="121.0" width="14.0" height="24.0" class="text" style="fill:none;stroke:red;stroke-width:0.5;"/>
     <text x="756.0" y="145.0" achars="L,l" style="fill:black;font-family:helvetica;font-size:10.0px;">L</text>
    </g>
    <g>
     <rect x="772.0" y="121.0" width="4.0" height="24.0" class="text" style="fill:none;stroke:red;stroke-width:0.5;"/>
     <text x="772.0" y="145.0" achars="l,I,1" style="fill:black;font-family:helvetica;font-size:10.0px;">l</text>
    </g>
    <g>
     <rect x="779.0" y="121.0" width="20.0" height="24.0" class="text" style="fill:none;stroke:red;stroke-width:0.5;"/>
     <text x="779.0" y="145.0" achars="A" style="fill:black;font-family:helvetica;font-size:10.0px;">A</text>
    </g>
   </g>
   <g class="line">
    <rect x="61.0" y="80.0" width="8.0" height="14.0" class="space" style="fill:none;stroke:blue;stroke-width:0.5;"/>
    <g>
     <rect x="61.0" y="80.0" width="8.0" height="14.0" class="text" style="fill:none;stroke:red;stroke-width:0.5;"/>
     <text x="61.0" y="94.0" achars="S" style="fill:black;font-family:helvetica;font-size:10.0px;">S</text>
    </g>
    <g>
     <rect x="69.0" y="81.0" width="7.0" height="13.0" class="text" style="fill:none;stroke:red;stroke-width:0.5;"/>
     <text x="69.0" y="94.0" achars="t" style="fill:black;font-family:helvetica;font-size:10.0px;">t</text>
    </g>
    <g>
     <rect x="77.0" y="84.0" width="8.0" height="9.0" class="text" style="fill:none;stroke:red;stroke-width:0.5;"/>
     <text x="77.0" y="93.0" achars="u" style="fill:black;font-family:helvetica;font-size:10.0px;">u</text>
    </g>
    <g>
     <rect x="87.0" y="79.0" width="9.0" height="14.0" class="text" style="fill:none;stroke:red;stroke-width:0.5;"/>
     <text x="87.0" y="93.0" achars="d" style="fill:black;font-family:helvetica;font-size:10.0px;">d</text>
    </g>
    <g>
     <rect x="97.0" y="83.0" width="9.0" height="14.0" class="text" style="fill:none;stroke:red;stroke-width:0.5;"/>
     <text x="97.0" y="97.0" achars="y" style="fill:black;font-family:helvetica;font-size:10.0px;">y</text>
    </g>
    <rect x="107.0" y="80.0" width="9.0" height="13.0" class="space" style="fill:none;stroke:blue;stroke-width:0.5;"/>
    <rect x="130.0" y="80.0" width="9.0" height="13.0" class="space" style="fill:none;stroke:blue;stroke-width:0.5;"/>
    <rect x="166.0" y="80.0" width="9.0" height="13.0" class="space" style="fill:none;stroke:blue;stroke-width:0.5;"/>
    <rect x="214.0" y="80.0" width="8.0" height="13.0" class="space" style="fill:none;stroke:blue;stroke-width:0.5;"/>
    <rect x="271.0" y="80.0" width="8.0" height="13.0" class="space" style="fill:none;stroke:blue;stroke-width:0.5;"/>
    <rect x="337.0" y="80.0" width="7.0" height="13.0" class="space" style="fill:none;stroke:blue;stroke-width:0.5;"/>
    <rect x="408.0" y="80.0" width="7.0" height="13.0" class="space" style="fill:none;stroke:blue;stroke-width:0.5;"/>
    <rect x="483.0" y="80.0" width="6.0" height="13.0" class="space" style="fill:none;stroke:blue;stroke-width:0.5;"/>
    <rect x="560.0" y="80.0" width="4.0" height="13.0" class="space" style="fill:none;stroke:blue;stroke-width:0.5;"/>
    <rect x="635.0" y="80.0" width="4.0" height="13.0" class="space" style="fill:none;stroke:blue;stroke-width:0.5;"/>
    <rect x="709.0" y="80.0" width="2.0" height="13.0" class="space" style="fill:none;stroke:blue;stroke-width:0.5;"/>
    <rect x="778.0" y="80.0" width="2.0" height="13.0" class="space" style="fill:none;stroke:blue;stroke-width:0.5;"/>
    <rect x="842.0" y="80.0" width="1.0" height="13.0" class="space" style="fill:none;stroke:blue;stroke-width:0.5;"/>
    <rect x="900.0" y="80.0" width="0.0" height="13.0" class="space" style="fill:none;stroke:blue;stroke-width:0.5;"/>
    <rect x="951.0" y="80.0" width="0.0" height="13.0" class="space" style="fill:none;stroke:blue;stroke-width:0.5;"/>
    <rect x="997.0" y="80.0" width="-1.0" height="13.0" class="space" style="fill:none;stroke:blue;stroke-width:0.5;"/>
    <rect x="1036.0" y="80.0" width="-2.0" height="13.0" class="space" style="fill:none;stroke:blue;stroke-width:0.5;"/>
    <rect x="1068.0" y="80.0" width="-2.0" height="13.0" class="space" style="fill:none;stroke:blue;stroke-width:0.5;"/>
    <rect x="1095.0" y="80.0" width="-3.0" height="13.0" class="space" style="fill:none;stroke:blue;stroke-width:0.5;"/>
    <rect x="1116.0" y="80.0" width="-3.0" height="13.0" class="space" style="fill:none;stroke:blue;stroke-width:0.5;"/>
    <rect x="1133.0" y="80.0" width="-3.0" height="13.0" class="space" style="fill:none;stroke:blue;stroke-width:0.5;"/>
    <rect x="1147.0" y="80.0" width="-4.0" height="13.0" class="space" style="fill:none;stroke:blue;stroke-width:0.5;"/>
    <rect x="1157.0" y="80.0" width="-4.0" height="13.0" class="space" style="fill:none;stroke:blue;stroke-width:0.5;"/>
    <rect x="1164.0" y="80.0" width="-3.0" height="13.0" class="space" style="fill:none;stroke:blue;stroke-width:0.5;"/>
    <rect x="1171.0" y="80.0" width="-4.0" height="13.0" class="space" style="fill:none;stroke:blue;stroke-width:0.5;"/>
    <rect x="1175.0" y="80.0" width="-4.0" height="13.0" class="space" style="fill:none;stroke:blue;stroke-width:0.5;"/>
    <rect x="1178.0" y="80.0" width="-4.0" height="13.0" class="space" style="fill:none;stroke:blue;stroke-width:0.5;"/>
    <rect x="1180.0" y="80.0" width="-4.0" height="13.0" class="space" style="fill:none;stroke:blue;stroke-width:0.5;"/>
    <rect x="1182.0" y="80.0" width="-4.0" height="13.0" class="space" style="fill:none;stroke:blue;stroke-width:0.5;"/>
    <rect x="1183.0" y="80.0" width="-4.0" height="13.0" class="space" style="fill:none;stroke:blue;stroke-width:0.5;"/>
    <rect x="1184.0" y="80.0" width="-4.0" height="13.0" class="space" style="fill:none;stroke:blue;stroke-width:0.5;"/>
    <rect x="1185.0" y="80.0" width="-4.0" height="13.0" class="space" style="fill:none;stroke:blue;stroke-width:0.5;"/>
    <rect x="1186.0" y="80.0" width="-4.0" height="13.0" class="space" style="fill:none;stroke:blue;stroke-width:0.5;"/>
    <rect x="1186.0" y="80.0" width="-4.0" height="13.0" class="space" style="fill:none;stroke:blue;stroke-width:0.5;"/>
    <rect x="1186.0" y="80.0" width="-4.0" height="13.0" class="space" style="fill:none;stroke:blue;stroke-width:0.5;"/>
    <rect x="1186.0" y="80.0" width="-3.0" height="13.0" class="space" style="fill:none;stroke:blue;stroke-width:0.5;"/>
    <rect x="1187.0" y="80.0" width="-4.0" height="13.0" class="space" style="fill:none;stroke:blue;stroke-width:0.5;"/>
    <rect x="1187.0" y="80.0" width="-4.0" height="13.0" class="space" style="fill:none;stroke:blue;stroke-width:0.5;"/>
    <rect x="1187.0" y="80.0" width="-4.0" height="13.0" class="space" style="fill:none;stroke:blue;stroke-width:0.5;"/>
    <rect x="1187.0" y="80.0" width="-3.0" height="13.0" class="space" style="fill:none;stroke:blue;stroke-width:0.5;"/>
    <rect x="1188.0" y="80.0" width="-4.0" height="13.0" class="space" style="fill:none;stroke:blue;stroke-width:0.5;"/>
    <rect x="1188.0" y="80.0" width="-4.0" height="13.0" class="space" style="fill:none;stroke:blue;stroke-width:0.5;"/>
    <rect x="1188.0" y="80.0" width="-4.0" height="13.0" class="space" style="fill:none;stroke:blue;stroke-width:0.5;"/>
    <rect x="1188.0" y="80.0" width="-4.0" height="13.0" class="space" style="fill:none;stroke:blue;stroke-width:0.5;"/>
    <rect x="1188.0" y="80.0" width="-4.0" height="13.0" class="space" style="fill:none;stroke:blue;stroke-width:0.5;"/>
    <rect x="1188.0" y="80.0" width="-3.0" height="13.0" class="space" style="fill:none;stroke:blue;stroke-width:0.5;"/>
    <rect x="1189.0" y="80.0" width="-4.0" height="13.0" class="space" style="fill:none;stroke:blue;stroke-width:0.5;"/>
    <rect x="1189.0" y="80.0" width="-4.0" height="13.0" class="space" style="fill:none;stroke:blue;stroke-width:0.5;"/>
    <rect x="1189.0" y="80.0" width="-4.0" height="13.0" class="space" style="fill:none;stroke:blue;stroke-width:0.5;"/>
    <rect x="1189.0" y="80.0" width="-4.0" height="13.0" class="space" style="fill:none;stroke:blue;stroke-width:0.5;"/>
    <rect x="1189.0" y="80.0" width="-4.0" height="13.0" class="space" style="fill:none;stroke:blue;stroke-width:0.5;"/>
    <rect x="1189.0" y="80.0" width="-4.0" height="13.0" class="space" style="fill:none;stroke:blue;stroke-width:0.5;"/>
    <rect x="1189.0" y="80.0" width="-4.0" height="13.0" class="space" style="fill:none;stroke:blue;stroke-width:0.5;"/>
    <rect x="1189.0" y="80.0" width="-3.0" height="13.0" class="space" style="fill:none;stroke:blue;stroke-width:0.5;"/>
    <rect x="1190.0" y="80.0" width="-4.0" height="13.0" class="space" style="fill:none;stroke:blue;stroke-width:0.5;"/>
    <rect x="1190.0" y="80.0" width="-4.0" height="13.0" class="space" style="fill:none;stroke:blue;stroke-width:0.5;"/>
    <rect x="1190.0" y="80.0" width="-4.0" height="13.0" class="space" style="fill:none;stroke:blue;stroke-width:0.5;"/>
    <rect x="1190.0" y="80.0" width="-4.0" height="13.0" class="space" style="fill:none;stroke:blue;stroke-width:0.5;"/>
    <rect x="1190.0" y="80.0" width="-4.0" height="13.0" class="space" style="fill:none;stroke:blue;stroke-width:0.5;"/>
    <rect x="1190.0" y="80.0" width="-4.0" height="13.0" class="space" style="fill:none;stroke:blue;stroke-width:0.5;"/>
    <rect x="1190.0" y="80.0" width="-4.0" height="13.0" class="space" style="fill:none;stroke:blue;stroke-width:0.5;"/>
    <rect x="1190.0" y="80.0" width="-4.0" height="13.0" class="space" style="fill:none;stroke:blue;stroke-width:0.5;"/>
    <rect x="1190.0" y="80.0" width="-4.0" height="13.0" class="space" style="fill:none;stroke:blue;stroke-width:0.5;"/>
    <rect x="1190.0" y="80.0" width="-3.0" height="13.0" class="space" style="fill:none;stroke:blue;stroke-width:0.5;"/>
    <rect x="1191.0" y="80.0" width="-4.0" height="13.0" class="space" style="fill:none;stroke:blue;stroke-width:0.5;"/>
    <rect x="1191.0" y="80.0" width="-4.0" height="13.0" class="space" style="fill:none;stroke:blue;stroke-width:0.5;"/>
    <rect x="1191.0" y="80.0" width="-4.0" height="13.0" class="space" style="fill:none;stroke:blue;stroke-width:0.5;"/>
    <rect x="1191.0" y="80.0" width="-4.0" height="13.0" class="space" style="fill:none;stroke:blue;stroke-width:0.5;"/>
    <rect x="1191.0" y="80.0" width="-4.0" height="13.0" class="space" style="fill:none;stroke:blue;stroke-width:0.5;"/>
    <rect x="1191.0" y="80.0" width="-4.0" height="13.0" class="space" style="fill:none;stroke:blue;stroke-width:0.5;"/>
    <rect x="1191.0" y="80.0" width="-4.0" height="13.0" class="space" style="fill:none;stroke:blue;stroke-width:0.5;"/>
    <rect x="1191.0" y="80.0" width="-4.0" height="13.0" class="space" style="fill:none;stroke:blue;stroke-width:0.5;"/>
    <rect x="1191.0" y="80.0" width="-4.0" height="13.0" class="space" style="fill:none;stroke:blue;stroke-width:0.5;"/>
    <rect x="1191.0" y="80.0" width="-4.0" height="13.0" class="space" style="fill:none;stroke:blue;stroke-width:0.5;"/>
    <rect x="1191.0" y="80.0" width="-4.0" height="13.0" class="space" style="fill:none;stroke:blue;stroke-width:0.5;"/>
    <rect x="1191.0" y="80.0" width="-4.0" height="13.0" class="space" style="fill:none;stroke:blue;stroke-width:0.5;"/>
    <rect x="1191.0" y="80.0" width="-4.0" height="13.0" class="space" style="fill:none;stroke:blue;stroke-width:0.5;"/>
    <rect x="1191.0" y="80.0" width="-4.0" height="13.0" class="space" style="fill:none;stroke:blue;stroke-width:0.5;"/>
    <rect x="1191.0" y="80.0" width="-4.0" height="13.0" class="space" style="fill:none;stroke:blue;stroke-width:0.5;"/>
    <rect x="1191.0" y="80.0" width="-3.0" height="13.0" class="space" style="fill:none;stroke:blue;stroke-width:0.5;"/>
    <g>
     <rect x="1189.0" y="80.0" width="13.0" height="13.0" class="text" style="fill:none;stroke:red;stroke-width:0.5;"/>
     <text x="1189.0" y="93.0" achars="qb,44" style="fill:black;font-family:helvetica;font-size:10.0px;">q</text>
    </g>
   </g>
   <g class="line">
    <rect x="61.0" y="114.0" width="3.0" height="14.0" class="space" style="fill:none;stroke:blue;stroke-width:0.5;"/>
    <g>
     <rect x="61.0" y="114.0" width="3.0" height="14.0" class="text" style="fill:none;stroke:red;stroke-width:0.5;"/>
     <text x="61.0" y="128.0" achars="l,I" style="fill:black;font-family:helvetica;font-size:10.0px;">l</text>
    </g>
    <g>
     <rect x="66.0" y="114.0" width="11.0" height="14.0" class="text" style="fill:none;stroke:red;stroke-width:0.5;"/>
     <text x="66.0" y="128.0" achars="0" style="fill:black;font-family:helvetica;font-size:10.0px;">0</text>
    </g>
    <rect x="78.0" y="114.0" width="9.0" height="13.0" class="space" style="fill:none;stroke:blue;stroke-width:0.5;"/>
    <rect x="101.0" y="114.0" width="10.0" height="13.0" class="space" style="fill:none;stroke:blue;stroke-width:0.5;"/>
    <rect x="138.0" y="114.0" width="9.0" height="13.0" class="space" style="fill:none;stroke:blue;stroke-width:0.5;"/>
    <rect x="185.0" y="114.0" width="9.0" height="13.0" class="space" style="fill:none;stroke:blue;stroke-width:0.5;"/>
    <rect x="242.0" y="114.0" width="8.0" height="13.0" class="space" style="fill:none;stroke:blue;stroke-width:0.5;"/>
    <rect x="306.0" y="114.0" width="7.0" height="13.0" class="space" style="fill:none;stroke:blue;stroke-width:0.5;"/>
    <rect x="375.0" y="114.0" width="6.0" height="13.0" class="space" style="fill:none;stroke:blue;stroke-width:0.5;"/>
    <rect x="446.0" y="114.0" width="5.0" height="13.0" class="space" style="fill:none;stroke:blue;stroke-width:0.5;"/>
    <rect x="517.0" y="114.0" width="4.0" height="13.0" class="space" style="fill:none;stroke:blue;stroke-width:0.5;"/>
    <rect x="586.0" y="114.0" width="3.0" height="13.0" class="space" style="fill:none;stroke:blue;stroke-width:0.5;"/>
    <rect x="651.0" y="114.0" width="2.0" height="13.0" class="space" style="fill:none;stroke:blue;stroke-width:0.5;"/>
    <rect x="711.0" y="114.0" width="1.0" height="13.0" class="space" style="fill:none;stroke:blue;stroke-width:0.5;"/>
    <rect x="764.0" y="114.0" width="1.0" height="13.0" class="space" style="fill:none;stroke:blue;stroke-width:0.5;"/>
    <rect x="812.0" y="114.0" width="-1.0" height="13.0" class="space" style="fill:none;stroke:blue;stroke-width:0.5;"/>
    <rect x="852.0" y="114.0" width="-1.0" height="13.0" class="space" style="fill:none;stroke:blue;stroke-width:0.5;"/>
    <rect x="886.0" y="114.0" width="-2.0" height="13.0" class="space" style="fill:none;stroke:blue;stroke-width:0.5;"/>
    <rect x="913.0" y="114.0" width="-2.0" height="13.0" class="space" style="fill:none;stroke:blue;stroke-width:0.5;"/>
    <rect x="935.0" y="114.0" width="-2.0" height="13.0" class="space" style="fill:none;stroke:blue;stroke-width:0.5;"/>
    <rect x="953.0" y="114.0" width="-3.0" height="13.0" class="space" style="fill:none;stroke:blue;stroke-width:0.5;"/>
    <rect x="966.0" y="114.0" width="-3.0" height="13.0" class="space" style="fill:none;stroke:blue;stroke-width:0.5;"/>
    <rect x="976.0" y="114.0" width="-3.0" height="13.0" class="space" style="fill:none;stroke:blue;stroke-width:0.5;"/>
    <rect x="984.0" y="114.0" width="-4.0" height="13.0" class="space" style="fill:none;stroke:blue;stroke-width:0.5;"/>
    <rect x="989.0" y="114.0" width="-4.0" height="13.0" class="space" style="fill:none;stroke:blue;stroke-width:0.5;"/>
    <rect x="993.0" y="114.0" width="-4.0" height="13.0" class="space" style="fill:none;stroke:blue;stroke-width:0.5;"/>
    <rect x="996.0" y="114.0" width="-4.0" height="13.0" class="space" style="fill:none;stroke:blue;stroke-width:0.5;"/>
    <rect x="998.0" y="114.0" width="-4.0" height="13.0" class="space" style="fill:none;stroke:blue;stroke-width:0.5;"/>
    <rect x="999.0" y="114.0" width="-4.0" height="13.0" class="space" style="fill:none;stroke:blue;stroke-width:0.5;"/>
    <rect x="1000.0" y="114.0" width="-4.0" height="13.0" class="space" style="fill:none;stroke:blue;stroke-width:0.5;"/>
    <rect x="1001.0" y="114.0" width="-4.0" height="13.0" class="space" style="fill:none;stroke:blue;stroke-width:0.5;"/>
    <rect x="1001.0" y="114.0" width="-4.0" height="13.0" class="space" style="fill:none;stroke:blue;stroke-width:0.5;"/>
    <rect x="1001.0" y="114.0" width="-3.0" height="13.0" class="space" style="fill:none;stroke:blue;stroke-width:0.5;"/>
    <rect x="1002.0" y="114.0" width="-4.0" height="13.0" class="space" style="fill:none;stroke:blue;stroke-width:0.5;"/>
    <rect x="1002.0" y="114.0" width="-4.0" height="13.0" class="space" style="fill:none;stroke:blue;stroke-width:0.5;"/>
    <rect x="1002.0" y="114.0" width="-3.0" height="13.0" class="space" style="fill:none;stroke:blue;stroke-width:0.5;"/>
    <rect x="1003.0" y="114.0" width="-4.0" height="13.0" class="space" style="fill:none;stroke:blue;stroke-width:0.5;"/>
    <rect x="1003.0" y="114.0" width="-4.0" height="13.0" class="space" style="fill:none;stroke:blue;stroke-width:0.5;"/>
    <rect x="1003.0" y="114.0" width="-4.0" height="13.0" class="space" style="fill:none;stroke:blue;stroke-width:0.5;"/>
    <rect x="1003.0" y="114.0" width="-4.0" height="13.0" class="space" style="fill:none;stroke:blue;stroke-width:0.5;"/>
    <rect x="1003.0" y="114.0" width="-3.0" height="13.0" class="space" style="fill:none;stroke:blue;stroke-width:0.5;"/>
    <rect x="1004.0" y="114.0" width="-4.0" height="13.0" class="space" style="fill:none;stroke:blue;stroke-width:0.5;"/>
    <rect x="1004.0" y="114.0" width="-4.0" height="13.0" class="space" style="fill:none;stroke:blue;stroke-width:0.5;"/>
    <rect x="1004.0" y="114.0" width="-4.0" height="13.0" class="space" style="fill:none;stroke:blue;stroke-width:0.5;"/>
    <rect x="1004.0" y="114.0" width="-4.0" height="13.0" class="space" style="fill:none;stroke:blue;stroke-width:0.5;"/>
    <rect x="1004.0" y="114.0" width="-4.0" height="13.0" class="space" style="fill:none;stroke:blue;stroke-width:0.5;"/>
    <rect x="1004.0" y="114.0" width="-4.0" height="13.0" class="space" style="fill:none;stroke:blue;stroke-width:0.5;"/>
    <rect x="1004.0" y="114.0" width="-3.0" height="13.0" class="space" style="fill:none;stroke:blue;stroke-width:0.5;"/>
    <rect x="1005.0" y="114.0" width="-4.0" height="13.0" class="space" style="fill:none;stroke:blue;stroke-width:0.5;"/>
    <rect x="1005.0" y="114.0" width="-4.0" height="13.0" class="space" style="fill:none;stroke:blue;stroke-width:0.5;"/>
    <rect x="1005.0" y="114.0" width="-4.0" height="13.0" class="space" style="fill:none;stroke:blue;stroke-width:0.5;"/>
    <rect x="1005.0" y="114.0" width="-4.0" height="13.0" class="space" style="fill:none;stroke:blue;stroke-width:0.5;"/>
    <rect x="1005.0" y="114.0" width="-4.0" height="13.0" class="space" style="fill:none;stroke:blue;stroke-width:0.5;"/>
    <rect x="1005.0" y="114.0" width="-4.0" height="13.0" class="space" style="fill:none;stroke:blue;stroke-width:0.5;"/>
    <rect x="1005.0" y="114.0" width="-4.0" height="13.0" class="space" style="fill:none;stroke:blue;stroke-width:0.5;"/>
    <rect x="1005.0" y="114.0" width="-4.0" height="13.0" class="space" style="fill:none;stroke:blue;stroke-width:0.5;"/>
    <rect x="1005.0" y="114.0" width="-3.0" height="13.0" class="space" style="fill:none;stroke:blue;stroke-width:0.5;"/>
    <rect x="1006.0" y="114.0" width="-4.0" height="13.0" class="space" style="fill:none;stroke:blue;stroke-width:0.5;"/>
    <rect x="1006.0" y="114.0" width="-4.0" height="13.0" class="space" style="fill:none;stroke:blue;stroke-width:0.5;"/>
    <rect x="1006.0" y="114.0" width="-4.0" height="13.0" class="space" style="fill:none;stroke:blue;stroke-width:0.5;"/>
    <rect x="1006.0" y="114.0" width="-4.0" height="13.0" class="space" style="fill:none;stroke:blue;stroke-width:0.5;"/>
    <rect x="1006.0" y="114.0" width="-4.0" height="13.0" class="space" style="fill:none;stroke:blue;stroke-width:0.5;"/>
    <rect x="1006.0" y="114.0" width="-4.0" height="13.0" class="space" style="fill:none;stroke:blue;stroke-width:0.5;"/>
    <rect x="1006.0" y="114.0" width="-4.0" height="13.0" class="space" style="fill:none;stroke:blue;stroke-width:0.5;"/>
    <rect x="1006.0" y="114.0" width="-4.0" height="13.0" class="space" style="fill:none;stroke:blue;stroke-width:0.5;"/>
    <rect x="1006.0" y="114.0" width="-4.0" height="13.0" class="space" style="fill:none;stroke:blue;stroke-width:0.5;"/>
    <rect x="1006.0" y="114.0" width="-4.0" height="13.0" class="space" style="fill:none;stroke:blue;stroke-width:0.5;"/>
    <rect x="1006.0" y="114.0" width="-4.0" height="13.0" class="space" style="fill:none;stroke:blue;stroke-width:0.5;"/>
    <rect x="1006.0" y="114.0" width="-4.0" height="13.0" class="space" style="fill:none;stroke:blue;stroke-width:0.5;"/>
    <rect x="1006.0" y="114.0" width="-3.0" height="13.0" class="space" style="fill:none;stroke:blue;stroke-width:0.5;"/>
    <g>
     <rect x="1004.0" y="114.0" width="15.0" height="13.0" class="text" style="fill:none;stroke:red;stroke-width:0.5;"/>
     <text x="1004.0" y="127.0" achars="W" style="fill:black;font-family:helvetica;font-size:10.0px;">W</text>
    </g>
    <g>
     <rect x="1020.0" y="114.0" width="12.0" height="13.0" class="text" style="fill:none;stroke:red;stroke-width:0.5;"/>
     <text x="1020.0" y="127.0" achars="M,m" style="fill:black;font-family:helvetica;font-size:10.0px;">M</text>
    </g>
    <g>
     <rect x="1034.0" y="114.0" width="11.0" height="13.0" class="text" style="fill:none;stroke:red;stroke-width:0.5;"/>
     <text x="1034.0" y="127.0" achars="0" style="fill:black;font-family:helvetica;font-size:10.0px;">0</text>
    </g>
    <g>
     <rect x="1050.0" y="114.0" width="4.0" height="15.0" class="text" style="fill:none;stroke:red;stroke-width:0.5;"/>
     <text x="1050.0" y="129.0" achars="(,r" style="fill:black;font-family:helvetica;font-size:10.0px;">(</text>
    </g>
    <g>
     <rect x="1055.0" y="114.0" width="8.0" height="13.0" class="text" style="fill:none;stroke:red;stroke-width:0.5;"/>
     <text x="1055.0" y="127.0" achars="9,4,g" style="fill:black;font-family:helvetica;font-size:10.0px;">9</text>
    </g>
    <g>
     <rect x="1064.0" y="115.0" width="8.0" height="12.0" class="text" style="fill:none;stroke:red;stroke-width:0.5;"/>
     <text x="1064.0" y="127.0" achars="S,5" style="fill:black;font-family:helvetica;font-size:10.0px;">S</text>
    </g>
    <g>
     <rect x="1073.0" y="114.0" width="14.0" height="13.0" class="text" style="fill:none;stroke:red;stroke-width:0.5;"/>
     <text x="1073.0" y="127.0" achars="Q4" style="fill:black;font-family:helvetica;font-size:10.0px;">Q</text>
    </g>
    <g>
     <rect x="1091.0" y="114.0" width="10.0" height="13.0" class="text" style="fill:none;stroke:red;stroke-width:0.5;"/>
     <text x="1091.0" y="127.0" achars="C" style="fill:black;font-family:helvetica;font-size:10.0px;">C</text>
    </g>
    <g>
     <rect x="1102.0" y="114.0" width="2.0" height="13.0" class="text" style="fill:none;stroke:red;stroke-width:0.5;"/>
     <text x="1102.0" y="127.0" achars="l,I,|,1" style="fill:black;font-family:helvetica;font-size:10.0px;">l</text>
    </g>
    <g>
     <rect x="1106.0" y="113.0" width="4.0" height="16.0" class="text" style="fill:none;stroke:red;stroke-width:0.5;"/>
     <text x="1106.0" y="129.0" achars="t,)" style="fill:black;font-family:helvetica;font-size:10.0px;">t</text>
    </g>
    <rect x="1111.0" y="114.0" width="12.0" height="13.0" class="space" style="fill:none;stroke:blue;stroke-width:0.5;"/>
    <rect x="1137.0" y="114.0" width="9.0" height="13.0" class="space" style="fill:none;stroke:blue;stroke-width:0.5;"/>
    <rect x="1164.0" y="114.0" width="5.0" height="13.0" class="space" style="fill:none;stroke:blue;stroke-width:0.5;"/>
    <rect x="1182.0" y="114.0" width="0.0" height="13.0" class="space" style="fill:none;stroke:blue;stroke-width:0.5;"/>
    <rect x="1189.0" y="114.0" width="-2.0" height="13.0" class="space" style="fill:none;stroke:blue;stroke-width:0.5;"/>
    <g>
     <rect x="1188.0" y="114.0" width="16.0" height="13.0" class="text" style="fill:none;stroke:red;stroke-width:0.5;"/>
     <text x="1188.0" y="127.0" achars="W" style="fill:black;font-family:helvetica;font-size:10.0px;">W</text>
    </g>
    <g>
     <rect x="1204.0" y="118.0" width="8.0" height="9.0" class="text" style="fill:none;stroke:red;stroke-width:0.5;"/>
     <text x="1204.0" y="127.0" achars="e,g" style="fill:black;font-family:helvetica;font-size:10.0px;">e</text>
    </g>
    <g>
     <rect x="1214.0" y="114.0" width="2.0" height="13.0" class="text" style="fill:none;stroke:red;stroke-width:0.5;"/>
     <text x="1214.0" y="127.0" achars="i,j" style="fill:black;font-family:helvetica;font-size:10.0px;">i</text>
    </g>
    <g>
     <rect x="1217.0" y="117.0" width="9.0" height="14.0" class="text" style="fill:none;stroke:red;stroke-width:0.5;"/>
     <text x="1217.0" y="131.0" achars="g,9,0" style="fill:black;font-family:helvetica;font-size:10.0px;">g</text>
    </g>
    <g>
     <rect x="1228.0" y="114.0" width="8.0" height="13.0" class="text" style="fill:none;stroke:red;stroke-width:0.5;"/>
     <text x="1228.0" y="127.0" achars="h" style="fill:black;font-family:helvetica;font-size:10.0px;">h</text>
    </g>
    <g>
     <rect x="1237.0" y="115.0" width="6.0" height="12.0" class="text" style="fill:none;stroke:red;stroke-width:0.5;"/>
     <text x="1237.0" y="127.0" achars="" style="fill:black;font-family:helvetica;font-size:10.0px;">?</text>
    </g>
   </g>
  </g>
 </g>
</svg>
